<?xml version="1.0" encoding="utf-8" standalone="no"?>
<!DOCTYPE svg PUBLIC "-//W3C//DTD SVG 1.1//EN"
  "http://www.w3.org/Graphics/SVG/1.1/DTD/svg11.dtd">
<svg height="704.16pt" version="1.1" viewBox="0 0 1385.28 704.16" width="1385.28pt" xmlns="http://www.w3.org/2000/svg" xmlns:xlink="http://www.w3.org/1999/xlink">
 <metadata>
  <rdf:RDF xmlns:cc="http://creativecommons.org/ns#" xmlns:dc="http://purl.org/dc/elements/1.1/" xmlns:rdf="http://www.w3.org/1999/02/22-rdf-syntax-ns#">
   <cc:Work>
    <dc:type rdf:resource="http://purl.org/dc/dcmitype/StillImage"/>
    <dc:date>2021-11-17T15:30:44.163313</dc:date>
    <dc:format>image/svg+xml</dc:format>
    <dc:creator>
     <cc:Agent>
      <dc:title>Matplotlib v3.4.3, https://matplotlib.org/</dc:title>
     </cc:Agent>
    </dc:creator>
   </cc:Work>
  </rdf:RDF>
 </metadata>
 <defs>
  <style type="text/css">*{stroke-linecap:butt;stroke-linejoin:round;}</style>
 </defs>
 <g id="figure_1">
  <g id="patch_1">
   <path d="M 0 704.16 
L 1385.28 704.16 
L 1385.28 0 
L 0 0 
z
" style="fill:#ffffff;"/>
  </g>
  <g id="axes_1">
   <g id="patch_2">
    <path d="M 153.425257 622.08624 
L 1355.595429 622.08624 
L 1355.595429 52.57728 
L 153.425257 52.57728 
z
" style="fill:#ffffff;"/>
   </g>
   <g id="matplotlib.axis_1">
    <g id="xtick_1">
     <g id="line2d_1">
      <defs>
       <path d="M 0 0 
L 0 3.5 
" id="ma9c35c39e1" style="stroke:#000000;stroke-width:0.8;"/>
      </defs>
      <g>
       <use style="stroke:#000000;stroke-width:0.8;" x="208.069356" xlink:href="#ma9c35c39e1" y="622.08624"/>
      </g>
     </g>
     <g id="text_1">
      <!-- 0 -->
      <g transform="translate(204.888106 636.684678)scale(0.1 -0.1)">
       <defs>
        <path d="M 2034 4250 
Q 1547 4250 1301 3770 
Q 1056 3291 1056 2328 
Q 1056 1369 1301 889 
Q 1547 409 2034 409 
Q 2525 409 2770 889 
Q 3016 1369 3016 2328 
Q 3016 3291 2770 3770 
Q 2525 4250 2034 4250 
z
M 2034 4750 
Q 2819 4750 3233 4129 
Q 3647 3509 3647 2328 
Q 3647 1150 3233 529 
Q 2819 -91 2034 -91 
Q 1250 -91 836 529 
Q 422 1150 422 2328 
Q 422 3509 836 4129 
Q 1250 4750 2034 4750 
z
" id="DejaVuSans-30" transform="scale(0.015625)"/>
       </defs>
       <use xlink:href="#DejaVuSans-30"/>
      </g>
     </g>
    </g>
    <g id="xtick_2">
     <g id="line2d_2">
      <g>
       <use style="stroke:#000000;stroke-width:0.8;" x="426.864546" xlink:href="#ma9c35c39e1" y="622.08624"/>
      </g>
     </g>
     <g id="text_2">
      <!-- 200 -->
      <g transform="translate(417.320796 636.684678)scale(0.1 -0.1)">
       <defs>
        <path d="M 1228 531 
L 3431 531 
L 3431 0 
L 469 0 
L 469 531 
Q 828 903 1448 1529 
Q 2069 2156 2228 2338 
Q 2531 2678 2651 2914 
Q 2772 3150 2772 3378 
Q 2772 3750 2511 3984 
Q 2250 4219 1831 4219 
Q 1534 4219 1204 4116 
Q 875 4013 500 3803 
L 500 4441 
Q 881 4594 1212 4672 
Q 1544 4750 1819 4750 
Q 2544 4750 2975 4387 
Q 3406 4025 3406 3419 
Q 3406 3131 3298 2873 
Q 3191 2616 2906 2266 
Q 2828 2175 2409 1742 
Q 1991 1309 1228 531 
z
" id="DejaVuSans-32" transform="scale(0.015625)"/>
       </defs>
       <use xlink:href="#DejaVuSans-32"/>
       <use x="63.623047" xlink:href="#DejaVuSans-30"/>
       <use x="127.246094" xlink:href="#DejaVuSans-30"/>
      </g>
     </g>
    </g>
    <g id="xtick_3">
     <g id="line2d_3">
      <g>
       <use style="stroke:#000000;stroke-width:0.8;" x="645.659736" xlink:href="#ma9c35c39e1" y="622.08624"/>
      </g>
     </g>
     <g id="text_3">
      <!-- 400 -->
      <g transform="translate(636.115986 636.684678)scale(0.1 -0.1)">
       <defs>
        <path d="M 2419 4116 
L 825 1625 
L 2419 1625 
L 2419 4116 
z
M 2253 4666 
L 3047 4666 
L 3047 1625 
L 3713 1625 
L 3713 1100 
L 3047 1100 
L 3047 0 
L 2419 0 
L 2419 1100 
L 313 1100 
L 313 1709 
L 2253 4666 
z
" id="DejaVuSans-34" transform="scale(0.015625)"/>
       </defs>
       <use xlink:href="#DejaVuSans-34"/>
       <use x="63.623047" xlink:href="#DejaVuSans-30"/>
       <use x="127.246094" xlink:href="#DejaVuSans-30"/>
      </g>
     </g>
    </g>
    <g id="xtick_4">
     <g id="line2d_4">
      <g>
       <use style="stroke:#000000;stroke-width:0.8;" x="864.454926" xlink:href="#ma9c35c39e1" y="622.08624"/>
      </g>
     </g>
     <g id="text_4">
      <!-- 600 -->
      <g transform="translate(854.911176 636.684678)scale(0.1 -0.1)">
       <defs>
        <path d="M 2113 2584 
Q 1688 2584 1439 2293 
Q 1191 2003 1191 1497 
Q 1191 994 1439 701 
Q 1688 409 2113 409 
Q 2538 409 2786 701 
Q 3034 994 3034 1497 
Q 3034 2003 2786 2293 
Q 2538 2584 2113 2584 
z
M 3366 4563 
L 3366 3988 
Q 3128 4100 2886 4159 
Q 2644 4219 2406 4219 
Q 1781 4219 1451 3797 
Q 1122 3375 1075 2522 
Q 1259 2794 1537 2939 
Q 1816 3084 2150 3084 
Q 2853 3084 3261 2657 
Q 3669 2231 3669 1497 
Q 3669 778 3244 343 
Q 2819 -91 2113 -91 
Q 1303 -91 875 529 
Q 447 1150 447 2328 
Q 447 3434 972 4092 
Q 1497 4750 2381 4750 
Q 2619 4750 2861 4703 
Q 3103 4656 3366 4563 
z
" id="DejaVuSans-36" transform="scale(0.015625)"/>
       </defs>
       <use xlink:href="#DejaVuSans-36"/>
       <use x="63.623047" xlink:href="#DejaVuSans-30"/>
       <use x="127.246094" xlink:href="#DejaVuSans-30"/>
      </g>
     </g>
    </g>
    <g id="xtick_5">
     <g id="line2d_5">
      <g>
       <use style="stroke:#000000;stroke-width:0.8;" x="1083.250116" xlink:href="#ma9c35c39e1" y="622.08624"/>
      </g>
     </g>
     <g id="text_5">
      <!-- 800 -->
      <g transform="translate(1073.706366 636.684678)scale(0.1 -0.1)">
       <defs>
        <path d="M 2034 2216 
Q 1584 2216 1326 1975 
Q 1069 1734 1069 1313 
Q 1069 891 1326 650 
Q 1584 409 2034 409 
Q 2484 409 2743 651 
Q 3003 894 3003 1313 
Q 3003 1734 2745 1975 
Q 2488 2216 2034 2216 
z
M 1403 2484 
Q 997 2584 770 2862 
Q 544 3141 544 3541 
Q 544 4100 942 4425 
Q 1341 4750 2034 4750 
Q 2731 4750 3128 4425 
Q 3525 4100 3525 3541 
Q 3525 3141 3298 2862 
Q 3072 2584 2669 2484 
Q 3125 2378 3379 2068 
Q 3634 1759 3634 1313 
Q 3634 634 3220 271 
Q 2806 -91 2034 -91 
Q 1263 -91 848 271 
Q 434 634 434 1313 
Q 434 1759 690 2068 
Q 947 2378 1403 2484 
z
M 1172 3481 
Q 1172 3119 1398 2916 
Q 1625 2713 2034 2713 
Q 2441 2713 2670 2916 
Q 2900 3119 2900 3481 
Q 2900 3844 2670 4047 
Q 2441 4250 2034 4250 
Q 1625 4250 1398 4047 
Q 1172 3844 1172 3481 
z
" id="DejaVuSans-38" transform="scale(0.015625)"/>
       </defs>
       <use xlink:href="#DejaVuSans-38"/>
       <use x="63.623047" xlink:href="#DejaVuSans-30"/>
       <use x="127.246094" xlink:href="#DejaVuSans-30"/>
      </g>
     </g>
    </g>
    <g id="xtick_6">
     <g id="line2d_6">
      <g>
       <use style="stroke:#000000;stroke-width:0.8;" x="1302.045306" xlink:href="#ma9c35c39e1" y="622.08624"/>
      </g>
     </g>
     <g id="text_6">
      <!-- 1000 -->
      <g transform="translate(1289.320306 636.684678)scale(0.1 -0.1)">
       <defs>
        <path d="M 794 531 
L 1825 531 
L 1825 4091 
L 703 3866 
L 703 4441 
L 1819 4666 
L 2450 4666 
L 2450 531 
L 3481 531 
L 3481 0 
L 794 0 
L 794 531 
z
" id="DejaVuSans-31" transform="scale(0.015625)"/>
       </defs>
       <use xlink:href="#DejaVuSans-31"/>
       <use x="63.623047" xlink:href="#DejaVuSans-30"/>
       <use x="127.246094" xlink:href="#DejaVuSans-30"/>
       <use x="190.869141" xlink:href="#DejaVuSans-30"/>
      </g>
     </g>
    </g>
    <g id="text_7">
     <!-- s -->
     <g transform="translate(751.905655 650.362803)scale(0.1 -0.1)">
      <defs>
       <path d="M 2834 3397 
L 2834 2853 
Q 2591 2978 2328 3040 
Q 2066 3103 1784 3103 
Q 1356 3103 1142 2972 
Q 928 2841 928 2578 
Q 928 2378 1081 2264 
Q 1234 2150 1697 2047 
L 1894 2003 
Q 2506 1872 2764 1633 
Q 3022 1394 3022 966 
Q 3022 478 2636 193 
Q 2250 -91 1575 -91 
Q 1294 -91 989 -36 
Q 684 19 347 128 
L 347 722 
Q 666 556 975 473 
Q 1284 391 1588 391 
Q 1994 391 2212 530 
Q 2431 669 2431 922 
Q 2431 1156 2273 1281 
Q 2116 1406 1581 1522 
L 1381 1569 
Q 847 1681 609 1914 
Q 372 2147 372 2553 
Q 372 3047 722 3315 
Q 1072 3584 1716 3584 
Q 2034 3584 2315 3537 
Q 2597 3491 2834 3397 
z
" id="DejaVuSans-73" transform="scale(0.015625)"/>
      </defs>
      <use xlink:href="#DejaVuSans-73"/>
     </g>
    </g>
   </g>
   <g id="matplotlib.axis_2">
    <g id="ytick_1">
     <g id="line2d_7">
      <defs>
       <path d="M 0 0 
L -3.5 0 
" id="m99c7a57d67" style="stroke:#000000;stroke-width:0.8;"/>
      </defs>
      <g>
       <use style="stroke:#000000;stroke-width:0.8;" x="153.425257" xlink:href="#m99c7a57d67" y="584.080059"/>
      </g>
     </g>
     <g id="text_8">
      <!-- −20 -->
      <g transform="translate(125.32057 587.879277)scale(0.1 -0.1)">
       <defs>
        <path d="M 678 2272 
L 4684 2272 
L 4684 1741 
L 678 1741 
L 678 2272 
z
" id="DejaVuSans-2212" transform="scale(0.015625)"/>
       </defs>
       <use xlink:href="#DejaVuSans-2212"/>
       <use x="83.789062" xlink:href="#DejaVuSans-32"/>
       <use x="147.412109" xlink:href="#DejaVuSans-30"/>
      </g>
     </g>
    </g>
    <g id="ytick_2">
     <g id="line2d_8">
      <g>
       <use style="stroke:#000000;stroke-width:0.8;" x="153.425257" xlink:href="#m99c7a57d67" y="491.619377"/>
      </g>
     </g>
     <g id="text_9">
      <!-- −10 -->
      <g transform="translate(125.32057 495.418596)scale(0.1 -0.1)">
       <use xlink:href="#DejaVuSans-2212"/>
       <use x="83.789062" xlink:href="#DejaVuSans-31"/>
       <use x="147.412109" xlink:href="#DejaVuSans-30"/>
      </g>
     </g>
    </g>
    <g id="ytick_3">
     <g id="line2d_9">
      <g>
       <use style="stroke:#000000;stroke-width:0.8;" x="153.425257" xlink:href="#m99c7a57d67" y="399.158696"/>
      </g>
     </g>
     <g id="text_10">
      <!-- 0 -->
      <g transform="translate(140.062757 402.957915)scale(0.1 -0.1)">
       <use xlink:href="#DejaVuSans-30"/>
      </g>
     </g>
    </g>
    <g id="ytick_4">
     <g id="line2d_10">
      <g>
       <use style="stroke:#000000;stroke-width:0.8;" x="153.425257" xlink:href="#m99c7a57d67" y="306.698015"/>
      </g>
     </g>
     <g id="text_11">
      <!-- 10 -->
      <g transform="translate(133.700257 310.497234)scale(0.1 -0.1)">
       <use xlink:href="#DejaVuSans-31"/>
       <use x="63.623047" xlink:href="#DejaVuSans-30"/>
      </g>
     </g>
    </g>
    <g id="ytick_5">
     <g id="line2d_11">
      <g>
       <use style="stroke:#000000;stroke-width:0.8;" x="153.425257" xlink:href="#m99c7a57d67" y="214.237334"/>
      </g>
     </g>
     <g id="text_12">
      <!-- 20 -->
      <g transform="translate(133.700257 218.036553)scale(0.1 -0.1)">
       <use xlink:href="#DejaVuSans-32"/>
       <use x="63.623047" xlink:href="#DejaVuSans-30"/>
      </g>
     </g>
    </g>
    <g id="ytick_6">
     <g id="line2d_12">
      <g>
       <use style="stroke:#000000;stroke-width:0.8;" x="153.425257" xlink:href="#m99c7a57d67" y="121.776653"/>
      </g>
     </g>
     <g id="text_13">
      <!-- 30 -->
      <g transform="translate(133.700257 125.575871)scale(0.1 -0.1)">
       <defs>
        <path d="M 2597 2516 
Q 3050 2419 3304 2112 
Q 3559 1806 3559 1356 
Q 3559 666 3084 287 
Q 2609 -91 1734 -91 
Q 1441 -91 1130 -33 
Q 819 25 488 141 
L 488 750 
Q 750 597 1062 519 
Q 1375 441 1716 441 
Q 2309 441 2620 675 
Q 2931 909 2931 1356 
Q 2931 1769 2642 2001 
Q 2353 2234 1838 2234 
L 1294 2234 
L 1294 2753 
L 1863 2753 
Q 2328 2753 2575 2939 
Q 2822 3125 2822 3475 
Q 2822 3834 2567 4026 
Q 2313 4219 1838 4219 
Q 1578 4219 1281 4162 
Q 984 4106 628 3988 
L 628 4550 
Q 988 4650 1302 4700 
Q 1616 4750 1894 4750 
Q 2613 4750 3031 4423 
Q 3450 4097 3450 3541 
Q 3450 3153 3228 2886 
Q 3006 2619 2597 2516 
z
" id="DejaVuSans-33" transform="scale(0.015625)"/>
       </defs>
       <use xlink:href="#DejaVuSans-33"/>
       <use x="63.623047" xlink:href="#DejaVuSans-30"/>
      </g>
     </g>
    </g>
    <g id="text_14">
     <!-- $\mathbf{\delta \rho}$ [$m$] -->
     <g transform="translate(119.22057 354.73176)rotate(-90)scale(0.1 -0.1)">
      <defs>
       <path d="M 3613 3950 
Q 3231 4169 2234 4169 
Q 1703 4169 1703 3863 
Q 1703 3572 2431 3463 
Q 3156 3353 3594 3003 
Q 4125 2581 4125 1734 
Q 4125 888 3612 398 
Q 3100 -91 2206 -91 
Q 1309 -91 793 398 
Q 278 888 278 1747 
Q 278 2397 791 2900 
Q 950 3056 1150 3156 
Q 688 3403 688 3900 
Q 688 4913 2338 4913 
Q 3166 4913 3613 4694 
L 3613 3950 
z
M 1938 2750 
Q 1772 2681 1641 2506 
Q 1434 2234 1434 1744 
Q 1434 1253 1639 978 
Q 1844 703 2200 703 
Q 2553 703 2759 983 
Q 2966 1263 2966 1731 
Q 2966 2197 2744 2433 
Q 2522 2669 2213 2703 
Q 2069 2719 1938 2750 
z
" id="DejaVuSans-Bold-3b4" transform="scale(0.015625)"/>
       <path d="M 1003 3013 
Q 1425 3413 1809 3500 
Q 2203 3594 2581 3594 
Q 2700 3594 2816 3584 
Q 3425 3538 3878 3069 
Q 4294 2631 4294 1747 
Q 4294 938 3878 423 
Q 3463 -91 2816 -91 
Q 2450 -91 2169 54 
Q 1888 200 1656 506 
L 1656 -1331 
L 538 -1331 
L 538 1688 
Q 538 2566 1003 3013 
z
M 2400 2772 
Q 2041 2772 1848 2508 
Q 1656 2244 1656 1747 
Q 1656 1250 1848 986 
Q 2041 722 2400 722 
Q 2759 722 2948 984 
Q 3138 1247 3138 1747 
Q 3138 2247 2948 2509 
Q 2759 2772 2400 2772 
z
" id="DejaVuSans-Bold-3c1" transform="scale(0.015625)"/>
       <path id="DejaVuSans-20" transform="scale(0.015625)"/>
       <path d="M 550 4863 
L 1875 4863 
L 1875 4416 
L 1125 4416 
L 1125 -397 
L 1875 -397 
L 1875 -844 
L 550 -844 
L 550 4863 
z
" id="DejaVuSans-5b" transform="scale(0.015625)"/>
       <path d="M 5747 2113 
L 5338 0 
L 4763 0 
L 5166 2094 
Q 5191 2228 5203 2325 
Q 5216 2422 5216 2491 
Q 5216 2772 5059 2928 
Q 4903 3084 4622 3084 
Q 4203 3084 3875 2770 
Q 3547 2456 3450 1953 
L 3066 0 
L 2491 0 
L 2900 2094 
Q 2925 2209 2937 2307 
Q 2950 2406 2950 2484 
Q 2950 2769 2794 2926 
Q 2638 3084 2363 3084 
Q 1938 3084 1609 2770 
Q 1281 2456 1184 1953 
L 800 0 
L 225 0 
L 909 3500 
L 1484 3500 
L 1375 2956 
Q 1609 3263 1923 3423 
Q 2238 3584 2597 3584 
Q 2978 3584 3223 3384 
Q 3469 3184 3519 2828 
Q 3781 3197 4126 3390 
Q 4472 3584 4856 3584 
Q 5306 3584 5551 3325 
Q 5797 3066 5797 2591 
Q 5797 2488 5784 2364 
Q 5772 2241 5747 2113 
z
" id="DejaVuSans-Oblique-6d" transform="scale(0.015625)"/>
       <path d="M 1947 4863 
L 1947 -844 
L 622 -844 
L 622 -397 
L 1369 -397 
L 1369 4416 
L 622 4416 
L 622 4863 
L 1947 4863 
z
" id="DejaVuSans-5d" transform="scale(0.015625)"/>
      </defs>
      <use transform="translate(0 0.234375)" xlink:href="#DejaVuSans-Bold-3b4"/>
      <use transform="translate(68.701172 0.234375)" xlink:href="#DejaVuSans-Bold-3c1"/>
      <use transform="translate(140.283203 0.234375)" xlink:href="#DejaVuSans-20"/>
      <use transform="translate(172.070312 0.234375)" xlink:href="#DejaVuSans-5b"/>
      <use transform="translate(211.083984 0.234375)" xlink:href="#DejaVuSans-Oblique-6d"/>
      <use transform="translate(308.496094 0.234375)" xlink:href="#DejaVuSans-5d"/>
     </g>
    </g>
   </g>
   <g id="line2d_13">
    <path clip-path="url(#p80429970ce)" d="M 208.069356 399.158696 
L 209.163332 399.484533 
L 210.257308 398.990132 
L 211.351284 398.704326 
L 212.44526 398.291431 
L 213.539236 399.009264 
L 214.633212 399.048592 
L 216.821163 398.689138 
L 217.915139 399.141277 
L 220.103091 398.81494 
L 221.197067 399.018329 
L 222.291043 398.677516 
L 223.385019 399.094832 
L 226.666947 398.941961 
L 227.760923 398.706976 
L 228.854899 398.599824 
L 229.948875 399.019246 
L 231.042851 398.927993 
L 234.324779 399.398136 
L 235.418755 399.259062 
L 237.606706 398.187355 
L 238.700682 398.566116 
L 239.794658 398.509431 
L 240.888634 398.794045 
L 241.98261 398.572927 
L 243.076586 399.017674 
L 244.170562 398.742056 
L 245.264538 398.260774 
L 246.358514 398.554549 
L 247.45249 398.475782 
L 249.640442 398.731659 
L 250.734418 398.394208 
L 251.828394 398.190109 
L 252.92237 398.47235 
L 254.016346 398.12993 
L 255.110322 398.694523 
L 256.204298 398.735172 
L 257.298274 398.509607 
L 258.39225 397.945978 
L 259.486225 397.884079 
L 260.580201 398.330995 
L 261.674177 398.044909 
L 262.768153 398.302239 
L 264.956105 398.038269 
L 266.050081 398.457501 
L 269.332009 397.633886 
L 270.425985 398.219501 
L 271.519961 398.155156 
L 272.613937 397.694096 
L 273.707913 397.929884 
L 276.989841 397.83055 
L 278.083817 397.570036 
L 279.177793 397.50572 
L 280.271769 397.672586 
L 283.553696 397.692336 
L 284.647672 397.282947 
L 285.741648 397.21318 
L 290.117552 397.587682 
L 291.211528 396.396071 
L 292.305504 392.284125 
L 295.587432 381.718337 
L 296.681408 379.600858 
L 297.775384 374.192224 
L 298.86936 369.555309 
L 299.963336 372.31455 
L 301.057312 373.344713 
L 302.151288 372.49002 
L 304.339239 368.139361 
L 305.433215 367.498346 
L 306.527191 369.091671 
L 307.621167 369.701382 
L 309.809119 370.334758 
L 310.903095 370.617278 
L 313.091047 368.968481 
L 314.185023 368.041901 
L 316.372975 363.728808 
L 317.466951 360.571487 
L 319.654903 360.528214 
L 320.748879 359.883429 
L 322.936831 357.301496 
L 324.030807 355.615113 
L 326.218758 353.539573 
L 327.312734 351.738735 
L 328.40671 350.860083 
L 329.500686 350.91198 
L 330.594662 350.019538 
L 331.688638 349.501079 
L 333.87659 348.750789 
L 334.970566 347.949068 
L 336.064542 347.545707 
L 337.158518 346.985038 
L 339.34647 350.017323 
L 340.440446 350.87625 
L 341.534422 351.31348 
L 342.628398 352.318056 
L 344.81635 353.606447 
L 345.910326 354.724554 
L 348.098277 355.900112 
L 349.192253 357.419912 
L 350.286229 358.674063 
L 352.474181 359.161365 
L 353.568157 358.619136 
L 355.756109 359.652444 
L 356.850085 359.634681 
L 360.132013 360.217205 
L 362.319965 361.371771 
L 363.413941 361.51043 
L 364.507917 361.996347 
L 365.601893 362.940555 
L 367.789845 364.235965 
L 369.977796 364.572342 
L 371.071772 365.206781 
L 372.165748 366.130195 
L 373.259724 366.243965 
L 374.3537 367.180232 
L 375.447676 367.733896 
L 376.541652 368.69089 
L 377.635628 369.93415 
L 378.729604 370.586853 
L 379.82358 371.551478 
L 380.917556 372.296504 
L 382.011532 373.375343 
L 383.105508 374.060014 
L 384.199484 375.375924 
L 385.29346 376.329505 
L 386.387436 376.799815 
L 387.481412 377.598901 
L 388.575388 377.975935 
L 389.669364 378.648949 
L 391.857315 380.320827 
L 392.951291 381.66252 
L 394.045267 382.502747 
L 396.233219 383.94253 
L 397.327195 384.724494 
L 398.421171 385.213562 
L 399.515147 386.315094 
L 400.609123 387.106575 
L 401.703099 387.535784 
L 402.797075 387.612374 
L 403.891051 388.243384 
L 404.985027 388.560108 
L 406.079003 388.1213 
L 407.172979 388.594031 
L 409.360931 390.402817 
L 410.454907 390.800415 
L 411.548883 389.964293 
L 413.736834 390.377729 
L 414.83081 390.629648 
L 415.924786 390.621636 
L 417.018762 390.222968 
L 418.112738 390.443973 
L 419.206714 390.535316 
L 420.30069 390.763953 
L 422.488642 391.913199 
L 424.676594 392.417707 
L 425.77057 393.044994 
L 426.864546 393.181502 
L 429.052498 393.59428 
L 431.24045 394.083378 
L 432.334426 394.359635 
L 434.522377 395.215148 
L 435.616353 395.840628 
L 436.710329 395.680102 
L 437.804305 395.727459 
L 441.086233 396.239396 
L 443.274185 396.529806 
L 444.368161 396.446656 
L 445.462137 396.625151 
L 446.556113 396.351719 
L 447.650089 396.839626 
L 449.838041 396.685601 
L 452.025993 397.1247 
L 453.119969 397.398067 
L 454.213945 397.338585 
L 455.307921 397.733458 
L 456.401896 397.827651 
L 457.495872 398.081662 
L 458.589848 397.733852 
L 460.7778 398.606452 
L 461.871776 397.982711 
L 462.965752 397.865713 
L 464.059728 397.114696 
L 465.153704 396.894108 
L 466.24768 396.390359 
L 467.341656 396.061767 
L 468.435632 395.498555 
L 470.623584 395.540061 
L 471.71756 394.156671 
L 473.905512 392.240116 
L 474.999488 391.853912 
L 476.093464 391.096401 
L 477.18744 390.766233 
L 478.281415 389.654087 
L 479.375391 388.712564 
L 480.469367 388.484683 
L 481.563343 387.743071 
L 483.751295 385.686492 
L 484.845271 384.602347 
L 485.939247 384.016825 
L 488.127199 382.09325 
L 489.221175 381.750529 
L 490.315151 380.698873 
L 491.409127 380.244431 
L 492.503103 379.365919 
L 493.597079 378.164852 
L 494.691055 377.137607 
L 495.785031 376.625086 
L 500.160934 372.485197 
L 505.630814 368.890304 
L 507.818766 366.543634 
L 508.912742 365.376731 
L 510.006718 364.709944 
L 512.19467 362.89418 
L 513.288646 362.031242 
L 515.476598 359.854618 
L 516.570574 359.174122 
L 517.66455 357.627034 
L 519.852502 355.955715 
L 522.040453 354.527712 
L 524.228405 352.703756 
L 525.322381 351.891169 
L 526.416357 350.828096 
L 529.698285 348.161175 
L 530.792261 347.697678 
L 532.980213 347.379628 
L 534.074189 346.509593 
L 535.168165 345.895308 
L 536.262141 345.440193 
L 537.356117 345.348923 
L 539.544069 344.234519 
L 540.638045 344.024325 
L 541.732021 343.275716 
L 542.825997 342.70162 
L 546.107924 342.035186 
L 548.295876 341.402365 
L 549.389852 341.330076 
L 550.483828 340.897652 
L 551.577804 340.668573 
L 552.67178 339.817771 
L 553.765756 339.173741 
L 555.953708 338.812971 
L 557.047684 338.47516 
L 558.14166 338.491851 
L 559.235636 337.264996 
L 560.329612 335.081696 
L 561.423588 331.31999 
L 562.517564 331.261915 
L 563.61154 328.826664 
L 564.705516 323.063835 
L 565.799491 321.958535 
L 566.893467 321.622695 
L 567.987443 319.999689 
L 569.081419 319.597898 
L 570.175395 316.516275 
L 571.269371 312.545788 
L 572.363347 309.536726 
L 573.457323 307.364019 
L 574.551299 306.228791 
L 575.645275 306.737553 
L 576.739251 305.726621 
L 577.833227 303.645811 
L 578.927203 305.021498 
L 580.021179 305.512964 
L 581.115155 305.709336 
L 582.209131 304.923726 
L 584.397083 302.091417 
L 585.491059 298.243884 
L 586.585035 296.843183 
L 588.772986 293.12293 
L 589.866962 290.400225 
L 590.960938 286.660601 
L 593.14889 282.344253 
L 594.242866 279.623835 
L 596.430818 277.613551 
L 597.524794 277.228802 
L 598.61877 277.028135 
L 600.806722 277.311766 
L 601.900698 277.20068 
L 602.994674 277.383008 
L 605.182626 278.000043 
L 606.276602 278.522793 
L 607.370578 279.92344 
L 608.464554 280.947184 
L 609.558529 282.437807 
L 610.652505 283.497119 
L 612.840457 285.249989 
L 613.934433 285.852713 
L 615.028409 287.102539 
L 616.122385 287.714999 
L 617.216361 288.165961 
L 619.404313 290.336751 
L 620.498289 290.245242 
L 621.592265 290.858791 
L 623.780217 293.155078 
L 624.874193 294.106114 
L 625.968169 295.593978 
L 627.062145 296.697716 
L 628.156121 298.054557 
L 629.250097 297.644499 
L 630.344073 297.874529 
L 631.438048 299.392914 
L 632.532024 300.386164 
L 634.719976 302.024468 
L 635.813952 303.030356 
L 638.001904 305.55488 
L 639.09588 306.188021 
L 640.189856 308.113127 
L 641.283832 309.540792 
L 642.377808 310.613164 
L 643.471784 304.698251 
L 644.56576 300.557231 
L 645.659736 303.406104 
L 646.753712 303.8337 
L 647.847688 305.301365 
L 648.941664 306.419226 
L 651.129616 309.151835 
L 654.411543 314.571571 
L 655.505519 315.999369 
L 657.693471 320.839515 
L 658.787447 324.115364 
L 659.881423 327.782807 
L 660.975399 329.918938 
L 662.069375 335.211798 
L 663.163351 337.59953 
L 664.257327 340.547446 
L 665.351303 346.076392 
L 667.539255 355.589547 
L 668.633231 366.865306 
L 669.727207 372.64676 
L 670.821183 377.275694 
L 673.009135 387.293095 
L 674.103111 391.964227 
L 675.197086 392.341221 
L 676.291062 394.575377 
L 677.385038 397.528056 
L 678.479014 399.2764 
L 679.57299 401.723106 
L 680.666966 407.35929 
L 681.760942 415.345667 
L 683.948894 428.018478 
L 687.230822 442.394358 
L 688.324798 445.336161 
L 689.418774 449.072783 
L 690.51275 451.98469 
L 692.700702 456.468948 
L 693.794678 462.022318 
L 694.888654 466.825233 
L 697.076605 474.348649 
L 698.170581 477.379057 
L 699.264557 485.850673 
L 700.358533 490.117017 
L 701.452509 492.034835 
L 702.546485 497.445352 
L 703.640461 500.371505 
L 704.734437 502.616587 
L 705.828413 504.006182 
L 706.922389 511.305059 
L 708.016365 515.440334 
L 709.110341 517.114738 
L 710.204317 517.021022 
L 711.298293 516.17222 
L 713.486245 525.916824 
L 714.580221 529.974683 
L 716.768173 537.313032 
L 717.862149 539.929332 
L 718.956124 542.153367 
L 720.0501 543.818415 
L 721.144076 546.768146 
L 722.238052 551.901641 
L 723.332028 554.784405 
L 724.426004 555.447462 
L 725.51998 556.46362 
L 726.613956 563.215744 
L 728.801908 572.466848 
L 729.895884 572.833486 
L 730.98986 572.619159 
L 732.083836 572.913249 
L 733.177812 572.850302 
L 734.271788 571.126426 
L 735.365764 570.59866 
L 736.45974 570.624388 
L 737.553716 571.066927 
L 738.647692 572.094631 
L 739.741668 572.35179 
L 740.835643 573.224303 
L 741.929619 573.691896 
L 744.117571 575.212297 
L 745.211547 576.094209 
L 746.305523 576.49294 
L 747.399499 577.319105 
L 748.493475 577.68936 
L 749.587451 580.360308 
L 750.681427 580.863185 
L 751.775403 581.730407 
L 752.869379 582.935322 
L 753.963355 582.796329 
L 755.057331 581.879224 
L 756.151307 581.562433 
L 757.245283 580.831362 
L 759.433235 580.035479 
L 760.527211 579.330252 
L 761.621187 578.987188 
L 762.715162 578.916179 
L 763.809138 578.634676 
L 764.903114 579.100893 
L 768.185042 578.196241 
L 770.372994 578.513474 
L 771.46697 577.188393 
L 772.560946 576.636828 
L 774.748898 576.297394 
L 775.842874 577.306269 
L 778.030826 580.042645 
L 779.124802 581.890257 
L 780.218778 580.023102 
L 781.312754 580.746924 
L 782.40673 580.248618 
L 783.500706 579.95385 
L 785.688657 579.766208 
L 786.782633 579.537936 
L 790.064561 577.253806 
L 791.158537 575.785689 
L 793.346489 572.249469 
L 794.440465 571.027621 
L 795.534441 567.507744 
L 796.628417 564.571107 
L 797.722393 559.943387 
L 799.910345 553.2953 
L 801.004321 549.136984 
L 802.098297 546.539882 
L 804.286249 542.300727 
L 805.380225 541.216429 
L 806.4742 537.739139 
L 807.568176 534.791178 
L 808.662152 532.499401 
L 810.850104 527.488754 
L 811.94408 526.074795 
L 813.038056 523.555924 
L 814.132032 522.048624 
L 815.226008 519.864229 
L 816.319984 517.985081 
L 817.41396 515.736056 
L 818.507936 514.260665 
L 819.601912 512.18246 
L 820.695888 510.419448 
L 821.789864 508.262045 
L 822.88384 506.370869 
L 823.977816 503.803754 
L 825.071792 502.36228 
L 826.165768 500.295072 
L 827.259744 498.9264 
L 828.353719 497.773226 
L 830.541671 491.635082 
L 831.635647 489.259786 
L 832.729623 485.684789 
L 834.917575 477.169878 
L 836.011551 470.563591 
L 837.105527 469.634979 
L 838.199503 467.253897 
L 839.293479 464.101722 
L 840.387455 460.522956 
L 842.575407 452.229322 
L 843.669383 449.611559 
L 844.763359 447.65401 
L 845.857335 443.793278 
L 846.951311 439.017375 
L 848.045287 433.462592 
L 849.139263 424.210356 
L 850.233238 416.774387 
L 851.327214 411.544826 
L 852.42119 409.344114 
L 853.515166 406.427747 
L 854.609142 402.312901 
L 855.703118 397.678457 
L 856.797094 393.657023 
L 857.89107 391.794358 
L 858.985046 391.943281 
L 860.079022 394.785912 
L 861.172998 396.304645 
L 862.266974 400.347009 
L 863.36095 402.706576 
L 864.454926 405.903294 
L 865.548902 407.626944 
L 866.642878 411.023133 
L 867.736854 414.044217 
L 871.018782 419.214851 
L 872.112757 420.834089 
L 873.206733 421.097027 
L 874.300709 421.62346 
L 876.488661 420.788977 
L 877.582637 420.893774 
L 878.676613 419.806476 
L 879.770589 413.683224 
L 880.864565 411.0278 
L 883.052517 408.784965 
L 885.240469 407.004934 
L 886.334445 406.409558 
L 887.428421 406.030918 
L 888.522397 404.417686 
L 890.710349 402.429417 
L 891.804325 402.911364 
L 892.898301 401.348851 
L 893.992276 400.559655 
L 895.086252 400.103944 
L 896.180228 398.819858 
L 897.274204 399.088667 
L 898.36818 398.630824 
L 899.462156 397.581883 
L 900.556132 395.998661 
L 901.650108 395.116882 
L 902.744084 394.867304 
L 903.83806 394.775148 
L 904.932036 394.29375 
L 906.026012 396.28035 
L 907.119988 396.155039 
L 908.213964 395.514482 
L 909.30794 395.080994 
L 911.495892 392.571746 
L 912.589868 391.167189 
L 913.683844 390.19888 
L 914.77782 388.76875 
L 915.871795 387.659302 
L 916.965771 385.795934 
L 918.059747 383.15479 
L 919.153723 385.027698 
L 920.247699 385.158297 
L 921.341675 384.405001 
L 922.435651 383.335801 
L 924.623603 380.643567 
L 925.717579 379.261623 
L 926.811555 377.488995 
L 927.905531 373.3123 
L 928.999507 367.774029 
L 930.093483 365.759624 
L 932.281435 363.379789 
L 933.375411 363.507178 
L 934.469387 365.824868 
L 935.563363 371.013978 
L 936.657339 375.192793 
L 937.751314 375.530762 
L 938.84529 375.639189 
L 939.939266 375.571417 
L 941.033242 372.651827 
L 942.127218 371.374073 
L 943.221194 369.88333 
L 944.31517 369.766551 
L 945.409146 369.29479 
L 946.503122 370.000651 
L 947.597098 371.069247 
L 948.691074 371.056662 
L 949.78505 372.427257 
L 950.879026 372.014938 
L 951.973002 369.86997 
L 953.066978 370.276678 
L 954.160954 370.552768 
L 956.348906 366.790711 
L 957.442882 365.933744 
L 958.536858 366.705812 
L 959.630833 366.556699 
L 960.724809 365.477599 
L 961.818785 363.360622 
L 962.912761 360.724794 
L 965.100713 357.166299 
L 966.194689 354.374133 
L 967.288665 356.310055 
L 968.382641 358.892121 
L 969.476617 360.648927 
L 970.570593 361.397291 
L 971.664569 362.725556 
L 972.758545 364.565787 
L 973.852521 365.418841 
L 974.946497 364.81909 
L 976.040473 364.881958 
L 977.134449 364.736731 
L 978.228425 365.243421 
L 979.322401 364.188877 
L 980.416377 363.516071 
L 981.510352 363.711752 
L 982.604328 362.487587 
L 984.79228 360.695634 
L 985.886256 363.234382 
L 988.074208 366.403556 
L 989.168184 368.876873 
L 991.356136 372.453441 
L 992.450112 373.602723 
L 993.544088 373.853149 
L 994.638064 374.881854 
L 996.826016 376.134687 
L 999.013968 378.594948 
L 1000.107944 379.994699 
L 1001.20192 380.995479 
L 1002.295896 381.736188 
L 1003.389871 383.29588 
L 1005.577823 385.394369 
L 1007.765775 386.818326 
L 1008.859751 387.790403 
L 1009.953727 387.986025 
L 1014.329631 390.702194 
L 1015.423607 390.788492 
L 1016.517583 391.02535 
L 1017.611559 391.616097 
L 1019.799511 393.342148 
L 1020.893487 395.047248 
L 1021.987463 396.475514 
L 1024.175415 396.625272 
L 1025.26939 396.459342 
L 1026.363366 397.408138 
L 1027.457342 397.674089 
L 1028.551318 397.768359 
L 1029.645294 397.307303 
L 1030.73927 398.025768 
L 1031.833246 398.509633 
L 1032.927222 400.974363 
L 1035.115174 407.10286 
L 1036.20915 408.408085 
L 1037.303126 409.162823 
L 1038.397102 409.699588 
L 1039.491078 410.723896 
L 1040.585054 411.979143 
L 1043.866982 414.586488 
L 1046.054934 415.841225 
L 1047.148909 416.780983 
L 1048.242885 417.342927 
L 1049.336861 418.305458 
L 1050.430837 418.900952 
L 1051.524813 420.702016 
L 1052.618789 421.566818 
L 1053.712765 422.89679 
L 1055.900717 423.115496 
L 1058.088669 422.541235 
L 1059.182645 421.179551 
L 1060.276621 420.770859 
L 1061.370597 420.521754 
L 1062.464573 419.902528 
L 1065.746501 416.137161 
L 1066.840477 415.235129 
L 1067.934453 414.022901 
L 1070.122404 412.230825 
L 1072.310356 410.035431 
L 1073.404332 409.505675 
L 1074.498308 408.331659 
L 1075.592284 407.39898 
L 1076.68626 406.793574 
L 1077.780236 405.749157 
L 1079.968188 404.472337 
L 1081.062164 403.668694 
L 1082.15614 402.66663 
L 1085.438068 400.463648 
L 1087.62602 399.483381 
L 1089.813972 397.821229 
L 1090.907947 397.669999 
L 1092.001923 396.960304 
L 1093.095899 395.979233 
L 1094.189875 395.295103 
L 1095.283851 394.407578 
L 1097.471803 392.895179 
L 1098.565779 392.635125 
L 1099.659755 391.818034 
L 1101.847707 390.664265 
L 1102.941683 390.608839 
L 1104.035659 390.279476 
L 1105.129635 389.72754 
L 1106.223611 388.436521 
L 1107.317587 388.476976 
L 1108.411563 388.022629 
L 1109.505539 387.757609 
L 1111.693491 386.813213 
L 1112.787466 385.947573 
L 1113.881442 385.974206 
L 1114.975418 385.455784 
L 1116.069394 385.088421 
L 1117.16337 384.147324 
L 1118.257346 382.81982 
L 1119.351322 381.241795 
L 1120.445298 377.388229 
L 1121.539274 375.302604 
L 1124.821202 366.317097 
L 1125.915178 363.998687 
L 1127.009154 362.103424 
L 1129.197106 357.682069 
L 1130.291082 355.123448 
L 1131.385058 353.354499 
L 1135.760961 343.908029 
L 1136.854937 342.553785 
L 1137.948913 338.265188 
L 1139.042889 335.107168 
L 1141.230841 329.540207 
L 1142.324817 327.584477 
L 1143.418793 324.003095 
L 1144.512769 322.040973 
L 1145.606745 319.022965 
L 1148.888673 312.348448 
L 1149.982649 309.358898 
L 1152.170601 304.689308 
L 1153.264577 303.08802 
L 1154.358553 301.117223 
L 1155.452529 298.915894 
L 1156.546504 298.093533 
L 1158.734456 293.650763 
L 1159.828432 293.296564 
L 1160.922408 294.458494 
L 1162.016384 293.395443 
L 1163.11036 291.513223 
L 1164.204336 291.725942 
L 1165.298312 293.660939 
L 1166.392288 292.998384 
L 1167.486264 292.917604 
L 1168.58024 292.560825 
L 1169.674216 289.408385 
L 1170.768192 287.351824 
L 1171.862168 286.682713 
L 1172.956144 283.213156 
L 1174.05012 281.147785 
L 1176.238072 275.19548 
L 1177.332048 272.516026 
L 1178.426023 272.46912 
L 1179.519999 271.330619 
L 1180.613975 266.340791 
L 1181.707951 262.422373 
L 1182.801927 261.569606 
L 1183.895903 261.645744 
L 1184.989879 262.418102 
L 1187.177831 262.858238 
L 1188.271807 262.981467 
L 1189.365783 262.267885 
L 1190.459759 261.026932 
L 1192.647711 260.173546 
L 1193.741687 260.516113 
L 1194.835663 263.83213 
L 1195.929639 264.776737 
L 1198.117591 265.129716 
L 1199.211567 265.727152 
L 1201.399518 269.481369 
L 1202.493494 270.636485 
L 1203.58747 272.331138 
L 1204.681446 274.306511 
L 1205.775422 273.824374 
L 1206.869398 274.779098 
L 1207.963374 276.29626 
L 1209.05735 277.252646 
L 1210.151326 277.879048 
L 1211.245302 280.17515 
L 1212.339278 281.516561 
L 1213.433254 281.984194 
L 1218.903134 290.202079 
L 1219.99711 292.200306 
L 1221.091086 293.598123 
L 1222.185061 296.391605 
L 1223.279037 298.436148 
L 1226.560965 306.265417 
L 1228.748917 307.786765 
L 1229.842893 308.954758 
L 1230.936869 309.841606 
L 1232.030845 310.198518 
L 1234.218797 309.853414 
L 1235.312773 310.270036 
L 1236.406749 310.267533 
L 1237.500725 310.605205 
L 1238.594701 309.696727 
L 1239.688677 309.40536 
L 1240.782653 310.302312 
L 1242.970605 315.271375 
L 1245.158556 319.067974 
L 1246.252532 323.646019 
L 1247.346508 326.601287 
L 1248.440484 328.41278 
L 1249.53446 332.180563 
L 1250.628436 340.803543 
L 1251.722412 344.818154 
L 1253.910364 354.977407 
L 1257.192292 369.17217 
L 1258.286268 375.496787 
L 1259.380244 384.187551 
L 1260.47422 397.581038 
L 1261.568196 408.945929 
L 1262.662172 416.778324 
L 1263.756148 420.882848 
L 1264.850124 424.43294 
L 1265.944099 426.002779 
L 1267.038075 426.256803 
L 1269.226027 431.270666 
L 1270.320003 434.377401 
L 1271.413979 436.820101 
L 1273.601931 443.336491 
L 1274.695907 443.986669 
L 1275.789883 449.709446 
L 1276.883859 457.29179 
L 1279.071811 480.082141 
L 1280.165787 491.743268 
L 1281.259763 493.257914 
L 1282.353739 500.907061 
L 1283.447715 506.413989 
L 1284.541691 515.770074 
L 1285.635667 521.326494 
L 1286.729643 525.785286 
L 1287.823618 531.788549 
L 1288.917594 537.119693 
L 1293.293498 563.28997 
L 1295.48145 577.651385 
L 1296.575426 580.683847 
L 1297.669402 586.156085 
L 1298.763378 587.960997 
L 1299.857354 590.978841 
L 1300.95133 596.199469 
L 1300.95133 596.199469 
" style="fill:none;stroke:#1f77b4;stroke-linecap:square;stroke-width:1.5;"/>
   </g>
   <g id="line2d_14">
    <path clip-path="url(#p80429970ce)" d="M 208.069356 399.158696 
L 209.163332 398.82356 
L 210.257308 398.669879 
L 211.351284 399.280253 
L 212.44526 399.010189 
L 216.821163 399.559862 
L 217.915139 399.028332 
L 219.009115 399.298739 
L 220.103091 399.366594 
L 221.197067 399.158936 
L 222.291043 399.521255 
L 223.385019 399.223987 
L 225.572971 399.404451 
L 226.666947 399.385463 
L 231.042851 400.060027 
L 232.136827 399.938056 
L 233.230803 400.069692 
L 234.324779 399.632968 
L 235.418755 400.161456 
L 236.512731 400.394597 
L 237.606706 400.479501 
L 239.794658 400.359562 
L 241.98261 400.858817 
L 244.170562 400.825613 
L 245.264538 401.120332 
L 246.358514 401.183275 
L 247.45249 400.977205 
L 248.546466 401.039003 
L 249.640442 400.956655 
L 251.828394 401.480279 
L 252.92237 401.32922 
L 254.016346 401.683197 
L 255.110322 401.669864 
L 256.204298 401.28502 
L 257.298274 401.498047 
L 258.39225 401.356031 
L 259.486225 401.668649 
L 260.580201 401.834435 
L 261.674177 401.826976 
L 262.768153 402.06945 
L 266.050081 401.083767 
L 267.144057 401.287952 
L 268.238033 401.689086 
L 269.332009 401.729252 
L 271.519961 401.538012 
L 272.613937 401.952666 
L 273.707913 402.001272 
L 274.801889 401.704615 
L 276.989841 401.59292 
L 278.083817 400.966686 
L 279.177793 401.219089 
L 281.365744 401.357567 
L 282.45972 400.996783 
L 283.553696 401.539257 
L 284.647672 401.323307 
L 285.741648 401.225364 
L 286.835624 400.740546 
L 287.9296 400.822423 
L 289.023576 400.478682 
L 290.117552 400.851066 
L 291.211528 401.963307 
L 292.305504 405.469282 
L 293.39948 407.619199 
L 294.493456 410.292617 
L 295.587432 412.324905 
L 296.681408 413.104777 
L 297.775384 415.973071 
L 298.86936 417.553492 
L 299.963336 416.431628 
L 301.057312 415.564578 
L 302.151288 415.560157 
L 303.245263 416.490815 
L 304.339239 416.949374 
L 305.433215 416.328721 
L 306.527191 415.37828 
L 307.621167 414.729561 
L 309.809119 412.998755 
L 310.903095 412.807866 
L 311.997071 412.994267 
L 313.091047 412.484343 
L 314.185023 412.274975 
L 315.278999 412.921673 
L 317.466951 413.947884 
L 318.560927 414.001592 
L 319.654903 413.092911 
L 320.748879 412.806612 
L 321.842855 413.257815 
L 324.030807 412.838325 
L 326.218758 412.386117 
L 327.312734 411.804805 
L 329.500686 410.38695 
L 332.782614 407.347371 
L 334.970566 404.507352 
L 336.064542 403.35814 
L 337.158518 402.650313 
L 338.252494 403.306367 
L 339.34647 403.075184 
L 340.440446 402.136115 
L 341.534422 401.728714 
L 342.628398 400.797709 
L 343.722374 399.529682 
L 344.81635 398.630142 
L 345.910326 397.951911 
L 347.004301 397.052348 
L 348.098277 396.545591 
L 349.192253 395.770031 
L 350.286229 395.500092 
L 351.380205 394.618612 
L 353.568157 394.100896 
L 354.662133 392.999385 
L 355.756109 392.131363 
L 356.850085 391.756865 
L 360.132013 389.302766 
L 362.319965 387.943629 
L 363.413941 387.558991 
L 364.507917 386.682648 
L 365.601893 385.583918 
L 366.695869 385.054315 
L 368.88382 383.162603 
L 369.977796 382.215687 
L 372.165748 381.414135 
L 373.259724 380.922633 
L 374.3537 379.558796 
L 375.447676 379.145461 
L 376.541652 378.031742 
L 380.917556 375.592338 
L 382.011532 375.436922 
L 383.105508 374.943171 
L 384.199484 374.758139 
L 385.29346 374.380875 
L 386.387436 373.843196 
L 387.481412 373.073865 
L 388.575388 372.488194 
L 389.669364 372.047108 
L 390.763339 371.112255 
L 391.857315 371.232222 
L 392.951291 371.052179 
L 394.045267 371.102082 
L 397.327195 370.774368 
L 399.515147 371.531299 
L 400.609123 371.291167 
L 401.703099 371.719652 
L 402.797075 372.970659 
L 404.985027 372.915191 
L 406.079003 373.718238 
L 407.172979 374.343545 
L 408.266955 375.458049 
L 409.360931 376.243288 
L 410.454907 376.446463 
L 411.548883 376.932721 
L 412.642858 376.650088 
L 413.736834 376.140413 
L 415.924786 376.711957 
L 417.018762 377.270579 
L 418.112738 377.561144 
L 419.206714 377.604588 
L 420.30069 378.674012 
L 421.394666 378.679341 
L 422.488642 378.986628 
L 423.582618 379.678672 
L 424.676594 379.635455 
L 427.958522 380.623473 
L 429.052498 381.122131 
L 430.146474 381.959069 
L 431.24045 381.976753 
L 432.334426 382.405494 
L 433.428402 382.647611 
L 435.616353 382.880239 
L 436.710329 383.395067 
L 437.804305 383.407184 
L 438.898281 384.040204 
L 439.992257 384.46122 
L 441.086233 384.589131 
L 442.180209 384.888002 
L 443.274185 384.688968 
L 445.462137 385.015544 
L 446.556113 385.87338 
L 447.650089 386.140094 
L 448.744065 387.00727 
L 449.838041 387.276026 
L 450.932017 386.835716 
L 452.025993 387.392307 
L 453.119969 387.73796 
L 454.213945 388.376673 
L 455.307921 388.098638 
L 457.495872 389.56642 
L 459.683824 389.63658 
L 460.7778 389.841053 
L 461.871776 390.583044 
L 462.965752 390.524679 
L 464.059728 390.584297 
L 465.153704 390.319124 
L 470.623584 390.311109 
L 471.71756 390.062379 
L 472.811536 389.678235 
L 473.905512 388.999229 
L 474.999488 388.572259 
L 476.093464 388.625886 
L 477.18744 388.182632 
L 478.281415 388.547606 
L 479.375391 387.734829 
L 481.563343 386.700007 
L 482.657319 386.658133 
L 483.751295 387.362473 
L 484.845271 387.615467 
L 485.939247 387.321042 
L 488.127199 387.909546 
L 489.221175 387.34393 
L 490.315151 386.59909 
L 491.409127 386.69586 
L 492.503103 386.996751 
L 493.597079 387.158714 
L 494.691055 387.062976 
L 495.785031 387.383248 
L 497.972983 388.242365 
L 500.160934 388.309553 
L 501.25491 388.977185 
L 502.348886 389.076982 
L 503.442862 389.053571 
L 504.536838 389.559207 
L 505.630814 389.339243 
L 507.818766 390.361454 
L 508.912742 390.245379 
L 511.100694 390.951565 
L 512.19467 390.740569 
L 513.288646 391.34736 
L 515.476598 391.670966 
L 517.66455 392.477382 
L 518.758526 392.326645 
L 519.852502 392.397788 
L 520.946478 392.280742 
L 522.040453 393.057416 
L 523.134429 393.320853 
L 524.228405 393.326787 
L 525.322381 393.834676 
L 526.416357 393.311175 
L 528.604309 393.844274 
L 529.698285 393.418517 
L 530.792261 392.671078 
L 531.886237 392.585236 
L 534.074189 391.347166 
L 535.168165 390.511698 
L 536.262141 389.125083 
L 537.356117 388.732134 
L 539.544069 387.328827 
L 540.638045 385.411711 
L 541.732021 384.462505 
L 542.825997 383.983293 
L 545.013948 381.531922 
L 546.107924 380.889325 
L 547.2019 379.905139 
L 548.295876 378.514439 
L 550.483828 376.896039 
L 552.67178 374.824831 
L 553.765756 374.824304 
L 559.235636 370.459551 
L 561.423588 366.46495 
L 562.517564 366.244051 
L 563.61154 365.528007 
L 564.705516 363.395985 
L 565.799491 362.313235 
L 566.893467 361.75883 
L 567.987443 361.036912 
L 569.081419 359.791124 
L 570.175395 358.068084 
L 572.363347 353.518586 
L 573.457323 352.292044 
L 574.551299 350.732066 
L 575.645275 350.737349 
L 576.739251 349.577496 
L 577.833227 347.721329 
L 578.927203 347.332973 
L 580.021179 346.741048 
L 581.115155 345.742695 
L 582.209131 343.292146 
L 583.303107 340.4471 
L 584.397083 338.436543 
L 589.866962 324.037668 
L 590.960938 320.477011 
L 593.14889 314.684562 
L 595.336842 308.265177 
L 596.430818 305.07875 
L 597.524794 302.887805 
L 598.61877 299.919226 
L 599.712746 296.389003 
L 600.806722 294.554339 
L 605.182626 283.458768 
L 606.276602 281.867148 
L 607.370578 279.62602 
L 609.558529 273.541201 
L 611.746481 266.914249 
L 613.934433 261.193494 
L 615.028409 257.865648 
L 616.122385 255.032611 
L 619.404313 244.4154 
L 620.498289 243.606715 
L 622.686241 237.536799 
L 623.780217 231.13785 
L 625.968169 220.362829 
L 629.250097 211.205164 
L 630.344073 207.416694 
L 633.626 193.510914 
L 634.719976 189.451576 
L 635.813952 184.890149 
L 640.189856 168.878658 
L 642.377808 160.203998 
L 643.471784 160.268831 
L 644.56576 157.287725 
L 647.847688 141.45915 
L 648.941664 137.207297 
L 651.129616 126.795199 
L 653.317567 116.742489 
L 655.505519 106.55249 
L 656.599495 100.718126 
L 657.693471 95.870901 
L 658.787447 90.225025 
L 659.881423 85.839523 
L 660.975399 83.068702 
L 662.069375 78.895015 
L 663.163351 78.464051 
L 664.257327 78.579356 
L 665.351303 79.329758 
L 666.445279 80.253992 
L 667.539255 82.310693 
L 668.633231 80.663817 
L 669.727207 81.542869 
L 670.821183 81.857311 
L 671.915159 83.442041 
L 674.103111 86.019861 
L 675.197086 87.675932 
L 677.385038 90.52426 
L 678.479014 91.368063 
L 679.57299 92.612036 
L 680.666966 93.087848 
L 682.854918 95.270997 
L 685.04287 98.236031 
L 688.324798 102.70486 
L 689.418774 103.864384 
L 690.51275 105.614828 
L 691.606726 106.643326 
L 692.700702 107.825813 
L 693.794678 107.989222 
L 694.888654 108.865087 
L 698.170581 110.236414 
L 699.264557 110.525316 
L 700.358533 109.724752 
L 701.452509 107.742845 
L 702.546485 106.626168 
L 703.640461 105.187305 
L 704.734437 103.138688 
L 705.828413 103.520819 
L 706.922389 106.654298 
L 708.016365 107.880519 
L 711.298293 107.433271 
L 713.486245 110.036085 
L 714.580221 111.632305 
L 716.768173 114.166446 
L 717.862149 115.118872 
L 718.956124 115.581908 
L 720.0501 116.756064 
L 721.144076 118.3393 
L 723.332028 121.960002 
L 724.426004 123.446342 
L 725.51998 126.215953 
L 726.613956 133.136551 
L 727.707932 138.281806 
L 728.801908 144.150392 
L 732.083836 152.492272 
L 733.177812 157.716188 
L 734.271788 161.625005 
L 736.45974 168.377783 
L 737.553716 170.927794 
L 738.647692 174.398241 
L 739.741668 175.548152 
L 740.835643 177.796766 
L 741.929619 181.246425 
L 747.399499 200.943392 
L 748.493475 205.461057 
L 749.587451 206.766748 
L 750.681427 208.544732 
L 752.869379 216.571727 
L 753.963355 221.700946 
L 756.151307 226.95491 
L 758.339259 233.796105 
L 759.433235 237.51079 
L 760.527211 240.783816 
L 762.715162 248.165227 
L 764.903114 255.325166 
L 768.185042 263.934346 
L 769.279018 265.706722 
L 770.372994 268.239681 
L 771.46697 264.609355 
L 772.560946 263.9827 
L 773.654922 264.054616 
L 774.748898 267.149992 
L 775.842874 270.855203 
L 776.93685 274.027909 
L 778.030826 277.574654 
L 779.124802 280.553933 
L 780.218778 284.248786 
L 781.312754 285.107588 
L 782.40673 288.119998 
L 784.594681 292.722867 
L 785.688657 295.500599 
L 786.782633 297.792776 
L 787.876609 302.952641 
L 788.970585 306.450933 
L 790.064561 308.439291 
L 791.158537 310.762379 
L 792.252513 312.636466 
L 793.346489 313.560763 
L 794.440465 308.016362 
L 795.534441 307.913087 
L 796.628417 309.141732 
L 797.722393 311.041441 
L 798.816369 312.497405 
L 799.910345 314.251276 
L 803.192273 315.345025 
L 804.286249 314.414241 
L 805.380225 314.462224 
L 806.4742 315.245395 
L 807.568176 315.72009 
L 808.662152 315.462067 
L 809.756128 315.860822 
L 810.850104 315.820047 
L 811.94408 315.929694 
L 814.132032 315.022939 
L 815.226008 314.33729 
L 816.319984 313.915291 
L 817.41396 313.886783 
L 818.507936 314.251765 
L 819.601912 313.443258 
L 820.695888 312.913675 
L 821.789864 313.019571 
L 822.88384 312.475798 
L 823.977816 312.786251 
L 825.071792 312.517725 
L 826.165768 311.887587 
L 827.259744 306.916351 
L 828.353719 305.487151 
L 829.447695 305.953738 
L 830.541671 307.843315 
L 831.635647 308.503096 
L 832.729623 309.91661 
L 836.011551 316.732392 
L 837.105527 318.357794 
L 840.387455 321.043382 
L 842.575407 322.01286 
L 843.669383 323.027214 
L 844.763359 323.314339 
L 845.857335 323.413707 
L 846.951311 324.66799 
L 848.045287 324.849553 
L 849.139263 325.949987 
L 850.233238 326.476934 
L 851.327214 327.286785 
L 852.42119 328.8559 
L 853.515166 328.052354 
L 854.609142 325.554744 
L 855.703118 324.037225 
L 856.797094 321.886189 
L 857.89107 321.509268 
L 858.985046 321.925385 
L 860.079022 320.850186 
L 861.172998 319.585088 
L 862.266974 316.313913 
L 863.36095 312.645177 
L 864.454926 307.885654 
L 865.548902 303.90554 
L 866.642878 299.176761 
L 867.736854 295.024615 
L 868.83083 290.173274 
L 872.112757 277.742739 
L 873.206733 273.89352 
L 874.300709 273.723007 
L 875.394685 272.458402 
L 876.488661 271.958623 
L 877.582637 269.736445 
L 878.676613 268.012314 
L 879.770589 267.796225 
L 881.958541 265.101472 
L 883.052517 263.358342 
L 885.240469 260.626137 
L 886.334445 258.892317 
L 887.428421 257.596196 
L 888.522397 256.562176 
L 889.616373 254.305494 
L 890.710349 252.565198 
L 892.898301 248.343811 
L 893.992276 247.537461 
L 895.086252 247.038677 
L 896.180228 245.85376 
L 897.274204 243.80536 
L 900.556132 238.867054 
L 901.650108 236.881704 
L 904.932036 232.040839 
L 906.026012 227.78441 
L 907.119988 224.407758 
L 908.213964 221.93889 
L 911.495892 218.079178 
L 912.589868 221.204302 
L 913.683844 223.410719 
L 914.77782 224.741713 
L 916.965771 230.98873 
L 919.153723 242.233129 
L 920.247699 245.257119 
L 922.435651 249.805717 
L 923.529627 251.833909 
L 925.717579 256.817933 
L 926.811555 258.550318 
L 927.905531 258.636451 
L 928.999507 260.780579 
L 930.093483 261.632697 
L 931.187459 262.028268 
L 932.281435 261.796587 
L 933.375411 262.270147 
L 934.469387 264.458325 
L 935.563363 266.089225 
L 936.657339 269.296567 
L 937.751314 272.151983 
L 938.84529 273.636518 
L 939.939266 275.348416 
L 941.033242 274.941307 
L 942.127218 275.377194 
L 943.221194 277.752205 
L 944.31517 278.669709 
L 945.409146 280.859261 
L 946.503122 282.697841 
L 947.597098 284.763488 
L 948.691074 286.389261 
L 949.78505 286.937322 
L 950.879026 287.27792 
L 951.973002 286.566618 
L 953.066978 287.539747 
L 954.160954 284.94416 
L 955.25493 281.7047 
L 957.442882 276.863168 
L 958.536858 276.770232 
L 959.630833 275.944505 
L 960.724809 275.551939 
L 961.818785 274.927875 
L 962.912761 276.57382 
L 964.006737 277.828618 
L 965.100713 277.873246 
L 966.194689 280.750371 
L 967.288665 282.27487 
L 969.476617 279.855837 
L 970.570593 278.834889 
L 971.664569 278.198687 
L 972.758545 277.353389 
L 973.852521 276.848009 
L 976.040473 273.868478 
L 977.134449 273.446738 
L 978.228425 273.296898 
L 979.322401 273.687815 
L 980.416377 273.874514 
L 981.510352 273.848244 
L 982.604328 273.967769 
L 983.698304 274.510445 
L 984.79228 274.637725 
L 985.886256 274.178227 
L 986.980232 273.959578 
L 988.074208 272.841871 
L 989.168184 273.755098 
L 991.356136 274.892357 
L 993.544088 275.757422 
L 994.638064 276.652771 
L 995.73204 278.200514 
L 997.919992 280.887672 
L 999.013968 282.637453 
L 1001.20192 285.138319 
L 1003.389871 287.389853 
L 1004.483847 288.431132 
L 1005.577823 289.173777 
L 1006.671799 289.40913 
L 1007.765775 289.782809 
L 1008.859751 290.774026 
L 1011.047703 292.495491 
L 1012.141679 292.945054 
L 1013.235655 293.52668 
L 1014.329631 294.464358 
L 1015.423607 296.090405 
L 1017.611559 299.025197 
L 1018.705535 300.901403 
L 1019.799511 302.440148 
L 1020.893487 305.207163 
L 1021.987463 307.158716 
L 1026.363366 311.580344 
L 1027.457342 313.465101 
L 1028.551318 314.921697 
L 1029.645294 316.595849 
L 1030.73927 317.533647 
L 1031.833246 319.449796 
L 1032.927222 320.912722 
L 1034.021198 322.172767 
L 1035.115174 325.330551 
L 1036.20915 326.008361 
L 1037.303126 327.099928 
L 1039.491078 327.895712 
L 1040.585054 328.854631 
L 1041.67903 329.105176 
L 1043.866982 330.554299 
L 1044.960958 330.844599 
L 1046.054934 328.985671 
L 1047.148909 328.365159 
L 1048.242885 328.175456 
L 1049.336861 327.496584 
L 1050.430837 327.470665 
L 1051.524813 328.258191 
L 1052.618789 328.896475 
L 1053.712765 330.70232 
L 1054.806741 332.997033 
L 1056.994693 338.793449 
L 1058.088669 340.653407 
L 1059.182645 340.225539 
L 1061.370597 342.305975 
L 1062.464573 344.737063 
L 1063.558549 346.359744 
L 1065.746501 351.112494 
L 1066.840477 353.403023 
L 1072.310356 361.985963 
L 1073.404332 363.925711 
L 1077.780236 369.920031 
L 1078.874212 372.040774 
L 1079.968188 374.484886 
L 1083.250116 379.302328 
L 1084.344092 381.922139 
L 1085.438068 383.011785 
L 1086.532044 385.131405 
L 1087.62602 386.526766 
L 1088.719996 388.299618 
L 1090.907947 392.359952 
L 1092.001923 394.362559 
L 1093.095899 396.687387 
L 1095.283851 400.356227 
L 1097.471803 404.598393 
L 1101.847707 412.398782 
L 1102.941683 414.56921 
L 1104.035659 415.735075 
L 1106.223611 420.088473 
L 1107.317587 421.730167 
L 1108.411563 423.7519 
L 1109.505539 425.452038 
L 1110.599515 427.483652 
L 1111.693491 429.22823 
L 1112.787466 431.222326 
L 1113.881442 432.807926 
L 1114.975418 434.822814 
L 1116.069394 436.462923 
L 1117.16337 437.485495 
L 1118.257346 438.736609 
L 1119.351322 440.59305 
L 1120.445298 442.224261 
L 1121.539274 443.006723 
L 1122.63325 443.154086 
L 1123.727226 443.187198 
L 1128.10313 438.563547 
L 1129.197106 437.089057 
L 1130.291082 436.37937 
L 1131.385058 435.065927 
L 1134.666985 431.875434 
L 1136.854937 430.542016 
L 1137.948913 431.098045 
L 1139.042889 431.059263 
L 1140.136865 430.379295 
L 1141.230841 430.10755 
L 1143.418793 428.601291 
L 1144.512769 427.985762 
L 1145.606745 427.131092 
L 1146.700721 426.627827 
L 1147.794697 426.330473 
L 1149.982649 425.02617 
L 1151.076625 424.461041 
L 1152.170601 424.159538 
L 1153.264577 424.390688 
L 1154.358553 424.337259 
L 1155.452529 423.922854 
L 1156.546504 423.725545 
L 1157.64048 425.611555 
L 1158.734456 426.452588 
L 1159.828432 427.10748 
L 1162.016384 425.426723 
L 1163.11036 421.968847 
L 1164.204336 419.02409 
L 1165.298312 414.757845 
L 1166.392288 412.295045 
L 1167.486264 410.653966 
L 1168.58024 408.234335 
L 1169.674216 408.538113 
L 1170.768192 407.096781 
L 1171.862168 406.204762 
L 1174.05012 403.708643 
L 1175.144096 403.706184 
L 1176.238072 402.665522 
L 1177.332048 400.922714 
L 1179.519999 399.081395 
L 1180.613975 396.282341 
L 1181.707951 392.587341 
L 1182.801927 388.495962 
L 1183.895903 384.960839 
L 1184.989879 382.494027 
L 1186.083855 380.457029 
L 1187.177831 379.825083 
L 1188.271807 382.262381 
L 1189.365783 383.119488 
L 1190.459759 384.502205 
L 1191.553735 382.833793 
L 1192.647711 380.350764 
L 1193.741687 378.536467 
L 1194.835663 375.735316 
L 1195.929639 373.645605 
L 1197.023615 372.677101 
L 1199.211567 370.097474 
L 1200.305542 367.98765 
L 1202.493494 364.664424 
L 1205.775422 361.14268 
L 1206.869398 359.642071 
L 1207.963374 359.315337 
L 1209.05735 357.189869 
L 1212.339278 352.581411 
L 1213.433254 351.693349 
L 1214.52723 351.096522 
L 1215.621206 351.298367 
L 1216.715182 349.995761 
L 1217.809158 348.114452 
L 1218.903134 347.959118 
L 1219.99711 346.751965 
L 1221.091086 346.107098 
L 1223.279037 341.922743 
L 1224.373013 340.485784 
L 1225.466989 338.167074 
L 1226.560965 336.786381 
L 1227.654941 336.261251 
L 1228.748917 334.895383 
L 1230.936869 332.991807 
L 1232.030845 331.201395 
L 1233.124821 329.718731 
L 1234.218797 328.919684 
L 1235.312773 328.869745 
L 1236.406749 327.752621 
L 1237.500725 326.39026 
L 1239.688677 322.436352 
L 1240.782653 320.435291 
L 1241.876629 317.164635 
L 1242.970605 312.488605 
L 1244.06458 308.336877 
L 1245.158556 305.558368 
L 1246.252532 303.871367 
L 1247.346508 300.766873 
L 1248.440484 302.190592 
L 1249.53446 302.291985 
L 1250.628436 300.049768 
L 1251.722412 300.208741 
L 1252.816388 299.605263 
L 1253.910364 299.649391 
L 1255.00434 302.856912 
L 1258.286268 310.577428 
L 1259.380244 313.288628 
L 1260.47422 316.321665 
L 1261.568196 320.920462 
L 1263.756148 329.246986 
L 1264.850124 327.763887 
L 1265.944099 324.51541 
L 1267.038075 323.055596 
L 1268.132051 323.227481 
L 1269.226027 323.887469 
L 1271.413979 327.078206 
L 1272.507955 330.656346 
L 1273.601931 333.75651 
L 1274.695907 333.998261 
L 1275.789883 337.514595 
L 1276.883859 342.308533 
L 1277.977835 347.619223 
L 1280.165787 356.596259 
L 1281.259763 359.910089 
L 1283.447715 367.595722 
L 1284.541691 370.630484 
L 1286.729643 377.587018 
L 1287.823618 380.389087 
L 1288.917594 383.824046 
L 1294.387474 399.399925 
L 1295.48145 402.468235 
L 1296.575426 404.378363 
L 1298.763378 410.056822 
L 1299.857354 413.605623 
L 1300.95133 416.649356 
L 1300.95133 416.649356 
" style="fill:none;stroke:#ff7f0e;stroke-linecap:square;stroke-width:1.5;"/>
   </g>
   <g id="patch_3">
    <path d="M 153.425257 622.08624 
L 153.425257 52.57728 
" style="fill:none;stroke:#000000;stroke-linecap:square;stroke-linejoin:miter;stroke-width:0.8;"/>
   </g>
   <g id="patch_4">
    <path d="M 1355.595429 622.08624 
L 1355.595429 52.57728 
" style="fill:none;stroke:#000000;stroke-linecap:square;stroke-linejoin:miter;stroke-width:0.8;"/>
   </g>
   <g id="patch_5">
    <path d="M 153.425257 622.08624 
L 1355.595429 622.08624 
" style="fill:none;stroke:#000000;stroke-linecap:square;stroke-linejoin:miter;stroke-width:0.8;"/>
   </g>
   <g id="patch_6">
    <path d="M 153.425257 52.57728 
L 1355.595429 52.57728 
" style="fill:none;stroke:#000000;stroke-linecap:square;stroke-linejoin:miter;stroke-width:0.8;"/>
   </g>
   <g id="text_15">
    <!-- Pos-error [m] -->
    <g transform="translate(715.19253 46.57728)scale(0.12 -0.12)">
     <defs>
      <path d="M 1259 4147 
L 1259 2394 
L 2053 2394 
Q 2494 2394 2734 2622 
Q 2975 2850 2975 3272 
Q 2975 3691 2734 3919 
Q 2494 4147 2053 4147 
L 1259 4147 
z
M 628 4666 
L 2053 4666 
Q 2838 4666 3239 4311 
Q 3641 3956 3641 3272 
Q 3641 2581 3239 2228 
Q 2838 1875 2053 1875 
L 1259 1875 
L 1259 0 
L 628 0 
L 628 4666 
z
" id="DejaVuSans-50" transform="scale(0.015625)"/>
      <path d="M 1959 3097 
Q 1497 3097 1228 2736 
Q 959 2375 959 1747 
Q 959 1119 1226 758 
Q 1494 397 1959 397 
Q 2419 397 2687 759 
Q 2956 1122 2956 1747 
Q 2956 2369 2687 2733 
Q 2419 3097 1959 3097 
z
M 1959 3584 
Q 2709 3584 3137 3096 
Q 3566 2609 3566 1747 
Q 3566 888 3137 398 
Q 2709 -91 1959 -91 
Q 1206 -91 779 398 
Q 353 888 353 1747 
Q 353 2609 779 3096 
Q 1206 3584 1959 3584 
z
" id="DejaVuSans-6f" transform="scale(0.015625)"/>
      <path d="M 313 2009 
L 1997 2009 
L 1997 1497 
L 313 1497 
L 313 2009 
z
" id="DejaVuSans-2d" transform="scale(0.015625)"/>
      <path d="M 3597 1894 
L 3597 1613 
L 953 1613 
Q 991 1019 1311 708 
Q 1631 397 2203 397 
Q 2534 397 2845 478 
Q 3156 559 3463 722 
L 3463 178 
Q 3153 47 2828 -22 
Q 2503 -91 2169 -91 
Q 1331 -91 842 396 
Q 353 884 353 1716 
Q 353 2575 817 3079 
Q 1281 3584 2069 3584 
Q 2775 3584 3186 3129 
Q 3597 2675 3597 1894 
z
M 3022 2063 
Q 3016 2534 2758 2815 
Q 2500 3097 2075 3097 
Q 1594 3097 1305 2825 
Q 1016 2553 972 2059 
L 3022 2063 
z
" id="DejaVuSans-65" transform="scale(0.015625)"/>
      <path d="M 2631 2963 
Q 2534 3019 2420 3045 
Q 2306 3072 2169 3072 
Q 1681 3072 1420 2755 
Q 1159 2438 1159 1844 
L 1159 0 
L 581 0 
L 581 3500 
L 1159 3500 
L 1159 2956 
Q 1341 3275 1631 3429 
Q 1922 3584 2338 3584 
Q 2397 3584 2469 3576 
Q 2541 3569 2628 3553 
L 2631 2963 
z
" id="DejaVuSans-72" transform="scale(0.015625)"/>
      <path d="M 3328 2828 
Q 3544 3216 3844 3400 
Q 4144 3584 4550 3584 
Q 5097 3584 5394 3201 
Q 5691 2819 5691 2113 
L 5691 0 
L 5113 0 
L 5113 2094 
Q 5113 2597 4934 2840 
Q 4756 3084 4391 3084 
Q 3944 3084 3684 2787 
Q 3425 2491 3425 1978 
L 3425 0 
L 2847 0 
L 2847 2094 
Q 2847 2600 2669 2842 
Q 2491 3084 2119 3084 
Q 1678 3084 1418 2786 
Q 1159 2488 1159 1978 
L 1159 0 
L 581 0 
L 581 3500 
L 1159 3500 
L 1159 2956 
Q 1356 3278 1631 3431 
Q 1906 3584 2284 3584 
Q 2666 3584 2933 3390 
Q 3200 3197 3328 2828 
z
" id="DejaVuSans-6d" transform="scale(0.015625)"/>
     </defs>
     <use xlink:href="#DejaVuSans-50"/>
     <use x="56.677734" xlink:href="#DejaVuSans-6f"/>
     <use x="117.859375" xlink:href="#DejaVuSans-73"/>
     <use x="169.958984" xlink:href="#DejaVuSans-2d"/>
     <use x="206.042969" xlink:href="#DejaVuSans-65"/>
     <use x="267.566406" xlink:href="#DejaVuSans-72"/>
     <use x="306.929688" xlink:href="#DejaVuSans-72"/>
     <use x="345.792969" xlink:href="#DejaVuSans-6f"/>
     <use x="406.974609" xlink:href="#DejaVuSans-72"/>
     <use x="448.087891" xlink:href="#DejaVuSans-20"/>
     <use x="479.875" xlink:href="#DejaVuSans-5b"/>
     <use x="518.888672" xlink:href="#DejaVuSans-6d"/>
     <use x="616.300781" xlink:href="#DejaVuSans-5d"/>
    </g>
   </g>
   <g id="legend_1">
    <g id="patch_7">
     <path d="M 1310.595429 89.953842 
L 1348.595429 89.953842 
Q 1350.595429 89.953842 1350.595429 87.953842 
L 1350.595429 59.57728 
Q 1350.595429 57.57728 1348.595429 57.57728 
L 1310.595429 57.57728 
Q 1308.595429 57.57728 1308.595429 59.57728 
L 1308.595429 87.953842 
Q 1308.595429 89.953842 1310.595429 89.953842 
z
" style="fill:#ffffff;stroke:#cccccc;stroke-linejoin:miter;"/>
    </g>
    <g id="line2d_15">
     <path d="M 1312.595429 65.675717 
L 1332.595429 65.675717 
" style="fill:none;stroke:#1f77b4;stroke-linecap:square;stroke-width:1.5;"/>
    </g>
    <g id="line2d_16"/>
    <g id="text_16">
     <!-- $x$ -->
     <g transform="translate(1340.595429 69.175717)scale(0.1 -0.1)">
      <defs>
       <path d="M 3841 3500 
L 2234 1784 
L 3219 0 
L 2559 0 
L 1819 1388 
L 531 0 
L -166 0 
L 1556 1844 
L 641 3500 
L 1300 3500 
L 1972 2234 
L 3144 3500 
L 3841 3500 
z
" id="DejaVuSans-Oblique-78" transform="scale(0.015625)"/>
      </defs>
      <use transform="translate(0 0.3125)" xlink:href="#DejaVuSans-Oblique-78"/>
     </g>
    </g>
    <g id="line2d_17">
     <path d="M 1312.595429 80.353842 
L 1332.595429 80.353842 
" style="fill:none;stroke:#ff7f0e;stroke-linecap:square;stroke-width:1.5;"/>
    </g>
    <g id="line2d_18"/>
    <g id="text_17">
     <!-- $y$ -->
     <g transform="translate(1340.595429 83.853842)scale(0.1 -0.1)">
      <defs>
       <path d="M 1588 -325 
Q 1188 -997 936 -1164 
Q 684 -1331 294 -1331 
L -159 -1331 
L -63 -850 
L 269 -850 
Q 509 -850 678 -719 
Q 847 -588 1056 -206 
L 1234 128 
L 459 3500 
L 1069 3500 
L 1650 819 
L 3256 3500 
L 3859 3500 
L 1588 -325 
z
" id="DejaVuSans-Oblique-79" transform="scale(0.015625)"/>
      </defs>
      <use transform="translate(0 0.3125)" xlink:href="#DejaVuSans-Oblique-79"/>
     </g>
    </g>
   </g>
  </g>
 </g>
 <defs>
  <clipPath id="p80429970ce">
   <rect height="569.50896" width="1202.170171" x="153.425257" y="52.57728"/>
  </clipPath>
 </defs>
</svg>
