<?xml version="1.0" encoding="utf-8" standalone="no"?>
<!DOCTYPE svg PUBLIC "-//W3C//DTD SVG 1.1//EN"
  "http://www.w3.org/Graphics/SVG/1.1/DTD/svg11.dtd">
<svg height="702pt" version="1.1" viewBox="0 0 1383.12 702" width="1383.12pt" xmlns="http://www.w3.org/2000/svg" xmlns:xlink="http://www.w3.org/1999/xlink">
 <metadata>
  <rdf:RDF xmlns:cc="http://creativecommons.org/ns#" xmlns:dc="http://purl.org/dc/elements/1.1/" xmlns:rdf="http://www.w3.org/1999/02/22-rdf-syntax-ns#">
   <cc:Work>
    <dc:type rdf:resource="http://purl.org/dc/dcmitype/StillImage"/>
    <dc:date>2021-11-17T15:29:27.458908</dc:date>
    <dc:format>image/svg+xml</dc:format>
    <dc:creator>
     <cc:Agent>
      <dc:title>Matplotlib v3.4.3, https://matplotlib.org/</dc:title>
     </cc:Agent>
    </dc:creator>
   </cc:Work>
  </rdf:RDF>
 </metadata>
 <defs>
  <style type="text/css">*{stroke-linecap:butt;stroke-linejoin:round;}</style>
 </defs>
 <g id="figure_1">
  <g id="patch_1">
   <path d="M 0 702 
L 1383.12 702 
L 1383.12 0 
L 0 0 
z
" style="fill:#ffffff;"/>
  </g>
  <g id="axes_1">
   <g id="patch_2">
    <path d="M 172.89 624.78 
L 1244.808 624.78 
L 1244.808 84.24 
L 172.89 84.24 
z
" style="fill:#ffffff;"/>
   </g>
   <g id="matplotlib.axis_1">
    <g id="xtick_1">
     <g id="line2d_1">
      <path clip-path="url(#p33321b27b7)" d="M 221.613545 624.78 
L 221.613545 84.24 
" style="fill:none;stroke:#000000;stroke-dasharray:0.5,0.825;stroke-dashoffset:0;stroke-opacity:0.5;stroke-width:0.5;"/>
     </g>
     <g id="line2d_2">
      <defs>
       <path d="M 0 0 
L 0 3.5 
" id="ma34b94e346" style="stroke:#000000;stroke-width:0.8;"/>
      </defs>
      <g>
       <use style="stroke:#000000;stroke-width:0.8;" x="221.613545" xlink:href="#ma34b94e346" y="624.78"/>
      </g>
     </g>
     <g id="text_1">
      <!-- 0 -->
      <g transform="translate(218.432295 639.378438)scale(0.1 -0.1)">
       <defs>
        <path d="M 2034 4250 
Q 1547 4250 1301 3770 
Q 1056 3291 1056 2328 
Q 1056 1369 1301 889 
Q 1547 409 2034 409 
Q 2525 409 2770 889 
Q 3016 1369 3016 2328 
Q 3016 3291 2770 3770 
Q 2525 4250 2034 4250 
z
M 2034 4750 
Q 2819 4750 3233 4129 
Q 3647 3509 3647 2328 
Q 3647 1150 3233 529 
Q 2819 -91 2034 -91 
Q 1250 -91 836 529 
Q 422 1150 422 2328 
Q 422 3509 836 4129 
Q 1250 4750 2034 4750 
z
" id="DejaVuSans-30" transform="scale(0.015625)"/>
       </defs>
       <use xlink:href="#DejaVuSans-30"/>
      </g>
     </g>
    </g>
    <g id="xtick_2">
     <g id="line2d_3">
      <path clip-path="url(#p33321b27b7)" d="M 416.702817 624.78 
L 416.702817 84.24 
" style="fill:none;stroke:#000000;stroke-dasharray:0.5,0.825;stroke-dashoffset:0;stroke-opacity:0.5;stroke-width:0.5;"/>
     </g>
     <g id="line2d_4">
      <g>
       <use style="stroke:#000000;stroke-width:0.8;" x="416.702817" xlink:href="#ma34b94e346" y="624.78"/>
      </g>
     </g>
     <g id="text_2">
      <!-- 200 -->
      <g transform="translate(407.159067 639.378438)scale(0.1 -0.1)">
       <defs>
        <path d="M 1228 531 
L 3431 531 
L 3431 0 
L 469 0 
L 469 531 
Q 828 903 1448 1529 
Q 2069 2156 2228 2338 
Q 2531 2678 2651 2914 
Q 2772 3150 2772 3378 
Q 2772 3750 2511 3984 
Q 2250 4219 1831 4219 
Q 1534 4219 1204 4116 
Q 875 4013 500 3803 
L 500 4441 
Q 881 4594 1212 4672 
Q 1544 4750 1819 4750 
Q 2544 4750 2975 4387 
Q 3406 4025 3406 3419 
Q 3406 3131 3298 2873 
Q 3191 2616 2906 2266 
Q 2828 2175 2409 1742 
Q 1991 1309 1228 531 
z
" id="DejaVuSans-32" transform="scale(0.015625)"/>
       </defs>
       <use xlink:href="#DejaVuSans-32"/>
       <use x="63.623047" xlink:href="#DejaVuSans-30"/>
       <use x="127.246094" xlink:href="#DejaVuSans-30"/>
      </g>
     </g>
    </g>
    <g id="xtick_3">
     <g id="line2d_5">
      <path clip-path="url(#p33321b27b7)" d="M 611.792088 624.78 
L 611.792088 84.24 
" style="fill:none;stroke:#000000;stroke-dasharray:0.5,0.825;stroke-dashoffset:0;stroke-opacity:0.5;stroke-width:0.5;"/>
     </g>
     <g id="line2d_6">
      <g>
       <use style="stroke:#000000;stroke-width:0.8;" x="611.792088" xlink:href="#ma34b94e346" y="624.78"/>
      </g>
     </g>
     <g id="text_3">
      <!-- 400 -->
      <g transform="translate(602.248338 639.378438)scale(0.1 -0.1)">
       <defs>
        <path d="M 2419 4116 
L 825 1625 
L 2419 1625 
L 2419 4116 
z
M 2253 4666 
L 3047 4666 
L 3047 1625 
L 3713 1625 
L 3713 1100 
L 3047 1100 
L 3047 0 
L 2419 0 
L 2419 1100 
L 313 1100 
L 313 1709 
L 2253 4666 
z
" id="DejaVuSans-34" transform="scale(0.015625)"/>
       </defs>
       <use xlink:href="#DejaVuSans-34"/>
       <use x="63.623047" xlink:href="#DejaVuSans-30"/>
       <use x="127.246094" xlink:href="#DejaVuSans-30"/>
      </g>
     </g>
    </g>
    <g id="xtick_4">
     <g id="line2d_7">
      <path clip-path="url(#p33321b27b7)" d="M 806.881359 624.78 
L 806.881359 84.24 
" style="fill:none;stroke:#000000;stroke-dasharray:0.5,0.825;stroke-dashoffset:0;stroke-opacity:0.5;stroke-width:0.5;"/>
     </g>
     <g id="line2d_8">
      <g>
       <use style="stroke:#000000;stroke-width:0.8;" x="806.881359" xlink:href="#ma34b94e346" y="624.78"/>
      </g>
     </g>
     <g id="text_4">
      <!-- 600 -->
      <g transform="translate(797.337609 639.378438)scale(0.1 -0.1)">
       <defs>
        <path d="M 2113 2584 
Q 1688 2584 1439 2293 
Q 1191 2003 1191 1497 
Q 1191 994 1439 701 
Q 1688 409 2113 409 
Q 2538 409 2786 701 
Q 3034 994 3034 1497 
Q 3034 2003 2786 2293 
Q 2538 2584 2113 2584 
z
M 3366 4563 
L 3366 3988 
Q 3128 4100 2886 4159 
Q 2644 4219 2406 4219 
Q 1781 4219 1451 3797 
Q 1122 3375 1075 2522 
Q 1259 2794 1537 2939 
Q 1816 3084 2150 3084 
Q 2853 3084 3261 2657 
Q 3669 2231 3669 1497 
Q 3669 778 3244 343 
Q 2819 -91 2113 -91 
Q 1303 -91 875 529 
Q 447 1150 447 2328 
Q 447 3434 972 4092 
Q 1497 4750 2381 4750 
Q 2619 4750 2861 4703 
Q 3103 4656 3366 4563 
z
" id="DejaVuSans-36" transform="scale(0.015625)"/>
       </defs>
       <use xlink:href="#DejaVuSans-36"/>
       <use x="63.623047" xlink:href="#DejaVuSans-30"/>
       <use x="127.246094" xlink:href="#DejaVuSans-30"/>
      </g>
     </g>
    </g>
    <g id="xtick_5">
     <g id="line2d_9">
      <path clip-path="url(#p33321b27b7)" d="M 1001.97063 624.78 
L 1001.97063 84.24 
" style="fill:none;stroke:#000000;stroke-dasharray:0.5,0.825;stroke-dashoffset:0;stroke-opacity:0.5;stroke-width:0.5;"/>
     </g>
     <g id="line2d_10">
      <g>
       <use style="stroke:#000000;stroke-width:0.8;" x="1001.97063" xlink:href="#ma34b94e346" y="624.78"/>
      </g>
     </g>
     <g id="text_5">
      <!-- 800 -->
      <g transform="translate(992.42688 639.378438)scale(0.1 -0.1)">
       <defs>
        <path d="M 2034 2216 
Q 1584 2216 1326 1975 
Q 1069 1734 1069 1313 
Q 1069 891 1326 650 
Q 1584 409 2034 409 
Q 2484 409 2743 651 
Q 3003 894 3003 1313 
Q 3003 1734 2745 1975 
Q 2488 2216 2034 2216 
z
M 1403 2484 
Q 997 2584 770 2862 
Q 544 3141 544 3541 
Q 544 4100 942 4425 
Q 1341 4750 2034 4750 
Q 2731 4750 3128 4425 
Q 3525 4100 3525 3541 
Q 3525 3141 3298 2862 
Q 3072 2584 2669 2484 
Q 3125 2378 3379 2068 
Q 3634 1759 3634 1313 
Q 3634 634 3220 271 
Q 2806 -91 2034 -91 
Q 1263 -91 848 271 
Q 434 634 434 1313 
Q 434 1759 690 2068 
Q 947 2378 1403 2484 
z
M 1172 3481 
Q 1172 3119 1398 2916 
Q 1625 2713 2034 2713 
Q 2441 2713 2670 2916 
Q 2900 3119 2900 3481 
Q 2900 3844 2670 4047 
Q 2441 4250 2034 4250 
Q 1625 4250 1398 4047 
Q 1172 3844 1172 3481 
z
" id="DejaVuSans-38" transform="scale(0.015625)"/>
       </defs>
       <use xlink:href="#DejaVuSans-38"/>
       <use x="63.623047" xlink:href="#DejaVuSans-30"/>
       <use x="127.246094" xlink:href="#DejaVuSans-30"/>
      </g>
     </g>
    </g>
    <g id="xtick_6">
     <g id="line2d_11">
      <path clip-path="url(#p33321b27b7)" d="M 1197.059901 624.78 
L 1197.059901 84.24 
" style="fill:none;stroke:#000000;stroke-dasharray:0.5,0.825;stroke-dashoffset:0;stroke-opacity:0.5;stroke-width:0.5;"/>
     </g>
     <g id="line2d_12">
      <g>
       <use style="stroke:#000000;stroke-width:0.8;" x="1197.059901" xlink:href="#ma34b94e346" y="624.78"/>
      </g>
     </g>
     <g id="text_6">
      <!-- 1000 -->
      <g transform="translate(1184.334901 639.378438)scale(0.1 -0.1)">
       <defs>
        <path d="M 794 531 
L 1825 531 
L 1825 4091 
L 703 3866 
L 703 4441 
L 1819 4666 
L 2450 4666 
L 2450 531 
L 3481 531 
L 3481 0 
L 794 0 
L 794 531 
z
" id="DejaVuSans-31" transform="scale(0.015625)"/>
       </defs>
       <use xlink:href="#DejaVuSans-31"/>
       <use x="63.623047" xlink:href="#DejaVuSans-30"/>
       <use x="127.246094" xlink:href="#DejaVuSans-30"/>
       <use x="190.869141" xlink:href="#DejaVuSans-30"/>
      </g>
     </g>
    </g>
   </g>
   <g id="matplotlib.axis_2">
    <g id="ytick_1">
     <g id="line2d_13">
      <path clip-path="url(#p33321b27b7)" d="M 172.89 600.866221 
L 1244.808 600.866221 
" style="fill:none;stroke:#000000;stroke-dasharray:0.5,0.825;stroke-dashoffset:0;stroke-opacity:0.5;stroke-width:0.5;"/>
     </g>
     <g id="line2d_14">
      <defs>
       <path d="M 0 0 
L -3.5 0 
" id="m8c1b5e06e4" style="stroke:#000000;stroke-width:0.8;"/>
      </defs>
      <g>
       <use style="stroke:#000000;stroke-width:0.8;" x="172.89" xlink:href="#m8c1b5e06e4" y="600.866221"/>
      </g>
     </g>
     <g id="text_7">
      <!-- 0 -->
      <g transform="translate(159.5275 604.665439)scale(0.1 -0.1)">
       <use xlink:href="#DejaVuSans-30"/>
      </g>
     </g>
    </g>
    <g id="ytick_2">
     <g id="line2d_15">
      <path clip-path="url(#p33321b27b7)" d="M 172.89 492.472085 
L 1244.808 492.472085 
" style="fill:none;stroke:#000000;stroke-dasharray:0.5,0.825;stroke-dashoffset:0;stroke-opacity:0.5;stroke-width:0.5;"/>
     </g>
     <g id="line2d_16">
      <g>
       <use style="stroke:#000000;stroke-width:0.8;" x="172.89" xlink:href="#m8c1b5e06e4" y="492.472085"/>
      </g>
     </g>
     <g id="text_8">
      <!-- 1 -->
      <g transform="translate(159.5275 496.271304)scale(0.1 -0.1)">
       <use xlink:href="#DejaVuSans-31"/>
      </g>
     </g>
    </g>
    <g id="ytick_3">
     <g id="line2d_17">
      <path clip-path="url(#p33321b27b7)" d="M 172.89 384.077949 
L 1244.808 384.077949 
" style="fill:none;stroke:#000000;stroke-dasharray:0.5,0.825;stroke-dashoffset:0;stroke-opacity:0.5;stroke-width:0.5;"/>
     </g>
     <g id="line2d_18">
      <g>
       <use style="stroke:#000000;stroke-width:0.8;" x="172.89" xlink:href="#m8c1b5e06e4" y="384.077949"/>
      </g>
     </g>
     <g id="text_9">
      <!-- 2 -->
      <g transform="translate(159.5275 387.877168)scale(0.1 -0.1)">
       <use xlink:href="#DejaVuSans-32"/>
      </g>
     </g>
    </g>
    <g id="ytick_4">
     <g id="line2d_19">
      <path clip-path="url(#p33321b27b7)" d="M 172.89 275.683813 
L 1244.808 275.683813 
" style="fill:none;stroke:#000000;stroke-dasharray:0.5,0.825;stroke-dashoffset:0;stroke-opacity:0.5;stroke-width:0.5;"/>
     </g>
     <g id="line2d_20">
      <g>
       <use style="stroke:#000000;stroke-width:0.8;" x="172.89" xlink:href="#m8c1b5e06e4" y="275.683813"/>
      </g>
     </g>
     <g id="text_10">
      <!-- 3 -->
      <g transform="translate(159.5275 279.483032)scale(0.1 -0.1)">
       <defs>
        <path d="M 2597 2516 
Q 3050 2419 3304 2112 
Q 3559 1806 3559 1356 
Q 3559 666 3084 287 
Q 2609 -91 1734 -91 
Q 1441 -91 1130 -33 
Q 819 25 488 141 
L 488 750 
Q 750 597 1062 519 
Q 1375 441 1716 441 
Q 2309 441 2620 675 
Q 2931 909 2931 1356 
Q 2931 1769 2642 2001 
Q 2353 2234 1838 2234 
L 1294 2234 
L 1294 2753 
L 1863 2753 
Q 2328 2753 2575 2939 
Q 2822 3125 2822 3475 
Q 2822 3834 2567 4026 
Q 2313 4219 1838 4219 
Q 1578 4219 1281 4162 
Q 984 4106 628 3988 
L 628 4550 
Q 988 4650 1302 4700 
Q 1616 4750 1894 4750 
Q 2613 4750 3031 4423 
Q 3450 4097 3450 3541 
Q 3450 3153 3228 2886 
Q 3006 2619 2597 2516 
z
" id="DejaVuSans-33" transform="scale(0.015625)"/>
       </defs>
       <use xlink:href="#DejaVuSans-33"/>
      </g>
     </g>
    </g>
    <g id="ytick_5">
     <g id="line2d_21">
      <path clip-path="url(#p33321b27b7)" d="M 172.89 167.289677 
L 1244.808 167.289677 
" style="fill:none;stroke:#000000;stroke-dasharray:0.5,0.825;stroke-dashoffset:0;stroke-opacity:0.5;stroke-width:0.5;"/>
     </g>
     <g id="line2d_22">
      <g>
       <use style="stroke:#000000;stroke-width:0.8;" x="172.89" xlink:href="#m8c1b5e06e4" y="167.289677"/>
      </g>
     </g>
     <g id="text_11">
      <!-- 4 -->
      <g transform="translate(159.5275 171.088896)scale(0.1 -0.1)">
       <use xlink:href="#DejaVuSans-34"/>
      </g>
     </g>
    </g>
   </g>
   <g id="line2d_23">
    <path clip-path="url(#p33321b27b7)" d="M 221.613545 492.472085 
L 222.588992 554.069326 
L 223.564438 551.301519 
L 224.539885 548.887019 
L 225.515331 548.887019 
L 226.490777 546.756259 
L 227.466224 546.756259 
L 229.417116 543.150908 
L 233.318902 543.150908 
L 234.294348 541.606138 
L 235.269794 541.606138 
L 236.245241 543.150908 
L 238.196133 543.150908 
L 239.17158 541.606138 
L 240.147026 543.150908 
L 250.876936 543.150908 
L 251.852382 544.857389 
L 252.827829 543.150908 
L 253.803275 543.150908 
L 254.778722 544.857389 
L 255.754168 544.857389 
L 256.729614 543.150908 
L 257.705061 543.150908 
L 259.655953 540.198846 
L 270.385863 540.198846 
L 271.36131 543.150908 
L 276.238541 543.150908 
L 277.213988 551.301519 
L 278.189434 548.887019 
L 279.16488 548.887019 
L 280.140327 551.301519 
L 281.115773 554.069326 
L 282.091219 551.301519 
L 283.066666 554.069326 
L 284.042112 554.069326 
L 285.017559 551.301519 
L 285.993005 551.301519 
L 286.968451 548.887019 
L 287.943898 551.301519 
L 291.845683 551.301519 
L 292.821129 548.887019 
L 293.796576 551.301519 
L 294.772022 551.301519 
L 295.747468 544.857389 
L 296.722915 544.857389 
L 297.698361 543.150908 
L 300.6247 543.150908 
L 301.600147 544.857389 
L 302.575593 544.857389 
L 304.526486 541.606138 
L 309.403717 541.606138 
L 310.379164 544.857389 
L 312.330057 544.857389 
L 313.305503 543.150908 
L 314.280949 544.857389 
L 316.231842 544.857389 
L 317.207288 543.150908 
L 318.182735 543.150908 
L 319.158181 541.606138 
L 320.133627 541.606138 
L 321.109074 538.909606 
L 322.08452 537.722642 
L 323.059966 537.722642 
L 324.035413 540.198846 
L 325.010859 538.909606 
L 325.986305 538.909606 
L 326.961752 540.198846 
L 327.937198 543.150908 
L 328.912645 543.150908 
L 329.888091 541.606138 
L 330.863537 544.857389 
L 332.81443 544.857389 
L 333.789876 546.756259 
L 335.740769 561.087483 
L 336.716215 561.087483 
L 337.691662 557.286156 
L 338.667108 554.069326 
L 339.642554 551.301519 
L 340.618001 551.301519 
L 341.593447 554.069326 
L 342.568894 551.301519 
L 343.54434 551.301519 
L 344.519786 548.887019 
L 345.495233 548.887019 
L 346.470679 551.301519 
L 349.397018 551.301519 
L 350.372464 554.069326 
L 351.347911 554.069326 
L 352.323357 551.301519 
L 353.298803 551.301519 
L 354.27425 554.069326 
L 355.249696 551.301519 
L 358.176035 551.301519 
L 359.151482 554.069326 
L 363.053267 554.069326 
L 364.028713 557.286156 
L 365.00416 557.286156 
L 365.979606 554.069326 
L 385.488533 554.069326 
L 386.46398 551.301519 
L 387.439426 548.887019 
L 388.414872 551.301519 
L 389.390319 551.301519 
L 390.365765 548.887019 
L 391.341211 551.301519 
L 392.316658 554.069326 
L 393.292104 551.301519 
L 394.26755 548.887019 
L 395.242997 554.069326 
L 397.193889 554.069326 
L 398.169336 551.301519 
L 399.144782 551.301519 
L 400.120229 548.887019 
L 402.071121 548.887019 
L 403.046568 551.301519 
L 404.022014 548.887019 
L 406.948353 548.887019 
L 407.923799 551.301519 
L 419.629156 551.301519 
L 420.604602 554.069326 
L 421.580048 551.301519 
L 425.481834 551.301519 
L 426.45728 548.887019 
L 427.432726 548.887019 
L 428.408173 551.301519 
L 429.383619 548.887019 
L 430.359066 551.301519 
L 431.334512 548.887019 
L 432.309958 548.887019 
L 433.285405 551.301519 
L 445.966207 551.301519 
L 446.941654 557.286156 
L 447.9171 554.069326 
L 448.892546 557.286156 
L 449.867993 554.069326 
L 450.843439 548.887019 
L 451.818885 554.069326 
L 452.794332 551.301519 
L 453.769778 554.069326 
L 456.696117 554.069326 
L 457.671563 557.286156 
L 465.475134 557.286156 
L 466.450581 561.087483 
L 467.426027 551.301519 
L 468.401473 554.069326 
L 469.37692 551.301519 
L 471.327812 551.301519 
L 472.303259 554.069326 
L 473.278705 554.069326 
L 474.254152 551.301519 
L 475.229598 551.301519 
L 476.205044 546.756259 
L 480.10683 546.756259 
L 481.082276 544.857389 
L 483.033169 544.857389 
L 484.008615 546.756259 
L 484.984061 546.756259 
L 485.959508 548.887019 
L 486.934954 548.887019 
L 487.9104 544.857389 
L 488.885847 544.857389 
L 490.83674 541.606138 
L 491.812186 543.150908 
L 492.787632 541.606138 
L 493.763079 541.606138 
L 494.738525 538.909606 
L 496.689418 538.909606 
L 497.664864 540.198846 
L 502.542096 540.198846 
L 503.517542 538.909606 
L 504.492989 540.198846 
L 505.468435 538.909606 
L 506.443881 541.606138 
L 508.394774 544.857389 
L 510.345667 544.857389 
L 511.321113 546.756259 
L 512.296559 557.286156 
L 515.222898 557.286156 
L 516.198345 561.087483 
L 527.903701 561.087483 
L 528.879147 565.67094 
L 529.854594 565.67094 
L 530.83004 561.087483 
L 533.756379 561.087483 
L 534.731826 557.286156 
L 535.707272 557.286156 
L 536.682718 554.069326 
L 537.658165 554.069326 
L 538.633611 551.301519 
L 539.609057 551.301519 
L 540.584504 548.887019 
L 546.437182 548.887019 
L 547.412628 551.301519 
L 548.388075 551.301519 
L 549.363521 554.069326 
L 551.314414 554.069326 
L 552.28986 557.286156 
L 553.265306 554.069326 
L 556.191645 554.069326 
L 557.167092 551.301519 
L 558.142538 551.301519 
L 559.117984 554.069326 
L 560.093431 551.301519 
L 561.068877 551.301519 
L 562.044324 557.286156 
L 563.01977 557.286156 
L 563.995216 554.069326 
L 564.970663 554.069326 
L 565.946109 557.286156 
L 568.872448 557.286156 
L 569.847894 565.67094 
L 570.823341 571.332467 
L 571.798787 561.087483 
L 572.774233 557.286156 
L 573.74968 561.087483 
L 574.725126 561.087483 
L 575.700572 565.67094 
L 577.651465 565.67094 
L 578.626912 561.087483 
L 579.602358 557.286156 
L 583.504143 557.286156 
L 584.47959 561.087483 
L 588.381375 561.087483 
L 589.356821 557.286156 
L 590.332268 557.286156 
L 591.307714 551.301519 
L 592.283161 551.301519 
L 593.258607 548.887019 
L 594.234053 548.887019 
L 595.2095 551.301519 
L 596.184946 548.887019 
L 597.160392 548.887019 
L 598.135839 551.301519 
L 599.111285 548.887019 
L 600.086731 548.887019 
L 601.062178 546.756259 
L 603.988517 546.756259 
L 604.963963 544.857389 
L 605.93941 546.756259 
L 607.890302 546.756259 
L 608.865749 548.887019 
L 609.841195 546.756259 
L 610.816641 543.150908 
L 613.74298 543.150908 
L 614.718427 537.722642 
L 615.693873 538.909606 
L 616.669319 537.722642 
L 618.620212 540.198846 
L 619.595658 538.909606 
L 620.571105 540.198846 
L 621.546551 540.198846 
L 622.521998 544.857389 
L 623.497444 546.756259 
L 624.47289 546.756259 
L 625.448337 544.857389 
L 626.423783 544.857389 
L 628.374676 548.887019 
L 629.350122 554.069326 
L 631.301015 554.069326 
L 632.276461 548.887019 
L 633.251907 546.756259 
L 634.227354 548.887019 
L 637.153693 548.887019 
L 638.129139 546.756259 
L 639.104586 548.887019 
L 640.080032 546.756259 
L 642.030925 546.756259 
L 643.006371 548.887019 
L 643.981817 546.756259 
L 647.883603 546.756259 
L 648.859049 548.887019 
L 649.834495 551.301519 
L 650.809942 551.301519 
L 651.785388 548.887019 
L 653.736281 548.887019 
L 654.711727 554.069326 
L 655.687174 548.887019 
L 656.66262 551.301519 
L 661.539852 551.301519 
L 662.515298 548.887019 
L 664.466191 548.887019 
L 665.441637 551.301519 
L 666.417084 554.069326 
L 667.39253 554.069326 
L 668.367976 557.286156 
L 671.294315 557.286156 
L 672.269762 554.069326 
L 673.245208 554.069326 
L 674.220654 551.301519 
L 676.171547 551.301519 
L 677.146993 557.286156 
L 678.12244 554.069326 
L 679.097886 548.887019 
L 680.073333 548.887019 
L 681.048779 551.301519 
L 682.999672 546.756259 
L 683.975118 544.857389 
L 684.950564 546.756259 
L 685.926011 544.857389 
L 687.876903 548.887019 
L 692.754135 548.887019 
L 693.729581 546.756259 
L 696.655921 546.756259 
L 697.631367 548.887019 
L 698.606813 546.756259 
L 699.58226 548.887019 
L 700.557706 546.756259 
L 701.533152 548.887019 
L 702.508599 551.301519 
L 703.484045 554.069326 
L 704.459491 551.301519 
L 705.434938 548.887019 
L 706.410384 548.887019 
L 707.38583 551.301519 
L 708.361277 548.887019 
L 709.336723 551.301519 
L 710.31217 548.887019 
L 715.189401 548.887019 
L 716.164848 546.756259 
L 718.11574 546.756259 
L 719.091187 548.887019 
L 720.066633 548.887019 
L 721.042079 551.301519 
L 722.992972 551.301519 
L 723.968419 548.887019 
L 728.84565 548.887019 
L 729.821097 551.301519 
L 730.796543 551.301519 
L 731.771989 554.069326 
L 732.747436 551.301519 
L 733.722882 554.069326 
L 735.673775 554.069326 
L 736.649221 551.301519 
L 737.624667 554.069326 
L 738.600114 551.301519 
L 740.551007 551.301519 
L 741.526453 548.887019 
L 743.477346 548.887019 
L 744.452792 544.857389 
L 745.428238 546.756259 
L 746.403685 546.756259 
L 747.379131 548.887019 
L 750.30547 548.887019 
L 751.280916 551.301519 
L 752.256363 551.301519 
L 753.231809 554.069326 
L 754.207256 551.301519 
L 755.182702 554.069326 
L 756.158148 554.069326 
L 757.133595 557.286156 
L 758.109041 554.069326 
L 759.084487 554.069326 
L 760.059934 557.286156 
L 761.03538 554.069326 
L 762.010826 557.286156 
L 762.986273 551.301519 
L 764.937165 551.301519 
L 765.912612 554.069326 
L 767.863505 554.069326 
L 768.838951 557.286156 
L 769.814397 557.286156 
L 770.789844 554.069326 
L 771.76529 557.286156 
L 772.740736 557.286156 
L 773.716183 554.069326 
L 775.667075 554.069326 
L 776.642522 551.301519 
L 781.519753 551.301519 
L 782.4952 554.069326 
L 783.470646 551.301519 
L 785.421539 551.301519 
L 786.396985 548.887019 
L 787.372432 548.887019 
L 788.347878 551.301519 
L 789.323324 548.887019 
L 790.298771 551.301519 
L 791.274217 551.301519 
L 792.249663 548.887019 
L 793.22511 548.887019 
L 794.200556 546.756259 
L 795.176002 546.756259 
L 796.151449 548.887019 
L 797.126895 551.301519 
L 798.102342 548.887019 
L 799.077788 548.887019 
L 800.053234 557.286156 
L 801.028681 561.087483 
L 803.95502 561.087483 
L 804.930466 557.286156 
L 805.905912 554.069326 
L 806.881359 554.069326 
L 807.856805 557.286156 
L 808.832251 554.069326 
L 809.807698 554.069326 
L 810.783144 557.286156 
L 811.75859 551.301519 
L 812.734037 551.301519 
L 813.709483 554.069326 
L 814.68493 554.069326 
L 815.660376 557.286156 
L 816.635822 554.069326 
L 817.611269 551.301519 
L 818.586715 554.069326 
L 822.4885 554.069326 
L 823.463947 557.286156 
L 826.390286 557.286156 
L 827.365732 561.087483 
L 828.341179 557.286156 
L 830.292071 557.286156 
L 831.267518 554.069326 
L 832.242964 557.286156 
L 836.144749 557.286156 
L 837.120196 561.087483 
L 840.046535 561.087483 
L 841.021981 557.286156 
L 842.972874 557.286156 
L 843.94832 554.069326 
L 845.899213 554.069326 
L 846.874659 551.301519 
L 847.850106 554.069326 
L 848.825552 554.069326 
L 849.800998 557.286156 
L 850.776445 554.069326 
L 851.751891 554.069326 
L 852.727337 557.286156 
L 853.702784 554.069326 
L 854.67823 551.301519 
L 855.653676 548.887019 
L 856.629123 554.069326 
L 857.604569 551.301519 
L 860.530908 551.301519 
L 861.506355 554.069326 
L 864.432694 554.069326 
L 865.40814 551.301519 
L 866.383586 551.301519 
L 867.359033 554.069326 
L 868.334479 554.069326 
L 869.309925 551.301519 
L 871.260818 551.301519 
L 872.236265 554.069326 
L 873.211711 548.887019 
L 874.187157 551.301519 
L 875.162604 551.301519 
L 876.13805 546.756259 
L 877.113496 548.887019 
L 878.088943 544.857389 
L 879.064389 543.150908 
L 883.941621 543.150908 
L 884.917067 544.857389 
L 885.892514 543.150908 
L 886.86796 544.857389 
L 887.843406 543.150908 
L 889.794299 543.150908 
L 890.769745 541.606138 
L 893.696084 541.606138 
L 894.671531 543.150908 
L 895.646977 541.606138 
L 898.573316 541.606138 
L 899.548762 540.198846 
L 902.475102 540.198846 
L 903.450548 543.150908 
L 904.425994 544.857389 
L 908.32778 544.857389 
L 909.303226 546.756259 
L 910.278672 546.756259 
L 911.254119 544.857389 
L 912.229565 544.857389 
L 913.205011 543.150908 
L 914.180458 546.756259 
L 915.155904 543.150908 
L 916.131351 546.756259 
L 917.106797 548.887019 
L 918.082243 551.301519 
L 919.05769 554.069326 
L 921.984029 554.069326 
L 922.959475 557.286156 
L 923.934921 554.069326 
L 924.910368 554.069326 
L 925.885814 561.087483 
L 926.86126 554.069326 
L 928.812153 554.069326 
L 929.7876 551.301519 
L 930.763046 554.069326 
L 938.566617 554.069326 
L 939.542063 557.286156 
L 940.517509 557.286156 
L 941.492956 554.069326 
L 943.443848 554.069326 
L 944.419295 551.301519 
L 946.370188 551.301519 
L 947.345634 554.069326 
L 948.32108 557.286156 
L 949.296527 554.069326 
L 951.247419 554.069326 
L 952.222866 551.301519 
L 953.198312 546.756259 
L 956.124651 546.756259 
L 957.100097 551.301519 
L 961.001883 551.301519 
L 961.977329 548.887019 
L 965.879115 548.887019 
L 966.854561 551.301519 
L 967.830007 554.069326 
L 972.707239 554.069326 
L 973.682686 551.301519 
L 974.658132 551.301519 
L 976.609025 546.756259 
L 978.559917 546.756259 
L 979.535364 544.857389 
L 980.51081 548.887019 
L 981.486256 551.301519 
L 982.461703 551.301519 
L 983.437149 548.887019 
L 984.412595 551.301519 
L 985.388042 554.069326 
L 993.191613 554.069326 
L 994.167059 557.286156 
L 996.117952 557.286156 
L 997.093398 554.069326 
L 999.044291 554.069326 
L 1000.019737 551.301519 
L 1000.995183 551.301519 
L 1001.97063 554.069326 
L 1006.847862 554.069326 
L 1007.823308 548.887019 
L 1008.798754 548.887019 
L 1009.774201 551.301519 
L 1011.725093 551.301519 
L 1012.70054 546.756259 
L 1014.651432 543.150908 
L 1019.528664 543.150908 
L 1020.504111 544.857389 
L 1021.479557 543.150908 
L 1022.455003 540.198846 
L 1026.356789 540.198846 
L 1027.332235 541.606138 
L 1028.307681 541.606138 
L 1029.283128 543.150908 
L 1030.258574 543.150908 
L 1031.23402 541.606138 
L 1032.209467 541.606138 
L 1033.184913 544.857389 
L 1035.135806 541.606138 
L 1036.111252 538.909606 
L 1038.062145 538.909606 
L 1040.013038 541.606138 
L 1040.988484 540.198846 
L 1044.890269 540.198846 
L 1045.865716 541.606138 
L 1046.841162 544.857389 
L 1048.792055 544.857389 
L 1049.767501 540.198846 
L 1053.669287 540.198846 
L 1055.620179 543.150908 
L 1056.595626 543.150908 
L 1057.571072 544.857389 
L 1061.472857 544.857389 
L 1062.448304 546.756259 
L 1066.350089 546.756259 
L 1067.325536 544.857389 
L 1068.300982 544.857389 
L 1069.276428 541.606138 
L 1072.202767 541.606138 
L 1073.178214 540.198846 
L 1076.104553 540.198846 
L 1077.079999 544.857389 
L 1079.030892 548.887019 
L 1080.006338 546.756259 
L 1080.981785 548.887019 
L 1081.957231 551.301519 
L 1082.932677 548.887019 
L 1083.908124 551.301519 
L 1084.88357 551.301519 
L 1085.859016 548.887019 
L 1086.834463 548.887019 
L 1087.809909 551.301519 
L 1088.785355 548.887019 
L 1089.760802 551.301519 
L 1090.736248 548.887019 
L 1091.711695 551.301519 
L 1092.687141 554.069326 
L 1094.638034 554.069326 
L 1095.61348 551.301519 
L 1096.588926 551.301519 
L 1097.564373 548.887019 
L 1098.539819 554.069326 
L 1099.515265 551.301519 
L 1100.490712 554.069326 
L 1106.34339 554.069326 
L 1107.318836 551.301519 
L 1113.171514 551.301519 
L 1114.146961 554.069326 
L 1115.122407 554.069326 
L 1116.097853 557.286156 
L 1117.0733 557.286156 
L 1118.048746 554.069326 
L 1119.024192 557.286156 
L 1121.950532 557.286156 
L 1122.925978 554.069326 
L 1123.901424 557.286156 
L 1126.827763 557.286156 
L 1127.80321 561.087483 
L 1128.778656 561.087483 
L 1129.754102 565.67094 
L 1131.704995 565.67094 
L 1132.680441 561.087483 
L 1133.655888 561.087483 
L 1134.631334 565.67094 
L 1135.606781 565.67094 
L 1136.582227 571.332467 
L 1138.53312 571.332467 
L 1139.508566 565.67094 
L 1143.410351 565.67094 
L 1144.385798 561.087483 
L 1145.361244 557.286156 
L 1146.33669 554.069326 
L 1147.312137 551.301519 
L 1148.287583 546.756259 
L 1149.263029 548.887019 
L 1150.238476 551.301519 
L 1151.213922 554.069326 
L 1152.189369 557.286156 
L 1153.164815 557.286156 
L 1154.140261 561.087483 
L 1155.115708 565.67094 
L 1156.091154 561.087483 
L 1159.992939 561.087483 
L 1160.968386 557.286156 
L 1163.894725 557.286156 
L 1164.870171 554.069326 
L 1167.79651 554.069326 
L 1168.771957 557.286156 
L 1169.747403 557.286156 
L 1170.722849 561.087483 
L 1171.698296 557.286156 
L 1172.673742 557.286156 
L 1173.649188 554.069326 
L 1174.624635 557.286156 
L 1181.452759 557.286156 
L 1182.428206 561.087483 
L 1183.403652 557.286156 
L 1186.329991 557.286156 
L 1187.305437 554.069326 
L 1194.133562 554.069326 
L 1195.109008 551.301519 
L 1196.084455 551.301519 
L 1196.084455 551.301519 
" style="fill:none;stroke:#1f77b4;stroke-dasharray:5.55,2.4;stroke-dashoffset:0;stroke-width:1.5;"/>
   </g>
   <g id="line2d_24">
    <path clip-path="url(#p33321b27b7)" d="M 221.613545 492.472085 
L 222.588992 405.449542 
L 223.564438 411.017635 
L 224.539885 415.67697 
L 225.515331 415.67697 
L 226.490777 419.647425 
L 227.466224 419.647425 
L 228.44167 423.081424 
L 229.417116 426.088305 
L 233.318902 426.088305 
L 234.294348 428.748752 
L 235.269794 428.748752 
L 236.245241 426.088305 
L 238.196133 426.088305 
L 239.17158 428.748752 
L 240.147026 426.088305 
L 250.876936 426.088305 
L 251.852382 423.081424 
L 252.827829 426.088305 
L 253.803275 426.088305 
L 254.778722 423.081424 
L 255.754168 423.081424 
L 256.729614 426.088305 
L 257.705061 426.088305 
L 259.655953 431.123742 
L 270.385863 431.123742 
L 271.36131 426.088305 
L 276.238541 426.088305 
L 277.213988 411.017635 
L 278.189434 415.67697 
L 279.16488 415.67697 
L 280.140327 411.017635 
L 281.115773 405.449542 
L 282.091219 411.017635 
L 283.066666 405.449542 
L 284.042112 405.449542 
L 285.017559 411.017635 
L 285.993005 411.017635 
L 286.968451 415.67697 
L 287.943898 411.017635 
L 291.845683 411.017635 
L 292.821129 415.67697 
L 293.796576 411.017635 
L 294.772022 411.017635 
L 295.747468 423.081424 
L 296.722915 423.081424 
L 297.698361 426.088305 
L 300.6247 426.088305 
L 301.600147 423.081424 
L 302.575593 423.081424 
L 304.526486 428.748752 
L 309.403717 428.748752 
L 310.379164 423.081424 
L 312.330057 423.081424 
L 313.305503 426.088305 
L 314.280949 423.081424 
L 316.231842 423.081424 
L 317.207288 426.088305 
L 318.182735 426.088305 
L 319.158181 428.748752 
L 320.133627 428.748752 
L 321.109074 433.260305 
L 322.08452 435.195364 
L 323.059966 435.195364 
L 324.035413 431.123742 
L 325.010859 433.260305 
L 325.986305 433.260305 
L 326.961752 431.123742 
L 327.937198 426.088305 
L 328.912645 426.088305 
L 329.888091 428.748752 
L 330.863537 423.081424 
L 332.81443 423.081424 
L 333.789876 419.647425 
L 335.740769 390.069759 
L 336.716215 390.069759 
L 337.691662 398.641878 
L 338.667108 405.449542 
L 339.642554 411.017635 
L 340.618001 411.017635 
L 341.593447 405.449542 
L 342.568894 411.017635 
L 343.54434 411.017635 
L 344.519786 415.67697 
L 345.495233 415.67697 
L 346.470679 411.017635 
L 349.397018 411.017635 
L 350.372464 405.449542 
L 351.347911 405.449542 
L 352.323357 411.017635 
L 353.298803 411.017635 
L 354.27425 405.449542 
L 355.249696 411.017635 
L 358.176035 411.017635 
L 359.151482 405.449542 
L 363.053267 405.449542 
L 364.028713 398.641878 
L 365.00416 398.641878 
L 365.979606 405.449542 
L 385.488533 405.449542 
L 386.46398 411.017635 
L 387.439426 415.67697 
L 388.414872 411.017635 
L 389.390319 411.017635 
L 390.365765 415.67697 
L 391.341211 411.017635 
L 392.316658 405.449542 
L 393.292104 411.017635 
L 394.26755 415.67697 
L 395.242997 405.449542 
L 397.193889 405.449542 
L 398.169336 411.017635 
L 399.144782 411.017635 
L 400.120229 415.67697 
L 402.071121 415.67697 
L 403.046568 411.017635 
L 404.022014 415.67697 
L 406.948353 415.67697 
L 407.923799 411.017635 
L 419.629156 411.017635 
L 420.604602 405.449542 
L 421.580048 411.017635 
L 425.481834 411.017635 
L 426.45728 415.67697 
L 427.432726 415.67697 
L 428.408173 411.017635 
L 429.383619 415.67697 
L 430.359066 411.017635 
L 431.334512 415.67697 
L 432.309958 415.67697 
L 433.285405 411.017635 
L 445.966207 411.017635 
L 446.941654 398.641878 
L 447.9171 405.449542 
L 448.892546 398.641878 
L 449.867993 405.449542 
L 450.843439 415.67697 
L 451.818885 405.449542 
L 452.794332 411.017635 
L 453.769778 405.449542 
L 456.696117 405.449542 
L 457.671563 398.641878 
L 465.475134 398.641878 
L 466.450581 390.069759 
L 467.426027 411.017635 
L 468.401473 405.449542 
L 469.37692 411.017635 
L 471.327812 411.017635 
L 472.303259 405.449542 
L 473.278705 405.449542 
L 474.254152 411.017635 
L 475.229598 411.017635 
L 476.205044 419.647425 
L 480.10683 419.647425 
L 481.082276 423.081424 
L 483.033169 423.081424 
L 484.008615 419.647425 
L 484.984061 419.647425 
L 485.959508 415.67697 
L 486.934954 415.67697 
L 487.9104 423.081424 
L 488.885847 423.081424 
L 490.83674 428.748752 
L 491.812186 426.088305 
L 492.787632 428.748752 
L 493.763079 428.748752 
L 494.738525 433.260305 
L 496.689418 433.260305 
L 497.664864 431.123742 
L 502.542096 431.123742 
L 503.517542 433.260305 
L 504.492989 431.123742 
L 505.468435 433.260305 
L 506.443881 428.748752 
L 507.419328 426.088305 
L 508.394774 423.081424 
L 510.345667 423.081424 
L 511.321113 419.647425 
L 512.296559 398.641878 
L 515.222898 398.641878 
L 516.198345 390.069759 
L 527.903701 390.069759 
L 528.879147 378.84059 
L 529.854594 378.84059 
L 530.83004 390.069759 
L 533.756379 390.069759 
L 534.731826 398.641878 
L 535.707272 398.641878 
L 536.682718 405.449542 
L 537.658165 405.449542 
L 538.633611 411.017635 
L 539.609057 411.017635 
L 540.584504 415.67697 
L 546.437182 415.67697 
L 547.412628 411.017635 
L 548.388075 411.017635 
L 549.363521 405.449542 
L 551.314414 405.449542 
L 552.28986 398.641878 
L 553.265306 405.449542 
L 556.191645 405.449542 
L 557.167092 411.017635 
L 558.142538 411.017635 
L 559.117984 405.449542 
L 560.093431 411.017635 
L 561.068877 411.017635 
L 562.044324 398.641878 
L 563.01977 398.641878 
L 563.995216 405.449542 
L 564.970663 405.449542 
L 565.946109 398.641878 
L 568.872448 398.641878 
L 569.847894 378.84059 
L 570.823341 363.285974 
L 571.798787 390.069759 
L 572.774233 398.641878 
L 573.74968 390.069759 
L 574.725126 390.069759 
L 575.700572 378.84059 
L 577.651465 378.84059 
L 578.626912 390.069759 
L 579.602358 398.641878 
L 583.504143 398.641878 
L 584.47959 390.069759 
L 588.381375 390.069759 
L 589.356821 398.641878 
L 590.332268 398.641878 
L 591.307714 411.017635 
L 592.283161 411.017635 
L 593.258607 415.67697 
L 594.234053 415.67697 
L 595.2095 411.017635 
L 596.184946 415.67697 
L 597.160392 415.67697 
L 598.135839 411.017635 
L 599.111285 415.67697 
L 600.086731 415.67697 
L 601.062178 419.647425 
L 603.988517 419.647425 
L 604.963963 423.081424 
L 605.93941 419.647425 
L 607.890302 419.647425 
L 608.865749 415.67697 
L 609.841195 419.647425 
L 610.816641 426.088305 
L 613.74298 426.088305 
L 614.718427 435.195364 
L 615.693873 433.260305 
L 616.669319 435.195364 
L 618.620212 431.123742 
L 619.595658 433.260305 
L 620.571105 431.123742 
L 621.546551 431.123742 
L 622.521998 423.081424 
L 623.497444 419.647425 
L 624.47289 419.647425 
L 625.448337 423.081424 
L 626.423783 423.081424 
L 627.399229 419.647425 
L 628.374676 415.67697 
L 629.350122 405.449542 
L 631.301015 405.449542 
L 632.276461 415.67697 
L 633.251907 419.647425 
L 634.227354 415.67697 
L 637.153693 415.67697 
L 638.129139 419.647425 
L 639.104586 415.67697 
L 640.080032 419.647425 
L 642.030925 419.647425 
L 643.006371 415.67697 
L 643.981817 419.647425 
L 647.883603 419.647425 
L 648.859049 415.67697 
L 649.834495 411.017635 
L 650.809942 411.017635 
L 651.785388 415.67697 
L 653.736281 415.67697 
L 654.711727 405.449542 
L 655.687174 415.67697 
L 656.66262 411.017635 
L 661.539852 411.017635 
L 662.515298 415.67697 
L 664.466191 415.67697 
L 665.441637 411.017635 
L 666.417084 405.449542 
L 667.39253 405.449542 
L 668.367976 398.641878 
L 671.294315 398.641878 
L 672.269762 405.449542 
L 673.245208 405.449542 
L 674.220654 411.017635 
L 676.171547 411.017635 
L 677.146993 398.641878 
L 678.12244 405.449542 
L 679.097886 415.67697 
L 680.073333 415.67697 
L 681.048779 411.017635 
L 682.024225 415.67697 
L 682.999672 419.647425 
L 683.975118 423.081424 
L 684.950564 419.647425 
L 685.926011 423.081424 
L 686.901457 419.647425 
L 687.876903 415.67697 
L 692.754135 415.67697 
L 693.729581 419.647425 
L 696.655921 419.647425 
L 697.631367 415.67697 
L 698.606813 419.647425 
L 699.58226 415.67697 
L 700.557706 419.647425 
L 701.533152 415.67697 
L 702.508599 411.017635 
L 703.484045 405.449542 
L 704.459491 411.017635 
L 705.434938 415.67697 
L 706.410384 415.67697 
L 707.38583 411.017635 
L 708.361277 415.67697 
L 709.336723 411.017635 
L 710.31217 415.67697 
L 715.189401 415.67697 
L 716.164848 419.647425 
L 718.11574 419.647425 
L 719.091187 415.67697 
L 720.066633 415.67697 
L 721.042079 411.017635 
L 722.992972 411.017635 
L 723.968419 415.67697 
L 728.84565 415.67697 
L 729.821097 411.017635 
L 730.796543 411.017635 
L 731.771989 405.449542 
L 732.747436 411.017635 
L 733.722882 405.449542 
L 735.673775 405.449542 
L 736.649221 411.017635 
L 737.624667 405.449542 
L 738.600114 411.017635 
L 740.551007 411.017635 
L 741.526453 415.67697 
L 743.477346 415.67697 
L 744.452792 423.081424 
L 745.428238 419.647425 
L 746.403685 419.647425 
L 747.379131 415.67697 
L 750.30547 415.67697 
L 751.280916 411.017635 
L 752.256363 411.017635 
L 753.231809 405.449542 
L 754.207256 411.017635 
L 755.182702 405.449542 
L 756.158148 405.449542 
L 757.133595 398.641878 
L 758.109041 405.449542 
L 759.084487 405.449542 
L 760.059934 398.641878 
L 761.03538 405.449542 
L 762.010826 398.641878 
L 762.986273 411.017635 
L 764.937165 411.017635 
L 765.912612 405.449542 
L 767.863505 405.449542 
L 768.838951 398.641878 
L 769.814397 398.641878 
L 770.789844 405.449542 
L 771.76529 398.641878 
L 772.740736 398.641878 
L 773.716183 405.449542 
L 775.667075 405.449542 
L 776.642522 411.017635 
L 781.519753 411.017635 
L 782.4952 405.449542 
L 783.470646 411.017635 
L 785.421539 411.017635 
L 786.396985 415.67697 
L 787.372432 415.67697 
L 788.347878 411.017635 
L 789.323324 415.67697 
L 790.298771 411.017635 
L 791.274217 411.017635 
L 792.249663 415.67697 
L 793.22511 415.67697 
L 794.200556 419.647425 
L 795.176002 419.647425 
L 796.151449 415.67697 
L 797.126895 411.017635 
L 798.102342 415.67697 
L 799.077788 415.67697 
L 800.053234 398.641878 
L 801.028681 390.069759 
L 803.95502 390.069759 
L 804.930466 398.641878 
L 805.905912 405.449542 
L 806.881359 405.449542 
L 807.856805 398.641878 
L 808.832251 405.449542 
L 809.807698 405.449542 
L 810.783144 398.641878 
L 811.75859 411.017635 
L 812.734037 411.017635 
L 813.709483 405.449542 
L 814.68493 405.449542 
L 815.660376 398.641878 
L 816.635822 405.449542 
L 817.611269 411.017635 
L 818.586715 405.449542 
L 822.4885 405.449542 
L 823.463947 398.641878 
L 826.390286 398.641878 
L 827.365732 390.069759 
L 828.341179 398.641878 
L 830.292071 398.641878 
L 831.267518 405.449542 
L 832.242964 398.641878 
L 836.144749 398.641878 
L 837.120196 390.069759 
L 840.046535 390.069759 
L 841.021981 398.641878 
L 842.972874 398.641878 
L 843.94832 405.449542 
L 845.899213 405.449542 
L 846.874659 411.017635 
L 847.850106 405.449542 
L 848.825552 405.449542 
L 849.800998 398.641878 
L 850.776445 405.449542 
L 851.751891 405.449542 
L 852.727337 398.641878 
L 853.702784 405.449542 
L 854.67823 411.017635 
L 855.653676 415.67697 
L 856.629123 405.449542 
L 857.604569 411.017635 
L 860.530908 411.017635 
L 861.506355 405.449542 
L 864.432694 405.449542 
L 865.40814 411.017635 
L 866.383586 411.017635 
L 867.359033 405.449542 
L 868.334479 405.449542 
L 869.309925 411.017635 
L 871.260818 411.017635 
L 872.236265 405.449542 
L 873.211711 415.67697 
L 874.187157 411.017635 
L 875.162604 411.017635 
L 876.13805 419.647425 
L 877.113496 415.67697 
L 878.088943 423.081424 
L 879.064389 426.088305 
L 883.941621 426.088305 
L 884.917067 423.081424 
L 885.892514 426.088305 
L 886.86796 423.081424 
L 887.843406 426.088305 
L 889.794299 426.088305 
L 890.769745 428.748752 
L 893.696084 428.748752 
L 894.671531 426.088305 
L 895.646977 428.748752 
L 898.573316 428.748752 
L 899.548762 431.123742 
L 902.475102 431.123742 
L 903.450548 426.088305 
L 904.425994 423.081424 
L 908.32778 423.081424 
L 909.303226 419.647425 
L 910.278672 419.647425 
L 911.254119 423.081424 
L 912.229565 423.081424 
L 913.205011 426.088305 
L 914.180458 419.647425 
L 915.155904 426.088305 
L 916.131351 419.647425 
L 917.106797 415.67697 
L 918.082243 411.017635 
L 919.05769 405.449542 
L 921.984029 405.449542 
L 922.959475 398.641878 
L 923.934921 405.449542 
L 924.910368 405.449542 
L 925.885814 390.069759 
L 926.86126 405.449542 
L 928.812153 405.449542 
L 929.7876 411.017635 
L 930.763046 405.449542 
L 938.566617 405.449542 
L 939.542063 398.641878 
L 940.517509 398.641878 
L 941.492956 405.449542 
L 943.443848 405.449542 
L 944.419295 411.017635 
L 946.370188 411.017635 
L 947.345634 405.449542 
L 948.32108 398.641878 
L 949.296527 405.449542 
L 951.247419 405.449542 
L 952.222866 411.017635 
L 953.198312 419.647425 
L 956.124651 419.647425 
L 957.100097 411.017635 
L 961.001883 411.017635 
L 961.977329 415.67697 
L 965.879115 415.67697 
L 966.854561 411.017635 
L 967.830007 405.449542 
L 972.707239 405.449542 
L 973.682686 411.017635 
L 974.658132 411.017635 
L 975.633578 415.67697 
L 976.609025 419.647425 
L 978.559917 419.647425 
L 979.535364 423.081424 
L 980.51081 415.67697 
L 981.486256 411.017635 
L 982.461703 411.017635 
L 983.437149 415.67697 
L 984.412595 411.017635 
L 985.388042 405.449542 
L 993.191613 405.449542 
L 994.167059 398.641878 
L 996.117952 398.641878 
L 997.093398 405.449542 
L 999.044291 405.449542 
L 1000.019737 411.017635 
L 1000.995183 411.017635 
L 1001.97063 405.449542 
L 1006.847862 405.449542 
L 1007.823308 415.67697 
L 1008.798754 415.67697 
L 1009.774201 411.017635 
L 1011.725093 411.017635 
L 1012.70054 419.647425 
L 1013.675986 423.081424 
L 1014.651432 426.088305 
L 1019.528664 426.088305 
L 1020.504111 423.081424 
L 1021.479557 426.088305 
L 1022.455003 431.123742 
L 1026.356789 431.123742 
L 1027.332235 428.748752 
L 1028.307681 428.748752 
L 1029.283128 426.088305 
L 1030.258574 426.088305 
L 1031.23402 428.748752 
L 1032.209467 428.748752 
L 1033.184913 423.081424 
L 1035.135806 428.748752 
L 1036.111252 433.260305 
L 1038.062145 433.260305 
L 1040.013038 428.748752 
L 1040.988484 431.123742 
L 1044.890269 431.123742 
L 1045.865716 428.748752 
L 1046.841162 423.081424 
L 1048.792055 423.081424 
L 1049.767501 431.123742 
L 1053.669287 431.123742 
L 1055.620179 426.088305 
L 1056.595626 426.088305 
L 1057.571072 423.081424 
L 1061.472857 423.081424 
L 1062.448304 419.647425 
L 1066.350089 419.647425 
L 1067.325536 423.081424 
L 1068.300982 423.081424 
L 1069.276428 428.748752 
L 1072.202767 428.748752 
L 1073.178214 431.123742 
L 1076.104553 431.123742 
L 1077.079999 423.081424 
L 1078.055446 419.647425 
L 1079.030892 415.67697 
L 1080.006338 419.647425 
L 1080.981785 415.67697 
L 1081.957231 411.017635 
L 1082.932677 415.67697 
L 1083.908124 411.017635 
L 1084.88357 411.017635 
L 1085.859016 415.67697 
L 1086.834463 415.67697 
L 1087.809909 411.017635 
L 1088.785355 415.67697 
L 1089.760802 411.017635 
L 1090.736248 415.67697 
L 1091.711695 411.017635 
L 1092.687141 405.449542 
L 1094.638034 405.449542 
L 1095.61348 411.017635 
L 1096.588926 411.017635 
L 1097.564373 415.67697 
L 1098.539819 405.449542 
L 1099.515265 411.017635 
L 1100.490712 405.449542 
L 1106.34339 405.449542 
L 1107.318836 411.017635 
L 1113.171514 411.017635 
L 1114.146961 405.449542 
L 1115.122407 405.449542 
L 1116.097853 398.641878 
L 1117.0733 398.641878 
L 1118.048746 405.449542 
L 1119.024192 398.641878 
L 1121.950532 398.641878 
L 1122.925978 405.449542 
L 1123.901424 398.641878 
L 1126.827763 398.641878 
L 1127.80321 390.069759 
L 1128.778656 390.069759 
L 1129.754102 378.84059 
L 1131.704995 378.84059 
L 1132.680441 390.069759 
L 1133.655888 390.069759 
L 1134.631334 378.84059 
L 1135.606781 378.84059 
L 1136.582227 363.285974 
L 1138.53312 363.285974 
L 1139.508566 378.84059 
L 1143.410351 378.84059 
L 1144.385798 390.069759 
L 1145.361244 398.641878 
L 1146.33669 405.449542 
L 1147.312137 411.017635 
L 1148.287583 419.647425 
L 1149.263029 415.67697 
L 1150.238476 411.017635 
L 1151.213922 405.449542 
L 1152.189369 398.641878 
L 1153.164815 398.641878 
L 1154.140261 390.069759 
L 1155.115708 378.84059 
L 1156.091154 390.069759 
L 1159.992939 390.069759 
L 1160.968386 398.641878 
L 1163.894725 398.641878 
L 1164.870171 405.449542 
L 1167.79651 405.449542 
L 1168.771957 398.641878 
L 1169.747403 398.641878 
L 1170.722849 390.069759 
L 1171.698296 398.641878 
L 1172.673742 398.641878 
L 1173.649188 405.449542 
L 1174.624635 398.641878 
L 1181.452759 398.641878 
L 1182.428206 390.069759 
L 1183.403652 398.641878 
L 1186.329991 398.641878 
L 1187.305437 405.449542 
L 1194.133562 405.449542 
L 1195.109008 411.017635 
L 1196.084455 411.017635 
L 1196.084455 411.017635 
" style="fill:none;stroke:#ff7f0e;stroke-dasharray:5.55,2.4;stroke-dashoffset:0;stroke-width:1.5;"/>
   </g>
   <g id="line2d_25">
    <path clip-path="url(#p33321b27b7)" d="M 221.613545 492.472085 
L 222.588992 599.161939 
L 223.564438 598.66962 
L 224.539885 599.340102 
L 225.515331 598.436949 
L 226.490777 598.846508 
L 227.466224 597.601931 
L 228.44167 599.697069 
L 229.417116 598.410968 
L 230.392563 597.447267 
L 231.368009 599.316802 
L 232.343455 599.391917 
L 233.318902 599.14066 
L 234.294348 598.039872 
L 235.269794 599.234323 
L 236.245241 598.764265 
L 238.196133 598.46012 
L 239.17158 599.74035 
L 240.147026 596.95976 
L 241.122473 599.080035 
L 242.097919 598.320693 
L 243.073365 599.313903 
L 244.048812 597.816325 
L 245.024258 594.653379 
L 245.999704 599.217943 
L 246.975151 598.265497 
L 247.950597 598.121065 
L 248.926043 599.682715 
L 249.90149 598.962991 
L 250.876936 597.249369 
L 251.852382 599.341416 
L 253.803275 598.561226 
L 254.778722 598.723361 
L 255.754168 598.104728 
L 256.729614 599.082816 
L 257.705061 598.533003 
L 258.680507 598.348734 
L 259.655953 598.959648 
L 260.6314 598.422714 
L 261.606846 599.686536 
L 262.582292 597.804344 
L 264.533185 597.07916 
L 265.508631 599.281633 
L 266.484078 598.730696 
L 267.459524 598.028933 
L 268.434971 599.257998 
L 269.410417 598.567819 
L 270.385863 597.621286 
L 271.36131 599.597453 
L 272.336756 598.530002 
L 273.312202 598.480925 
L 274.287649 598.751883 
L 275.263095 598.855863 
L 276.238541 598.255325 
L 277.213988 596.986418 
L 278.189434 597.462776 
L 280.140327 599.061858 
L 281.115773 598.956907 
L 282.091219 600.024883 
L 283.066666 599.483783 
L 284.042112 599.776571 
L 285.017559 597.702364 
L 285.993005 599.225878 
L 286.968451 600.21 
L 287.943898 597.752245 
L 288.919344 598.221445 
L 289.89479 596.321877 
L 290.870237 598.512575 
L 291.845683 598.023166 
L 292.821129 597.176694 
L 293.796576 598.137298 
L 294.772022 599.344197 
L 295.747468 425.4179 
L 296.722915 499.692948 
L 297.698361 498.85493 
L 298.673808 472.719664 
L 299.649254 470.964781 
L 300.6247 422.273919 
L 302.575593 403.080829 
L 303.551039 447.389153 
L 304.526486 511.677973 
L 305.501932 502.31061 
L 306.477378 487.258027 
L 307.452825 464.898625 
L 308.428271 371.763278 
L 309.403717 572.466516 
L 310.379164 583.866329 
L 311.35461 584.144168 
L 312.330057 587.272359 
L 313.305503 588.838382 
L 314.280949 593.578942 
L 315.256396 594.197128 
L 316.231842 595.204236 
L 317.207288 470.037169 
L 318.182735 470.967687 
L 319.158181 428.131766 
L 320.133627 581.683151 
L 321.109074 593.448819 
L 322.08452 594.930804 
L 323.059966 593.687579 
L 324.035413 595.772335 
L 325.010859 594.657588 
L 325.986305 594.445155 
L 328.912645 596.157087 
L 329.888091 587.491703 
L 330.863537 595.305843 
L 331.838984 594.818208 
L 332.81443 598.423546 
L 333.789876 595.652537 
L 334.765323 597.251547 
L 335.740769 597.655284 
L 336.716215 597.395858 
L 337.691662 545.66813 
L 338.667108 562.024887 
L 339.642554 336.819591 
L 340.618001 331.399125 
L 341.593447 565.40391 
L 342.568894 573.503089 
L 343.54434 583.390998 
L 344.519786 575.413798 
L 345.495233 583.552811 
L 346.470679 582.681052 
L 347.446125 585.977609 
L 348.421572 584.07695 
L 349.397018 590.699118 
L 350.372464 585.087516 
L 351.347911 588.936658 
L 352.323357 591.352866 
L 353.298803 592.630277 
L 354.27425 594.338574 
L 355.249696 598.821637 
L 356.225143 596.342432 
L 358.176035 595.868814 
L 359.151482 596.425735 
L 360.126928 597.957565 
L 361.102374 599.216839 
L 362.077821 597.297446 
L 363.053267 592.274918 
L 364.028713 595.768517 
L 365.00416 598.746557 
L 365.979606 595.162032 
L 366.955052 592.418276 
L 367.930499 597.493982 
L 368.905945 595.999232 
L 369.881391 597.967379 
L 370.856838 593.937897 
L 371.832284 594.972411 
L 372.807731 594.772417 
L 373.783177 589.083522 
L 374.758623 593.689749 
L 375.73407 591.988861 
L 376.709516 594.625939 
L 377.684962 593.645688 
L 378.660409 594.281077 
L 379.635855 593.473068 
L 380.611301 594.318222 
L 381.586748 597.716345 
L 382.562194 596.742396 
L 383.53764 598.318913 
L 384.513087 598.030452 
L 385.488533 596.558343 
L 386.46398 597.438576 
L 387.439426 596.789997 
L 388.414872 596.301963 
L 389.390319 598.483845 
L 390.365765 597.776678 
L 391.341211 596.731153 
L 392.316658 597.611271 
L 393.292104 596.356311 
L 394.26755 597.355907 
L 395.242997 595.550963 
L 396.218443 599.795263 
L 397.193889 598.089372 
L 398.169336 387.968311 
L 399.144782 447.703554 
L 400.120229 458.046025 
L 401.095675 429.659422 
L 402.071121 380.279542 
L 403.046568 591.536731 
L 404.022014 597.167576 
L 404.99746 597.447956 
L 405.972907 593.018606 
L 406.948353 595.032844 
L 407.923799 598.136103 
L 408.899246 598.101287 
L 409.874692 592.103884 
L 410.850138 593.423556 
L 411.825585 596.540374 
L 412.801031 596.392886 
L 413.776477 597.491485 
L 414.751924 597.240466 
L 415.72737 598.482132 
L 416.702817 598.294855 
L 417.678263 597.146487 
L 419.629156 597.3561 
L 420.604602 595.866542 
L 421.580048 598.020118 
L 422.555495 598.72333 
L 423.530941 593.822206 
L 424.506387 591.593386 
L 425.481834 596.349009 
L 426.45728 596.718605 
L 427.432726 595.044529 
L 428.408173 596.217206 
L 429.383619 598.092008 
L 430.359066 593.243312 
L 431.334512 593.320855 
L 432.309958 592.975656 
L 433.285405 597.923278 
L 434.260851 599.092084 
L 435.236297 597.597605 
L 436.211744 592.118089 
L 437.18719 597.490011 
L 438.162636 598.12786 
L 439.138083 597.448418 
L 440.113529 598.805397 
L 441.088975 598.651564 
L 442.064422 596.880467 
L 443.039868 595.369161 
L 444.015314 598.893884 
L 445.966207 597.080891 
L 446.941654 598.019573 
L 447.9171 593.193549 
L 448.892546 597.897273 
L 449.867993 595.8323 
L 450.843439 596.330573 
L 451.818885 595.084855 
L 452.794332 599.024614 
L 453.769778 597.302046 
L 454.745224 595.909716 
L 455.720671 595.143453 
L 456.696117 592.688574 
L 457.671563 596.916638 
L 458.64701 593.266072 
L 459.622456 595.94872 
L 461.573349 597.103583 
L 462.548795 597.119482 
L 463.524242 594.548856 
L 464.499688 594.380537 
L 465.475134 595.637265 
L 466.450581 597.457378 
L 467.426027 593.831605 
L 468.401473 597.927916 
L 469.37692 597.026705 
L 470.352366 597.434718 
L 471.327812 598.648155 
L 472.303259 597.57982 
L 473.278705 598.050841 
L 474.254152 597.705455 
L 475.229598 599.308389 
L 476.205044 599.298881 
L 477.180491 592.408096 
L 478.155937 598.620246 
L 479.131383 598.876822 
L 480.10683 596.83958 
L 481.082276 593.822935 
L 482.057722 596.607645 
L 483.033169 596.78338 
L 484.008615 598.755711 
L 484.984061 596.810662 
L 485.959508 595.403179 
L 486.934954 596.853203 
L 487.9104 597.009756 
L 488.885847 598.975805 
L 489.861293 597.979882 
L 490.83674 598.811901 
L 491.812186 596.355917 
L 492.787632 598.919883 
L 493.763079 598.149802 
L 494.738525 597.889699 
L 496.689418 599.234967 
L 497.664864 598.28046 
L 498.64031 596.921513 
L 499.615757 598.317007 
L 500.591203 597.200094 
L 501.566649 598.527799 
L 502.542096 598.466967 
L 503.517542 598.938487 
L 505.468435 597.22801 
L 506.443881 597.606927 
L 507.419328 595.869902 
L 508.394774 596.236356 
L 509.37022 598.03494 
L 510.345667 598.842707 
L 511.321113 593.12512 
L 512.296559 596.752968 
L 513.272006 598.553573 
L 514.247452 596.821974 
L 515.222898 596.712381 
L 516.198345 598.872562 
L 517.173791 596.486837 
L 518.149238 599.844453 
L 519.124684 591.899205 
L 520.10013 595.009881 
L 521.075577 596.223586 
L 522.051023 599.541107 
L 523.026469 597.054289 
L 524.001916 597.298474 
L 524.977362 599.830525 
L 525.952808 597.248975 
L 526.928255 599.992233 
L 527.903701 598.858801 
L 528.879147 596.400695 
L 529.854594 599.044716 
L 530.83004 597.947952 
L 531.805486 598.706741 
L 532.780933 357.77989 
L 533.756379 358.169072 
L 534.731826 353.916574 
L 535.707272 342.269417 
L 537.658165 303.748483 
L 539.609057 169.663379 
L 540.584504 192.677644 
L 541.55995 321.387602 
L 542.535396 396.194951 
L 543.510843 392.879927 
L 544.486289 381.031765 
L 545.461735 323.200203 
L 546.437182 241.357211 
L 547.412628 353.690608 
L 548.388075 268.246899 
L 549.363521 311.017333 
L 550.338967 318.037276 
L 551.314414 193.513559 
L 552.28986 380.910439 
L 553.265306 457.931458 
L 554.240753 489.063209 
L 555.216199 509.215724 
L 556.191645 513.525727 
L 557.167092 348.205311 
L 558.142538 305.378165 
L 559.117984 517.134122 
L 560.093431 542.279276 
L 561.068877 547.089071 
L 562.044324 566.948118 
L 563.01977 560.909964 
L 563.995216 576.537008 
L 564.970663 580.956164 
L 565.946109 578.054284 
L 566.921555 584.376784 
L 567.897002 572.891709 
L 568.872448 580.860825 
L 569.847894 585.935014 
L 570.823341 587.238731 
L 571.798787 593.567369 
L 572.774233 589.881561 
L 574.725126 589.650149 
L 575.700572 588.94784 
L 576.676019 592.424781 
L 577.651465 592.150873 
L 578.626912 590.598434 
L 579.602358 594.185857 
L 580.577804 592.742581 
L 581.553251 597.51687 
L 582.528697 596.894287 
L 583.504143 599.557546 
L 584.47959 596.092199 
L 585.455036 594.60852 
L 586.430482 596.978539 
L 587.405929 599.035388 
L 588.381375 597.542413 
L 589.356821 342.730189 
L 590.332268 334.112683 
L 591.307714 381.845707 
L 592.283161 369.664235 
L 593.258607 339.385267 
L 594.234053 378.77822 
L 595.2095 472.84464 
L 596.184946 540.978473 
L 597.160392 363.139717 
L 598.135839 569.310304 
L 599.111285 574.59018 
L 600.086731 575.81039 
L 601.062178 579.023309 
L 602.037624 577.485109 
L 603.01307 577.030041 
L 603.988517 570.47104 
L 604.963963 580.904317 
L 606.914856 566.870064 
L 607.890302 561.331825 
L 608.865749 559.70456 
L 609.841195 357.857488 
L 610.816641 357.018759 
L 611.792088 419.223809 
L 612.767534 441.070722 
L 613.74298 409.397052 
L 614.718427 416.298609 
L 615.693873 546.305599 
L 616.669319 541.625228 
L 617.644766 546.523989 
L 618.620212 542.017249 
L 619.595658 543.206107 
L 620.571105 513.752982 
L 621.546551 505.744387 
L 622.521998 462.073847 
L 624.47289 417.082607 
L 625.448337 436.639553 
L 626.423783 402.397552 
L 627.399229 501.340392 
L 628.374676 488.11435 
L 629.350122 596.874257 
L 630.325568 593.016232 
L 631.301015 551.93796 
L 632.276461 243.029634 
L 633.251907 363.960019 
L 634.227354 322.340255 
L 635.2028 292.232921 
L 636.178247 277.409954 
L 637.153693 258.514602 
L 638.129139 207.676325 
L 639.104586 356.66164 
L 640.080032 338.11022 
L 642.030925 212.264445 
L 643.006371 286.69983 
L 643.981817 334.256643 
L 644.957264 410.437207 
L 646.908156 470.758514 
L 647.883603 462.19358 
L 648.859049 412.052918 
L 649.834495 402.607065 
L 650.809942 359.739893 
L 651.785388 331.045588 
L 652.760835 252.672609 
L 653.736281 192.157329 
L 654.711727 350.509831 
L 655.687174 419.000468 
L 656.66262 338.575697 
L 657.638066 315.213992 
L 658.613513 235.292111 
L 659.588959 347.680013 
L 660.564405 408.514106 
L 661.539852 301.751147 
L 662.515298 434.449381 
L 663.490744 443.222724 
L 664.466191 334.197416 
L 665.441637 293.695426 
L 666.417084 384.166749 
L 667.39253 522.046282 
L 668.367976 430.425682 
L 670.318869 108.81 
L 671.294315 499.864415 
L 672.269762 551.435301 
L 673.245208 568.804055 
L 674.220654 580.122673 
L 675.196101 582.479815 
L 676.171547 582.838238 
L 677.146993 592.462141 
L 678.12244 390.313704 
L 679.097886 342.852089 
L 680.073333 465.428777 
L 681.048779 500.516936 
L 682.024225 448.587312 
L 682.999672 428.820862 
L 683.975118 282.895765 
L 684.950564 374.540939 
L 685.926011 247.647312 
L 686.901457 320.711321 
L 687.876903 458.415298 
L 688.85235 489.856854 
L 689.827796 444.431143 
L 690.803242 441.204904 
L 691.778689 477.065111 
L 692.754135 477.126418 
L 693.729581 461.821431 
L 694.705028 465.804539 
L 695.680474 453.135438 
L 696.655921 442.62498 
L 697.631367 417.840361 
L 698.606813 429.262731 
L 699.58226 376.803528 
L 700.557706 380.965388 
L 701.533152 331.407605 
L 702.508599 267.106874 
L 703.484045 166.533258 
L 704.459491 237.431909 
L 705.434938 317.671638 
L 706.410384 340.083684 
L 707.38583 313.611897 
L 708.361277 213.10336 
L 709.336723 454.928035 
L 710.31217 500.925782 
L 711.287616 512.277763 
L 712.263062 516.538289 
L 713.238509 520.044947 
L 714.213955 534.576036 
L 715.189401 546.830957 
L 716.164848 543.646243 
L 719.091187 570.157684 
L 720.066633 573.458776 
L 721.042079 564.804048 
L 722.017526 577.624186 
L 722.992972 576.624035 
L 723.968419 474.292353 
L 724.943865 497.895032 
L 725.919311 498.141584 
L 726.894758 524.900585 
L 727.870204 537.991926 
L 728.84565 519.745063 
L 729.821097 460.42814 
L 730.796543 381.854447 
L 731.771989 371.913621 
L 732.747436 331.519811 
L 733.722882 561.206859 
L 734.698328 592.520998 
L 735.673775 593.027459 
L 736.649221 595.641243 
L 737.624667 593.513589 
L 738.600114 563.453213 
L 739.57556 578.097014 
L 740.551007 577.164883 
L 741.526453 577.940334 
L 742.501899 581.173093 
L 743.477346 580.081565 
L 744.452792 432.289354 
L 745.428238 558.268964 
L 746.403685 562.500515 
L 747.379131 506.772915 
L 748.354577 502.556513 
L 749.330024 446.231579 
L 750.30547 489.756368 
L 751.280916 496.164091 
L 752.256363 505.286068 
L 753.231809 507.369099 
L 754.207256 546.922494 
L 755.182702 533.59412 
L 756.158148 534.539923 
L 757.133595 583.833661 
L 758.109041 560.456752 
L 759.084487 574.456248 
L 760.059934 586.757683 
L 761.03538 576.028612 
L 762.010826 589.976534 
L 762.986273 595.497897 
L 763.961719 594.402629 
L 764.937165 593.58401 
L 765.912612 596.123965 
L 766.888058 596.687194 
L 767.863505 594.892578 
L 769.814397 596.42358 
L 770.789844 591.339364 
L 771.76529 596.890391 
L 772.740736 598.664273 
L 773.716183 449.434308 
L 774.691629 320.245879 
L 775.667075 341.883984 
L 776.642522 289.031372 
L 777.617968 354.436357 
L 778.593414 339.232816 
L 779.568861 289.618571 
L 780.544307 223.88872 
L 781.519753 260.288048 
L 782.4952 169.854552 
L 783.470646 266.657801 
L 784.446093 276.844185 
L 785.421539 280.557754 
L 786.396985 270.471651 
L 787.372432 208.823777 
L 788.347878 351.434823 
L 790.298771 459.709907 
L 791.274217 451.820116 
L 792.249663 391.616406 
L 793.22511 380.171119 
L 794.200556 410.366493 
L 795.176002 499.538576 
L 796.151449 383.026155 
L 797.126895 410.991958 
L 798.102342 342.977821 
L 799.077788 412.829221 
L 800.053234 320.144149 
L 801.028681 421.113181 
L 802.004127 341.809453 
L 802.979573 208.979239 
L 803.95502 202.99851 
L 804.930466 231.365143 
L 805.905912 173.1968 
L 806.881359 156.101641 
L 807.856805 285.087537 
L 808.832251 339.169583 
L 809.807698 343.55081 
L 810.783144 311.558435 
L 811.75859 330.478147 
L 812.734037 291.207922 
L 813.709483 237.283337 
L 814.68493 214.337435 
L 815.660376 511.722042 
L 816.635822 549.254506 
L 817.611269 544.161955 
L 818.586715 560.511317 
L 819.562161 556.568324 
L 820.537608 444.56078 
L 821.513054 508.481779 
L 822.4885 536.454239 
L 823.463947 541.564423 
L 824.439393 556.043744 
L 825.414839 544.508935 
L 826.390286 562.970663 
L 827.365732 573.69312 
L 828.341179 522.823829 
L 829.316625 548.336638 
L 830.292071 534.780636 
L 831.267518 525.38185 
L 832.242964 534.524149 
L 833.21841 529.598705 
L 834.193857 534.423485 
L 835.169303 547.242543 
L 836.144749 549.268649 
L 837.120196 535.459562 
L 838.095642 530.996128 
L 839.071088 519.005813 
L 840.046535 517.605905 
L 841.021981 277.700072 
L 841.997428 303.677062 
L 842.972874 280.687019 
L 843.94832 188.046393 
L 844.923767 244.528003 
L 845.899213 256.027822 
L 846.874659 273.977479 
L 847.850106 216.4649 
L 848.825552 180.161529 
L 849.800998 132.314648 
L 850.776445 263.004718 
L 851.751891 208.149762 
L 852.727337 137.083689 
L 854.67823 204.813531 
L 855.653676 257.457329 
L 856.629123 479.829668 
L 857.604569 487.884895 
L 858.580016 512.975074 
L 859.555462 503.029902 
L 860.530908 487.607264 
L 861.506355 430.377075 
L 862.481801 416.958203 
L 863.457247 382.15782 
L 864.432694 310.396438 
L 865.40814 297.215361 
L 866.383586 308.749917 
L 867.359033 216.211686 
L 868.334479 184.157967 
L 869.309925 245.909424 
L 870.285372 182.995895 
L 871.260818 243.187647 
L 872.236265 284.185469 
L 873.211711 313.448754 
L 874.187157 273.428811 
L 875.162604 186.515717 
L 876.13805 232.553206 
L 877.113496 195.006968 
L 878.088943 268.309594 
L 879.064389 371.534866 
L 880.039835 396.884308 
L 881.015282 401.065505 
L 881.990728 390.549775 
L 882.966174 349.996875 
L 883.941621 273.056282 
L 884.917067 284.455287 
L 885.892514 284.815786 
L 886.86796 267.500487 
L 888.818853 296.10147 
L 889.794299 260.029341 
L 890.769745 321.256535 
L 891.745192 373.228193 
L 892.720638 339.678436 
L 893.696084 293.57335 
L 894.671531 391.814402 
L 895.646977 403.483492 
L 896.622423 353.998977 
L 897.59787 339.072835 
L 898.573316 332.710981 
L 899.548762 349.467728 
L 900.524209 392.30759 
L 901.499655 394.793954 
L 902.475102 385.43664 
L 903.450548 362.844498 
L 904.425994 377.912869 
L 906.376887 361.877631 
L 907.352333 357.617323 
L 908.32778 332.277949 
L 909.303226 521.660669 
L 910.278672 542.55734 
L 911.254119 545.59329 
L 912.229565 537.362018 
L 913.205011 544.073047 
L 914.180458 537.873582 
L 915.155904 470.028355 
L 916.131351 467.440912 
L 917.106797 462.193397 
L 918.082243 539.511583 
L 919.05769 554.938281 
L 920.033136 551.427643 
L 921.008582 550.367635 
L 921.984029 551.12527 
L 922.959475 548.167556 
L 923.934921 555.847395 
L 924.910368 545.363342 
L 925.885814 550.611808 
L 926.86126 535.776394 
L 928.812153 546.136362 
L 929.7876 563.333135 
L 930.763046 565.669772 
L 931.738492 555.252835 
L 932.713939 553.438927 
L 933.689385 556.926471 
L 934.664831 559.064944 
L 935.640278 558.600938 
L 936.615724 557.626769 
L 937.59117 558.084095 
L 938.566617 548.843462 
L 939.542063 548.312925 
L 940.517509 550.116853 
L 941.492956 475.368896 
L 942.468402 496.047211 
L 943.443848 486.435848 
L 944.419295 397.160899 
L 945.394741 400.717808 
L 946.370188 343.487101 
L 947.345634 214.926018 
L 948.32108 463.599845 
L 949.296527 504.467087 
L 950.271973 509.515814 
L 951.247419 517.276457 
L 952.222866 437.578381 
L 953.198312 402.078442 
L 954.173758 423.916643 
L 955.149205 397.293126 
L 956.124651 392.767853 
L 957.100097 351.262337 
L 958.075544 300.279025 
L 959.05099 241.296229 
L 960.026437 391.79467 
L 961.977329 494.994422 
L 962.952776 521.938187 
L 963.928222 544.200582 
L 964.903668 541.159917 
L 965.879115 547.975016 
L 966.854561 563.491473 
L 967.830007 566.121149 
L 968.805454 474.779206 
L 969.7809 489.195754 
L 970.756346 496.228289 
L 971.731793 504.214699 
L 972.707239 503.928855 
L 973.682686 503.792627 
L 974.658132 500.072522 
L 975.633578 496.833855 
L 976.609025 476.283993 
L 977.584471 486.918985 
L 978.559917 464.868779 
L 979.535364 374.787647 
L 980.51081 271.210002 
L 981.486256 550.733406 
L 982.461703 557.563811 
L 983.437149 552.634028 
L 984.412595 548.695421 
L 985.388042 583.562076 
L 986.363488 594.870892 
L 987.338934 595.417212 
L 988.314381 598.550003 
L 989.289827 596.078794 
L 990.265274 595.346168 
L 991.24072 596.987788 
L 992.216166 595.291658 
L 993.191613 597.210726 
L 994.167059 597.320741 
L 995.142505 595.713811 
L 996.117952 598.308198 
L 997.093398 595.636331 
L 998.068844 594.847569 
L 999.044291 595.825024 
L 1000.019737 593.213779 
L 1000.995183 594.766455 
L 1001.97063 590.551975 
L 1002.946076 593.546718 
L 1003.921523 595.691657 
L 1005.872415 597.569936 
L 1006.847862 595.486039 
L 1007.823308 597.081163 
L 1008.798754 597.909573 
L 1009.774201 594.982676 
L 1010.749647 596.177333 
L 1011.725093 596.811457 
L 1012.70054 588.954863 
L 1013.675986 594.592452 
L 1015.626879 589.585767 
L 1016.602325 588.883574 
L 1017.577771 590.169977 
L 1018.553218 586.034803 
L 1019.528664 588.568279 
L 1020.504111 587.255917 
L 1021.479557 592.268297 
L 1022.455003 579.395205 
L 1023.43045 582.059458 
L 1024.405896 589.822614 
L 1025.381342 590.96054 
L 1026.356789 590.16407 
L 1028.307681 577.450784 
L 1029.283128 579.608081 
L 1030.258574 571.153608 
L 1031.23402 565.074471 
L 1032.209467 544.955148 
L 1033.184913 499.453807 
L 1034.16036 417.786285 
L 1035.135806 586.716696 
L 1036.111252 394.494135 
L 1037.086699 570.444346 
L 1038.062145 587.844979 
L 1039.037591 552.815407 
L 1040.013038 567.589454 
L 1040.988484 569.312798 
L 1041.96393 578.293769 
L 1042.939377 582.30601 
L 1043.914823 587.237434 
L 1044.890269 588.284638 
L 1045.865716 586.860083 
L 1046.841162 588.913747 
L 1047.816609 593.272265 
L 1048.792055 591.225709 
L 1049.767501 534.004096 
L 1050.742948 532.925048 
L 1051.718394 553.494766 
L 1052.69384 556.213981 
L 1053.669287 566.470189 
L 1054.644733 559.577618 
L 1055.620179 565.702733 
L 1056.595626 551.782641 
L 1057.571072 569.41157 
L 1058.546518 572.298531 
L 1059.521965 566.226012 
L 1060.497411 569.077989 
L 1061.472857 435.906489 
L 1062.448304 435.406609 
L 1063.42375 545.511588 
L 1064.399197 546.743668 
L 1065.374643 526.476575 
L 1066.350089 498.939096 
L 1067.325536 372.261875 
L 1068.300982 439.94309 
L 1069.276428 357.396111 
L 1070.251875 345.017246 
L 1071.227321 254.108461 
L 1073.178214 303.174605 
L 1074.15366 350.159995 
L 1075.129106 360.794457 
L 1076.104553 397.897969 
L 1077.079999 324.525456 
L 1078.055446 205.519969 
L 1079.030892 274.564177 
L 1080.006338 250.79454 
L 1080.981785 203.242644 
L 1081.957231 292.28254 
L 1082.932677 392.970401 
L 1083.908124 339.062847 
L 1084.88357 328.003853 
L 1085.859016 318.446829 
L 1086.834463 354.483321 
L 1087.809909 533.513775 
L 1088.785355 317.291715 
L 1089.760802 282.324103 
L 1090.736248 373.555281 
L 1091.711695 349.268108 
L 1092.687141 296.047723 
L 1093.662587 294.59809 
L 1094.638034 326.268078 
L 1095.61348 313.07319 
L 1096.588926 374.927708 
L 1097.564373 221.779262 
L 1098.539819 388.910069 
L 1099.515265 439.37735 
L 1100.490712 328.044229 
L 1101.466158 362.290928 
L 1102.441604 503.413098 
L 1103.417051 477.203995 
L 1104.392497 403.571014 
L 1105.367943 288.490874 
L 1106.34339 498.815578 
L 1107.318836 535.030654 
L 1109.269729 543.340113 
L 1110.245175 552.821927 
L 1111.220622 554.804775 
L 1112.196068 543.630553 
L 1113.171514 550.081446 
L 1114.146961 559.123678 
L 1115.122407 559.218727 
L 1116.097853 561.6987 
L 1117.0733 570.882718 
L 1118.048746 555.429684 
L 1119.024192 550.263761 
L 1119.999639 555.710212 
L 1120.975085 552.817975 
L 1121.950532 553.346377 
L 1122.925978 516.944339 
L 1123.901424 508.099094 
L 1124.876871 496.95128 
L 1125.852317 535.89504 
L 1126.827763 535.800443 
L 1127.80321 532.413946 
L 1128.778656 543.281783 
L 1129.754102 535.666558 
L 1130.729549 536.051326 
L 1131.704995 578.623086 
L 1132.680441 584.818753 
L 1134.631334 579.659186 
L 1135.606781 568.452156 
L 1136.582227 552.990343 
L 1137.557673 531.652771 
L 1138.53312 529.758475 
L 1139.508566 505.944765 
L 1140.484012 490.734729 
L 1141.459459 486.212829 
L 1143.410351 541.372233 
L 1144.385798 528.390192 
L 1145.361244 416.523585 
L 1146.33669 393.138451 
L 1147.312137 262.577516 
L 1148.287583 278.963085 
L 1149.263029 222.391901 
L 1150.238476 224.609654 
L 1151.213922 213.396859 
L 1152.189369 372.829969 
L 1153.164815 309.358279 
L 1154.140261 178.981793 
L 1155.115708 312.117323 
L 1156.091154 326.868393 
L 1157.0666 298.886535 
L 1158.042047 320.771087 
L 1159.017493 294.960762 
L 1159.992939 171.195194 
L 1160.968386 135.528636 
L 1161.943832 205.160967 
L 1162.919278 130.766168 
L 1163.894725 123.63248 
L 1164.870171 141.832964 
L 1165.845618 348.642291 
L 1166.821064 415.408509 
L 1167.79651 388.445545 
L 1168.771957 342.143058 
L 1169.747403 199.645126 
L 1170.722849 219.684824 
L 1171.698296 195.726346 
L 1172.673742 200.950562 
L 1173.649188 256.403911 
L 1174.624635 273.470134 
L 1175.600081 247.055208 
L 1176.575527 210.785974 
L 1177.550974 148.134185 
L 1178.52642 203.040934 
L 1179.501867 359.001734 
L 1180.477313 359.933077 
L 1181.452759 293.456621 
L 1182.428206 485.359136 
L 1183.403652 521.44403 
L 1184.379098 518.170574 
L 1185.354545 542.647978 
L 1186.329991 518.150118 
L 1187.305437 507.864608 
L 1188.280884 509.920497 
L 1189.25633 485.704587 
L 1190.231776 473.605064 
L 1191.207223 437.45582 
L 1192.182669 449.823384 
L 1193.158115 475.626001 
L 1194.133562 469.649206 
L 1195.109008 358.923637 
L 1196.084455 376.266122 
L 1196.084455 376.266122 
" style="fill:none;stroke:#2ca02c;stroke-linecap:square;stroke-width:0.5;"/>
   </g>
   <g id="patch_3">
    <path d="M 172.89 624.78 
L 172.89 84.24 
" style="fill:none;stroke:#000000;stroke-linecap:square;stroke-linejoin:miter;stroke-width:0.8;"/>
   </g>
   <g id="patch_4">
    <path d="M 1244.808 624.78 
L 1244.808 84.24 
" style="fill:none;stroke:#000000;stroke-linecap:square;stroke-linejoin:miter;stroke-width:0.8;"/>
   </g>
   <g id="patch_5">
    <path d="M 172.89 624.78 
L 1244.808 624.78 
" style="fill:none;stroke:#000000;stroke-linecap:square;stroke-linejoin:miter;stroke-width:0.8;"/>
   </g>
   <g id="patch_6">
    <path d="M 172.89 84.24 
L 1244.808 84.24 
" style="fill:none;stroke:#000000;stroke-linecap:square;stroke-linejoin:miter;stroke-width:0.8;"/>
   </g>
   <g id="text_12">
    <!-- NIS, 22.7% inside CI -->
    <g transform="translate(648.370875 78.24)scale(0.12 -0.12)">
     <defs>
      <path d="M 628 4666 
L 1478 4666 
L 3547 763 
L 3547 4666 
L 4159 4666 
L 4159 0 
L 3309 0 
L 1241 3903 
L 1241 0 
L 628 0 
L 628 4666 
z
" id="DejaVuSans-4e" transform="scale(0.015625)"/>
      <path d="M 628 4666 
L 1259 4666 
L 1259 0 
L 628 0 
L 628 4666 
z
" id="DejaVuSans-49" transform="scale(0.015625)"/>
      <path d="M 3425 4513 
L 3425 3897 
Q 3066 4069 2747 4153 
Q 2428 4238 2131 4238 
Q 1616 4238 1336 4038 
Q 1056 3838 1056 3469 
Q 1056 3159 1242 3001 
Q 1428 2844 1947 2747 
L 2328 2669 
Q 3034 2534 3370 2195 
Q 3706 1856 3706 1288 
Q 3706 609 3251 259 
Q 2797 -91 1919 -91 
Q 1588 -91 1214 -16 
Q 841 59 441 206 
L 441 856 
Q 825 641 1194 531 
Q 1563 422 1919 422 
Q 2459 422 2753 634 
Q 3047 847 3047 1241 
Q 3047 1584 2836 1778 
Q 2625 1972 2144 2069 
L 1759 2144 
Q 1053 2284 737 2584 
Q 422 2884 422 3419 
Q 422 4038 858 4394 
Q 1294 4750 2059 4750 
Q 2388 4750 2728 4690 
Q 3069 4631 3425 4513 
z
" id="DejaVuSans-53" transform="scale(0.015625)"/>
      <path d="M 750 794 
L 1409 794 
L 1409 256 
L 897 -744 
L 494 -744 
L 750 256 
L 750 794 
z
" id="DejaVuSans-2c" transform="scale(0.015625)"/>
      <path id="DejaVuSans-20" transform="scale(0.015625)"/>
      <path d="M 684 794 
L 1344 794 
L 1344 0 
L 684 0 
L 684 794 
z
" id="DejaVuSans-2e" transform="scale(0.015625)"/>
      <path d="M 525 4666 
L 3525 4666 
L 3525 4397 
L 1831 0 
L 1172 0 
L 2766 4134 
L 525 4134 
L 525 4666 
z
" id="DejaVuSans-37" transform="scale(0.015625)"/>
      <path d="M 4653 2053 
Q 4381 2053 4226 1822 
Q 4072 1591 4072 1178 
Q 4072 772 4226 539 
Q 4381 306 4653 306 
Q 4919 306 5073 539 
Q 5228 772 5228 1178 
Q 5228 1588 5073 1820 
Q 4919 2053 4653 2053 
z
M 4653 2450 
Q 5147 2450 5437 2106 
Q 5728 1763 5728 1178 
Q 5728 594 5436 251 
Q 5144 -91 4653 -91 
Q 4153 -91 3862 251 
Q 3572 594 3572 1178 
Q 3572 1766 3864 2108 
Q 4156 2450 4653 2450 
z
M 1428 4353 
Q 1159 4353 1004 4120 
Q 850 3888 850 3481 
Q 850 3069 1003 2837 
Q 1156 2606 1428 2606 
Q 1700 2606 1854 2837 
Q 2009 3069 2009 3481 
Q 2009 3884 1853 4118 
Q 1697 4353 1428 4353 
z
M 4250 4750 
L 4750 4750 
L 1831 -91 
L 1331 -91 
L 4250 4750 
z
M 1428 4750 
Q 1922 4750 2215 4408 
Q 2509 4066 2509 3481 
Q 2509 2891 2217 2550 
Q 1925 2209 1428 2209 
Q 931 2209 642 2551 
Q 353 2894 353 3481 
Q 353 4063 643 4406 
Q 934 4750 1428 4750 
z
" id="DejaVuSans-25" transform="scale(0.015625)"/>
      <path d="M 603 3500 
L 1178 3500 
L 1178 0 
L 603 0 
L 603 3500 
z
M 603 4863 
L 1178 4863 
L 1178 4134 
L 603 4134 
L 603 4863 
z
" id="DejaVuSans-69" transform="scale(0.015625)"/>
      <path d="M 3513 2113 
L 3513 0 
L 2938 0 
L 2938 2094 
Q 2938 2591 2744 2837 
Q 2550 3084 2163 3084 
Q 1697 3084 1428 2787 
Q 1159 2491 1159 1978 
L 1159 0 
L 581 0 
L 581 3500 
L 1159 3500 
L 1159 2956 
Q 1366 3272 1645 3428 
Q 1925 3584 2291 3584 
Q 2894 3584 3203 3211 
Q 3513 2838 3513 2113 
z
" id="DejaVuSans-6e" transform="scale(0.015625)"/>
      <path d="M 2834 3397 
L 2834 2853 
Q 2591 2978 2328 3040 
Q 2066 3103 1784 3103 
Q 1356 3103 1142 2972 
Q 928 2841 928 2578 
Q 928 2378 1081 2264 
Q 1234 2150 1697 2047 
L 1894 2003 
Q 2506 1872 2764 1633 
Q 3022 1394 3022 966 
Q 3022 478 2636 193 
Q 2250 -91 1575 -91 
Q 1294 -91 989 -36 
Q 684 19 347 128 
L 347 722 
Q 666 556 975 473 
Q 1284 391 1588 391 
Q 1994 391 2212 530 
Q 2431 669 2431 922 
Q 2431 1156 2273 1281 
Q 2116 1406 1581 1522 
L 1381 1569 
Q 847 1681 609 1914 
Q 372 2147 372 2553 
Q 372 3047 722 3315 
Q 1072 3584 1716 3584 
Q 2034 3584 2315 3537 
Q 2597 3491 2834 3397 
z
" id="DejaVuSans-73" transform="scale(0.015625)"/>
      <path d="M 2906 2969 
L 2906 4863 
L 3481 4863 
L 3481 0 
L 2906 0 
L 2906 525 
Q 2725 213 2448 61 
Q 2172 -91 1784 -91 
Q 1150 -91 751 415 
Q 353 922 353 1747 
Q 353 2572 751 3078 
Q 1150 3584 1784 3584 
Q 2172 3584 2448 3432 
Q 2725 3281 2906 2969 
z
M 947 1747 
Q 947 1113 1208 752 
Q 1469 391 1925 391 
Q 2381 391 2643 752 
Q 2906 1113 2906 1747 
Q 2906 2381 2643 2742 
Q 2381 3103 1925 3103 
Q 1469 3103 1208 2742 
Q 947 2381 947 1747 
z
" id="DejaVuSans-64" transform="scale(0.015625)"/>
      <path d="M 3597 1894 
L 3597 1613 
L 953 1613 
Q 991 1019 1311 708 
Q 1631 397 2203 397 
Q 2534 397 2845 478 
Q 3156 559 3463 722 
L 3463 178 
Q 3153 47 2828 -22 
Q 2503 -91 2169 -91 
Q 1331 -91 842 396 
Q 353 884 353 1716 
Q 353 2575 817 3079 
Q 1281 3584 2069 3584 
Q 2775 3584 3186 3129 
Q 3597 2675 3597 1894 
z
M 3022 2063 
Q 3016 2534 2758 2815 
Q 2500 3097 2075 3097 
Q 1594 3097 1305 2825 
Q 1016 2553 972 2059 
L 3022 2063 
z
" id="DejaVuSans-65" transform="scale(0.015625)"/>
      <path d="M 4122 4306 
L 4122 3641 
Q 3803 3938 3442 4084 
Q 3081 4231 2675 4231 
Q 1875 4231 1450 3742 
Q 1025 3253 1025 2328 
Q 1025 1406 1450 917 
Q 1875 428 2675 428 
Q 3081 428 3442 575 
Q 3803 722 4122 1019 
L 4122 359 
Q 3791 134 3420 21 
Q 3050 -91 2638 -91 
Q 1578 -91 968 557 
Q 359 1206 359 2328 
Q 359 3453 968 4101 
Q 1578 4750 2638 4750 
Q 3056 4750 3426 4639 
Q 3797 4528 4122 4306 
z
" id="DejaVuSans-43" transform="scale(0.015625)"/>
     </defs>
     <use xlink:href="#DejaVuSans-4e"/>
     <use x="74.804688" xlink:href="#DejaVuSans-49"/>
     <use x="104.296875" xlink:href="#DejaVuSans-53"/>
     <use x="167.773438" xlink:href="#DejaVuSans-2c"/>
     <use x="199.560547" xlink:href="#DejaVuSans-20"/>
     <use x="231.347656" xlink:href="#DejaVuSans-32"/>
     <use x="294.970703" xlink:href="#DejaVuSans-32"/>
     <use x="358.59375" xlink:href="#DejaVuSans-2e"/>
     <use x="390.380859" xlink:href="#DejaVuSans-37"/>
     <use x="454.003906" xlink:href="#DejaVuSans-25"/>
     <use x="549.023438" xlink:href="#DejaVuSans-20"/>
     <use x="580.810547" xlink:href="#DejaVuSans-69"/>
     <use x="608.59375" xlink:href="#DejaVuSans-6e"/>
     <use x="671.972656" xlink:href="#DejaVuSans-73"/>
     <use x="724.072266" xlink:href="#DejaVuSans-69"/>
     <use x="751.855469" xlink:href="#DejaVuSans-64"/>
     <use x="815.332031" xlink:href="#DejaVuSans-65"/>
     <use x="876.855469" xlink:href="#DejaVuSans-20"/>
     <use x="908.642578" xlink:href="#DejaVuSans-43"/>
     <use x="978.466797" xlink:href="#DejaVuSans-49"/>
    </g>
   </g>
  </g>
 </g>
 <defs>
  <clipPath id="p33321b27b7">
   <rect height="540.54" width="1071.918" x="172.89" y="84.24"/>
  </clipPath>
 </defs>
</svg>
