<?xml version="1.0" encoding="utf-8" standalone="no"?>
<!DOCTYPE svg PUBLIC "-//W3C//DTD SVG 1.1//EN"
  "http://www.w3.org/Graphics/SVG/1.1/DTD/svg11.dtd">
<svg height="704.88pt" version="1.1" viewBox="0 0 1381.68 704.88" width="1381.68pt" xmlns="http://www.w3.org/2000/svg" xmlns:xlink="http://www.w3.org/1999/xlink">
 <metadata>
  <rdf:RDF xmlns:cc="http://creativecommons.org/ns#" xmlns:dc="http://purl.org/dc/elements/1.1/" xmlns:rdf="http://www.w3.org/1999/02/22-rdf-syntax-ns#">
   <cc:Work>
    <dc:type rdf:resource="http://purl.org/dc/dcmitype/StillImage"/>
    <dc:date>2021-11-17T15:29:48.557036</dc:date>
    <dc:format>image/svg+xml</dc:format>
    <dc:creator>
     <cc:Agent>
      <dc:title>Matplotlib v3.4.3, https://matplotlib.org/</dc:title>
     </cc:Agent>
    </dc:creator>
   </cc:Work>
  </rdf:RDF>
 </metadata>
 <defs>
  <style type="text/css">*{stroke-linecap:butt;stroke-linejoin:round;}</style>
 </defs>
 <g id="figure_1">
  <g id="patch_1">
   <path d="M 0 704.88 
L 1381.68 704.88 
L 1381.68 0 
L 0 0 
z
" style="fill:#ffffff;"/>
  </g>
  <g id="axes_1">
   <g id="patch_2">
    <path d="M 135.399157 212.194987 
L 1352.072571 212.194987 
L 1352.072571 52.63104 
L 135.399157 52.63104 
z
" style="fill:#ffffff;"/>
   </g>
   <g id="matplotlib.axis_1">
    <g id="xtick_1">
     <g id="line2d_1">
      <path clip-path="url(#pccf54cbab6)" d="M 190.702494 212.194987 
L 190.702494 52.63104 
" style="fill:none;stroke:#000000;stroke-dasharray:0.5,0.825;stroke-dashoffset:0;stroke-opacity:0.5;stroke-width:0.5;"/>
     </g>
     <g id="line2d_2">
      <defs>
       <path d="M 0 0 
L 0 3.5 
" id="mb03f2b13c8" style="stroke:#000000;stroke-width:0.8;"/>
      </defs>
      <g>
       <use style="stroke:#000000;stroke-width:0.8;" x="190.702494" xlink:href="#mb03f2b13c8" y="212.194987"/>
      </g>
     </g>
    </g>
    <g id="xtick_2">
     <g id="line2d_3">
      <path clip-path="url(#pccf54cbab6)" d="M 412.137277 212.194987 
L 412.137277 52.63104 
" style="fill:none;stroke:#000000;stroke-dasharray:0.5,0.825;stroke-dashoffset:0;stroke-opacity:0.5;stroke-width:0.5;"/>
     </g>
     <g id="line2d_4">
      <g>
       <use style="stroke:#000000;stroke-width:0.8;" x="412.137277" xlink:href="#mb03f2b13c8" y="212.194987"/>
      </g>
     </g>
    </g>
    <g id="xtick_3">
     <g id="line2d_5">
      <path clip-path="url(#pccf54cbab6)" d="M 633.57206 212.194987 
L 633.57206 52.63104 
" style="fill:none;stroke:#000000;stroke-dasharray:0.5,0.825;stroke-dashoffset:0;stroke-opacity:0.5;stroke-width:0.5;"/>
     </g>
     <g id="line2d_6">
      <g>
       <use style="stroke:#000000;stroke-width:0.8;" x="633.57206" xlink:href="#mb03f2b13c8" y="212.194987"/>
      </g>
     </g>
    </g>
    <g id="xtick_4">
     <g id="line2d_7">
      <path clip-path="url(#pccf54cbab6)" d="M 855.006843 212.194987 
L 855.006843 52.63104 
" style="fill:none;stroke:#000000;stroke-dasharray:0.5,0.825;stroke-dashoffset:0;stroke-opacity:0.5;stroke-width:0.5;"/>
     </g>
     <g id="line2d_8">
      <g>
       <use style="stroke:#000000;stroke-width:0.8;" x="855.006843" xlink:href="#mb03f2b13c8" y="212.194987"/>
      </g>
     </g>
    </g>
    <g id="xtick_5">
     <g id="line2d_9">
      <path clip-path="url(#pccf54cbab6)" d="M 1076.441625 212.194987 
L 1076.441625 52.63104 
" style="fill:none;stroke:#000000;stroke-dasharray:0.5,0.825;stroke-dashoffset:0;stroke-opacity:0.5;stroke-width:0.5;"/>
     </g>
     <g id="line2d_10">
      <g>
       <use style="stroke:#000000;stroke-width:0.8;" x="1076.441625" xlink:href="#mb03f2b13c8" y="212.194987"/>
      </g>
     </g>
    </g>
    <g id="xtick_6">
     <g id="line2d_11">
      <path clip-path="url(#pccf54cbab6)" d="M 1297.876408 212.194987 
L 1297.876408 52.63104 
" style="fill:none;stroke:#000000;stroke-dasharray:0.5,0.825;stroke-dashoffset:0;stroke-opacity:0.5;stroke-width:0.5;"/>
     </g>
     <g id="line2d_12">
      <g>
       <use style="stroke:#000000;stroke-width:0.8;" x="1297.876408" xlink:href="#mb03f2b13c8" y="212.194987"/>
      </g>
     </g>
    </g>
   </g>
   <g id="matplotlib.axis_2">
    <g id="ytick_1">
     <g id="line2d_13">
      <path clip-path="url(#pccf54cbab6)" d="M 135.399157 204.94208 
L 1352.072571 204.94208 
" style="fill:none;stroke:#000000;stroke-dasharray:0.5,0.825;stroke-dashoffset:0;stroke-opacity:0.5;stroke-width:0.5;"/>
     </g>
     <g id="line2d_14">
      <defs>
       <path d="M 0 0 
L -3.5 0 
" id="mdfbe74ce89" style="stroke:#000000;stroke-width:0.8;"/>
      </defs>
      <g>
       <use style="stroke:#000000;stroke-width:0.8;" x="135.399157" xlink:href="#mdfbe74ce89" y="204.94208"/>
      </g>
     </g>
     <g id="text_1">
      <!-- 0 -->
      <g transform="translate(122.036657 208.741299)scale(0.1 -0.1)">
       <defs>
        <path d="M 2034 4250 
Q 1547 4250 1301 3770 
Q 1056 3291 1056 2328 
Q 1056 1369 1301 889 
Q 1547 409 2034 409 
Q 2525 409 2770 889 
Q 3016 1369 3016 2328 
Q 3016 3291 2770 3770 
Q 2525 4250 2034 4250 
z
M 2034 4750 
Q 2819 4750 3233 4129 
Q 3647 3509 3647 2328 
Q 3647 1150 3233 529 
Q 2819 -91 2034 -91 
Q 1250 -91 836 529 
Q 422 1150 422 2328 
Q 422 3509 836 4129 
Q 1250 4750 2034 4750 
z
" id="DejaVuSans-30" transform="scale(0.015625)"/>
       </defs>
       <use xlink:href="#DejaVuSans-30"/>
      </g>
     </g>
    </g>
    <g id="ytick_2">
     <g id="line2d_15">
      <path clip-path="url(#pccf54cbab6)" d="M 135.399157 180.516013 
L 1352.072571 180.516013 
" style="fill:none;stroke:#000000;stroke-dasharray:0.5,0.825;stroke-dashoffset:0;stroke-opacity:0.5;stroke-width:0.5;"/>
     </g>
     <g id="line2d_16">
      <g>
       <use style="stroke:#000000;stroke-width:0.8;" x="135.399157" xlink:href="#mdfbe74ce89" y="180.516013"/>
      </g>
     </g>
     <g id="text_2">
      <!-- 2500 -->
      <g transform="translate(102.949157 184.315232)scale(0.1 -0.1)">
       <defs>
        <path d="M 1228 531 
L 3431 531 
L 3431 0 
L 469 0 
L 469 531 
Q 828 903 1448 1529 
Q 2069 2156 2228 2338 
Q 2531 2678 2651 2914 
Q 2772 3150 2772 3378 
Q 2772 3750 2511 3984 
Q 2250 4219 1831 4219 
Q 1534 4219 1204 4116 
Q 875 4013 500 3803 
L 500 4441 
Q 881 4594 1212 4672 
Q 1544 4750 1819 4750 
Q 2544 4750 2975 4387 
Q 3406 4025 3406 3419 
Q 3406 3131 3298 2873 
Q 3191 2616 2906 2266 
Q 2828 2175 2409 1742 
Q 1991 1309 1228 531 
z
" id="DejaVuSans-32" transform="scale(0.015625)"/>
        <path d="M 691 4666 
L 3169 4666 
L 3169 4134 
L 1269 4134 
L 1269 2991 
Q 1406 3038 1543 3061 
Q 1681 3084 1819 3084 
Q 2600 3084 3056 2656 
Q 3513 2228 3513 1497 
Q 3513 744 3044 326 
Q 2575 -91 1722 -91 
Q 1428 -91 1123 -41 
Q 819 9 494 109 
L 494 744 
Q 775 591 1075 516 
Q 1375 441 1709 441 
Q 2250 441 2565 725 
Q 2881 1009 2881 1497 
Q 2881 1984 2565 2268 
Q 2250 2553 1709 2553 
Q 1456 2553 1204 2497 
Q 953 2441 691 2322 
L 691 4666 
z
" id="DejaVuSans-35" transform="scale(0.015625)"/>
       </defs>
       <use xlink:href="#DejaVuSans-32"/>
       <use x="63.623047" xlink:href="#DejaVuSans-35"/>
       <use x="127.246094" xlink:href="#DejaVuSans-30"/>
       <use x="190.869141" xlink:href="#DejaVuSans-30"/>
      </g>
     </g>
    </g>
    <g id="ytick_3">
     <g id="line2d_17">
      <path clip-path="url(#pccf54cbab6)" d="M 135.399157 156.089946 
L 1352.072571 156.089946 
" style="fill:none;stroke:#000000;stroke-dasharray:0.5,0.825;stroke-dashoffset:0;stroke-opacity:0.5;stroke-width:0.5;"/>
     </g>
     <g id="line2d_18">
      <g>
       <use style="stroke:#000000;stroke-width:0.8;" x="135.399157" xlink:href="#mdfbe74ce89" y="156.089946"/>
      </g>
     </g>
     <g id="text_3">
      <!-- 5000 -->
      <g transform="translate(102.949157 159.889165)scale(0.1 -0.1)">
       <use xlink:href="#DejaVuSans-35"/>
       <use x="63.623047" xlink:href="#DejaVuSans-30"/>
       <use x="127.246094" xlink:href="#DejaVuSans-30"/>
       <use x="190.869141" xlink:href="#DejaVuSans-30"/>
      </g>
     </g>
    </g>
    <g id="ytick_4">
     <g id="line2d_19">
      <path clip-path="url(#pccf54cbab6)" d="M 135.399157 131.663879 
L 1352.072571 131.663879 
" style="fill:none;stroke:#000000;stroke-dasharray:0.5,0.825;stroke-dashoffset:0;stroke-opacity:0.5;stroke-width:0.5;"/>
     </g>
     <g id="line2d_20">
      <g>
       <use style="stroke:#000000;stroke-width:0.8;" x="135.399157" xlink:href="#mdfbe74ce89" y="131.663879"/>
      </g>
     </g>
     <g id="text_4">
      <!-- 7500 -->
      <g transform="translate(102.949157 135.463098)scale(0.1 -0.1)">
       <defs>
        <path d="M 525 4666 
L 3525 4666 
L 3525 4397 
L 1831 0 
L 1172 0 
L 2766 4134 
L 525 4134 
L 525 4666 
z
" id="DejaVuSans-37" transform="scale(0.015625)"/>
       </defs>
       <use xlink:href="#DejaVuSans-37"/>
       <use x="63.623047" xlink:href="#DejaVuSans-35"/>
       <use x="127.246094" xlink:href="#DejaVuSans-30"/>
       <use x="190.869141" xlink:href="#DejaVuSans-30"/>
      </g>
     </g>
    </g>
    <g id="ytick_5">
     <g id="line2d_21">
      <path clip-path="url(#pccf54cbab6)" d="M 135.399157 107.237812 
L 1352.072571 107.237812 
" style="fill:none;stroke:#000000;stroke-dasharray:0.5,0.825;stroke-dashoffset:0;stroke-opacity:0.5;stroke-width:0.5;"/>
     </g>
     <g id="line2d_22">
      <g>
       <use style="stroke:#000000;stroke-width:0.8;" x="135.399157" xlink:href="#mdfbe74ce89" y="107.237812"/>
      </g>
     </g>
     <g id="text_5">
      <!-- 10000 -->
      <g transform="translate(96.586657 111.037031)scale(0.1 -0.1)">
       <defs>
        <path d="M 794 531 
L 1825 531 
L 1825 4091 
L 703 3866 
L 703 4441 
L 1819 4666 
L 2450 4666 
L 2450 531 
L 3481 531 
L 3481 0 
L 794 0 
L 794 531 
z
" id="DejaVuSans-31" transform="scale(0.015625)"/>
       </defs>
       <use xlink:href="#DejaVuSans-31"/>
       <use x="63.623047" xlink:href="#DejaVuSans-30"/>
       <use x="127.246094" xlink:href="#DejaVuSans-30"/>
       <use x="190.869141" xlink:href="#DejaVuSans-30"/>
       <use x="254.492188" xlink:href="#DejaVuSans-30"/>
      </g>
     </g>
    </g>
    <g id="ytick_6">
     <g id="line2d_23">
      <path clip-path="url(#pccf54cbab6)" d="M 135.399157 82.811745 
L 1352.072571 82.811745 
" style="fill:none;stroke:#000000;stroke-dasharray:0.5,0.825;stroke-dashoffset:0;stroke-opacity:0.5;stroke-width:0.5;"/>
     </g>
     <g id="line2d_24">
      <g>
       <use style="stroke:#000000;stroke-width:0.8;" x="135.399157" xlink:href="#mdfbe74ce89" y="82.811745"/>
      </g>
     </g>
     <g id="text_6">
      <!-- 12500 -->
      <g transform="translate(96.586657 86.610964)scale(0.1 -0.1)">
       <use xlink:href="#DejaVuSans-31"/>
       <use x="63.623047" xlink:href="#DejaVuSans-32"/>
       <use x="127.246094" xlink:href="#DejaVuSans-35"/>
       <use x="190.869141" xlink:href="#DejaVuSans-30"/>
       <use x="254.492188" xlink:href="#DejaVuSans-30"/>
      </g>
     </g>
    </g>
    <g id="ytick_7">
     <g id="line2d_25">
      <path clip-path="url(#pccf54cbab6)" d="M 135.399157 58.385679 
L 1352.072571 58.385679 
" style="fill:none;stroke:#000000;stroke-dasharray:0.5,0.825;stroke-dashoffset:0;stroke-opacity:0.5;stroke-width:0.5;"/>
     </g>
     <g id="line2d_26">
      <g>
       <use style="stroke:#000000;stroke-width:0.8;" x="135.399157" xlink:href="#mdfbe74ce89" y="58.385679"/>
      </g>
     </g>
     <g id="text_7">
      <!-- 15000 -->
      <g transform="translate(96.586657 62.184897)scale(0.1 -0.1)">
       <use xlink:href="#DejaVuSans-31"/>
       <use x="63.623047" xlink:href="#DejaVuSans-35"/>
       <use x="127.246094" xlink:href="#DejaVuSans-30"/>
       <use x="190.869141" xlink:href="#DejaVuSans-30"/>
       <use x="254.492188" xlink:href="#DejaVuSans-30"/>
      </g>
     </g>
    </g>
   </g>
   <g id="line2d_27">
    <path clip-path="url(#pccf54cbab6)" d="M 190.702494 204.939972 
L 1296.769234 204.939972 
L 1296.769234 204.939972 
" style="fill:none;stroke:#1f77b4;stroke-dasharray:5.55,2.4;stroke-dashoffset:0;stroke-width:1.5;"/>
   </g>
   <g id="line2d_28">
    <path clip-path="url(#pccf54cbab6)" d="M 190.702494 204.850742 
L 1296.769234 204.850742 
L 1296.769234 204.850742 
" style="fill:none;stroke:#ff7f0e;stroke-dasharray:5.55,2.4;stroke-dashoffset:0;stroke-width:1.5;"/>
   </g>
   <g id="line2d_29">
    <path clip-path="url(#pccf54cbab6)" d="M 190.702494 204.94208 
L 278.169233 204.796703 
L 280.383581 204.60588 
L 282.597929 204.161951 
L 284.812277 204.289388 
L 287.026625 204.097602 
L 289.240973 203.869095 
L 292.562494 204.025246 
L 295.884016 204.021316 
L 298.098364 203.96541 
L 301.419886 203.381192 
L 303.634233 203.532462 
L 308.062929 203.337607 
L 318.027494 203.06646 
L 321.349016 203.041884 
L 324.670538 203.189904 
L 332.420755 203.383621 
L 335.742277 203.495583 
L 340.170973 203.486138 
L 363.421625 203.516229 
L 374.493364 203.611928 
L 376.707712 203.624674 
L 382.243581 203.679901 
L 397.744016 203.880746 
L 399.958364 203.826762 
L 404.38706 203.880845 
L 406.601407 203.968683 
L 422.101842 204.299006 
L 426.530538 204.376309 
L 435.387929 204.547307 
L 437.602277 204.549298 
L 450.888364 204.689384 
L 459.745755 204.553505 
L 471.924668 204.073381 
L 484.103581 203.486822 
L 486.317929 203.321818 
L 491.853799 203.247446 
L 495.175321 202.970519 
L 499.604016 202.815462 
L 501.818364 202.661316 
L 505.139886 202.537033 
L 513.997277 202.229151 
L 528.390538 202.440034 
L 543.890973 202.515252 
L 544.998147 202.593189 
L 546.105321 202.504835 
L 548.319668 201.717418 
L 549.426842 201.677482 
L 550.534016 201.253608 
L 551.64119 200.622051 
L 552.748364 200.533775 
L 554.962712 200.537634 
L 556.069886 200.285322 
L 558.284234 199.581867 
L 559.391408 199.243252 
L 561.605755 199.082254 
L 562.712929 199.289459 
L 563.820103 199.237164 
L 564.927277 199.028781 
L 566.034451 199.27372 
L 568.248799 199.400456 
L 569.355973 199.221537 
L 571.570321 198.466943 
L 572.677495 198.037625 
L 573.784668 197.845004 
L 578.213364 196.367732 
L 579.320538 196.127419 
L 584.856408 194.368727 
L 585.963582 194.288034 
L 587.070755 194.091002 
L 588.177929 194.12105 
L 590.392277 193.464947 
L 591.499451 193.418505 
L 592.606625 192.999077 
L 593.713799 192.699822 
L 595.928147 192.485709 
L 597.035321 192.180408 
L 599.249668 191.085382 
L 605.892712 187.980042 
L 606.999886 187.251602 
L 608.10706 183.025585 
L 609.214234 181.617467 
L 610.321408 182.249815 
L 611.428582 180.332288 
L 612.535755 179.053285 
L 613.642929 176.982071 
L 614.750103 176.717204 
L 615.857277 176.244971 
L 616.964451 173.521514 
L 618.071625 174.313551 
L 619.178799 173.854741 
L 623.607495 169.714986 
L 625.821842 168.019207 
L 626.929016 167.716774 
L 629.143364 165.721798 
L 630.250538 165.662668 
L 631.357712 162.001154 
L 632.464886 160.099416 
L 633.57206 158.70154 
L 635.786408 156.526039 
L 636.893582 155.046113 
L 638.000755 153.294976 
L 639.107929 151.158907 
L 641.322277 147.892953 
L 642.429451 145.601954 
L 643.536625 144.774987 
L 644.643799 142.295033 
L 645.750973 141.533513 
L 646.858147 139.540049 
L 647.965321 136.498346 
L 649.072495 136.324373 
L 650.179669 131.666207 
L 651.286842 131.227759 
L 652.394016 131.300902 
L 653.50119 132.238607 
L 654.608364 132.991189 
L 655.715538 134.176336 
L 656.822712 121.212886 
L 657.929886 115.48469 
L 659.03706 112.823391 
L 661.251408 111.446365 
L 662.358582 111.598597 
L 663.465756 106.296932 
L 664.572929 109.173661 
L 665.680103 108.863261 
L 667.894451 111.929474 
L 669.001625 115.084202 
L 670.108799 114.855569 
L 671.215973 115.983467 
L 672.323147 114.744534 
L 673.430321 114.740955 
L 674.537495 114.615382 
L 675.644669 114.657663 
L 676.751842 117.19575 
L 677.859016 118.701925 
L 678.96619 113.020309 
L 680.073364 112.203269 
L 681.180538 113.603444 
L 682.287712 117.857572 
L 683.394886 116.489324 
L 684.50206 117.414033 
L 685.609234 115.983492 
L 686.716408 115.387296 
L 687.823582 115.417027 
L 688.930756 111.247991 
L 691.145103 109.836991 
L 692.252277 106.002675 
L 693.359451 105.407367 
L 694.466625 109.941185 
L 695.573799 115.862348 
L 696.680973 117.259655 
L 697.788147 121.165996 
L 698.895321 123.625243 
L 700.002495 125.777375 
L 701.109669 128.405428 
L 702.216843 128.950805 
L 703.324016 128.659156 
L 704.43119 128.658058 
L 705.538364 127.480884 
L 706.645538 127.372316 
L 707.752712 129.74458 
L 708.859886 130.028973 
L 711.074234 126.899229 
L 712.181408 126.007192 
L 713.288582 122.587864 
L 714.395756 121.80314 
L 715.502929 117.263226 
L 716.610103 116.684113 
L 717.717277 115.92545 
L 719.931625 124.674679 
L 722.145973 128.755616 
L 723.253147 130.405286 
L 724.360321 130.671709 
L 725.467495 130.423151 
L 727.681843 127.521396 
L 728.789016 125.565673 
L 729.89619 123.32895 
L 732.110538 120.909775 
L 734.324886 118.630247 
L 735.43206 117.966327 
L 737.646408 121.492046 
L 738.753582 105.803383 
L 739.860756 98.238417 
L 740.96793 95.027254 
L 742.075103 92.966836 
L 743.182277 92.607967 
L 744.289451 93.434623 
L 745.396625 92.741623 
L 747.610973 92.657383 
L 748.718147 93.57432 
L 749.825321 94.092855 
L 750.932495 94.874327 
L 752.039669 94.900597 
L 753.146843 95.306036 
L 754.254016 94.753063 
L 755.36119 95.270278 
L 756.468364 96.188432 
L 757.575538 97.581142 
L 758.682712 101.188145 
L 759.789886 102.842593 
L 760.89706 103.318651 
L 762.004234 104.730491 
L 763.111408 105.775768 
L 764.218582 99.292685 
L 765.325756 96.812425 
L 767.540103 93.198976 
L 768.647277 90.656127 
L 769.754451 93.651371 
L 770.861625 95.23202 
L 771.968799 99.136824 
L 773.075973 101.999949 
L 775.290321 106.750078 
L 776.397495 108.672856 
L 777.504669 109.725229 
L 778.611843 112.795807 
L 779.719016 114.379214 
L 780.82619 115.271704 
L 781.933364 116.4012 
L 783.040538 116.950276 
L 784.147712 107.541001 
L 785.254886 113.24527 
L 787.469234 117.08851 
L 788.576408 121.485293 
L 789.683582 124.986384 
L 790.790756 126.612879 
L 791.89793 131.421156 
L 793.005103 134.69875 
L 794.112277 139.762897 
L 795.219451 139.792893 
L 796.326625 140.792217 
L 797.433799 143.733229 
L 798.540973 147.405462 
L 799.648147 145.711914 
L 800.755321 146.106695 
L 801.862495 150.541474 
L 802.969669 150.422178 
L 804.076843 154.143683 
L 805.184017 155.718102 
L 806.29119 157.052717 
L 807.398364 157.762738 
L 808.505538 160.049162 
L 809.612712 160.871749 
L 810.719886 161.871099 
L 811.82706 164.479861 
L 812.934234 165.82581 
L 814.041408 166.730222 
L 815.148582 167.307127 
L 816.255756 169.107417 
L 817.36293 164.405007 
L 818.470103 163.372071 
L 819.577277 164.424777 
L 820.684451 162.420669 
L 821.791625 163.97492 
L 822.898799 166.246433 
L 824.005973 168.122975 
L 825.113147 171.187876 
L 826.220321 174.665029 
L 827.327495 177.698295 
L 828.434669 179.363836 
L 830.649017 182.057623 
L 832.863364 184.193537 
L 833.970538 185.362978 
L 835.077712 185.502203 
L 836.184886 186.142939 
L 837.29206 187.288928 
L 838.399234 188.008959 
L 839.506408 189.218841 
L 840.613582 190.249767 
L 842.82793 191.424703 
L 843.935104 191.32426 
L 845.042277 190.71325 
L 846.149451 190.492185 
L 847.256625 189.68088 
L 848.363799 190.095145 
L 849.470973 190.654434 
L 851.685321 190.842832 
L 853.899669 189.374902 
L 855.006843 188.056227 
L 856.114017 187.636507 
L 858.328364 184.635857 
L 859.435538 183.757452 
L 860.542712 181.883593 
L 861.649886 180.233752 
L 862.75706 179.002468 
L 863.864234 178.005185 
L 864.971408 178.853181 
L 866.078582 178.844241 
L 867.185756 177.451938 
L 868.29293 176.925815 
L 869.400104 176.041684 
L 871.614451 173.981003 
L 872.721625 172.591425 
L 876.043147 172.346986 
L 877.150321 171.969007 
L 878.257495 172.03789 
L 879.364669 169.676182 
L 880.471843 168.5615 
L 881.579017 168.476735 
L 882.686191 166.300323 
L 883.793364 166.595168 
L 884.900538 166.031677 
L 886.007712 165.087585 
L 887.114886 165.705911 
L 888.22206 165.486027 
L 889.329234 165.966023 
L 892.650756 165.671932 
L 893.75793 163.696888 
L 894.865104 163.163609 
L 895.972277 162.998278 
L 897.079451 155.770497 
L 898.186625 152.198291 
L 899.293799 150.53917 
L 900.400973 148.468298 
L 901.508147 147.518556 
L 902.615321 146.73156 
L 904.829669 150.302064 
L 905.936843 151.586534 
L 907.044017 154.949012 
L 910.365538 159.514466 
L 911.472712 163.200512 
L 912.579886 161.706362 
L 913.68706 162.388204 
L 914.794234 163.82031 
L 915.901408 166.077185 
L 917.008582 167.855235 
L 918.115756 168.965699 
L 920.330104 172.133289 
L 921.437278 172.942039 
L 922.544451 173.412325 
L 923.651625 174.040445 
L 924.758799 174.162453 
L 925.865973 175.746123 
L 926.973147 176.736349 
L 928.080321 178.444133 
L 929.187495 179.639958 
L 931.401843 181.649233 
L 932.509017 181.36285 
L 933.616191 181.447094 
L 934.723364 182.630787 
L 936.937712 183.775406 
L 938.044886 184.168799 
L 940.259234 186.115532 
L 941.366408 186.342445 
L 942.473582 186.415435 
L 943.580756 186.272405 
L 944.68793 186.388724 
L 945.795104 185.896874 
L 946.902278 184.886506 
L 948.009451 184.048452 
L 949.116625 183.053126 
L 950.223799 183.3095 
L 953.545321 182.707993 
L 954.652495 183.241454 
L 955.759669 183.594569 
L 956.866843 183.523157 
L 959.081191 184.703328 
L 961.295538 184.413484 
L 963.509886 184.071204 
L 964.61706 183.941905 
L 965.724234 183.925041 
L 967.938582 182.773391 
L 969.045756 182.541783 
L 970.15293 182.457695 
L 972.367278 182.669149 
L 976.795973 182.914901 
L 979.010321 182.694385 
L 980.117495 182.236229 
L 981.224669 182.931553 
L 983.439017 183.689819 
L 985.653365 184.137353 
L 986.760538 184.778192 
L 988.974886 185.60693 
L 990.08206 186.63404 
L 991.189234 186.533998 
L 994.510756 186.841637 
L 996.725104 187.214812 
L 997.832278 187.2884 
L 1000.046625 187.18345 
L 1003.368147 187.784039 
L 1004.475321 187.849628 
L 1006.689669 188.327661 
L 1008.904017 188.962123 
L 1011.118365 189.420436 
L 1012.225538 189.381699 
L 1013.332712 189.618534 
L 1014.439886 190.539458 
L 1015.54706 191.134967 
L 1016.654234 191.396667 
L 1018.868582 191.652957 
L 1023.297278 192.632375 
L 1024.404452 192.779833 
L 1026.618799 193.291282 
L 1027.725973 194.204467 
L 1029.940321 194.779431 
L 1035.476191 194.860633 
L 1037.690538 194.907368 
L 1038.797712 193.950845 
L 1039.904886 193.530734 
L 1041.01206 193.345411 
L 1042.119234 193.002745 
L 1044.333582 192.840115 
L 1045.440756 192.881918 
L 1046.54793 193.115548 
L 1047.655104 193.631508 
L 1052.083799 196.636069 
L 1053.190973 196.998694 
L 1054.298147 197.146548 
L 1055.405321 197.776916 
L 1056.512495 198.108185 
L 1057.619669 198.923084 
L 1059.834017 199.931993 
L 1063.155539 200.856049 
L 1066.47706 201.704088 
L 1067.584234 202.118533 
L 1069.798582 202.59818 
L 1072.01293 203.034328 
L 1073.120104 203.339635 
L 1080.870321 204.490647 
L 1085.299017 204.822936 
L 1088.620539 204.834759 
L 1091.94206 204.683435 
L 1097.47793 204.10945 
L 1100.799452 203.427673 
L 1104.120973 202.683368 
L 1105.228147 202.628569 
L 1106.335321 202.347677 
L 1107.442495 202.211718 
L 1109.656843 201.528769 
L 1111.871191 201.15341 
L 1114.085539 199.41686 
L 1115.192712 198.408379 
L 1118.514234 197.142718 
L 1119.621408 196.98325 
L 1122.94293 196.915079 
L 1124.050104 196.689193 
L 1125.157278 196.733172 
L 1126.264452 196.611228 
L 1128.478799 196.562776 
L 1129.585973 196.220982 
L 1130.693147 195.403575 
L 1131.800321 193.954451 
L 1134.014669 192.560108 
L 1135.121843 191.925492 
L 1136.229017 192.113572 
L 1137.336191 191.492374 
L 1138.443365 191.223112 
L 1140.657713 190.27221 
L 1141.764886 189.892008 
L 1142.87206 189.275924 
L 1143.979234 189.017166 
L 1145.086408 188.917049 
L 1146.193582 188.169646 
L 1147.300756 187.699899 
L 1148.40793 187.447035 
L 1149.515104 186.605567 
L 1150.622278 185.195107 
L 1151.729452 183.123058 
L 1152.836626 181.922385 
L 1153.943799 181.908012 
L 1155.050973 182.510578 
L 1156.158147 182.805049 
L 1158.372495 184.361197 
L 1159.479669 185.487298 
L 1160.586843 185.558746 
L 1161.694017 186.842457 
L 1167.229886 187.106853 
L 1168.33706 186.441804 
L 1169.444234 186.40288 
L 1170.551408 185.857048 
L 1171.658582 184.769622 
L 1172.765756 185.315374 
L 1173.87293 185.656666 
L 1174.980104 183.145599 
L 1177.194452 180.02844 
L 1178.301626 179.745883 
L 1179.4088 179.764133 
L 1181.623147 179.066351 
L 1182.730321 178.896627 
L 1184.944669 177.874861 
L 1187.159017 176.456624 
L 1188.266191 176.151563 
L 1189.373365 177.102163 
L 1190.480539 177.346424 
L 1193.80206 177.291 
L 1196.016408 178.710936 
L 1197.123582 179.204737 
L 1198.230756 179.987095 
L 1199.33793 180.955399 
L 1200.445104 181.393849 
L 1202.659452 182.648482 
L 1204.8738 183.371206 
L 1205.980973 184.301185 
L 1207.088147 184.992946 
L 1208.195321 185.483815 
L 1210.409669 187.21498 
L 1212.624017 187.645939 
L 1214.838365 188.459874 
L 1215.945539 188.745518 
L 1217.052713 189.200752 
L 1218.159887 189.433378 
L 1219.26706 190.042935 
L 1220.374234 190.398647 
L 1222.588582 191.560538 
L 1223.695756 191.96266 
L 1227.017278 192.49945 
L 1228.124452 192.452322 
L 1230.3388 193.250175 
L 1231.445973 193.279799 
L 1233.660321 192.571074 
L 1234.767495 192.376852 
L 1235.874669 192.678609 
L 1236.981843 191.598907 
L 1238.089017 191.123425 
L 1239.196191 189.985662 
L 1241.410539 185.65252 
L 1242.517713 184.250046 
L 1243.624887 185.508315 
L 1244.73206 186.150175 
L 1245.839234 185.949757 
L 1246.946408 186.364919 
L 1248.053582 186.255561 
L 1249.160756 186.450549 
L 1250.26793 186.847642 
L 1251.375104 187.100587 
L 1252.482278 187.640501 
L 1254.696626 189.924775 
L 1255.8038 190.797783 
L 1256.910974 190.879831 
L 1258.018147 191.226862 
L 1259.125321 191.807319 
L 1260.232495 189.047931 
L 1261.339669 187.175889 
L 1262.446843 186.822414 
L 1263.554017 186.19285 
L 1264.661191 185.770862 
L 1265.768365 185.614318 
L 1266.875539 185.705707 
L 1267.982713 186.920472 
L 1269.089887 187.241585 
L 1270.19706 187.046127 
L 1271.304234 187.447604 
L 1272.411408 188.178036 
L 1273.518582 187.74953 
L 1274.625756 185.815763 
L 1275.73293 182.956162 
L 1276.840104 181.534883 
L 1277.947278 179.519197 
L 1279.054452 177.942866 
L 1280.161626 174.136776 
L 1281.2688 175.353871 
L 1282.375974 175.544511 
L 1284.590321 171.29107 
L 1285.697495 167.921352 
L 1286.804669 158.882107 
L 1287.911843 154.103876 
L 1289.019017 144.593897 
L 1290.126191 136.530693 
L 1291.233365 129.413403 
L 1293.447713 117.511043 
L 1294.554887 119.673093 
L 1295.662061 111.395771 
L 1296.769234 59.883947 
L 1296.769234 59.883947 
" style="fill:none;stroke:#2ca02c;stroke-linecap:square;stroke-width:0.5;"/>
   </g>
   <g id="patch_3">
    <path d="M 135.399157 212.194987 
L 135.399157 52.63104 
" style="fill:none;stroke:#000000;stroke-linecap:square;stroke-linejoin:miter;stroke-width:0.8;"/>
   </g>
   <g id="patch_4">
    <path d="M 1352.072571 212.194987 
L 1352.072571 52.63104 
" style="fill:none;stroke:#000000;stroke-linecap:square;stroke-linejoin:miter;stroke-width:0.8;"/>
   </g>
   <g id="patch_5">
    <path d="M 135.399157 212.194987 
L 1352.072571 212.194987 
" style="fill:none;stroke:#000000;stroke-linecap:square;stroke-linejoin:miter;stroke-width:0.8;"/>
   </g>
   <g id="patch_6">
    <path d="M 135.399157 52.63104 
L 1352.072571 52.63104 
" style="fill:none;stroke:#000000;stroke-linecap:square;stroke-linejoin:miter;stroke-width:0.8;"/>
   </g>
   <g id="text_8">
    <!-- NEES All: 2.0% inside CI -->
    <g transform="translate(671.803364 46.63104)scale(0.12 -0.12)">
     <defs>
      <path d="M 628 4666 
L 1478 4666 
L 3547 763 
L 3547 4666 
L 4159 4666 
L 4159 0 
L 3309 0 
L 1241 3903 
L 1241 0 
L 628 0 
L 628 4666 
z
" id="DejaVuSans-4e" transform="scale(0.015625)"/>
      <path d="M 628 4666 
L 3578 4666 
L 3578 4134 
L 1259 4134 
L 1259 2753 
L 3481 2753 
L 3481 2222 
L 1259 2222 
L 1259 531 
L 3634 531 
L 3634 0 
L 628 0 
L 628 4666 
z
" id="DejaVuSans-45" transform="scale(0.015625)"/>
      <path d="M 3425 4513 
L 3425 3897 
Q 3066 4069 2747 4153 
Q 2428 4238 2131 4238 
Q 1616 4238 1336 4038 
Q 1056 3838 1056 3469 
Q 1056 3159 1242 3001 
Q 1428 2844 1947 2747 
L 2328 2669 
Q 3034 2534 3370 2195 
Q 3706 1856 3706 1288 
Q 3706 609 3251 259 
Q 2797 -91 1919 -91 
Q 1588 -91 1214 -16 
Q 841 59 441 206 
L 441 856 
Q 825 641 1194 531 
Q 1563 422 1919 422 
Q 2459 422 2753 634 
Q 3047 847 3047 1241 
Q 3047 1584 2836 1778 
Q 2625 1972 2144 2069 
L 1759 2144 
Q 1053 2284 737 2584 
Q 422 2884 422 3419 
Q 422 4038 858 4394 
Q 1294 4750 2059 4750 
Q 2388 4750 2728 4690 
Q 3069 4631 3425 4513 
z
" id="DejaVuSans-53" transform="scale(0.015625)"/>
      <path id="DejaVuSans-20" transform="scale(0.015625)"/>
      <path d="M 2188 4044 
L 1331 1722 
L 3047 1722 
L 2188 4044 
z
M 1831 4666 
L 2547 4666 
L 4325 0 
L 3669 0 
L 3244 1197 
L 1141 1197 
L 716 0 
L 50 0 
L 1831 4666 
z
" id="DejaVuSans-41" transform="scale(0.015625)"/>
      <path d="M 603 4863 
L 1178 4863 
L 1178 0 
L 603 0 
L 603 4863 
z
" id="DejaVuSans-6c" transform="scale(0.015625)"/>
      <path d="M 750 794 
L 1409 794 
L 1409 0 
L 750 0 
L 750 794 
z
M 750 3309 
L 1409 3309 
L 1409 2516 
L 750 2516 
L 750 3309 
z
" id="DejaVuSans-3a" transform="scale(0.015625)"/>
      <path d="M 684 794 
L 1344 794 
L 1344 0 
L 684 0 
L 684 794 
z
" id="DejaVuSans-2e" transform="scale(0.015625)"/>
      <path d="M 4653 2053 
Q 4381 2053 4226 1822 
Q 4072 1591 4072 1178 
Q 4072 772 4226 539 
Q 4381 306 4653 306 
Q 4919 306 5073 539 
Q 5228 772 5228 1178 
Q 5228 1588 5073 1820 
Q 4919 2053 4653 2053 
z
M 4653 2450 
Q 5147 2450 5437 2106 
Q 5728 1763 5728 1178 
Q 5728 594 5436 251 
Q 5144 -91 4653 -91 
Q 4153 -91 3862 251 
Q 3572 594 3572 1178 
Q 3572 1766 3864 2108 
Q 4156 2450 4653 2450 
z
M 1428 4353 
Q 1159 4353 1004 4120 
Q 850 3888 850 3481 
Q 850 3069 1003 2837 
Q 1156 2606 1428 2606 
Q 1700 2606 1854 2837 
Q 2009 3069 2009 3481 
Q 2009 3884 1853 4118 
Q 1697 4353 1428 4353 
z
M 4250 4750 
L 4750 4750 
L 1831 -91 
L 1331 -91 
L 4250 4750 
z
M 1428 4750 
Q 1922 4750 2215 4408 
Q 2509 4066 2509 3481 
Q 2509 2891 2217 2550 
Q 1925 2209 1428 2209 
Q 931 2209 642 2551 
Q 353 2894 353 3481 
Q 353 4063 643 4406 
Q 934 4750 1428 4750 
z
" id="DejaVuSans-25" transform="scale(0.015625)"/>
      <path d="M 603 3500 
L 1178 3500 
L 1178 0 
L 603 0 
L 603 3500 
z
M 603 4863 
L 1178 4863 
L 1178 4134 
L 603 4134 
L 603 4863 
z
" id="DejaVuSans-69" transform="scale(0.015625)"/>
      <path d="M 3513 2113 
L 3513 0 
L 2938 0 
L 2938 2094 
Q 2938 2591 2744 2837 
Q 2550 3084 2163 3084 
Q 1697 3084 1428 2787 
Q 1159 2491 1159 1978 
L 1159 0 
L 581 0 
L 581 3500 
L 1159 3500 
L 1159 2956 
Q 1366 3272 1645 3428 
Q 1925 3584 2291 3584 
Q 2894 3584 3203 3211 
Q 3513 2838 3513 2113 
z
" id="DejaVuSans-6e" transform="scale(0.015625)"/>
      <path d="M 2834 3397 
L 2834 2853 
Q 2591 2978 2328 3040 
Q 2066 3103 1784 3103 
Q 1356 3103 1142 2972 
Q 928 2841 928 2578 
Q 928 2378 1081 2264 
Q 1234 2150 1697 2047 
L 1894 2003 
Q 2506 1872 2764 1633 
Q 3022 1394 3022 966 
Q 3022 478 2636 193 
Q 2250 -91 1575 -91 
Q 1294 -91 989 -36 
Q 684 19 347 128 
L 347 722 
Q 666 556 975 473 
Q 1284 391 1588 391 
Q 1994 391 2212 530 
Q 2431 669 2431 922 
Q 2431 1156 2273 1281 
Q 2116 1406 1581 1522 
L 1381 1569 
Q 847 1681 609 1914 
Q 372 2147 372 2553 
Q 372 3047 722 3315 
Q 1072 3584 1716 3584 
Q 2034 3584 2315 3537 
Q 2597 3491 2834 3397 
z
" id="DejaVuSans-73" transform="scale(0.015625)"/>
      <path d="M 2906 2969 
L 2906 4863 
L 3481 4863 
L 3481 0 
L 2906 0 
L 2906 525 
Q 2725 213 2448 61 
Q 2172 -91 1784 -91 
Q 1150 -91 751 415 
Q 353 922 353 1747 
Q 353 2572 751 3078 
Q 1150 3584 1784 3584 
Q 2172 3584 2448 3432 
Q 2725 3281 2906 2969 
z
M 947 1747 
Q 947 1113 1208 752 
Q 1469 391 1925 391 
Q 2381 391 2643 752 
Q 2906 1113 2906 1747 
Q 2906 2381 2643 2742 
Q 2381 3103 1925 3103 
Q 1469 3103 1208 2742 
Q 947 2381 947 1747 
z
" id="DejaVuSans-64" transform="scale(0.015625)"/>
      <path d="M 3597 1894 
L 3597 1613 
L 953 1613 
Q 991 1019 1311 708 
Q 1631 397 2203 397 
Q 2534 397 2845 478 
Q 3156 559 3463 722 
L 3463 178 
Q 3153 47 2828 -22 
Q 2503 -91 2169 -91 
Q 1331 -91 842 396 
Q 353 884 353 1716 
Q 353 2575 817 3079 
Q 1281 3584 2069 3584 
Q 2775 3584 3186 3129 
Q 3597 2675 3597 1894 
z
M 3022 2063 
Q 3016 2534 2758 2815 
Q 2500 3097 2075 3097 
Q 1594 3097 1305 2825 
Q 1016 2553 972 2059 
L 3022 2063 
z
" id="DejaVuSans-65" transform="scale(0.015625)"/>
      <path d="M 4122 4306 
L 4122 3641 
Q 3803 3938 3442 4084 
Q 3081 4231 2675 4231 
Q 1875 4231 1450 3742 
Q 1025 3253 1025 2328 
Q 1025 1406 1450 917 
Q 1875 428 2675 428 
Q 3081 428 3442 575 
Q 3803 722 4122 1019 
L 4122 359 
Q 3791 134 3420 21 
Q 3050 -91 2638 -91 
Q 1578 -91 968 557 
Q 359 1206 359 2328 
Q 359 3453 968 4101 
Q 1578 4750 2638 4750 
Q 3056 4750 3426 4639 
Q 3797 4528 4122 4306 
z
" id="DejaVuSans-43" transform="scale(0.015625)"/>
      <path d="M 628 4666 
L 1259 4666 
L 1259 0 
L 628 0 
L 628 4666 
z
" id="DejaVuSans-49" transform="scale(0.015625)"/>
     </defs>
     <use xlink:href="#DejaVuSans-4e"/>
     <use x="74.804688" xlink:href="#DejaVuSans-45"/>
     <use x="137.988281" xlink:href="#DejaVuSans-45"/>
     <use x="201.171875" xlink:href="#DejaVuSans-53"/>
     <use x="264.648438" xlink:href="#DejaVuSans-20"/>
     <use x="296.435547" xlink:href="#DejaVuSans-41"/>
     <use x="364.84375" xlink:href="#DejaVuSans-6c"/>
     <use x="392.626953" xlink:href="#DejaVuSans-6c"/>
     <use x="420.410156" xlink:href="#DejaVuSans-3a"/>
     <use x="454.101562" xlink:href="#DejaVuSans-20"/>
     <use x="485.888672" xlink:href="#DejaVuSans-32"/>
     <use x="549.511719" xlink:href="#DejaVuSans-2e"/>
     <use x="581.298828" xlink:href="#DejaVuSans-30"/>
     <use x="644.921875" xlink:href="#DejaVuSans-25"/>
     <use x="739.941406" xlink:href="#DejaVuSans-20"/>
     <use x="771.728516" xlink:href="#DejaVuSans-69"/>
     <use x="799.511719" xlink:href="#DejaVuSans-6e"/>
     <use x="862.890625" xlink:href="#DejaVuSans-73"/>
     <use x="914.990234" xlink:href="#DejaVuSans-69"/>
     <use x="942.773438" xlink:href="#DejaVuSans-64"/>
     <use x="1006.25" xlink:href="#DejaVuSans-65"/>
     <use x="1067.773438" xlink:href="#DejaVuSans-20"/>
     <use x="1099.560547" xlink:href="#DejaVuSans-43"/>
     <use x="1169.384766" xlink:href="#DejaVuSans-49"/>
    </g>
   </g>
  </g>
  <g id="axes_2">
   <g id="patch_7">
    <path d="M 135.399157 431.242973 
L 1352.072571 431.242973 
L 1352.072571 271.679027 
L 135.399157 271.679027 
z
" style="fill:#ffffff;"/>
   </g>
   <g id="matplotlib.axis_3">
    <g id="xtick_7">
     <g id="line2d_30">
      <path clip-path="url(#p1d606d8973)" d="M 190.702494 431.242973 
L 190.702494 271.679027 
" style="fill:none;stroke:#000000;stroke-dasharray:0.5,0.825;stroke-dashoffset:0;stroke-opacity:0.5;stroke-width:0.5;"/>
     </g>
     <g id="line2d_31">
      <g>
       <use style="stroke:#000000;stroke-width:0.8;" x="190.702494" xlink:href="#mb03f2b13c8" y="431.242973"/>
      </g>
     </g>
    </g>
    <g id="xtick_8">
     <g id="line2d_32">
      <path clip-path="url(#p1d606d8973)" d="M 412.137277 431.242973 
L 412.137277 271.679027 
" style="fill:none;stroke:#000000;stroke-dasharray:0.5,0.825;stroke-dashoffset:0;stroke-opacity:0.5;stroke-width:0.5;"/>
     </g>
     <g id="line2d_33">
      <g>
       <use style="stroke:#000000;stroke-width:0.8;" x="412.137277" xlink:href="#mb03f2b13c8" y="431.242973"/>
      </g>
     </g>
    </g>
    <g id="xtick_9">
     <g id="line2d_34">
      <path clip-path="url(#p1d606d8973)" d="M 633.57206 431.242973 
L 633.57206 271.679027 
" style="fill:none;stroke:#000000;stroke-dasharray:0.5,0.825;stroke-dashoffset:0;stroke-opacity:0.5;stroke-width:0.5;"/>
     </g>
     <g id="line2d_35">
      <g>
       <use style="stroke:#000000;stroke-width:0.8;" x="633.57206" xlink:href="#mb03f2b13c8" y="431.242973"/>
      </g>
     </g>
    </g>
    <g id="xtick_10">
     <g id="line2d_36">
      <path clip-path="url(#p1d606d8973)" d="M 855.006843 431.242973 
L 855.006843 271.679027 
" style="fill:none;stroke:#000000;stroke-dasharray:0.5,0.825;stroke-dashoffset:0;stroke-opacity:0.5;stroke-width:0.5;"/>
     </g>
     <g id="line2d_37">
      <g>
       <use style="stroke:#000000;stroke-width:0.8;" x="855.006843" xlink:href="#mb03f2b13c8" y="431.242973"/>
      </g>
     </g>
    </g>
    <g id="xtick_11">
     <g id="line2d_38">
      <path clip-path="url(#p1d606d8973)" d="M 1076.441625 431.242973 
L 1076.441625 271.679027 
" style="fill:none;stroke:#000000;stroke-dasharray:0.5,0.825;stroke-dashoffset:0;stroke-opacity:0.5;stroke-width:0.5;"/>
     </g>
     <g id="line2d_39">
      <g>
       <use style="stroke:#000000;stroke-width:0.8;" x="1076.441625" xlink:href="#mb03f2b13c8" y="431.242973"/>
      </g>
     </g>
    </g>
    <g id="xtick_12">
     <g id="line2d_40">
      <path clip-path="url(#p1d606d8973)" d="M 1297.876408 431.242973 
L 1297.876408 271.679027 
" style="fill:none;stroke:#000000;stroke-dasharray:0.5,0.825;stroke-dashoffset:0;stroke-opacity:0.5;stroke-width:0.5;"/>
     </g>
     <g id="line2d_41">
      <g>
       <use style="stroke:#000000;stroke-width:0.8;" x="1297.876408" xlink:href="#mb03f2b13c8" y="431.242973"/>
      </g>
     </g>
    </g>
   </g>
   <g id="matplotlib.axis_4">
    <g id="ytick_8">
     <g id="line2d_42">
      <path clip-path="url(#p1d606d8973)" d="M 135.399157 423.990067 
L 1352.072571 423.990067 
" style="fill:none;stroke:#000000;stroke-dasharray:0.5,0.825;stroke-dashoffset:0;stroke-opacity:0.5;stroke-width:0.5;"/>
     </g>
     <g id="line2d_43">
      <g>
       <use style="stroke:#000000;stroke-width:0.8;" x="135.399157" xlink:href="#mdfbe74ce89" y="423.990067"/>
      </g>
     </g>
     <g id="text_9">
      <!-- 0 -->
      <g transform="translate(122.036657 427.789285)scale(0.1 -0.1)">
       <use xlink:href="#DejaVuSans-30"/>
      </g>
     </g>
    </g>
    <g id="ytick_9">
     <g id="line2d_44">
      <path clip-path="url(#p1d606d8973)" d="M 135.399157 399.444954 
L 1352.072571 399.444954 
" style="fill:none;stroke:#000000;stroke-dasharray:0.5,0.825;stroke-dashoffset:0;stroke-opacity:0.5;stroke-width:0.5;"/>
     </g>
     <g id="line2d_45">
      <g>
       <use style="stroke:#000000;stroke-width:0.8;" x="135.399157" xlink:href="#mdfbe74ce89" y="399.444954"/>
      </g>
     </g>
     <g id="text_10">
      <!-- 2500 -->
      <g transform="translate(102.949157 403.244173)scale(0.1 -0.1)">
       <use xlink:href="#DejaVuSans-32"/>
       <use x="63.623047" xlink:href="#DejaVuSans-35"/>
       <use x="127.246094" xlink:href="#DejaVuSans-30"/>
       <use x="190.869141" xlink:href="#DejaVuSans-30"/>
      </g>
     </g>
    </g>
    <g id="ytick_10">
     <g id="line2d_46">
      <path clip-path="url(#p1d606d8973)" d="M 135.399157 374.899841 
L 1352.072571 374.899841 
" style="fill:none;stroke:#000000;stroke-dasharray:0.5,0.825;stroke-dashoffset:0;stroke-opacity:0.5;stroke-width:0.5;"/>
     </g>
     <g id="line2d_47">
      <g>
       <use style="stroke:#000000;stroke-width:0.8;" x="135.399157" xlink:href="#mdfbe74ce89" y="374.899841"/>
      </g>
     </g>
     <g id="text_11">
      <!-- 5000 -->
      <g transform="translate(102.949157 378.69906)scale(0.1 -0.1)">
       <use xlink:href="#DejaVuSans-35"/>
       <use x="63.623047" xlink:href="#DejaVuSans-30"/>
       <use x="127.246094" xlink:href="#DejaVuSans-30"/>
       <use x="190.869141" xlink:href="#DejaVuSans-30"/>
      </g>
     </g>
    </g>
    <g id="ytick_11">
     <g id="line2d_48">
      <path clip-path="url(#p1d606d8973)" d="M 135.399157 350.354728 
L 1352.072571 350.354728 
" style="fill:none;stroke:#000000;stroke-dasharray:0.5,0.825;stroke-dashoffset:0;stroke-opacity:0.5;stroke-width:0.5;"/>
     </g>
     <g id="line2d_49">
      <g>
       <use style="stroke:#000000;stroke-width:0.8;" x="135.399157" xlink:href="#mdfbe74ce89" y="350.354728"/>
      </g>
     </g>
     <g id="text_12">
      <!-- 7500 -->
      <g transform="translate(102.949157 354.153947)scale(0.1 -0.1)">
       <use xlink:href="#DejaVuSans-37"/>
       <use x="63.623047" xlink:href="#DejaVuSans-35"/>
       <use x="127.246094" xlink:href="#DejaVuSans-30"/>
       <use x="190.869141" xlink:href="#DejaVuSans-30"/>
      </g>
     </g>
    </g>
    <g id="ytick_12">
     <g id="line2d_50">
      <path clip-path="url(#p1d606d8973)" d="M 135.399157 325.809615 
L 1352.072571 325.809615 
" style="fill:none;stroke:#000000;stroke-dasharray:0.5,0.825;stroke-dashoffset:0;stroke-opacity:0.5;stroke-width:0.5;"/>
     </g>
     <g id="line2d_51">
      <g>
       <use style="stroke:#000000;stroke-width:0.8;" x="135.399157" xlink:href="#mdfbe74ce89" y="325.809615"/>
      </g>
     </g>
     <g id="text_13">
      <!-- 10000 -->
      <g transform="translate(96.586657 329.608834)scale(0.1 -0.1)">
       <use xlink:href="#DejaVuSans-31"/>
       <use x="63.623047" xlink:href="#DejaVuSans-30"/>
       <use x="127.246094" xlink:href="#DejaVuSans-30"/>
       <use x="190.869141" xlink:href="#DejaVuSans-30"/>
       <use x="254.492188" xlink:href="#DejaVuSans-30"/>
      </g>
     </g>
    </g>
    <g id="ytick_13">
     <g id="line2d_52">
      <path clip-path="url(#p1d606d8973)" d="M 135.399157 301.264502 
L 1352.072571 301.264502 
" style="fill:none;stroke:#000000;stroke-dasharray:0.5,0.825;stroke-dashoffset:0;stroke-opacity:0.5;stroke-width:0.5;"/>
     </g>
     <g id="line2d_53">
      <g>
       <use style="stroke:#000000;stroke-width:0.8;" x="135.399157" xlink:href="#mdfbe74ce89" y="301.264502"/>
      </g>
     </g>
     <g id="text_14">
      <!-- 12500 -->
      <g transform="translate(96.586657 305.063721)scale(0.1 -0.1)">
       <use xlink:href="#DejaVuSans-31"/>
       <use x="63.623047" xlink:href="#DejaVuSans-32"/>
       <use x="127.246094" xlink:href="#DejaVuSans-35"/>
       <use x="190.869141" xlink:href="#DejaVuSans-30"/>
       <use x="254.492188" xlink:href="#DejaVuSans-30"/>
      </g>
     </g>
    </g>
    <g id="ytick_14">
     <g id="line2d_54">
      <path clip-path="url(#p1d606d8973)" d="M 135.399157 276.719389 
L 1352.072571 276.719389 
" style="fill:none;stroke:#000000;stroke-dasharray:0.5,0.825;stroke-dashoffset:0;stroke-opacity:0.5;stroke-width:0.5;"/>
     </g>
     <g id="line2d_55">
      <g>
       <use style="stroke:#000000;stroke-width:0.8;" x="135.399157" xlink:href="#mdfbe74ce89" y="276.719389"/>
      </g>
     </g>
     <g id="text_15">
      <!-- 15000 -->
      <g transform="translate(96.586657 280.518608)scale(0.1 -0.1)">
       <use xlink:href="#DejaVuSans-31"/>
       <use x="63.623047" xlink:href="#DejaVuSans-35"/>
       <use x="127.246094" xlink:href="#DejaVuSans-30"/>
       <use x="190.869141" xlink:href="#DejaVuSans-30"/>
       <use x="254.492188" xlink:href="#DejaVuSans-30"/>
      </g>
     </g>
    </g>
   </g>
   <g id="line2d_56">
    <path clip-path="url(#p1d606d8973)" d="M 190.702494 423.98957 
L 1296.769234 423.98957 
L 1296.769234 423.98957 
" style="fill:none;stroke:#1f77b4;stroke-dasharray:5.55,2.4;stroke-dashoffset:0;stroke-width:1.5;"/>
   </g>
   <g id="line2d_57">
    <path clip-path="url(#p1d606d8973)" d="M 190.702494 423.917631 
L 1296.769234 423.917631 
L 1296.769234 423.917631 
" style="fill:none;stroke:#ff7f0e;stroke-dasharray:5.55,2.4;stroke-dashoffset:0;stroke-width:1.5;"/>
   </g>
   <g id="line2d_58">
    <path clip-path="url(#p1d606d8973)" d="M 190.702494 423.990067 
L 278.169233 423.848698 
L 280.383581 423.655533 
L 282.597929 423.209094 
L 284.812277 423.339216 
L 287.026625 423.14858 
L 289.240973 422.916576 
L 292.562494 423.068767 
L 295.884016 423.065004 
L 298.098364 423.008774 
L 301.419886 422.423959 
L 303.634233 422.574234 
L 308.062929 422.379491 
L 316.92032 422.130037 
L 321.349016 422.082218 
L 325.777712 422.263455 
L 330.206407 422.408837 
L 333.527929 422.495755 
L 335.742277 422.539957 
L 340.170973 422.529537 
L 362.314451 422.558135 
L 367.85032 422.618062 
L 371.171842 422.687023 
L 377.814886 422.70161 
L 384.457929 422.800559 
L 386.672277 422.769411 
L 388.886625 422.881898 
L 392.208147 422.884255 
L 395.529668 423.015722 
L 402.172712 422.931692 
L 439.816625 423.66627 
L 442.030973 423.687109 
L 446.459668 423.761767 
L 450.888364 423.745379 
L 460.852929 423.566567 
L 465.281625 423.417723 
L 471.924668 423.129514 
L 485.210755 422.44197 
L 487.425103 422.368465 
L 491.853799 422.300067 
L 494.068147 422.12112 
L 496.282494 421.994345 
L 497.389668 421.996056 
L 500.71119 421.766491 
L 510.675755 421.336951 
L 512.890103 421.271273 
L 537.247929 421.516452 
L 543.890973 421.559144 
L 544.998147 421.630077 
L 546.105321 421.542248 
L 548.319668 420.758308 
L 549.426842 420.717639 
L 550.534016 420.323154 
L 551.64119 419.702901 
L 552.748364 419.583733 
L 554.962712 419.577935 
L 556.069886 419.335851 
L 558.284234 418.612666 
L 559.391408 418.272442 
L 561.605755 418.109305 
L 562.712929 418.32867 
L 563.820103 418.27005 
L 564.927277 418.058491 
L 566.034451 418.330365 
L 568.248799 418.471843 
L 569.355973 418.294102 
L 570.463147 417.956842 
L 572.677495 417.05766 
L 573.784668 416.911841 
L 574.891842 416.573284 
L 575.999016 416.112906 
L 579.320538 415.279923 
L 581.534886 414.544616 
L 582.64206 414.283025 
L 583.749234 413.831724 
L 584.856408 413.50591 
L 585.963582 413.457983 
L 587.070755 413.254199 
L 588.177929 413.2807 
L 590.392277 412.558154 
L 591.499451 412.510618 
L 592.606625 412.060633 
L 593.713799 411.757134 
L 595.928147 411.587301 
L 597.035321 411.281035 
L 599.249668 410.155464 
L 603.678364 408.205796 
L 604.785538 407.793234 
L 605.892712 407.257839 
L 606.999886 406.575835 
L 608.10706 402.733529 
L 609.214234 401.552917 
L 610.321408 401.854293 
L 611.428582 399.570169 
L 612.535755 398.352849 
L 613.642929 396.133389 
L 614.750103 396.170955 
L 615.857277 395.74985 
L 616.964451 393.095736 
L 618.071625 393.931567 
L 619.178799 393.435686 
L 621.393147 391.15212 
L 623.607495 389.020856 
L 624.714669 388.255772 
L 625.821842 387.287944 
L 626.929016 387.086741 
L 628.03619 386.028372 
L 629.143364 385.141116 
L 630.250538 385.278712 
L 631.357712 381.67937 
L 633.57206 378.317818 
L 634.679234 377.13397 
L 635.786408 376.129558 
L 636.893582 374.482936 
L 638.000755 372.632508 
L 639.107929 370.343037 
L 640.215103 368.905517 
L 641.322277 367.168543 
L 642.429451 364.821157 
L 643.536625 364.215699 
L 644.643799 361.697337 
L 645.750973 361.149571 
L 646.858147 359.273446 
L 647.965321 356.09003 
L 649.072495 355.908197 
L 650.179669 351.068767 
L 651.286842 350.480771 
L 652.394016 350.442978 
L 654.608364 351.911154 
L 655.715538 353.146028 
L 656.822712 340.350311 
L 657.929886 334.693096 
L 659.03706 332.114213 
L 660.144234 331.695377 
L 661.251408 330.960265 
L 662.358582 331.347113 
L 663.465756 325.966482 
L 664.572929 329.934553 
L 665.680103 329.221008 
L 667.894451 332.771749 
L 669.001625 336.033178 
L 670.108799 335.73289 
L 671.215973 337.34639 
L 672.323147 335.874949 
L 673.430321 335.956064 
L 675.644669 335.732833 
L 676.751842 338.655393 
L 677.859016 340.524728 
L 678.96619 334.610228 
L 680.073364 333.944614 
L 681.180538 335.68995 
L 682.287712 340.834108 
L 683.394886 338.874328 
L 684.50206 339.986899 
L 685.609234 338.240794 
L 686.716408 337.418369 
L 687.823582 338.665088 
L 688.930756 334.003532 
L 690.037929 333.610729 
L 691.145103 332.38769 
L 692.252277 327.211567 
L 693.359451 326.528366 
L 694.466625 331.283502 
L 695.573799 337.8704 
L 696.680973 339.23219 
L 697.788147 342.928371 
L 700.002495 346.564297 
L 701.109669 349.432368 
L 702.216843 349.612499 
L 703.324016 348.997963 
L 704.43119 348.832567 
L 705.538364 347.204371 
L 706.645538 346.991082 
L 707.752712 349.824687 
L 708.859886 349.738 
L 711.074234 345.896981 
L 712.181408 344.763398 
L 713.288582 341.286813 
L 714.395756 340.448226 
L 715.502929 335.887071 
L 716.610103 335.393982 
L 717.717277 334.775415 
L 719.931625 343.938798 
L 723.253147 349.558252 
L 724.360321 349.749397 
L 725.467495 349.593138 
L 726.574669 347.83648 
L 727.681843 346.408167 
L 728.789016 344.474208 
L 729.89619 342.095344 
L 731.003364 340.761992 
L 734.324886 337.520274 
L 735.43206 337.000392 
L 737.646408 340.712167 
L 738.753582 324.828768 
L 739.860756 316.968243 
L 740.96793 313.725726 
L 742.075103 311.557182 
L 743.182277 311.272411 
L 744.289451 312.486188 
L 745.396625 311.987925 
L 746.503799 311.880117 
L 747.610973 311.601036 
L 748.718147 312.973247 
L 749.825321 313.162785 
L 750.932495 313.984696 
L 752.039669 313.837372 
L 753.146843 314.10913 
L 754.254016 313.498766 
L 755.36119 314.032235 
L 756.468364 315.061616 
L 757.575538 316.786134 
L 758.682712 320.131288 
L 759.789886 321.697505 
L 760.89706 322.178004 
L 762.004234 323.470213 
L 763.111408 324.511608 
L 764.218582 317.858001 
L 765.325756 315.369916 
L 767.540103 311.814301 
L 768.647277 309.185738 
L 769.754451 312.623184 
L 770.861625 314.261756 
L 771.968799 317.995727 
L 773.075973 320.723866 
L 774.183147 322.908537 
L 775.290321 325.505598 
L 776.397495 327.659003 
L 777.504669 329.065499 
L 778.611843 333.503885 
L 779.719016 335.961743 
L 780.82619 337.44854 
L 781.933364 339.491684 
L 783.040538 340.707988 
L 784.147712 331.607673 
L 785.254886 338.538913 
L 787.469234 341.435046 
L 788.576408 346.483695 
L 789.683582 349.820574 
L 790.790756 350.740086 
L 791.89793 355.506057 
L 793.005103 359.015486 
L 794.112277 363.680454 
L 795.219451 362.92306 
L 796.326625 364.41578 
L 797.433799 368.01488 
L 798.540973 370.638448 
L 799.648147 368.363601 
L 800.755321 368.394434 
L 801.862495 373.346824 
L 802.969669 373.097373 
L 804.076843 377.104731 
L 806.29119 379.17875 
L 807.398364 379.334868 
L 808.505538 381.966324 
L 809.612712 382.376959 
L 810.719886 383.341578 
L 811.82706 386.219117 
L 812.934234 387.471985 
L 815.148582 388.925171 
L 816.255756 390.888003 
L 817.36293 385.190772 
L 818.470103 384.206637 
L 819.577277 385.05072 
L 820.684451 382.906278 
L 821.791625 384.85631 
L 822.898799 387.244698 
L 824.005973 388.632036 
L 826.220321 395.264781 
L 827.327495 398.140825 
L 828.434669 399.66107 
L 830.649017 402.191781 
L 831.75619 403.070534 
L 833.970538 405.215223 
L 835.077712 405.586908 
L 836.184886 406.121939 
L 837.29206 407.205442 
L 838.399234 407.901858 
L 839.506408 408.993994 
L 840.613582 409.680467 
L 841.720756 409.908331 
L 842.82793 410.481834 
L 843.935104 410.319551 
L 845.042277 409.693838 
L 846.149451 409.506579 
L 847.256625 408.998988 
L 849.470973 410.801683 
L 850.578147 410.779746 
L 851.685321 410.888587 
L 852.792495 409.812145 
L 853.899669 408.904496 
L 855.006843 407.325048 
L 856.114017 407.206796 
L 858.328364 404.050328 
L 859.435538 403.231229 
L 861.649886 399.67482 
L 862.75706 398.394607 
L 863.864234 397.520097 
L 864.971408 398.359822 
L 866.078582 398.513763 
L 867.185756 397.06269 
L 868.29293 396.466841 
L 871.614451 393.544556 
L 872.721625 392.044539 
L 873.828799 391.957416 
L 876.043147 391.996003 
L 877.150321 391.66626 
L 878.257495 391.769849 
L 879.364669 389.251288 
L 880.471843 388.052269 
L 881.579017 388.068294 
L 882.686191 385.470439 
L 883.793364 385.816785 
L 884.900538 385.211029 
L 886.007712 384.11026 
L 887.114886 384.817257 
L 888.22206 384.604276 
L 889.329234 385.036372 
L 890.436408 384.86939 
L 891.543582 384.843734 
L 892.650756 384.666004 
L 893.75793 382.895055 
L 894.865104 382.461033 
L 895.972277 382.378728 
L 897.079451 374.994205 
L 898.186625 371.410887 
L 899.293799 369.981431 
L 900.400973 367.697934 
L 901.508147 366.747014 
L 902.615321 366.059996 
L 903.722495 368.68974 
L 904.829669 370.989088 
L 905.936843 372.374157 
L 907.044017 376.490243 
L 908.151191 378.070294 
L 909.258364 379.844144 
L 910.365538 381.036592 
L 911.472712 385.014105 
L 912.579886 382.917405 
L 913.68706 383.166483 
L 914.794234 384.624203 
L 915.901408 386.9291 
L 917.008582 388.62033 
L 918.115756 389.433357 
L 919.22293 390.621457 
L 920.330104 391.978447 
L 921.437278 392.706539 
L 922.544451 393.048503 
L 923.651625 393.664252 
L 924.758799 393.680025 
L 925.865973 395.179516 
L 926.973147 396.253911 
L 928.080321 398.070874 
L 931.401843 400.929376 
L 932.509017 400.602535 
L 933.616191 400.656134 
L 934.723364 401.777701 
L 936.937712 402.903064 
L 938.044886 403.274352 
L 940.259234 405.268698 
L 942.473582 405.475788 
L 943.580756 405.357876 
L 944.68793 405.410429 
L 945.795104 404.907918 
L 946.902278 403.911988 
L 948.009451 403.088176 
L 949.116625 402.06995 
L 950.223799 402.357483 
L 952.438147 402.028376 
L 953.545321 401.735291 
L 954.652495 402.254574 
L 955.759669 402.580713 
L 956.866843 402.506488 
L 959.081191 403.666357 
L 961.295538 403.365565 
L 963.509886 403.029163 
L 964.61706 402.89087 
L 965.724234 402.873458 
L 967.938582 401.714671 
L 969.045756 401.480669 
L 970.15293 401.40453 
L 972.367278 401.610774 
L 977.903147 401.714219 
L 979.010321 401.652087 
L 980.117495 401.24808 
L 981.224669 402.001933 
L 983.439017 402.824053 
L 984.546191 403.183675 
L 985.653365 403.33229 
L 986.760538 403.999005 
L 987.867712 404.353648 
L 988.974886 404.847216 
L 990.08206 406.065574 
L 991.189234 405.925988 
L 992.296408 405.948202 
L 993.403582 406.146989 
L 994.510756 406.067174 
L 995.61793 406.264938 
L 998.939452 406.406471 
L 1000.046625 406.273412 
L 1006.689669 407.635965 
L 1008.904017 408.317846 
L 1010.011191 408.488873 
L 1011.118365 408.787918 
L 1012.225538 408.689856 
L 1013.332712 408.901057 
L 1014.439886 409.970736 
L 1015.54706 410.482128 
L 1016.654234 410.824102 
L 1017.761408 410.779213 
L 1026.618799 412.471178 
L 1027.725973 413.292731 
L 1029.940321 413.810313 
L 1032.154669 413.776587 
L 1033.261843 413.904068 
L 1035.476191 413.891357 
L 1036.583365 413.969854 
L 1037.690538 413.934643 
L 1038.797712 412.951597 
L 1039.904886 412.533507 
L 1041.01206 412.353053 
L 1042.119234 412.048125 
L 1044.333582 411.980923 
L 1045.440756 412.099056 
L 1046.54793 412.457889 
L 1047.655104 413.080739 
L 1049.869452 414.8768 
L 1052.083799 416.089587 
L 1053.190973 416.575711 
L 1054.298147 416.826265 
L 1055.405321 417.491482 
L 1056.512495 417.771432 
L 1057.619669 418.587906 
L 1059.834017 419.539897 
L 1069.798582 422.050776 
L 1070.905756 422.163874 
L 1074.227278 422.793426 
L 1079.763147 423.560021 
L 1086.406191 423.927438 
L 1089.727712 423.853839 
L 1094.156408 423.500655 
L 1096.370756 423.227262 
L 1097.47793 423.167848 
L 1100.799452 422.499356 
L 1104.120973 421.796132 
L 1105.228147 421.764833 
L 1106.335321 421.490472 
L 1107.442495 421.38283 
L 1109.656843 420.724266 
L 1111.871191 420.346711 
L 1114.085539 418.54405 
L 1115.192712 417.525313 
L 1118.514234 416.155714 
L 1119.621408 415.993571 
L 1122.94293 415.945828 
L 1124.050104 415.737813 
L 1125.157278 415.794036 
L 1126.264452 415.685385 
L 1127.371626 415.739236 
L 1128.478799 415.676269 
L 1129.585973 415.412592 
L 1130.693147 414.570819 
L 1131.800321 413.113314 
L 1134.014669 411.787845 
L 1135.121843 411.188432 
L 1136.229017 411.461967 
L 1137.336191 410.855594 
L 1138.443365 410.613286 
L 1140.657713 409.704316 
L 1141.764886 409.366929 
L 1142.87206 408.782449 
L 1143.979234 408.464513 
L 1145.086408 408.52026 
L 1146.193582 407.738718 
L 1147.300756 407.30346 
L 1148.40793 407.174299 
L 1149.515104 406.329091 
L 1150.622278 404.928603 
L 1151.729452 402.874752 
L 1152.836626 401.757575 
L 1153.943799 401.772942 
L 1155.050973 402.417093 
L 1156.158147 402.71201 
L 1158.372495 404.161708 
L 1159.479669 405.240898 
L 1160.586843 405.269659 
L 1161.694017 406.783705 
L 1162.801191 406.680294 
L 1163.908365 406.907915 
L 1165.015539 406.971882 
L 1167.229886 407.320973 
L 1168.33706 406.447723 
L 1169.444234 406.491633 
L 1170.551408 406.01817 
L 1171.658582 404.798381 
L 1172.765756 405.235032 
L 1173.87293 405.838192 
L 1174.980104 403.086107 
L 1176.087278 401.703828 
L 1177.194452 399.991736 
L 1178.301626 399.501322 
L 1179.4088 399.338808 
L 1181.623147 398.154228 
L 1182.730321 397.888431 
L 1186.051843 396.152524 
L 1187.159017 395.4198 
L 1188.266191 395.101317 
L 1189.373365 396.027915 
L 1190.480539 396.273985 
L 1191.587713 396.257702 
L 1192.694886 396.127199 
L 1193.80206 396.212071 
L 1196.016408 397.649136 
L 1197.123582 398.14336 
L 1198.230756 398.920822 
L 1199.33793 399.889426 
L 1200.445104 400.333456 
L 1202.659452 401.599979 
L 1204.8738 402.327353 
L 1205.980973 403.257295 
L 1207.088147 403.946331 
L 1208.195321 404.441069 
L 1210.409669 406.240294 
L 1212.624017 406.615338 
L 1214.838365 407.451259 
L 1215.945539 407.727218 
L 1217.052713 408.181748 
L 1218.159887 408.409362 
L 1219.26706 409.019637 
L 1220.374234 409.379645 
L 1223.695756 410.989304 
L 1227.017278 411.603085 
L 1228.124452 411.537673 
L 1230.3388 412.337675 
L 1231.445973 412.347617 
L 1233.660321 411.606376 
L 1234.767495 411.423833 
L 1235.874669 411.72925 
L 1236.981843 410.755749 
L 1238.089017 410.32844 
L 1239.196191 409.19272 
L 1241.410539 404.779216 
L 1242.517713 403.32851 
L 1243.624887 404.485064 
L 1244.73206 405.107229 
L 1245.839234 404.923216 
L 1246.946408 405.333479 
L 1248.053582 405.315781 
L 1249.160756 405.531107 
L 1252.482278 407.062726 
L 1253.589452 408.284505 
L 1254.696626 409.251583 
L 1255.8038 409.959828 
L 1256.910974 410.023622 
L 1258.018147 410.276348 
L 1259.125321 410.813555 
L 1260.232495 408.022734 
L 1261.339669 406.14867 
L 1262.446843 405.784205 
L 1263.554017 405.17314 
L 1264.661191 404.765453 
L 1265.768365 404.643554 
L 1266.875539 404.719978 
L 1267.982713 405.902535 
L 1269.089887 406.255214 
L 1270.19706 406.080988 
L 1271.304234 406.422741 
L 1272.411408 407.14939 
L 1273.518582 406.734987 
L 1274.625756 404.819271 
L 1275.73293 401.980614 
L 1276.840104 400.644626 
L 1277.947278 398.773359 
L 1279.054452 397.268979 
L 1280.161626 393.526985 
L 1281.2688 394.897706 
L 1282.375974 395.19166 
L 1283.483147 392.907572 
L 1284.590321 390.915727 
L 1285.697495 387.562015 
L 1286.804669 378.374823 
L 1287.911843 373.739519 
L 1289.019017 364.336691 
L 1290.126191 356.282953 
L 1291.233365 349.187663 
L 1293.447713 337.45824 
L 1294.554887 339.642929 
L 1295.662061 330.804601 
L 1296.769234 278.931933 
L 1296.769234 278.931933 
" style="fill:none;stroke:#2ca02c;stroke-linecap:square;stroke-width:0.5;"/>
   </g>
   <g id="patch_8">
    <path d="M 135.399157 431.242973 
L 135.399157 271.679027 
" style="fill:none;stroke:#000000;stroke-linecap:square;stroke-linejoin:miter;stroke-width:0.8;"/>
   </g>
   <g id="patch_9">
    <path d="M 1352.072571 431.242973 
L 1352.072571 271.679027 
" style="fill:none;stroke:#000000;stroke-linecap:square;stroke-linejoin:miter;stroke-width:0.8;"/>
   </g>
   <g id="patch_10">
    <path d="M 135.399157 431.242973 
L 1352.072571 431.242973 
" style="fill:none;stroke:#000000;stroke-linecap:square;stroke-linejoin:miter;stroke-width:0.8;"/>
   </g>
   <g id="patch_11">
    <path d="M 135.399157 271.679027 
L 1352.072571 271.679027 
" style="fill:none;stroke:#000000;stroke-linecap:square;stroke-linejoin:miter;stroke-width:0.8;"/>
   </g>
   <g id="text_16">
    <!-- NEES Pos: 6.7% inside CI -->
    <g transform="translate(669.044302 265.679027)scale(0.12 -0.12)">
     <defs>
      <path d="M 1259 4147 
L 1259 2394 
L 2053 2394 
Q 2494 2394 2734 2622 
Q 2975 2850 2975 3272 
Q 2975 3691 2734 3919 
Q 2494 4147 2053 4147 
L 1259 4147 
z
M 628 4666 
L 2053 4666 
Q 2838 4666 3239 4311 
Q 3641 3956 3641 3272 
Q 3641 2581 3239 2228 
Q 2838 1875 2053 1875 
L 1259 1875 
L 1259 0 
L 628 0 
L 628 4666 
z
" id="DejaVuSans-50" transform="scale(0.015625)"/>
      <path d="M 1959 3097 
Q 1497 3097 1228 2736 
Q 959 2375 959 1747 
Q 959 1119 1226 758 
Q 1494 397 1959 397 
Q 2419 397 2687 759 
Q 2956 1122 2956 1747 
Q 2956 2369 2687 2733 
Q 2419 3097 1959 3097 
z
M 1959 3584 
Q 2709 3584 3137 3096 
Q 3566 2609 3566 1747 
Q 3566 888 3137 398 
Q 2709 -91 1959 -91 
Q 1206 -91 779 398 
Q 353 888 353 1747 
Q 353 2609 779 3096 
Q 1206 3584 1959 3584 
z
" id="DejaVuSans-6f" transform="scale(0.015625)"/>
      <path d="M 2113 2584 
Q 1688 2584 1439 2293 
Q 1191 2003 1191 1497 
Q 1191 994 1439 701 
Q 1688 409 2113 409 
Q 2538 409 2786 701 
Q 3034 994 3034 1497 
Q 3034 2003 2786 2293 
Q 2538 2584 2113 2584 
z
M 3366 4563 
L 3366 3988 
Q 3128 4100 2886 4159 
Q 2644 4219 2406 4219 
Q 1781 4219 1451 3797 
Q 1122 3375 1075 2522 
Q 1259 2794 1537 2939 
Q 1816 3084 2150 3084 
Q 2853 3084 3261 2657 
Q 3669 2231 3669 1497 
Q 3669 778 3244 343 
Q 2819 -91 2113 -91 
Q 1303 -91 875 529 
Q 447 1150 447 2328 
Q 447 3434 972 4092 
Q 1497 4750 2381 4750 
Q 2619 4750 2861 4703 
Q 3103 4656 3366 4563 
z
" id="DejaVuSans-36" transform="scale(0.015625)"/>
     </defs>
     <use xlink:href="#DejaVuSans-4e"/>
     <use x="74.804688" xlink:href="#DejaVuSans-45"/>
     <use x="137.988281" xlink:href="#DejaVuSans-45"/>
     <use x="201.171875" xlink:href="#DejaVuSans-53"/>
     <use x="264.648438" xlink:href="#DejaVuSans-20"/>
     <use x="296.435547" xlink:href="#DejaVuSans-50"/>
     <use x="353.113281" xlink:href="#DejaVuSans-6f"/>
     <use x="414.294922" xlink:href="#DejaVuSans-73"/>
     <use x="466.394531" xlink:href="#DejaVuSans-3a"/>
     <use x="500.085938" xlink:href="#DejaVuSans-20"/>
     <use x="531.873047" xlink:href="#DejaVuSans-36"/>
     <use x="595.496094" xlink:href="#DejaVuSans-2e"/>
     <use x="627.283203" xlink:href="#DejaVuSans-37"/>
     <use x="690.90625" xlink:href="#DejaVuSans-25"/>
     <use x="785.925781" xlink:href="#DejaVuSans-20"/>
     <use x="817.712891" xlink:href="#DejaVuSans-69"/>
     <use x="845.496094" xlink:href="#DejaVuSans-6e"/>
     <use x="908.875" xlink:href="#DejaVuSans-73"/>
     <use x="960.974609" xlink:href="#DejaVuSans-69"/>
     <use x="988.757812" xlink:href="#DejaVuSans-64"/>
     <use x="1052.234375" xlink:href="#DejaVuSans-65"/>
     <use x="1113.757812" xlink:href="#DejaVuSans-20"/>
     <use x="1145.544922" xlink:href="#DejaVuSans-43"/>
     <use x="1215.369141" xlink:href="#DejaVuSans-49"/>
    </g>
   </g>
  </g>
  <g id="axes_3">
   <g id="patch_12">
    <path d="M 135.399157 650.29096 
L 1352.072571 650.29096 
L 1352.072571 490.727013 
L 135.399157 490.727013 
z
" style="fill:#ffffff;"/>
   </g>
   <g id="matplotlib.axis_5">
    <g id="xtick_13">
     <g id="line2d_59">
      <path clip-path="url(#p88bb22bc52)" d="M 190.702494 650.29096 
L 190.702494 490.727013 
" style="fill:none;stroke:#000000;stroke-dasharray:0.5,0.825;stroke-dashoffset:0;stroke-opacity:0.5;stroke-width:0.5;"/>
     </g>
     <g id="line2d_60">
      <g>
       <use style="stroke:#000000;stroke-width:0.8;" x="190.702494" xlink:href="#mb03f2b13c8" y="650.29096"/>
      </g>
     </g>
     <g id="text_17">
      <!-- 0 -->
      <g transform="translate(187.521244 664.889397)scale(0.1 -0.1)">
       <use xlink:href="#DejaVuSans-30"/>
      </g>
     </g>
    </g>
    <g id="xtick_14">
     <g id="line2d_61">
      <path clip-path="url(#p88bb22bc52)" d="M 412.137277 650.29096 
L 412.137277 490.727013 
" style="fill:none;stroke:#000000;stroke-dasharray:0.5,0.825;stroke-dashoffset:0;stroke-opacity:0.5;stroke-width:0.5;"/>
     </g>
     <g id="line2d_62">
      <g>
       <use style="stroke:#000000;stroke-width:0.8;" x="412.137277" xlink:href="#mb03f2b13c8" y="650.29096"/>
      </g>
     </g>
     <g id="text_18">
      <!-- 200 -->
      <g transform="translate(402.593527 664.889397)scale(0.1 -0.1)">
       <use xlink:href="#DejaVuSans-32"/>
       <use x="63.623047" xlink:href="#DejaVuSans-30"/>
       <use x="127.246094" xlink:href="#DejaVuSans-30"/>
      </g>
     </g>
    </g>
    <g id="xtick_15">
     <g id="line2d_63">
      <path clip-path="url(#p88bb22bc52)" d="M 633.57206 650.29096 
L 633.57206 490.727013 
" style="fill:none;stroke:#000000;stroke-dasharray:0.5,0.825;stroke-dashoffset:0;stroke-opacity:0.5;stroke-width:0.5;"/>
     </g>
     <g id="line2d_64">
      <g>
       <use style="stroke:#000000;stroke-width:0.8;" x="633.57206" xlink:href="#mb03f2b13c8" y="650.29096"/>
      </g>
     </g>
     <g id="text_19">
      <!-- 400 -->
      <g transform="translate(624.02831 664.889397)scale(0.1 -0.1)">
       <defs>
        <path d="M 2419 4116 
L 825 1625 
L 2419 1625 
L 2419 4116 
z
M 2253 4666 
L 3047 4666 
L 3047 1625 
L 3713 1625 
L 3713 1100 
L 3047 1100 
L 3047 0 
L 2419 0 
L 2419 1100 
L 313 1100 
L 313 1709 
L 2253 4666 
z
" id="DejaVuSans-34" transform="scale(0.015625)"/>
       </defs>
       <use xlink:href="#DejaVuSans-34"/>
       <use x="63.623047" xlink:href="#DejaVuSans-30"/>
       <use x="127.246094" xlink:href="#DejaVuSans-30"/>
      </g>
     </g>
    </g>
    <g id="xtick_16">
     <g id="line2d_65">
      <path clip-path="url(#p88bb22bc52)" d="M 855.006843 650.29096 
L 855.006843 490.727013 
" style="fill:none;stroke:#000000;stroke-dasharray:0.5,0.825;stroke-dashoffset:0;stroke-opacity:0.5;stroke-width:0.5;"/>
     </g>
     <g id="line2d_66">
      <g>
       <use style="stroke:#000000;stroke-width:0.8;" x="855.006843" xlink:href="#mb03f2b13c8" y="650.29096"/>
      </g>
     </g>
     <g id="text_20">
      <!-- 600 -->
      <g transform="translate(845.463093 664.889397)scale(0.1 -0.1)">
       <use xlink:href="#DejaVuSans-36"/>
       <use x="63.623047" xlink:href="#DejaVuSans-30"/>
       <use x="127.246094" xlink:href="#DejaVuSans-30"/>
      </g>
     </g>
    </g>
    <g id="xtick_17">
     <g id="line2d_67">
      <path clip-path="url(#p88bb22bc52)" d="M 1076.441625 650.29096 
L 1076.441625 490.727013 
" style="fill:none;stroke:#000000;stroke-dasharray:0.5,0.825;stroke-dashoffset:0;stroke-opacity:0.5;stroke-width:0.5;"/>
     </g>
     <g id="line2d_68">
      <g>
       <use style="stroke:#000000;stroke-width:0.8;" x="1076.441625" xlink:href="#mb03f2b13c8" y="650.29096"/>
      </g>
     </g>
     <g id="text_21">
      <!-- 800 -->
      <g transform="translate(1066.897875 664.889397)scale(0.1 -0.1)">
       <defs>
        <path d="M 2034 2216 
Q 1584 2216 1326 1975 
Q 1069 1734 1069 1313 
Q 1069 891 1326 650 
Q 1584 409 2034 409 
Q 2484 409 2743 651 
Q 3003 894 3003 1313 
Q 3003 1734 2745 1975 
Q 2488 2216 2034 2216 
z
M 1403 2484 
Q 997 2584 770 2862 
Q 544 3141 544 3541 
Q 544 4100 942 4425 
Q 1341 4750 2034 4750 
Q 2731 4750 3128 4425 
Q 3525 4100 3525 3541 
Q 3525 3141 3298 2862 
Q 3072 2584 2669 2484 
Q 3125 2378 3379 2068 
Q 3634 1759 3634 1313 
Q 3634 634 3220 271 
Q 2806 -91 2034 -91 
Q 1263 -91 848 271 
Q 434 634 434 1313 
Q 434 1759 690 2068 
Q 947 2378 1403 2484 
z
M 1172 3481 
Q 1172 3119 1398 2916 
Q 1625 2713 2034 2713 
Q 2441 2713 2670 2916 
Q 2900 3119 2900 3481 
Q 2900 3844 2670 4047 
Q 2441 4250 2034 4250 
Q 1625 4250 1398 4047 
Q 1172 3844 1172 3481 
z
" id="DejaVuSans-38" transform="scale(0.015625)"/>
       </defs>
       <use xlink:href="#DejaVuSans-38"/>
       <use x="63.623047" xlink:href="#DejaVuSans-30"/>
       <use x="127.246094" xlink:href="#DejaVuSans-30"/>
      </g>
     </g>
    </g>
    <g id="xtick_18">
     <g id="line2d_69">
      <path clip-path="url(#p88bb22bc52)" d="M 1297.876408 650.29096 
L 1297.876408 490.727013 
" style="fill:none;stroke:#000000;stroke-dasharray:0.5,0.825;stroke-dashoffset:0;stroke-opacity:0.5;stroke-width:0.5;"/>
     </g>
     <g id="line2d_70">
      <g>
       <use style="stroke:#000000;stroke-width:0.8;" x="1297.876408" xlink:href="#mb03f2b13c8" y="650.29096"/>
      </g>
     </g>
     <g id="text_22">
      <!-- 1000 -->
      <g transform="translate(1285.151408 664.889397)scale(0.1 -0.1)">
       <use xlink:href="#DejaVuSans-31"/>
       <use x="63.623047" xlink:href="#DejaVuSans-30"/>
       <use x="127.246094" xlink:href="#DejaVuSans-30"/>
       <use x="190.869141" xlink:href="#DejaVuSans-30"/>
      </g>
     </g>
    </g>
   </g>
   <g id="matplotlib.axis_6">
    <g id="ytick_15">
     <g id="line2d_71">
      <path clip-path="url(#p88bb22bc52)" d="M 135.399157 643.038053 
L 1352.072571 643.038053 
" style="fill:none;stroke:#000000;stroke-dasharray:0.5,0.825;stroke-dashoffset:0;stroke-opacity:0.5;stroke-width:0.5;"/>
     </g>
     <g id="line2d_72">
      <g>
       <use style="stroke:#000000;stroke-width:0.8;" x="135.399157" xlink:href="#mdfbe74ce89" y="643.038053"/>
      </g>
     </g>
     <g id="text_23">
      <!-- 0 -->
      <g transform="translate(122.036657 646.837272)scale(0.1 -0.1)">
       <use xlink:href="#DejaVuSans-30"/>
      </g>
     </g>
    </g>
    <g id="ytick_16">
     <g id="line2d_73">
      <path clip-path="url(#p88bb22bc52)" d="M 135.399157 606.061699 
L 1352.072571 606.061699 
" style="fill:none;stroke:#000000;stroke-dasharray:0.5,0.825;stroke-dashoffset:0;stroke-opacity:0.5;stroke-width:0.5;"/>
     </g>
     <g id="line2d_74">
      <g>
       <use style="stroke:#000000;stroke-width:0.8;" x="135.399157" xlink:href="#mdfbe74ce89" y="606.061699"/>
      </g>
     </g>
     <g id="text_24">
      <!-- 50 -->
      <g transform="translate(115.674157 609.860917)scale(0.1 -0.1)">
       <use xlink:href="#DejaVuSans-35"/>
       <use x="63.623047" xlink:href="#DejaVuSans-30"/>
      </g>
     </g>
    </g>
    <g id="ytick_17">
     <g id="line2d_75">
      <path clip-path="url(#p88bb22bc52)" d="M 135.399157 569.085344 
L 1352.072571 569.085344 
" style="fill:none;stroke:#000000;stroke-dasharray:0.5,0.825;stroke-dashoffset:0;stroke-opacity:0.5;stroke-width:0.5;"/>
     </g>
     <g id="line2d_76">
      <g>
       <use style="stroke:#000000;stroke-width:0.8;" x="135.399157" xlink:href="#mdfbe74ce89" y="569.085344"/>
      </g>
     </g>
     <g id="text_25">
      <!-- 100 -->
      <g transform="translate(109.311657 572.884563)scale(0.1 -0.1)">
       <use xlink:href="#DejaVuSans-31"/>
       <use x="63.623047" xlink:href="#DejaVuSans-30"/>
       <use x="127.246094" xlink:href="#DejaVuSans-30"/>
      </g>
     </g>
    </g>
    <g id="ytick_18">
     <g id="line2d_77">
      <path clip-path="url(#p88bb22bc52)" d="M 135.399157 532.108989 
L 1352.072571 532.108989 
" style="fill:none;stroke:#000000;stroke-dasharray:0.5,0.825;stroke-dashoffset:0;stroke-opacity:0.5;stroke-width:0.5;"/>
     </g>
     <g id="line2d_78">
      <g>
       <use style="stroke:#000000;stroke-width:0.8;" x="135.399157" xlink:href="#mdfbe74ce89" y="532.108989"/>
      </g>
     </g>
     <g id="text_26">
      <!-- 150 -->
      <g transform="translate(109.311657 535.908208)scale(0.1 -0.1)">
       <use xlink:href="#DejaVuSans-31"/>
       <use x="63.623047" xlink:href="#DejaVuSans-35"/>
       <use x="127.246094" xlink:href="#DejaVuSans-30"/>
      </g>
     </g>
    </g>
    <g id="ytick_19">
     <g id="line2d_79">
      <path clip-path="url(#p88bb22bc52)" d="M 135.399157 495.132635 
L 1352.072571 495.132635 
" style="fill:none;stroke:#000000;stroke-dasharray:0.5,0.825;stroke-dashoffset:0;stroke-opacity:0.5;stroke-width:0.5;"/>
     </g>
     <g id="line2d_80">
      <g>
       <use style="stroke:#000000;stroke-width:0.8;" x="135.399157" xlink:href="#mdfbe74ce89" y="495.132635"/>
      </g>
     </g>
     <g id="text_27">
      <!-- 200 -->
      <g transform="translate(109.311657 498.931854)scale(0.1 -0.1)">
       <use xlink:href="#DejaVuSans-32"/>
       <use x="63.623047" xlink:href="#DejaVuSans-30"/>
       <use x="127.246094" xlink:href="#DejaVuSans-30"/>
      </g>
     </g>
    </g>
   </g>
   <g id="line2d_81">
    <path clip-path="url(#p88bb22bc52)" d="M 190.702494 643.037327 
L 1296.769234 643.037327 
L 1296.769234 643.037327 
" style="fill:none;stroke:#1f77b4;stroke-dasharray:5.55,2.4;stroke-dashoffset:0;stroke-width:1.5;"/>
   </g>
   <g id="line2d_82">
    <path clip-path="url(#p88bb22bc52)" d="M 190.702494 639.322753 
L 1296.769234 639.322753 
L 1296.769234 639.322753 
" style="fill:none;stroke:#ff7f0e;stroke-dasharray:5.55,2.4;stroke-dashoffset:0;stroke-width:1.5;"/>
   </g>
   <g id="line2d_83">
    <path clip-path="url(#p88bb22bc52)" d="M 190.702494 643.038053 
L 223.917712 643.012803 
L 234.989451 643.025908 
L 273.740538 643.036385 
L 274.847712 642.418343 
L 279.276407 641.168353 
L 280.383581 641.038493 
L 281.490755 640.34646 
L 282.597929 639.827576 
L 284.812277 640.195731 
L 285.919451 639.648177 
L 287.026625 639.226487 
L 288.133799 639.514161 
L 289.240973 639.415809 
L 290.348146 641.26293 
L 292.562494 641.790587 
L 294.776842 641.692571 
L 295.884016 641.569189 
L 296.99119 641.575732 
L 298.098364 641.874492 
L 299.205538 640.383213 
L 300.312712 639.380168 
L 301.419886 638.934913 
L 302.527059 640.855504 
L 303.634233 641.251351 
L 305.848581 641.399693 
L 306.955755 641.304909 
L 308.062929 641.52812 
L 309.170103 641.187262 
L 311.384451 641.267683 
L 312.491625 641.435067 
L 314.705973 641.449115 
L 315.813146 641.644094 
L 316.92032 641.650773 
L 318.027494 641.447713 
L 319.134668 641.681022 
L 320.241842 641.665667 
L 321.349016 641.964483 
L 322.45619 642.017828 
L 323.563364 641.95146 
L 324.670538 643.037151 
L 325.777712 642.928817 
L 326.884886 642.539626 
L 329.099233 642.125435 
L 333.527929 642.341104 
L 334.635103 642.164419 
L 335.742277 642.266374 
L 336.849451 642.234804 
L 337.956625 641.944593 
L 341.278146 642.193511 
L 344.599668 642.284304 
L 345.706842 642.424616 
L 349.028364 642.091342 
L 350.135538 642.128159 
L 351.242712 641.83871 
L 352.349886 641.97643 
L 353.45706 641.661537 
L 355.671407 642.213696 
L 357.885755 642.120023 
L 358.992929 642.244757 
L 360.100103 642.101724 
L 362.314451 642.230455 
L 363.421625 642.298674 
L 364.528799 642.162253 
L 365.635973 642.374554 
L 366.743147 642.346358 
L 367.85032 642.486924 
L 368.957494 642.185315 
L 370.064668 642.455815 
L 372.279016 642.165935 
L 374.493364 641.945346 
L 375.600538 642.292531 
L 376.707712 642.372656 
L 378.92206 642.349152 
L 381.136407 642.348184 
L 383.350755 642.236176 
L 386.672277 642.513126 
L 389.993799 642.361513 
L 391.100973 640.704054 
L 392.208147 639.697361 
L 394.422494 639.257525 
L 395.529668 639.39146 
L 396.636842 641.735186 
L 397.744016 642.080644 
L 404.38706 642.248277 
L 407.708581 642.300369 
L 408.815755 642.4398 
L 412.137277 642.217345 
L 413.244451 642.188315 
L 414.351625 642.367759 
L 415.458799 642.0663 
L 416.565973 642.373283 
L 417.673147 642.079336 
L 418.78032 642.015151 
L 419.887494 642.176182 
L 420.994668 642.211628 
L 422.101842 642.372412 
L 423.209016 642.284225 
L 424.31619 642.424625 
L 425.423364 642.439809 
L 426.530538 642.211715 
L 428.744886 642.426604 
L 429.85206 642.271099 
L 430.959234 642.368105 
L 433.173581 642.34654 
L 434.280755 642.590872 
L 435.387929 642.409476 
L 438.709451 642.318216 
L 440.923799 642.437491 
L 442.030973 642.321598 
L 443.138147 642.045249 
L 446.459668 642.429745 
L 448.674016 642.071224 
L 450.888364 642.276935 
L 451.995538 642.236013 
L 453.102712 642.442221 
L 454.209886 642.451291 
L 455.31706 642.330262 
L 456.424234 642.476989 
L 457.531407 642.487885 
L 458.638581 642.350093 
L 459.745755 642.662611 
L 463.067277 642.35581 
L 464.174451 642.438246 
L 466.388799 642.27977 
L 468.603147 642.573054 
L 469.710321 642.333772 
L 470.817494 642.623229 
L 471.924668 642.568522 
L 474.139016 642.215523 
L 476.353364 642.342781 
L 478.567712 642.299709 
L 481.889234 642.306711 
L 482.996407 642.443572 
L 486.317929 642.352996 
L 487.425103 642.080663 
L 488.532277 642.518936 
L 489.639451 642.341868 
L 492.960973 642.274009 
L 495.175321 642.417168 
L 498.496842 642.234567 
L 504.032712 642.35884 
L 505.139886 642.259785 
L 506.24706 642.452654 
L 507.354234 642.475108 
L 509.568581 642.231275 
L 510.675755 642.408332 
L 512.890103 642.317998 
L 513.997277 642.569242 
L 516.211625 642.398856 
L 519.533147 642.225722 
L 520.640321 642.449797 
L 521.747494 642.451452 
L 522.854668 642.293991 
L 523.961842 642.393927 
L 527.283364 642.205623 
L 528.390538 642.389306 
L 530.604886 642.32248 
L 531.71206 642.562587 
L 538.355103 642.255833 
L 539.462277 642.374209 
L 540.569451 642.291502 
L 541.676625 642.378921 
L 542.783799 642.304597 
L 544.998147 638.329016 
L 546.105321 636.835384 
L 547.212495 633.977563 
L 548.319668 633.27928 
L 549.426842 633.941781 
L 550.534016 628.274298 
L 551.64119 624.326581 
L 552.748364 629.561525 
L 553.855538 631.778085 
L 554.962712 631.439066 
L 556.069886 629.48732 
L 557.17706 628.973539 
L 558.284234 629.70946 
L 559.391408 629.816431 
L 560.498581 634.558642 
L 562.712929 638.149196 
L 564.927277 636.225088 
L 566.034451 639.623178 
L 567.141625 640.197579 
L 568.248799 640.312482 
L 569.355973 639.941403 
L 570.463147 640.220911 
L 571.570321 636.115311 
L 572.677495 633.689628 
L 573.784668 638.034806 
L 574.891842 639.235667 
L 575.999016 639.052776 
L 577.10619 638.59962 
L 578.213364 637.689465 
L 579.320538 637.721747 
L 580.427712 637.445131 
L 582.64206 638.241735 
L 583.749234 638.002426 
L 585.963582 638.628571 
L 587.070755 639.127297 
L 588.177929 638.840621 
L 589.285103 637.899032 
L 590.392277 638.261868 
L 591.499451 637.534679 
L 593.713799 638.304613 
L 594.820973 637.57216 
L 595.928147 636.511588 
L 597.035321 636.167646 
L 598.142495 636.381908 
L 599.249668 636.295928 
L 600.356842 635.856561 
L 601.464016 636.060357 
L 602.57119 635.545187 
L 603.678364 635.437299 
L 604.785538 635.966992 
L 605.892712 635.535529 
L 606.999886 636.110251 
L 608.10706 639.701323 
L 609.214234 640.953123 
L 610.321408 633.421984 
L 611.428582 627.465172 
L 612.535755 628.183512 
L 613.642929 625.097054 
L 614.750103 632.164579 
L 615.857277 633.677389 
L 616.964451 637.78286 
L 618.071625 635.262248 
L 619.178799 633.944982 
L 620.285973 633.843799 
L 621.393147 633.283079 
L 622.500321 632.857266 
L 623.607495 633.057501 
L 624.714669 633.636287 
L 626.929016 633.31276 
L 628.03619 632.668159 
L 629.143364 633.347155 
L 630.250538 633.431578 
L 631.357712 636.063189 
L 632.464886 636.682258 
L 633.57206 636.3682 
L 634.679234 637.040333 
L 635.786408 637.405735 
L 636.893582 637.540711 
L 638.000755 634.502572 
L 639.107929 633.207132 
L 640.215103 633.84386 
L 641.322277 633.103689 
L 642.429451 632.887953 
L 643.536625 633.299183 
L 644.643799 633.330111 
L 645.750973 633.964165 
L 646.858147 634.114199 
L 647.965321 633.400571 
L 649.072495 631.271764 
L 650.179669 632.504229 
L 651.286842 634.545624 
L 652.394016 634.916975 
L 653.50119 634.765331 
L 654.608364 634.112691 
L 655.715538 635.513303 
L 656.822712 639.773827 
L 659.03706 641.435692 
L 660.144234 641.381982 
L 663.465756 642.10186 
L 664.572929 639.399019 
L 665.680103 638.757634 
L 666.787277 638.668356 
L 667.894451 638.820894 
L 669.001625 638.440063 
L 670.108799 637.268849 
L 671.215973 637.036872 
L 672.323147 637.918334 
L 673.430321 638.269867 
L 674.537495 637.971399 
L 680.073364 640.000551 
L 681.180538 640.034815 
L 682.287712 639.547964 
L 684.50206 640.972471 
L 685.609234 641.220461 
L 686.716408 640.963154 
L 687.823582 640.4344 
L 690.037929 642.049019 
L 691.145103 642.11152 
L 692.252277 642.601 
L 693.359451 642.625619 
L 694.466625 642.026975 
L 695.573799 641.033469 
L 696.680973 641.242064 
L 697.788147 642.047281 
L 698.895321 642.478971 
L 700.002495 642.572874 
L 701.109669 640.93228 
L 702.216843 640.36017 
L 704.43119 639.556371 
L 705.538364 639.971377 
L 706.645538 639.818026 
L 707.752712 639.973187 
L 708.859886 642.114229 
L 709.96706 642.441148 
L 711.074234 641.600695 
L 713.288582 642.098514 
L 714.395756 641.993308 
L 715.502929 640.480427 
L 716.610103 640.767515 
L 717.717277 639.03717 
L 718.824451 639.415781 
L 719.931625 641.74736 
L 721.038799 637.680895 
L 722.145973 635.762906 
L 723.253147 640.421857 
L 724.360321 641.48134 
L 726.574669 641.655779 
L 727.681843 641.722455 
L 728.789016 641.921959 
L 729.89619 641.560024 
L 731.003364 641.833558 
L 732.110538 641.685112 
L 735.43206 641.792361 
L 736.539234 641.86529 
L 737.646408 642.307004 
L 738.753582 642.586501 
L 739.860756 639.032854 
L 740.96793 637.082294 
L 742.075103 635.846095 
L 743.182277 635.093439 
L 744.289451 638.680055 
L 745.396625 639.330203 
L 746.503799 639.364224 
L 748.718147 639.772313 
L 749.825321 639.425502 
L 750.932495 639.530932 
L 754.254016 639.255979 
L 755.36119 639.78945 
L 756.468364 639.87566 
L 757.575538 640.592795 
L 759.789886 640.222591 
L 760.89706 641.203063 
L 762.004234 641.175034 
L 763.111408 641.447439 
L 764.218582 639.424201 
L 766.43293 638.079666 
L 767.540103 637.66074 
L 768.647277 637.78866 
L 769.754451 642.030489 
L 770.861625 642.765352 
L 771.968799 641.4713 
L 774.183147 640.801904 
L 775.290321 641.093269 
L 776.397495 641.233388 
L 777.504669 640.469062 
L 780.82619 640.094083 
L 781.933364 639.781476 
L 783.040538 640.405636 
L 784.147712 639.173028 
L 786.36206 637.590676 
L 787.469234 637.283454 
L 788.576408 638.082373 
L 789.683582 638.028777 
L 790.790756 639.062068 
L 791.89793 639.525919 
L 793.005103 639.750869 
L 794.112277 641.419756 
L 795.219451 641.552708 
L 796.326625 640.5565 
L 797.433799 640.075084 
L 798.540973 640.418159 
L 799.648147 640.294528 
L 800.755321 640.579111 
L 801.862495 640.341697 
L 802.969669 639.939736 
L 804.076843 640.176474 
L 805.184017 640.057633 
L 806.29119 640.09588 
L 807.398364 639.548029 
L 808.505538 639.912439 
L 809.612712 639.963438 
L 810.719886 639.855016 
L 811.82706 640.090277 
L 812.934234 640.176484 
L 814.041408 639.571444 
L 815.148582 640.007347 
L 816.255756 640.599248 
L 817.36293 641.981662 
L 818.470103 640.544 
L 819.577277 639.483706 
L 821.791625 640.820204 
L 822.898799 640.580807 
L 824.005973 640.227041 
L 825.113147 639.585866 
L 827.327495 640.094749 
L 831.75619 638.387266 
L 832.863364 637.76232 
L 833.970538 640.620328 
L 836.184886 636.627742 
L 837.29206 634.736998 
L 838.399234 634.030721 
L 839.506408 631.233764 
L 840.613582 634.378276 
L 841.720756 637.053694 
L 842.82793 637.756996 
L 843.935104 636.159635 
L 845.042277 635.913431 
L 846.149451 636.065565 
L 847.256625 640.342682 
L 848.363799 642.266282 
L 849.470973 642.861685 
L 851.685321 642.708309 
L 852.792495 641.95133 
L 855.006843 635.349125 
L 856.114017 637.866008 
L 857.22119 638.861054 
L 858.328364 637.874566 
L 859.435538 637.434411 
L 860.542712 637.693296 
L 861.649886 637.646299 
L 862.75706 637.460836 
L 863.864234 637.405505 
L 864.971408 639.11761 
L 866.078582 639.567798 
L 867.185756 639.824115 
L 868.29293 639.271274 
L 869.400104 638.910496 
L 870.507277 638.831069 
L 871.614451 639.300371 
L 873.828799 638.701164 
L 874.935973 638.920634 
L 876.043147 638.949808 
L 877.150321 639.274011 
L 878.257495 639.389721 
L 879.364669 637.931331 
L 880.471843 637.665464 
L 883.793364 635.797258 
L 884.900538 636.304967 
L 886.007712 637.247204 
L 888.22206 635.142966 
L 889.329234 634.770979 
L 890.436408 635.189135 
L 892.650756 634.334968 
L 893.75793 639.244558 
L 894.865104 640.475096 
L 895.972277 641.003568 
L 897.079451 641.725437 
L 899.293799 642.294101 
L 900.400973 642.068718 
L 901.508147 642.311796 
L 902.615321 642.111275 
L 903.722495 642.528423 
L 904.829669 640.767221 
L 905.936843 640.016665 
L 907.044017 637.990335 
L 908.151191 636.842446 
L 909.258364 633.552081 
L 910.365538 633.578846 
L 911.472712 631.550969 
L 912.579886 632.475247 
L 914.794234 631.323233 
L 915.901408 632.562428 
L 917.008582 631.699804 
L 918.115756 630.319929 
L 919.22293 635.910304 
L 920.330104 637.90697 
L 921.437278 640.24833 
L 922.544451 640.812506 
L 923.651625 640.70941 
L 924.758799 642.087395 
L 925.865973 642.970315 
L 926.973147 642.873976 
L 928.080321 643.036543 
L 933.616191 642.989075 
L 935.830538 643.023745 
L 936.937712 642.806087 
L 938.044886 642.719525 
L 939.15206 643.030291 
L 940.259234 642.92399 
L 941.366408 643.033607 
L 943.580756 643.037853 
L 944.68793 641.792874 
L 945.795104 639.663103 
L 946.902278 642.0404 
L 949.116625 642.816998 
L 950.223799 643.032088 
L 951.330973 642.608085 
L 953.545321 642.34047 
L 954.652495 642.46996 
L 955.759669 642.410533 
L 959.081191 643.022731 
L 960.188365 642.814867 
L 963.509886 642.636246 
L 964.61706 642.290425 
L 965.724234 642.260782 
L 966.831408 641.561922 
L 967.938582 641.300546 
L 969.045756 640.918091 
L 970.15293 641.489928 
L 971.260104 642.772381 
L 972.367278 642.967451 
L 976.795973 643.010525 
L 979.010321 642.621585 
L 981.224669 641.109815 
L 982.331843 641.037598 
L 983.439017 641.110496 
L 984.546191 640.957585 
L 985.653365 641.079875 
L 986.760538 641.020006 
L 987.867712 641.224656 
L 990.08206 640.921881 
L 991.189234 640.437933 
L 992.296408 640.627475 
L 993.403582 640.59218 
L 994.510756 640.697231 
L 995.61793 640.973829 
L 997.832278 640.72378 
L 998.939452 641.016768 
L 1000.046625 640.79646 
L 1001.153799 640.874815 
L 1004.475321 640.506817 
L 1005.582495 640.050057 
L 1006.689669 640.23131 
L 1007.796843 640.246738 
L 1008.904017 640.048676 
L 1010.011191 640.190914 
L 1011.118365 637.561369 
L 1012.225538 636.217538 
L 1013.332712 635.173892 
L 1014.439886 635.207122 
L 1015.54706 639.221759 
L 1016.654234 640.198705 
L 1017.761408 640.382456 
L 1018.868582 640.314762 
L 1021.08293 642.225211 
L 1022.190104 642.745484 
L 1023.297278 642.903886 
L 1025.511625 635.516839 
L 1026.618799 634.227448 
L 1027.725973 639.841124 
L 1028.833147 641.445157 
L 1029.940321 641.904543 
L 1035.476191 642.040381 
L 1036.583365 642.229603 
L 1037.690538 642.192509 
L 1038.797712 642.457909 
L 1039.904886 642.527782 
L 1041.01206 642.324251 
L 1043.226408 642.385494 
L 1044.333582 642.408395 
L 1045.440756 642.124255 
L 1047.655104 642.179695 
L 1048.762278 640.329715 
L 1049.869452 639.413781 
L 1050.976625 639.281775 
L 1052.083799 643.005434 
L 1053.190973 642.464932 
L 1054.298147 641.667209 
L 1055.405321 641.745713 
L 1056.512495 641.695093 
L 1057.619669 641.375706 
L 1058.726843 641.534476 
L 1059.834017 641.569362 
L 1060.941191 641.832588 
L 1062.048365 641.589267 
L 1064.262712 641.847457 
L 1065.369886 641.959326 
L 1066.47706 641.673909 
L 1067.584234 641.999769 
L 1068.691408 641.910958 
L 1069.798582 641.663547 
L 1072.01293 641.543255 
L 1073.120104 641.943909 
L 1074.227278 641.955388 
L 1075.334452 642.138594 
L 1076.441625 641.874702 
L 1077.548799 641.864038 
L 1078.655973 642.08815 
L 1080.870321 642.03302 
L 1081.977495 642.036925 
L 1083.084669 641.777898 
L 1084.191843 641.817541 
L 1085.299017 641.972521 
L 1088.620539 641.689223 
L 1090.834886 642.084989 
L 1091.94206 641.783231 
L 1093.049234 641.978587 
L 1094.156408 641.87185 
L 1095.263582 641.990701 
L 1096.370756 641.791571 
L 1098.585104 641.857095 
L 1099.692278 642.226931 
L 1100.799452 641.972108 
L 1105.228147 642.223639 
L 1106.335321 642.115291 
L 1107.442495 642.328278 
L 1109.656843 642.249185 
L 1110.764017 642.051188 
L 1111.871191 642.253388 
L 1112.978365 642.30176 
L 1114.085539 641.851057 
L 1115.192712 643.024367 
L 1116.299886 642.165771 
L 1117.40706 641.893453 
L 1118.514234 642.190251 
L 1122.94293 641.877406 
L 1124.050104 642.001956 
L 1125.157278 641.839658 
L 1126.264452 641.861221 
L 1128.478799 642.136537 
L 1129.585973 642.284572 
L 1130.693147 642.761904 
L 1131.800321 641.984095 
L 1132.907495 641.787033 
L 1134.014669 641.866742 
L 1135.121843 641.81628 
L 1136.229017 641.620958 
L 1137.336191 641.980153 
L 1138.443365 641.854864 
L 1139.550539 642.011376 
L 1142.87206 642.211785 
L 1143.979234 640.62463 
L 1145.086408 642.318325 
L 1146.193582 642.596936 
L 1149.515104 642.857316 
L 1150.622278 643.037769 
L 1151.729452 642.894154 
L 1152.836626 642.429181 
L 1153.943799 642.085673 
L 1155.050973 641.28214 
L 1157.265321 643.029714 
L 1163.908365 642.994545 
L 1165.015539 642.949011 
L 1166.122713 642.739196 
L 1167.229886 642.983641 
L 1168.33706 642.317454 
L 1169.444234 641.868638 
L 1170.551408 642.109307 
L 1171.658582 641.745697 
L 1172.765756 640.71841 
L 1173.87293 642.024925 
L 1174.980104 641.898933 
L 1176.087278 642.05194 
L 1177.194452 642.745762 
L 1179.4088 643.028982 
L 1183.837495 643.031265 
L 1184.944669 642.513498 
L 1186.051843 643.03416 
L 1189.373365 642.732611 
L 1190.480539 642.922871 
L 1193.80206 642.983872 
L 1194.909234 642.263442 
L 1196.016408 642.158024 
L 1197.123582 641.853008 
L 1199.33793 642.275894 
L 1200.445104 642.017982 
L 1201.552278 641.87628 
L 1202.659452 642.110191 
L 1203.766626 641.93109 
L 1205.980973 642.235974 
L 1207.088147 642.053416 
L 1209.302495 642.141685 
L 1210.409669 642.158256 
L 1211.516843 641.815613 
L 1212.624017 642.151415 
L 1213.731191 642.074398 
L 1214.838365 641.687615 
L 1215.945539 641.72715 
L 1217.052713 641.179242 
L 1218.159887 640.944149 
L 1219.26706 640.887408 
L 1220.374234 640.533847 
L 1221.481408 640.456293 
L 1222.588582 641.342859 
L 1223.695756 641.629129 
L 1224.80293 641.59185 
L 1227.017278 642.221106 
L 1228.124452 642.129505 
L 1229.231626 642.273623 
L 1230.3388 642.25849 
L 1231.445973 642.41871 
L 1232.553147 641.743237 
L 1234.767495 641.158386 
L 1235.874669 639.188251 
L 1236.981843 637.988081 
L 1238.089017 638.273879 
L 1239.196191 640.69955 
L 1240.303365 641.529454 
L 1242.517713 641.40015 
L 1243.624887 638.397198 
L 1244.73206 636.174208 
L 1245.839234 636.288332 
L 1246.946408 639.643495 
L 1248.053582 634.066823 
L 1249.160756 629.552756 
L 1250.26793 627.650936 
L 1251.375104 628.487384 
L 1252.482278 617.147247 
L 1253.589452 600.979758 
L 1254.696626 592.412698 
L 1255.8038 576.814929 
L 1256.910974 594.774458 
L 1258.018147 600.399022 
L 1259.125321 608.224232 
L 1260.232495 626.153021 
L 1261.339669 629.236021 
L 1262.446843 633.545738 
L 1263.554017 634.137118 
L 1264.661191 633.15821 
L 1265.768365 634.598574 
L 1266.875539 634.563062 
L 1267.982713 633.537818 
L 1269.089887 631.180459 
L 1270.19706 629.964071 
L 1271.304234 626.391504 
L 1272.411408 612.811444 
L 1273.518582 602.869432 
L 1274.625756 600.084102 
L 1275.73293 598.047004 
L 1276.840104 603.470318 
L 1277.947278 602.97383 
L 1279.054452 603.084741 
L 1280.161626 601.983106 
L 1281.2688 611.437342 
L 1282.375974 615.624308 
L 1283.483147 614.567542 
L 1284.590321 613.877535 
L 1285.697495 614.32344 
L 1286.804669 611.396348 
L 1287.911843 605.483046 
L 1289.019017 596.163048 
L 1290.126191 595.011722 
L 1291.233365 593.482043 
L 1292.340539 593.540572 
L 1293.447713 592.759866 
L 1294.554887 600.33427 
L 1295.662061 593.644551 
L 1296.769234 497.97992 
L 1296.769234 497.97992 
" style="fill:none;stroke:#2ca02c;stroke-linecap:square;stroke-width:0.5;"/>
   </g>
   <g id="patch_13">
    <path d="M 135.399157 650.29096 
L 135.399157 490.727013 
" style="fill:none;stroke:#000000;stroke-linecap:square;stroke-linejoin:miter;stroke-width:0.8;"/>
   </g>
   <g id="patch_14">
    <path d="M 1352.072571 650.29096 
L 1352.072571 490.727013 
" style="fill:none;stroke:#000000;stroke-linecap:square;stroke-linejoin:miter;stroke-width:0.8;"/>
   </g>
   <g id="patch_15">
    <path d="M 135.399157 650.29096 
L 1352.072571 650.29096 
" style="fill:none;stroke:#000000;stroke-linecap:square;stroke-linejoin:miter;stroke-width:0.8;"/>
   </g>
   <g id="patch_16">
    <path d="M 135.399157 490.727013 
L 1352.072571 490.727013 
" style="fill:none;stroke:#000000;stroke-linecap:square;stroke-linejoin:miter;stroke-width:0.8;"/>
   </g>
   <g id="text_28">
    <!-- NEES Heading: 73.3% inside CI -->
    <g transform="translate(650.455552 484.727013)scale(0.12 -0.12)">
     <defs>
      <path d="M 628 4666 
L 1259 4666 
L 1259 2753 
L 3553 2753 
L 3553 4666 
L 4184 4666 
L 4184 0 
L 3553 0 
L 3553 2222 
L 1259 2222 
L 1259 0 
L 628 0 
L 628 4666 
z
" id="DejaVuSans-48" transform="scale(0.015625)"/>
      <path d="M 2194 1759 
Q 1497 1759 1228 1600 
Q 959 1441 959 1056 
Q 959 750 1161 570 
Q 1363 391 1709 391 
Q 2188 391 2477 730 
Q 2766 1069 2766 1631 
L 2766 1759 
L 2194 1759 
z
M 3341 1997 
L 3341 0 
L 2766 0 
L 2766 531 
Q 2569 213 2275 61 
Q 1981 -91 1556 -91 
Q 1019 -91 701 211 
Q 384 513 384 1019 
Q 384 1609 779 1909 
Q 1175 2209 1959 2209 
L 2766 2209 
L 2766 2266 
Q 2766 2663 2505 2880 
Q 2244 3097 1772 3097 
Q 1472 3097 1187 3025 
Q 903 2953 641 2809 
L 641 3341 
Q 956 3463 1253 3523 
Q 1550 3584 1831 3584 
Q 2591 3584 2966 3190 
Q 3341 2797 3341 1997 
z
" id="DejaVuSans-61" transform="scale(0.015625)"/>
      <path d="M 2906 1791 
Q 2906 2416 2648 2759 
Q 2391 3103 1925 3103 
Q 1463 3103 1205 2759 
Q 947 2416 947 1791 
Q 947 1169 1205 825 
Q 1463 481 1925 481 
Q 2391 481 2648 825 
Q 2906 1169 2906 1791 
z
M 3481 434 
Q 3481 -459 3084 -895 
Q 2688 -1331 1869 -1331 
Q 1566 -1331 1297 -1286 
Q 1028 -1241 775 -1147 
L 775 -588 
Q 1028 -725 1275 -790 
Q 1522 -856 1778 -856 
Q 2344 -856 2625 -561 
Q 2906 -266 2906 331 
L 2906 616 
Q 2728 306 2450 153 
Q 2172 0 1784 0 
Q 1141 0 747 490 
Q 353 981 353 1791 
Q 353 2603 747 3093 
Q 1141 3584 1784 3584 
Q 2172 3584 2450 3431 
Q 2728 3278 2906 2969 
L 2906 3500 
L 3481 3500 
L 3481 434 
z
" id="DejaVuSans-67" transform="scale(0.015625)"/>
      <path d="M 2597 2516 
Q 3050 2419 3304 2112 
Q 3559 1806 3559 1356 
Q 3559 666 3084 287 
Q 2609 -91 1734 -91 
Q 1441 -91 1130 -33 
Q 819 25 488 141 
L 488 750 
Q 750 597 1062 519 
Q 1375 441 1716 441 
Q 2309 441 2620 675 
Q 2931 909 2931 1356 
Q 2931 1769 2642 2001 
Q 2353 2234 1838 2234 
L 1294 2234 
L 1294 2753 
L 1863 2753 
Q 2328 2753 2575 2939 
Q 2822 3125 2822 3475 
Q 2822 3834 2567 4026 
Q 2313 4219 1838 4219 
Q 1578 4219 1281 4162 
Q 984 4106 628 3988 
L 628 4550 
Q 988 4650 1302 4700 
Q 1616 4750 1894 4750 
Q 2613 4750 3031 4423 
Q 3450 4097 3450 3541 
Q 3450 3153 3228 2886 
Q 3006 2619 2597 2516 
z
" id="DejaVuSans-33" transform="scale(0.015625)"/>
     </defs>
     <use xlink:href="#DejaVuSans-4e"/>
     <use x="74.804688" xlink:href="#DejaVuSans-45"/>
     <use x="137.988281" xlink:href="#DejaVuSans-45"/>
     <use x="201.171875" xlink:href="#DejaVuSans-53"/>
     <use x="264.648438" xlink:href="#DejaVuSans-20"/>
     <use x="296.435547" xlink:href="#DejaVuSans-48"/>
     <use x="371.630859" xlink:href="#DejaVuSans-65"/>
     <use x="433.154297" xlink:href="#DejaVuSans-61"/>
     <use x="494.433594" xlink:href="#DejaVuSans-64"/>
     <use x="557.910156" xlink:href="#DejaVuSans-69"/>
     <use x="585.693359" xlink:href="#DejaVuSans-6e"/>
     <use x="649.072266" xlink:href="#DejaVuSans-67"/>
     <use x="712.548828" xlink:href="#DejaVuSans-3a"/>
     <use x="746.240234" xlink:href="#DejaVuSans-20"/>
     <use x="778.027344" xlink:href="#DejaVuSans-37"/>
     <use x="841.650391" xlink:href="#DejaVuSans-33"/>
     <use x="905.273438" xlink:href="#DejaVuSans-2e"/>
     <use x="937.060547" xlink:href="#DejaVuSans-33"/>
     <use x="1000.683594" xlink:href="#DejaVuSans-25"/>
     <use x="1095.703125" xlink:href="#DejaVuSans-20"/>
     <use x="1127.490234" xlink:href="#DejaVuSans-69"/>
     <use x="1155.273438" xlink:href="#DejaVuSans-6e"/>
     <use x="1218.652344" xlink:href="#DejaVuSans-73"/>
     <use x="1270.751953" xlink:href="#DejaVuSans-69"/>
     <use x="1298.535156" xlink:href="#DejaVuSans-64"/>
     <use x="1362.011719" xlink:href="#DejaVuSans-65"/>
     <use x="1423.535156" xlink:href="#DejaVuSans-20"/>
     <use x="1455.322266" xlink:href="#DejaVuSans-43"/>
     <use x="1525.146484" xlink:href="#DejaVuSans-49"/>
    </g>
   </g>
  </g>
 </g>
 <defs>
  <clipPath id="pccf54cbab6">
   <rect height="159.563947" width="1216.673414" x="135.399157" y="52.63104"/>
  </clipPath>
  <clipPath id="p1d606d8973">
   <rect height="159.563947" width="1216.673414" x="135.399157" y="271.679027"/>
  </clipPath>
  <clipPath id="p88bb22bc52">
   <rect height="159.563947" width="1216.673414" x="135.399157" y="490.727013"/>
  </clipPath>
 </defs>
</svg>
