<?xml version="1.0" encoding="utf-8" standalone="no"?>
<!DOCTYPE svg PUBLIC "-//W3C//DTD SVG 1.1//EN"
  "http://www.w3.org/Graphics/SVG/1.1/DTD/svg11.dtd">
<svg height="702.72pt" version="1.1" viewBox="0 0 1383.12 702.72" width="1383.12pt" xmlns="http://www.w3.org/2000/svg" xmlns:xlink="http://www.w3.org/1999/xlink">
 <metadata>
  <rdf:RDF xmlns:cc="http://creativecommons.org/ns#" xmlns:dc="http://purl.org/dc/elements/1.1/" xmlns:rdf="http://www.w3.org/1999/02/22-rdf-syntax-ns#">
   <cc:Work>
    <dc:type rdf:resource="http://purl.org/dc/dcmitype/StillImage"/>
    <dc:date>2021-11-17T15:30:18.110369</dc:date>
    <dc:format>image/svg+xml</dc:format>
    <dc:creator>
     <cc:Agent>
      <dc:title>Matplotlib v3.4.3, https://matplotlib.org/</dc:title>
     </cc:Agent>
    </dc:creator>
   </cc:Work>
  </rdf:RDF>
 </metadata>
 <defs>
  <style type="text/css">*{stroke-linecap:butt;stroke-linejoin:round;}</style>
 </defs>
 <g id="figure_1">
  <g id="patch_1">
   <path d="M 0 702.72 
L 1383.12 702.72 
L 1383.12 0 
L 0 0 
z
" style="fill:#ffffff;"/>
  </g>
  <g id="axes_1">
   <g id="patch_2">
    <path d="M 122.312814 320.73312 
L 1353.481714 320.73312 
L 1353.481714 52.46976 
L 122.312814 52.46976 
z
" style="fill:#ffffff;"/>
   </g>
   <g id="matplotlib.axis_1">
    <g id="xtick_1">
     <g id="line2d_1">
      <defs>
       <path d="M 0 0 
L 0 3.5 
" id="m745dd8ec01" style="stroke:#000000;stroke-width:0.8;"/>
      </defs>
      <g>
       <use style="stroke:#000000;stroke-width:0.8;" x="178.275037" xlink:href="#m745dd8ec01" y="320.73312"/>
      </g>
     </g>
    </g>
    <g id="xtick_2">
     <g id="line2d_2">
      <g>
       <use style="stroke:#000000;stroke-width:0.8;" x="402.348001" xlink:href="#m745dd8ec01" y="320.73312"/>
      </g>
     </g>
    </g>
    <g id="xtick_3">
     <g id="line2d_3">
      <g>
       <use style="stroke:#000000;stroke-width:0.8;" x="626.420965" xlink:href="#m745dd8ec01" y="320.73312"/>
      </g>
     </g>
    </g>
    <g id="xtick_4">
     <g id="line2d_4">
      <g>
       <use style="stroke:#000000;stroke-width:0.8;" x="850.493929" xlink:href="#m745dd8ec01" y="320.73312"/>
      </g>
     </g>
    </g>
    <g id="xtick_5">
     <g id="line2d_5">
      <g>
       <use style="stroke:#000000;stroke-width:0.8;" x="1074.566893" xlink:href="#m745dd8ec01" y="320.73312"/>
      </g>
     </g>
    </g>
    <g id="xtick_6">
     <g id="line2d_6">
      <g>
       <use style="stroke:#000000;stroke-width:0.8;" x="1298.639856" xlink:href="#m745dd8ec01" y="320.73312"/>
      </g>
     </g>
    </g>
   </g>
   <g id="matplotlib.axis_2">
    <g id="ytick_1">
     <g id="line2d_7">
      <defs>
       <path d="M 0 0 
L -3.5 0 
" id="m166f53a7f9" style="stroke:#000000;stroke-width:0.8;"/>
      </defs>
      <g>
       <use style="stroke:#000000;stroke-width:0.8;" x="122.312814" xlink:href="#m166f53a7f9" y="308.539331"/>
      </g>
     </g>
     <g id="text_1">
      <!-- 0 -->
      <g transform="translate(108.950314 312.33855)scale(0.1 -0.1)">
       <defs>
        <path d="M 2034 4250 
Q 1547 4250 1301 3770 
Q 1056 3291 1056 2328 
Q 1056 1369 1301 889 
Q 1547 409 2034 409 
Q 2525 409 2770 889 
Q 3016 1369 3016 2328 
Q 3016 3291 2770 3770 
Q 2525 4250 2034 4250 
z
M 2034 4750 
Q 2819 4750 3233 4129 
Q 3647 3509 3647 2328 
Q 3647 1150 3233 529 
Q 2819 -91 2034 -91 
Q 1250 -91 836 529 
Q 422 1150 422 2328 
Q 422 3509 836 4129 
Q 1250 4750 2034 4750 
z
" id="DejaVuSans-30" transform="scale(0.015625)"/>
       </defs>
       <use xlink:href="#DejaVuSans-30"/>
      </g>
     </g>
    </g>
    <g id="ytick_2">
     <g id="line2d_8">
      <g>
       <use style="stroke:#000000;stroke-width:0.8;" x="122.312814" xlink:href="#m166f53a7f9" y="274.017089"/>
      </g>
     </g>
     <g id="text_2">
      <!-- 5 -->
      <g transform="translate(108.950314 277.816308)scale(0.1 -0.1)">
       <defs>
        <path d="M 691 4666 
L 3169 4666 
L 3169 4134 
L 1269 4134 
L 1269 2991 
Q 1406 3038 1543 3061 
Q 1681 3084 1819 3084 
Q 2600 3084 3056 2656 
Q 3513 2228 3513 1497 
Q 3513 744 3044 326 
Q 2575 -91 1722 -91 
Q 1428 -91 1123 -41 
Q 819 9 494 109 
L 494 744 
Q 775 591 1075 516 
Q 1375 441 1709 441 
Q 2250 441 2565 725 
Q 2881 1009 2881 1497 
Q 2881 1984 2565 2268 
Q 2250 2553 1709 2553 
Q 1456 2553 1204 2497 
Q 953 2441 691 2322 
L 691 4666 
z
" id="DejaVuSans-35" transform="scale(0.015625)"/>
       </defs>
       <use xlink:href="#DejaVuSans-35"/>
      </g>
     </g>
    </g>
    <g id="ytick_3">
     <g id="line2d_9">
      <g>
       <use style="stroke:#000000;stroke-width:0.8;" x="122.312814" xlink:href="#m166f53a7f9" y="239.494848"/>
      </g>
     </g>
     <g id="text_3">
      <!-- 10 -->
      <g transform="translate(102.587814 243.294067)scale(0.1 -0.1)">
       <defs>
        <path d="M 794 531 
L 1825 531 
L 1825 4091 
L 703 3866 
L 703 4441 
L 1819 4666 
L 2450 4666 
L 2450 531 
L 3481 531 
L 3481 0 
L 794 0 
L 794 531 
z
" id="DejaVuSans-31" transform="scale(0.015625)"/>
       </defs>
       <use xlink:href="#DejaVuSans-31"/>
       <use x="63.623047" xlink:href="#DejaVuSans-30"/>
      </g>
     </g>
    </g>
    <g id="ytick_4">
     <g id="line2d_10">
      <g>
       <use style="stroke:#000000;stroke-width:0.8;" x="122.312814" xlink:href="#m166f53a7f9" y="204.972606"/>
      </g>
     </g>
     <g id="text_4">
      <!-- 15 -->
      <g transform="translate(102.587814 208.771825)scale(0.1 -0.1)">
       <use xlink:href="#DejaVuSans-31"/>
       <use x="63.623047" xlink:href="#DejaVuSans-35"/>
      </g>
     </g>
    </g>
    <g id="ytick_5">
     <g id="line2d_11">
      <g>
       <use style="stroke:#000000;stroke-width:0.8;" x="122.312814" xlink:href="#m166f53a7f9" y="170.450365"/>
      </g>
     </g>
     <g id="text_5">
      <!-- 20 -->
      <g transform="translate(102.587814 174.249584)scale(0.1 -0.1)">
       <defs>
        <path d="M 1228 531 
L 3431 531 
L 3431 0 
L 469 0 
L 469 531 
Q 828 903 1448 1529 
Q 2069 2156 2228 2338 
Q 2531 2678 2651 2914 
Q 2772 3150 2772 3378 
Q 2772 3750 2511 3984 
Q 2250 4219 1831 4219 
Q 1534 4219 1204 4116 
Q 875 4013 500 3803 
L 500 4441 
Q 881 4594 1212 4672 
Q 1544 4750 1819 4750 
Q 2544 4750 2975 4387 
Q 3406 4025 3406 3419 
Q 3406 3131 3298 2873 
Q 3191 2616 2906 2266 
Q 2828 2175 2409 1742 
Q 1991 1309 1228 531 
z
" id="DejaVuSans-32" transform="scale(0.015625)"/>
       </defs>
       <use xlink:href="#DejaVuSans-32"/>
       <use x="63.623047" xlink:href="#DejaVuSans-30"/>
      </g>
     </g>
    </g>
    <g id="ytick_6">
     <g id="line2d_12">
      <g>
       <use style="stroke:#000000;stroke-width:0.8;" x="122.312814" xlink:href="#m166f53a7f9" y="135.928123"/>
      </g>
     </g>
     <g id="text_6">
      <!-- 25 -->
      <g transform="translate(102.587814 139.727342)scale(0.1 -0.1)">
       <use xlink:href="#DejaVuSans-32"/>
       <use x="63.623047" xlink:href="#DejaVuSans-35"/>
      </g>
     </g>
    </g>
    <g id="ytick_7">
     <g id="line2d_13">
      <g>
       <use style="stroke:#000000;stroke-width:0.8;" x="122.312814" xlink:href="#m166f53a7f9" y="101.405882"/>
      </g>
     </g>
     <g id="text_7">
      <!-- 30 -->
      <g transform="translate(102.587814 105.205101)scale(0.1 -0.1)">
       <defs>
        <path d="M 2597 2516 
Q 3050 2419 3304 2112 
Q 3559 1806 3559 1356 
Q 3559 666 3084 287 
Q 2609 -91 1734 -91 
Q 1441 -91 1130 -33 
Q 819 25 488 141 
L 488 750 
Q 750 597 1062 519 
Q 1375 441 1716 441 
Q 2309 441 2620 675 
Q 2931 909 2931 1356 
Q 2931 1769 2642 2001 
Q 2353 2234 1838 2234 
L 1294 2234 
L 1294 2753 
L 1863 2753 
Q 2328 2753 2575 2939 
Q 2822 3125 2822 3475 
Q 2822 3834 2567 4026 
Q 2313 4219 1838 4219 
Q 1578 4219 1281 4162 
Q 984 4106 628 3988 
L 628 4550 
Q 988 4650 1302 4700 
Q 1616 4750 1894 4750 
Q 2613 4750 3031 4423 
Q 3450 4097 3450 3541 
Q 3450 3153 3228 2886 
Q 3006 2619 2597 2516 
z
" id="DejaVuSans-33" transform="scale(0.015625)"/>
       </defs>
       <use xlink:href="#DejaVuSans-33"/>
       <use x="63.623047" xlink:href="#DejaVuSans-30"/>
      </g>
     </g>
    </g>
    <g id="ytick_8">
     <g id="line2d_14">
      <g>
       <use style="stroke:#000000;stroke-width:0.8;" x="122.312814" xlink:href="#m166f53a7f9" y="66.88364"/>
      </g>
     </g>
     <g id="text_8">
      <!-- 35 -->
      <g transform="translate(102.587814 70.682859)scale(0.1 -0.1)">
       <use xlink:href="#DejaVuSans-33"/>
       <use x="63.623047" xlink:href="#DejaVuSans-35"/>
      </g>
     </g>
    </g>
    <g id="text_9">
     <!-- [m] -->
     <g transform="translate(96.508127 195.373315)rotate(-90)scale(0.1 -0.1)">
      <defs>
       <path d="M 550 4863 
L 1875 4863 
L 1875 4416 
L 1125 4416 
L 1125 -397 
L 1875 -397 
L 1875 -844 
L 550 -844 
L 550 4863 
z
" id="DejaVuSans-5b" transform="scale(0.015625)"/>
       <path d="M 3328 2828 
Q 3544 3216 3844 3400 
Q 4144 3584 4550 3584 
Q 5097 3584 5394 3201 
Q 5691 2819 5691 2113 
L 5691 0 
L 5113 0 
L 5113 2094 
Q 5113 2597 4934 2840 
Q 4756 3084 4391 3084 
Q 3944 3084 3684 2787 
Q 3425 2491 3425 1978 
L 3425 0 
L 2847 0 
L 2847 2094 
Q 2847 2600 2669 2842 
Q 2491 3084 2119 3084 
Q 1678 3084 1418 2786 
Q 1159 2488 1159 1978 
L 1159 0 
L 581 0 
L 581 3500 
L 1159 3500 
L 1159 2956 
Q 1356 3278 1631 3431 
Q 1906 3584 2284 3584 
Q 2666 3584 2933 3390 
Q 3200 3197 3328 2828 
z
" id="DejaVuSans-6d" transform="scale(0.015625)"/>
       <path d="M 1947 4863 
L 1947 -844 
L 622 -844 
L 622 -397 
L 1369 -397 
L 1369 4416 
L 622 4416 
L 622 4863 
L 1947 4863 
z
" id="DejaVuSans-5d" transform="scale(0.015625)"/>
      </defs>
      <use xlink:href="#DejaVuSans-5b"/>
      <use x="39.013672" xlink:href="#DejaVuSans-6d"/>
      <use x="136.425781" xlink:href="#DejaVuSans-5d"/>
     </g>
    </g>
   </g>
   <g id="line2d_15">
    <path clip-path="url(#pe910d8fd35)" d="M 178.275037 308.539331 
L 179.395402 308.190284 
L 181.636131 308.1881 
L 182.756496 307.882279 
L 183.876861 308.426691 
L 184.997226 308.407828 
L 187.237956 308.078148 
L 188.35832 308.441117 
L 190.59905 308.239339 
L 191.719415 308.434513 
L 192.83978 308.089432 
L 193.960144 308.471129 
L 196.200874 308.311714 
L 197.321239 308.30509 
L 199.561969 307.940948 
L 201.802698 307.84457 
L 202.923063 307.952856 
L 204.043428 307.859035 
L 205.163793 308.142596 
L 206.284157 307.786784 
L 208.524887 307.315028 
L 209.645252 307.488303 
L 210.765617 307.519916 
L 214.126711 307.264993 
L 215.247076 307.256277 
L 216.367441 306.928321 
L 220.8489 307.159365 
L 223.08963 306.660871 
L 224.209995 306.839401 
L 225.330359 306.503653 
L 226.450724 306.632365 
L 227.571089 306.92032 
L 228.691454 306.726436 
L 229.811819 306.665171 
L 230.932184 306.437208 
L 233.172913 306.380189 
L 234.293278 306.273604 
L 237.654372 307.009403 
L 238.774737 306.781897 
L 239.895102 306.375111 
L 241.015467 306.307477 
L 242.135832 306.56177 
L 243.256197 306.611018 
L 244.376561 306.183673 
L 245.496926 306.226807 
L 246.617291 306.419844 
L 247.737656 306.386169 
L 248.858021 306.468624 
L 249.978385 306.742069 
L 251.09875 306.566802 
L 253.33948 306.561836 
L 254.459845 306.787744 
L 255.58021 306.451479 
L 257.820939 306.41982 
L 258.941304 306.733295 
L 260.061669 306.710372 
L 261.182034 306.960232 
L 262.302398 306.814982 
L 263.422763 305.599591 
L 264.543128 301.570834 
L 266.783858 295.268704 
L 267.904223 292.221385 
L 269.024587 290.601884 
L 270.144952 286.061858 
L 271.265317 282.513081 
L 272.385682 284.702366 
L 273.506047 285.699273 
L 274.626411 285.15984 
L 276.867141 281.836489 
L 277.987506 281.644224 
L 279.107871 283.028412 
L 281.3486 284.209884 
L 282.468965 284.66258 
L 283.58933 284.914434 
L 284.709695 284.333176 
L 285.83006 283.896522 
L 286.950424 283.323117 
L 289.191154 280.01667 
L 290.311519 277.680692 
L 291.431884 277.62724 
L 292.552249 277.872985 
L 293.672613 277.49046 
L 294.792978 276.423632 
L 295.913343 275.618565 
L 297.033708 274.456563 
L 299.274438 273.070401 
L 300.394802 271.891173 
L 301.515167 271.397429 
L 302.635532 271.548577 
L 303.755897 271.06297 
L 305.996626 270.702043 
L 307.116991 270.562666 
L 308.237356 270.090818 
L 309.357721 269.870263 
L 310.478086 269.491803 
L 312.718815 271.726934 
L 313.83918 272.416203 
L 314.959545 272.759684 
L 316.07991 273.539945 
L 318.320639 274.52116 
L 319.441004 275.346155 
L 321.681734 276.177349 
L 322.802099 277.268581 
L 323.922464 278.184467 
L 326.163193 278.46045 
L 327.283558 278.031951 
L 329.524288 278.575177 
L 331.765017 278.530901 
L 334.005747 278.543077 
L 336.246477 279.10558 
L 337.366841 279.121539 
L 338.487206 279.266461 
L 340.727936 279.946693 
L 341.848301 280.161067 
L 344.08903 279.779676 
L 345.209395 280.076279 
L 346.32976 280.541386 
L 347.450125 280.440172 
L 349.690854 280.718245 
L 350.811219 280.852984 
L 351.931584 281.351101 
L 353.051949 281.478309 
L 354.172314 281.785292 
L 355.292678 281.854839 
L 356.413043 282.376585 
L 357.533408 282.495877 
L 358.653773 283.095096 
L 359.774138 283.38045 
L 365.375962 282.974691 
L 368.737056 284.174469 
L 372.098151 284.760288 
L 373.218516 285.174454 
L 374.33888 285.788358 
L 375.459245 285.86666 
L 376.57961 286.286938 
L 377.699975 287.167165 
L 378.82034 287.353128 
L 379.940704 287.404336 
L 381.061069 287.830926 
L 382.181434 288.39932 
L 383.301799 289.429764 
L 384.422164 290.220774 
L 385.542529 290.467096 
L 386.662893 290.578136 
L 387.783258 290.431274 
L 388.903623 290.142323 
L 393.385082 291.148033 
L 394.505447 291.203565 
L 395.625812 292.007856 
L 396.746177 292.171654 
L 397.866542 292.533733 
L 398.986906 293.089042 
L 400.107271 293.115892 
L 402.348001 293.764865 
L 404.588731 294.444241 
L 405.709095 295.083972 
L 406.82946 295.160766 
L 409.07019 295.782825 
L 411.310919 296.133534 
L 412.431284 296.484726 
L 413.551649 296.501139 
L 414.672014 296.995588 
L 415.792379 297.326048 
L 416.912744 297.443341 
L 418.033108 297.678963 
L 419.153473 297.557262 
L 421.394203 297.809897 
L 422.514568 298.399579 
L 423.634932 298.664726 
L 424.755297 299.292629 
L 425.875662 299.475872 
L 426.996027 299.178299 
L 428.116392 299.622533 
L 429.236757 299.910216 
L 430.357121 300.374003 
L 431.477486 300.212005 
L 433.718216 301.331343 
L 434.838581 301.28363 
L 437.07931 301.569225 
L 438.199675 302.075581 
L 440.440405 301.957033 
L 441.56077 301.725258 
L 446.042229 301.321545 
L 447.162594 301.401209 
L 449.403323 300.185662 
L 450.523688 299.360707 
L 451.644053 298.934663 
L 453.884783 298.221621 
L 455.005147 297.901623 
L 456.125512 296.979826 
L 457.245877 296.551356 
L 459.486607 295.327312 
L 460.606971 295.167579 
L 465.088431 293.276258 
L 466.208796 292.828694 
L 467.32916 291.86654 
L 468.449525 291.624762 
L 469.56989 291.191915 
L 471.81062 289.77784 
L 472.930985 289.553444 
L 475.171714 288.428471 
L 477.412444 287.036474 
L 478.532809 286.728032 
L 480.773538 285.781217 
L 481.893903 285.469475 
L 485.254998 283.313809 
L 486.375362 282.449531 
L 487.495727 282.04257 
L 488.616092 281.482398 
L 489.736457 280.738974 
L 490.856822 280.207645 
L 493.097551 278.661378 
L 494.217916 278.213577 
L 495.338281 277.127048 
L 497.579011 275.885105 
L 500.940105 274.197702 
L 503.180835 273.019379 
L 504.301199 272.185535 
L 507.662294 270.216747 
L 508.782659 269.806939 
L 511.023388 269.502428 
L 512.143753 268.793535 
L 514.384483 267.731612 
L 515.504848 267.609809 
L 518.865942 266.107574 
L 519.986307 265.39014 
L 522.227037 264.486457 
L 530.06959 261.520405 
L 531.189955 260.645815 
L 535.671414 258.980755 
L 536.791779 258.717263 
L 537.912144 257.593687 
L 539.032509 255.466114 
L 540.152874 252.305119 
L 541.273238 252.194288 
L 542.393603 250.323836 
L 543.513968 245.753282 
L 544.634333 244.66125 
L 545.754698 244.25605 
L 546.875063 242.930213 
L 547.995427 242.252469 
L 549.115792 239.619212 
L 550.236157 236.212804 
L 551.356522 233.436319 
L 552.476887 231.57486 
L 553.597252 230.287424 
L 554.717616 230.625971 
L 555.837981 229.554231 
L 556.958346 227.530436 
L 558.078711 228.293963 
L 559.199076 228.400301 
L 560.31944 228.16088 
L 561.439805 226.733162 
L 562.56017 224.763487 
L 563.680535 223.040418 
L 564.8009 219.448495 
L 565.921265 217.470662 
L 568.161994 212.778972 
L 569.282359 209.834614 
L 570.402724 206.02402 
L 572.643453 200.890264 
L 573.763818 197.760391 
L 576.004548 193.763357 
L 577.124913 192.529339 
L 579.365642 189.410981 
L 580.486007 188.620605 
L 582.726737 185.89538 
L 584.967466 183.438175 
L 587.208196 182.463096 
L 589.448926 180.491696 
L 591.689655 177.770893 
L 593.930385 175.223743 
L 596.171115 172.492392 
L 597.291479 170.521562 
L 599.532209 167.272953 
L 600.652574 166.73938 
L 601.772939 165.086282 
L 602.893304 163.736034 
L 604.013668 160.187402 
L 606.254398 154.2438 
L 608.495128 151.031761 
L 609.615492 149.023041 
L 611.856222 143.984748 
L 616.337681 133.17098 
L 618.578411 128.759205 
L 619.698776 125.956255 
L 621.939505 121.08629 
L 623.05987 118.244542 
L 624.180235 116.710129 
L 628.661694 103.737649 
L 629.782059 101.03155 
L 630.902424 97.495971 
L 636.504248 81.384359 
L 637.624613 77.676762 
L 638.744978 74.631443 
L 639.865343 71.136288 
L 640.985707 68.575852 
L 642.106072 66.904347 
L 643.226437 64.663549 
L 644.346802 64.690354 
L 645.467167 65.180438 
L 647.707896 67.701159 
L 648.828261 69.708466 
L 649.948626 69.485683 
L 651.068991 70.536698 
L 652.189356 71.033524 
L 653.30972 72.449097 
L 658.911545 78.06512 
L 660.031909 78.698425 
L 661.152274 79.619362 
L 662.272639 79.900659 
L 665.633733 81.645519 
L 667.874463 83.083859 
L 670.115193 84.494603 
L 671.235558 84.90202 
L 672.355922 85.815938 
L 674.596652 86.818757 
L 675.717017 86.1004 
L 676.837382 85.952992 
L 680.198476 85.021285 
L 682.439206 81.984673 
L 685.8003 76.371255 
L 686.920665 74.376499 
L 688.04103 74.301059 
L 689.161395 74.609693 
L 690.281759 74.337192 
L 691.402124 73.774251 
L 692.522489 73.712837 
L 693.642854 73.824069 
L 695.883584 72.800427 
L 698.124313 72.460878 
L 699.244678 72.035623 
L 700.365043 71.814341 
L 701.485408 71.380983 
L 702.605772 71.599271 
L 703.726137 71.634102 
L 704.846502 71.006497 
L 705.966867 71.151601 
L 707.087232 71.875021 
L 708.207597 73.294052 
L 709.327961 75.150392 
L 710.448326 76.549953 
L 711.568691 78.298626 
L 713.809421 81.504573 
L 714.929785 83.231639 
L 717.170515 89.557096 
L 718.29088 91.873053 
L 719.411245 93.845079 
L 720.53161 95.171895 
L 721.651974 96.769057 
L 722.772339 97.331428 
L 723.892704 98.254318 
L 728.374163 105.634829 
L 729.494528 107.697379 
L 730.614893 109.520514 
L 731.735258 111.829297 
L 732.855623 111.183023 
L 733.975987 111.888509 
L 736.216717 115.0881 
L 737.337082 117.842962 
L 738.457447 119.695029 
L 739.577812 121.219211 
L 742.938906 127.391954 
L 746.3 133.234407 
L 747.420365 135.155973 
L 749.661095 138.043385 
L 750.78146 139.627991 
L 751.901825 140.995366 
L 753.022189 141.686457 
L 754.142554 142.721872 
L 755.262919 141.899709 
L 757.503649 142.050123 
L 758.624013 143.570668 
L 759.744378 144.59819 
L 761.985108 145.787311 
L 763.105473 145.862309 
L 764.225838 148.526444 
L 765.346202 148.411974 
L 766.466567 149.91434 
L 767.586932 151.012643 
L 768.707297 151.938026 
L 770.948026 154.030527 
L 772.068391 156.40121 
L 773.188756 158.07897 
L 774.309121 159.287814 
L 776.549851 162.880707 
L 777.670215 164.343379 
L 778.79058 163.267624 
L 781.03131 167.912656 
L 782.151675 171.625512 
L 784.392404 177.130666 
L 785.512769 179.96674 
L 786.633134 181.765445 
L 787.753499 183.352098 
L 788.873864 184.3208 
L 789.994228 185.035208 
L 791.114593 187.562194 
L 792.234958 189.625915 
L 793.355323 190.977807 
L 794.475688 192.774687 
L 795.596052 194.275419 
L 796.716417 195.204405 
L 797.836782 196.60843 
L 798.957147 197.325166 
L 801.197877 199.335424 
L 802.318241 200.683037 
L 803.438606 201.732319 
L 805.679336 203.41758 
L 806.799701 204.735191 
L 807.920065 205.585055 
L 809.04043 207.216323 
L 810.160795 207.915333 
L 811.28116 208.785888 
L 812.401525 207.074824 
L 813.52189 206.973371 
L 814.642254 208.846942 
L 815.762619 211.490208 
L 816.882984 213.094301 
L 818.003349 215.717743 
L 820.244079 222.618354 
L 821.364443 227.103952 
L 822.484808 228.47493 
L 823.605173 230.137848 
L 825.845903 234.360992 
L 828.086632 238.616105 
L 829.206997 240.337848 
L 830.327362 241.315083 
L 831.447727 242.887177 
L 832.568092 245.451241 
L 833.688456 247.422038 
L 834.808821 250.75898 
L 835.929186 252.693288 
L 838.169916 255.493014 
L 839.29028 255.164346 
L 840.410645 253.525556 
L 841.53101 252.431914 
L 842.651375 250.690461 
L 843.77174 250.294872 
L 844.892105 250.614659 
L 846.012469 249.971802 
L 847.132834 249.079988 
L 848.253199 246.669101 
L 849.373564 243.881555 
L 850.493929 240.195879 
L 851.614293 237.129044 
L 852.734658 233.35456 
L 853.855023 229.987352 
L 854.975388 226.211014 
L 858.336482 216.439219 
L 859.456847 213.574554 
L 860.577212 213.380617 
L 861.697577 212.502397 
L 862.817942 212.189851 
L 863.938306 210.540611 
L 865.058671 209.400194 
L 866.179036 209.847363 
L 868.419766 208.112544 
L 869.540131 206.87674 
L 871.78086 204.925145 
L 872.901225 203.656362 
L 874.02159 202.703857 
L 875.141955 201.983806 
L 876.262319 200.324446 
L 877.382684 199.044234 
L 879.623414 195.907307 
L 880.743779 195.312211 
L 881.864144 194.942387 
L 882.984508 194.05947 
L 884.104873 192.530107 
L 887.465968 188.819209 
L 888.586332 187.322337 
L 891.947427 183.692163 
L 893.067792 180.548517 
L 894.188157 178.025796 
L 895.308521 176.173482 
L 898.669616 173.229807 
L 899.789981 175.51898 
L 900.910346 177.130099 
L 902.03071 178.063565 
L 904.27144 182.56355 
L 906.51217 190.881914 
L 907.632534 193.139659 
L 909.873264 196.386705 
L 910.993629 197.785999 
L 913.234359 201.213744 
L 914.354723 202.301235 
L 915.475088 201.844921 
L 916.595453 202.581871 
L 917.715818 202.857477 
L 918.836183 202.917442 
L 919.956547 202.542464 
L 921.076912 202.908652 
L 923.317642 206.972203 
L 924.438007 209.927978 
L 925.558372 212.070537 
L 927.799101 214.421866 
L 928.919466 213.692303 
L 930.039831 213.806218 
L 931.160196 215.281217 
L 932.28056 215.926501 
L 936.76202 221.754058 
L 937.882385 222.394016 
L 939.002749 222.569341 
L 940.123114 221.663714 
L 941.243479 222.443375 
L 942.363844 220.615912 
L 943.484209 217.915925 
L 945.724938 213.905607 
L 946.845303 213.988043 
L 947.965668 213.36348 
L 949.086033 212.871374 
L 950.206398 211.995957 
L 951.326762 212.606038 
L 952.447127 213.087353 
L 953.567492 212.695289 
L 954.687857 214.005552 
L 955.808222 215.576914 
L 956.928586 215.312523 
L 958.048951 214.924358 
L 959.169316 214.367382 
L 962.530411 213.793162 
L 963.650775 212.560503 
L 964.77114 211.541495 
L 965.891505 211.209106 
L 969.252599 211.271705 
L 970.372964 211.292711 
L 971.493329 211.12558 
L 972.613694 211.316727 
L 973.734059 211.219101 
L 975.974788 211.576477 
L 977.095153 211.09324 
L 978.215518 212.203385 
L 980.456248 213.625539 
L 982.696977 214.472536 
L 983.817342 215.279771 
L 986.058072 217.574396 
L 987.178437 218.724323 
L 988.298801 220.183144 
L 990.539531 222.321735 
L 993.900626 225.115667 
L 995.02099 225.768063 
L 997.26172 226.34531 
L 998.382085 227.159709 
L 1000.622814 228.502307 
L 1002.863544 229.361287 
L 1003.983909 230.104814 
L 1006.224639 232.392877 
L 1007.345003 233.553384 
L 1008.465368 234.997418 
L 1009.585733 236.184822 
L 1010.706098 238.314417 
L 1011.826463 239.809661 
L 1016.307922 243.127636 
L 1017.428287 244.538528 
L 1019.669016 246.870499 
L 1020.789381 247.580423 
L 1021.909746 249.015194 
L 1023.030111 250.09387 
L 1024.150476 250.936691 
L 1025.27084 253.09034 
L 1026.391205 253.479801 
L 1027.51157 254.213757 
L 1029.7523 254.627877 
L 1030.872665 255.174406 
L 1031.993029 255.24084 
L 1034.233759 256.029986 
L 1035.354124 256.136805 
L 1036.474489 254.677582 
L 1037.594853 254.061433 
L 1038.715218 253.821334 
L 1039.835583 253.14894 
L 1040.955948 253.013834 
L 1043.196678 253.467746 
L 1044.317042 254.433741 
L 1045.437407 256.019787 
L 1047.678137 260.117485 
L 1048.798502 261.490816 
L 1049.918866 261.559471 
L 1052.159596 263.186606 
L 1053.279961 265.048156 
L 1054.400326 266.524498 
L 1056.641055 270.486824 
L 1057.76142 272.323902 
L 1064.483609 281.118222 
L 1066.724339 283.655672 
L 1067.844704 284.745897 
L 1068.965068 286.157751 
L 1070.085433 287.803168 
L 1071.205798 289.691889 
L 1074.566893 293.567585 
L 1075.687257 295.578361 
L 1076.807622 296.442405 
L 1077.927987 298.046111 
L 1079.048352 299.103394 
L 1080.168717 300.42233 
L 1082.409446 303.342123 
L 1083.529811 304.599531 
L 1084.650176 305.532227 
L 1085.770541 305.601829 
L 1086.890906 304.880497 
L 1088.01127 303.748117 
L 1089.131635 302.344415 
L 1090.252 301.198041 
L 1092.49273 298.209131 
L 1094.733459 295.379163 
L 1095.853824 294.497027 
L 1098.094554 290.978602 
L 1099.214919 289.892087 
L 1100.335283 288.379481 
L 1101.455648 287.138565 
L 1104.816743 282.643234 
L 1105.937107 281.551974 
L 1107.057472 280.009213 
L 1108.177837 278.767002 
L 1109.298202 277.802074 
L 1110.418567 276.565332 
L 1111.538932 274.829629 
L 1112.659296 272.504792 
L 1116.020391 268.768746 
L 1118.26112 267.722677 
L 1119.381485 267.560786 
L 1121.622215 266.568431 
L 1122.74258 265.483313 
L 1123.862945 265.078085 
L 1124.983309 264.172837 
L 1126.103674 263.121237 
L 1127.224039 262.223759 
L 1128.344404 260.855896 
L 1129.464769 260.208021 
L 1130.585133 257.192089 
L 1131.705498 255.105386 
L 1133.946228 251.646603 
L 1135.066593 250.531126 
L 1136.186958 248.26439 
L 1137.307322 247.060265 
L 1138.427687 245.157543 
L 1141.788782 240.765272 
L 1142.909146 238.755171 
L 1145.149876 235.566301 
L 1146.270241 234.366053 
L 1148.510971 231.433211 
L 1149.631335 230.871835 
L 1150.7517 228.830892 
L 1151.872065 227.158319 
L 1152.99243 226.77876 
L 1154.112795 227.783238 
L 1155.233159 227.161764 
L 1156.353524 226.370818 
L 1157.473889 226.954554 
L 1158.594254 228.902949 
L 1159.714619 228.660116 
L 1160.834984 228.741361 
L 1161.955348 228.650002 
L 1163.075713 226.285173 
L 1164.196078 224.838027 
L 1165.316443 224.38389 
L 1166.436808 221.851765 
L 1167.557173 220.349886 
L 1169.797902 215.933478 
L 1170.918267 213.96047 
L 1172.038632 213.932745 
L 1173.158997 213.084431 
L 1174.279361 209.335067 
L 1175.399726 206.314419 
L 1176.520091 205.487401 
L 1177.640456 205.306451 
L 1178.760821 205.673578 
L 1181.00155 205.738914 
L 1182.121915 206.070009 
L 1183.24228 205.617624 
L 1184.362645 204.811212 
L 1185.48301 204.371404 
L 1186.603374 203.80699 
L 1187.723739 203.869751 
L 1188.844104 205.982402 
L 1189.964469 206.397848 
L 1192.205199 206.338209 
L 1193.325563 206.564213 
L 1195.566293 208.64232 
L 1196.686658 209.169543 
L 1197.807023 210.164823 
L 1198.927387 211.323066 
L 1200.047752 210.736043 
L 1201.168117 211.084633 
L 1202.288482 212.088784 
L 1203.408847 212.262976 
L 1204.529212 212.315645 
L 1205.649576 213.511912 
L 1206.769941 214.055921 
L 1207.890306 214.133539 
L 1209.010671 215.11424 
L 1210.131036 216.253129 
L 1211.2514 217.026375 
L 1212.371765 217.658484 
L 1214.612495 219.596595 
L 1215.73286 220.317551 
L 1216.853225 221.476531 
L 1217.973589 222.02977 
L 1219.093954 223.201735 
L 1220.214319 223.819204 
L 1221.334684 224.985799 
L 1222.455049 225.258559 
L 1223.575413 225.122271 
L 1224.695778 225.422863 
L 1225.816143 225.534416 
L 1226.936508 224.943627 
L 1228.056873 224.170852 
L 1229.177238 223.696062 
L 1230.297602 223.917256 
L 1232.538332 222.950039 
L 1233.658697 221.437654 
L 1234.779062 220.366637 
L 1235.899426 219.890906 
L 1237.019791 219.583675 
L 1238.140156 218.468268 
L 1239.260521 217.166759 
L 1240.380886 216.548605 
L 1241.501251 217.749724 
L 1242.621615 217.248421 
L 1244.862345 220.59698 
L 1245.98271 222.654314 
L 1247.103075 224.239914 
L 1248.22344 225.624738 
L 1249.343804 227.236444 
L 1250.464169 230.797915 
L 1253.825264 240.072504 
L 1256.065993 246.670036 
L 1257.186358 249.66002 
L 1258.306723 251.619509 
L 1259.427088 253.870786 
L 1260.547453 251.98359 
L 1261.667817 249.304928 
L 1262.788182 248.214644 
L 1263.908547 247.697402 
L 1265.028912 247.429656 
L 1266.149277 247.523434 
L 1267.269641 247.809331 
L 1268.390006 249.012989 
L 1269.510371 249.602692 
L 1270.630736 249.478377 
L 1271.751101 249.008433 
L 1272.871466 247.821181 
L 1273.99183 244.165667 
L 1275.112195 238.648527 
L 1276.23256 232.446626 
L 1277.352925 232.403943 
L 1278.47329 228.081173 
L 1279.593654 225.051055 
L 1280.714019 218.892465 
L 1281.834384 215.398174 
L 1282.954749 212.619368 
L 1284.075114 208.511896 
L 1285.195479 204.883298 
L 1288.556573 190.946772 
L 1289.676938 185.956418 
L 1291.917667 175.228031 
L 1293.038032 172.930439 
L 1294.158397 168.773272 
L 1295.278762 167.317616 
L 1296.399127 164.893059 
L 1297.519492 160.821709 
L 1297.519492 160.821709 
" style="fill:none;stroke:#1f77b4;stroke-linecap:square;stroke-width:1.5;"/>
   </g>
   <g id="patch_3">
    <path d="M 122.312814 320.73312 
L 122.312814 52.46976 
" style="fill:none;stroke:#000000;stroke-linecap:square;stroke-linejoin:miter;stroke-width:0.8;"/>
   </g>
   <g id="patch_4">
    <path d="M 1353.481714 320.73312 
L 1353.481714 52.46976 
" style="fill:none;stroke:#000000;stroke-linecap:square;stroke-linejoin:miter;stroke-width:0.8;"/>
   </g>
   <g id="patch_5">
    <path d="M 122.312814 320.73312 
L 1353.481714 320.73312 
" style="fill:none;stroke:#000000;stroke-linecap:square;stroke-linejoin:miter;stroke-width:0.8;"/>
   </g>
   <g id="patch_6">
    <path d="M 122.312814 52.46976 
L 1353.481714 52.46976 
" style="fill:none;stroke:#000000;stroke-linecap:square;stroke-linejoin:miter;stroke-width:0.8;"/>
   </g>
   <g id="text_10">
    <!-- Pos: RMSE 15.103008653515058 m -->
    <g transform="translate(630.363202 46.46976)scale(0.12 -0.12)">
     <defs>
      <path d="M 1259 4147 
L 1259 2394 
L 2053 2394 
Q 2494 2394 2734 2622 
Q 2975 2850 2975 3272 
Q 2975 3691 2734 3919 
Q 2494 4147 2053 4147 
L 1259 4147 
z
M 628 4666 
L 2053 4666 
Q 2838 4666 3239 4311 
Q 3641 3956 3641 3272 
Q 3641 2581 3239 2228 
Q 2838 1875 2053 1875 
L 1259 1875 
L 1259 0 
L 628 0 
L 628 4666 
z
" id="DejaVuSans-50" transform="scale(0.015625)"/>
      <path d="M 1959 3097 
Q 1497 3097 1228 2736 
Q 959 2375 959 1747 
Q 959 1119 1226 758 
Q 1494 397 1959 397 
Q 2419 397 2687 759 
Q 2956 1122 2956 1747 
Q 2956 2369 2687 2733 
Q 2419 3097 1959 3097 
z
M 1959 3584 
Q 2709 3584 3137 3096 
Q 3566 2609 3566 1747 
Q 3566 888 3137 398 
Q 2709 -91 1959 -91 
Q 1206 -91 779 398 
Q 353 888 353 1747 
Q 353 2609 779 3096 
Q 1206 3584 1959 3584 
z
" id="DejaVuSans-6f" transform="scale(0.015625)"/>
      <path d="M 2834 3397 
L 2834 2853 
Q 2591 2978 2328 3040 
Q 2066 3103 1784 3103 
Q 1356 3103 1142 2972 
Q 928 2841 928 2578 
Q 928 2378 1081 2264 
Q 1234 2150 1697 2047 
L 1894 2003 
Q 2506 1872 2764 1633 
Q 3022 1394 3022 966 
Q 3022 478 2636 193 
Q 2250 -91 1575 -91 
Q 1294 -91 989 -36 
Q 684 19 347 128 
L 347 722 
Q 666 556 975 473 
Q 1284 391 1588 391 
Q 1994 391 2212 530 
Q 2431 669 2431 922 
Q 2431 1156 2273 1281 
Q 2116 1406 1581 1522 
L 1381 1569 
Q 847 1681 609 1914 
Q 372 2147 372 2553 
Q 372 3047 722 3315 
Q 1072 3584 1716 3584 
Q 2034 3584 2315 3537 
Q 2597 3491 2834 3397 
z
" id="DejaVuSans-73" transform="scale(0.015625)"/>
      <path d="M 750 794 
L 1409 794 
L 1409 0 
L 750 0 
L 750 794 
z
M 750 3309 
L 1409 3309 
L 1409 2516 
L 750 2516 
L 750 3309 
z
" id="DejaVuSans-3a" transform="scale(0.015625)"/>
      <path id="DejaVuSans-20" transform="scale(0.015625)"/>
      <path d="M 2841 2188 
Q 3044 2119 3236 1894 
Q 3428 1669 3622 1275 
L 4263 0 
L 3584 0 
L 2988 1197 
Q 2756 1666 2539 1819 
Q 2322 1972 1947 1972 
L 1259 1972 
L 1259 0 
L 628 0 
L 628 4666 
L 2053 4666 
Q 2853 4666 3247 4331 
Q 3641 3997 3641 3322 
Q 3641 2881 3436 2590 
Q 3231 2300 2841 2188 
z
M 1259 4147 
L 1259 2491 
L 2053 2491 
Q 2509 2491 2742 2702 
Q 2975 2913 2975 3322 
Q 2975 3731 2742 3939 
Q 2509 4147 2053 4147 
L 1259 4147 
z
" id="DejaVuSans-52" transform="scale(0.015625)"/>
      <path d="M 628 4666 
L 1569 4666 
L 2759 1491 
L 3956 4666 
L 4897 4666 
L 4897 0 
L 4281 0 
L 4281 4097 
L 3078 897 
L 2444 897 
L 1241 4097 
L 1241 0 
L 628 0 
L 628 4666 
z
" id="DejaVuSans-4d" transform="scale(0.015625)"/>
      <path d="M 3425 4513 
L 3425 3897 
Q 3066 4069 2747 4153 
Q 2428 4238 2131 4238 
Q 1616 4238 1336 4038 
Q 1056 3838 1056 3469 
Q 1056 3159 1242 3001 
Q 1428 2844 1947 2747 
L 2328 2669 
Q 3034 2534 3370 2195 
Q 3706 1856 3706 1288 
Q 3706 609 3251 259 
Q 2797 -91 1919 -91 
Q 1588 -91 1214 -16 
Q 841 59 441 206 
L 441 856 
Q 825 641 1194 531 
Q 1563 422 1919 422 
Q 2459 422 2753 634 
Q 3047 847 3047 1241 
Q 3047 1584 2836 1778 
Q 2625 1972 2144 2069 
L 1759 2144 
Q 1053 2284 737 2584 
Q 422 2884 422 3419 
Q 422 4038 858 4394 
Q 1294 4750 2059 4750 
Q 2388 4750 2728 4690 
Q 3069 4631 3425 4513 
z
" id="DejaVuSans-53" transform="scale(0.015625)"/>
      <path d="M 628 4666 
L 3578 4666 
L 3578 4134 
L 1259 4134 
L 1259 2753 
L 3481 2753 
L 3481 2222 
L 1259 2222 
L 1259 531 
L 3634 531 
L 3634 0 
L 628 0 
L 628 4666 
z
" id="DejaVuSans-45" transform="scale(0.015625)"/>
      <path d="M 684 794 
L 1344 794 
L 1344 0 
L 684 0 
L 684 794 
z
" id="DejaVuSans-2e" transform="scale(0.015625)"/>
      <path d="M 2034 2216 
Q 1584 2216 1326 1975 
Q 1069 1734 1069 1313 
Q 1069 891 1326 650 
Q 1584 409 2034 409 
Q 2484 409 2743 651 
Q 3003 894 3003 1313 
Q 3003 1734 2745 1975 
Q 2488 2216 2034 2216 
z
M 1403 2484 
Q 997 2584 770 2862 
Q 544 3141 544 3541 
Q 544 4100 942 4425 
Q 1341 4750 2034 4750 
Q 2731 4750 3128 4425 
Q 3525 4100 3525 3541 
Q 3525 3141 3298 2862 
Q 3072 2584 2669 2484 
Q 3125 2378 3379 2068 
Q 3634 1759 3634 1313 
Q 3634 634 3220 271 
Q 2806 -91 2034 -91 
Q 1263 -91 848 271 
Q 434 634 434 1313 
Q 434 1759 690 2068 
Q 947 2378 1403 2484 
z
M 1172 3481 
Q 1172 3119 1398 2916 
Q 1625 2713 2034 2713 
Q 2441 2713 2670 2916 
Q 2900 3119 2900 3481 
Q 2900 3844 2670 4047 
Q 2441 4250 2034 4250 
Q 1625 4250 1398 4047 
Q 1172 3844 1172 3481 
z
" id="DejaVuSans-38" transform="scale(0.015625)"/>
      <path d="M 2113 2584 
Q 1688 2584 1439 2293 
Q 1191 2003 1191 1497 
Q 1191 994 1439 701 
Q 1688 409 2113 409 
Q 2538 409 2786 701 
Q 3034 994 3034 1497 
Q 3034 2003 2786 2293 
Q 2538 2584 2113 2584 
z
M 3366 4563 
L 3366 3988 
Q 3128 4100 2886 4159 
Q 2644 4219 2406 4219 
Q 1781 4219 1451 3797 
Q 1122 3375 1075 2522 
Q 1259 2794 1537 2939 
Q 1816 3084 2150 3084 
Q 2853 3084 3261 2657 
Q 3669 2231 3669 1497 
Q 3669 778 3244 343 
Q 2819 -91 2113 -91 
Q 1303 -91 875 529 
Q 447 1150 447 2328 
Q 447 3434 972 4092 
Q 1497 4750 2381 4750 
Q 2619 4750 2861 4703 
Q 3103 4656 3366 4563 
z
" id="DejaVuSans-36" transform="scale(0.015625)"/>
     </defs>
     <use xlink:href="#DejaVuSans-50"/>
     <use x="56.677734" xlink:href="#DejaVuSans-6f"/>
     <use x="117.859375" xlink:href="#DejaVuSans-73"/>
     <use x="169.958984" xlink:href="#DejaVuSans-3a"/>
     <use x="203.650391" xlink:href="#DejaVuSans-20"/>
     <use x="235.4375" xlink:href="#DejaVuSans-52"/>
     <use x="304.919922" xlink:href="#DejaVuSans-4d"/>
     <use x="391.199219" xlink:href="#DejaVuSans-53"/>
     <use x="454.675781" xlink:href="#DejaVuSans-45"/>
     <use x="517.859375" xlink:href="#DejaVuSans-20"/>
     <use x="549.646484" xlink:href="#DejaVuSans-31"/>
     <use x="613.269531" xlink:href="#DejaVuSans-35"/>
     <use x="676.892578" xlink:href="#DejaVuSans-2e"/>
     <use x="708.679688" xlink:href="#DejaVuSans-31"/>
     <use x="772.302734" xlink:href="#DejaVuSans-30"/>
     <use x="835.925781" xlink:href="#DejaVuSans-33"/>
     <use x="899.548828" xlink:href="#DejaVuSans-30"/>
     <use x="963.171875" xlink:href="#DejaVuSans-30"/>
     <use x="1026.794922" xlink:href="#DejaVuSans-38"/>
     <use x="1090.417969" xlink:href="#DejaVuSans-36"/>
     <use x="1154.041016" xlink:href="#DejaVuSans-35"/>
     <use x="1217.664062" xlink:href="#DejaVuSans-33"/>
     <use x="1281.287109" xlink:href="#DejaVuSans-35"/>
     <use x="1344.910156" xlink:href="#DejaVuSans-31"/>
     <use x="1408.533203" xlink:href="#DejaVuSans-35"/>
     <use x="1472.15625" xlink:href="#DejaVuSans-30"/>
     <use x="1535.779297" xlink:href="#DejaVuSans-35"/>
     <use x="1599.402344" xlink:href="#DejaVuSans-38"/>
     <use x="1663.025391" xlink:href="#DejaVuSans-20"/>
     <use x="1694.8125" xlink:href="#DejaVuSans-6d"/>
    </g>
   </g>
  </g>
  <g id="axes_2">
   <g id="patch_7">
    <path d="M 122.312814 648.29824 
L 1353.481714 648.29824 
L 1353.481714 380.03488 
L 122.312814 380.03488 
z
" style="fill:#ffffff;"/>
   </g>
   <g id="matplotlib.axis_3">
    <g id="xtick_7">
     <g id="line2d_16">
      <g>
       <use style="stroke:#000000;stroke-width:0.8;" x="178.275037" xlink:href="#m745dd8ec01" y="648.29824"/>
      </g>
     </g>
     <g id="text_11">
      <!-- 0 -->
      <g transform="translate(175.093787 662.896678)scale(0.1 -0.1)">
       <use xlink:href="#DejaVuSans-30"/>
      </g>
     </g>
    </g>
    <g id="xtick_8">
     <g id="line2d_17">
      <g>
       <use style="stroke:#000000;stroke-width:0.8;" x="402.348001" xlink:href="#m745dd8ec01" y="648.29824"/>
      </g>
     </g>
     <g id="text_12">
      <!-- 200 -->
      <g transform="translate(392.804251 662.896678)scale(0.1 -0.1)">
       <use xlink:href="#DejaVuSans-32"/>
       <use x="63.623047" xlink:href="#DejaVuSans-30"/>
       <use x="127.246094" xlink:href="#DejaVuSans-30"/>
      </g>
     </g>
    </g>
    <g id="xtick_9">
     <g id="line2d_18">
      <g>
       <use style="stroke:#000000;stroke-width:0.8;" x="626.420965" xlink:href="#m745dd8ec01" y="648.29824"/>
      </g>
     </g>
     <g id="text_13">
      <!-- 400 -->
      <g transform="translate(616.877215 662.896678)scale(0.1 -0.1)">
       <defs>
        <path d="M 2419 4116 
L 825 1625 
L 2419 1625 
L 2419 4116 
z
M 2253 4666 
L 3047 4666 
L 3047 1625 
L 3713 1625 
L 3713 1100 
L 3047 1100 
L 3047 0 
L 2419 0 
L 2419 1100 
L 313 1100 
L 313 1709 
L 2253 4666 
z
" id="DejaVuSans-34" transform="scale(0.015625)"/>
       </defs>
       <use xlink:href="#DejaVuSans-34"/>
       <use x="63.623047" xlink:href="#DejaVuSans-30"/>
       <use x="127.246094" xlink:href="#DejaVuSans-30"/>
      </g>
     </g>
    </g>
    <g id="xtick_10">
     <g id="line2d_19">
      <g>
       <use style="stroke:#000000;stroke-width:0.8;" x="850.493929" xlink:href="#m745dd8ec01" y="648.29824"/>
      </g>
     </g>
     <g id="text_14">
      <!-- 600 -->
      <g transform="translate(840.950179 662.896678)scale(0.1 -0.1)">
       <use xlink:href="#DejaVuSans-36"/>
       <use x="63.623047" xlink:href="#DejaVuSans-30"/>
       <use x="127.246094" xlink:href="#DejaVuSans-30"/>
      </g>
     </g>
    </g>
    <g id="xtick_11">
     <g id="line2d_20">
      <g>
       <use style="stroke:#000000;stroke-width:0.8;" x="1074.566893" xlink:href="#m745dd8ec01" y="648.29824"/>
      </g>
     </g>
     <g id="text_15">
      <!-- 800 -->
      <g transform="translate(1065.023143 662.896678)scale(0.1 -0.1)">
       <use xlink:href="#DejaVuSans-38"/>
       <use x="63.623047" xlink:href="#DejaVuSans-30"/>
       <use x="127.246094" xlink:href="#DejaVuSans-30"/>
      </g>
     </g>
    </g>
    <g id="xtick_12">
     <g id="line2d_21">
      <g>
       <use style="stroke:#000000;stroke-width:0.8;" x="1298.639856" xlink:href="#m745dd8ec01" y="648.29824"/>
      </g>
     </g>
     <g id="text_16">
      <!-- 1000 -->
      <g transform="translate(1285.914856 662.896678)scale(0.1 -0.1)">
       <use xlink:href="#DejaVuSans-31"/>
       <use x="63.623047" xlink:href="#DejaVuSans-30"/>
       <use x="127.246094" xlink:href="#DejaVuSans-30"/>
       <use x="190.869141" xlink:href="#DejaVuSans-30"/>
      </g>
     </g>
    </g>
   </g>
   <g id="matplotlib.axis_4">
    <g id="ytick_9">
     <g id="line2d_22">
      <g>
       <use style="stroke:#000000;stroke-width:0.8;" x="122.312814" xlink:href="#m166f53a7f9" y="636.104451"/>
      </g>
     </g>
     <g id="text_17">
      <!-- 0 -->
      <g transform="translate(108.950314 639.90367)scale(0.1 -0.1)">
       <use xlink:href="#DejaVuSans-30"/>
      </g>
     </g>
    </g>
    <g id="ytick_10">
     <g id="line2d_23">
      <g>
       <use style="stroke:#000000;stroke-width:0.8;" x="122.312814" xlink:href="#m166f53a7f9" y="597.70502"/>
      </g>
     </g>
     <g id="text_18">
      <!-- 10 -->
      <g transform="translate(102.587814 601.504239)scale(0.1 -0.1)">
       <use xlink:href="#DejaVuSans-31"/>
       <use x="63.623047" xlink:href="#DejaVuSans-30"/>
      </g>
     </g>
    </g>
    <g id="ytick_11">
     <g id="line2d_24">
      <g>
       <use style="stroke:#000000;stroke-width:0.8;" x="122.312814" xlink:href="#m166f53a7f9" y="559.305589"/>
      </g>
     </g>
     <g id="text_19">
      <!-- 20 -->
      <g transform="translate(102.587814 563.104808)scale(0.1 -0.1)">
       <use xlink:href="#DejaVuSans-32"/>
       <use x="63.623047" xlink:href="#DejaVuSans-30"/>
      </g>
     </g>
    </g>
    <g id="ytick_12">
     <g id="line2d_25">
      <g>
       <use style="stroke:#000000;stroke-width:0.8;" x="122.312814" xlink:href="#m166f53a7f9" y="520.906158"/>
      </g>
     </g>
     <g id="text_20">
      <!-- 30 -->
      <g transform="translate(102.587814 524.705377)scale(0.1 -0.1)">
       <use xlink:href="#DejaVuSans-33"/>
       <use x="63.623047" xlink:href="#DejaVuSans-30"/>
      </g>
     </g>
    </g>
    <g id="ytick_13">
     <g id="line2d_26">
      <g>
       <use style="stroke:#000000;stroke-width:0.8;" x="122.312814" xlink:href="#m166f53a7f9" y="482.506727"/>
      </g>
     </g>
     <g id="text_21">
      <!-- 40 -->
      <g transform="translate(102.587814 486.305946)scale(0.1 -0.1)">
       <use xlink:href="#DejaVuSans-34"/>
       <use x="63.623047" xlink:href="#DejaVuSans-30"/>
      </g>
     </g>
    </g>
    <g id="ytick_14">
     <g id="line2d_27">
      <g>
       <use style="stroke:#000000;stroke-width:0.8;" x="122.312814" xlink:href="#m166f53a7f9" y="444.107296"/>
      </g>
     </g>
     <g id="text_22">
      <!-- 50 -->
      <g transform="translate(102.587814 447.906515)scale(0.1 -0.1)">
       <use xlink:href="#DejaVuSans-35"/>
       <use x="63.623047" xlink:href="#DejaVuSans-30"/>
      </g>
     </g>
    </g>
    <g id="ytick_15">
     <g id="line2d_28">
      <g>
       <use style="stroke:#000000;stroke-width:0.8;" x="122.312814" xlink:href="#m166f53a7f9" y="405.707865"/>
      </g>
     </g>
     <g id="text_23">
      <!-- 60 -->
      <g transform="translate(102.587814 409.507084)scale(0.1 -0.1)">
       <use xlink:href="#DejaVuSans-36"/>
       <use x="63.623047" xlink:href="#DejaVuSans-30"/>
      </g>
     </g>
    </g>
    <g id="text_24">
     <!-- [deg] -->
     <g transform="translate(96.508127 527.493123)rotate(-90)scale(0.1 -0.1)">
      <defs>
       <path d="M 2906 2969 
L 2906 4863 
L 3481 4863 
L 3481 0 
L 2906 0 
L 2906 525 
Q 2725 213 2448 61 
Q 2172 -91 1784 -91 
Q 1150 -91 751 415 
Q 353 922 353 1747 
Q 353 2572 751 3078 
Q 1150 3584 1784 3584 
Q 2172 3584 2448 3432 
Q 2725 3281 2906 2969 
z
M 947 1747 
Q 947 1113 1208 752 
Q 1469 391 1925 391 
Q 2381 391 2643 752 
Q 2906 1113 2906 1747 
Q 2906 2381 2643 2742 
Q 2381 3103 1925 3103 
Q 1469 3103 1208 2742 
Q 947 2381 947 1747 
z
" id="DejaVuSans-64" transform="scale(0.015625)"/>
       <path d="M 3597 1894 
L 3597 1613 
L 953 1613 
Q 991 1019 1311 708 
Q 1631 397 2203 397 
Q 2534 397 2845 478 
Q 3156 559 3463 722 
L 3463 178 
Q 3153 47 2828 -22 
Q 2503 -91 2169 -91 
Q 1331 -91 842 396 
Q 353 884 353 1716 
Q 353 2575 817 3079 
Q 1281 3584 2069 3584 
Q 2775 3584 3186 3129 
Q 3597 2675 3597 1894 
z
M 3022 2063 
Q 3016 2534 2758 2815 
Q 2500 3097 2075 3097 
Q 1594 3097 1305 2825 
Q 1016 2553 972 2059 
L 3022 2063 
z
" id="DejaVuSans-65" transform="scale(0.015625)"/>
       <path d="M 2906 1791 
Q 2906 2416 2648 2759 
Q 2391 3103 1925 3103 
Q 1463 3103 1205 2759 
Q 947 2416 947 1791 
Q 947 1169 1205 825 
Q 1463 481 1925 481 
Q 2391 481 2648 825 
Q 2906 1169 2906 1791 
z
M 3481 434 
Q 3481 -459 3084 -895 
Q 2688 -1331 1869 -1331 
Q 1566 -1331 1297 -1286 
Q 1028 -1241 775 -1147 
L 775 -588 
Q 1028 -725 1275 -790 
Q 1522 -856 1778 -856 
Q 2344 -856 2625 -561 
Q 2906 -266 2906 331 
L 2906 616 
Q 2728 306 2450 153 
Q 2172 0 1784 0 
Q 1141 0 747 490 
Q 353 981 353 1791 
Q 353 2603 747 3093 
Q 1141 3584 1784 3584 
Q 2172 3584 2450 3431 
Q 2728 3278 2906 2969 
L 2906 3500 
L 3481 3500 
L 3481 434 
z
" id="DejaVuSans-67" transform="scale(0.015625)"/>
      </defs>
      <use xlink:href="#DejaVuSans-5b"/>
      <use x="39.013672" xlink:href="#DejaVuSans-64"/>
      <use x="102.490234" xlink:href="#DejaVuSans-65"/>
      <use x="164.013672" xlink:href="#DejaVuSans-67"/>
      <use x="227.490234" xlink:href="#DejaVuSans-5d"/>
     </g>
    </g>
   </g>
   <g id="line2d_29">
    <path clip-path="url(#p5e5a6820c2)" d="M 178.275037 636.104451 
L 179.395402 634.244975 
L 180.515767 634.972303 
L 181.636131 633.395355 
L 182.756496 636.006997 
L 183.876861 634.977401 
L 184.997226 635.609201 
L 186.117591 635.534125 
L 187.237956 631.968139 
L 188.35832 633.087544 
L 189.478685 633.237555 
L 190.59905 635.814039 
L 191.719415 634.750581 
L 192.83978 634.389855 
L 193.960144 635.325412 
L 195.080509 635.167657 
L 196.200874 635.248258 
L 197.321239 635.954162 
L 198.441604 633.896996 
L 199.561969 632.463273 
L 200.682333 632.591032 
L 201.802698 634.10971 
L 202.923063 633.901799 
L 204.043428 634.402292 
L 205.163793 631.867929 
L 206.284157 631.184735 
L 207.404522 632.235233 
L 208.524887 634.380001 
L 209.645252 632.00688 
L 210.765617 632.77896 
L 211.885982 631.601768 
L 213.006346 632.829814 
L 214.126711 631.397036 
L 215.247076 630.444104 
L 216.367441 633.851881 
L 217.487806 632.644449 
L 218.608171 635.940764 
L 219.728535 631.510444 
L 220.8489 632.9177 
L 221.969265 632.459393 
L 223.08963 633.017957 
L 224.209995 633.315835 
L 225.330359 635.797282 
L 226.450724 634.391283 
L 227.571089 634.024055 
L 228.691454 632.453839 
L 229.811819 634.312938 
L 230.932184 635.940955 
L 232.052548 634.333643 
L 233.172913 634.243849 
L 234.293278 634.875995 
L 235.413643 631.403703 
L 236.534008 636.021251 
L 237.654372 633.648589 
L 238.774737 631.629181 
L 239.895102 634.04528 
L 241.015467 634.457513 
L 242.135832 633.876626 
L 243.256197 635.685876 
L 244.376561 635.862015 
L 245.496926 633.430089 
L 246.617291 632.517413 
L 247.737656 635.517884 
L 248.858021 633.170685 
L 251.09875 633.061723 
L 252.219115 635.251917 
L 253.33948 632.827015 
L 255.58021 630.526417 
L 256.700574 636.024394 
L 257.820939 633.900609 
L 258.941304 635.178395 
L 260.061669 633.626566 
L 261.182034 634.099745 
L 262.302398 634.909071 
L 263.422763 613.799511 
L 264.543128 609.006533 
L 266.783858 600.520757 
L 267.904223 598.359416 
L 269.024587 597.253188 
L 270.144952 590.724926 
L 271.265317 586.595379 
L 272.385682 588.577126 
L 273.506047 590.096809 
L 274.626411 586.022287 
L 275.746776 583.105302 
L 276.867141 585.242515 
L 277.987506 584.628031 
L 279.107871 599.887928 
L 280.228236 601.784977 
L 281.3486 605.101524 
L 283.58933 604.29557 
L 284.709695 602.63268 
L 285.83006 602.702801 
L 286.950424 606.322735 
L 288.070789 591.562615 
L 289.191154 583.889198 
L 290.311519 580.956295 
L 291.431884 595.733577 
L 292.552249 600.256807 
L 293.672613 601.231135 
L 294.792978 602.037174 
L 295.913343 600.628119 
L 297.033708 603.230768 
L 298.154073 599.757282 
L 299.274438 599.691855 
L 300.394802 599.7545 
L 301.515167 601.481636 
L 302.635532 601.959472 
L 303.755897 601.371219 
L 304.876262 603.540312 
L 305.996626 603.634252 
L 307.116991 601.051415 
L 308.237356 602.563365 
L 309.357721 601.070387 
L 310.478086 604.926845 
L 311.598451 606.315273 
L 312.718815 605.947846 
L 313.83918 635.248891 
L 314.959545 626.71329 
L 316.07991 615.773372 
L 317.200275 611.11385 
L 318.320639 608.683202 
L 319.441004 609.658243 
L 320.561369 611.648038 
L 321.681734 608.892993 
L 322.802099 612.278159 
L 323.922464 609.452288 
L 325.042828 611.054089 
L 326.163193 610.210667 
L 327.283558 605.823913 
L 329.524288 609.210273 
L 330.644652 609.560653 
L 331.765017 609.729507 
L 332.885382 611.12056 
L 334.005747 611.263963 
L 335.126112 613.72843 
L 336.246477 611.526584 
L 337.366841 608.50266 
L 338.487206 607.916257 
L 339.607571 608.474977 
L 340.727936 604.383618 
L 341.848301 605.76909 
L 342.968665 601.449013 
L 345.209395 609.81196 
L 346.32976 608.61269 
L 347.450125 608.408933 
L 348.57049 610.363537 
L 349.690854 608.133153 
L 350.811219 608.483322 
L 351.931584 610.150636 
L 353.051949 611.265832 
L 354.172314 609.077305 
L 355.292678 612.576562 
L 356.413043 612.083546 
L 357.533408 614.663335 
L 358.653773 609.457237 
L 359.774138 614.103548 
L 360.894503 610.770012 
L 362.014867 609.175607 
L 363.135232 608.166444 
L 364.255597 605.92848 
L 365.375962 611.182457 
L 366.496327 612.581586 
L 367.616691 611.789733 
L 368.737056 612.702597 
L 369.857421 613.366405 
L 370.977786 612.482077 
L 372.098151 611.221683 
L 373.218516 610.690743 
L 374.33888 612.049385 
L 375.459245 614.180906 
L 376.57961 615.588613 
L 377.699975 613.774624 
L 378.82034 611.548104 
L 379.940704 612.314829 
L 381.061069 592.546926 
L 382.181434 584.119176 
L 383.301799 583.514089 
L 384.422164 581.579835 
L 385.542529 582.567065 
L 386.662893 603.729162 
L 387.783258 608.359677 
L 388.903623 609.005166 
L 390.023988 609.188428 
L 391.144353 611.422299 
L 392.264718 612.160727 
L 393.385082 612.554057 
L 394.505447 610.753582 
L 395.625812 610.627575 
L 396.746177 610.130875 
L 397.866542 611.632204 
L 398.986906 614.077962 
L 400.107271 612.133698 
L 401.227636 611.812119 
L 402.348001 610.327518 
L 403.468366 609.880588 
L 404.588731 612.817254 
L 405.709095 608.074645 
L 406.82946 612.594876 
L 407.949825 608.201855 
L 409.07019 607.327594 
L 410.190555 609.691225 
L 411.310919 610.234943 
L 412.431284 612.89088 
L 413.551649 611.705728 
L 414.672014 614.132511 
L 415.792379 614.143309 
L 416.912744 610.565607 
L 418.033108 611.780029 
L 419.153473 614.133832 
L 420.273838 611.534014 
L 421.394203 612.86677 
L 422.514568 612.133643 
L 423.634932 612.457917 
L 424.755297 617.099054 
L 425.875662 613.575196 
L 426.996027 613.09487 
L 428.116392 612.118718 
L 429.236757 611.990638 
L 430.357121 613.858743 
L 431.477486 614.070334 
L 432.597851 612.033286 
L 433.718216 607.777997 
L 434.838581 610.053348 
L 435.958945 613.977176 
L 437.07931 613.275677 
L 438.199675 610.686123 
L 439.32004 607.254007 
L 440.440405 609.661603 
L 441.56077 611.606043 
L 442.681134 610.387094 
L 443.801499 614.170213 
L 444.921864 614.075262 
L 446.042229 611.864629 
L 447.162594 614.522328 
L 448.282958 614.717477 
L 449.403323 611.819148 
L 450.523688 618.149097 
L 451.644053 615.256418 
L 452.764418 614.182748 
L 453.884783 611.925068 
L 455.005147 613.420218 
L 456.125512 612.437814 
L 457.245877 610.606945 
L 458.366242 613.8521 
L 459.486607 615.775072 
L 460.606971 612.200404 
L 461.727336 617.604749 
L 462.847701 616.675592 
L 463.968066 612.922066 
L 465.088431 610.413766 
L 466.208796 611.608108 
L 467.32916 612.12565 
L 468.449525 611.370194 
L 470.690255 612.059866 
L 471.81062 613.042459 
L 472.930985 612.489513 
L 474.051349 614.817357 
L 475.171714 614.445975 
L 476.292079 613.603241 
L 477.412444 613.512986 
L 478.532809 609.393939 
L 479.653173 616.245999 
L 480.773538 613.085999 
L 481.893903 611.989223 
L 483.014268 612.013876 
L 484.134633 612.183989 
L 485.254998 614.093347 
L 486.375362 614.768225 
L 487.495727 613.609229 
L 488.616092 613.317189 
L 489.736457 612.045055 
L 490.856822 612.591693 
L 491.977186 614.449192 
L 493.097551 614.845773 
L 494.217916 613.533386 
L 495.338281 614.171037 
L 496.458646 612.622201 
L 497.579011 615.735226 
L 498.699375 616.129013 
L 499.81974 614.472682 
L 500.940105 612.179889 
L 502.06047 615.008419 
L 503.180835 614.390099 
L 504.301199 613.490968 
L 505.421564 617.641903 
L 506.541929 615.237747 
L 508.782659 613.165165 
L 509.903024 611.607112 
L 511.023388 611.18692 
L 512.143753 613.755057 
L 513.264118 613.652516 
L 514.384483 610.496448 
L 515.504848 612.297163 
L 516.625212 610.619195 
L 517.745577 611.157857 
L 518.865942 608.661182 
L 519.986307 611.913557 
L 521.106672 611.785282 
L 522.227037 610.786138 
L 523.347401 615.487291 
L 524.467766 613.838545 
L 525.588131 612.528515 
L 526.708496 613.155711 
L 527.828861 610.565917 
L 528.949225 609.205749 
L 530.06959 609.424702 
L 531.189955 610.939654 
L 532.31032 609.286492 
L 533.430685 611.457155 
L 534.55105 610.253828 
L 535.671414 585.526973 
L 536.791779 570.669333 
L 537.912144 562.488246 
L 539.032509 547.451569 
L 540.152874 544.493027 
L 541.273238 548.263087 
L 542.393603 526.34801 
L 543.513968 512.998327 
L 544.634333 532.02695 
L 545.754698 541.896105 
L 546.875063 540.493616 
L 547.995427 532.863477 
L 549.115792 530.951119 
L 550.236157 533.788256 
L 551.356522 534.254073 
L 552.476887 553.523848 
L 553.597252 561.914772 
L 554.717616 572.058749 
L 556.958346 560.354718 
L 558.078711 581.522241 
L 559.199076 586.436566 
L 560.31944 587.767572 
L 561.439805 584.730989 
L 562.56017 587.15771 
L 563.680535 560.64926 
L 564.8009 548.660314 
L 565.921265 571.344845 
L 567.041629 579.864241 
L 568.161994 579.175735 
L 569.282359 573.92983 
L 570.402724 567.395323 
L 571.523089 567.814379 
L 572.643453 566.435956 
L 573.763818 568.208482 
L 574.884183 570.775075 
L 576.004548 569.353992 
L 577.124913 571.695772 
L 578.245278 571.035944 
L 579.365642 572.553603 
L 580.486007 570.317911 
L 581.606372 566.19932 
L 582.726737 568.163894 
L 583.847102 562.903887 
L 584.967466 564.424974 
L 586.087831 566.945922 
L 587.208196 561.894642 
L 588.328561 555.605706 
L 589.448926 554.851287 
L 590.569291 557.982583 
L 591.689655 558.086741 
L 592.81002 555.804511 
L 593.930385 557.171175 
L 595.05075 553.087063 
L 596.171115 552.339389 
L 597.291479 555.418981 
L 598.411844 553.268941 
L 599.532209 556.717363 
L 600.652574 582.235261 
L 601.772939 593.729009 
L 602.893304 545.720757 
L 604.013668 524.144245 
L 605.134033 527.209189 
L 606.254398 517.79463 
L 607.374763 542.842084 
L 608.495128 549.82455 
L 609.615492 571.806194 
L 610.735857 557.126812 
L 611.856222 550.765872 
L 612.976587 550.800101 
L 614.096952 548.681108 
L 615.217317 547.402773 
L 616.337681 548.42917 
L 617.458046 551.113679 
L 618.578411 550.764 
L 619.698776 549.382218 
L 620.819141 546.714697 
L 621.939505 549.779213 
L 623.05987 549.237534 
L 624.180235 563.028074 
L 625.3006 566.906379 
L 626.420965 565.883773 
L 627.54133 569.63425 
L 628.661694 571.769924 
L 629.782059 573.149462 
L 630.902424 557.656783 
L 632.022789 552.995272 
L 633.143154 555.487885 
L 634.263518 551.799599 
L 635.383883 551.514058 
L 636.504248 552.767762 
L 637.624613 552.961854 
L 638.744978 553.749874 
L 639.865343 553.4614 
L 640.985707 550.207653 
L 642.106072 541.493724 
L 643.226437 546.918179 
L 644.346802 555.378335 
L 645.467167 556.404329 
L 646.587532 553.410827 
L 647.707896 550.011939 
L 648.828261 557.051819 
L 649.948626 585.506028 
L 652.189356 600.816468 
L 653.30972 600.245754 
L 654.430085 602.692658 
L 655.55045 603.981574 
L 656.670815 609.454463 
L 657.79118 583.059803 
L 658.911545 578.749055 
L 660.031909 578.459314 
L 661.152274 579.576124 
L 662.272639 576.449469 
L 663.393004 569.485822 
L 664.513369 568.569522 
L 665.633733 573.745081 
L 666.754098 575.990463 
L 667.874463 574.161705 
L 668.994828 576.18788 
L 671.235558 581.939488 
L 672.355922 585.778185 
L 673.476287 587.69806 
L 674.596652 587.976149 
L 675.717017 582.954837 
L 677.957746 595.17464 
L 679.078111 597.864428 
L 680.198476 595.313395 
L 681.318841 590.047243 
L 682.439206 598.306846 
L 683.559571 608.003072 
L 684.679935 608.711863 
L 685.8003 617.493751 
L 686.920665 618.158337 
L 688.04103 607.66349 
L 689.161395 595.037246 
L 690.281759 597.497959 
L 691.402124 606.974915 
L 692.522489 614.220019 
L 693.642854 616.167903 
L 694.763219 592.983851 
L 695.883584 588.268582 
L 697.003948 584.846229 
L 698.124313 582.205431 
L 699.244678 585.829787 
L 700.365043 584.817327 
L 701.485408 584.482024 
L 702.605772 608.203472 
L 703.726137 614.23913 
L 704.846502 602.392297 
L 705.966867 604.764865 
L 707.087232 608.531894 
L 708.207597 607.311223 
L 709.327961 591.92413 
L 710.448326 594.420536 
L 711.568691 581.353115 
L 712.689056 583.581201 
L 713.809421 604.169984 
L 714.929785 570.646616 
L 716.05015 560.516296 
L 717.170515 590.853678 
L 718.29088 601.231212 
L 719.411245 602.680951 
L 720.53161 603.363282 
L 721.651974 604.235043 
L 722.772339 606.80963 
L 723.892704 602.425941 
L 725.013069 605.429763 
L 726.133434 603.930046 
L 727.253799 603.73307 
L 728.374163 605.120992 
L 729.494528 604.953705 
L 730.614893 605.47886 
L 732.855623 617.047498 
L 733.975987 579.614028 
L 735.096352 567.292221 
L 736.216717 559.698553 
L 737.337082 556.341023 
L 738.457447 576.503877 
L 739.577812 581.509282 
L 740.698176 582.18037 
L 741.818541 583.19792 
L 742.938906 585.209359 
L 744.059271 582.624537 
L 745.179636 583.467572 
L 746.3 582.86059 
L 747.420365 583.099139 
L 748.54073 582.015596 
L 749.661095 585.425218 
L 750.78146 586.037016 
L 751.901825 591.485964 
L 754.142554 588.12539 
L 755.262919 598.003251 
L 756.383284 597.91808 
L 757.503649 600.886378 
L 758.624013 583.044612 
L 760.864743 574.012068 
L 761.985108 570.676793 
L 763.105473 571.368067 
L 764.225838 607.353706 
L 765.346202 621.171284 
L 766.466567 599.976349 
L 768.707297 591.95143 
L 769.827662 596.13375 
L 770.948026 597.084978 
L 772.068391 589.76638 
L 773.188756 589.639186 
L 774.309121 588.941099 
L 775.429486 587.780203 
L 776.549851 585.393419 
L 777.670215 590.525077 
L 778.79058 582.071099 
L 781.03131 571.464113 
L 782.151675 569.089987 
L 783.272039 573.849111 
L 784.392404 573.589786 
L 785.512769 580.452422 
L 786.633134 583.15197 
L 787.753499 584.816904 
L 788.873864 599.639033 
L 789.994228 601.595898 
L 791.114593 590.948368 
L 792.234958 586.691868 
L 793.355323 588.932491 
L 794.475688 588.439725 
L 795.596052 591.031804 
L 797.836782 585.429637 
L 798.957147 586.746607 
L 800.077512 586.072244 
L 801.197877 587.081817 
L 802.318241 582.968889 
L 803.438606 585.194288 
L 804.558971 585.632311 
L 805.679336 584.757081 
L 806.799701 585.897718 
L 807.920065 586.615225 
L 809.04043 582.487581 
L 810.160795 585.304144 
L 811.28116 590.47046 
L 812.401525 606.576472 
L 813.52189 590.757084 
L 814.642254 581.964647 
L 815.762619 588.466864 
L 816.882984 593.540911 
L 818.003349 591.408452 
L 819.123714 588.489813 
L 820.244079 583.392565 
L 821.364443 585.638761 
L 822.484808 586.959787 
L 824.725538 580.677797 
L 825.845903 577.961378 
L 826.966267 575.826098 
L 828.086632 572.031533 
L 829.206997 592.227374 
L 830.327362 576.598387 
L 831.447727 564.366213 
L 832.568092 554.570583 
L 833.688456 552.17059 
L 834.808821 540.220665 
L 837.049551 568.631261 
L 838.169916 571.950217 
L 839.29028 561.871427 
L 840.410645 561.421901 
L 841.53101 562.315926 
L 842.651375 588.295612 
L 843.77174 609.883313 
L 844.892105 623.367983 
L 846.012469 621.876862 
L 847.132834 618.886981 
L 848.253199 605.491358 
L 849.373564 576.660673 
L 850.493929 556.362724 
L 851.614293 569.648742 
L 852.734658 576.658213 
L 853.855023 570.185871 
L 854.975388 566.637171 
L 856.095753 569.660764 
L 857.216118 569.924146 
L 858.336482 567.979551 
L 859.456847 567.540071 
L 860.577212 578.025014 
L 861.697577 581.570552 
L 862.817942 584.69882 
L 863.938306 579.911845 
L 865.058671 577.261106 
L 866.179036 576.769422 
L 867.299401 580.258122 
L 868.419766 578.274858 
L 869.540131 575.064025 
L 870.660495 576.463897 
L 871.78086 576.712468 
L 872.901225 579.150518 
L 874.02159 579.0073 
L 875.141955 569.590897 
L 876.262319 568.072072 
L 877.382684 564.306426 
L 878.503049 562.522301 
L 879.623414 557.251132 
L 880.743779 559.906191 
L 881.864144 565.38449 
L 882.984508 558.805766 
L 884.104873 553.450255 
L 885.225238 549.914617 
L 886.345603 551.803546 
L 887.465968 549.345262 
L 888.586332 547.227386 
L 889.706697 578.542918 
L 890.827062 588.991548 
L 891.947427 594.194082 
L 893.067792 603.004353 
L 894.188157 606.135051 
L 895.308521 611.260165 
L 896.428886 608.156816 
L 897.549251 611.598228 
L 898.669616 608.364124 
L 899.789981 615.202918 
L 900.910346 592.039563 
L 902.03071 586.008012 
L 903.151075 570.287006 
L 904.27144 563.301812 
L 905.391805 546.620513 
L 906.51217 548.008731 
L 907.632534 536.676394 
L 908.752899 542.81058 
L 909.873264 540.859096 
L 910.993629 538.487106 
L 912.113994 543.969343 
L 913.234359 539.197983 
L 914.354723 533.325563 
L 915.475088 559.190677 
L 916.595453 570.930464 
L 917.715818 588.723822 
L 918.836183 593.867363 
L 919.956547 592.280413 
L 921.076912 608.072174 
L 922.197277 628.639169 
L 923.317642 624.624252 
L 924.438007 635.004511 
L 925.558372 631.478209 
L 926.678736 629.624531 
L 927.799101 624.501471 
L 928.919466 633.854283 
L 930.039831 629.875167 
L 931.160196 634.941432 
L 932.28056 632.751782 
L 933.400925 622.764205 
L 934.52129 620.624362 
L 935.641655 633.700209 
L 936.76202 626.92118 
L 937.882385 634.294992 
L 939.002749 631.888918 
L 940.123114 635.718023 
L 941.243479 605.663204 
L 942.363844 585.862229 
L 943.484209 608.833521 
L 944.604573 615.106304 
L 945.724938 623.347057 
L 946.845303 634.012631 
L 947.965668 618.44731 
L 949.086033 616.284151 
L 950.206398 613.628133 
L 951.326762 615.654213 
L 952.447127 614.653586 
L 953.567492 618.261336 
L 954.687857 620.969746 
L 955.808222 632.76822 
L 956.928586 623.396029 
L 958.048951 621.316272 
L 959.169316 621.588531 
L 960.289681 619.153816 
L 961.410046 612.639752 
L 962.530411 611.938095 
L 963.650775 602.764394 
L 964.77114 599.935653 
L 965.891505 596.170766 
L 967.01187 602.007174 
L 968.132235 621.839504 
L 969.252599 628.679366 
L 970.372964 631.0642 
L 971.493329 633.153275 
L 972.613694 633.316042 
L 973.734059 631.508318 
L 974.854424 622.295803 
L 975.974788 618.259994 
L 977.095153 605.261201 
L 978.215518 596.724839 
L 979.335883 595.418621 
L 980.456248 596.075333 
L 981.576612 594.494233 
L 982.696977 595.738877 
L 983.817342 594.478689 
L 984.937707 597.204804 
L 986.058072 595.779651 
L 988.298801 589.488738 
L 989.419166 591.405489 
L 990.539531 591.135156 
L 991.659896 592.729357 
L 992.780261 594.879178 
L 993.900626 593.862986 
L 995.02099 592.320556 
L 996.141355 595.168749 
L 997.26172 592.980802 
L 998.382085 593.739534 
L 999.50245 592.727319 
L 1000.622814 592.222919 
L 1001.743179 590.326707 
L 1002.863544 585.577402 
L 1003.983909 587.041463 
L 1005.104274 587.959856 
L 1006.224639 586.41112 
L 1007.345003 587.633697 
L 1008.465368 569.790469 
L 1009.585733 562.224922 
L 1010.706098 556.604868 
L 1011.826463 555.844397 
L 1012.946827 579.109791 
L 1014.067192 587.027297 
L 1015.187557 589.243982 
L 1016.307922 588.545406 
L 1017.428287 598.788284 
L 1018.548652 611.148275 
L 1019.669016 621.174484 
L 1020.789381 625.994334 
L 1021.909746 582.321353 
L 1023.030111 558.671173 
L 1024.150476 552.043753 
L 1025.27084 585.461537 
L 1026.391205 600.364596 
L 1027.51157 605.998002 
L 1028.631935 606.649155 
L 1029.7523 607.094776 
L 1030.872665 607.831604 
L 1031.993029 608.16584 
L 1033.113394 608.261732 
L 1034.233759 610.748973 
L 1035.354124 609.776947 
L 1036.474489 614.239003 
L 1037.594853 615.598509 
L 1038.715218 611.868799 
L 1039.835583 613.089393 
L 1040.955948 612.901754 
L 1042.076313 613.62203 
L 1043.196678 609.079431 
L 1044.317042 609.517978 
L 1045.437407 610.570716 
L 1046.557772 590.801857 
L 1047.678137 583.717581 
L 1048.798502 583.268999 
L 1049.918866 631.086 
L 1051.039231 614.778819 
L 1052.159596 603.079637 
L 1053.279961 604.142315 
L 1054.400326 603.442213 
L 1055.520691 599.242388 
L 1056.641055 600.981678 
L 1057.76142 601.377162 
L 1058.881785 604.661925 
L 1060.00215 601.643858 
L 1061.122515 602.620732 
L 1062.242879 604.876307 
L 1063.363244 606.378543 
L 1064.483609 602.664079 
L 1065.603974 606.488599 
L 1066.724339 605.178658 
L 1067.844704 601.970594 
L 1068.965068 601.698436 
L 1070.085433 601.130316 
L 1071.205798 606.186213 
L 1072.326163 606.733512 
L 1073.446528 609.384463 
L 1074.566893 605.317327 
L 1075.687257 605.123269 
L 1076.807622 608.243726 
L 1077.927987 607.190424 
L 1079.048352 607.434551 
L 1080.168717 607.505502 
L 1081.289081 604.815442 
L 1082.409446 605.35836 
L 1083.529811 607.041992 
L 1084.650176 606.051749 
L 1085.770541 606.535977 
L 1086.890906 604.130909 
L 1088.01127 606.309549 
L 1089.131635 609.787527 
L 1090.252 605.91839 
L 1091.372365 608.372377 
L 1092.49273 607.005286 
L 1093.613094 608.524793 
L 1094.733459 606.003675 
L 1095.853824 606.802364 
L 1096.974189 606.802838 
L 1098.094554 612.192279 
L 1099.214919 608.708053 
L 1100.335283 609.653237 
L 1101.455648 609.702261 
L 1102.576013 612.347912 
L 1103.696378 611.997718 
L 1104.816743 610.449324 
L 1105.937107 613.427152 
L 1107.057472 613.214593 
L 1108.177837 612.364737 
L 1109.298202 609.57707 
L 1110.418567 612.074756 
L 1111.538932 612.996492 
L 1112.659296 607.002185 
L 1113.779661 633.023859 
L 1114.900026 611.530943 
L 1116.020391 607.866478 
L 1117.140756 611.722536 
L 1118.26112 610.661601 
L 1119.381485 610.755043 
L 1120.50185 608.248059 
L 1121.622215 607.587382 
L 1122.74258 609.150298 
L 1123.862945 607.120764 
L 1124.983309 607.184841 
L 1126.103674 609.089492 
L 1127.224039 610.341992 
L 1128.344404 612.547875 
L 1129.464769 622.164958 
L 1130.585133 608.902378 
L 1131.705498 606.461536 
L 1132.825863 607.421736 
L 1133.946228 606.803228 
L 1135.066593 604.332847 
L 1136.186958 608.430796 
L 1137.307322 606.834155 
L 1138.427687 608.611142 
L 1139.548052 608.997121 
L 1140.668417 608.748359 
L 1141.788782 611.427522 
L 1142.909146 593.904014 
L 1144.029511 612.827534 
L 1145.149876 617.879727 
L 1146.270241 619.218061 
L 1148.510971 624.449066 
L 1149.631335 635.645953 
L 1151.872065 615.136545 
L 1152.99243 609.958133 
L 1154.112795 600.644852 
L 1155.233159 610.713832 
L 1156.353524 633.670625 
L 1157.473889 634.837261 
L 1158.594254 634.855085 
L 1159.714619 634.12875 
L 1160.834984 635.057849 
L 1161.955348 632.368415 
L 1163.075713 630.313099 
L 1164.196078 627.845917 
L 1165.316443 620.856704 
L 1166.436808 629.533325 
L 1167.557173 612.290523 
L 1168.677537 605.607118 
L 1169.797902 608.944356 
L 1170.918267 604.234717 
L 1172.038632 593.460139 
L 1173.158997 607.626471 
L 1174.279361 606.355339 
L 1175.399726 608.129826 
L 1176.520091 620.924955 
L 1177.640456 626.315184 
L 1178.760821 633.375279 
L 1179.881186 635.552494 
L 1181.00155 633.198454 
L 1182.121915 629.145765 
L 1183.24228 633.773075 
L 1184.362645 615.882046 
L 1185.48301 634.319703 
L 1186.603374 627.40944 
L 1187.723739 621.892491 
L 1188.844104 620.224841 
L 1189.964469 626.350787 
L 1191.084834 627.318236 
L 1192.205199 624.240909 
L 1193.325563 629.431214 
L 1194.445928 610.860731 
L 1195.566293 609.336208 
L 1196.686658 605.200888 
L 1197.807023 609.019949 
L 1198.927387 611.485311 
L 1200.047752 607.645411 
L 1201.168117 605.745827 
L 1202.288482 608.97325 
L 1203.408847 606.012031 
L 1204.529212 608.417284 
L 1205.649576 610.061565 
L 1206.769941 607.168576 
L 1207.890306 608.80898 
L 1209.010671 608.549022 
L 1210.131036 608.788525 
L 1211.2514 603.897667 
L 1212.371765 608.659631 
L 1213.49213 608.005359 
L 1214.612495 602.357547 
L 1215.73286 602.794438 
L 1216.853225 595.850601 
L 1217.973589 593.601981 
L 1219.093954 592.377012 
L 1220.214319 588.873942 
L 1221.334684 587.15513 
L 1222.455049 596.231392 
L 1223.575413 599.726667 
L 1224.695778 600.124472 
L 1225.816143 604.700908 
L 1226.936508 608.596228 
L 1228.056873 606.989422 
L 1229.177238 608.666324 
L 1230.297602 608.32858 
L 1231.417967 611.312836 
L 1232.538332 601.193455 
L 1233.658697 597.208661 
L 1234.779062 594.274387 
L 1235.899426 576.428057 
L 1237.019791 567.573033 
L 1238.140156 570.968452 
L 1239.260521 591.413411 
L 1240.380886 600.886129 
L 1241.501251 600.181162 
L 1242.621615 600.199029 
L 1243.74198 575.444719 
L 1244.862345 562.046622 
L 1245.98271 561.688449 
L 1247.103075 582.420844 
L 1248.22344 548.710709 
L 1249.343804 527.028975 
L 1250.464169 514.003337 
L 1251.584534 520.067364 
L 1253.825264 441.161678 
L 1254.945628 422.95801 
L 1256.065993 392.228669 
L 1257.186358 431.950275 
L 1258.306723 444.45968 
L 1259.427088 463.679078 
L 1260.547453 515.797819 
L 1261.667817 529.002766 
L 1262.788182 547.501632 
L 1263.908547 550.393747 
L 1265.028912 545.851286 
L 1266.149277 551.341456 
L 1267.269641 551.002232 
L 1268.390006 544.330896 
L 1269.510371 533.676545 
L 1270.630736 529.479278 
L 1271.751101 516.703968 
L 1272.871466 473.941512 
L 1273.99183 449.974444 
L 1275.112195 444.070817 
L 1276.23256 439.787856 
L 1277.352925 451.899608 
L 1278.47329 450.91364 
L 1279.593654 451.341665 
L 1280.714019 448.779265 
L 1281.834384 468.592834 
L 1282.954749 480.377846 
L 1285.195479 477.062863 
L 1286.315843 478.293665 
L 1287.436208 473.446105 
L 1288.556573 459.459353 
L 1289.676938 438.97428 
L 1290.797303 436.663388 
L 1291.917667 433.576447 
L 1293.038032 433.836868 
L 1294.158397 432.252173 
L 1295.278762 448.299469 
L 1297.519492 426.384372 
L 1297.519492 426.384372 
" style="fill:none;stroke:#1f77b4;stroke-linecap:square;stroke-width:1.5;"/>
   </g>
   <g id="patch_8">
    <path d="M 122.312814 648.29824 
L 122.312814 380.03488 
" style="fill:none;stroke:#000000;stroke-linecap:square;stroke-linejoin:miter;stroke-width:0.8;"/>
   </g>
   <g id="patch_9">
    <path d="M 1353.481714 648.29824 
L 1353.481714 380.03488 
" style="fill:none;stroke:#000000;stroke-linecap:square;stroke-linejoin:miter;stroke-width:0.8;"/>
   </g>
   <g id="patch_10">
    <path d="M 122.312814 648.29824 
L 1353.481714 648.29824 
" style="fill:none;stroke:#000000;stroke-linecap:square;stroke-linejoin:miter;stroke-width:0.8;"/>
   </g>
   <g id="patch_11">
    <path d="M 122.312814 380.03488 
L 1353.481714 380.03488 
" style="fill:none;stroke:#000000;stroke-linecap:square;stroke-linejoin:miter;stroke-width:0.8;"/>
   </g>
   <g id="text_25">
    <!-- Heading: RMSE 14.482013091276968 deg -->
    <g transform="translate(610.126327 374.03488)scale(0.12 -0.12)">
     <defs>
      <path d="M 628 4666 
L 1259 4666 
L 1259 2753 
L 3553 2753 
L 3553 4666 
L 4184 4666 
L 4184 0 
L 3553 0 
L 3553 2222 
L 1259 2222 
L 1259 0 
L 628 0 
L 628 4666 
z
" id="DejaVuSans-48" transform="scale(0.015625)"/>
      <path d="M 2194 1759 
Q 1497 1759 1228 1600 
Q 959 1441 959 1056 
Q 959 750 1161 570 
Q 1363 391 1709 391 
Q 2188 391 2477 730 
Q 2766 1069 2766 1631 
L 2766 1759 
L 2194 1759 
z
M 3341 1997 
L 3341 0 
L 2766 0 
L 2766 531 
Q 2569 213 2275 61 
Q 1981 -91 1556 -91 
Q 1019 -91 701 211 
Q 384 513 384 1019 
Q 384 1609 779 1909 
Q 1175 2209 1959 2209 
L 2766 2209 
L 2766 2266 
Q 2766 2663 2505 2880 
Q 2244 3097 1772 3097 
Q 1472 3097 1187 3025 
Q 903 2953 641 2809 
L 641 3341 
Q 956 3463 1253 3523 
Q 1550 3584 1831 3584 
Q 2591 3584 2966 3190 
Q 3341 2797 3341 1997 
z
" id="DejaVuSans-61" transform="scale(0.015625)"/>
      <path d="M 603 3500 
L 1178 3500 
L 1178 0 
L 603 0 
L 603 3500 
z
M 603 4863 
L 1178 4863 
L 1178 4134 
L 603 4134 
L 603 4863 
z
" id="DejaVuSans-69" transform="scale(0.015625)"/>
      <path d="M 3513 2113 
L 3513 0 
L 2938 0 
L 2938 2094 
Q 2938 2591 2744 2837 
Q 2550 3084 2163 3084 
Q 1697 3084 1428 2787 
Q 1159 2491 1159 1978 
L 1159 0 
L 581 0 
L 581 3500 
L 1159 3500 
L 1159 2956 
Q 1366 3272 1645 3428 
Q 1925 3584 2291 3584 
Q 2894 3584 3203 3211 
Q 3513 2838 3513 2113 
z
" id="DejaVuSans-6e" transform="scale(0.015625)"/>
      <path d="M 703 97 
L 703 672 
Q 941 559 1184 500 
Q 1428 441 1663 441 
Q 2288 441 2617 861 
Q 2947 1281 2994 2138 
Q 2813 1869 2534 1725 
Q 2256 1581 1919 1581 
Q 1219 1581 811 2004 
Q 403 2428 403 3163 
Q 403 3881 828 4315 
Q 1253 4750 1959 4750 
Q 2769 4750 3195 4129 
Q 3622 3509 3622 2328 
Q 3622 1225 3098 567 
Q 2575 -91 1691 -91 
Q 1453 -91 1209 -44 
Q 966 3 703 97 
z
M 1959 2075 
Q 2384 2075 2632 2365 
Q 2881 2656 2881 3163 
Q 2881 3666 2632 3958 
Q 2384 4250 1959 4250 
Q 1534 4250 1286 3958 
Q 1038 3666 1038 3163 
Q 1038 2656 1286 2365 
Q 1534 2075 1959 2075 
z
" id="DejaVuSans-39" transform="scale(0.015625)"/>
      <path d="M 525 4666 
L 3525 4666 
L 3525 4397 
L 1831 0 
L 1172 0 
L 2766 4134 
L 525 4134 
L 525 4666 
z
" id="DejaVuSans-37" transform="scale(0.015625)"/>
     </defs>
     <use xlink:href="#DejaVuSans-48"/>
     <use x="75.195312" xlink:href="#DejaVuSans-65"/>
     <use x="136.71875" xlink:href="#DejaVuSans-61"/>
     <use x="197.998047" xlink:href="#DejaVuSans-64"/>
     <use x="261.474609" xlink:href="#DejaVuSans-69"/>
     <use x="289.257812" xlink:href="#DejaVuSans-6e"/>
     <use x="352.636719" xlink:href="#DejaVuSans-67"/>
     <use x="416.113281" xlink:href="#DejaVuSans-3a"/>
     <use x="449.804688" xlink:href="#DejaVuSans-20"/>
     <use x="481.591797" xlink:href="#DejaVuSans-52"/>
     <use x="551.074219" xlink:href="#DejaVuSans-4d"/>
     <use x="637.353516" xlink:href="#DejaVuSans-53"/>
     <use x="700.830078" xlink:href="#DejaVuSans-45"/>
     <use x="764.013672" xlink:href="#DejaVuSans-20"/>
     <use x="795.800781" xlink:href="#DejaVuSans-31"/>
     <use x="859.423828" xlink:href="#DejaVuSans-34"/>
     <use x="923.046875" xlink:href="#DejaVuSans-2e"/>
     <use x="954.833984" xlink:href="#DejaVuSans-34"/>
     <use x="1018.457031" xlink:href="#DejaVuSans-38"/>
     <use x="1082.080078" xlink:href="#DejaVuSans-32"/>
     <use x="1145.703125" xlink:href="#DejaVuSans-30"/>
     <use x="1209.326172" xlink:href="#DejaVuSans-31"/>
     <use x="1272.949219" xlink:href="#DejaVuSans-33"/>
     <use x="1336.572266" xlink:href="#DejaVuSans-30"/>
     <use x="1400.195312" xlink:href="#DejaVuSans-39"/>
     <use x="1463.818359" xlink:href="#DejaVuSans-31"/>
     <use x="1527.441406" xlink:href="#DejaVuSans-32"/>
     <use x="1591.064453" xlink:href="#DejaVuSans-37"/>
     <use x="1654.6875" xlink:href="#DejaVuSans-36"/>
     <use x="1718.310547" xlink:href="#DejaVuSans-39"/>
     <use x="1781.933594" xlink:href="#DejaVuSans-36"/>
     <use x="1845.556641" xlink:href="#DejaVuSans-38"/>
     <use x="1909.179688" xlink:href="#DejaVuSans-20"/>
     <use x="1940.966797" xlink:href="#DejaVuSans-64"/>
     <use x="2004.443359" xlink:href="#DejaVuSans-65"/>
     <use x="2065.966797" xlink:href="#DejaVuSans-67"/>
    </g>
   </g>
  </g>
 </g>
 <defs>
  <clipPath id="pe910d8fd35">
   <rect height="268.26336" width="1231.1689" x="122.312814" y="52.46976"/>
  </clipPath>
  <clipPath id="p5e5a6820c2">
   <rect height="268.26336" width="1231.1689" x="122.312814" y="380.03488"/>
  </clipPath>
 </defs>
</svg>
