<?xml version="1.0" encoding="utf-8" standalone="no"?>
<!DOCTYPE svg PUBLIC "-//W3C//DTD SVG 1.1//EN"
  "http://www.w3.org/Graphics/SVG/1.1/DTD/svg11.dtd">
<svg height="707.76pt" version="1.1" viewBox="0 0 1382.4 707.76" width="1382.4pt" xmlns="http://www.w3.org/2000/svg" xmlns:xlink="http://www.w3.org/1999/xlink">
 <metadata>
  <rdf:RDF xmlns:cc="http://creativecommons.org/ns#" xmlns:dc="http://purl.org/dc/elements/1.1/" xmlns:rdf="http://www.w3.org/1999/02/22-rdf-syntax-ns#">
   <cc:Work>
    <dc:type rdf:resource="http://purl.org/dc/dcmitype/StillImage"/>
    <dc:date>2021-11-17T15:34:37.498917</dc:date>
    <dc:format>image/svg+xml</dc:format>
    <dc:creator>
     <cc:Agent>
      <dc:title>Matplotlib v3.4.3, https://matplotlib.org/</dc:title>
     </cc:Agent>
    </dc:creator>
   </cc:Work>
  </rdf:RDF>
 </metadata>
 <defs>
  <style type="text/css">*{stroke-linecap:butt;stroke-linejoin:round;}</style>
 </defs>
 <g id="figure_1">
  <g id="patch_1">
   <path d="M 0 707.76 
L 1382.4 707.76 
L 1382.4 0 
L 0 0 
z
" style="fill:#ffffff;"/>
  </g>
  <g id="axes_1">
   <g id="patch_2">
    <path d="M 172.8 629.9064 
L 1244.16 629.9064 
L 1244.16 84.9312 
L 172.8 84.9312 
z
" style="fill:#ffffff;"/>
   </g>
   <g id="matplotlib.axis_1">
    <g id="xtick_1">
     <g id="line2d_1">
      <path clip-path="url(#pf6448a713c)" d="M 221.498182 629.9064 
L 221.498182 84.9312 
" style="fill:none;stroke:#000000;stroke-dasharray:0.5,0.825;stroke-dashoffset:0;stroke-opacity:0.5;stroke-width:0.5;"/>
     </g>
     <g id="line2d_2">
      <defs>
       <path d="M 0 0 
L 0 3.5 
" id="m03d8609aeb" style="stroke:#000000;stroke-width:0.8;"/>
      </defs>
      <g>
       <use style="stroke:#000000;stroke-width:0.8;" x="221.498182" xlink:href="#m03d8609aeb" y="629.9064"/>
      </g>
     </g>
     <g id="text_1">
      <!-- 0 -->
      <g transform="translate(218.316932 644.504838)scale(0.1 -0.1)">
       <defs>
        <path d="M 2034 4250 
Q 1547 4250 1301 3770 
Q 1056 3291 1056 2328 
Q 1056 1369 1301 889 
Q 1547 409 2034 409 
Q 2525 409 2770 889 
Q 3016 1369 3016 2328 
Q 3016 3291 2770 3770 
Q 2525 4250 2034 4250 
z
M 2034 4750 
Q 2819 4750 3233 4129 
Q 3647 3509 3647 2328 
Q 3647 1150 3233 529 
Q 2819 -91 2034 -91 
Q 1250 -91 836 529 
Q 422 1150 422 2328 
Q 422 3509 836 4129 
Q 1250 4750 2034 4750 
z
" id="DejaVuSans-30" transform="scale(0.015625)"/>
       </defs>
       <use xlink:href="#DejaVuSans-30"/>
      </g>
     </g>
    </g>
    <g id="xtick_2">
     <g id="line2d_3">
      <path clip-path="url(#pf6448a713c)" d="M 416.485897 629.9064 
L 416.485897 84.9312 
" style="fill:none;stroke:#000000;stroke-dasharray:0.5,0.825;stroke-dashoffset:0;stroke-opacity:0.5;stroke-width:0.5;"/>
     </g>
     <g id="line2d_4">
      <g>
       <use style="stroke:#000000;stroke-width:0.8;" x="416.485897" xlink:href="#m03d8609aeb" y="629.9064"/>
      </g>
     </g>
     <g id="text_2">
      <!-- 200 -->
      <g transform="translate(406.942147 644.504838)scale(0.1 -0.1)">
       <defs>
        <path d="M 1228 531 
L 3431 531 
L 3431 0 
L 469 0 
L 469 531 
Q 828 903 1448 1529 
Q 2069 2156 2228 2338 
Q 2531 2678 2651 2914 
Q 2772 3150 2772 3378 
Q 2772 3750 2511 3984 
Q 2250 4219 1831 4219 
Q 1534 4219 1204 4116 
Q 875 4013 500 3803 
L 500 4441 
Q 881 4594 1212 4672 
Q 1544 4750 1819 4750 
Q 2544 4750 2975 4387 
Q 3406 4025 3406 3419 
Q 3406 3131 3298 2873 
Q 3191 2616 2906 2266 
Q 2828 2175 2409 1742 
Q 1991 1309 1228 531 
z
" id="DejaVuSans-32" transform="scale(0.015625)"/>
       </defs>
       <use xlink:href="#DejaVuSans-32"/>
       <use x="63.623047" xlink:href="#DejaVuSans-30"/>
       <use x="127.246094" xlink:href="#DejaVuSans-30"/>
      </g>
     </g>
    </g>
    <g id="xtick_3">
     <g id="line2d_5">
      <path clip-path="url(#pf6448a713c)" d="M 611.473612 629.9064 
L 611.473612 84.9312 
" style="fill:none;stroke:#000000;stroke-dasharray:0.5,0.825;stroke-dashoffset:0;stroke-opacity:0.5;stroke-width:0.5;"/>
     </g>
     <g id="line2d_6">
      <g>
       <use style="stroke:#000000;stroke-width:0.8;" x="611.473612" xlink:href="#m03d8609aeb" y="629.9064"/>
      </g>
     </g>
     <g id="text_3">
      <!-- 400 -->
      <g transform="translate(601.929862 644.504838)scale(0.1 -0.1)">
       <defs>
        <path d="M 2419 4116 
L 825 1625 
L 2419 1625 
L 2419 4116 
z
M 2253 4666 
L 3047 4666 
L 3047 1625 
L 3713 1625 
L 3713 1100 
L 3047 1100 
L 3047 0 
L 2419 0 
L 2419 1100 
L 313 1100 
L 313 1709 
L 2253 4666 
z
" id="DejaVuSans-34" transform="scale(0.015625)"/>
       </defs>
       <use xlink:href="#DejaVuSans-34"/>
       <use x="63.623047" xlink:href="#DejaVuSans-30"/>
       <use x="127.246094" xlink:href="#DejaVuSans-30"/>
      </g>
     </g>
    </g>
    <g id="xtick_4">
     <g id="line2d_7">
      <path clip-path="url(#pf6448a713c)" d="M 806.461327 629.9064 
L 806.461327 84.9312 
" style="fill:none;stroke:#000000;stroke-dasharray:0.5,0.825;stroke-dashoffset:0;stroke-opacity:0.5;stroke-width:0.5;"/>
     </g>
     <g id="line2d_8">
      <g>
       <use style="stroke:#000000;stroke-width:0.8;" x="806.461327" xlink:href="#m03d8609aeb" y="629.9064"/>
      </g>
     </g>
     <g id="text_4">
      <!-- 600 -->
      <g transform="translate(796.917577 644.504838)scale(0.1 -0.1)">
       <defs>
        <path d="M 2113 2584 
Q 1688 2584 1439 2293 
Q 1191 2003 1191 1497 
Q 1191 994 1439 701 
Q 1688 409 2113 409 
Q 2538 409 2786 701 
Q 3034 994 3034 1497 
Q 3034 2003 2786 2293 
Q 2538 2584 2113 2584 
z
M 3366 4563 
L 3366 3988 
Q 3128 4100 2886 4159 
Q 2644 4219 2406 4219 
Q 1781 4219 1451 3797 
Q 1122 3375 1075 2522 
Q 1259 2794 1537 2939 
Q 1816 3084 2150 3084 
Q 2853 3084 3261 2657 
Q 3669 2231 3669 1497 
Q 3669 778 3244 343 
Q 2819 -91 2113 -91 
Q 1303 -91 875 529 
Q 447 1150 447 2328 
Q 447 3434 972 4092 
Q 1497 4750 2381 4750 
Q 2619 4750 2861 4703 
Q 3103 4656 3366 4563 
z
" id="DejaVuSans-36" transform="scale(0.015625)"/>
       </defs>
       <use xlink:href="#DejaVuSans-36"/>
       <use x="63.623047" xlink:href="#DejaVuSans-30"/>
       <use x="127.246094" xlink:href="#DejaVuSans-30"/>
      </g>
     </g>
    </g>
    <g id="xtick_5">
     <g id="line2d_9">
      <path clip-path="url(#pf6448a713c)" d="M 1001.449042 629.9064 
L 1001.449042 84.9312 
" style="fill:none;stroke:#000000;stroke-dasharray:0.5,0.825;stroke-dashoffset:0;stroke-opacity:0.5;stroke-width:0.5;"/>
     </g>
     <g id="line2d_10">
      <g>
       <use style="stroke:#000000;stroke-width:0.8;" x="1001.449042" xlink:href="#m03d8609aeb" y="629.9064"/>
      </g>
     </g>
     <g id="text_5">
      <!-- 800 -->
      <g transform="translate(991.905292 644.504838)scale(0.1 -0.1)">
       <defs>
        <path d="M 2034 2216 
Q 1584 2216 1326 1975 
Q 1069 1734 1069 1313 
Q 1069 891 1326 650 
Q 1584 409 2034 409 
Q 2484 409 2743 651 
Q 3003 894 3003 1313 
Q 3003 1734 2745 1975 
Q 2488 2216 2034 2216 
z
M 1403 2484 
Q 997 2584 770 2862 
Q 544 3141 544 3541 
Q 544 4100 942 4425 
Q 1341 4750 2034 4750 
Q 2731 4750 3128 4425 
Q 3525 4100 3525 3541 
Q 3525 3141 3298 2862 
Q 3072 2584 2669 2484 
Q 3125 2378 3379 2068 
Q 3634 1759 3634 1313 
Q 3634 634 3220 271 
Q 2806 -91 2034 -91 
Q 1263 -91 848 271 
Q 434 634 434 1313 
Q 434 1759 690 2068 
Q 947 2378 1403 2484 
z
M 1172 3481 
Q 1172 3119 1398 2916 
Q 1625 2713 2034 2713 
Q 2441 2713 2670 2916 
Q 2900 3119 2900 3481 
Q 2900 3844 2670 4047 
Q 2441 4250 2034 4250 
Q 1625 4250 1398 4047 
Q 1172 3844 1172 3481 
z
" id="DejaVuSans-38" transform="scale(0.015625)"/>
       </defs>
       <use xlink:href="#DejaVuSans-38"/>
       <use x="63.623047" xlink:href="#DejaVuSans-30"/>
       <use x="127.246094" xlink:href="#DejaVuSans-30"/>
      </g>
     </g>
    </g>
    <g id="xtick_6">
     <g id="line2d_11">
      <path clip-path="url(#pf6448a713c)" d="M 1196.436757 629.9064 
L 1196.436757 84.9312 
" style="fill:none;stroke:#000000;stroke-dasharray:0.5,0.825;stroke-dashoffset:0;stroke-opacity:0.5;stroke-width:0.5;"/>
     </g>
     <g id="line2d_12">
      <g>
       <use style="stroke:#000000;stroke-width:0.8;" x="1196.436757" xlink:href="#m03d8609aeb" y="629.9064"/>
      </g>
     </g>
     <g id="text_6">
      <!-- 1000 -->
      <g transform="translate(1183.711757 644.504838)scale(0.1 -0.1)">
       <defs>
        <path d="M 794 531 
L 1825 531 
L 1825 4091 
L 703 3866 
L 703 4441 
L 1819 4666 
L 2450 4666 
L 2450 531 
L 3481 531 
L 3481 0 
L 794 0 
L 794 531 
z
" id="DejaVuSans-31" transform="scale(0.015625)"/>
       </defs>
       <use xlink:href="#DejaVuSans-31"/>
       <use x="63.623047" xlink:href="#DejaVuSans-30"/>
       <use x="127.246094" xlink:href="#DejaVuSans-30"/>
       <use x="190.869141" xlink:href="#DejaVuSans-30"/>
      </g>
     </g>
    </g>
   </g>
   <g id="matplotlib.axis_2">
    <g id="ytick_1">
     <g id="line2d_13">
      <path clip-path="url(#pf6448a713c)" d="M 172.8 625.278754 
L 1244.16 625.278754 
" style="fill:none;stroke:#000000;stroke-dasharray:0.5,0.825;stroke-dashoffset:0;stroke-opacity:0.5;stroke-width:0.5;"/>
     </g>
     <g id="line2d_14">
      <defs>
       <path d="M 0 0 
L -3.5 0 
" id="ma6ac63eb19" style="stroke:#000000;stroke-width:0.8;"/>
      </defs>
      <g>
       <use style="stroke:#000000;stroke-width:0.8;" x="172.8" xlink:href="#ma6ac63eb19" y="625.278754"/>
      </g>
     </g>
     <g id="text_7">
      <!-- 0.0 -->
      <g transform="translate(149.896875 629.077973)scale(0.1 -0.1)">
       <defs>
        <path d="M 684 794 
L 1344 794 
L 1344 0 
L 684 0 
L 684 794 
z
" id="DejaVuSans-2e" transform="scale(0.015625)"/>
       </defs>
       <use xlink:href="#DejaVuSans-30"/>
       <use x="63.623047" xlink:href="#DejaVuSans-2e"/>
       <use x="95.410156" xlink:href="#DejaVuSans-30"/>
      </g>
     </g>
    </g>
    <g id="ytick_2">
     <g id="line2d_15">
      <path clip-path="url(#pf6448a713c)" d="M 172.8 532.794676 
L 1244.16 532.794676 
" style="fill:none;stroke:#000000;stroke-dasharray:0.5,0.825;stroke-dashoffset:0;stroke-opacity:0.5;stroke-width:0.5;"/>
     </g>
     <g id="line2d_16">
      <g>
       <use style="stroke:#000000;stroke-width:0.8;" x="172.8" xlink:href="#ma6ac63eb19" y="532.794676"/>
      </g>
     </g>
     <g id="text_8">
      <!-- 0.5 -->
      <g transform="translate(149.896875 536.593895)scale(0.1 -0.1)">
       <defs>
        <path d="M 691 4666 
L 3169 4666 
L 3169 4134 
L 1269 4134 
L 1269 2991 
Q 1406 3038 1543 3061 
Q 1681 3084 1819 3084 
Q 2600 3084 3056 2656 
Q 3513 2228 3513 1497 
Q 3513 744 3044 326 
Q 2575 -91 1722 -91 
Q 1428 -91 1123 -41 
Q 819 9 494 109 
L 494 744 
Q 775 591 1075 516 
Q 1375 441 1709 441 
Q 2250 441 2565 725 
Q 2881 1009 2881 1497 
Q 2881 1984 2565 2268 
Q 2250 2553 1709 2553 
Q 1456 2553 1204 2497 
Q 953 2441 691 2322 
L 691 4666 
z
" id="DejaVuSans-35" transform="scale(0.015625)"/>
       </defs>
       <use xlink:href="#DejaVuSans-30"/>
       <use x="63.623047" xlink:href="#DejaVuSans-2e"/>
       <use x="95.410156" xlink:href="#DejaVuSans-35"/>
      </g>
     </g>
    </g>
    <g id="ytick_3">
     <g id="line2d_17">
      <path clip-path="url(#pf6448a713c)" d="M 172.8 440.310598 
L 1244.16 440.310598 
" style="fill:none;stroke:#000000;stroke-dasharray:0.5,0.825;stroke-dashoffset:0;stroke-opacity:0.5;stroke-width:0.5;"/>
     </g>
     <g id="line2d_18">
      <g>
       <use style="stroke:#000000;stroke-width:0.8;" x="172.8" xlink:href="#ma6ac63eb19" y="440.310598"/>
      </g>
     </g>
     <g id="text_9">
      <!-- 1.0 -->
      <g transform="translate(149.896875 444.109817)scale(0.1 -0.1)">
       <use xlink:href="#DejaVuSans-31"/>
       <use x="63.623047" xlink:href="#DejaVuSans-2e"/>
       <use x="95.410156" xlink:href="#DejaVuSans-30"/>
      </g>
     </g>
    </g>
    <g id="ytick_4">
     <g id="line2d_19">
      <path clip-path="url(#pf6448a713c)" d="M 172.8 347.82652 
L 1244.16 347.82652 
" style="fill:none;stroke:#000000;stroke-dasharray:0.5,0.825;stroke-dashoffset:0;stroke-opacity:0.5;stroke-width:0.5;"/>
     </g>
     <g id="line2d_20">
      <g>
       <use style="stroke:#000000;stroke-width:0.8;" x="172.8" xlink:href="#ma6ac63eb19" y="347.82652"/>
      </g>
     </g>
     <g id="text_10">
      <!-- 1.5 -->
      <g transform="translate(149.896875 351.625739)scale(0.1 -0.1)">
       <use xlink:href="#DejaVuSans-31"/>
       <use x="63.623047" xlink:href="#DejaVuSans-2e"/>
       <use x="95.410156" xlink:href="#DejaVuSans-35"/>
      </g>
     </g>
    </g>
    <g id="ytick_5">
     <g id="line2d_21">
      <path clip-path="url(#pf6448a713c)" d="M 172.8 255.342442 
L 1244.16 255.342442 
" style="fill:none;stroke:#000000;stroke-dasharray:0.5,0.825;stroke-dashoffset:0;stroke-opacity:0.5;stroke-width:0.5;"/>
     </g>
     <g id="line2d_22">
      <g>
       <use style="stroke:#000000;stroke-width:0.8;" x="172.8" xlink:href="#ma6ac63eb19" y="255.342442"/>
      </g>
     </g>
     <g id="text_11">
      <!-- 2.0 -->
      <g transform="translate(149.896875 259.141661)scale(0.1 -0.1)">
       <use xlink:href="#DejaVuSans-32"/>
       <use x="63.623047" xlink:href="#DejaVuSans-2e"/>
       <use x="95.410156" xlink:href="#DejaVuSans-30"/>
      </g>
     </g>
    </g>
    <g id="ytick_6">
     <g id="line2d_23">
      <path clip-path="url(#pf6448a713c)" d="M 172.8 162.858364 
L 1244.16 162.858364 
" style="fill:none;stroke:#000000;stroke-dasharray:0.5,0.825;stroke-dashoffset:0;stroke-opacity:0.5;stroke-width:0.5;"/>
     </g>
     <g id="line2d_24">
      <g>
       <use style="stroke:#000000;stroke-width:0.8;" x="172.8" xlink:href="#ma6ac63eb19" y="162.858364"/>
      </g>
     </g>
     <g id="text_12">
      <!-- 2.5 -->
      <g transform="translate(149.896875 166.657583)scale(0.1 -0.1)">
       <use xlink:href="#DejaVuSans-32"/>
       <use x="63.623047" xlink:href="#DejaVuSans-2e"/>
       <use x="95.410156" xlink:href="#DejaVuSans-35"/>
      </g>
     </g>
    </g>
   </g>
   <g id="line2d_25">
    <path clip-path="url(#pf6448a713c)" d="M 221.498182 440.310598 
L 222.47312 545.422633 
L 223.448059 540.699535 
L 224.422998 536.579334 
L 225.397936 536.579334 
L 226.372875 532.943317 
L 227.347813 532.943317 
L 229.29769 526.791001 
L 233.197445 526.791001 
L 234.172383 524.154942 
L 235.147322 524.154942 
L 236.12226 526.791001 
L 238.072138 526.791001 
L 239.047076 524.154942 
L 240.022015 526.791001 
L 250.746339 526.791001 
L 251.721278 529.703009 
L 252.696216 526.791001 
L 253.671155 526.791001 
L 254.646093 529.703009 
L 255.621032 529.703009 
L 256.595971 526.791001 
L 257.570909 526.791001 
L 259.520786 521.753482 
L 270.245111 521.753482 
L 271.220049 526.791001 
L 276.094742 526.791001 
L 277.069681 540.699535 
L 278.044619 536.579334 
L 279.019558 536.579334 
L 279.994496 540.699535 
L 280.969435 545.422633 
L 281.944373 540.699535 
L 282.919312 545.422633 
L 283.894251 545.422633 
L 284.869189 540.699535 
L 285.844128 540.699535 
L 286.819066 536.579334 
L 287.794005 540.699535 
L 291.693759 540.699535 
L 292.668698 536.579334 
L 293.643636 540.699535 
L 294.618575 540.699535 
L 295.593514 532.943317 
L 297.543391 526.791001 
L 300.468206 526.791001 
L 301.443145 529.703009 
L 302.418084 529.703009 
L 304.367961 524.154942 
L 308.267715 524.154942 
L 309.242654 521.753482 
L 310.217592 529.703009 
L 312.167469 529.703009 
L 313.142408 526.791001 
L 314.117346 529.703009 
L 317.042162 529.703009 
L 318.992039 524.154942 
L 320.941916 519.553471 
L 321.916855 517.527987 
L 322.891794 517.527987 
L 323.866732 521.753482 
L 324.841671 519.553471 
L 325.816609 519.553471 
L 326.791548 521.753482 
L 327.766486 526.791001 
L 328.741425 526.791001 
L 329.716364 524.154942 
L 330.691302 529.703009 
L 332.641179 529.703009 
L 333.616118 532.943317 
L 335.565995 557.398701 
L 336.540934 557.398701 
L 337.515872 550.911962 
L 338.490811 545.422633 
L 339.465749 545.422633 
L 340.440688 540.699535 
L 343.365504 540.699535 
L 344.340442 536.579334 
L 345.315381 536.579334 
L 346.290319 540.699535 
L 349.215135 540.699535 
L 350.190074 545.422633 
L 351.165012 545.422633 
L 352.139951 540.699535 
L 353.114889 540.699535 
L 354.089828 545.422633 
L 355.064767 540.699535 
L 357.989582 540.699535 
L 358.964521 545.422633 
L 362.864275 545.422633 
L 363.839214 550.911962 
L 364.814152 550.911962 
L 365.789091 545.422633 
L 385.287862 545.422633 
L 386.262801 540.699535 
L 387.23774 536.579334 
L 388.212678 540.699535 
L 389.187617 540.699535 
L 390.162555 536.579334 
L 391.137494 540.699535 
L 392.112432 545.422633 
L 393.087371 540.699535 
L 394.06231 536.579334 
L 395.037248 545.422633 
L 397.962064 545.422633 
L 398.937002 540.699535 
L 399.911941 536.579334 
L 406.736511 536.579334 
L 407.71145 540.699535 
L 419.410713 540.699535 
L 420.385651 545.422633 
L 421.36059 540.699535 
L 425.260344 540.699535 
L 426.235283 536.579334 
L 427.210221 536.579334 
L 428.18516 540.699535 
L 429.160098 536.579334 
L 430.135037 540.699535 
L 431.109975 536.579334 
L 432.084914 540.699535 
L 442.809238 540.699535 
L 443.784177 545.422633 
L 444.759115 540.699535 
L 445.734054 540.699535 
L 446.708993 550.911962 
L 447.683931 545.422633 
L 448.65887 550.911962 
L 449.633808 545.422633 
L 450.608747 536.579334 
L 451.583686 545.422633 
L 452.558624 540.699535 
L 453.533563 545.422633 
L 456.458378 545.422633 
L 457.433317 550.911962 
L 465.232826 550.911962 
L 466.207764 557.398701 
L 467.182703 540.699535 
L 468.157641 545.422633 
L 469.13258 540.699535 
L 471.082457 540.699535 
L 472.057396 545.422633 
L 473.032334 545.422633 
L 474.007273 540.699535 
L 474.982211 540.699535 
L 475.95715 532.943317 
L 479.856904 532.943317 
L 480.831843 529.703009 
L 482.78172 529.703009 
L 483.756658 532.943317 
L 484.731597 532.943317 
L 485.706536 536.579334 
L 486.681474 536.579334 
L 487.656413 529.703009 
L 488.631351 529.703009 
L 490.581229 524.154942 
L 491.556167 526.791001 
L 492.531106 524.154942 
L 493.506044 524.154942 
L 494.480983 519.553471 
L 496.43086 519.553471 
L 497.405799 521.753482 
L 502.280491 521.753482 
L 503.25543 519.553471 
L 504.230369 521.753482 
L 505.205307 519.553471 
L 506.180246 524.154942 
L 508.130123 529.703009 
L 510.08 529.703009 
L 511.054939 532.943317 
L 512.029877 550.911962 
L 514.954693 550.911962 
L 515.929631 557.398701 
L 527.628894 557.398701 
L 528.603833 565.220098 
L 529.578771 565.220098 
L 530.55371 557.398701 
L 531.528649 557.398701 
L 532.503587 565.220098 
L 533.478526 557.398701 
L 534.453464 550.911962 
L 535.428403 550.911962 
L 536.403342 545.422633 
L 538.353219 545.422633 
L 539.328157 540.699535 
L 540.303096 536.579334 
L 547.127666 536.579334 
L 548.102604 540.699535 
L 549.077543 545.422633 
L 556.877052 545.422633 
L 557.85199 540.699535 
L 560.776806 540.699535 
L 561.751744 550.911962 
L 562.726683 550.911962 
L 563.701622 545.422633 
L 564.67656 545.422633 
L 565.651499 550.911962 
L 568.576314 550.911962 
L 569.551253 565.220098 
L 570.526192 557.398701 
L 571.50113 557.398701 
L 572.476069 550.911962 
L 573.451007 557.398701 
L 574.425946 557.398701 
L 575.400885 565.220098 
L 577.350762 565.220098 
L 578.3257 557.398701 
L 579.300639 550.911962 
L 583.200393 550.911962 
L 584.175332 557.398701 
L 589.050025 557.398701 
L 590.024963 550.911962 
L 590.999902 540.699535 
L 591.97484 540.699535 
L 592.949779 536.579334 
L 595.874595 536.579334 
L 596.849533 540.699535 
L 597.824472 536.579334 
L 599.774349 536.579334 
L 600.749287 532.943317 
L 603.674103 532.943317 
L 604.649042 529.703009 
L 605.62398 532.943317 
L 607.573857 532.943317 
L 608.548796 536.579334 
L 609.523735 532.943317 
L 610.498673 526.791001 
L 613.423489 526.791001 
L 614.398428 517.527987 
L 616.348305 517.527987 
L 618.298182 521.753482 
L 619.27312 519.553471 
L 620.248059 521.753482 
L 621.222998 521.753482 
L 622.197936 529.703009 
L 623.172875 532.943317 
L 624.147813 529.703009 
L 626.09769 529.703009 
L 627.072629 532.943317 
L 628.047568 536.579334 
L 629.022506 545.422633 
L 629.997445 545.422633 
L 630.972383 550.911962 
L 631.947322 540.699535 
L 632.92226 532.943317 
L 633.897199 536.579334 
L 636.822015 536.579334 
L 637.796953 532.943317 
L 647.546339 532.943317 
L 648.521278 536.579334 
L 649.496216 540.699535 
L 650.471155 540.699535 
L 651.446093 536.579334 
L 653.395971 536.579334 
L 654.370909 540.699535 
L 655.345848 536.579334 
L 656.320786 540.699535 
L 657.295725 540.699535 
L 658.270663 536.579334 
L 659.245602 540.699535 
L 661.195479 540.699535 
L 662.170418 536.579334 
L 665.095233 536.579334 
L 666.070172 545.422633 
L 667.045111 545.422633 
L 668.020049 550.911962 
L 669.969926 550.911962 
L 670.944865 545.422633 
L 672.894742 545.422633 
L 673.869681 540.699535 
L 675.819558 540.699535 
L 676.794496 550.911962 
L 677.769435 550.911962 
L 678.744373 536.579334 
L 679.719312 532.943317 
L 680.694251 536.579334 
L 681.669189 532.943317 
L 682.644128 532.943317 
L 683.619066 529.703009 
L 684.594005 532.943317 
L 685.568943 532.943317 
L 686.543882 529.703009 
L 687.518821 532.943317 
L 688.493759 536.579334 
L 691.418575 536.579334 
L 692.393514 532.943317 
L 696.293268 532.943317 
L 697.268206 536.579334 
L 698.243145 532.943317 
L 699.218084 536.579334 
L 700.193022 532.943317 
L 701.167961 536.579334 
L 702.142899 540.699535 
L 703.117838 545.422633 
L 704.092776 536.579334 
L 706.042654 536.579334 
L 707.017592 540.699535 
L 707.992531 536.579334 
L 713.842162 536.579334 
L 714.817101 532.943317 
L 717.741916 532.943317 
L 718.716855 536.579334 
L 720.666732 536.579334 
L 721.641671 540.699535 
L 722.616609 540.699535 
L 723.591548 536.579334 
L 728.466241 536.579334 
L 729.441179 540.699535 
L 734.315872 540.699535 
L 735.290811 545.422633 
L 736.265749 540.699535 
L 740.165504 540.699535 
L 741.140442 536.579334 
L 743.090319 536.579334 
L 744.065258 529.703009 
L 745.040197 532.943317 
L 746.015135 532.943317 
L 746.990074 536.579334 
L 749.914889 536.579334 
L 750.889828 540.699535 
L 751.864767 540.699535 
L 752.839705 545.422633 
L 753.814644 540.699535 
L 754.789582 545.422633 
L 755.764521 545.422633 
L 756.739459 550.911962 
L 757.714398 545.422633 
L 758.689337 545.422633 
L 759.664275 550.911962 
L 760.639214 545.422633 
L 761.614152 540.699535 
L 764.538968 540.699535 
L 765.513907 545.422633 
L 767.463784 545.422633 
L 768.438722 550.911962 
L 769.413661 550.911962 
L 770.3886 545.422633 
L 771.363538 550.911962 
L 772.338477 550.911962 
L 773.313415 545.422633 
L 775.263292 545.422633 
L 776.238231 536.579334 
L 777.21317 540.699535 
L 785.012678 540.699535 
L 785.987617 536.579334 
L 788.912432 536.579334 
L 789.887371 540.699535 
L 790.86231 540.699535 
L 791.837248 536.579334 
L 792.812187 536.579334 
L 793.787125 532.943317 
L 794.762064 532.943317 
L 795.737002 536.579334 
L 796.711941 540.699535 
L 797.68688 536.579334 
L 798.661818 536.579334 
L 799.636757 550.911962 
L 800.611695 550.911962 
L 801.586634 557.398701 
L 803.536511 557.398701 
L 804.51145 550.911962 
L 805.486388 545.422633 
L 810.361081 545.422633 
L 811.33602 540.699535 
L 812.310958 540.699535 
L 813.285897 545.422633 
L 816.210713 545.422633 
L 817.185651 540.699535 
L 818.16059 545.422633 
L 822.060344 545.422633 
L 823.035283 550.911962 
L 825.960098 550.911962 
L 826.935037 557.398701 
L 827.909975 550.911962 
L 829.859853 550.911962 
L 830.834791 545.422633 
L 831.80973 550.911962 
L 835.709484 550.911962 
L 836.684423 557.398701 
L 839.609238 557.398701 
L 840.584177 550.911962 
L 842.534054 550.911962 
L 843.508993 545.422633 
L 845.45887 545.422633 
L 846.433808 540.699535 
L 847.408747 545.422633 
L 852.28344 545.422633 
L 853.258378 540.699535 
L 854.233317 532.943317 
L 855.208256 536.579334 
L 856.183194 545.422633 
L 857.158133 540.699535 
L 860.082948 540.699535 
L 861.057887 545.422633 
L 863.982703 545.422633 
L 864.957641 540.699535 
L 865.93258 540.699535 
L 866.907518 545.422633 
L 867.882457 540.699535 
L 870.807273 540.699535 
L 871.782211 545.422633 
L 872.75715 536.579334 
L 873.732088 540.699535 
L 874.707027 532.943317 
L 875.681966 529.703009 
L 876.656904 529.703009 
L 877.631843 526.791001 
L 888.356167 526.791001 
L 889.331106 524.154942 
L 897.130614 524.154942 
L 898.105553 521.753482 
L 902.005307 521.753482 
L 902.980246 526.791001 
L 903.955184 529.703009 
L 908.829877 529.703009 
L 909.804816 532.943317 
L 910.779754 529.703009 
L 911.754693 529.703009 
L 912.729631 526.791001 
L 913.70457 532.943317 
L 914.679509 526.791001 
L 915.654447 532.943317 
L 916.629386 536.579334 
L 917.604324 540.699535 
L 918.579263 545.422633 
L 921.504079 545.422633 
L 922.479017 550.911962 
L 923.453956 545.422633 
L 924.428894 545.422633 
L 925.403833 557.398701 
L 926.378771 545.422633 
L 928.328649 545.422633 
L 929.303587 540.699535 
L 930.278526 545.422633 
L 938.078034 545.422633 
L 939.052973 550.911962 
L 940.027912 550.911962 
L 941.00285 545.422633 
L 942.952727 545.422633 
L 943.927666 540.699535 
L 945.877543 540.699535 
L 946.852482 545.422633 
L 950.752236 545.422633 
L 951.727174 540.699535 
L 952.702113 532.943317 
L 955.626929 532.943317 
L 956.601867 540.699535 
L 960.501622 540.699535 
L 961.47656 536.579334 
L 965.376314 536.579334 
L 966.351253 540.699535 
L 967.326192 545.422633 
L 972.200885 545.422633 
L 973.175823 540.699535 
L 974.150762 540.699535 
L 975.1257 536.579334 
L 976.100639 532.943317 
L 978.050516 532.943317 
L 979.025455 529.703009 
L 980.000393 536.579334 
L 980.975332 540.699535 
L 981.95027 536.579334 
L 982.925209 536.579334 
L 983.900147 540.699535 
L 984.875086 545.422633 
L 992.674595 545.422633 
L 993.649533 550.911962 
L 995.59941 550.911962 
L 996.574349 545.422633 
L 998.524226 545.422633 
L 999.499165 540.699535 
L 1000.474103 540.699535 
L 1001.449042 545.422633 
L 1006.323735 545.422633 
L 1007.298673 536.579334 
L 1008.273612 536.579334 
L 1009.24855 540.699535 
L 1011.198428 540.699535 
L 1012.173366 532.943317 
L 1014.123243 526.791001 
L 1018.997936 526.791001 
L 1019.972875 529.703009 
L 1020.947813 526.791001 
L 1021.922752 521.753482 
L 1025.822506 521.753482 
L 1026.797445 524.154942 
L 1027.772383 524.154942 
L 1028.747322 526.791001 
L 1029.72226 526.791001 
L 1030.697199 524.154942 
L 1031.672138 524.154942 
L 1032.647076 529.703009 
L 1033.622015 526.791001 
L 1034.596953 521.753482 
L 1035.571892 521.753482 
L 1036.54683 517.527987 
L 1038.496708 521.753482 
L 1039.471646 524.154942 
L 1040.446585 521.753482 
L 1044.346339 521.753482 
L 1045.321278 524.154942 
L 1046.296216 529.703009 
L 1048.246093 529.703009 
L 1049.221032 521.753482 
L 1053.120786 521.753482 
L 1055.070663 526.791001 
L 1056.045602 526.791001 
L 1057.020541 529.703009 
L 1059.945356 529.703009 
L 1060.920295 532.943317 
L 1066.769926 532.943317 
L 1067.744865 526.791001 
L 1068.719803 524.154942 
L 1070.669681 524.154942 
L 1071.644619 521.753482 
L 1075.544373 521.753482 
L 1076.519312 529.703009 
L 1077.494251 532.943317 
L 1079.444128 532.943317 
L 1080.419066 536.579334 
L 1081.394005 536.579334 
L 1082.368943 540.699535 
L 1083.343882 540.699535 
L 1084.318821 536.579334 
L 1086.268698 536.579334 
L 1087.243636 540.699535 
L 1088.218575 536.579334 
L 1090.168452 536.579334 
L 1091.143391 540.699535 
L 1092.118329 545.422633 
L 1094.068206 545.422633 
L 1095.043145 540.699535 
L 1096.018084 540.699535 
L 1096.993022 536.579334 
L 1097.967961 540.699535 
L 1098.942899 540.699535 
L 1099.917838 545.422633 
L 1104.792531 545.422633 
L 1105.767469 540.699535 
L 1112.592039 540.699535 
L 1113.566978 545.422633 
L 1114.541916 545.422633 
L 1115.516855 550.911962 
L 1116.491794 550.911962 
L 1117.466732 545.422633 
L 1118.441671 550.911962 
L 1121.366486 550.911962 
L 1122.341425 545.422633 
L 1123.316364 550.911962 
L 1124.291302 545.422633 
L 1125.266241 550.911962 
L 1126.241179 550.911962 
L 1127.216118 557.398701 
L 1128.191057 557.398701 
L 1129.165995 565.220098 
L 1131.115872 565.220098 
L 1132.090811 557.398701 
L 1133.065749 557.398701 
L 1134.040688 565.220098 
L 1135.015627 565.220098 
L 1135.990565 574.881157 
L 1137.940442 574.881157 
L 1138.915381 565.220098 
L 1142.815135 565.220098 
L 1143.790074 557.398701 
L 1144.765012 550.911962 
L 1145.739951 545.422633 
L 1146.714889 532.943317 
L 1147.689828 532.943317 
L 1148.664767 536.579334 
L 1149.639705 540.699535 
L 1150.614644 545.422633 
L 1151.589582 550.911962 
L 1153.539459 550.911962 
L 1154.514398 565.220098 
L 1155.489337 557.398701 
L 1159.389091 557.398701 
L 1160.364029 550.911962 
L 1163.288845 550.911962 
L 1164.263784 545.422633 
L 1167.1886 545.422633 
L 1168.163538 550.911962 
L 1171.088354 550.911962 
L 1172.063292 545.422633 
L 1173.038231 545.422633 
L 1174.01317 550.911962 
L 1185.712432 550.911962 
L 1186.687371 545.422633 
L 1193.511941 545.422633 
L 1194.48688 540.699535 
L 1195.461818 536.579334 
L 1195.461818 536.579334 
" style="fill:none;stroke:#1f77b4;stroke-dasharray:5.55,2.4;stroke-dashoffset:0;stroke-width:1.5;"/>
   </g>
   <g id="line2d_26">
    <path clip-path="url(#pf6448a713c)" d="M 221.498182 440.310598 
L 222.47312 291.811796 
L 223.448059 301.313416 
L 224.422998 309.264295 
L 225.397936 309.264295 
L 226.372875 316.039641 
L 227.347813 316.039641 
L 228.322752 321.899557 
L 229.29769 327.030621 
L 233.197445 327.030621 
L 234.172383 331.570516 
L 235.147322 331.570516 
L 236.12226 327.030621 
L 238.072138 327.030621 
L 239.047076 331.570516 
L 240.022015 327.030621 
L 250.746339 327.030621 
L 251.721278 321.899557 
L 252.696216 327.030621 
L 253.671155 327.030621 
L 254.646093 321.899557 
L 255.621032 321.899557 
L 256.595971 327.030621 
L 257.570909 327.030621 
L 259.520786 335.623294 
L 270.245111 335.623294 
L 271.220049 327.030621 
L 276.094742 327.030621 
L 277.069681 301.313416 
L 278.044619 309.264295 
L 279.019558 309.264295 
L 279.994496 301.313416 
L 280.969435 291.811796 
L 281.944373 301.313416 
L 282.919312 291.811796 
L 283.894251 291.811796 
L 284.869189 301.313416 
L 285.844128 301.313416 
L 286.819066 309.264295 
L 287.794005 301.313416 
L 291.693759 301.313416 
L 292.668698 309.264295 
L 293.643636 301.313416 
L 294.618575 301.313416 
L 295.593514 316.039641 
L 296.568452 321.899557 
L 297.543391 327.030621 
L 300.468206 327.030621 
L 301.443145 321.899557 
L 302.418084 321.899557 
L 304.367961 331.570516 
L 308.267715 331.570516 
L 309.242654 335.623294 
L 310.217592 321.899557 
L 312.167469 321.899557 
L 313.142408 327.030621 
L 314.117346 321.899557 
L 317.042162 321.899557 
L 318.992039 331.570516 
L 320.941916 339.269213 
L 321.916855 342.571275 
L 322.891794 342.571275 
L 323.866732 335.623294 
L 324.841671 339.269213 
L 325.816609 339.269213 
L 326.791548 335.623294 
L 327.766486 327.030621 
L 328.741425 327.030621 
L 329.716364 331.570516 
L 330.691302 321.899557 
L 332.641179 321.899557 
L 333.616118 316.039641 
L 335.565995 265.56711 
L 336.540934 265.56711 
L 337.515872 280.194922 
L 338.490811 291.811796 
L 339.465749 291.811796 
L 340.440688 301.313416 
L 343.365504 301.313416 
L 344.340442 309.264295 
L 345.315381 309.264295 
L 346.290319 301.313416 
L 349.215135 301.313416 
L 350.190074 291.811796 
L 351.165012 291.811796 
L 352.139951 301.313416 
L 353.114889 301.313416 
L 354.089828 291.811796 
L 355.064767 301.313416 
L 357.989582 301.313416 
L 358.964521 291.811796 
L 362.864275 291.811796 
L 363.839214 280.194922 
L 364.814152 280.194922 
L 365.789091 291.811796 
L 385.287862 291.811796 
L 386.262801 301.313416 
L 387.23774 309.264295 
L 388.212678 301.313416 
L 389.187617 301.313416 
L 390.162555 309.264295 
L 391.137494 301.313416 
L 392.112432 291.811796 
L 393.087371 301.313416 
L 394.06231 309.264295 
L 395.037248 291.811796 
L 397.962064 291.811796 
L 398.937002 301.313416 
L 399.911941 309.264295 
L 406.736511 309.264295 
L 407.71145 301.313416 
L 419.410713 301.313416 
L 420.385651 291.811796 
L 421.36059 301.313416 
L 425.260344 301.313416 
L 426.235283 309.264295 
L 427.210221 309.264295 
L 428.18516 301.313416 
L 429.160098 309.264295 
L 430.135037 301.313416 
L 431.109975 309.264295 
L 432.084914 301.313416 
L 442.809238 301.313416 
L 443.784177 291.811796 
L 444.759115 301.313416 
L 445.734054 301.313416 
L 446.708993 280.194922 
L 447.683931 291.811796 
L 448.65887 280.194922 
L 449.633808 291.811796 
L 450.608747 309.264295 
L 451.583686 291.811796 
L 452.558624 301.313416 
L 453.533563 291.811796 
L 456.458378 291.811796 
L 457.433317 280.194922 
L 465.232826 280.194922 
L 466.207764 265.56711 
L 467.182703 301.313416 
L 468.157641 291.811796 
L 469.13258 301.313416 
L 471.082457 301.313416 
L 472.057396 291.811796 
L 473.032334 291.811796 
L 474.007273 301.313416 
L 474.982211 301.313416 
L 475.95715 316.039641 
L 479.856904 316.039641 
L 480.831843 321.899557 
L 482.78172 321.899557 
L 483.756658 316.039641 
L 484.731597 316.039641 
L 485.706536 309.264295 
L 486.681474 309.264295 
L 487.656413 321.899557 
L 488.631351 321.899557 
L 490.581229 331.570516 
L 491.556167 327.030621 
L 492.531106 331.570516 
L 493.506044 331.570516 
L 494.480983 339.269213 
L 496.43086 339.269213 
L 497.405799 335.623294 
L 502.280491 335.623294 
L 503.25543 339.269213 
L 504.230369 335.623294 
L 505.205307 339.269213 
L 506.180246 331.570516 
L 507.155184 327.030621 
L 508.130123 321.899557 
L 510.08 321.899557 
L 511.054939 316.039641 
L 512.029877 280.194922 
L 514.954693 280.194922 
L 515.929631 265.56711 
L 527.628894 265.56711 
L 528.603833 246.4052 
L 529.578771 246.4052 
L 530.55371 265.56711 
L 531.528649 265.56711 
L 532.503587 246.4052 
L 533.478526 265.56711 
L 534.453464 280.194922 
L 535.428403 280.194922 
L 536.403342 291.811796 
L 538.353219 291.811796 
L 539.328157 301.313416 
L 540.303096 309.264295 
L 547.127666 309.264295 
L 548.102604 301.313416 
L 549.077543 291.811796 
L 556.877052 291.811796 
L 557.85199 301.313416 
L 560.776806 301.313416 
L 561.751744 280.194922 
L 562.726683 280.194922 
L 563.701622 291.811796 
L 564.67656 291.811796 
L 565.651499 280.194922 
L 568.576314 280.194922 
L 569.551253 246.4052 
L 570.526192 265.56711 
L 571.50113 265.56711 
L 572.476069 280.194922 
L 573.451007 265.56711 
L 574.425946 265.56711 
L 575.400885 246.4052 
L 577.350762 246.4052 
L 578.3257 265.56711 
L 579.300639 280.194922 
L 583.200393 280.194922 
L 584.175332 265.56711 
L 589.050025 265.56711 
L 590.024963 280.194922 
L 590.999902 301.313416 
L 591.97484 301.313416 
L 592.949779 309.264295 
L 595.874595 309.264295 
L 596.849533 301.313416 
L 597.824472 309.264295 
L 599.774349 309.264295 
L 600.749287 316.039641 
L 603.674103 316.039641 
L 604.649042 321.899557 
L 605.62398 316.039641 
L 607.573857 316.039641 
L 608.548796 309.264295 
L 609.523735 316.039641 
L 610.498673 327.030621 
L 613.423489 327.030621 
L 614.398428 342.571275 
L 616.348305 342.571275 
L 618.298182 335.623294 
L 619.27312 339.269213 
L 620.248059 335.623294 
L 621.222998 335.623294 
L 622.197936 321.899557 
L 623.172875 316.039641 
L 624.147813 321.899557 
L 626.09769 321.899557 
L 627.072629 316.039641 
L 628.047568 309.264295 
L 629.022506 291.811796 
L 629.997445 291.811796 
L 630.972383 280.194922 
L 631.947322 301.313416 
L 632.92226 316.039641 
L 633.897199 309.264295 
L 636.822015 309.264295 
L 637.796953 316.039641 
L 647.546339 316.039641 
L 648.521278 309.264295 
L 649.496216 301.313416 
L 650.471155 301.313416 
L 651.446093 309.264295 
L 653.395971 309.264295 
L 654.370909 301.313416 
L 655.345848 309.264295 
L 656.320786 301.313416 
L 657.295725 301.313416 
L 658.270663 309.264295 
L 659.245602 301.313416 
L 661.195479 301.313416 
L 662.170418 309.264295 
L 665.095233 309.264295 
L 666.070172 291.811796 
L 667.045111 291.811796 
L 668.020049 280.194922 
L 669.969926 280.194922 
L 670.944865 291.811796 
L 672.894742 291.811796 
L 673.869681 301.313416 
L 675.819558 301.313416 
L 676.794496 280.194922 
L 677.769435 280.194922 
L 678.744373 309.264295 
L 679.719312 316.039641 
L 680.694251 309.264295 
L 681.669189 316.039641 
L 682.644128 316.039641 
L 683.619066 321.899557 
L 684.594005 316.039641 
L 685.568943 316.039641 
L 686.543882 321.899557 
L 687.518821 316.039641 
L 688.493759 309.264295 
L 691.418575 309.264295 
L 692.393514 316.039641 
L 696.293268 316.039641 
L 697.268206 309.264295 
L 698.243145 316.039641 
L 699.218084 309.264295 
L 700.193022 316.039641 
L 701.167961 309.264295 
L 702.142899 301.313416 
L 703.117838 291.811796 
L 704.092776 309.264295 
L 706.042654 309.264295 
L 707.017592 301.313416 
L 707.992531 309.264295 
L 713.842162 309.264295 
L 714.817101 316.039641 
L 717.741916 316.039641 
L 718.716855 309.264295 
L 720.666732 309.264295 
L 721.641671 301.313416 
L 722.616609 301.313416 
L 723.591548 309.264295 
L 728.466241 309.264295 
L 729.441179 301.313416 
L 734.315872 301.313416 
L 735.290811 291.811796 
L 736.265749 301.313416 
L 740.165504 301.313416 
L 741.140442 309.264295 
L 743.090319 309.264295 
L 744.065258 321.899557 
L 745.040197 316.039641 
L 746.015135 316.039641 
L 746.990074 309.264295 
L 749.914889 309.264295 
L 750.889828 301.313416 
L 751.864767 301.313416 
L 752.839705 291.811796 
L 753.814644 301.313416 
L 754.789582 291.811796 
L 755.764521 291.811796 
L 756.739459 280.194922 
L 757.714398 291.811796 
L 758.689337 291.811796 
L 759.664275 280.194922 
L 760.639214 291.811796 
L 761.614152 301.313416 
L 764.538968 301.313416 
L 765.513907 291.811796 
L 767.463784 291.811796 
L 768.438722 280.194922 
L 769.413661 280.194922 
L 770.3886 291.811796 
L 771.363538 280.194922 
L 772.338477 280.194922 
L 773.313415 291.811796 
L 775.263292 291.811796 
L 776.238231 309.264295 
L 777.21317 301.313416 
L 785.012678 301.313416 
L 785.987617 309.264295 
L 788.912432 309.264295 
L 789.887371 301.313416 
L 790.86231 301.313416 
L 791.837248 309.264295 
L 792.812187 309.264295 
L 793.787125 316.039641 
L 794.762064 316.039641 
L 795.737002 309.264295 
L 796.711941 301.313416 
L 797.68688 309.264295 
L 798.661818 309.264295 
L 799.636757 280.194922 
L 800.611695 280.194922 
L 801.586634 265.56711 
L 803.536511 265.56711 
L 804.51145 280.194922 
L 805.486388 291.811796 
L 810.361081 291.811796 
L 811.33602 301.313416 
L 812.310958 301.313416 
L 813.285897 291.811796 
L 816.210713 291.811796 
L 817.185651 301.313416 
L 818.16059 291.811796 
L 822.060344 291.811796 
L 823.035283 280.194922 
L 825.960098 280.194922 
L 826.935037 265.56711 
L 827.909975 280.194922 
L 829.859853 280.194922 
L 830.834791 291.811796 
L 831.80973 280.194922 
L 835.709484 280.194922 
L 836.684423 265.56711 
L 839.609238 265.56711 
L 840.584177 280.194922 
L 842.534054 280.194922 
L 843.508993 291.811796 
L 845.45887 291.811796 
L 846.433808 301.313416 
L 847.408747 291.811796 
L 852.28344 291.811796 
L 853.258378 301.313416 
L 854.233317 316.039641 
L 855.208256 309.264295 
L 856.183194 291.811796 
L 857.158133 301.313416 
L 860.082948 301.313416 
L 861.057887 291.811796 
L 863.982703 291.811796 
L 864.957641 301.313416 
L 865.93258 301.313416 
L 866.907518 291.811796 
L 867.882457 301.313416 
L 870.807273 301.313416 
L 871.782211 291.811796 
L 872.75715 309.264295 
L 873.732088 301.313416 
L 874.707027 316.039641 
L 875.681966 321.899557 
L 876.656904 321.899557 
L 877.631843 327.030621 
L 888.356167 327.030621 
L 889.331106 331.570516 
L 897.130614 331.570516 
L 898.105553 335.623294 
L 902.005307 335.623294 
L 902.980246 327.030621 
L 903.955184 321.899557 
L 908.829877 321.899557 
L 909.804816 316.039641 
L 910.779754 321.899557 
L 911.754693 321.899557 
L 912.729631 327.030621 
L 913.70457 316.039641 
L 914.679509 327.030621 
L 915.654447 316.039641 
L 916.629386 309.264295 
L 917.604324 301.313416 
L 918.579263 291.811796 
L 921.504079 291.811796 
L 922.479017 280.194922 
L 923.453956 291.811796 
L 924.428894 291.811796 
L 925.403833 265.56711 
L 926.378771 291.811796 
L 928.328649 291.811796 
L 929.303587 301.313416 
L 930.278526 291.811796 
L 938.078034 291.811796 
L 939.052973 280.194922 
L 940.027912 280.194922 
L 941.00285 291.811796 
L 942.952727 291.811796 
L 943.927666 301.313416 
L 945.877543 301.313416 
L 946.852482 291.811796 
L 950.752236 291.811796 
L 951.727174 301.313416 
L 952.702113 316.039641 
L 955.626929 316.039641 
L 956.601867 301.313416 
L 960.501622 301.313416 
L 961.47656 309.264295 
L 965.376314 309.264295 
L 966.351253 301.313416 
L 967.326192 291.811796 
L 972.200885 291.811796 
L 973.175823 301.313416 
L 974.150762 301.313416 
L 975.1257 309.264295 
L 976.100639 316.039641 
L 978.050516 316.039641 
L 979.025455 321.899557 
L 980.000393 309.264295 
L 980.975332 301.313416 
L 981.95027 309.264295 
L 982.925209 309.264295 
L 983.900147 301.313416 
L 984.875086 291.811796 
L 992.674595 291.811796 
L 993.649533 280.194922 
L 995.59941 280.194922 
L 996.574349 291.811796 
L 998.524226 291.811796 
L 999.499165 301.313416 
L 1000.474103 301.313416 
L 1001.449042 291.811796 
L 1006.323735 291.811796 
L 1007.298673 309.264295 
L 1008.273612 309.264295 
L 1009.24855 301.313416 
L 1011.198428 301.313416 
L 1012.173366 316.039641 
L 1013.148305 321.899557 
L 1014.123243 327.030621 
L 1018.997936 327.030621 
L 1019.972875 321.899557 
L 1020.947813 327.030621 
L 1021.922752 335.623294 
L 1025.822506 335.623294 
L 1026.797445 331.570516 
L 1027.772383 331.570516 
L 1028.747322 327.030621 
L 1029.72226 327.030621 
L 1030.697199 331.570516 
L 1031.672138 331.570516 
L 1032.647076 321.899557 
L 1033.622015 327.030621 
L 1034.596953 335.623294 
L 1035.571892 335.623294 
L 1036.54683 342.571275 
L 1038.496708 335.623294 
L 1039.471646 331.570516 
L 1040.446585 335.623294 
L 1044.346339 335.623294 
L 1045.321278 331.570516 
L 1046.296216 321.899557 
L 1048.246093 321.899557 
L 1049.221032 335.623294 
L 1053.120786 335.623294 
L 1054.095725 331.570516 
L 1055.070663 327.030621 
L 1056.045602 327.030621 
L 1057.020541 321.899557 
L 1059.945356 321.899557 
L 1060.920295 316.039641 
L 1066.769926 316.039641 
L 1067.744865 327.030621 
L 1068.719803 331.570516 
L 1070.669681 331.570516 
L 1071.644619 335.623294 
L 1075.544373 335.623294 
L 1076.519312 321.899557 
L 1077.494251 316.039641 
L 1079.444128 316.039641 
L 1080.419066 309.264295 
L 1081.394005 309.264295 
L 1082.368943 301.313416 
L 1083.343882 301.313416 
L 1084.318821 309.264295 
L 1086.268698 309.264295 
L 1087.243636 301.313416 
L 1088.218575 309.264295 
L 1090.168452 309.264295 
L 1091.143391 301.313416 
L 1092.118329 291.811796 
L 1094.068206 291.811796 
L 1095.043145 301.313416 
L 1096.018084 301.313416 
L 1096.993022 309.264295 
L 1097.967961 301.313416 
L 1098.942899 301.313416 
L 1099.917838 291.811796 
L 1104.792531 291.811796 
L 1105.767469 301.313416 
L 1112.592039 301.313416 
L 1113.566978 291.811796 
L 1114.541916 291.811796 
L 1115.516855 280.194922 
L 1116.491794 280.194922 
L 1117.466732 291.811796 
L 1118.441671 280.194922 
L 1121.366486 280.194922 
L 1122.341425 291.811796 
L 1123.316364 280.194922 
L 1124.291302 291.811796 
L 1125.266241 280.194922 
L 1126.241179 280.194922 
L 1127.216118 265.56711 
L 1128.191057 265.56711 
L 1129.165995 246.4052 
L 1131.115872 246.4052 
L 1132.090811 265.56711 
L 1133.065749 265.56711 
L 1134.040688 246.4052 
L 1135.015627 246.4052 
L 1135.990565 219.862171 
L 1137.940442 219.862171 
L 1138.915381 246.4052 
L 1142.815135 246.4052 
L 1143.790074 265.56711 
L 1144.765012 280.194922 
L 1145.739951 291.811796 
L 1146.714889 316.039641 
L 1147.689828 316.039641 
L 1148.664767 309.264295 
L 1149.639705 301.313416 
L 1150.614644 291.811796 
L 1151.589582 280.194922 
L 1153.539459 280.194922 
L 1154.514398 246.4052 
L 1155.489337 265.56711 
L 1159.389091 265.56711 
L 1160.364029 280.194922 
L 1163.288845 280.194922 
L 1164.263784 291.811796 
L 1167.1886 291.811796 
L 1168.163538 280.194922 
L 1171.088354 280.194922 
L 1172.063292 291.811796 
L 1173.038231 291.811796 
L 1174.01317 280.194922 
L 1185.712432 280.194922 
L 1186.687371 291.811796 
L 1193.511941 291.811796 
L 1194.48688 301.313416 
L 1195.461818 309.264295 
L 1195.461818 309.264295 
" style="fill:none;stroke:#ff7f0e;stroke-dasharray:5.55,2.4;stroke-dashoffset:0;stroke-width:1.5;"/>
   </g>
   <g id="line2d_27">
    <path clip-path="url(#pf6448a713c)" d="M 221.498182 440.310598 
L 222.47312 470.756127 
L 223.448059 419.421983 
L 224.422998 483.810925 
L 225.397936 497.826229 
L 226.372875 280.244683 
L 227.347813 526.626511 
L 228.322752 473.827235 
L 229.29769 499.380889 
L 230.272629 379.046256 
L 231.247568 497.970596 
L 232.222506 352.274598 
L 233.197445 325.108637 
L 234.172383 449.921627 
L 235.147322 406.363797 
L 236.12226 509.879218 
L 237.097199 353.276056 
L 238.072138 382.646774 
L 239.047076 536.597705 
L 240.022015 434.700693 
L 240.996953 547.793939 
L 241.971892 533.957159 
L 242.94683 474.123608 
L 243.921769 458.188967 
L 244.896708 400.135358 
L 245.871646 482.600716 
L 246.846585 393.140923 
L 247.821523 456.398125 
L 248.796462 535.616396 
L 249.7714 543.514585 
L 250.746339 385.249822 
L 251.721278 521.129884 
L 252.696216 301.921586 
L 253.671155 446.923199 
L 254.646093 374.283903 
L 255.621032 406.07909 
L 256.595971 504.580006 
L 257.570909 483.98402 
L 258.545848 503.914341 
L 259.520786 497.316828 
L 260.495725 465.516781 
L 261.470663 454.937112 
L 262.445602 412.195028 
L 263.420541 288.140706 
L 264.395479 443.72498 
L 265.370418 473.599293 
L 266.345356 488.334337 
L 267.320295 445.271016 
L 268.295233 517.499 
L 269.270172 471.433799 
L 270.245111 389.31969 
L 271.220049 489.793129 
L 272.194988 329.755275 
L 273.169926 474.371992 
L 274.144865 489.980338 
L 275.119803 488.638794 
L 276.094742 422.397924 
L 277.069681 460.86511 
L 278.044619 331.253523 
L 279.019558 356.959222 
L 279.994496 415.0179 
L 280.969435 519.129931 
L 281.944373 516.839922 
L 282.919312 487.452193 
L 283.894251 497.665948 
L 284.869189 310.319 
L 285.844128 411.791218 
L 286.819066 552.807776 
L 287.794005 408.677384 
L 288.768943 500.090054 
L 289.743882 318.467442 
L 290.718821 496.719097 
L 291.693759 431.045487 
L 292.668698 453.884237 
L 293.643636 424.11243 
L 294.618575 486.702622 
L 295.593514 379.968694 
L 296.568452 527.582414 
L 297.543391 517.320396 
L 298.518329 444.769027 
L 299.493268 439.555067 
L 300.468206 456.358248 
L 301.443145 485.196996 
L 302.418084 404.550446 
L 303.393022 474.949638 
L 304.367961 502.783918 
L 305.342899 439.54119 
L 306.317838 478.604338 
L 307.292776 502.148064 
L 308.267715 457.542583 
L 309.242654 437.594291 
L 310.217592 518.512013 
L 311.192531 398.678017 
L 312.167469 340.297982 
L 313.142408 437.264183 
L 314.117346 489.5868 
L 315.092285 508.9362 
L 316.067224 521.721337 
L 317.042162 310.92351 
L 318.017101 479.874587 
L 318.992039 535.84375 
L 319.966978 518.007852 
L 320.941916 479.42267 
L 321.916855 414.32032 
L 322.891794 388.887256 
L 323.866732 419.203846 
L 324.841671 547.898741 
L 325.816609 390.813832 
L 326.791548 443.399808 
L 327.766486 534.44396 
L 328.741425 536.686142 
L 329.716364 471.278668 
L 330.691302 558.1008 
L 331.666241 231.149149 
L 332.641179 510.401166 
L 333.616118 477.678014 
L 334.591057 379.734372 
L 335.565995 410.897647 
L 336.540934 304.428474 
L 337.515872 325.353189 
L 338.490811 528.090936 
L 339.465749 573.532067 
L 340.440688 431.678502 
L 341.415627 434.906276 
L 342.390565 483.799222 
L 344.340442 453.493953 
L 345.315381 551.638049 
L 347.265258 454.843629 
L 348.240197 299.409653 
L 349.215135 423.596071 
L 350.190074 419.082477 
L 351.165012 428.05605 
L 352.139951 491.935619 
L 353.114889 405.443253 
L 354.089828 332.155872 
L 355.064767 452.968864 
L 356.039705 408.775685 
L 357.014644 562.349642 
L 357.989582 411.314255 
L 358.964521 522.645051 
L 359.939459 434.093531 
L 360.914398 564.333721 
L 361.889337 376.206301 
L 362.864275 345.318842 
L 363.839214 408.314634 
L 364.814152 522.443527 
L 365.789091 327.445544 
L 366.764029 492.060529 
L 367.738968 383.953612 
L 368.713907 451.742905 
L 369.688845 445.752887 
L 370.663784 474.57614 
L 371.638722 519.850142 
L 372.613661 500.300549 
L 373.5886 339.81433 
L 374.563538 246.280922 
L 375.538477 293.30064 
L 376.513415 403.312408 
L 377.488354 296.55058 
L 378.463292 331.19085 
L 379.438231 264.358948 
L 381.388108 482.777998 
L 382.363047 452.302408 
L 383.337985 393.721269 
L 384.312924 427.172399 
L 385.287862 426.319248 
L 386.262801 440.193963 
L 387.23774 512.163441 
L 388.212678 529.014348 
L 389.187617 554.151347 
L 390.162555 353.335443 
L 391.137494 395.795776 
L 392.112432 390.072439 
L 393.087371 514.624773 
L 394.06231 440.880026 
L 395.037248 431.771837 
L 396.012187 605.1348 
L 396.987125 488.659259 
L 397.962064 480.296364 
L 398.937002 466.193591 
L 399.911941 515.230684 
L 400.88688 478.956234 
L 401.861818 298.693635 
L 402.836757 434.352617 
L 403.811695 286.757291 
L 404.786634 438.641731 
L 405.761572 407.71387 
L 406.736511 141.973622 
L 407.71145 465.356401 
L 408.686388 428.740268 
L 409.661327 199.57187 
L 410.636265 171.9708 
L 411.611204 397.411599 
L 412.586143 417.697192 
L 413.561081 330.101827 
L 414.53602 479.567938 
L 415.510958 440.600223 
L 416.485897 534.163784 
L 417.460835 451.243648 
L 418.435774 429.924113 
L 419.410713 504.169801 
L 420.385651 503.518629 
L 421.36059 477.789431 
L 422.335528 431.95745 
L 423.310467 437.42563 
L 424.285405 258.905195 
L 425.260344 457.14501 
L 426.235283 434.403472 
L 427.210221 356.784109 
L 428.18516 448.817311 
L 429.160098 476.297941 
L 430.135037 380.186253 
L 431.109975 390.880365 
L 432.084914 343.314797 
L 433.059853 412.723418 
L 434.034791 497.036491 
L 435.00973 370.659997 
L 435.984668 259.265901 
L 436.959607 371.726968 
L 437.934545 286.920996 
L 439.884423 548.222959 
L 440.859361 553.152195 
L 441.8343 537.933105 
L 442.809238 406.81895 
L 443.784177 395.561011 
L 444.759115 404.293133 
L 445.734054 510.133543 
L 446.708993 421.197604 
L 447.683931 402.754583 
L 448.65887 266.336359 
L 449.633808 258.980442 
L 450.608747 469.778436 
L 451.583686 387.426909 
L 452.558624 452.086016 
L 453.533563 432.42501 
L 454.508501 492.923766 
L 455.48344 465.234038 
L 456.458378 522.561884 
L 457.433317 299.920573 
L 458.408256 313.468786 
L 459.383194 433.658932 
L 460.358133 282.949091 
L 461.333071 421.645308 
L 462.30801 406.11252 
L 463.282948 445.603361 
L 464.257887 248.902119 
L 465.232826 387.249006 
L 466.207764 340.663064 
L 467.182703 456.192828 
L 468.157641 329.021627 
L 469.13258 425.403544 
L 470.107518 554.891416 
L 471.082457 419.8998 
L 472.057396 419.532449 
L 473.032334 465.247086 
L 474.007273 395.50331 
L 474.982211 501.930586 
L 475.95715 439.688923 
L 476.932088 461.969202 
L 477.907027 442.565359 
L 478.881966 480.119825 
L 479.856904 474.333206 
L 480.831843 446.424843 
L 481.806781 446.850801 
L 482.78172 378.831261 
L 483.756658 426.914615 
L 484.731597 424.505518 
L 485.706536 478.590715 
L 486.681474 456.29411 
L 487.656413 467.845629 
L 488.631351 486.831418 
L 489.60629 450.896506 
L 490.581229 384.710637 
L 491.556167 437.829142 
L 492.531106 539.39571 
L 493.506044 458.541791 
L 494.480983 516.496028 
L 495.455921 446.736945 
L 496.43086 497.309838 
L 497.405799 485.925061 
L 498.380737 397.02502 
L 499.355676 394.138861 
L 500.330614 420.972571 
L 503.25543 547.331098 
L 504.230369 483.353137 
L 505.205307 446.660113 
L 506.180246 493.309821 
L 507.155184 467.160554 
L 508.130123 554.25862 
L 509.105061 450.144371 
L 510.08 450.834466 
L 511.054939 347.69965 
L 512.029877 468.550188 
L 513.004816 523.583168 
L 513.979754 498.058365 
L 514.954693 444.942384 
L 515.929631 436.528152 
L 516.90457 445.45437 
L 517.879509 543.453238 
L 518.854447 401.364055 
L 519.829386 463.429843 
L 520.804324 424.048266 
L 521.779263 506.696917 
L 522.754201 398.534335 
L 523.72914 382.292226 
L 524.704079 534.828158 
L 525.679017 426.921151 
L 526.653956 483.785867 
L 527.628894 308.446894 
L 528.603833 507.469482 
L 529.578771 346.272334 
L 530.55371 455.114099 
L 531.528649 452.53889 
L 532.503587 487.460892 
L 534.453464 391.400892 
L 535.428403 329.996325 
L 536.403342 310.697864 
L 537.37828 548.851503 
L 538.353219 326.207214 
L 539.328157 468.437217 
L 540.303096 524.157753 
L 541.278034 463.39022 
L 542.252973 435.92834 
L 543.227912 417.133269 
L 544.20285 503.12765 
L 545.177789 420.430755 
L 546.152727 570.891653 
L 547.127666 452.33382 
L 548.102604 470.040054 
L 549.077543 311.779901 
L 550.052482 494.750775 
L 551.02742 424.414598 
L 552.002359 473.109327 
L 552.977297 376.761115 
L 553.952236 554.318552 
L 554.927174 493.10061 
L 555.902113 455.112798 
L 556.877052 500.8082 
L 557.85199 512.462407 
L 558.826929 502.853207 
L 559.801867 473.534563 
L 560.776806 515.535731 
L 561.751744 486.226685 
L 562.726683 263.837294 
L 563.701622 547.399734 
L 564.67656 493.558589 
L 565.651499 328.821239 
L 566.626437 454.661283 
L 567.601376 380.448192 
L 568.576314 468.625945 
L 569.551253 109.7028 
L 570.526192 331.574604 
L 571.50113 396.38698 
L 572.476069 480.764469 
L 573.451007 335.413117 
L 574.425946 389.113267 
L 575.400885 529.702558 
L 576.375823 485.600545 
L 577.350762 500.340294 
L 578.3257 399.76412 
L 579.300639 375.339746 
L 580.275577 463.311843 
L 581.250516 487.987368 
L 582.225455 367.803351 
L 583.200393 517.722883 
L 584.175332 547.601708 
L 585.15027 374.318852 
L 586.125209 358.893615 
L 587.100147 581.951584 
L 588.075086 457.525037 
L 589.050025 560.815834 
L 590.024963 347.19251 
L 590.999902 414.236079 
L 591.97484 516.110665 
L 592.949779 490.899074 
L 593.924717 472.693314 
L 594.899656 263.658166 
L 596.849533 513.742163 
L 597.824472 434.068878 
L 599.774349 555.330375 
L 600.749287 529.723474 
L 601.724226 435.341586 
L 602.699165 534.934544 
L 603.674103 464.230595 
L 604.649042 420.186088 
L 605.62398 489.972246 
L 606.598919 412.837906 
L 607.573857 456.601874 
L 608.548796 434.691416 
L 609.523735 441.512894 
L 610.498673 443.633011 
L 611.473612 521.351528 
L 612.44855 506.850881 
L 613.423489 402.824442 
L 614.398428 459.111495 
L 615.373366 463.036686 
L 616.348305 419.892078 
L 617.323243 497.539092 
L 618.298182 479.316985 
L 619.27312 437.264047 
L 620.248059 542.484572 
L 621.222998 468.891355 
L 622.197936 479.104988 
L 623.172875 470.925627 
L 624.147813 468.706307 
L 625.122752 428.489993 
L 626.09769 480.737452 
L 627.072629 501.645351 
L 628.047568 541.792861 
L 629.022506 465.435584 
L 629.997445 509.469256 
L 630.972383 578.026776 
L 631.947322 445.669555 
L 632.92226 338.978539 
L 633.897199 532.010305 
L 634.872138 444.681242 
L 635.847076 467.049185 
L 636.822015 419.708357 
L 637.796953 418.195861 
L 638.771892 453.468172 
L 639.74683 259.547825 
L 640.721769 377.374777 
L 641.696708 532.456854 
L 642.671646 464.255157 
L 643.646585 457.46917 
L 644.621523 307.057943 
L 645.596462 309.620561 
L 647.546339 504.012448 
L 648.521278 520.063303 
L 649.496216 386.005254 
L 650.471155 492.810122 
L 651.446093 465.527446 
L 652.421032 396.431364 
L 653.395971 433.089493 
L 654.370909 485.212914 
L 655.345848 361.976774 
L 656.320786 512.827123 
L 657.295725 363.617589 
L 658.270663 485.37117 
L 659.245602 415.971958 
L 660.220541 473.107722 
L 661.195479 425.42238 
L 662.170418 504.531016 
L 663.145356 492.883421 
L 664.120295 531.017575 
L 665.095233 408.789681 
L 666.070172 538.93145 
L 667.045111 325.531816 
L 668.020049 533.154994 
L 668.994988 514.518593 
L 669.969926 487.255951 
L 670.944865 508.282153 
L 671.919803 448.065655 
L 672.894742 521.239934 
L 673.869681 287.197392 
L 674.844619 486.466316 
L 675.819558 347.426413 
L 676.794496 460.134198 
L 677.769435 377.184175 
L 678.744373 249.293467 
L 679.719312 275.92686 
L 680.694251 436.640742 
L 681.669189 467.336667 
L 682.644128 430.261302 
L 683.619066 356.646217 
L 684.594005 420.646811 
L 685.568943 457.975384 
L 686.543882 513.900342 
L 687.518821 454.966317 
L 688.493759 351.8124 
L 689.468698 397.632145 
L 690.443636 334.716631 
L 691.418575 486.827239 
L 692.393514 512.746451 
L 693.368452 347.126888 
L 694.343391 464.390974 
L 695.318329 509.600172 
L 696.293268 479.102524 
L 697.268206 397.990463 
L 698.243145 410.039282 
L 699.218084 526.387892 
L 700.193022 522.99786 
L 702.142899 430.012027 
L 703.117838 572.953159 
L 704.092776 433.618123 
L 705.067715 499.13629 
L 706.042654 484.176668 
L 707.017592 504.672722 
L 707.992531 407.396223 
L 708.967469 271.231945 
L 709.942408 505.756561 
L 711.892285 452.693555 
L 712.867224 437.76611 
L 713.842162 524.011158 
L 714.817101 404.544696 
L 715.792039 422.349856 
L 716.766978 339.449245 
L 717.741916 487.122021 
L 718.716855 492.879288 
L 719.691794 485.433953 
L 720.666732 507.420543 
L 721.641671 506.382939 
L 722.616609 511.962855 
L 723.591548 516.457026 
L 724.566486 490.176824 
L 725.541425 486.627411 
L 726.516364 406.111306 
L 727.491302 546.485926 
L 728.466241 334.926744 
L 729.441179 464.950911 
L 730.416118 444.931529 
L 731.391057 508.513668 
L 732.365995 556.380888 
L 733.340934 470.750693 
L 734.315872 371.328848 
L 735.290811 409.536159 
L 736.265749 422.068397 
L 737.240688 406.459502 
L 738.215627 371.342767 
L 739.190565 463.044869 
L 740.165504 502.201893 
L 742.115381 326.48642 
L 743.090319 392.492613 
L 744.065258 394.247733 
L 745.040197 425.439475 
L 746.015135 231.948113 
L 746.990074 391.128842 
L 747.965012 419.488973 
L 748.939951 514.810692 
L 749.914889 460.657117 
L 750.889828 513.748304 
L 751.864767 391.79972 
L 752.839705 456.158546 
L 753.814644 447.001681 
L 754.789582 373.414038 
L 755.764521 538.190413 
L 756.739459 558.863511 
L 757.714398 368.346108 
L 758.689337 402.307455 
L 759.664275 362.250156 
L 760.639214 238.8065 
L 761.614152 337.57175 
L 762.589091 541.278521 
L 764.538968 191.783036 
L 765.513907 432.895687 
L 766.488845 511.388756 
L 767.463784 494.230009 
L 768.438722 589.621743 
L 769.413661 393.400223 
L 770.3886 300.274331 
L 771.363538 370.678369 
L 772.338477 453.364304 
L 773.313415 504.88703 
L 774.288354 328.914595 
L 775.263292 518.014078 
L 776.238231 533.089987 
L 777.21317 517.550504 
L 778.188108 542.342823 
L 779.163047 510.661404 
L 780.137985 491.383875 
L 781.112924 407.597594 
L 782.087862 471.761766 
L 783.062801 286.720434 
L 784.03774 343.738752 
L 785.012678 463.683926 
L 785.987617 518.58374 
L 786.962555 509.731022 
L 787.937494 534.973066 
L 788.912432 470.279595 
L 789.887371 422.347478 
L 790.86231 351.896302 
L 791.837248 382.406421 
L 792.812187 265.638501 
L 793.787125 464.376577 
L 794.762064 421.738658 
L 795.737002 453.671172 
L 796.711941 512.992103 
L 797.68688 403.706152 
L 798.661818 460.333409 
L 799.636757 364.962683 
L 800.611695 453.885733 
L 801.586634 493.539397 
L 802.561572 378.054181 
L 803.536511 317.897014 
L 804.51145 504.246281 
L 805.486388 373.306451 
L 806.461327 509.398699 
L 807.436265 418.3353 
L 808.411204 480.066485 
L 809.386143 474.730656 
L 810.361081 257.524867 
L 811.33602 470.99135 
L 812.310958 461.224855 
L 813.285897 447.231105 
L 814.260835 489.600335 
L 815.235774 381.54782 
L 816.210713 417.554229 
L 817.185651 483.120138 
L 818.16059 422.99682 
L 819.135528 489.929716 
L 820.110467 457.391022 
L 821.085405 495.504098 
L 822.060344 401.450193 
L 823.035283 413.840737 
L 824.010221 467.429139 
L 824.98516 386.766689 
L 825.960098 347.912516 
L 826.935037 507.009076 
L 828.884914 232.664299 
L 829.859853 512.793056 
L 830.834791 440.673365 
L 831.80973 496.537465 
L 832.784668 388.30968 
L 833.759607 301.089633 
L 834.734545 354.751859 
L 836.684423 423.317713 
L 837.659361 374.575153 
L 838.6343 484.476955 
L 839.609238 548.7901 
L 840.584177 460.623299 
L 841.559115 524.621374 
L 842.534054 452.462162 
L 843.508993 479.578337 
L 844.483931 516.567801 
L 845.45887 514.088613 
L 846.433808 287.755812 
L 847.408747 499.572938 
L 848.383686 451.36644 
L 849.358624 437.71946 
L 850.333563 399.407571 
L 851.308501 352.728528 
L 852.28344 435.222201 
L 853.258378 492.81554 
L 854.233317 388.05366 
L 855.208256 438.771839 
L 856.183194 403.267443 
L 857.158133 344.067418 
L 858.133071 530.652256 
L 859.10801 540.827985 
L 860.082948 396.487945 
L 861.057887 386.991333 
L 862.032826 420.049522 
L 863.007764 448.331685 
L 863.982703 517.82066 
L 864.957641 548.81476 
L 865.93258 502.531973 
L 866.907518 474.752554 
L 867.882457 430.21872 
L 868.857396 451.084408 
L 869.832334 330.442297 
L 870.807273 395.406741 
L 871.782211 449.446311 
L 872.75715 382.957926 
L 873.732088 514.167294 
L 874.707027 491.429311 
L 875.681966 403.387095 
L 876.656904 465.967967 
L 877.631843 402.181025 
L 878.606781 512.323983 
L 880.556658 388.67891 
L 881.531597 491.567424 
L 882.506536 412.059312 
L 883.481474 485.840278 
L 884.456413 454.205774 
L 885.431351 549.253709 
L 886.40629 445.182019 
L 887.381229 474.984027 
L 889.331106 416.530812 
L 890.306044 407.48888 
L 891.280983 406.607982 
L 892.255921 303.091648 
L 893.23086 437.993239 
L 894.205799 345.260009 
L 895.180737 537.846384 
L 896.155676 446.073891 
L 897.130614 466.04024 
L 898.105553 448.226538 
L 899.080491 482.878141 
L 900.05543 457.519222 
L 901.030369 427.251858 
L 902.005307 514.051911 
L 902.980246 440.964356 
L 903.955184 516.479934 
L 904.930123 483.303527 
L 905.905061 336.108879 
L 906.88 337.207439 
L 907.854939 439.701508 
L 908.829877 436.355634 
L 909.804816 498.954824 
L 910.779754 540.67643 
L 911.754693 500.962143 
L 912.729631 513.277747 
L 913.70457 420.764217 
L 914.679509 495.994501 
L 915.654447 352.599095 
L 916.629386 367.025169 
L 917.604324 271.364217 
L 918.579263 374.255546 
L 919.554201 512.739222 
L 920.52914 526.151927 
L 921.504079 399.800922 
L 922.479017 366.948013 
L 923.453956 349.420255 
L 924.428894 445.977809 
L 926.378771 298.348945 
L 927.35371 540.635953 
L 928.328649 476.664614 
L 929.303587 507.863026 
L 930.278526 489.064176 
L 931.253464 550.341062 
L 932.228403 436.144321 
L 933.203342 418.00207 
L 934.17828 390.161165 
L 935.153219 373.032902 
L 936.128157 502.277533 
L 937.103096 476.92355 
L 938.078034 510.082775 
L 939.052973 277.041806 
L 940.027912 545.722238 
L 941.00285 377.331084 
L 941.977789 539.129862 
L 942.952727 410.494075 
L 943.927666 477.968495 
L 944.902604 427.577905 
L 945.877543 417.902644 
L 946.852482 448.490792 
L 947.82742 489.036993 
L 948.802359 366.825652 
L 949.777297 422.475134 
L 950.752236 242.274485 
L 951.727174 331.583429 
L 952.702113 565.431609 
L 953.677052 513.039939 
L 954.65199 517.752749 
L 955.626929 448.272122 
L 956.601867 498.282272 
L 957.576806 483.742997 
L 958.551744 417.885422 
L 959.526683 446.413815 
L 960.501622 441.811693 
L 961.47656 405.241772 
L 962.451499 499.214807 
L 963.426437 453.87911 
L 964.401376 464.740099 
L 965.376314 447.114306 
L 966.351253 452.287284 
L 967.326192 382.220825 
L 968.30113 241.322099 
L 969.276069 559.068601 
L 970.251007 562.234875 
L 971.225946 516.94749 
L 972.200885 406.032588 
L 973.175823 428.996745 
L 974.150762 364.009823 
L 975.1257 468.78155 
L 976.100639 443.366633 
L 977.075577 437.063095 
L 978.050516 429.467329 
L 979.025455 490.501813 
L 980.000393 479.726184 
L 980.975332 533.253649 
L 981.95027 253.313768 
L 982.925209 466.649715 
L 983.900147 415.227682 
L 984.875086 378.517261 
L 985.850025 541.782034 
L 986.824963 486.967713 
L 987.799902 419.011571 
L 988.77484 496.493119 
L 989.749779 491.091498 
L 990.724717 493.205607 
L 991.699656 405.60751 
L 992.674595 360.413019 
L 993.649533 452.135761 
L 994.624472 523.959203 
L 995.59941 553.913852 
L 996.574349 435.339906 
L 997.549287 372.777769 
L 998.524226 422.154352 
L 999.499165 407.232761 
L 1000.474103 452.872926 
L 1001.449042 525.864287 
L 1002.42398 443.880424 
L 1003.398919 396.781798 
L 1004.373857 448.125368 
L 1005.348796 391.845383 
L 1006.323735 443.81614 
L 1007.298673 468.49432 
L 1008.273612 506.68372 
L 1009.24855 503.314071 
L 1010.223489 348.515838 
L 1011.198428 444.208626 
L 1012.173366 384.96853 
L 1013.148305 496.607499 
L 1014.123243 381.950406 
L 1015.098182 430.839983 
L 1016.07312 458.909272 
L 1017.048059 474.00009 
L 1018.022998 491.733428 
L 1018.997936 483.956996 
L 1019.972875 449.829739 
L 1020.947813 505.396801 
L 1021.922752 396.02741 
L 1022.89769 335.187423 
L 1023.872629 489.428506 
L 1024.847568 483.064971 
L 1025.822506 434.485691 
L 1026.797445 477.891725 
L 1027.772383 282.514319 
L 1028.747322 465.774674 
L 1029.72226 408.971288 
L 1030.697199 458.889987 
L 1031.672138 436.540498 
L 1032.647076 336.81637 
L 1033.622015 492.302803 
L 1034.596953 408.679709 
L 1035.571892 517.636361 
L 1036.54683 420.120209 
L 1037.521769 518.814503 
L 1038.496708 433.347174 
L 1039.471646 504.850704 
L 1040.446585 511.221852 
L 1041.421523 472.017786 
L 1042.396462 420.282487 
L 1043.3714 408.930068 
L 1044.346339 464.132878 
L 1045.321278 473.26682 
L 1046.296216 460.925718 
L 1047.271155 412.303514 
L 1049.221032 472.479116 
L 1050.195971 436.850073 
L 1051.170909 519.241831 
L 1052.145848 507.936398 
L 1053.120786 414.713802 
L 1054.095725 501.242848 
L 1055.070663 356.801043 
L 1056.045602 447.229962 
L 1057.995479 424.015626 
L 1058.970418 469.357644 
L 1059.945356 336.097828 
L 1060.920295 471.488176 
L 1061.895233 437.001191 
L 1062.870172 458.478888 
L 1063.845111 487.789807 
L 1064.820049 556.099382 
L 1065.794988 475.280141 
L 1066.769926 479.807552 
L 1067.744865 462.714513 
L 1068.719803 515.545704 
L 1069.694742 487.342109 
L 1070.669681 489.867242 
L 1071.644619 556.553613 
L 1072.619558 525.554483 
L 1073.594496 525.703877 
L 1074.569435 497.587869 
L 1075.544373 442.230926 
L 1076.519312 487.794051 
L 1077.494251 502.726569 
L 1078.469189 353.489996 
L 1079.444128 525.503265 
L 1080.419066 495.51129 
L 1081.394005 344.449332 
L 1082.368943 488.534211 
L 1083.343882 479.769427 
L 1084.318821 498.372656 
L 1085.293759 521.110222 
L 1086.268698 508.669529 
L 1087.243636 444.906671 
L 1088.218575 431.241192 
L 1089.193514 379.77179 
L 1090.168452 316.101932 
L 1091.143391 516.763226 
L 1092.118329 394.389784 
L 1093.093268 358.704582 
L 1094.068206 470.120761 
L 1095.043145 349.699586 
L 1096.018084 376.457077 
L 1097.967961 523.204248 
L 1098.942899 452.82845 
L 1099.917838 327.736005 
L 1100.892776 431.59978 
L 1101.867715 448.458894 
L 1102.842654 514.660652 
L 1103.817592 262.364067 
L 1105.767469 498.050078 
L 1106.742408 524.095585 
L 1107.717346 412.010285 
L 1108.692285 542.431821 
L 1109.667224 416.780354 
L 1110.642162 369.369347 
L 1111.617101 394.020289 
L 1112.592039 436.272306 
L 1113.566978 430.846049 
L 1114.541916 565.597629 
L 1115.516855 385.598697 
L 1116.491794 502.266212 
L 1117.466732 397.503872 
L 1118.441671 514.112372 
L 1119.416609 470.193449 
L 1120.391548 439.447388 
L 1121.366486 257.247511 
L 1122.341425 528.849303 
L 1123.316364 325.886498 
L 1124.291302 426.31344 
L 1125.266241 230.90289 
L 1126.241179 503.619019 
L 1127.216118 558.971213 
L 1128.191057 428.506752 
L 1129.165995 474.923469 
L 1130.140934 379.138535 
L 1131.115872 354.061659 
L 1132.090811 543.082473 
L 1133.065749 317.428937 
L 1134.040688 525.277652 
L 1135.015627 519.694361 
L 1135.990565 538.727352 
L 1136.965504 496.9774 
L 1137.940442 582.480006 
L 1138.915381 408.52093 
L 1139.890319 396.202 
L 1140.865258 375.649273 
L 1141.840197 180.436325 
L 1142.815135 490.732501 
L 1143.790074 477.846692 
L 1144.765012 420.659243 
L 1145.739951 404.216026 
L 1146.714889 455.26823 
L 1147.689828 493.902872 
L 1148.664767 493.328345 
L 1149.639705 547.436678 
L 1150.614644 435.965249 
L 1151.589582 234.458054 
L 1152.564521 456.760557 
L 1153.539459 537.528229 
L 1154.514398 420.782586 
L 1155.489337 481.35324 
L 1156.464275 430.705937 
L 1157.439214 398.675126 
L 1158.414152 357.178716 
L 1159.389091 389.544371 
L 1160.364029 404.547064 
L 1161.338968 464.712089 
L 1162.313907 426.582373 
L 1163.288845 433.820092 
L 1164.263784 466.228348 
L 1165.238722 508.472657 
L 1166.213661 473.112928 
L 1167.1886 462.106847 
L 1168.163538 543.815508 
L 1169.138477 540.486544 
L 1170.113415 514.576078 
L 1171.088354 345.07778 
L 1172.063292 377.484395 
L 1173.038231 496.707246 
L 1174.01317 436.47386 
L 1174.988108 457.965013 
L 1175.963047 431.448785 
L 1176.937985 532.417346 
L 1177.912924 487.251303 
L 1178.887862 312.344493 
L 1179.862801 538.783218 
L 1180.83774 393.555212 
L 1181.812678 338.391923 
L 1182.787617 451.108377 
L 1183.762555 432.035128 
L 1184.737494 267.156218 
L 1185.712432 472.55811 
L 1186.687371 373.2584 
L 1187.66231 390.85668 
L 1188.637248 413.157826 
L 1189.612187 362.320223 
L 1190.587125 298.694968 
L 1191.562064 520.592555 
L 1192.537002 443.171066 
L 1193.511941 459.423228 
L 1194.48688 315.036006 
L 1195.461818 386.793781 
L 1195.461818 386.793781 
" style="fill:none;stroke:#2ca02c;stroke-linecap:square;stroke-width:0.5;"/>
   </g>
   <g id="patch_3">
    <path d="M 172.8 629.9064 
L 172.8 84.9312 
" style="fill:none;stroke:#000000;stroke-linecap:square;stroke-linejoin:miter;stroke-width:0.8;"/>
   </g>
   <g id="patch_4">
    <path d="M 1244.16 629.9064 
L 1244.16 84.9312 
" style="fill:none;stroke:#000000;stroke-linecap:square;stroke-linejoin:miter;stroke-width:0.8;"/>
   </g>
   <g id="patch_5">
    <path d="M 172.8 629.9064 
L 1244.16 629.9064 
" style="fill:none;stroke:#000000;stroke-linecap:square;stroke-linejoin:miter;stroke-width:0.8;"/>
   </g>
   <g id="patch_6">
    <path d="M 172.8 84.9312 
L 1244.16 84.9312 
" style="fill:none;stroke:#000000;stroke-linecap:square;stroke-linejoin:miter;stroke-width:0.8;"/>
   </g>
   <g id="text_13">
    <!-- NIS, 88.8% inside CI -->
    <g transform="translate(648.001875 78.9312)scale(0.12 -0.12)">
     <defs>
      <path d="M 628 4666 
L 1478 4666 
L 3547 763 
L 3547 4666 
L 4159 4666 
L 4159 0 
L 3309 0 
L 1241 3903 
L 1241 0 
L 628 0 
L 628 4666 
z
" id="DejaVuSans-4e" transform="scale(0.015625)"/>
      <path d="M 628 4666 
L 1259 4666 
L 1259 0 
L 628 0 
L 628 4666 
z
" id="DejaVuSans-49" transform="scale(0.015625)"/>
      <path d="M 3425 4513 
L 3425 3897 
Q 3066 4069 2747 4153 
Q 2428 4238 2131 4238 
Q 1616 4238 1336 4038 
Q 1056 3838 1056 3469 
Q 1056 3159 1242 3001 
Q 1428 2844 1947 2747 
L 2328 2669 
Q 3034 2534 3370 2195 
Q 3706 1856 3706 1288 
Q 3706 609 3251 259 
Q 2797 -91 1919 -91 
Q 1588 -91 1214 -16 
Q 841 59 441 206 
L 441 856 
Q 825 641 1194 531 
Q 1563 422 1919 422 
Q 2459 422 2753 634 
Q 3047 847 3047 1241 
Q 3047 1584 2836 1778 
Q 2625 1972 2144 2069 
L 1759 2144 
Q 1053 2284 737 2584 
Q 422 2884 422 3419 
Q 422 4038 858 4394 
Q 1294 4750 2059 4750 
Q 2388 4750 2728 4690 
Q 3069 4631 3425 4513 
z
" id="DejaVuSans-53" transform="scale(0.015625)"/>
      <path d="M 750 794 
L 1409 794 
L 1409 256 
L 897 -744 
L 494 -744 
L 750 256 
L 750 794 
z
" id="DejaVuSans-2c" transform="scale(0.015625)"/>
      <path id="DejaVuSans-20" transform="scale(0.015625)"/>
      <path d="M 4653 2053 
Q 4381 2053 4226 1822 
Q 4072 1591 4072 1178 
Q 4072 772 4226 539 
Q 4381 306 4653 306 
Q 4919 306 5073 539 
Q 5228 772 5228 1178 
Q 5228 1588 5073 1820 
Q 4919 2053 4653 2053 
z
M 4653 2450 
Q 5147 2450 5437 2106 
Q 5728 1763 5728 1178 
Q 5728 594 5436 251 
Q 5144 -91 4653 -91 
Q 4153 -91 3862 251 
Q 3572 594 3572 1178 
Q 3572 1766 3864 2108 
Q 4156 2450 4653 2450 
z
M 1428 4353 
Q 1159 4353 1004 4120 
Q 850 3888 850 3481 
Q 850 3069 1003 2837 
Q 1156 2606 1428 2606 
Q 1700 2606 1854 2837 
Q 2009 3069 2009 3481 
Q 2009 3884 1853 4118 
Q 1697 4353 1428 4353 
z
M 4250 4750 
L 4750 4750 
L 1831 -91 
L 1331 -91 
L 4250 4750 
z
M 1428 4750 
Q 1922 4750 2215 4408 
Q 2509 4066 2509 3481 
Q 2509 2891 2217 2550 
Q 1925 2209 1428 2209 
Q 931 2209 642 2551 
Q 353 2894 353 3481 
Q 353 4063 643 4406 
Q 934 4750 1428 4750 
z
" id="DejaVuSans-25" transform="scale(0.015625)"/>
      <path d="M 603 3500 
L 1178 3500 
L 1178 0 
L 603 0 
L 603 3500 
z
M 603 4863 
L 1178 4863 
L 1178 4134 
L 603 4134 
L 603 4863 
z
" id="DejaVuSans-69" transform="scale(0.015625)"/>
      <path d="M 3513 2113 
L 3513 0 
L 2938 0 
L 2938 2094 
Q 2938 2591 2744 2837 
Q 2550 3084 2163 3084 
Q 1697 3084 1428 2787 
Q 1159 2491 1159 1978 
L 1159 0 
L 581 0 
L 581 3500 
L 1159 3500 
L 1159 2956 
Q 1366 3272 1645 3428 
Q 1925 3584 2291 3584 
Q 2894 3584 3203 3211 
Q 3513 2838 3513 2113 
z
" id="DejaVuSans-6e" transform="scale(0.015625)"/>
      <path d="M 2834 3397 
L 2834 2853 
Q 2591 2978 2328 3040 
Q 2066 3103 1784 3103 
Q 1356 3103 1142 2972 
Q 928 2841 928 2578 
Q 928 2378 1081 2264 
Q 1234 2150 1697 2047 
L 1894 2003 
Q 2506 1872 2764 1633 
Q 3022 1394 3022 966 
Q 3022 478 2636 193 
Q 2250 -91 1575 -91 
Q 1294 -91 989 -36 
Q 684 19 347 128 
L 347 722 
Q 666 556 975 473 
Q 1284 391 1588 391 
Q 1994 391 2212 530 
Q 2431 669 2431 922 
Q 2431 1156 2273 1281 
Q 2116 1406 1581 1522 
L 1381 1569 
Q 847 1681 609 1914 
Q 372 2147 372 2553 
Q 372 3047 722 3315 
Q 1072 3584 1716 3584 
Q 2034 3584 2315 3537 
Q 2597 3491 2834 3397 
z
" id="DejaVuSans-73" transform="scale(0.015625)"/>
      <path d="M 2906 2969 
L 2906 4863 
L 3481 4863 
L 3481 0 
L 2906 0 
L 2906 525 
Q 2725 213 2448 61 
Q 2172 -91 1784 -91 
Q 1150 -91 751 415 
Q 353 922 353 1747 
Q 353 2572 751 3078 
Q 1150 3584 1784 3584 
Q 2172 3584 2448 3432 
Q 2725 3281 2906 2969 
z
M 947 1747 
Q 947 1113 1208 752 
Q 1469 391 1925 391 
Q 2381 391 2643 752 
Q 2906 1113 2906 1747 
Q 2906 2381 2643 2742 
Q 2381 3103 1925 3103 
Q 1469 3103 1208 2742 
Q 947 2381 947 1747 
z
" id="DejaVuSans-64" transform="scale(0.015625)"/>
      <path d="M 3597 1894 
L 3597 1613 
L 953 1613 
Q 991 1019 1311 708 
Q 1631 397 2203 397 
Q 2534 397 2845 478 
Q 3156 559 3463 722 
L 3463 178 
Q 3153 47 2828 -22 
Q 2503 -91 2169 -91 
Q 1331 -91 842 396 
Q 353 884 353 1716 
Q 353 2575 817 3079 
Q 1281 3584 2069 3584 
Q 2775 3584 3186 3129 
Q 3597 2675 3597 1894 
z
M 3022 2063 
Q 3016 2534 2758 2815 
Q 2500 3097 2075 3097 
Q 1594 3097 1305 2825 
Q 1016 2553 972 2059 
L 3022 2063 
z
" id="DejaVuSans-65" transform="scale(0.015625)"/>
      <path d="M 4122 4306 
L 4122 3641 
Q 3803 3938 3442 4084 
Q 3081 4231 2675 4231 
Q 1875 4231 1450 3742 
Q 1025 3253 1025 2328 
Q 1025 1406 1450 917 
Q 1875 428 2675 428 
Q 3081 428 3442 575 
Q 3803 722 4122 1019 
L 4122 359 
Q 3791 134 3420 21 
Q 3050 -91 2638 -91 
Q 1578 -91 968 557 
Q 359 1206 359 2328 
Q 359 3453 968 4101 
Q 1578 4750 2638 4750 
Q 3056 4750 3426 4639 
Q 3797 4528 4122 4306 
z
" id="DejaVuSans-43" transform="scale(0.015625)"/>
     </defs>
     <use xlink:href="#DejaVuSans-4e"/>
     <use x="74.804688" xlink:href="#DejaVuSans-49"/>
     <use x="104.296875" xlink:href="#DejaVuSans-53"/>
     <use x="167.773438" xlink:href="#DejaVuSans-2c"/>
     <use x="199.560547" xlink:href="#DejaVuSans-20"/>
     <use x="231.347656" xlink:href="#DejaVuSans-38"/>
     <use x="294.970703" xlink:href="#DejaVuSans-38"/>
     <use x="358.59375" xlink:href="#DejaVuSans-2e"/>
     <use x="390.380859" xlink:href="#DejaVuSans-38"/>
     <use x="454.003906" xlink:href="#DejaVuSans-25"/>
     <use x="549.023438" xlink:href="#DejaVuSans-20"/>
     <use x="580.810547" xlink:href="#DejaVuSans-69"/>
     <use x="608.59375" xlink:href="#DejaVuSans-6e"/>
     <use x="671.972656" xlink:href="#DejaVuSans-73"/>
     <use x="724.072266" xlink:href="#DejaVuSans-69"/>
     <use x="751.855469" xlink:href="#DejaVuSans-64"/>
     <use x="815.332031" xlink:href="#DejaVuSans-65"/>
     <use x="876.855469" xlink:href="#DejaVuSans-20"/>
     <use x="908.642578" xlink:href="#DejaVuSans-43"/>
     <use x="978.466797" xlink:href="#DejaVuSans-49"/>
    </g>
   </g>
  </g>
 </g>
 <defs>
  <clipPath id="pf6448a713c">
   <rect height="544.9752" width="1071.36" x="172.8" y="84.9312"/>
  </clipPath>
 </defs>
</svg>
