<?xml version="1.0" encoding="utf-8" standalone="no"?>
<!DOCTYPE svg PUBLIC "-//W3C//DTD SVG 1.1//EN"
  "http://www.w3.org/Graphics/SVG/1.1/DTD/svg11.dtd">
<svg height="707.76pt" version="1.1" viewBox="0 0 1382.4 707.76" width="1382.4pt" xmlns="http://www.w3.org/2000/svg" xmlns:xlink="http://www.w3.org/1999/xlink">
 <metadata>
  <rdf:RDF xmlns:cc="http://creativecommons.org/ns#" xmlns:dc="http://purl.org/dc/elements/1.1/" xmlns:rdf="http://www.w3.org/1999/02/22-rdf-syntax-ns#">
   <cc:Work>
    <dc:type rdf:resource="http://purl.org/dc/dcmitype/StillImage"/>
    <dc:date>2021-11-17T15:33:45.054169</dc:date>
    <dc:format>image/svg+xml</dc:format>
    <dc:creator>
     <cc:Agent>
      <dc:title>Matplotlib v3.4.3, https://matplotlib.org/</dc:title>
     </cc:Agent>
    </dc:creator>
   </cc:Work>
  </rdf:RDF>
 </metadata>
 <defs>
  <style type="text/css">*{stroke-linecap:butt;stroke-linejoin:round;}</style>
 </defs>
 <g id="figure_1">
  <g id="patch_1">
   <path d="M 0 707.76 
L 1382.4 707.76 
L 1382.4 0 
L 0 0 
z
" style="fill:#ffffff;"/>
  </g>
  <g id="axes_1">
   <g id="patch_2">
    <path d="M 130.889143 323.03346 
L 1352.777143 323.03346 
L 1352.777143 52.84608 
L 130.889143 52.84608 
z
" style="fill:#ffffff;"/>
   </g>
   <g id="matplotlib.axis_1">
    <g id="xtick_1">
     <g id="line2d_1">
      <defs>
       <path d="M 0 0 
L 0 3.5 
" id="m3edea171f5" style="stroke:#000000;stroke-width:0.8;"/>
      </defs>
      <g>
       <use style="stroke:#000000;stroke-width:0.8;" x="186.429506" xlink:href="#m3edea171f5" y="323.03346"/>
      </g>
     </g>
    </g>
    <g id="xtick_2">
     <g id="line2d_2">
      <g>
       <use style="stroke:#000000;stroke-width:0.8;" x="408.813345" xlink:href="#m3edea171f5" y="323.03346"/>
      </g>
     </g>
    </g>
    <g id="xtick_3">
     <g id="line2d_3">
      <g>
       <use style="stroke:#000000;stroke-width:0.8;" x="631.197183" xlink:href="#m3edea171f5" y="323.03346"/>
      </g>
     </g>
    </g>
    <g id="xtick_4">
     <g id="line2d_4">
      <g>
       <use style="stroke:#000000;stroke-width:0.8;" x="853.581022" xlink:href="#m3edea171f5" y="323.03346"/>
      </g>
     </g>
    </g>
    <g id="xtick_5">
     <g id="line2d_5">
      <g>
       <use style="stroke:#000000;stroke-width:0.8;" x="1075.96486" xlink:href="#m3edea171f5" y="323.03346"/>
      </g>
     </g>
    </g>
    <g id="xtick_6">
     <g id="line2d_6">
      <g>
       <use style="stroke:#000000;stroke-width:0.8;" x="1298.348698" xlink:href="#m3edea171f5" y="323.03346"/>
      </g>
     </g>
    </g>
   </g>
   <g id="matplotlib.axis_2">
    <g id="ytick_1">
     <g id="line2d_7">
      <defs>
       <path d="M 0 0 
L -3.5 0 
" id="m3b554dfabf" style="stroke:#000000;stroke-width:0.8;"/>
      </defs>
      <g>
       <use style="stroke:#000000;stroke-width:0.8;" x="130.889143" xlink:href="#m3b554dfabf" y="310.752215"/>
      </g>
     </g>
     <g id="text_1">
      <!-- 0.0 -->
      <g transform="translate(107.986018 314.551434)scale(0.1 -0.1)">
       <defs>
        <path d="M 2034 4250 
Q 1547 4250 1301 3770 
Q 1056 3291 1056 2328 
Q 1056 1369 1301 889 
Q 1547 409 2034 409 
Q 2525 409 2770 889 
Q 3016 1369 3016 2328 
Q 3016 3291 2770 3770 
Q 2525 4250 2034 4250 
z
M 2034 4750 
Q 2819 4750 3233 4129 
Q 3647 3509 3647 2328 
Q 3647 1150 3233 529 
Q 2819 -91 2034 -91 
Q 1250 -91 836 529 
Q 422 1150 422 2328 
Q 422 3509 836 4129 
Q 1250 4750 2034 4750 
z
" id="DejaVuSans-30" transform="scale(0.015625)"/>
        <path d="M 684 794 
L 1344 794 
L 1344 0 
L 684 0 
L 684 794 
z
" id="DejaVuSans-2e" transform="scale(0.015625)"/>
       </defs>
       <use xlink:href="#DejaVuSans-30"/>
       <use x="63.623047" xlink:href="#DejaVuSans-2e"/>
       <use x="95.410156" xlink:href="#DejaVuSans-30"/>
      </g>
     </g>
    </g>
    <g id="ytick_2">
     <g id="line2d_8">
      <g>
       <use style="stroke:#000000;stroke-width:0.8;" x="130.889143" xlink:href="#m3b554dfabf" y="268.143411"/>
      </g>
     </g>
     <g id="text_2">
      <!-- 0.1 -->
      <g transform="translate(107.986018 271.94263)scale(0.1 -0.1)">
       <defs>
        <path d="M 794 531 
L 1825 531 
L 1825 4091 
L 703 3866 
L 703 4441 
L 1819 4666 
L 2450 4666 
L 2450 531 
L 3481 531 
L 3481 0 
L 794 0 
L 794 531 
z
" id="DejaVuSans-31" transform="scale(0.015625)"/>
       </defs>
       <use xlink:href="#DejaVuSans-30"/>
       <use x="63.623047" xlink:href="#DejaVuSans-2e"/>
       <use x="95.410156" xlink:href="#DejaVuSans-31"/>
      </g>
     </g>
    </g>
    <g id="ytick_3">
     <g id="line2d_9">
      <g>
       <use style="stroke:#000000;stroke-width:0.8;" x="130.889143" xlink:href="#m3b554dfabf" y="225.534606"/>
      </g>
     </g>
     <g id="text_3">
      <!-- 0.2 -->
      <g transform="translate(107.986018 229.333825)scale(0.1 -0.1)">
       <defs>
        <path d="M 1228 531 
L 3431 531 
L 3431 0 
L 469 0 
L 469 531 
Q 828 903 1448 1529 
Q 2069 2156 2228 2338 
Q 2531 2678 2651 2914 
Q 2772 3150 2772 3378 
Q 2772 3750 2511 3984 
Q 2250 4219 1831 4219 
Q 1534 4219 1204 4116 
Q 875 4013 500 3803 
L 500 4441 
Q 881 4594 1212 4672 
Q 1544 4750 1819 4750 
Q 2544 4750 2975 4387 
Q 3406 4025 3406 3419 
Q 3406 3131 3298 2873 
Q 3191 2616 2906 2266 
Q 2828 2175 2409 1742 
Q 1991 1309 1228 531 
z
" id="DejaVuSans-32" transform="scale(0.015625)"/>
       </defs>
       <use xlink:href="#DejaVuSans-30"/>
       <use x="63.623047" xlink:href="#DejaVuSans-2e"/>
       <use x="95.410156" xlink:href="#DejaVuSans-32"/>
      </g>
     </g>
    </g>
    <g id="ytick_4">
     <g id="line2d_10">
      <g>
       <use style="stroke:#000000;stroke-width:0.8;" x="130.889143" xlink:href="#m3b554dfabf" y="182.925802"/>
      </g>
     </g>
     <g id="text_4">
      <!-- 0.3 -->
      <g transform="translate(107.986018 186.72502)scale(0.1 -0.1)">
       <defs>
        <path d="M 2597 2516 
Q 3050 2419 3304 2112 
Q 3559 1806 3559 1356 
Q 3559 666 3084 287 
Q 2609 -91 1734 -91 
Q 1441 -91 1130 -33 
Q 819 25 488 141 
L 488 750 
Q 750 597 1062 519 
Q 1375 441 1716 441 
Q 2309 441 2620 675 
Q 2931 909 2931 1356 
Q 2931 1769 2642 2001 
Q 2353 2234 1838 2234 
L 1294 2234 
L 1294 2753 
L 1863 2753 
Q 2328 2753 2575 2939 
Q 2822 3125 2822 3475 
Q 2822 3834 2567 4026 
Q 2313 4219 1838 4219 
Q 1578 4219 1281 4162 
Q 984 4106 628 3988 
L 628 4550 
Q 988 4650 1302 4700 
Q 1616 4750 1894 4750 
Q 2613 4750 3031 4423 
Q 3450 4097 3450 3541 
Q 3450 3153 3228 2886 
Q 3006 2619 2597 2516 
z
" id="DejaVuSans-33" transform="scale(0.015625)"/>
       </defs>
       <use xlink:href="#DejaVuSans-30"/>
       <use x="63.623047" xlink:href="#DejaVuSans-2e"/>
       <use x="95.410156" xlink:href="#DejaVuSans-33"/>
      </g>
     </g>
    </g>
    <g id="ytick_5">
     <g id="line2d_11">
      <g>
       <use style="stroke:#000000;stroke-width:0.8;" x="130.889143" xlink:href="#m3b554dfabf" y="140.316997"/>
      </g>
     </g>
     <g id="text_5">
      <!-- 0.4 -->
      <g transform="translate(107.986018 144.116216)scale(0.1 -0.1)">
       <defs>
        <path d="M 2419 4116 
L 825 1625 
L 2419 1625 
L 2419 4116 
z
M 2253 4666 
L 3047 4666 
L 3047 1625 
L 3713 1625 
L 3713 1100 
L 3047 1100 
L 3047 0 
L 2419 0 
L 2419 1100 
L 313 1100 
L 313 1709 
L 2253 4666 
z
" id="DejaVuSans-34" transform="scale(0.015625)"/>
       </defs>
       <use xlink:href="#DejaVuSans-30"/>
       <use x="63.623047" xlink:href="#DejaVuSans-2e"/>
       <use x="95.410156" xlink:href="#DejaVuSans-34"/>
      </g>
     </g>
    </g>
    <g id="ytick_6">
     <g id="line2d_12">
      <g>
       <use style="stroke:#000000;stroke-width:0.8;" x="130.889143" xlink:href="#m3b554dfabf" y="97.708192"/>
      </g>
     </g>
     <g id="text_6">
      <!-- 0.5 -->
      <g transform="translate(107.986018 101.507411)scale(0.1 -0.1)">
       <defs>
        <path d="M 691 4666 
L 3169 4666 
L 3169 4134 
L 1269 4134 
L 1269 2991 
Q 1406 3038 1543 3061 
Q 1681 3084 1819 3084 
Q 2600 3084 3056 2656 
Q 3513 2228 3513 1497 
Q 3513 744 3044 326 
Q 2575 -91 1722 -91 
Q 1428 -91 1123 -41 
Q 819 9 494 109 
L 494 744 
Q 775 591 1075 516 
Q 1375 441 1709 441 
Q 2250 441 2565 725 
Q 2881 1009 2881 1497 
Q 2881 1984 2565 2268 
Q 2250 2553 1709 2553 
Q 1456 2553 1204 2497 
Q 953 2441 691 2322 
L 691 4666 
z
" id="DejaVuSans-35" transform="scale(0.015625)"/>
       </defs>
       <use xlink:href="#DejaVuSans-30"/>
       <use x="63.623047" xlink:href="#DejaVuSans-2e"/>
       <use x="95.410156" xlink:href="#DejaVuSans-35"/>
      </g>
     </g>
    </g>
    <g id="ytick_7">
     <g id="line2d_13">
      <g>
       <use style="stroke:#000000;stroke-width:0.8;" x="130.889143" xlink:href="#m3b554dfabf" y="55.099388"/>
      </g>
     </g>
     <g id="text_7">
      <!-- 0.6 -->
      <g transform="translate(107.986018 58.898606)scale(0.1 -0.1)">
       <defs>
        <path d="M 2113 2584 
Q 1688 2584 1439 2293 
Q 1191 2003 1191 1497 
Q 1191 994 1439 701 
Q 1688 409 2113 409 
Q 2538 409 2786 701 
Q 3034 994 3034 1497 
Q 3034 2003 2786 2293 
Q 2538 2584 2113 2584 
z
M 3366 4563 
L 3366 3988 
Q 3128 4100 2886 4159 
Q 2644 4219 2406 4219 
Q 1781 4219 1451 3797 
Q 1122 3375 1075 2522 
Q 1259 2794 1537 2939 
Q 1816 3084 2150 3084 
Q 2853 3084 3261 2657 
Q 3669 2231 3669 1497 
Q 3669 778 3244 343 
Q 2819 -91 2113 -91 
Q 1303 -91 875 529 
Q 447 1150 447 2328 
Q 447 3434 972 4092 
Q 1497 4750 2381 4750 
Q 2619 4750 2861 4703 
Q 3103 4656 3366 4563 
z
" id="DejaVuSans-36" transform="scale(0.015625)"/>
       </defs>
       <use xlink:href="#DejaVuSans-30"/>
       <use x="63.623047" xlink:href="#DejaVuSans-2e"/>
       <use x="95.410156" xlink:href="#DejaVuSans-36"/>
      </g>
     </g>
    </g>
    <g id="text_8">
     <!-- [m] -->
     <g transform="translate(101.90633 196.711645)rotate(-90)scale(0.1 -0.1)">
      <defs>
       <path d="M 550 4863 
L 1875 4863 
L 1875 4416 
L 1125 4416 
L 1125 -397 
L 1875 -397 
L 1875 -844 
L 550 -844 
L 550 4863 
z
" id="DejaVuSans-5b" transform="scale(0.015625)"/>
       <path d="M 3328 2828 
Q 3544 3216 3844 3400 
Q 4144 3584 4550 3584 
Q 5097 3584 5394 3201 
Q 5691 2819 5691 2113 
L 5691 0 
L 5113 0 
L 5113 2094 
Q 5113 2597 4934 2840 
Q 4756 3084 4391 3084 
Q 3944 3084 3684 2787 
Q 3425 2491 3425 1978 
L 3425 0 
L 2847 0 
L 2847 2094 
Q 2847 2600 2669 2842 
Q 2491 3084 2119 3084 
Q 1678 3084 1418 2786 
Q 1159 2488 1159 1978 
L 1159 0 
L 581 0 
L 581 3500 
L 1159 3500 
L 1159 2956 
Q 1356 3278 1631 3431 
Q 1906 3584 2284 3584 
Q 2666 3584 2933 3390 
Q 3200 3197 3328 2828 
z
" id="DejaVuSans-6d" transform="scale(0.015625)"/>
       <path d="M 1947 4863 
L 1947 -844 
L 622 -844 
L 622 -397 
L 1369 -397 
L 1369 4416 
L 622 4416 
L 622 4863 
L 1947 4863 
z
" id="DejaVuSans-5d" transform="scale(0.015625)"/>
      </defs>
      <use xlink:href="#DejaVuSans-5b"/>
      <use x="39.013672" xlink:href="#DejaVuSans-6d"/>
      <use x="136.425781" xlink:href="#DejaVuSans-5d"/>
     </g>
    </g>
   </g>
   <g id="line2d_14">
    <path clip-path="url(#p8567e38959)" d="M 186.429506 310.752215 
L 187.541426 289.829158 
L 188.653345 283.357185 
L 189.765264 283.152238 
L 190.877183 263.461017 
L 191.989102 292.241602 
L 193.101022 296.972247 
L 194.212941 286.528834 
L 195.32486 279.695766 
L 196.436779 294.664771 
L 197.548698 297.129829 
L 198.660618 294.3407 
L 199.772537 299.642949 
L 200.884456 279.425269 
L 201.996375 299.252069 
L 203.108294 301.026956 
L 204.220214 298.316831 
L 205.332133 294.14478 
L 206.444052 282.445459 
L 207.555971 268.843009 
L 208.66789 285.829948 
L 209.77981 283.181756 
L 210.891729 295.537298 
L 212.003648 294.748018 
L 213.115567 288.264199 
L 214.227486 291.205518 
L 215.339405 298.115122 
L 216.451325 265.860836 
L 217.563244 277.060832 
L 218.675163 278.836388 
L 219.787082 286.628487 
L 220.899001 278.111835 
L 222.010921 300.068907 
L 223.12284 301.072093 
L 224.234759 272.927792 
L 225.346678 287.690716 
L 226.458597 288.412044 
L 227.570517 288.341293 
L 228.682436 303.093846 
L 229.794355 277.672656 
L 230.906274 264.534872 
L 232.018193 279.108157 
L 233.130113 252.609937 
L 234.242032 277.912647 
L 235.353951 294.986997 
L 236.46587 289.070737 
L 237.577789 270.405062 
L 238.689709 256.82598 
L 239.801628 279.481487 
L 240.913547 268.098365 
L 242.025466 266.931105 
L 243.137385 279.990717 
L 244.249304 275.002361 
L 245.361224 293.918231 
L 246.473143 287.654395 
L 247.585062 272.123503 
L 248.696981 258.868192 
L 249.8089 300.713866 
L 250.92082 301.789603 
L 252.032739 274.5409 
L 253.144658 273.153362 
L 254.256577 284.11491 
L 255.368496 280.521324 
L 256.480416 282.382377 
L 257.592335 278.506238 
L 258.704254 271.153877 
L 259.816173 282.055858 
L 260.928092 279.092933 
L 262.040012 279.82527 
L 263.151931 274.871125 
L 264.26385 273.35352 
L 265.375769 277.114886 
L 266.487688 278.885048 
L 267.599608 282.892728 
L 268.711527 274.067679 
L 269.823446 287.888384 
L 270.935365 284.293615 
L 272.047284 282.905826 
L 273.159203 240.845221 
L 274.271123 235.198419 
L 275.383042 245.157747 
L 276.494961 270.943548 
L 277.60688 262.90857 
L 278.718799 268.720442 
L 279.830719 240.448451 
L 280.942638 257.548763 
L 282.054557 260.96534 
L 283.166476 242.467121 
L 284.278395 259.102452 
L 285.390315 267.860622 
L 286.502234 275.686124 
L 287.614153 271.510899 
L 288.726072 257.606619 
L 289.837991 262.438499 
L 290.949911 283.017626 
L 292.06183 288.648257 
L 293.173749 288.423309 
L 294.285668 275.127738 
L 295.397587 280.533426 
L 296.509506 255.521834 
L 297.621426 248.607875 
L 298.733345 246.035914 
L 299.845264 286.488718 
L 300.957183 297.96372 
L 302.069102 257.515734 
L 303.181022 267.29909 
L 304.292941 256.771766 
L 305.40486 266.839191 
L 306.516779 262.105489 
L 307.628698 245.460385 
L 308.740618 255.885869 
L 309.852537 271.702936 
L 310.964456 259.847268 
L 312.076375 258.080037 
L 313.188294 278.870572 
L 314.300214 285.180966 
L 315.412133 261.158714 
L 316.524052 257.88886 
L 317.635971 266.501305 
L 318.74789 278.025723 
L 319.85981 290.816425 
L 320.971729 263.788928 
L 322.083648 251.9673 
L 323.195567 260.115449 
L 324.307486 243.822899 
L 325.419405 231.18598 
L 326.531325 231.809047 
L 327.643244 227.743088 
L 328.755163 211.973093 
L 330.979001 294.961754 
L 332.090921 293.613226 
L 333.20284 298.365211 
L 334.314759 264.361147 
L 335.426678 259.343513 
L 336.538597 261.469889 
L 337.650517 239.371801 
L 338.762436 246.171641 
L 339.874355 256.928661 
L 340.986274 254.72784 
L 342.098193 256.608822 
L 343.210113 262.983908 
L 344.322032 240.768603 
L 345.433951 244.390832 
L 346.54587 261.523711 
L 347.657789 260.410138 
L 348.769709 263.580924 
L 349.881628 253.00131 
L 350.993547 248.464871 
L 352.105466 250.158058 
L 353.217385 267.210381 
L 354.329304 242.172357 
L 355.441224 248.01382 
L 356.553143 234.41736 
L 357.665062 235.887659 
L 358.776981 256.220236 
L 359.8889 239.429073 
L 361.00082 245.697776 
L 362.112739 228.599701 
L 363.224658 245.579618 
L 364.336577 249.497893 
L 365.448496 268.105629 
L 366.560416 283.954992 
L 367.672335 292.497714 
L 368.784254 295.495882 
L 369.896173 274.408409 
L 371.008092 269.687367 
L 372.120012 257.144438 
L 373.231931 272.058462 
L 374.34385 293.301703 
L 375.455769 299.097728 
L 377.679608 291.357929 
L 378.791527 281.866975 
L 379.903446 268.29627 
L 381.015365 295.372198 
L 382.127284 285.712287 
L 383.239203 286.071773 
L 384.351123 274.001688 
L 385.463042 291.767983 
L 386.574961 267.003997 
L 387.68688 282.130497 
L 388.798799 264.520613 
L 389.910719 282.7074 
L 391.022638 291.21079 
L 392.134557 284.822602 
L 393.246476 257.639991 
L 394.358395 258.844139 
L 395.470315 236.080853 
L 396.582234 235.641164 
L 397.694153 227.188112 
L 398.806072 225.116991 
L 399.917991 223.927322 
L 401.029911 203.212885 
L 402.14183 213.399884 
L 403.253749 228.985242 
L 404.365668 238.700043 
L 405.477587 259.982355 
L 406.589506 242.777084 
L 407.701426 257.755652 
L 408.813345 254.907211 
L 409.925264 250.264355 
L 411.037183 248.809349 
L 412.149102 263.10559 
L 413.261022 268.260363 
L 415.48486 287.867542 
L 416.596779 267.526429 
L 417.708698 251.868141 
L 418.820618 265.77355 
L 419.932537 249.932135 
L 421.044456 263.230939 
L 422.156375 273.232937 
L 423.268294 272.607176 
L 424.380214 277.756964 
L 425.492133 261.611695 
L 426.604052 262.77522 
L 427.715971 255.744984 
L 428.82789 290.344067 
L 429.93981 284.984885 
L 431.051729 292.71614 
L 432.163648 292.932385 
L 433.275567 275.604668 
L 434.387486 279.615215 
L 436.611325 283.641861 
L 437.723244 259.371822 
L 438.835163 261.642976 
L 439.947082 287.780285 
L 441.059001 261.062831 
L 442.170921 252.369552 
L 443.28284 246.585499 
L 444.394759 276.676874 
L 445.506678 268.25128 
L 446.618597 256.582615 
L 447.730517 246.933064 
L 448.842436 243.756892 
L 449.954355 258.01108 
L 451.066274 259.261981 
L 452.178193 272.402519 
L 453.290113 282.19018 
L 454.402032 281.246991 
L 455.513951 271.243286 
L 456.62587 239.850047 
L 457.737789 242.992448 
L 458.849709 250.740739 
L 459.961628 255.230908 
L 461.073547 267.084897 
L 462.185466 233.117329 
L 463.297385 219.874968 
L 464.409304 213.933375 
L 465.521224 215.189471 
L 466.633143 252.661983 
L 467.745062 262.613897 
L 468.856981 259.66729 
L 469.9689 270.750803 
L 471.08082 267.766206 
L 472.192739 295.317297 
L 473.304658 277.057583 
L 474.416577 294.777474 
L 475.528496 299.112365 
L 476.640416 273.999693 
L 477.752335 242.476307 
L 478.864254 253.217576 
L 479.976173 246.852171 
L 481.088092 231.948455 
L 482.200012 223.473277 
L 483.311931 217.147421 
L 485.535769 243.46831 
L 486.647688 254.536915 
L 487.759608 287.125761 
L 488.871527 280.510776 
L 491.095365 272.249566 
L 492.207284 249.346005 
L 493.319203 255.31895 
L 494.431123 262.370469 
L 495.543042 249.004007 
L 496.654961 256.247923 
L 497.76688 239.026804 
L 498.878799 229.809919 
L 499.990719 246.416469 
L 501.102638 216.147093 
L 502.214557 215.579996 
L 503.326476 216.547364 
L 504.438395 216.347813 
L 505.550315 233.921441 
L 506.662234 233.941097 
L 507.774153 235.151289 
L 508.886072 230.654132 
L 509.997991 211.446051 
L 511.109911 205.254593 
L 512.22183 207.378064 
L 513.333749 202.383235 
L 514.445668 218.974566 
L 516.669506 280.576474 
L 517.781426 264.683523 
L 518.893345 253.205672 
L 520.005264 238.616731 
L 521.117183 246.933608 
L 522.229102 237.756852 
L 523.341022 222.973321 
L 524.452941 228.564433 
L 525.56486 194.240053 
L 526.676779 174.118456 
L 527.788698 178.937736 
L 528.900618 179.416116 
L 530.012537 184.283563 
L 531.124456 186.141286 
L 532.236375 193.401419 
L 533.348294 211.864517 
L 534.460214 213.644588 
L 535.572133 215.983331 
L 536.684052 187.348622 
L 537.795971 184.733927 
L 538.90789 195.904442 
L 540.01981 210.124773 
L 541.131729 215.10395 
L 542.243648 252.563344 
L 543.355567 234.548306 
L 544.467486 233.825072 
L 545.579405 211.120967 
L 546.691325 204.423558 
L 547.803244 202.664677 
L 548.915163 201.127098 
L 550.027082 189.887288 
L 551.139001 180.930355 
L 552.250921 160.178594 
L 553.36284 172.185451 
L 554.474759 162.230584 
L 555.586678 141.806092 
L 556.698597 165.041445 
L 557.810517 146.871799 
L 558.922436 189.186343 
L 560.034355 148.218819 
L 561.146274 123.639221 
L 562.258193 123.58429 
L 563.370113 144.580282 
L 564.482032 138.841243 
L 565.593951 152.000959 
L 566.70587 150.195933 
L 567.817789 128.519902 
L 568.929709 133.258868 
L 570.041628 123.235209 
L 571.153547 140.745156 
L 572.265466 150.358028 
L 573.377385 170.832578 
L 574.489304 202.30722 
L 575.601224 177.639243 
L 576.713143 209.471517 
L 577.825062 223.504516 
L 578.936981 196.936637 
L 580.0489 199.72734 
L 581.16082 189.543002 
L 582.272739 185.40405 
L 583.384658 194.005506 
L 584.496577 177.001635 
L 585.608496 176.917913 
L 586.720416 163.657536 
L 587.832335 159.890308 
L 590.056173 145.822905 
L 591.168092 155.01711 
L 592.280012 190.118198 
L 593.391931 193.515187 
L 594.50385 216.892822 
L 596.727688 189.298304 
L 597.839608 170.360836 
L 598.951527 146.38499 
L 600.063446 153.912445 
L 601.175365 149.182344 
L 602.287284 143.202334 
L 604.511123 186.270812 
L 605.623042 173.66667 
L 606.734961 191.518389 
L 607.84688 225.279954 
L 608.958799 220.963058 
L 610.070719 177.234357 
L 611.182638 166.548136 
L 612.294557 164.507479 
L 613.406476 189.41129 
L 614.518395 211.403054 
L 615.630315 199.978572 
L 616.742234 215.963232 
L 617.854153 216.902855 
L 618.966072 193.062022 
L 620.077991 179.905349 
L 621.189911 163.423696 
L 622.30183 166.406083 
L 623.413749 194.608756 
L 624.525668 172.250233 
L 625.637587 192.088044 
L 626.749506 203.179202 
L 627.861426 206.195808 
L 628.973345 214.536322 
L 630.085264 167.480426 
L 631.197183 193.102717 
L 632.309102 177.501321 
L 633.421022 182.753805 
L 634.532941 195.547583 
L 635.64486 154.590162 
L 636.756779 150.107842 
L 637.868698 137.671301 
L 638.980618 151.100304 
L 640.092537 147.742022 
L 641.204456 149.396632 
L 642.316375 159.770978 
L 643.428294 153.017315 
L 644.540214 135.548798 
L 645.652133 138.799349 
L 646.764052 126.054474 
L 647.875971 134.269935 
L 648.98789 134.032621 
L 650.09981 156.322409 
L 651.211729 174.608935 
L 652.323648 150.201063 
L 653.435567 160.414247 
L 655.659405 196.980746 
L 656.771325 174.681711 
L 657.883244 176.782456 
L 658.995163 175.400455 
L 660.107082 169.290603 
L 661.219001 172.644534 
L 662.330921 150.899268 
L 663.44284 178.823621 
L 664.554759 151.540886 
L 666.778597 167.117308 
L 667.890517 163.40829 
L 669.002436 153.167178 
L 670.114355 172.938595 
L 671.226274 172.637432 
L 672.338193 188.246017 
L 673.450113 206.204665 
L 674.562032 196.708665 
L 675.673951 195.233057 
L 676.78587 210.023128 
L 677.897789 178.177313 
L 679.009709 158.80176 
L 680.121628 162.127697 
L 681.233547 186.390744 
L 682.345466 175.139953 
L 683.457385 193.803441 
L 684.569304 199.825548 
L 685.681224 189.985717 
L 686.793143 213.248695 
L 687.905062 206.396659 
L 689.016981 214.065579 
L 690.1289 199.511452 
L 691.24082 161.968598 
L 692.352739 133.441631 
L 694.576577 163.705271 
L 695.688496 162.465338 
L 696.800416 170.98457 
L 697.912335 173.306716 
L 699.024254 163.900525 
L 700.136173 158.809543 
L 701.248092 160.990172 
L 702.360012 167.937668 
L 703.471931 160.267542 
L 704.58385 153.657646 
L 705.695769 129.152707 
L 706.807688 141.47628 
L 707.919608 134.104128 
L 709.031527 153.843184 
L 710.143446 170.365399 
L 711.255365 168.01004 
L 712.367284 187.913926 
L 713.479203 202.689779 
L 714.591123 199.006181 
L 715.703042 209.770188 
L 716.814961 197.42471 
L 717.92688 207.60383 
L 719.038799 216.48037 
L 720.150719 247.377806 
L 721.262638 232.755933 
L 722.374557 220.83881 
L 723.486476 223.872535 
L 724.598395 195.840543 
L 725.710315 220.939692 
L 726.822234 203.592343 
L 727.934153 173.517629 
L 729.046072 198.738613 
L 730.157991 221.222225 
L 732.38183 222.981278 
L 733.493749 225.413789 
L 734.605668 219.110824 
L 735.717587 205.715669 
L 736.829506 202.437951 
L 737.941426 209.447146 
L 739.053345 227.164912 
L 740.165264 214.104706 
L 741.277183 262.358009 
L 742.389102 266.89731 
L 743.501022 247.322654 
L 744.612941 243.671178 
L 745.72486 244.667198 
L 746.836779 262.998346 
L 747.948698 247.585308 
L 749.060618 265.468021 
L 750.172537 257.20632 
L 751.284456 260.353359 
L 752.396375 231.931834 
L 753.508294 238.466895 
L 754.620214 261.117336 
L 755.732133 264.033235 
L 756.844052 239.398408 
L 757.955971 231.521865 
L 759.06789 246.310407 
L 760.17981 255.834398 
L 761.291729 259.950072 
L 762.403648 244.178259 
L 763.515567 257.990926 
L 764.627486 258.307573 
L 765.739405 268.199858 
L 766.851325 237.886233 
L 767.963244 276.968036 
L 769.075163 259.06716 
L 770.187082 254.80749 
L 771.299001 251.018694 
L 772.410921 253.155897 
L 773.52284 268.961344 
L 774.634759 268.919886 
L 775.746678 282.628795 
L 776.858597 272.832556 
L 777.970517 238.461402 
L 779.082436 234.975345 
L 780.194355 248.578572 
L 781.306274 257.839475 
L 782.418193 237.792459 
L 783.530113 273.695996 
L 784.642032 266.558003 
L 785.753951 286.22211 
L 786.86587 293.758397 
L 787.977789 275.374544 
L 789.089709 285.478481 
L 790.201628 303.196573 
L 791.313547 297.428379 
L 792.425466 307.532207 
L 793.537385 301.359546 
L 794.649304 296.190839 
L 795.761224 281.864263 
L 796.873143 269.832516 
L 797.985062 265.690036 
L 799.096981 263.36177 
L 800.2089 256.399534 
L 801.32082 263.136191 
L 802.432739 284.293772 
L 803.544658 271.161976 
L 804.656577 267.418301 
L 805.768496 256.895459 
L 806.880416 293.19827 
L 807.992335 279.933073 
L 809.104254 279.175967 
L 810.216173 282.591634 
L 812.440012 266.381908 
L 813.551931 284.453539 
L 814.66385 274.412635 
L 815.775769 245.042321 
L 816.887688 242.128785 
L 817.999608 242.9125 
L 819.111527 252.343331 
L 820.223446 267.63056 
L 821.335365 261.727695 
L 822.447284 254.807407 
L 823.559203 273.977459 
L 824.671123 256.591888 
L 825.783042 252.688525 
L 826.894961 258.777963 
L 828.00688 266.656903 
L 829.118799 267.829069 
L 830.230719 254.942372 
L 831.342638 255.377793 
L 832.454557 251.883037 
L 833.566476 221.85523 
L 834.678395 208.852625 
L 835.790315 221.438067 
L 836.902234 236.583324 
L 838.014153 225.559243 
L 839.126072 244.549024 
L 840.237991 233.419859 
L 841.349911 249.671219 
L 842.46183 208.390571 
L 843.573749 212.556131 
L 844.685668 215.801917 
L 845.797587 212.188005 
L 846.909506 202.300531 
L 848.021426 202.928013 
L 849.133345 212.515246 
L 850.245264 201.23414 
L 851.357183 197.358205 
L 852.469102 184.082254 
L 853.581022 206.248963 
L 854.692941 164.815501 
L 855.80486 199.145231 
L 856.916779 204.531529 
L 858.028698 180.753962 
L 859.140618 170.220037 
L 860.252537 175.198619 
L 861.364456 183.737506 
L 862.476375 162.873251 
L 863.588294 189.927216 
L 864.700214 164.236584 
L 865.812133 187.50364 
L 866.924052 216.530732 
L 869.14789 187.805853 
L 870.25981 178.764633 
L 871.371729 206.083575 
L 872.483648 206.094869 
L 873.595567 204.329228 
L 874.707486 213.061181 
L 875.819405 231.627679 
L 876.931325 236.177356 
L 878.043244 216.367057 
L 879.155163 180.489174 
L 880.267082 172.965891 
L 881.379001 182.663803 
L 882.490921 161.951752 
L 883.60284 165.518956 
L 884.714759 174.083329 
L 885.826678 152.615224 
L 886.938597 167.980944 
L 888.050517 193.790611 
L 889.162436 193.091463 
L 890.274355 167.81458 
L 891.386274 151.346276 
L 892.498193 150.997131 
L 893.610113 170.731383 
L 894.722032 179.31835 
L 895.833951 190.28842 
L 896.94587 161.324183 
L 898.057789 146.727716 
L 899.169709 162.841186 
L 900.281628 156.342868 
L 901.393547 144.831385 
L 903.617385 135.713981 
L 904.729304 105.766792 
L 905.841224 129.703927 
L 906.953143 159.879048 
L 908.065062 155.081498 
L 909.176981 140.501374 
L 910.2889 116.514136 
L 911.40082 125.64104 
L 912.512739 119.496306 
L 913.624658 119.196395 
L 914.736577 144.207432 
L 915.848496 160.614295 
L 916.960416 145.332826 
L 918.072335 153.152528 
L 919.184254 138.504023 
L 921.408092 145.332945 
L 922.520012 111.764967 
L 923.631931 111.341563 
L 925.855769 132.484146 
L 926.967688 165.292983 
L 928.079608 181.739306 
L 929.191527 142.679724 
L 930.303446 136.639177 
L 931.415365 137.365396 
L 932.527284 143.913992 
L 933.639203 152.933963 
L 934.751123 138.684636 
L 935.863042 126.82677 
L 936.974961 131.911636 
L 938.08688 133.731375 
L 939.198799 134.454318 
L 940.310719 168.242812 
L 941.422638 170.850812 
L 942.534557 162.570503 
L 943.646476 168.985792 
L 944.758395 148.794383 
L 945.870315 142.551471 
L 946.982234 119.431502 
L 948.094153 109.036183 
L 949.206072 123.502042 
L 950.317991 109.852284 
L 952.54183 132.723886 
L 953.653749 128.447006 
L 954.765668 163.822299 
L 955.877587 162.794738 
L 956.989506 162.677716 
L 958.101426 170.728435 
L 960.325264 174.256008 
L 961.437183 144.36736 
L 962.549102 148.833215 
L 963.661022 155.255495 
L 964.772941 153.419331 
L 965.88486 125.151541 
L 966.996779 93.970949 
L 968.108698 93.75439 
L 969.220618 128.272991 
L 970.332537 126.480793 
L 971.444456 128.267984 
L 972.556375 144.380679 
L 973.668294 157.908194 
L 974.780214 143.29532 
L 975.892133 125.451582 
L 977.004052 160.018987 
L 978.115971 188.282442 
L 979.22789 184.780337 
L 980.33981 203.464281 
L 981.451729 198.055465 
L 982.563648 191.70927 
L 983.675567 170.950218 
L 984.787486 143.373656 
L 985.899405 128.06532 
L 987.011325 166.036602 
L 988.123244 193.426413 
L 989.235163 205.308844 
L 991.459001 158.529793 
L 992.570921 151.280744 
L 993.68284 139.982668 
L 994.794759 156.807506 
L 995.906678 165.760447 
L 997.018597 169.250061 
L 998.130517 149.338749 
L 999.242436 123.170901 
L 1002.578193 181.946473 
L 1003.690113 164.447585 
L 1004.802032 151.350014 
L 1005.913951 168.20742 
L 1007.02587 174.716414 
L 1008.137789 164.214553 
L 1009.249709 158.948361 
L 1010.361628 185.306823 
L 1011.473547 177.219443 
L 1012.585466 203.814858 
L 1013.697385 202.192599 
L 1014.809304 174.823633 
L 1015.921224 180.949886 
L 1017.033143 169.341345 
L 1018.145062 168.910487 
L 1019.256981 175.758004 
L 1021.48082 197.647624 
L 1022.592739 199.200304 
L 1023.704658 193.057921 
L 1024.816577 196.60707 
L 1025.928496 193.706444 
L 1027.040416 205.510678 
L 1028.152335 186.120404 
L 1029.264254 217.429392 
L 1030.376173 208.133999 
L 1031.488092 201.251204 
L 1032.600012 217.293904 
L 1033.711931 193.592598 
L 1034.82385 194.886928 
L 1035.935769 212.505954 
L 1037.047688 194.872816 
L 1038.159608 183.848889 
L 1039.271527 200.253428 
L 1040.383446 225.079379 
L 1041.495365 204.140985 
L 1042.607284 206.581574 
L 1043.719203 197.746047 
L 1044.831123 196.307159 
L 1045.943042 197.979 
L 1047.054961 235.434506 
L 1048.16688 235.871585 
L 1049.278799 255.524462 
L 1050.390719 229.212495 
L 1051.502638 234.426245 
L 1052.614557 227.63227 
L 1053.726476 194.111016 
L 1054.838395 226.234522 
L 1055.950315 237.089294 
L 1057.062234 218.765917 
L 1058.174153 217.357368 
L 1059.286072 228.645787 
L 1060.397991 237.250002 
L 1061.509911 237.122257 
L 1062.62183 245.312217 
L 1063.733749 263.199792 
L 1064.845668 278.511289 
L 1065.957587 285.208902 
L 1067.069506 300.962238 
L 1068.181426 292.95393 
L 1069.293345 269.612248 
L 1070.405264 254.62898 
L 1071.517183 258.35035 
L 1072.629102 298.265307 
L 1073.741022 301.340622 
L 1074.852941 286.645618 
L 1075.96486 280.392646 
L 1077.076779 266.678435 
L 1079.300618 291.612622 
L 1080.412537 298.231808 
L 1081.524456 279.209839 
L 1082.636375 276.697155 
L 1083.748294 302.811659 
L 1084.860214 289.413327 
L 1085.972133 251.715228 
L 1087.084052 250.866776 
L 1088.195971 252.397371 
L 1089.30789 253.735332 
L 1090.41981 250.325539 
L 1091.531729 268.657262 
L 1092.643648 261.782146 
L 1093.755567 265.975741 
L 1094.867486 257.533258 
L 1095.979405 265.936432 
L 1097.091325 271.061751 
L 1098.203244 250.136412 
L 1099.315163 213.433852 
L 1100.427082 231.428207 
L 1101.539001 228.297748 
L 1102.650921 247.700651 
L 1103.76284 243.205027 
L 1104.874759 235.536833 
L 1105.986678 209.856161 
L 1107.098597 224.980361 
L 1108.210517 228.839572 
L 1109.322436 233.540708 
L 1110.434355 258.746624 
L 1111.546274 264.151852 
L 1112.658193 235.170782 
L 1113.770113 217.208627 
L 1114.882032 213.945316 
L 1115.993951 201.012925 
L 1117.10587 191.373875 
L 1118.217789 175.214734 
L 1119.329709 165.675075 
L 1120.441628 183.921726 
L 1121.553547 193.107969 
L 1122.665466 212.607461 
L 1123.777385 191.71634 
L 1124.889304 217.837456 
L 1126.001224 224.233003 
L 1127.113143 217.925664 
L 1128.225062 209.108563 
L 1129.336981 211.356551 
L 1130.4489 192.461951 
L 1131.56082 205.791863 
L 1132.672739 206.665678 
L 1133.784658 209.487044 
L 1134.896577 186.813047 
L 1136.008496 205.152128 
L 1137.120416 168.803107 
L 1138.232335 188.348265 
L 1139.344254 173.729035 
L 1140.456173 167.555907 
L 1141.568092 190.428682 
L 1142.680012 189.707911 
L 1143.791931 181.191106 
L 1144.90385 163.126168 
L 1146.015769 152.866503 
L 1147.127688 156.655642 
L 1148.239608 157.761837 
L 1149.351527 160.894402 
L 1150.463446 150.655992 
L 1151.575365 139.278691 
L 1152.687284 151.003813 
L 1153.799203 160.071928 
L 1154.911123 180.259247 
L 1156.023042 169.809926 
L 1157.134961 179.230777 
L 1158.24688 154.804534 
L 1159.358799 166.949317 
L 1160.470719 140.092852 
L 1161.582638 128.095618 
L 1162.694557 125.55596 
L 1163.806476 100.024794 
L 1164.918395 124.579818 
L 1166.030315 105.652148 
L 1167.142234 103.234857 
L 1168.254153 131.947019 
L 1169.366072 122.32883 
L 1170.477991 119.525779 
L 1171.589911 138.653973 
L 1172.70183 123.995425 
L 1173.813749 117.211803 
L 1174.925668 115.800538 
L 1176.037587 122.230577 
L 1177.149506 111.952393 
L 1179.373345 144.897206 
L 1180.485264 131.919708 
L 1181.597183 124.685595 
L 1182.709102 146.770136 
L 1183.821022 131.419733 
L 1184.932941 120.021754 
L 1187.156779 74.439425 
L 1188.268698 90.467736 
L 1189.380618 115.701488 
L 1190.492537 118.122575 
L 1192.716375 77.036913 
L 1193.828294 99.263966 
L 1194.940214 98.351507 
L 1196.052133 99.519472 
L 1197.164052 81.235108 
L 1198.275971 101.359605 
L 1199.38789 136.54604 
L 1200.49981 110.34581 
L 1201.611729 110.898427 
L 1202.723648 126.990954 
L 1203.835567 94.195007 
L 1204.947486 65.347068 
L 1206.059405 103.953052 
L 1207.171325 101.301564 
L 1208.283244 66.69515 
L 1210.507082 99.857948 
L 1211.619001 109.531862 
L 1212.730921 106.717062 
L 1213.84284 136.522474 
L 1214.954759 147.59045 
L 1216.066678 145.483725 
L 1217.178597 147.708209 
L 1218.290517 110.880224 
L 1219.402436 110.691539 
L 1220.514355 93.58909 
L 1221.626274 105.303077 
L 1222.738193 87.120624 
L 1223.850113 75.889605 
L 1224.962032 101.583164 
L 1226.073951 120.451632 
L 1227.18587 106.746768 
L 1228.297789 82.542107 
L 1229.409709 65.127325 
L 1230.521628 104.81966 
L 1231.633547 115.015073 
L 1232.745466 115.736359 
L 1233.857385 90.438192 
L 1234.969304 93.964513 
L 1236.081224 104.878241 
L 1237.193143 123.614271 
L 1238.305062 158.595291 
L 1239.416981 146.970957 
L 1240.5289 141.426244 
L 1241.64082 123.210884 
L 1242.752739 110.560597 
L 1243.864658 127.166116 
L 1244.976577 137.611139 
L 1246.088496 128.886206 
L 1247.200416 86.574333 
L 1248.312335 107.52404 
L 1249.424254 93.458282 
L 1250.536173 116.808193 
L 1251.648092 119.376694 
L 1252.760012 101.859769 
L 1253.871931 127.85828 
L 1254.98385 136.809824 
L 1256.095769 153.364895 
L 1257.207688 186.152393 
L 1258.319608 146.036049 
L 1259.431527 125.755105 
L 1260.543446 144.213524 
L 1261.655365 147.601108 
L 1262.767284 144.837674 
L 1263.879203 163.661873 
L 1264.991123 142.010937 
L 1266.103042 141.570134 
L 1267.214961 129.806281 
L 1268.32688 138.952344 
L 1269.438799 159.137491 
L 1271.662638 134.423119 
L 1272.774557 134.140596 
L 1273.886476 135.961424 
L 1274.998395 143.252473 
L 1278.334153 193.852808 
L 1279.446072 197.174008 
L 1280.557991 228.337558 
L 1281.669911 224.550719 
L 1282.78183 204.891071 
L 1283.893749 227.124772 
L 1285.005668 201.135058 
L 1286.117587 187.663114 
L 1287.229506 204.92967 
L 1288.341426 193.973706 
L 1289.453345 193.168529 
L 1290.565264 216.443109 
L 1291.677183 225.19088 
L 1292.789102 183.846767 
L 1293.901022 202.00711 
L 1295.012941 152.884971 
L 1296.12486 158.344969 
L 1297.236779 171.982367 
L 1297.236779 171.982367 
" style="fill:none;stroke:#1f77b4;stroke-linecap:square;stroke-width:1.5;"/>
   </g>
   <g id="patch_3">
    <path d="M 130.889143 323.03346 
L 130.889143 52.84608 
" style="fill:none;stroke:#000000;stroke-linecap:square;stroke-linejoin:miter;stroke-width:0.8;"/>
   </g>
   <g id="patch_4">
    <path d="M 1352.777143 323.03346 
L 1352.777143 52.84608 
" style="fill:none;stroke:#000000;stroke-linecap:square;stroke-linejoin:miter;stroke-width:0.8;"/>
   </g>
   <g id="patch_5">
    <path d="M 130.889143 323.03346 
L 1352.777143 323.03346 
" style="fill:none;stroke:#000000;stroke-linecap:square;stroke-linejoin:miter;stroke-width:0.8;"/>
   </g>
   <g id="patch_6">
    <path d="M 130.889143 52.84608 
L 1352.777143 52.84608 
" style="fill:none;stroke:#000000;stroke-linecap:square;stroke-linejoin:miter;stroke-width:0.8;"/>
   </g>
   <g id="text_9">
    <!-- Pos: RMSE 0.2734285915602213 m -->
    <g transform="translate(634.29908 46.84608)scale(0.12 -0.12)">
     <defs>
      <path d="M 1259 4147 
L 1259 2394 
L 2053 2394 
Q 2494 2394 2734 2622 
Q 2975 2850 2975 3272 
Q 2975 3691 2734 3919 
Q 2494 4147 2053 4147 
L 1259 4147 
z
M 628 4666 
L 2053 4666 
Q 2838 4666 3239 4311 
Q 3641 3956 3641 3272 
Q 3641 2581 3239 2228 
Q 2838 1875 2053 1875 
L 1259 1875 
L 1259 0 
L 628 0 
L 628 4666 
z
" id="DejaVuSans-50" transform="scale(0.015625)"/>
      <path d="M 1959 3097 
Q 1497 3097 1228 2736 
Q 959 2375 959 1747 
Q 959 1119 1226 758 
Q 1494 397 1959 397 
Q 2419 397 2687 759 
Q 2956 1122 2956 1747 
Q 2956 2369 2687 2733 
Q 2419 3097 1959 3097 
z
M 1959 3584 
Q 2709 3584 3137 3096 
Q 3566 2609 3566 1747 
Q 3566 888 3137 398 
Q 2709 -91 1959 -91 
Q 1206 -91 779 398 
Q 353 888 353 1747 
Q 353 2609 779 3096 
Q 1206 3584 1959 3584 
z
" id="DejaVuSans-6f" transform="scale(0.015625)"/>
      <path d="M 2834 3397 
L 2834 2853 
Q 2591 2978 2328 3040 
Q 2066 3103 1784 3103 
Q 1356 3103 1142 2972 
Q 928 2841 928 2578 
Q 928 2378 1081 2264 
Q 1234 2150 1697 2047 
L 1894 2003 
Q 2506 1872 2764 1633 
Q 3022 1394 3022 966 
Q 3022 478 2636 193 
Q 2250 -91 1575 -91 
Q 1294 -91 989 -36 
Q 684 19 347 128 
L 347 722 
Q 666 556 975 473 
Q 1284 391 1588 391 
Q 1994 391 2212 530 
Q 2431 669 2431 922 
Q 2431 1156 2273 1281 
Q 2116 1406 1581 1522 
L 1381 1569 
Q 847 1681 609 1914 
Q 372 2147 372 2553 
Q 372 3047 722 3315 
Q 1072 3584 1716 3584 
Q 2034 3584 2315 3537 
Q 2597 3491 2834 3397 
z
" id="DejaVuSans-73" transform="scale(0.015625)"/>
      <path d="M 750 794 
L 1409 794 
L 1409 0 
L 750 0 
L 750 794 
z
M 750 3309 
L 1409 3309 
L 1409 2516 
L 750 2516 
L 750 3309 
z
" id="DejaVuSans-3a" transform="scale(0.015625)"/>
      <path id="DejaVuSans-20" transform="scale(0.015625)"/>
      <path d="M 2841 2188 
Q 3044 2119 3236 1894 
Q 3428 1669 3622 1275 
L 4263 0 
L 3584 0 
L 2988 1197 
Q 2756 1666 2539 1819 
Q 2322 1972 1947 1972 
L 1259 1972 
L 1259 0 
L 628 0 
L 628 4666 
L 2053 4666 
Q 2853 4666 3247 4331 
Q 3641 3997 3641 3322 
Q 3641 2881 3436 2590 
Q 3231 2300 2841 2188 
z
M 1259 4147 
L 1259 2491 
L 2053 2491 
Q 2509 2491 2742 2702 
Q 2975 2913 2975 3322 
Q 2975 3731 2742 3939 
Q 2509 4147 2053 4147 
L 1259 4147 
z
" id="DejaVuSans-52" transform="scale(0.015625)"/>
      <path d="M 628 4666 
L 1569 4666 
L 2759 1491 
L 3956 4666 
L 4897 4666 
L 4897 0 
L 4281 0 
L 4281 4097 
L 3078 897 
L 2444 897 
L 1241 4097 
L 1241 0 
L 628 0 
L 628 4666 
z
" id="DejaVuSans-4d" transform="scale(0.015625)"/>
      <path d="M 3425 4513 
L 3425 3897 
Q 3066 4069 2747 4153 
Q 2428 4238 2131 4238 
Q 1616 4238 1336 4038 
Q 1056 3838 1056 3469 
Q 1056 3159 1242 3001 
Q 1428 2844 1947 2747 
L 2328 2669 
Q 3034 2534 3370 2195 
Q 3706 1856 3706 1288 
Q 3706 609 3251 259 
Q 2797 -91 1919 -91 
Q 1588 -91 1214 -16 
Q 841 59 441 206 
L 441 856 
Q 825 641 1194 531 
Q 1563 422 1919 422 
Q 2459 422 2753 634 
Q 3047 847 3047 1241 
Q 3047 1584 2836 1778 
Q 2625 1972 2144 2069 
L 1759 2144 
Q 1053 2284 737 2584 
Q 422 2884 422 3419 
Q 422 4038 858 4394 
Q 1294 4750 2059 4750 
Q 2388 4750 2728 4690 
Q 3069 4631 3425 4513 
z
" id="DejaVuSans-53" transform="scale(0.015625)"/>
      <path d="M 628 4666 
L 3578 4666 
L 3578 4134 
L 1259 4134 
L 1259 2753 
L 3481 2753 
L 3481 2222 
L 1259 2222 
L 1259 531 
L 3634 531 
L 3634 0 
L 628 0 
L 628 4666 
z
" id="DejaVuSans-45" transform="scale(0.015625)"/>
      <path d="M 525 4666 
L 3525 4666 
L 3525 4397 
L 1831 0 
L 1172 0 
L 2766 4134 
L 525 4134 
L 525 4666 
z
" id="DejaVuSans-37" transform="scale(0.015625)"/>
      <path d="M 2034 2216 
Q 1584 2216 1326 1975 
Q 1069 1734 1069 1313 
Q 1069 891 1326 650 
Q 1584 409 2034 409 
Q 2484 409 2743 651 
Q 3003 894 3003 1313 
Q 3003 1734 2745 1975 
Q 2488 2216 2034 2216 
z
M 1403 2484 
Q 997 2584 770 2862 
Q 544 3141 544 3541 
Q 544 4100 942 4425 
Q 1341 4750 2034 4750 
Q 2731 4750 3128 4425 
Q 3525 4100 3525 3541 
Q 3525 3141 3298 2862 
Q 3072 2584 2669 2484 
Q 3125 2378 3379 2068 
Q 3634 1759 3634 1313 
Q 3634 634 3220 271 
Q 2806 -91 2034 -91 
Q 1263 -91 848 271 
Q 434 634 434 1313 
Q 434 1759 690 2068 
Q 947 2378 1403 2484 
z
M 1172 3481 
Q 1172 3119 1398 2916 
Q 1625 2713 2034 2713 
Q 2441 2713 2670 2916 
Q 2900 3119 2900 3481 
Q 2900 3844 2670 4047 
Q 2441 4250 2034 4250 
Q 1625 4250 1398 4047 
Q 1172 3844 1172 3481 
z
" id="DejaVuSans-38" transform="scale(0.015625)"/>
      <path d="M 703 97 
L 703 672 
Q 941 559 1184 500 
Q 1428 441 1663 441 
Q 2288 441 2617 861 
Q 2947 1281 2994 2138 
Q 2813 1869 2534 1725 
Q 2256 1581 1919 1581 
Q 1219 1581 811 2004 
Q 403 2428 403 3163 
Q 403 3881 828 4315 
Q 1253 4750 1959 4750 
Q 2769 4750 3195 4129 
Q 3622 3509 3622 2328 
Q 3622 1225 3098 567 
Q 2575 -91 1691 -91 
Q 1453 -91 1209 -44 
Q 966 3 703 97 
z
M 1959 2075 
Q 2384 2075 2632 2365 
Q 2881 2656 2881 3163 
Q 2881 3666 2632 3958 
Q 2384 4250 1959 4250 
Q 1534 4250 1286 3958 
Q 1038 3666 1038 3163 
Q 1038 2656 1286 2365 
Q 1534 2075 1959 2075 
z
" id="DejaVuSans-39" transform="scale(0.015625)"/>
     </defs>
     <use xlink:href="#DejaVuSans-50"/>
     <use x="56.677734" xlink:href="#DejaVuSans-6f"/>
     <use x="117.859375" xlink:href="#DejaVuSans-73"/>
     <use x="169.958984" xlink:href="#DejaVuSans-3a"/>
     <use x="203.650391" xlink:href="#DejaVuSans-20"/>
     <use x="235.4375" xlink:href="#DejaVuSans-52"/>
     <use x="304.919922" xlink:href="#DejaVuSans-4d"/>
     <use x="391.199219" xlink:href="#DejaVuSans-53"/>
     <use x="454.675781" xlink:href="#DejaVuSans-45"/>
     <use x="517.859375" xlink:href="#DejaVuSans-20"/>
     <use x="549.646484" xlink:href="#DejaVuSans-30"/>
     <use x="613.269531" xlink:href="#DejaVuSans-2e"/>
     <use x="645.056641" xlink:href="#DejaVuSans-32"/>
     <use x="708.679688" xlink:href="#DejaVuSans-37"/>
     <use x="772.302734" xlink:href="#DejaVuSans-33"/>
     <use x="835.925781" xlink:href="#DejaVuSans-34"/>
     <use x="899.548828" xlink:href="#DejaVuSans-32"/>
     <use x="963.171875" xlink:href="#DejaVuSans-38"/>
     <use x="1026.794922" xlink:href="#DejaVuSans-35"/>
     <use x="1090.417969" xlink:href="#DejaVuSans-39"/>
     <use x="1154.041016" xlink:href="#DejaVuSans-31"/>
     <use x="1217.664062" xlink:href="#DejaVuSans-35"/>
     <use x="1281.287109" xlink:href="#DejaVuSans-36"/>
     <use x="1344.910156" xlink:href="#DejaVuSans-30"/>
     <use x="1408.533203" xlink:href="#DejaVuSans-32"/>
     <use x="1472.15625" xlink:href="#DejaVuSans-32"/>
     <use x="1535.779297" xlink:href="#DejaVuSans-31"/>
     <use x="1599.402344" xlink:href="#DejaVuSans-33"/>
     <use x="1663.025391" xlink:href="#DejaVuSans-20"/>
     <use x="1694.8125" xlink:href="#DejaVuSans-6d"/>
    </g>
   </g>
  </g>
  <g id="axes_2">
   <g id="patch_7">
    <path d="M 130.889143 652.94792 
L 1352.777143 652.94792 
L 1352.777143 382.76054 
L 130.889143 382.76054 
z
" style="fill:#ffffff;"/>
   </g>
   <g id="matplotlib.axis_3">
    <g id="xtick_7">
     <g id="line2d_15">
      <g>
       <use style="stroke:#000000;stroke-width:0.8;" x="186.429506" xlink:href="#m3edea171f5" y="652.94792"/>
      </g>
     </g>
     <g id="text_10">
      <!-- 0 -->
      <g transform="translate(183.248256 667.546357)scale(0.1 -0.1)">
       <use xlink:href="#DejaVuSans-30"/>
      </g>
     </g>
    </g>
    <g id="xtick_8">
     <g id="line2d_16">
      <g>
       <use style="stroke:#000000;stroke-width:0.8;" x="408.813345" xlink:href="#m3edea171f5" y="652.94792"/>
      </g>
     </g>
     <g id="text_11">
      <!-- 200 -->
      <g transform="translate(399.269595 667.546357)scale(0.1 -0.1)">
       <use xlink:href="#DejaVuSans-32"/>
       <use x="63.623047" xlink:href="#DejaVuSans-30"/>
       <use x="127.246094" xlink:href="#DejaVuSans-30"/>
      </g>
     </g>
    </g>
    <g id="xtick_9">
     <g id="line2d_17">
      <g>
       <use style="stroke:#000000;stroke-width:0.8;" x="631.197183" xlink:href="#m3edea171f5" y="652.94792"/>
      </g>
     </g>
     <g id="text_12">
      <!-- 400 -->
      <g transform="translate(621.653433 667.546357)scale(0.1 -0.1)">
       <use xlink:href="#DejaVuSans-34"/>
       <use x="63.623047" xlink:href="#DejaVuSans-30"/>
       <use x="127.246094" xlink:href="#DejaVuSans-30"/>
      </g>
     </g>
    </g>
    <g id="xtick_10">
     <g id="line2d_18">
      <g>
       <use style="stroke:#000000;stroke-width:0.8;" x="853.581022" xlink:href="#m3edea171f5" y="652.94792"/>
      </g>
     </g>
     <g id="text_13">
      <!-- 600 -->
      <g transform="translate(844.037272 667.546357)scale(0.1 -0.1)">
       <use xlink:href="#DejaVuSans-36"/>
       <use x="63.623047" xlink:href="#DejaVuSans-30"/>
       <use x="127.246094" xlink:href="#DejaVuSans-30"/>
      </g>
     </g>
    </g>
    <g id="xtick_11">
     <g id="line2d_19">
      <g>
       <use style="stroke:#000000;stroke-width:0.8;" x="1075.96486" xlink:href="#m3edea171f5" y="652.94792"/>
      </g>
     </g>
     <g id="text_14">
      <!-- 800 -->
      <g transform="translate(1066.42111 667.546357)scale(0.1 -0.1)">
       <use xlink:href="#DejaVuSans-38"/>
       <use x="63.623047" xlink:href="#DejaVuSans-30"/>
       <use x="127.246094" xlink:href="#DejaVuSans-30"/>
      </g>
     </g>
    </g>
    <g id="xtick_12">
     <g id="line2d_20">
      <g>
       <use style="stroke:#000000;stroke-width:0.8;" x="1298.348698" xlink:href="#m3edea171f5" y="652.94792"/>
      </g>
     </g>
     <g id="text_15">
      <!-- 1000 -->
      <g transform="translate(1285.623698 667.546357)scale(0.1 -0.1)">
       <use xlink:href="#DejaVuSans-31"/>
       <use x="63.623047" xlink:href="#DejaVuSans-30"/>
       <use x="127.246094" xlink:href="#DejaVuSans-30"/>
       <use x="190.869141" xlink:href="#DejaVuSans-30"/>
      </g>
     </g>
    </g>
   </g>
   <g id="matplotlib.axis_4">
    <g id="ytick_8">
     <g id="line2d_21">
      <g>
       <use style="stroke:#000000;stroke-width:0.8;" x="130.889143" xlink:href="#m3b554dfabf" y="640.666675"/>
      </g>
     </g>
     <g id="text_16">
      <!-- 0.0 -->
      <g transform="translate(107.986018 644.465894)scale(0.1 -0.1)">
       <use xlink:href="#DejaVuSans-30"/>
       <use x="63.623047" xlink:href="#DejaVuSans-2e"/>
       <use x="95.410156" xlink:href="#DejaVuSans-30"/>
      </g>
     </g>
    </g>
    <g id="ytick_9">
     <g id="line2d_22">
      <g>
       <use style="stroke:#000000;stroke-width:0.8;" x="130.889143" xlink:href="#m3b554dfabf" y="609.03455"/>
      </g>
     </g>
     <g id="text_17">
      <!-- 0.2 -->
      <g transform="translate(107.986018 612.833769)scale(0.1 -0.1)">
       <use xlink:href="#DejaVuSans-30"/>
       <use x="63.623047" xlink:href="#DejaVuSans-2e"/>
       <use x="95.410156" xlink:href="#DejaVuSans-32"/>
      </g>
     </g>
    </g>
    <g id="ytick_10">
     <g id="line2d_23">
      <g>
       <use style="stroke:#000000;stroke-width:0.8;" x="130.889143" xlink:href="#m3b554dfabf" y="577.402424"/>
      </g>
     </g>
     <g id="text_18">
      <!-- 0.4 -->
      <g transform="translate(107.986018 581.201643)scale(0.1 -0.1)">
       <use xlink:href="#DejaVuSans-30"/>
       <use x="63.623047" xlink:href="#DejaVuSans-2e"/>
       <use x="95.410156" xlink:href="#DejaVuSans-34"/>
      </g>
     </g>
    </g>
    <g id="ytick_11">
     <g id="line2d_24">
      <g>
       <use style="stroke:#000000;stroke-width:0.8;" x="130.889143" xlink:href="#m3b554dfabf" y="545.770299"/>
      </g>
     </g>
     <g id="text_19">
      <!-- 0.6 -->
      <g transform="translate(107.986018 549.569518)scale(0.1 -0.1)">
       <use xlink:href="#DejaVuSans-30"/>
       <use x="63.623047" xlink:href="#DejaVuSans-2e"/>
       <use x="95.410156" xlink:href="#DejaVuSans-36"/>
      </g>
     </g>
    </g>
    <g id="ytick_12">
     <g id="line2d_25">
      <g>
       <use style="stroke:#000000;stroke-width:0.8;" x="130.889143" xlink:href="#m3b554dfabf" y="514.138174"/>
      </g>
     </g>
     <g id="text_20">
      <!-- 0.8 -->
      <g transform="translate(107.986018 517.937392)scale(0.1 -0.1)">
       <use xlink:href="#DejaVuSans-30"/>
       <use x="63.623047" xlink:href="#DejaVuSans-2e"/>
       <use x="95.410156" xlink:href="#DejaVuSans-38"/>
      </g>
     </g>
    </g>
    <g id="ytick_13">
     <g id="line2d_26">
      <g>
       <use style="stroke:#000000;stroke-width:0.8;" x="130.889143" xlink:href="#m3b554dfabf" y="482.506048"/>
      </g>
     </g>
     <g id="text_21">
      <!-- 1.0 -->
      <g transform="translate(107.986018 486.305267)scale(0.1 -0.1)">
       <use xlink:href="#DejaVuSans-31"/>
       <use x="63.623047" xlink:href="#DejaVuSans-2e"/>
       <use x="95.410156" xlink:href="#DejaVuSans-30"/>
      </g>
     </g>
    </g>
    <g id="ytick_14">
     <g id="line2d_27">
      <g>
       <use style="stroke:#000000;stroke-width:0.8;" x="130.889143" xlink:href="#m3b554dfabf" y="450.873923"/>
      </g>
     </g>
     <g id="text_22">
      <!-- 1.2 -->
      <g transform="translate(107.986018 454.673141)scale(0.1 -0.1)">
       <use xlink:href="#DejaVuSans-31"/>
       <use x="63.623047" xlink:href="#DejaVuSans-2e"/>
       <use x="95.410156" xlink:href="#DejaVuSans-32"/>
      </g>
     </g>
    </g>
    <g id="ytick_15">
     <g id="line2d_28">
      <g>
       <use style="stroke:#000000;stroke-width:0.8;" x="130.889143" xlink:href="#m3b554dfabf" y="419.241797"/>
      </g>
     </g>
     <g id="text_23">
      <!-- 1.4 -->
      <g transform="translate(107.986018 423.041016)scale(0.1 -0.1)">
       <use xlink:href="#DejaVuSans-31"/>
       <use x="63.623047" xlink:href="#DejaVuSans-2e"/>
       <use x="95.410156" xlink:href="#DejaVuSans-34"/>
      </g>
     </g>
    </g>
    <g id="ytick_16">
     <g id="line2d_29">
      <g>
       <use style="stroke:#000000;stroke-width:0.8;" x="130.889143" xlink:href="#m3b554dfabf" y="387.609672"/>
      </g>
     </g>
     <g id="text_24">
      <!-- 1.6 -->
      <g transform="translate(107.986018 391.40889)scale(0.1 -0.1)">
       <use xlink:href="#DejaVuSans-31"/>
       <use x="63.623047" xlink:href="#DejaVuSans-2e"/>
       <use x="95.410156" xlink:href="#DejaVuSans-36"/>
      </g>
     </g>
    </g>
    <g id="text_25">
     <!-- [deg] -->
     <g transform="translate(101.90633 531.180793)rotate(-90)scale(0.1 -0.1)">
      <defs>
       <path d="M 2906 2969 
L 2906 4863 
L 3481 4863 
L 3481 0 
L 2906 0 
L 2906 525 
Q 2725 213 2448 61 
Q 2172 -91 1784 -91 
Q 1150 -91 751 415 
Q 353 922 353 1747 
Q 353 2572 751 3078 
Q 1150 3584 1784 3584 
Q 2172 3584 2448 3432 
Q 2725 3281 2906 2969 
z
M 947 1747 
Q 947 1113 1208 752 
Q 1469 391 1925 391 
Q 2381 391 2643 752 
Q 2906 1113 2906 1747 
Q 2906 2381 2643 2742 
Q 2381 3103 1925 3103 
Q 1469 3103 1208 2742 
Q 947 2381 947 1747 
z
" id="DejaVuSans-64" transform="scale(0.015625)"/>
       <path d="M 3597 1894 
L 3597 1613 
L 953 1613 
Q 991 1019 1311 708 
Q 1631 397 2203 397 
Q 2534 397 2845 478 
Q 3156 559 3463 722 
L 3463 178 
Q 3153 47 2828 -22 
Q 2503 -91 2169 -91 
Q 1331 -91 842 396 
Q 353 884 353 1716 
Q 353 2575 817 3079 
Q 1281 3584 2069 3584 
Q 2775 3584 3186 3129 
Q 3597 2675 3597 1894 
z
M 3022 2063 
Q 3016 2534 2758 2815 
Q 2500 3097 2075 3097 
Q 1594 3097 1305 2825 
Q 1016 2553 972 2059 
L 3022 2063 
z
" id="DejaVuSans-65" transform="scale(0.015625)"/>
       <path d="M 2906 1791 
Q 2906 2416 2648 2759 
Q 2391 3103 1925 3103 
Q 1463 3103 1205 2759 
Q 947 2416 947 1791 
Q 947 1169 1205 825 
Q 1463 481 1925 481 
Q 2391 481 2648 825 
Q 2906 1169 2906 1791 
z
M 3481 434 
Q 3481 -459 3084 -895 
Q 2688 -1331 1869 -1331 
Q 1566 -1331 1297 -1286 
Q 1028 -1241 775 -1147 
L 775 -588 
Q 1028 -725 1275 -790 
Q 1522 -856 1778 -856 
Q 2344 -856 2625 -561 
Q 2906 -266 2906 331 
L 2906 616 
Q 2728 306 2450 153 
Q 2172 0 1784 0 
Q 1141 0 747 490 
Q 353 981 353 1791 
Q 353 2603 747 3093 
Q 1141 3584 1784 3584 
Q 2172 3584 2450 3431 
Q 2728 3278 2906 2969 
L 2906 3500 
L 3481 3500 
L 3481 434 
z
" id="DejaVuSans-67" transform="scale(0.015625)"/>
      </defs>
      <use xlink:href="#DejaVuSans-5b"/>
      <use x="39.013672" xlink:href="#DejaVuSans-64"/>
      <use x="102.490234" xlink:href="#DejaVuSans-65"/>
      <use x="164.013672" xlink:href="#DejaVuSans-67"/>
      <use x="227.490234" xlink:href="#DejaVuSans-5d"/>
     </g>
    </g>
   </g>
   <g id="line2d_30">
    <path clip-path="url(#p9c37df2710)" d="M 186.429506 640.666675 
L 187.541426 582.253099 
L 188.653345 637.458814 
L 189.765264 544.341775 
L 190.877183 591.642751 
L 191.989102 596.365648 
L 193.101022 578.777038 
L 194.212941 623.83267 
L 195.32486 530.576887 
L 196.436779 601.957043 
L 197.548698 584.702461 
L 198.660618 625.514517 
L 199.772537 587.677047 
L 200.884456 602.008013 
L 201.996375 593.424228 
L 203.108294 628.137049 
L 204.220214 626.871397 
L 205.332133 597.516553 
L 206.444052 627.109821 
L 207.555971 594.81624 
L 208.66789 579.798293 
L 209.77981 628.718522 
L 210.891729 632.31011 
L 212.003648 623.134471 
L 213.115567 557.137662 
L 214.227486 520.729756 
L 215.339405 615.761692 
L 216.451325 620.249467 
L 217.563244 566.655186 
L 218.675163 592.39823 
L 219.787082 579.58427 
L 220.899001 605.12811 
L 222.010921 579.561591 
L 223.12284 537.439972 
L 224.234759 638.740149 
L 225.346678 595.293481 
L 226.458597 575.754594 
L 227.570517 546.874593 
L 228.682436 621.956608 
L 229.794355 597.233572 
L 230.906274 626.847966 
L 232.018193 634.405624 
L 233.130113 601.682219 
L 234.242032 608.124737 
L 235.353951 628.861594 
L 236.46587 564.138252 
L 237.577789 608.261033 
L 238.689709 577.691684 
L 239.801628 634.132457 
L 240.913547 632.151606 
L 242.025466 639.603249 
L 243.137385 547.852008 
L 244.249304 561.072044 
L 245.361224 629.845685 
L 246.473143 565.182582 
L 248.696981 629.946843 
L 249.8089 487.967242 
L 250.92082 601.372195 
L 252.032739 596.977549 
L 253.144658 571.519698 
L 255.368496 584.352801 
L 256.480416 589.244851 
L 257.592335 622.318675 
L 258.704254 549.03025 
L 259.816173 636.462905 
L 260.928092 581.646062 
L 262.040012 556.097105 
L 263.151931 541.936135 
L 264.26385 598.871677 
L 265.375769 626.697683 
L 266.487688 634.451662 
L 267.599608 612.489119 
L 268.711527 635.276427 
L 269.823446 632.424074 
L 270.935365 630.750783 
L 272.047284 589.364563 
L 273.159203 620.847409 
L 274.271123 637.002759 
L 275.383042 600.749903 
L 276.494961 614.7551 
L 277.60688 632.294836 
L 278.718799 604.166499 
L 279.830719 618.576147 
L 280.942638 524.986644 
L 282.054557 618.128011 
L 283.166476 568.501454 
L 284.278395 599.698222 
L 285.390315 639.364635 
L 286.502234 620.876143 
L 287.614153 598.210299 
L 288.726072 629.996392 
L 289.837991 615.394404 
L 290.949911 608.745988 
L 292.06183 565.712348 
L 293.173749 572.23644 
L 294.285668 591.865572 
L 295.397587 551.249563 
L 296.509506 617.739378 
L 297.621426 630.013706 
L 298.733345 621.82851 
L 299.845264 609.506108 
L 300.957183 578.708532 
L 302.069102 602.891004 
L 303.181022 584.258079 
L 304.292941 581.210741 
L 306.516779 576.302159 
L 307.628698 578.342363 
L 308.740618 610.257731 
L 309.852537 596.844762 
L 310.964456 606.66699 
L 312.076375 634.421547 
L 313.188294 590.980876 
L 314.300214 636.108027 
L 315.412133 614.531493 
L 316.524052 617.365843 
L 317.635971 527.212556 
L 318.74789 628.389365 
L 319.85981 613.779928 
L 320.971729 579.208795 
L 322.083648 606.439799 
L 323.195567 502.498147 
L 324.307486 633.197013 
L 325.419405 609.707518 
L 326.531325 592.625329 
L 327.643244 547.464706 
L 328.755163 621.037702 
L 329.867082 537.558391 
L 330.979001 633.514774 
L 332.090921 578.611039 
L 333.20284 620.832048 
L 334.314759 503.845979 
L 335.426678 602.576965 
L 336.538597 612.037991 
L 337.650517 634.515226 
L 338.762436 639.418533 
L 339.874355 609.39409 
L 340.986274 613.881406 
L 342.098193 522.157476 
L 343.210113 608.397933 
L 344.322032 637.173385 
L 345.433951 604.568667 
L 346.54587 609.459258 
L 347.657789 520.971504 
L 348.769709 624.533464 
L 349.881628 422.975259 
L 350.993547 539.899628 
L 352.105466 617.606717 
L 353.217385 633.049049 
L 354.329304 634.62471 
L 355.441224 610.824785 
L 356.553143 603.522822 
L 357.665062 589.539617 
L 358.776981 620.468968 
L 359.8889 633.661861 
L 361.00082 616.74267 
L 362.112739 592.968273 
L 363.224658 605.089015 
L 364.336577 552.533911 
L 365.448496 556.970894 
L 366.560416 492.490753 
L 367.672335 597.492229 
L 368.784254 621.899148 
L 369.896173 592.563041 
L 371.008092 495.656775 
L 372.120012 621.188342 
L 373.231931 599.573874 
L 374.34385 638.603039 
L 375.455769 610.477865 
L 376.567688 600.415669 
L 377.679608 634.714383 
L 378.791527 620.46082 
L 379.903446 620.028503 
L 381.015365 629.952337 
L 382.127284 593.697021 
L 383.239203 545.536971 
L 384.351123 603.433721 
L 385.463042 597.05615 
L 386.574961 638.833095 
L 387.68688 630.028035 
L 388.798799 613.234792 
L 389.910719 623.237955 
L 391.022638 572.19074 
L 392.134557 638.826142 
L 393.246476 605.526885 
L 394.358395 607.321783 
L 395.470315 560.778137 
L 396.582234 547.716819 
L 397.694153 568.452428 
L 398.806072 631.742838 
L 399.917991 624.785634 
L 401.029911 628.597486 
L 402.14183 618.263928 
L 403.253749 593.616594 
L 404.365668 630.743737 
L 405.477587 586.517343 
L 406.589506 626.537991 
L 407.701426 604.759778 
L 408.813345 573.034919 
L 409.925264 582.49704 
L 411.037183 596.188434 
L 412.149102 512.456272 
L 413.261022 616.102098 
L 414.372941 480.833433 
L 415.48486 466.410716 
L 416.596779 586.064007 
L 417.708698 562.950446 
L 418.820618 617.121705 
L 419.932537 621.098173 
L 422.156375 609.552056 
L 423.268294 531.951845 
L 424.380214 581.312859 
L 425.492133 578.775037 
L 426.604052 579.887285 
L 427.715971 602.14964 
L 428.82789 590.884215 
L 429.93981 589.613837 
L 431.051729 542.306085 
L 432.163648 580.950637 
L 433.275567 624.838008 
L 434.387486 597.28376 
L 435.499405 573.262635 
L 436.611325 636.645423 
L 437.723244 639.387284 
L 438.835163 585.071469 
L 439.947082 395.041785 
L 441.059001 487.464816 
L 442.170921 630.237748 
L 443.28284 599.267947 
L 444.394759 520.7891 
L 445.506678 429.096715 
L 446.618597 534.020549 
L 447.730517 570.168816 
L 448.842436 504.754996 
L 449.954355 635.770166 
L 451.066274 633.378404 
L 452.178193 553.642195 
L 453.290113 612.148171 
L 454.402032 633.317384 
L 455.513951 522.520432 
L 456.62587 550.383468 
L 457.737789 639.533389 
L 458.849709 619.958341 
L 459.961628 558.22454 
L 461.073547 631.963279 
L 462.185466 554.501216 
L 463.297385 506.544997 
L 464.409304 620.204575 
L 465.521224 582.599692 
L 466.633143 603.386589 
L 467.745062 543.31807 
L 468.856981 616.90067 
L 469.9689 583.325175 
L 471.08082 512.404163 
L 472.192739 604.687425 
L 473.304658 628.156343 
L 474.416577 568.721773 
L 475.528496 588.808209 
L 476.640416 587.062749 
L 477.752335 578.755255 
L 478.864254 548.555358 
L 479.976173 627.917747 
L 481.088092 618.383212 
L 483.311931 577.136454 
L 484.42385 459.65876 
L 485.535769 559.149408 
L 486.647688 629.274486 
L 487.759608 619.892574 
L 488.871527 629.040717 
L 489.983446 611.416776 
L 491.095365 633.982466 
L 492.207284 629.570562 
L 493.319203 629.041715 
L 494.431123 615.951298 
L 495.543042 557.636139 
L 496.654961 582.89846 
L 497.76688 627.9577 
L 498.878799 636.552455 
L 499.990719 596.688862 
L 501.102638 620.717653 
L 502.214557 566.850444 
L 503.326476 622.379814 
L 504.438395 615.453786 
L 505.550315 623.47629 
L 506.662234 530.536829 
L 507.774153 615.641023 
L 508.886072 628.3149 
L 509.997991 599.738403 
L 511.109911 577.893926 
L 512.22183 639.200345 
L 513.333749 615.196112 
L 514.445668 585.067046 
L 515.557587 571.720156 
L 516.669506 569.07969 
L 517.781426 599.768416 
L 518.893345 621.494606 
L 520.005264 552.836555 
L 521.117183 615.121082 
L 522.229102 583.674806 
L 523.341022 599.162427 
L 524.452941 528.966571 
L 525.56486 530.196011 
L 526.676779 573.163737 
L 527.788698 568.462085 
L 528.900618 557.986237 
L 530.012537 579.912763 
L 531.124456 634.183688 
L 532.236375 634.972504 
L 534.460214 538.966276 
L 535.572133 539.787364 
L 536.684052 546.234317 
L 537.795971 520.225525 
L 538.90789 623.114825 
L 540.01981 585.785788 
L 541.131729 621.99138 
L 542.243648 620.185612 
L 543.355567 620.41813 
L 544.467486 572.287622 
L 545.579405 628.930446 
L 546.691325 587.301651 
L 547.803244 584.872202 
L 548.915163 566.031417 
L 550.027082 569.258874 
L 551.139001 597.85985 
L 552.250921 632.094403 
L 553.36284 575.729744 
L 554.474759 622.450912 
L 555.586678 629.562528 
L 556.698597 598.103308 
L 557.810517 586.311099 
L 558.922436 631.958746 
L 560.034355 555.293583 
L 561.146274 572.755059 
L 562.258193 579.707135 
L 563.370113 632.719408 
L 564.482032 629.637827 
L 565.593951 628.497994 
L 566.70587 604.224179 
L 567.817789 559.709836 
L 568.929709 622.303714 
L 570.041628 616.958776 
L 571.153547 555.626026 
L 572.265466 543.966573 
L 573.377385 594.460882 
L 574.489304 625.997822 
L 575.601224 538.751928 
L 576.713143 521.710234 
L 577.825062 495.979947 
L 578.936981 634.295256 
L 580.0489 635.98502 
L 581.16082 557.613013 
L 582.272739 601.072973 
L 583.384658 609.540685 
L 584.496577 603.835972 
L 585.608496 626.340473 
L 586.720416 533.002471 
L 587.832335 566.097902 
L 588.944254 480.083988 
L 590.056173 639.795802 
L 591.168092 566.524772 
L 592.280012 609.034698 
L 593.391931 430.877473 
L 594.50385 471.094433 
L 595.615769 618.390382 
L 596.727688 595.728821 
L 597.839608 546.376747 
L 598.951527 637.816174 
L 600.063446 524.702027 
L 601.175365 548.068405 
L 602.287284 631.038019 
L 603.399203 513.633415 
L 604.511123 630.829761 
L 605.623042 464.087699 
L 606.734961 556.61638 
L 607.84688 618.058749 
L 608.958799 619.308075 
L 610.070719 611.805086 
L 611.182638 563.772767 
L 612.294557 612.893013 
L 613.406476 640.538487 
L 614.518395 559.83032 
L 615.630315 614.72626 
L 616.742234 596.344669 
L 617.854153 636.153602 
L 618.966072 575.086928 
L 620.077991 544.749237 
L 621.189911 577.219514 
L 622.30183 629.349498 
L 623.413749 593.212821 
L 624.525668 615.810208 
L 625.637587 564.118043 
L 626.749506 601.509394 
L 627.861426 601.927113 
L 628.973345 629.503878 
L 630.085264 625.136846 
L 631.197183 588.969892 
L 632.309102 615.910107 
L 633.421022 606.086761 
L 634.532941 575.541237 
L 635.64486 582.997911 
L 636.756779 579.02218 
L 638.980618 594.915387 
L 640.092537 614.734022 
L 641.204456 632.395199 
L 642.316375 630.078383 
L 643.428294 617.046091 
L 644.540214 634.497294 
L 645.652133 554.764247 
L 646.764052 599.190689 
L 647.875971 588.311655 
L 648.98789 591.960577 
L 650.09981 617.959772 
L 651.211729 595.164324 
L 653.435567 543.611277 
L 654.547486 604.843753 
L 655.659405 570.06568 
L 656.771325 637.335188 
L 657.883244 626.737769 
L 658.995163 607.511015 
L 660.107082 601.569334 
L 661.219001 618.813386 
L 662.330921 552.398811 
L 663.44284 573.730594 
L 664.554759 581.398748 
L 665.666678 607.525126 
L 666.778597 587.546365 
L 667.890517 607.411266 
L 669.002436 573.776315 
L 670.114355 627.340481 
L 671.226274 563.582748 
L 672.338193 584.969321 
L 673.450113 575.090611 
L 674.562032 573.102857 
L 675.673951 636.966786 
L 676.78587 541.9529 
L 677.897789 614.647176 
L 679.009709 564.272985 
L 680.121628 538.68149 
L 681.233547 635.592643 
L 682.345466 562.664927 
L 683.457385 523.693999 
L 684.569304 618.973095 
L 685.681224 539.696581 
L 686.793143 486.364306 
L 687.905062 616.959032 
L 689.016981 629.936637 
L 690.1289 604.159078 
L 691.24082 628.325344 
L 692.352739 558.17293 
L 693.464658 596.267438 
L 694.576577 640.278442 
L 695.688496 580.024955 
L 696.800416 599.430979 
L 697.912335 512.138289 
L 699.024254 599.147183 
L 700.136173 635.549346 
L 701.248092 568.280926 
L 702.360012 515.309084 
L 703.471931 617.558705 
L 704.58385 618.68379 
L 706.807688 487.455465 
L 707.919608 519.355997 
L 709.031527 579.423648 
L 710.143446 559.63814 
L 711.255365 637.904064 
L 712.367284 551.620035 
L 713.479203 551.554051 
L 714.591123 585.096968 
L 715.703042 588.970962 
L 716.814961 597.277042 
L 717.92688 637.022889 
L 719.038799 585.056584 
L 720.150719 629.527493 
L 721.262638 610.651744 
L 722.374557 631.177367 
L 723.486476 554.574838 
L 724.598395 614.005953 
L 725.710315 592.761689 
L 726.822234 619.602984 
L 727.934153 536.5914 
L 729.046072 582.825471 
L 730.157991 614.314066 
L 731.269911 518.475493 
L 732.38183 621.110961 
L 734.605668 529.555314 
L 735.717587 589.839861 
L 736.829506 636.645676 
L 737.941426 543.646932 
L 739.053345 582.064895 
L 740.165264 590.005544 
L 741.277183 540.84497 
L 742.389102 562.169673 
L 743.501022 529.423316 
L 744.612941 556.399338 
L 745.72486 571.094765 
L 746.836779 613.996226 
L 747.948698 557.68149 
L 749.060618 613.129798 
L 750.172537 553.022673 
L 751.284456 610.90196 
L 752.396375 612.031431 
L 753.508294 618.783014 
L 754.620214 584.978791 
L 755.732133 603.848549 
L 756.844052 639.868128 
L 757.955971 607.133543 
L 759.06789 640.09301 
L 760.17981 564.803653 
L 761.291729 610.406527 
L 762.403648 601.55589 
L 763.515567 610.766501 
L 764.627486 493.654818 
L 765.739405 483.738126 
L 766.851325 567.843166 
L 769.075163 636.377787 
L 770.187082 598.187993 
L 771.299001 578.536642 
L 772.410921 561.75754 
L 773.52284 633.839847 
L 774.634759 527.441312 
L 775.746678 606.110941 
L 776.858597 618.880264 
L 777.970517 622.183955 
L 779.082436 629.782766 
L 780.194355 499.42067 
L 781.306274 585.337063 
L 782.418193 578.734845 
L 783.530113 576.815546 
L 784.642032 498.755513 
L 785.753951 531.368237 
L 786.86587 631.353797 
L 787.977789 612.499504 
L 789.089709 570.838409 
L 790.201628 551.317182 
L 791.313547 569.234398 
L 792.425466 598.841917 
L 793.537385 636.254607 
L 795.761224 583.27013 
L 796.873143 625.859845 
L 797.985062 619.365408 
L 799.096981 525.493383 
L 800.2089 631.876601 
L 801.32082 578.150256 
L 802.432739 582.713018 
L 803.544658 615.488276 
L 804.656577 639.6418 
L 805.768496 526.787145 
L 806.880416 585.027142 
L 807.992335 594.49187 
L 809.104254 589.746687 
L 810.216173 541.788933 
L 811.328092 560.415842 
L 812.440012 450.695679 
L 813.551931 504.366945 
L 814.66385 628.812284 
L 815.775769 598.99533 
L 816.887688 582.74515 
L 817.999608 563.890325 
L 819.111527 621.138254 
L 820.223446 568.514163 
L 821.335365 621.459683 
L 822.447284 567.761023 
L 823.559203 575.910255 
L 824.671123 610.721926 
L 825.783042 620.121224 
L 826.894961 590.459178 
L 828.00688 596.686132 
L 829.118799 585.098991 
L 830.230719 633.264735 
L 831.342638 563.745593 
L 832.454557 604.960307 
L 833.566476 632.795372 
L 834.678395 639.096052 
L 835.790315 558.191074 
L 836.902234 542.220794 
L 838.014153 562.977262 
L 839.126072 589.820164 
L 840.237991 566.785072 
L 841.349911 546.445244 
L 842.46183 608.489075 
L 843.573749 616.761286 
L 844.685668 555.567228 
L 845.797587 597.554829 
L 846.909506 553.751901 
L 848.021426 538.824649 
L 849.133345 575.62115 
L 850.245264 570.616265 
L 851.357183 633.839776 
L 852.469102 619.309137 
L 853.581022 544.640139 
L 854.692941 561.994655 
L 855.80486 568.367075 
L 856.916779 482.610515 
L 858.028698 505.201105 
L 859.140618 541.851679 
L 860.252537 543.000756 
L 861.364456 589.206679 
L 862.476375 601.054421 
L 863.588294 582.473299 
L 864.700214 615.749519 
L 865.812133 576.790288 
L 866.924052 629.717873 
L 868.035971 591.066637 
L 869.14789 617.214842 
L 870.25981 602.015211 
L 871.371729 593.997988 
L 872.483648 511.924991 
L 873.595567 551.50214 
L 874.707486 562.192682 
L 875.819405 627.325012 
L 876.931325 531.749476 
L 878.043244 524.28354 
L 879.155163 627.993986 
L 880.267082 550.598649 
L 881.379001 563.324077 
L 882.490921 509.568504 
L 883.60284 596.621915 
L 884.714759 610.997832 
L 885.826678 583.10765 
L 886.938597 485.002636 
L 888.050517 521.597735 
L 889.162436 626.426669 
L 890.274355 596.630462 
L 891.386274 506.137885 
L 892.498193 609.288784 
L 893.610113 602.395588 
L 894.722032 624.63661 
L 895.833951 596.005256 
L 896.94587 585.33129 
L 898.057789 545.513236 
L 899.169709 612.304448 
L 900.281628 634.346438 
L 901.393547 490.995923 
L 902.505466 485.104038 
L 903.617385 558.505846 
L 904.729304 557.424817 
L 905.841224 610.67624 
L 906.953143 624.816343 
L 908.065062 634.850427 
L 909.176981 622.174736 
L 910.2889 631.900477 
L 911.40082 504.15962 
L 912.512739 614.331543 
L 913.624658 624.133024 
L 914.736577 437.15191 
L 916.960416 627.332809 
L 918.072335 561.570773 
L 919.184254 605.230062 
L 920.296173 607.670322 
L 921.408092 592.473483 
L 922.520012 585.504757 
L 923.631931 542.585708 
L 924.74385 524.28461 
L 925.855769 539.456444 
L 926.967688 535.902783 
L 928.079608 586.597463 
L 929.191527 567.380203 
L 930.303446 560.655186 
L 931.415365 601.365497 
L 932.527284 633.260948 
L 933.639203 585.637614 
L 934.751123 633.985813 
L 935.863042 629.860086 
L 936.974961 596.115251 
L 938.08688 514.570121 
L 939.198799 520.342068 
L 940.310719 558.214929 
L 941.422638 639.434679 
L 943.646476 521.159514 
L 944.758395 633.194417 
L 945.870315 604.576139 
L 946.982234 609.922867 
L 948.094153 615.971007 
L 949.206072 603.599744 
L 950.317991 622.573909 
L 951.429911 563.385204 
L 952.54183 637.372938 
L 953.653749 569.938881 
L 954.765668 611.094106 
L 955.877587 511.082115 
L 956.989506 599.151565 
L 958.101426 594.934253 
L 959.213345 633.112193 
L 960.325264 624.479858 
L 961.437183 635.735255 
L 962.549102 635.705316 
L 963.661022 639.537628 
L 964.772941 575.364717 
L 965.88486 627.918488 
L 966.996779 623.776601 
L 968.108698 633.653354 
L 969.220618 637.518894 
L 970.332537 632.613598 
L 971.444456 607.653615 
L 972.556375 622.436428 
L 973.668294 612.617716 
L 974.780214 539.97285 
L 975.892133 624.471222 
L 977.004052 602.16614 
L 978.115971 629.587456 
L 979.22789 507.365187 
L 980.33981 533.90284 
L 981.451729 620.351531 
L 982.563648 632.387794 
L 983.675567 596.014812 
L 984.787486 640.65131 
L 985.899405 638.623512 
L 987.011325 616.849724 
L 988.123244 624.73321 
L 989.235163 606.07116 
L 990.347082 562.351977 
L 991.459001 609.88773 
L 992.570921 539.876275 
L 993.68284 577.630355 
L 994.794759 637.962836 
L 995.906678 611.648977 
L 997.018597 578.031026 
L 998.130517 614.361147 
L 999.242436 607.350522 
L 1000.354355 630.174938 
L 1001.466274 615.051765 
L 1002.578193 608.160891 
L 1003.690113 606.28872 
L 1004.802032 542.4928 
L 1005.913951 571.400199 
L 1008.137789 526.443055 
L 1009.249709 601.057467 
L 1010.361628 617.408277 
L 1011.473547 631.039304 
L 1012.585466 552.812151 
L 1013.697385 601.86095 
L 1014.809304 606.490734 
L 1015.921224 632.413662 
L 1017.033143 516.846004 
L 1018.145062 541.590822 
L 1019.256981 605.896679 
L 1020.3689 546.181639 
L 1021.48082 624.908274 
L 1022.592739 607.494606 
L 1023.704658 595.93775 
L 1024.816577 561.159433 
L 1025.928496 638.85377 
L 1027.040416 634.877084 
L 1028.152335 603.865973 
L 1029.264254 633.55058 
L 1030.376173 588.988443 
L 1031.488092 565.171772 
L 1032.600012 619.975241 
L 1033.711931 579.233325 
L 1034.82385 565.297707 
L 1035.935769 611.405919 
L 1037.047688 616.338085 
L 1038.159608 601.739599 
L 1039.271527 639.154338 
L 1040.383446 522.926576 
L 1041.495365 574.1268 
L 1042.607284 518.632845 
L 1043.719203 589.220078 
L 1044.831123 544.430595 
L 1045.943042 634.810497 
L 1047.054961 587.296052 
L 1048.16688 601.739949 
L 1049.278799 526.2757 
L 1050.390719 542.182249 
L 1051.502638 538.493517 
L 1052.614557 610.702677 
L 1053.726476 491.575543 
L 1054.838395 562.077789 
L 1055.950315 574.256449 
L 1057.062234 570.167996 
L 1058.174153 599.893791 
L 1059.286072 602.399904 
L 1060.397991 635.644881 
L 1061.509911 529.024332 
L 1062.62183 559.060028 
L 1063.733749 615.811681 
L 1064.845668 638.397105 
L 1065.957587 523.584098 
L 1067.069506 619.103134 
L 1068.181426 614.537488 
L 1069.293345 532.034499 
L 1070.405264 535.301853 
L 1071.517183 551.379782 
L 1072.629102 628.716437 
L 1073.741022 614.799824 
L 1074.852941 574.081752 
L 1075.96486 591.397978 
L 1077.076779 550.182788 
L 1078.188698 608.049857 
L 1079.300618 599.18491 
L 1080.412537 625.143961 
L 1081.524456 570.333468 
L 1082.636375 615.558195 
L 1083.748294 622.081687 
L 1084.860214 635.058582 
L 1085.972133 631.434756 
L 1087.084052 605.468781 
L 1088.195971 561.500973 
L 1089.30789 622.639518 
L 1090.41981 558.096839 
L 1091.531729 578.435631 
L 1092.643648 609.343136 
L 1093.755567 626.138302 
L 1094.867486 590.398892 
L 1095.979405 570.642228 
L 1097.091325 610.06541 
L 1098.203244 574.419511 
L 1099.315163 637.579257 
L 1100.427082 538.628288 
L 1102.650921 598.128869 
L 1103.76284 633.400374 
L 1104.874759 617.770341 
L 1105.986678 538.521621 
L 1107.098597 622.516121 
L 1108.210517 625.630447 
L 1109.322436 601.544835 
L 1110.434355 533.529073 
L 1111.546274 565.463522 
L 1112.658193 615.976389 
L 1113.770113 603.803385 
L 1114.882032 588.867567 
L 1115.993951 602.078131 
L 1117.10587 599.68492 
L 1118.217789 594.502072 
L 1119.329709 613.147435 
L 1120.441628 614.783147 
L 1121.553547 619.50259 
L 1122.665466 579.326449 
L 1123.777385 607.73783 
L 1124.889304 557.987729 
L 1126.001224 540.535946 
L 1127.113143 608.749599 
L 1128.225062 624.475887 
L 1129.336981 608.540952 
L 1130.4489 627.986274 
L 1131.56082 614.541501 
L 1132.672739 604.691244 
L 1133.784658 635.96958 
L 1134.896577 599.994641 
L 1136.008496 507.076702 
L 1137.120416 625.362223 
L 1138.232335 564.819408 
L 1139.344254 637.41322 
L 1140.456173 630.557764 
L 1141.568092 611.173485 
L 1142.680012 583.101089 
L 1143.791931 632.795608 
L 1144.90385 637.332396 
L 1146.015769 573.947292 
L 1147.127688 558.050095 
L 1148.239608 638.927199 
L 1149.351527 567.825187 
L 1150.463446 566.944861 
L 1151.575365 611.233804 
L 1152.687284 637.989283 
L 1153.799203 542.647683 
L 1154.911123 621.347523 
L 1156.023042 570.094059 
L 1157.134961 606.378366 
L 1158.24688 608.18001 
L 1159.358799 586.672093 
L 1160.470719 614.803334 
L 1161.582638 628.619543 
L 1162.694557 586.925217 
L 1163.806476 622.120449 
L 1164.918395 637.143989 
L 1166.030315 572.945453 
L 1167.142234 579.874501 
L 1168.254153 614.787984 
L 1169.366072 539.440709 
L 1170.477991 601.106308 
L 1171.589911 570.946994 
L 1172.70183 594.967542 
L 1173.813749 590.251825 
L 1174.925668 603.054179 
L 1176.037587 569.480229 
L 1177.149506 596.958951 
L 1178.261426 576.196958 
L 1179.373345 566.04273 
L 1180.485264 635.392658 
L 1181.597183 598.771988 
L 1182.709102 551.216837 
L 1183.821022 599.451117 
L 1184.932941 590.976023 
L 1186.04486 621.887837 
L 1187.156779 619.935406 
L 1188.268698 510.196589 
L 1189.380618 598.389153 
L 1190.492537 573.575157 
L 1191.604456 606.072373 
L 1192.716375 524.509085 
L 1193.828294 637.197638 
L 1194.940214 478.899477 
L 1196.052133 593.984867 
L 1197.164052 510.466514 
L 1198.275971 625.588205 
L 1199.38789 632.166603 
L 1200.49981 617.392778 
L 1201.611729 578.613297 
L 1202.723648 639.306726 
L 1203.835567 624.238599 
L 1204.947486 606.381479 
L 1206.059405 543.084713 
L 1207.171325 613.923851 
L 1208.283244 616.976563 
L 1209.395163 594.084731 
L 1211.619001 621.743343 
L 1212.730921 539.444785 
L 1213.84284 622.957672 
L 1214.954759 550.31258 
L 1216.066678 586.112296 
L 1217.178597 546.655141 
L 1218.290517 574.412675 
L 1219.402436 634.378032 
L 1220.514355 530.239149 
L 1221.626274 533.995467 
L 1222.738193 591.866147 
L 1223.850113 582.275235 
L 1224.962032 507.88331 
L 1226.073951 622.286761 
L 1227.18587 521.816433 
L 1228.297789 638.129252 
L 1229.409709 603.597183 
L 1230.521628 630.790507 
L 1231.633547 576.972915 
L 1232.745466 627.605655 
L 1233.857385 626.167305 
L 1234.969304 561.522726 
L 1236.081224 469.900141 
L 1237.193143 503.355481 
L 1238.305062 561.723545 
L 1239.416981 627.132817 
L 1240.5289 625.785587 
L 1241.64082 637.674602 
L 1242.752739 621.838486 
L 1243.864658 563.930613 
L 1244.976577 570.260467 
L 1246.088496 555.232801 
L 1247.200416 527.238385 
L 1248.312335 591.869989 
L 1249.424254 491.061733 
L 1250.536173 610.388116 
L 1251.648092 563.643997 
L 1252.760012 609.904983 
L 1253.871931 633.732936 
L 1254.98385 535.567629 
L 1256.095769 621.206522 
L 1257.207688 631.254113 
L 1258.319608 497.891863 
L 1259.431527 518.183099 
L 1260.543446 490.477955 
L 1261.655365 567.877978 
L 1262.767284 632.243229 
L 1263.879203 631.457966 
L 1264.991123 539.905605 
L 1266.103042 588.615824 
L 1267.214961 609.64201 
L 1268.32688 514.034111 
L 1269.438799 503.590161 
L 1270.550719 604.495742 
L 1271.662638 612.056261 
L 1272.774557 605.784419 
L 1273.886476 481.967199 
L 1274.998395 609.321199 
L 1276.110315 569.038473 
L 1277.222234 603.880961 
L 1278.334153 614.587085 
L 1279.446072 636.969156 
L 1280.557991 563.841702 
L 1281.669911 579.992014 
L 1282.78183 577.862989 
L 1283.893749 537.535603 
L 1285.005668 525.017888 
L 1286.117587 600.534684 
L 1287.229506 552.802366 
L 1288.341426 634.325116 
L 1289.453345 467.056207 
L 1290.565264 633.381762 
L 1291.677183 624.046519 
L 1292.789102 625.881636 
L 1293.901022 609.401564 
L 1295.012941 548.894209 
L 1296.12486 615.00294 
L 1297.236779 540.156373 
L 1297.236779 540.156373 
" style="fill:none;stroke:#1f77b4;stroke-linecap:square;stroke-width:1.5;"/>
   </g>
   <g id="patch_8">
    <path d="M 130.889143 652.94792 
L 130.889143 382.76054 
" style="fill:none;stroke:#000000;stroke-linecap:square;stroke-linejoin:miter;stroke-width:0.8;"/>
   </g>
   <g id="patch_9">
    <path d="M 1352.777143 652.94792 
L 1352.777143 382.76054 
" style="fill:none;stroke:#000000;stroke-linecap:square;stroke-linejoin:miter;stroke-width:0.8;"/>
   </g>
   <g id="patch_10">
    <path d="M 130.889143 652.94792 
L 1352.777143 652.94792 
" style="fill:none;stroke:#000000;stroke-linecap:square;stroke-linejoin:miter;stroke-width:0.8;"/>
   </g>
   <g id="patch_11">
    <path d="M 130.889143 382.76054 
L 1352.777143 382.76054 
" style="fill:none;stroke:#000000;stroke-linecap:square;stroke-linejoin:miter;stroke-width:0.8;"/>
   </g>
   <g id="text_26">
    <!-- Heading: RMSE 0.4191338314761467 deg -->
    <g transform="translate(614.062205 376.76054)scale(0.12 -0.12)">
     <defs>
      <path d="M 628 4666 
L 1259 4666 
L 1259 2753 
L 3553 2753 
L 3553 4666 
L 4184 4666 
L 4184 0 
L 3553 0 
L 3553 2222 
L 1259 2222 
L 1259 0 
L 628 0 
L 628 4666 
z
" id="DejaVuSans-48" transform="scale(0.015625)"/>
      <path d="M 2194 1759 
Q 1497 1759 1228 1600 
Q 959 1441 959 1056 
Q 959 750 1161 570 
Q 1363 391 1709 391 
Q 2188 391 2477 730 
Q 2766 1069 2766 1631 
L 2766 1759 
L 2194 1759 
z
M 3341 1997 
L 3341 0 
L 2766 0 
L 2766 531 
Q 2569 213 2275 61 
Q 1981 -91 1556 -91 
Q 1019 -91 701 211 
Q 384 513 384 1019 
Q 384 1609 779 1909 
Q 1175 2209 1959 2209 
L 2766 2209 
L 2766 2266 
Q 2766 2663 2505 2880 
Q 2244 3097 1772 3097 
Q 1472 3097 1187 3025 
Q 903 2953 641 2809 
L 641 3341 
Q 956 3463 1253 3523 
Q 1550 3584 1831 3584 
Q 2591 3584 2966 3190 
Q 3341 2797 3341 1997 
z
" id="DejaVuSans-61" transform="scale(0.015625)"/>
      <path d="M 603 3500 
L 1178 3500 
L 1178 0 
L 603 0 
L 603 3500 
z
M 603 4863 
L 1178 4863 
L 1178 4134 
L 603 4134 
L 603 4863 
z
" id="DejaVuSans-69" transform="scale(0.015625)"/>
      <path d="M 3513 2113 
L 3513 0 
L 2938 0 
L 2938 2094 
Q 2938 2591 2744 2837 
Q 2550 3084 2163 3084 
Q 1697 3084 1428 2787 
Q 1159 2491 1159 1978 
L 1159 0 
L 581 0 
L 581 3500 
L 1159 3500 
L 1159 2956 
Q 1366 3272 1645 3428 
Q 1925 3584 2291 3584 
Q 2894 3584 3203 3211 
Q 3513 2838 3513 2113 
z
" id="DejaVuSans-6e" transform="scale(0.015625)"/>
     </defs>
     <use xlink:href="#DejaVuSans-48"/>
     <use x="75.195312" xlink:href="#DejaVuSans-65"/>
     <use x="136.71875" xlink:href="#DejaVuSans-61"/>
     <use x="197.998047" xlink:href="#DejaVuSans-64"/>
     <use x="261.474609" xlink:href="#DejaVuSans-69"/>
     <use x="289.257812" xlink:href="#DejaVuSans-6e"/>
     <use x="352.636719" xlink:href="#DejaVuSans-67"/>
     <use x="416.113281" xlink:href="#DejaVuSans-3a"/>
     <use x="449.804688" xlink:href="#DejaVuSans-20"/>
     <use x="481.591797" xlink:href="#DejaVuSans-52"/>
     <use x="551.074219" xlink:href="#DejaVuSans-4d"/>
     <use x="637.353516" xlink:href="#DejaVuSans-53"/>
     <use x="700.830078" xlink:href="#DejaVuSans-45"/>
     <use x="764.013672" xlink:href="#DejaVuSans-20"/>
     <use x="795.800781" xlink:href="#DejaVuSans-30"/>
     <use x="859.423828" xlink:href="#DejaVuSans-2e"/>
     <use x="891.210938" xlink:href="#DejaVuSans-34"/>
     <use x="954.833984" xlink:href="#DejaVuSans-31"/>
     <use x="1018.457031" xlink:href="#DejaVuSans-39"/>
     <use x="1082.080078" xlink:href="#DejaVuSans-31"/>
     <use x="1145.703125" xlink:href="#DejaVuSans-33"/>
     <use x="1209.326172" xlink:href="#DejaVuSans-33"/>
     <use x="1272.949219" xlink:href="#DejaVuSans-38"/>
     <use x="1336.572266" xlink:href="#DejaVuSans-33"/>
     <use x="1400.195312" xlink:href="#DejaVuSans-31"/>
     <use x="1463.818359" xlink:href="#DejaVuSans-34"/>
     <use x="1527.441406" xlink:href="#DejaVuSans-37"/>
     <use x="1591.064453" xlink:href="#DejaVuSans-36"/>
     <use x="1654.6875" xlink:href="#DejaVuSans-31"/>
     <use x="1718.310547" xlink:href="#DejaVuSans-34"/>
     <use x="1781.933594" xlink:href="#DejaVuSans-36"/>
     <use x="1845.556641" xlink:href="#DejaVuSans-37"/>
     <use x="1909.179688" xlink:href="#DejaVuSans-20"/>
     <use x="1940.966797" xlink:href="#DejaVuSans-64"/>
     <use x="2004.443359" xlink:href="#DejaVuSans-65"/>
     <use x="2065.966797" xlink:href="#DejaVuSans-67"/>
    </g>
   </g>
  </g>
 </g>
 <defs>
  <clipPath id="p8567e38959">
   <rect height="270.18738" width="1221.888" x="130.889143" y="52.84608"/>
  </clipPath>
  <clipPath id="p9c37df2710">
   <rect height="270.18738" width="1221.888" x="130.889143" y="382.76054"/>
  </clipPath>
 </defs>
</svg>
