<?xml version="1.0" encoding="utf-8" standalone="no"?>
<!DOCTYPE svg PUBLIC "-//W3C//DTD SVG 1.1//EN"
  "http://www.w3.org/Graphics/SVG/1.1/DTD/svg11.dtd">
<svg height="707.76pt" version="1.1" viewBox="0 0 1382.4 707.76" width="1382.4pt" xmlns="http://www.w3.org/2000/svg" xmlns:xlink="http://www.w3.org/1999/xlink">
 <metadata>
  <rdf:RDF xmlns:cc="http://creativecommons.org/ns#" xmlns:dc="http://purl.org/dc/elements/1.1/" xmlns:rdf="http://www.w3.org/1999/02/22-rdf-syntax-ns#">
   <cc:Work>
    <dc:type rdf:resource="http://purl.org/dc/dcmitype/StillImage"/>
    <dc:date>2021-11-17T15:33:59.307029</dc:date>
    <dc:format>image/svg+xml</dc:format>
    <dc:creator>
     <cc:Agent>
      <dc:title>Matplotlib v3.4.3, https://matplotlib.org/</dc:title>
     </cc:Agent>
    </dc:creator>
   </cc:Work>
  </rdf:RDF>
 </metadata>
 <defs>
  <style type="text/css">*{stroke-linecap:butt;stroke-linejoin:round;}</style>
 </defs>
 <g id="figure_1">
  <g id="patch_1">
   <path d="M 0 707.76 
L 1382.4 707.76 
L 1382.4 0 
L 0 0 
z
" style="fill:#ffffff;"/>
  </g>
  <g id="axes_1">
   <g id="patch_2">
    <path d="M 161.746286 625.26664 
L 1352.777143 625.26664 
L 1352.777143 52.84608 
L 161.746286 52.84608 
z
" style="fill:#ffffff;"/>
   </g>
   <g id="matplotlib.axis_1">
    <g id="xtick_1">
     <g id="line2d_1">
      <defs>
       <path d="M 0 0 
L 0 3.5 
" id="mb73666732b" style="stroke:#000000;stroke-width:0.8;"/>
      </defs>
      <g>
       <use style="stroke:#000000;stroke-width:0.8;" x="215.884052" xlink:href="#mb73666732b" y="625.26664"/>
      </g>
     </g>
     <g id="text_1">
      <!-- 0 -->
      <g transform="translate(212.702802 639.865077)scale(0.1 -0.1)">
       <defs>
        <path d="M 2034 4250 
Q 1547 4250 1301 3770 
Q 1056 3291 1056 2328 
Q 1056 1369 1301 889 
Q 1547 409 2034 409 
Q 2525 409 2770 889 
Q 3016 1369 3016 2328 
Q 3016 3291 2770 3770 
Q 2525 4250 2034 4250 
z
M 2034 4750 
Q 2819 4750 3233 4129 
Q 3647 3509 3647 2328 
Q 3647 1150 3233 529 
Q 2819 -91 2034 -91 
Q 1250 -91 836 529 
Q 422 1150 422 2328 
Q 422 3509 836 4129 
Q 1250 4750 2034 4750 
z
" id="DejaVuSans-30" transform="scale(0.015625)"/>
       </defs>
       <use xlink:href="#DejaVuSans-30"/>
      </g>
     </g>
    </g>
    <g id="xtick_2">
     <g id="line2d_2">
      <g>
       <use style="stroke:#000000;stroke-width:0.8;" x="432.651885" xlink:href="#mb73666732b" y="625.26664"/>
      </g>
     </g>
     <g id="text_2">
      <!-- 200 -->
      <g transform="translate(423.108135 639.865077)scale(0.1 -0.1)">
       <defs>
        <path d="M 1228 531 
L 3431 531 
L 3431 0 
L 469 0 
L 469 531 
Q 828 903 1448 1529 
Q 2069 2156 2228 2338 
Q 2531 2678 2651 2914 
Q 2772 3150 2772 3378 
Q 2772 3750 2511 3984 
Q 2250 4219 1831 4219 
Q 1534 4219 1204 4116 
Q 875 4013 500 3803 
L 500 4441 
Q 881 4594 1212 4672 
Q 1544 4750 1819 4750 
Q 2544 4750 2975 4387 
Q 3406 4025 3406 3419 
Q 3406 3131 3298 2873 
Q 3191 2616 2906 2266 
Q 2828 2175 2409 1742 
Q 1991 1309 1228 531 
z
" id="DejaVuSans-32" transform="scale(0.015625)"/>
       </defs>
       <use xlink:href="#DejaVuSans-32"/>
       <use x="63.623047" xlink:href="#DejaVuSans-30"/>
       <use x="127.246094" xlink:href="#DejaVuSans-30"/>
      </g>
     </g>
    </g>
    <g id="xtick_3">
     <g id="line2d_3">
      <g>
       <use style="stroke:#000000;stroke-width:0.8;" x="649.419717" xlink:href="#mb73666732b" y="625.26664"/>
      </g>
     </g>
     <g id="text_3">
      <!-- 400 -->
      <g transform="translate(639.875967 639.865077)scale(0.1 -0.1)">
       <defs>
        <path d="M 2419 4116 
L 825 1625 
L 2419 1625 
L 2419 4116 
z
M 2253 4666 
L 3047 4666 
L 3047 1625 
L 3713 1625 
L 3713 1100 
L 3047 1100 
L 3047 0 
L 2419 0 
L 2419 1100 
L 313 1100 
L 313 1709 
L 2253 4666 
z
" id="DejaVuSans-34" transform="scale(0.015625)"/>
       </defs>
       <use xlink:href="#DejaVuSans-34"/>
       <use x="63.623047" xlink:href="#DejaVuSans-30"/>
       <use x="127.246094" xlink:href="#DejaVuSans-30"/>
      </g>
     </g>
    </g>
    <g id="xtick_4">
     <g id="line2d_4">
      <g>
       <use style="stroke:#000000;stroke-width:0.8;" x="866.18755" xlink:href="#mb73666732b" y="625.26664"/>
      </g>
     </g>
     <g id="text_4">
      <!-- 600 -->
      <g transform="translate(856.6438 639.865077)scale(0.1 -0.1)">
       <defs>
        <path d="M 2113 2584 
Q 1688 2584 1439 2293 
Q 1191 2003 1191 1497 
Q 1191 994 1439 701 
Q 1688 409 2113 409 
Q 2538 409 2786 701 
Q 3034 994 3034 1497 
Q 3034 2003 2786 2293 
Q 2538 2584 2113 2584 
z
M 3366 4563 
L 3366 3988 
Q 3128 4100 2886 4159 
Q 2644 4219 2406 4219 
Q 1781 4219 1451 3797 
Q 1122 3375 1075 2522 
Q 1259 2794 1537 2939 
Q 1816 3084 2150 3084 
Q 2853 3084 3261 2657 
Q 3669 2231 3669 1497 
Q 3669 778 3244 343 
Q 2819 -91 2113 -91 
Q 1303 -91 875 529 
Q 447 1150 447 2328 
Q 447 3434 972 4092 
Q 1497 4750 2381 4750 
Q 2619 4750 2861 4703 
Q 3103 4656 3366 4563 
z
" id="DejaVuSans-36" transform="scale(0.015625)"/>
       </defs>
       <use xlink:href="#DejaVuSans-36"/>
       <use x="63.623047" xlink:href="#DejaVuSans-30"/>
       <use x="127.246094" xlink:href="#DejaVuSans-30"/>
      </g>
     </g>
    </g>
    <g id="xtick_5">
     <g id="line2d_5">
      <g>
       <use style="stroke:#000000;stroke-width:0.8;" x="1082.955383" xlink:href="#mb73666732b" y="625.26664"/>
      </g>
     </g>
     <g id="text_5">
      <!-- 800 -->
      <g transform="translate(1073.411633 639.865077)scale(0.1 -0.1)">
       <defs>
        <path d="M 2034 2216 
Q 1584 2216 1326 1975 
Q 1069 1734 1069 1313 
Q 1069 891 1326 650 
Q 1584 409 2034 409 
Q 2484 409 2743 651 
Q 3003 894 3003 1313 
Q 3003 1734 2745 1975 
Q 2488 2216 2034 2216 
z
M 1403 2484 
Q 997 2584 770 2862 
Q 544 3141 544 3541 
Q 544 4100 942 4425 
Q 1341 4750 2034 4750 
Q 2731 4750 3128 4425 
Q 3525 4100 3525 3541 
Q 3525 3141 3298 2862 
Q 3072 2584 2669 2484 
Q 3125 2378 3379 2068 
Q 3634 1759 3634 1313 
Q 3634 634 3220 271 
Q 2806 -91 2034 -91 
Q 1263 -91 848 271 
Q 434 634 434 1313 
Q 434 1759 690 2068 
Q 947 2378 1403 2484 
z
M 1172 3481 
Q 1172 3119 1398 2916 
Q 1625 2713 2034 2713 
Q 2441 2713 2670 2916 
Q 2900 3119 2900 3481 
Q 2900 3844 2670 4047 
Q 2441 4250 2034 4250 
Q 1625 4250 1398 4047 
Q 1172 3844 1172 3481 
z
" id="DejaVuSans-38" transform="scale(0.015625)"/>
       </defs>
       <use xlink:href="#DejaVuSans-38"/>
       <use x="63.623047" xlink:href="#DejaVuSans-30"/>
       <use x="127.246094" xlink:href="#DejaVuSans-30"/>
      </g>
     </g>
    </g>
    <g id="xtick_6">
     <g id="line2d_6">
      <g>
       <use style="stroke:#000000;stroke-width:0.8;" x="1299.723216" xlink:href="#mb73666732b" y="625.26664"/>
      </g>
     </g>
     <g id="text_6">
      <!-- 1000 -->
      <g transform="translate(1286.998216 639.865077)scale(0.1 -0.1)">
       <defs>
        <path d="M 794 531 
L 1825 531 
L 1825 4091 
L 703 3866 
L 703 4441 
L 1819 4666 
L 2450 4666 
L 2450 531 
L 3481 531 
L 3481 0 
L 794 0 
L 794 531 
z
" id="DejaVuSans-31" transform="scale(0.015625)"/>
       </defs>
       <use xlink:href="#DejaVuSans-31"/>
       <use x="63.623047" xlink:href="#DejaVuSans-30"/>
       <use x="127.246094" xlink:href="#DejaVuSans-30"/>
       <use x="190.869141" xlink:href="#DejaVuSans-30"/>
      </g>
     </g>
    </g>
    <g id="text_7">
     <!-- s -->
     <g transform="translate(754.657027 653.543203)scale(0.1 -0.1)">
      <defs>
       <path d="M 2834 3397 
L 2834 2853 
Q 2591 2978 2328 3040 
Q 2066 3103 1784 3103 
Q 1356 3103 1142 2972 
Q 928 2841 928 2578 
Q 928 2378 1081 2264 
Q 1234 2150 1697 2047 
L 1894 2003 
Q 2506 1872 2764 1633 
Q 3022 1394 3022 966 
Q 3022 478 2636 193 
Q 2250 -91 1575 -91 
Q 1294 -91 989 -36 
Q 684 19 347 128 
L 347 722 
Q 666 556 975 473 
Q 1284 391 1588 391 
Q 1994 391 2212 530 
Q 2431 669 2431 922 
Q 2431 1156 2273 1281 
Q 2116 1406 1581 1522 
L 1381 1569 
Q 847 1681 609 1914 
Q 372 2147 372 2553 
Q 372 3047 722 3315 
Q 1072 3584 1716 3584 
Q 2034 3584 2315 3537 
Q 2597 3491 2834 3397 
z
" id="DejaVuSans-73" transform="scale(0.015625)"/>
      </defs>
      <use xlink:href="#DejaVuSans-73"/>
     </g>
    </g>
   </g>
   <g id="matplotlib.axis_2">
    <g id="ytick_1">
     <g id="line2d_7">
      <defs>
       <path d="M 0 0 
L -3.5 0 
" id="m5f5952f600" style="stroke:#000000;stroke-width:0.8;"/>
      </defs>
      <g>
       <use style="stroke:#000000;stroke-width:0.8;" x="161.746286" xlink:href="#m5f5952f600" y="602.041472"/>
      </g>
     </g>
     <g id="text_8">
      <!-- −0.2 -->
      <g transform="translate(130.463473 605.840691)scale(0.1 -0.1)">
       <defs>
        <path d="M 678 2272 
L 4684 2272 
L 4684 1741 
L 678 1741 
L 678 2272 
z
" id="DejaVuSans-2212" transform="scale(0.015625)"/>
        <path d="M 684 794 
L 1344 794 
L 1344 0 
L 684 0 
L 684 794 
z
" id="DejaVuSans-2e" transform="scale(0.015625)"/>
       </defs>
       <use xlink:href="#DejaVuSans-2212"/>
       <use x="83.789062" xlink:href="#DejaVuSans-30"/>
       <use x="147.412109" xlink:href="#DejaVuSans-2e"/>
       <use x="179.199219" xlink:href="#DejaVuSans-32"/>
      </g>
     </g>
    </g>
    <g id="ytick_2">
     <g id="line2d_8">
      <g>
       <use style="stroke:#000000;stroke-width:0.8;" x="161.746286" xlink:href="#m5f5952f600" y="532.70435"/>
      </g>
     </g>
     <g id="text_9">
      <!-- −0.1 -->
      <g transform="translate(130.463473 536.503569)scale(0.1 -0.1)">
       <use xlink:href="#DejaVuSans-2212"/>
       <use x="83.789062" xlink:href="#DejaVuSans-30"/>
       <use x="147.412109" xlink:href="#DejaVuSans-2e"/>
       <use x="179.199219" xlink:href="#DejaVuSans-31"/>
      </g>
     </g>
    </g>
    <g id="ytick_3">
     <g id="line2d_9">
      <g>
       <use style="stroke:#000000;stroke-width:0.8;" x="161.746286" xlink:href="#m5f5952f600" y="463.367228"/>
      </g>
     </g>
     <g id="text_10">
      <!-- 0.0 -->
      <g transform="translate(138.843161 467.166447)scale(0.1 -0.1)">
       <use xlink:href="#DejaVuSans-30"/>
       <use x="63.623047" xlink:href="#DejaVuSans-2e"/>
       <use x="95.410156" xlink:href="#DejaVuSans-30"/>
      </g>
     </g>
    </g>
    <g id="ytick_4">
     <g id="line2d_10">
      <g>
       <use style="stroke:#000000;stroke-width:0.8;" x="161.746286" xlink:href="#m5f5952f600" y="394.030106"/>
      </g>
     </g>
     <g id="text_11">
      <!-- 0.1 -->
      <g transform="translate(138.843161 397.829325)scale(0.1 -0.1)">
       <use xlink:href="#DejaVuSans-30"/>
       <use x="63.623047" xlink:href="#DejaVuSans-2e"/>
       <use x="95.410156" xlink:href="#DejaVuSans-31"/>
      </g>
     </g>
    </g>
    <g id="ytick_5">
     <g id="line2d_11">
      <g>
       <use style="stroke:#000000;stroke-width:0.8;" x="161.746286" xlink:href="#m5f5952f600" y="324.692985"/>
      </g>
     </g>
     <g id="text_12">
      <!-- 0.2 -->
      <g transform="translate(138.843161 328.492203)scale(0.1 -0.1)">
       <use xlink:href="#DejaVuSans-30"/>
       <use x="63.623047" xlink:href="#DejaVuSans-2e"/>
       <use x="95.410156" xlink:href="#DejaVuSans-32"/>
      </g>
     </g>
    </g>
    <g id="ytick_6">
     <g id="line2d_12">
      <g>
       <use style="stroke:#000000;stroke-width:0.8;" x="161.746286" xlink:href="#m5f5952f600" y="255.355863"/>
      </g>
     </g>
     <g id="text_13">
      <!-- 0.3 -->
      <g transform="translate(138.843161 259.155081)scale(0.1 -0.1)">
       <defs>
        <path d="M 2597 2516 
Q 3050 2419 3304 2112 
Q 3559 1806 3559 1356 
Q 3559 666 3084 287 
Q 2609 -91 1734 -91 
Q 1441 -91 1130 -33 
Q 819 25 488 141 
L 488 750 
Q 750 597 1062 519 
Q 1375 441 1716 441 
Q 2309 441 2620 675 
Q 2931 909 2931 1356 
Q 2931 1769 2642 2001 
Q 2353 2234 1838 2234 
L 1294 2234 
L 1294 2753 
L 1863 2753 
Q 2328 2753 2575 2939 
Q 2822 3125 2822 3475 
Q 2822 3834 2567 4026 
Q 2313 4219 1838 4219 
Q 1578 4219 1281 4162 
Q 984 4106 628 3988 
L 628 4550 
Q 988 4650 1302 4700 
Q 1616 4750 1894 4750 
Q 2613 4750 3031 4423 
Q 3450 4097 3450 3541 
Q 3450 3153 3228 2886 
Q 3006 2619 2597 2516 
z
" id="DejaVuSans-33" transform="scale(0.015625)"/>
       </defs>
       <use xlink:href="#DejaVuSans-30"/>
       <use x="63.623047" xlink:href="#DejaVuSans-2e"/>
       <use x="95.410156" xlink:href="#DejaVuSans-33"/>
      </g>
     </g>
    </g>
    <g id="ytick_7">
     <g id="line2d_13">
      <g>
       <use style="stroke:#000000;stroke-width:0.8;" x="161.746286" xlink:href="#m5f5952f600" y="186.018741"/>
      </g>
     </g>
     <g id="text_14">
      <!-- 0.4 -->
      <g transform="translate(138.843161 189.817959)scale(0.1 -0.1)">
       <use xlink:href="#DejaVuSans-30"/>
       <use x="63.623047" xlink:href="#DejaVuSans-2e"/>
       <use x="95.410156" xlink:href="#DejaVuSans-34"/>
      </g>
     </g>
    </g>
    <g id="ytick_8">
     <g id="line2d_14">
      <g>
       <use style="stroke:#000000;stroke-width:0.8;" x="161.746286" xlink:href="#m5f5952f600" y="116.681619"/>
      </g>
     </g>
     <g id="text_15">
      <!-- 0.5 -->
      <g transform="translate(138.843161 120.480837)scale(0.1 -0.1)">
       <defs>
        <path d="M 691 4666 
L 3169 4666 
L 3169 4134 
L 1269 4134 
L 1269 2991 
Q 1406 3038 1543 3061 
Q 1681 3084 1819 3084 
Q 2600 3084 3056 2656 
Q 3513 2228 3513 1497 
Q 3513 744 3044 326 
Q 2575 -91 1722 -91 
Q 1428 -91 1123 -41 
Q 819 9 494 109 
L 494 744 
Q 775 591 1075 516 
Q 1375 441 1709 441 
Q 2250 441 2565 725 
Q 2881 1009 2881 1497 
Q 2881 1984 2565 2268 
Q 2250 2553 1709 2553 
Q 1456 2553 1204 2497 
Q 953 2441 691 2322 
L 691 4666 
z
" id="DejaVuSans-35" transform="scale(0.015625)"/>
       </defs>
       <use xlink:href="#DejaVuSans-30"/>
       <use x="63.623047" xlink:href="#DejaVuSans-2e"/>
       <use x="95.410156" xlink:href="#DejaVuSans-35"/>
      </g>
     </g>
    </g>
    <g id="text_16">
     <!-- $\mathbf{\delta \rho}$ [$m$] -->
     <g transform="translate(124.363473 356.45636)rotate(-90)scale(0.1 -0.1)">
      <defs>
       <path d="M 3613 3950 
Q 3231 4169 2234 4169 
Q 1703 4169 1703 3863 
Q 1703 3572 2431 3463 
Q 3156 3353 3594 3003 
Q 4125 2581 4125 1734 
Q 4125 888 3612 398 
Q 3100 -91 2206 -91 
Q 1309 -91 793 398 
Q 278 888 278 1747 
Q 278 2397 791 2900 
Q 950 3056 1150 3156 
Q 688 3403 688 3900 
Q 688 4913 2338 4913 
Q 3166 4913 3613 4694 
L 3613 3950 
z
M 1938 2750 
Q 1772 2681 1641 2506 
Q 1434 2234 1434 1744 
Q 1434 1253 1639 978 
Q 1844 703 2200 703 
Q 2553 703 2759 983 
Q 2966 1263 2966 1731 
Q 2966 2197 2744 2433 
Q 2522 2669 2213 2703 
Q 2069 2719 1938 2750 
z
" id="DejaVuSans-Bold-3b4" transform="scale(0.015625)"/>
       <path d="M 1003 3013 
Q 1425 3413 1809 3500 
Q 2203 3594 2581 3594 
Q 2700 3594 2816 3584 
Q 3425 3538 3878 3069 
Q 4294 2631 4294 1747 
Q 4294 938 3878 423 
Q 3463 -91 2816 -91 
Q 2450 -91 2169 54 
Q 1888 200 1656 506 
L 1656 -1331 
L 538 -1331 
L 538 1688 
Q 538 2566 1003 3013 
z
M 2400 2772 
Q 2041 2772 1848 2508 
Q 1656 2244 1656 1747 
Q 1656 1250 1848 986 
Q 2041 722 2400 722 
Q 2759 722 2948 984 
Q 3138 1247 3138 1747 
Q 3138 2247 2948 2509 
Q 2759 2772 2400 2772 
z
" id="DejaVuSans-Bold-3c1" transform="scale(0.015625)"/>
       <path id="DejaVuSans-20" transform="scale(0.015625)"/>
       <path d="M 550 4863 
L 1875 4863 
L 1875 4416 
L 1125 4416 
L 1125 -397 
L 1875 -397 
L 1875 -844 
L 550 -844 
L 550 4863 
z
" id="DejaVuSans-5b" transform="scale(0.015625)"/>
       <path d="M 5747 2113 
L 5338 0 
L 4763 0 
L 5166 2094 
Q 5191 2228 5203 2325 
Q 5216 2422 5216 2491 
Q 5216 2772 5059 2928 
Q 4903 3084 4622 3084 
Q 4203 3084 3875 2770 
Q 3547 2456 3450 1953 
L 3066 0 
L 2491 0 
L 2900 2094 
Q 2925 2209 2937 2307 
Q 2950 2406 2950 2484 
Q 2950 2769 2794 2926 
Q 2638 3084 2363 3084 
Q 1938 3084 1609 2770 
Q 1281 2456 1184 1953 
L 800 0 
L 225 0 
L 909 3500 
L 1484 3500 
L 1375 2956 
Q 1609 3263 1923 3423 
Q 2238 3584 2597 3584 
Q 2978 3584 3223 3384 
Q 3469 3184 3519 2828 
Q 3781 3197 4126 3390 
Q 4472 3584 4856 3584 
Q 5306 3584 5551 3325 
Q 5797 3066 5797 2591 
Q 5797 2488 5784 2364 
Q 5772 2241 5747 2113 
z
" id="DejaVuSans-Oblique-6d" transform="scale(0.015625)"/>
       <path d="M 1947 4863 
L 1947 -844 
L 622 -844 
L 622 -397 
L 1369 -397 
L 1369 4416 
L 622 4416 
L 622 4863 
L 1947 4863 
z
" id="DejaVuSans-5d" transform="scale(0.015625)"/>
      </defs>
      <use transform="translate(0 0.234375)" xlink:href="#DejaVuSans-Bold-3b4"/>
      <use transform="translate(68.701172 0.234375)" xlink:href="#DejaVuSans-Bold-3c1"/>
      <use transform="translate(140.283203 0.234375)" xlink:href="#DejaVuSans-20"/>
      <use transform="translate(172.070312 0.234375)" xlink:href="#DejaVuSans-5b"/>
      <use transform="translate(211.083984 0.234375)" xlink:href="#DejaVuSans-Oblique-6d"/>
      <use transform="translate(308.496094 0.234375)" xlink:href="#DejaVuSans-5d"/>
     </g>
    </g>
   </g>
   <g id="line2d_15">
    <path clip-path="url(#pb08c99cff4)" d="M 215.884052 463.367228 
L 216.967891 488.228071 
L 218.05173 443.520948 
L 219.135569 419.944609 
L 220.219409 386.767653 
L 221.303248 433.290012 
L 222.387087 450.217923 
L 223.470926 441.580995 
L 224.554765 418.957269 
L 225.638604 466.878577 
L 226.722444 441.59918 
L 227.806283 436.859842 
L 228.890122 449.820082 
L 229.973961 417.502191 
L 231.0578 448.214664 
L 232.141639 450.853853 
L 233.225479 447.893717 
L 234.309318 438.682517 
L 236.476996 396.959517 
L 237.560835 431.899174 
L 238.644674 429.976764 
L 239.728514 441.672858 
L 240.812353 457.472991 
L 241.896192 498.869582 
L 242.980031 486.063243 
L 244.06387 450.337287 
L 245.147709 393.145915 
L 246.231549 411.054914 
L 247.315388 411.449749 
L 248.399227 425.533308 
L 249.483066 417.262693 
L 250.566905 460.52672 
L 251.650744 449.5951 
L 252.734584 402.602271 
L 253.818423 425.840067 
L 255.986101 428.759126 
L 257.06994 451.04385 
L 258.153779 410.827017 
L 259.237619 397.066318 
L 260.321458 416.862687 
L 261.405297 389.024047 
L 262.489136 447.457236 
L 263.572975 468.922515 
L 264.656814 454.394974 
L 265.740653 402.410712 
L 266.824493 382.736108 
L 267.908332 421.084237 
L 268.992171 403.064996 
L 270.07601 432.442206 
L 271.159849 422.131892 
L 272.243688 405.20752 
L 273.327528 445.253178 
L 274.411367 428.759872 
L 275.495206 403.924566 
L 276.579045 383.454926 
L 277.662884 449.567635 
L 278.746723 448.836059 
L 279.830563 419.344635 
L 280.914402 428.316642 
L 281.998241 428.901904 
L 283.08208 419.728833 
L 284.165919 425.866952 
L 285.249758 413.638341 
L 286.333598 399.108029 
L 287.417437 416.834059 
L 288.501276 415.494022 
L 289.585115 413.203311 
L 290.668954 428.191759 
L 291.752793 405.087625 
L 292.836633 409.735746 
L 293.920472 420.647002 
L 295.004311 424.074769 
L 296.08815 426.763743 
L 297.171989 426.89624 
L 298.255828 435.365161 
L 299.339668 428.780832 
L 300.423507 359.554725 
L 301.507346 363.774842 
L 302.591185 378.710033 
L 303.675024 403.045754 
L 304.758863 393.543961 
L 305.842703 396.492302 
L 306.926542 357.401783 
L 308.010381 387.643368 
L 309.09422 388.676827 
L 310.178059 364.354241 
L 312.345738 397.270425 
L 313.429577 409.157317 
L 314.513416 399.966294 
L 315.597255 381.930741 
L 316.681094 412.227946 
L 317.764933 430.399701 
L 318.848773 432.154624 
L 319.932612 427.784921 
L 321.016451 405.599888 
L 322.10029 431.887042 
L 324.267968 373.331269 
L 325.351807 394.065285 
L 326.435647 438.649845 
L 327.519486 446.493495 
L 328.603325 401.526766 
L 329.687164 402.259664 
L 330.771003 381.477128 
L 331.854842 402.595889 
L 332.938682 396.351806 
L 334.022521 359.952318 
L 335.10636 374.092988 
L 336.190199 399.823145 
L 337.274038 380.98863 
L 338.357877 386.249443 
L 339.441717 415.85843 
L 340.525556 453.810935 
L 341.609395 443.30787 
L 342.693234 440.321283 
L 343.777073 411.670572 
L 344.860912 417.107298 
L 345.944752 431.944966 
L 347.028591 389.063839 
L 348.11243 371.062937 
L 349.196269 382.713245 
L 350.280108 361.845868 
L 351.363947 334.877645 
L 352.447787 335.300155 
L 353.531626 331.587012 
L 354.615465 303.060713 
L 356.783143 449.553338 
L 357.866982 436.076904 
L 358.950822 454.223037 
L 360.034661 396.246588 
L 361.1185 382.599134 
L 362.202339 385.326222 
L 363.286178 357.772882 
L 364.370017 365.973661 
L 365.453857 379.550813 
L 366.537696 374.285759 
L 367.621535 377.81424 
L 368.705374 389.836344 
L 369.789213 349.520441 
L 370.873052 355.516446 
L 371.956892 383.593863 
L 373.040731 389.861469 
L 374.12457 404.021723 
L 375.208409 372.069781 
L 376.292248 366.644286 
L 377.376087 374.314623 
L 378.459927 392.760737 
L 379.543766 352.923729 
L 380.627605 371.418414 
L 381.711444 341.829776 
L 382.795283 365.186315 
L 383.879122 411.116082 
L 384.962962 409.475812 
L 386.046801 413.220168 
L 387.13064 399.94078 
L 388.214479 406.150205 
L 389.298318 413.873235 
L 390.382157 462.985607 
L 391.465996 483.45884 
L 392.549836 458.06362 
L 393.633675 457.626661 
L 394.717514 413.77248 
L 395.801353 408.162064 
L 396.885192 430.879358 
L 397.969031 417.155542 
L 399.052871 451.729705 
L 400.13671 444.917173 
L 401.220549 439.830275 
L 402.304388 436.856831 
L 403.388227 423.956106 
L 404.472066 394.515482 
L 405.555906 438.45795 
L 406.639745 476.610811 
L 407.723584 451.805088 
L 408.807423 409.494099 
L 409.891262 440.957872 
L 410.975101 453.570305 
L 412.058941 444.47272 
L 413.14278 420.430467 
L 414.226619 425.360305 
L 415.310458 435.680361 
L 416.394297 430.395788 
L 417.478136 382.409811 
L 418.561976 394.111228 
L 419.645815 409.374125 
L 420.729654 437.325196 
L 421.813493 422.421238 
L 422.897332 368.596748 
L 423.981171 362.479162 
L 426.14885 317.659087 
L 427.232689 358.84698 
L 428.316528 383.599215 
L 429.400367 395.658033 
L 430.484206 387.676396 
L 431.568046 431.380456 
L 432.651885 419.066229 
L 433.735724 413.207747 
L 434.819563 415.467902 
L 435.903402 399.794032 
L 436.987241 408.660618 
L 438.071081 428.238503 
L 439.15492 450.089854 
L 440.238759 469.329888 
L 441.322598 524.466764 
L 442.406437 495.040858 
L 443.490276 495.599798 
L 444.574116 503.931657 
L 445.657955 497.410583 
L 446.741794 500.346401 
L 447.825633 506.608171 
L 448.909472 514.264885 
L 449.993311 501.658199 
L 451.077151 499.650113 
L 452.16099 458.54047 
L 453.244829 494.563512 
L 454.328668 474.32985 
L 455.412507 448.354058 
L 456.496346 444.428451 
L 457.580185 445.482148 
L 458.664025 458.429715 
L 459.747864 432.369763 
L 460.831703 462.674881 
L 461.915542 455.486854 
L 462.999381 460.95251 
L 464.08322 426.072574 
L 465.16706 446.374339 
L 466.250899 485.502682 
L 467.334738 431.793577 
L 468.418577 447.723362 
L 469.502416 425.73476 
L 470.586255 441.5806 
L 471.670095 420.85139 
L 472.753934 443.232758 
L 473.837773 442.949792 
L 474.921612 458.280582 
L 476.005451 502.374725 
L 477.08929 420.101964 
L 478.17313 400.71859 
L 479.256969 372.425192 
L 480.340808 412.279744 
L 481.424647 401.644514 
L 482.508486 443.092722 
L 484.676165 400.567061 
L 485.760004 434.794786 
L 486.843843 442.467634 
L 487.927682 432.461619 
L 489.011521 443.611248 
L 490.09536 420.913798 
L 491.1792 420.533217 
L 492.263039 405.88059 
L 493.346878 396.093594 
L 494.430717 439.097316 
L 495.514556 433.938644 
L 496.598395 462.747577 
L 497.682235 450.351983 
L 498.766074 405.854078 
L 499.849913 368.150255 
L 500.933752 381.42939 
L 502.017591 362.037565 
L 503.10143 336.603683 
L 504.18527 321.764052 
L 505.269109 314.110372 
L 506.352948 332.131192 
L 507.436787 355.444755 
L 508.520626 385.914057 
L 509.604465 428.918539 
L 510.688305 445.086305 
L 511.772144 426.234165 
L 512.855983 401.341919 
L 513.939822 369.368249 
L 515.023661 378.792694 
L 516.1075 389.314104 
L 517.191339 383.58938 
L 518.275179 376.827024 
L 519.359018 350.283727 
L 520.442857 336.07047 
L 521.526696 361.345576 
L 522.610535 310.012922 
L 523.694374 314.508542 
L 524.778214 316.027442 
L 525.862053 330.845602 
L 526.945892 341.450818 
L 528.029731 340.57232 
L 529.11357 351.212518 
L 530.197409 334.906575 
L 531.281249 322.010959 
L 532.365088 300.471906 
L 533.448927 296.535392 
L 534.532766 288.993003 
L 535.616605 321.789966 
L 536.700444 365.881124 
L 537.784284 418.77897 
L 538.868123 390.724873 
L 539.951962 373.950502 
L 541.035801 362.387562 
L 542.11964 361.378597 
L 543.203479 345.436642 
L 544.287319 323.170502 
L 545.371158 335.481084 
L 547.538836 245.183475 
L 548.622675 252.577181 
L 549.706514 256.046517 
L 550.790354 257.602747 
L 551.874193 260.589237 
L 552.958032 276.486225 
L 554.041871 304.874814 
L 555.12571 307.466557 
L 556.209549 317.979144 
L 557.293389 280.562772 
L 558.377228 259.624546 
L 559.461067 278.401997 
L 560.544906 305.251683 
L 561.628745 311.278844 
L 562.712584 368.676732 
L 563.796424 348.746759 
L 564.880263 339.900897 
L 565.964102 301.422622 
L 567.047941 291.779539 
L 568.13178 287.564827 
L 569.215619 285.287049 
L 570.299459 284.130626 
L 571.383298 288.200773 
L 572.467137 239.333071 
L 573.550976 264.902419 
L 574.634815 244.592166 
L 575.718654 217.094836 
L 576.802494 253.446215 
L 577.886333 223.42385 
L 578.970172 296.270607 
L 580.054011 235.232171 
L 581.13785 206.212408 
L 582.221689 205.957955 
L 583.305528 245.552876 
L 584.389368 229.652208 
L 585.473207 238.813687 
L 586.557046 258.243458 
L 587.640885 256.375433 
L 588.724724 234.396175 
L 589.808563 189.493911 
L 590.892403 214.162484 
L 591.976242 245.073964 
L 593.060081 289.357294 
L 594.14392 343.232612 
L 595.227759 311.130094 
L 596.311598 338.192124 
L 597.395438 341.119323 
L 598.479277 303.371743 
L 599.563116 314.287277 
L 600.646955 304.956574 
L 601.730794 279.918613 
L 602.814633 288.436482 
L 603.898473 302.020645 
L 604.982312 269.239652 
L 606.066151 257.13279 
L 607.14999 274.616764 
L 608.233829 254.435954 
L 609.317668 252.924372 
L 610.401508 242.028346 
L 611.485347 284.028783 
L 612.569186 285.55204 
L 613.653025 323.087668 
L 614.736864 327.815664 
L 615.820703 320.662566 
L 616.904543 297.859911 
L 617.988382 251.303649 
L 619.072221 267.523375 
L 620.15606 241.928964 
L 621.239899 244.418173 
L 622.323738 295.851213 
L 623.407578 331.075757 
L 624.491417 310.334542 
L 625.575256 348.142742 
L 626.659095 355.64561 
L 627.742934 379.872338 
L 628.826773 322.452088 
L 629.910613 295.363858 
L 630.994452 283.362506 
L 632.078291 306.086633 
L 633.16213 351.007013 
L 634.245969 325.452612 
L 635.329808 380.316116 
L 636.413648 388.789191 
L 637.497487 389.48535 
L 638.581326 367.731716 
L 639.665165 369.684476 
L 640.749004 372.652566 
L 641.832843 389.67197 
L 642.916683 360.818322 
L 644.000522 402.306862 
L 645.084361 401.497663 
L 646.1682 390.335357 
L 647.252039 398.081172 
L 648.335878 359.726013 
L 649.419717 387.141435 
L 650.503557 357.297218 
L 651.587396 340.707431 
L 652.671235 346.026166 
L 654.838913 291.860626 
L 655.922752 318.672804 
L 657.006592 311.225527 
L 658.090431 313.84648 
L 659.17427 311.980057 
L 660.258109 357.180815 
L 661.341948 311.311844 
L 662.425787 316.676932 
L 663.509627 302.607409 
L 665.677305 366.253873 
L 666.761144 359.648804 
L 667.844983 358.557623 
L 668.928822 376.46031 
L 670.012662 337.583302 
L 671.096501 348.871672 
L 672.18034 407.637977 
L 673.264179 402.269305 
L 674.348018 464.761324 
L 675.431857 415.777004 
L 676.515697 424.019189 
L 677.599536 424.274388 
L 678.683375 439.171439 
L 679.767214 405.773038 
L 680.851053 450.007753 
L 681.934892 412.237973 
L 683.018732 410.867889 
L 684.102571 422.225694 
L 685.18641 400.258045 
L 686.270249 397.036251 
L 687.354088 457.700139 
L 688.437927 397.990072 
L 689.521767 410.178992 
L 690.605606 432.636942 
L 691.689445 375.217348 
L 692.773284 382.818031 
L 693.857123 413.965285 
L 694.940962 371.427125 
L 696.024802 345.763437 
L 697.108641 363.903385 
L 698.19248 409.203158 
L 699.276319 426.262633 
L 700.360158 431.594584 
L 701.443997 411.135686 
L 702.527837 377.294405 
L 704.695515 436.334522 
L 705.779354 476.184687 
L 706.863193 478.443738 
L 707.947032 455.879317 
L 709.030871 453.050325 
L 710.114711 451.546332 
L 711.19855 448.180527 
L 712.282389 505.763813 
L 713.366228 517.939368 
L 714.450067 492.504147 
L 715.533906 477.725544 
L 716.617746 499.324114 
L 717.701585 505.604416 
L 718.785424 496.375058 
L 719.869263 537.757914 
L 720.953102 484.702055 
L 722.036941 467.493933 
L 723.120781 474.466118 
L 724.20462 508.673362 
L 725.288459 490.460989 
L 726.372298 486.88395 
L 727.456137 506.535938 
L 728.539976 505.377485 
L 729.623816 512.689295 
L 730.707655 518.930843 
L 731.791494 543.745173 
L 732.875333 548.964445 
L 733.959172 513.231287 
L 735.043011 521.858105 
L 736.126851 491.914618 
L 737.21069 481.581002 
L 738.294529 476.359907 
L 739.378368 483.651168 
L 740.462207 470.979861 
L 741.546046 501.221603 
L 743.713725 582.534894 
L 744.797564 551.38829 
L 746.965242 521.871901 
L 748.049081 527.011952 
L 749.132921 503.93898 
L 750.21676 512.55547 
L 751.300599 501.850497 
L 752.384438 507.286586 
L 753.468277 524.037137 
L 754.552116 532.669156 
L 755.635956 583.696727 
L 756.719795 512.988166 
L 757.803634 490.512464 
L 758.887473 517.754709 
L 759.971312 509.641221 
L 761.055151 514.388142 
L 762.138991 516.47825 
L 763.22283 504.027132 
L 764.306669 496.436446 
L 765.390508 513.325078 
L 766.474347 504.424698 
L 767.558186 544.363265 
L 769.725865 516.845639 
L 770.809704 485.698001 
L 771.893543 501.979743 
L 772.977382 504.519867 
L 774.061221 495.771368 
L 775.14506 508.810856 
L 776.2289 524.749938 
L 777.312739 528.338512 
L 778.396578 521.714511 
L 779.480417 518.874457 
L 780.564256 522.45663 
L 781.648095 565.801958 
L 782.731935 503.22998 
L 783.815774 528.836711 
L 785.983452 548.877725 
L 787.067291 540.914991 
L 788.15113 531.270352 
L 789.23497 529.655658 
L 790.318809 505.833323 
L 791.402648 523.860766 
L 792.486487 574.0301 
L 793.570326 576.286364 
L 794.654165 555.904166 
L 795.738005 540.722988 
L 796.821844 576.456642 
L 797.905683 511.67005 
L 798.989522 508.199276 
L 800.073361 486.544376 
L 801.1572 485.490591 
L 802.24104 497.624911 
L 803.324879 461.402847 
L 804.408718 458.332324 
L 805.492557 477.286577 
L 806.576396 468.246413 
L 807.660235 478.023297 
L 808.744075 454.648264 
L 809.827914 443.385793 
L 810.911753 396.985637 
L 811.995592 406.79314 
L 813.079431 409.678528 
L 814.16327 404.672801 
L 815.24711 401.221765 
L 816.330949 421.229353 
L 817.414788 424.647579 
L 818.498627 440.646303 
L 819.582466 411.907992 
L 820.666305 437.444596 
L 821.750145 444.134392 
L 822.833984 475.945869 
L 823.917823 434.43389 
L 825.001662 440.711411 
L 826.085501 395.195874 
L 827.16934 423.819135 
L 828.25318 418.932838 
L 830.420858 465.222468 
L 831.504697 452.657624 
L 832.588536 435.365403 
L 833.672375 425.628718 
L 834.756215 426.184197 
L 835.840054 410.254525 
L 836.923893 448.043846 
L 838.007732 388.598114 
L 839.091571 384.220118 
L 840.17541 404.291669 
L 841.259249 420.853881 
L 842.343089 417.657793 
L 843.426928 395.964859 
L 844.510767 413.403847 
L 845.594606 400.788478 
L 846.678445 328.156423 
L 847.762284 324.626306 
L 848.846124 330.529385 
L 849.929963 346.468767 
L 851.013802 341.860869 
L 852.097641 384.208617 
L 853.18148 371.907806 
L 854.265319 372.24759 
L 855.349159 300.62532 
L 856.432998 309.158246 
L 857.516837 313.873077 
L 858.600676 321.485168 
L 859.684515 295.460577 
L 860.768354 291.186436 
L 861.852194 316.524878 
L 862.936033 291.129962 
L 864.019872 301.210278 
L 865.103711 285.300263 
L 866.18755 317.956486 
L 867.271389 236.729189 
L 868.355229 308.329903 
L 869.439068 304.317737 
L 870.522907 283.320863 
L 871.606746 284.361021 
L 872.690585 293.144097 
L 873.774424 308.207926 
L 874.858264 264.234512 
L 875.942103 307.313667 
L 877.025942 284.384554 
L 878.109781 305.013952 
L 879.19362 348.991352 
L 880.277459 304.539062 
L 881.361299 283.132349 
L 882.445138 292.867971 
L 883.528977 351.926368 
L 884.612816 365.625914 
L 885.696655 348.062221 
L 886.780494 365.176509 
L 887.864334 406.998172 
L 888.948173 431.104269 
L 890.032012 406.801011 
L 891.115851 369.385729 
L 892.19969 324.305558 
L 893.283529 379.96592 
L 894.367369 308.966738 
L 895.451208 335.129844 
L 896.535047 345.458443 
L 897.618886 269.166724 
L 898.702725 335.53989 
L 899.786564 365.346917 
L 900.870403 362.020868 
L 901.954243 305.60846 
L 903.038082 292.708841 
L 904.121921 272.164284 
L 905.20576 304.802802 
L 906.289599 329.28022 
L 907.373438 343.615832 
L 908.457278 331.125559 
L 909.541117 329.548566 
L 910.624956 361.34553 
L 911.708795 326.604 
L 913.876473 298.95663 
L 914.960313 286.906508 
L 916.044152 238.034904 
L 917.127991 236.202461 
L 918.21183 261.835992 
L 919.295669 244.788833 
L 920.379508 244.274594 
L 921.463348 239.987275 
L 922.547187 248.533162 
L 923.631026 252.254689 
L 924.714865 265.588014 
L 925.798704 290.27085 
L 926.882543 335.121187 
L 927.966383 347.468372 
L 929.050222 324.322329 
L 930.134061 280.425324 
L 931.2179 268.690237 
L 932.301739 288.032816 
L 933.385578 269.048539 
L 934.469418 254.569908 
L 935.553257 243.452032 
L 936.637096 249.718925 
L 937.720935 280.596357 
L 938.804774 341.453507 
L 939.888613 281.555548 
L 940.972453 299.98541 
L 942.056292 291.964355 
L 943.140131 286.575991 
L 944.22397 291.988204 
L 945.307809 281.158744 
L 946.391648 254.029968 
L 947.475488 273.908835 
L 948.559327 281.061116 
L 949.643166 282.965797 
L 950.727005 348.347007 
L 951.810844 349.381919 
L 952.894683 340.96278 
L 953.978523 355.601595 
L 955.062362 340.977944 
L 956.146201 360.046815 
L 957.23004 342.927187 
L 958.313879 349.926988 
L 959.397718 333.62141 
L 960.481558 351.405604 
L 961.565397 396.626094 
L 962.649236 377.274354 
L 963.733075 366.510446 
L 964.816914 381.897858 
L 965.900753 368.950434 
L 966.984592 362.99908 
L 968.068432 400.215711 
L 969.152271 395.282587 
L 970.23611 404.755709 
L 971.319949 358.223911 
L 973.487627 421.210139 
L 974.571467 402.015066 
L 975.655306 406.775161 
L 976.739145 408.156625 
L 977.822984 405.220931 
L 978.906823 432.188255 
L 979.990662 381.327794 
L 981.074502 362.662053 
L 982.158341 394.853708 
L 983.24218 360.443692 
L 984.326019 380.107297 
L 985.409858 366.677569 
L 986.493697 392.864452 
L 987.577537 399.038628 
L 988.661376 402.481844 
L 989.745215 407.524097 
L 990.829054 410.562018 
L 991.912893 442.796269 
L 992.996732 468.156069 
L 994.080572 446.080398 
L 995.164411 479.096646 
L 996.24825 473.67814 
L 997.332089 442.53584 
L 998.415928 455.802019 
L 999.499767 417.682636 
L 1000.583607 429.214538 
L 1001.667446 425.423908 
L 1002.751285 397.031489 
L 1003.835124 431.163553 
L 1004.918963 445.723644 
L 1006.002802 474.965122 
L 1007.086642 486.57229 
L 1008.170481 485.712807 
L 1009.25432 509.302756 
L 1010.338159 458.978401 
L 1011.421998 440.652195 
L 1012.505837 395.969094 
L 1013.589677 392.987784 
L 1014.673516 406.965575 
L 1015.757355 431.755554 
L 1016.841194 439.118704 
L 1017.925033 453.529002 
L 1019.008872 478.813513 
L 1020.092712 458.424146 
L 1023.344229 479.157598 
L 1024.428068 497.285203 
L 1025.511907 455.949939 
L 1026.595746 487.494507 
L 1027.679586 473.024468 
L 1028.763425 476.365811 
L 1029.847264 442.904561 
L 1030.931103 469.592453 
L 1032.014942 434.109969 
L 1033.098781 431.712386 
L 1034.182621 458.89101 
L 1035.26646 467.219089 
L 1036.350299 470.982228 
L 1037.434138 447.325047 
L 1038.517977 460.908799 
L 1039.601816 480.980463 
L 1041.769495 515.993888 
L 1042.853334 526.864126 
L 1043.937173 521.536703 
L 1045.021012 480.059394 
L 1046.104851 478.026729 
L 1047.188691 505.824036 
L 1048.27253 480.169493 
L 1049.356369 514.287907 
L 1050.440208 513.257838 
L 1051.524047 544.640802 
L 1052.607886 541.806658 
L 1053.691726 576.611586 
L 1054.775565 538.689348 
L 1055.859404 521.370809 
L 1056.943243 494.707164 
L 1058.027082 492.934181 
L 1059.110921 482.350421 
L 1060.194761 475.289664 
L 1061.2786 530.600477 
L 1062.362439 543.257498 
L 1063.446278 495.163036 
L 1064.530117 510.152699 
L 1065.613956 515.584573 
L 1066.697796 522.795935 
L 1067.781635 496.647918 
L 1068.865474 517.071238 
L 1069.949313 520.850883 
L 1071.033152 505.145986 
L 1072.116991 486.376521 
L 1073.200831 504.371769 
L 1074.28467 473.420583 
L 1075.368509 456.164476 
L 1076.452348 458.183872 
L 1077.536187 434.095856 
L 1078.620026 464.103211 
L 1079.703866 443.419158 
L 1080.787705 450.508896 
L 1081.871544 425.83745 
L 1082.955383 424.385021 
L 1084.039222 408.455816 
L 1085.123061 411.938809 
L 1086.206901 437.197473 
L 1087.29074 444.694816 
L 1088.374579 437.427024 
L 1089.458418 415.284648 
L 1090.542257 452.541625 
L 1091.626096 448.14864 
L 1092.709935 408.830336 
L 1093.793775 396.738922 
L 1094.877614 389.442878 
L 1095.961453 390.144888 
L 1097.045292 372.700777 
L 1098.129131 403.045642 
L 1099.21297 386.660377 
L 1100.29681 390.566441 
L 1101.380649 376.84531 
L 1102.464488 398.92841 
L 1103.548327 399.700483 
L 1104.632166 389.815741 
L 1105.716005 347.316055 
L 1106.799845 376.236616 
L 1107.883684 371.708718 
L 1108.967523 400.184643 
L 1110.051362 410.210439 
L 1111.135201 400.640832 
L 1112.21904 344.826018 
L 1114.386719 394.736385 
L 1115.470558 434.115834 
L 1116.554397 438.07289 
L 1117.638236 407.681331 
L 1119.805915 357.450221 
L 1120.889754 356.191586 
L 1121.973593 343.856696 
L 1123.057432 324.421442 
L 1124.141271 279.587306 
L 1125.22511 269.55151 
L 1127.392789 328.509627 
L 1128.476628 346.322456 
L 1129.560467 313.087107 
L 1130.644306 342.151908 
L 1131.728145 338.662744 
L 1133.895824 304.986585 
L 1134.979663 310.577123 
L 1136.063502 273.717044 
L 1137.147341 298.121631 
L 1138.23118 310.533339 
L 1139.31502 306.922136 
L 1140.398859 273.727065 
L 1141.482698 303.278339 
L 1142.566537 233.751207 
L 1143.650376 264.50847 
L 1144.734215 241.168161 
L 1145.818055 230.448189 
L 1146.901894 270.725905 
L 1147.985733 267.490927 
L 1149.069572 253.234891 
L 1150.153411 228.082488 
L 1151.23725 208.826067 
L 1152.32109 218.956691 
L 1153.404929 222.677288 
L 1154.488768 220.051379 
L 1155.572607 206.745409 
L 1156.656446 188.178649 
L 1157.740285 211.240791 
L 1158.824124 221.130581 
L 1159.907964 251.018036 
L 1160.991803 234.152791 
L 1162.075642 250.237335 
L 1163.159481 211.348162 
L 1164.24332 229.358476 
L 1165.327159 185.818349 
L 1166.410999 168.494383 
L 1167.494838 162.875423 
L 1168.578677 127.966697 
L 1169.662516 161.567713 
L 1170.746355 129.915786 
L 1171.830194 125.910992 
L 1172.914034 172.950827 
L 1173.997873 157.704208 
L 1175.081712 152.218641 
L 1176.165551 185.286054 
L 1177.24939 160.105388 
L 1178.333229 151.607124 
L 1179.417069 146.331721 
L 1180.500908 156.604087 
L 1181.584747 141.498769 
L 1183.752425 197.76894 
L 1185.920104 165.986692 
L 1187.003943 199.07244 
L 1188.087782 172.755608 
L 1189.171621 153.792693 
L 1191.339299 78.865196 
L 1192.423139 105.618446 
L 1193.506978 146.130181 
L 1194.590817 151.645919 
L 1196.758495 85.882408 
L 1197.842334 124.919624 
L 1198.926174 134.264223 
L 1200.010013 136.772829 
L 1201.093852 105.315224 
L 1202.177691 134.358071 
L 1203.26153 200.159303 
L 1204.345369 183.287032 
L 1205.429209 188.065988 
L 1206.513048 186.600189 
L 1207.596887 140.555481 
L 1208.680726 103.025752 
L 1209.764565 163.039907 
L 1210.848404 156.998066 
L 1211.932244 130.125996 
L 1213.016083 176.387709 
L 1214.099922 176.007085 
L 1215.183761 161.793574 
L 1216.2676 182.178939 
L 1217.351439 222.435574 
L 1218.435278 246.169861 
L 1219.519118 226.256201 
L 1220.602957 229.195483 
L 1221.686796 175.599499 
L 1222.770635 162.342378 
L 1223.854474 159.010918 
L 1224.938313 173.229212 
L 1226.022153 127.548672 
L 1227.105992 120.143244 
L 1228.189831 169.347977 
L 1229.27367 191.479855 
L 1230.357509 197.951007 
L 1231.441348 175.37663 
L 1232.525188 149.55049 
L 1234.692866 192.544515 
L 1235.776705 184.099583 
L 1236.860544 145.61016 
L 1237.944383 151.259653 
L 1239.028223 174.046695 
L 1240.112062 187.952344 
L 1241.195901 261.534807 
L 1242.27974 254.316867 
L 1243.363579 241.850658 
L 1244.447418 221.087597 
L 1245.531258 223.748937 
L 1246.615097 255.836914 
L 1247.698936 276.416079 
L 1248.782775 278.017355 
L 1249.866614 232.394898 
L 1250.950453 306.969896 
L 1252.034293 264.366088 
L 1253.118132 295.248979 
L 1254.201971 289.337229 
L 1255.28581 301.745253 
L 1256.369649 325.536499 
L 1257.453488 317.222285 
L 1258.537328 302.698314 
L 1259.621167 345.653106 
L 1260.705006 288.187029 
L 1261.788845 248.646462 
L 1262.872684 265.982306 
L 1263.956523 260.142923 
L 1265.040363 266.187531 
L 1266.124202 293.214467 
L 1267.208041 269.868097 
L 1268.29188 265.682522 
L 1269.375719 251.61641 
L 1270.459558 258.305474 
L 1271.543398 282.71125 
L 1272.627237 269.560687 
L 1273.711076 274.890896 
L 1274.794915 266.791898 
L 1275.878754 235.485812 
L 1276.962593 242.785287 
L 1278.046433 270.805156 
L 1279.130272 319.925562 
L 1280.214111 341.28003 
L 1281.29795 322.231216 
L 1282.381789 372.547893 
L 1283.465628 381.918337 
L 1284.549467 336.617009 
L 1285.633307 369.780947 
L 1286.717146 324.598455 
L 1287.800985 309.077758 
L 1288.884824 335.703083 
L 1289.968663 326.839814 
L 1291.052502 305.83969 
L 1292.136342 324.415486 
L 1293.220181 336.039856 
L 1294.30402 287.011945 
L 1295.387859 314.584268 
L 1296.471698 253.730785 
L 1297.555537 252.80781 
L 1298.639377 282.919821 
L 1298.639377 282.919821 
" style="fill:none;stroke:#1f77b4;stroke-linecap:square;stroke-width:1.5;"/>
   </g>
   <g id="line2d_16">
    <path clip-path="url(#pb08c99cff4)" d="M 215.884052 463.367228 
L 216.967891 440.103419 
L 218.05173 423.44875 
L 219.135569 474.842533 
L 220.219409 455.961281 
L 221.303248 465.013575 
L 222.387087 481.531348 
L 223.470926 496.2182 
L 224.554765 487.488742 
L 225.638604 437.424755 
L 226.722444 459.177154 
L 227.806283 460.113064 
L 228.890122 451.396803 
L 229.973961 485.619766 
L 231.0578 452.384572 
L 232.141639 453.678387 
L 233.225479 450.326216 
L 234.309318 452.366008 
L 235.393157 471.749753 
L 236.476996 478.893794 
L 237.560835 488.951255 
L 238.644674 493.333392 
L 239.728514 475.299149 
L 240.812353 488.735023 
L 241.896192 454.493031 
L 242.980031 485.653011 
L 244.06387 479.276677 
L 245.147709 483.504148 
L 246.231549 479.777426 
L 247.315388 461.962209 
L 248.399227 473.839206 
L 249.483066 489.742091 
L 250.566905 480.518506 
L 251.650744 455.720841 
L 252.734584 473.175873 
L 253.818423 463.135463 
L 254.902262 459.288572 
L 255.986101 474.8686 
L 257.06994 465.223719 
L 258.153779 475.081278 
L 259.237619 498.872516 
L 260.321458 485.480217 
L 261.405297 521.89097 
L 262.489136 514.38362 
L 263.572975 488.413205 
L 264.656814 497.489517 
L 265.740653 487.762135 
L 266.824493 497.999214 
L 267.908332 491.679893 
L 268.992171 497.739422 
L 270.07601 527.62254 
L 271.159849 491.747778 
L 272.243688 464.72613 
L 273.327528 442.81716 
L 274.411367 448.700529 
L 275.495206 483.812072 
L 276.579045 490.61714 
L 277.662884 472.108812 
L 278.746723 464.617067 
L 279.830563 502.53795 
L 280.914402 513.516937 
L 281.998241 489.655704 
L 283.08208 486.078436 
L 284.165919 490.293783 
L 285.249758 446.618172 
L 286.333598 458.567512 
L 287.417437 467.280883 
L 288.501276 482.403108 
L 289.585115 459.315457 
L 290.668954 509.971716 
L 291.752793 480.896438 
L 292.836633 474.317098 
L 293.920472 433.970595 
L 295.004311 440.752603 
L 296.08815 416.209331 
L 298.255828 496.073503 
L 299.339668 492.644654 
L 300.423507 509.887686 
L 301.507346 535.462004 
L 302.591185 528.382048 
L 303.675024 486.985635 
L 304.758863 497.808919 
L 305.842703 449.012881 
L 306.926542 506.492983 
L 308.010381 505.338684 
L 309.09422 494.755994 
L 310.178059 513.80621 
L 311.261898 481.447987 
L 312.345738 440.942329 
L 313.429577 445.549826 
L 314.513416 455.747098 
L 315.597255 434.255184 
L 316.681094 403.651331 
L 317.764933 432.543965 
L 318.848773 481.244332 
L 319.932612 470.728258 
L 321.016451 468.228894 
L 322.10029 501.14512 
L 323.184129 528.990595 
L 324.267968 509.413287 
L 325.351807 542.663981 
L 326.435647 494.157293 
L 327.519486 475.547573 
L 328.603325 524.036603 
L 329.687164 498.947035 
L 330.771003 495.151732 
L 331.854842 500.961118 
L 332.938682 505.505706 
L 334.022521 487.744054 
L 335.10636 464.67139 
L 336.190199 463.082479 
L 337.274038 454.660839 
L 338.357877 425.95599 
L 339.441717 442.521662 
L 340.525556 422.867421 
L 341.609395 385.196627 
L 342.693234 380.4874 
L 343.777073 413.239423 
L 344.860912 436.981889 
L 345.944752 455.299552 
L 347.028591 445.49254 
L 348.11243 438.250759 
L 349.196269 446.489493 
L 350.280108 423.925802 
L 351.363947 447.400879 
L 352.447787 453.278043 
L 353.531626 433.690864 
L 354.615465 451.531679 
L 355.699304 438.239371 
L 356.783143 485.033976 
L 357.866982 457.613833 
L 358.950822 481.331115 
L 360.034661 497.919494 
L 361.1185 485.162521 
L 362.202339 481.837377 
L 363.286178 511.764451 
L 364.370017 502.848307 
L 365.453857 488.788917 
L 366.537696 443.972993 
L 367.621535 442.3058 
L 368.705374 438.15507 
L 369.789213 460.455072 
L 370.873052 457.893618 
L 371.956892 456.038179 
L 373.040731 499.533874 
L 374.12457 512.054596 
L 375.208409 485.651807 
L 376.292248 433.060352 
L 377.376087 421.029275 
L 378.459927 457.43289 
L 379.543766 479.389947 
L 380.627605 418.998509 
L 381.711444 437.694256 
L 382.795283 391.240472 
L 383.879122 391.641755 
L 384.962962 360.573601 
L 386.046801 370.135227 
L 387.13064 345.684831 
L 388.214479 374.070572 
L 389.298318 376.844248 
L 390.382157 393.969674 
L 391.465996 424.664541 
L 392.549836 434.139045 
L 393.633675 439.213467 
L 394.717514 431.146877 
L 395.801353 425.711905 
L 396.885192 382.406707 
L 397.969031 420.597854 
L 399.052871 437.464222 
L 400.13671 458.976562 
L 401.220549 453.578133 
L 402.304388 446.24276 
L 403.388227 437.750493 
L 404.472066 457.654029 
L 405.555906 465.800406 
L 406.639745 424.83211 
L 407.723584 424.905125 
L 408.807423 489.33261 
L 410.975101 392.853263 
L 412.058941 420.795864 
L 413.14278 401.590524 
L 414.226619 438.104048 
L 415.310458 447.72572 
L 416.394297 437.036362 
L 417.478136 433.103076 
L 418.561976 415.006591 
L 419.645815 354.509506 
L 421.813493 333.6948 
L 422.897332 361.200477 
L 423.981171 364.451117 
L 425.065011 340.254083 
L 426.14885 401.18718 
L 427.232689 381.025104 
L 428.316528 377.433126 
L 429.400367 416.026674 
L 430.484206 382.703007 
L 431.568046 383.277468 
L 432.651885 384.020337 
L 433.735724 378.674771 
L 434.819563 374.675825 
L 435.903402 418.980885 
L 438.071081 423.209323 
L 439.15492 428.574434 
L 440.238759 393.279271 
L 441.322598 389.552164 
L 442.406437 397.381758 
L 443.490276 369.790693 
L 444.574116 397.529273 
L 445.657955 412.684313 
L 446.741794 413.511136 
L 447.825633 431.537019 
L 448.909472 401.690535 
L 449.993311 395.329322 
L 451.077151 381.537316 
L 452.16099 430.509771 
L 453.244829 435.34927 
L 454.328668 490.593044 
L 455.412507 488.176427 
L 456.496346 409.398328 
L 457.580185 415.959612 
L 458.664025 416.201154 
L 459.747864 431.975699 
L 460.831703 379.759005 
L 461.915542 383.841464 
L 462.999381 426.063178 
L 464.08322 391.622277 
L 465.16706 369.893415 
L 466.250899 361.32221 
L 467.334738 417.783462 
L 468.418577 395.998137 
L 469.502416 383.653918 
L 470.586255 361.825557 
L 471.670095 362.977862 
L 472.753934 379.936984 
L 473.837773 382.103062 
L 474.921612 401.168582 
L 476.005451 438.094692 
L 477.08929 442.548139 
L 478.17313 448.920763 
L 479.256969 392.361517 
L 480.340808 365.650916 
L 481.424647 387.689744 
L 482.508486 375.321835 
L 483.592325 406.40271 
L 484.676165 353.746752 
L 485.760004 318.269548 
L 486.843843 307.206683 
L 487.927682 310.960399 
L 489.011521 370.924712 
L 490.09536 397.533183 
L 491.1792 392.121947 
L 492.263039 432.829852 
L 493.346878 482.534725 
L 494.430717 469.835908 
L 495.514556 417.102652 
L 496.598395 437.378987 
L 497.682235 449.605579 
L 498.766074 446.961714 
L 499.849913 406.11281 
L 500.933752 418.068289 
L 502.017591 440.021429 
L 503.10143 443.983325 
L 504.18527 452.382055 
L 505.269109 432.960189 
L 506.352948 460.416848 
L 507.436787 444.901691 
L 508.520626 414.690766 
L 509.604465 446.29453 
L 510.688305 417.676908 
L 511.772144 421.359979 
L 512.855983 454.505267 
L 513.939822 429.464294 
L 515.023661 431.993246 
L 516.1075 436.632066 
L 517.191339 402.27512 
L 518.275179 443.937236 
L 519.359018 434.465362 
L 520.442857 429.530625 
L 522.610535 449.831569 
L 523.694374 420.625655 
L 524.778214 421.039757 
L 525.862053 385.660648 
L 526.945892 435.654673 
L 528.029731 440.021784 
L 529.11357 412.805526 
L 530.197409 441.294026 
L 531.281249 385.052971 
L 532.365088 409.166661 
L 533.448927 441.798516 
L 534.532766 437.054174 
L 535.616605 415.81607 
L 536.700444 456.309209 
L 537.784284 442.79604 
L 538.868123 444.841659 
L 539.951962 435.544941 
L 541.035801 403.513046 
L 542.11964 443.783986 
L 543.203479 449.145347 
L 544.287319 490.730986 
L 545.371158 424.219519 
L 546.454997 382.84789 
L 547.538836 420.559619 
L 548.622675 423.639534 
L 549.706514 411.449033 
L 550.790354 459.443595 
L 551.874193 462.78663 
L 552.958032 424.087364 
L 554.041871 435.523975 
L 555.12571 437.556531 
L 556.209549 411.93586 
L 557.293389 380.247763 
L 558.377228 440.081641 
L 559.461067 436.605055 
L 560.544906 420.779287 
L 561.628745 430.270029 
L 562.712584 463.360653 
L 563.796424 510.69278 
L 564.880263 484.028778 
L 565.964102 471.107877 
L 567.047941 441.086989 
L 568.13178 468.929743 
L 569.215619 452.816175 
L 570.299459 382.383089 
L 571.383298 345.270289 
L 572.467137 364.133574 
L 573.550976 356.329619 
L 574.634815 360.649886 
L 575.718654 341.163205 
L 576.802494 353.110913 
L 577.886333 346.97821 
L 578.970172 357.47624 
L 581.13785 300.319881 
L 582.221689 300.55461 
L 583.305528 303.120725 
L 584.389368 309.622837 
L 585.473207 335.645671 
L 586.557046 301.541462 
L 587.640885 251.014132 
L 588.724724 287.306379 
L 589.808563 328.804054 
L 590.892403 343.229042 
L 591.976242 320.281156 
L 593.060081 316.52187 
L 594.14392 334.099812 
L 595.227759 309.271319 
L 596.311598 356.153754 
L 597.395438 391.165113 
L 598.479277 370.067822 
L 599.563116 361.303897 
L 600.646955 345.847211 
L 601.730794 374.182907 
L 602.814633 389.25805 
L 603.898473 317.286571 
L 604.982312 364.644956 
L 606.066151 341.861294 
L 607.14999 306.389518 
L 608.233829 313.136078 
L 609.317668 296.79495 
L 611.485347 383.528372 
L 612.569186 394.240517 
L 613.653025 402.950093 
L 614.736864 354.056959 
L 615.820703 326.628389 
L 616.904543 305.885441 
L 617.988382 300.359819 
L 619.072221 299.706544 
L 620.15606 321.617289 
L 621.239899 300.883157 
L 622.323738 296.567609 
L 623.407578 309.963254 
L 624.491417 301.055467 
L 625.575256 307.256856 
L 626.659095 375.380284 
L 627.742934 343.459933 
L 628.826773 297.987386 
L 629.910613 299.533668 
L 630.994452 307.693182 
L 632.078291 343.984224 
L 633.16213 347.123869 
L 634.245969 347.290725 
L 635.329808 333.384604 
L 636.413648 330.094145 
L 637.497487 286.675041 
L 638.581326 273.126439 
L 639.665165 242.681495 
L 640.749004 246.697059 
L 641.832843 289.327254 
L 642.916683 262.664659 
L 644.000522 280.173632 
L 645.084361 299.612096 
L 646.1682 309.694232 
L 647.252039 321.056198 
L 648.335878 254.524347 
L 649.419717 287.74568 
L 650.503557 274.242585 
L 652.671235 317.159076 
L 653.755074 253.468159 
L 654.838913 266.076194 
L 655.922752 221.722041 
L 657.006592 252.774281 
L 658.090431 244.256576 
L 659.17427 248.829052 
L 660.258109 241.807832 
L 661.341948 256.571537 
L 662.425787 218.891483 
L 663.509627 234.337804 
L 664.593466 191.937058 
L 665.677305 193.0962 
L 666.761144 195.147387 
L 667.844983 234.963815 
L 668.928822 259.579258 
L 670.012662 234.375131 
L 671.096501 247.169145 
L 672.18034 254.833287 
L 673.264179 288.599395 
L 674.348018 241.944678 
L 675.431857 250.616587 
L 676.515697 246.653079 
L 677.599536 236.511046 
L 678.683375 239.93146 
L 679.767214 209.69522 
L 680.851053 249.096471 
L 681.934892 209.378514 
L 683.018732 222.014384 
L 684.102571 233.280057 
L 685.18641 232.049472 
L 686.270249 215.656986 
L 687.354088 239.175339 
L 688.437927 248.332345 
L 690.605606 296.035854 
L 691.689445 300.056207 
L 692.773284 293.515104 
L 693.857123 307.072941 
L 694.940962 268.200265 
L 696.024802 245.856385 
L 697.108641 242.910241 
L 698.19248 268.377392 
L 699.276319 245.827669 
L 700.360158 275.727992 
L 701.443997 290.578629 
L 702.527837 286.696125 
L 703.611676 315.327197 
L 704.695515 295.71532 
L 705.779354 306.552441 
L 706.863193 282.974541 
L 707.947032 221.368114 
L 709.030871 175.014991 
L 711.19855 224.560784 
L 712.282389 225.814287 
L 713.366228 242.567937 
L 714.450067 241.608731 
L 715.533906 224.827856 
L 716.617746 218.740048 
L 717.701585 223.348103 
L 718.785424 233.32172 
L 719.869263 230.056844 
L 720.953102 208.619744 
L 722.036941 167.879955 
L 723.120781 188.128926 
L 724.20462 179.501351 
L 725.288459 209.471371 
L 726.372298 236.130003 
L 727.456137 235.130095 
L 728.539976 267.937357 
L 729.623816 294.576259 
L 730.707655 290.220283 
L 731.791494 320.039107 
L 732.875333 300.018285 
L 733.959172 303.09191 
L 735.043011 321.547337 
L 736.126851 364.268204 
L 737.21069 337.757877 
L 738.294529 317.629546 
L 739.378368 323.45096 
L 740.462207 276.526986 
L 741.546046 322.203085 
L 742.629886 308.323772 
L 743.713725 274.498371 
L 744.797564 303.748881 
L 745.881403 337.299431 
L 746.965242 331.449035 
L 748.049081 335.501879 
L 749.132921 330.555159 
L 750.21676 322.585238 
L 751.300599 296.830238 
L 752.384438 292.66737 
L 753.468277 310.083922 
L 754.552116 346.324396 
L 755.635956 362.095588 
L 756.719795 402.215044 
L 757.803634 397.366588 
L 758.887473 375.639858 
L 759.971312 364.499783 
L 761.055151 368.701036 
L 762.138991 406.639713 
L 763.22283 368.95955 
L 764.306669 397.513172 
L 765.390508 391.975899 
L 766.474347 392.370369 
L 767.558186 363.912154 
L 768.642026 366.368653 
L 769.725865 402.836631 
L 770.809704 390.695175 
L 771.893543 353.861639 
L 772.977382 341.180013 
L 776.2289 407.991156 
L 777.312739 376.676314 
L 778.396578 400.381294 
L 779.480417 398.541582 
L 780.564256 427.265298 
L 781.648095 403.64255 
L 782.731935 425.506763 
L 783.815774 410.568443 
L 784.899613 413.148727 
L 785.983452 417.143947 
L 787.067291 410.727395 
L 788.15113 467.108323 
L 789.23497 447.879984 
L 790.318809 446.30625 
L 791.402648 475.54194 
L 792.486487 423.460443 
L 793.570326 413.819644 
L 794.654165 422.461539 
L 795.738005 425.550552 
L 796.821844 427.216055 
L 797.905683 427.268764 
L 798.989522 407.134237 
L 800.073361 430.867301 
L 801.1572 446.775102 
L 802.24104 417.099442 
L 803.324879 422.28633 
L 805.492557 479.9911 
L 806.576396 465.277771 
L 807.660235 459.029002 
L 808.744075 485.400481 
L 809.827914 505.918501 
L 810.911753 468.61182 
L 811.995592 510.021128 
L 813.079431 518.727416 
L 814.16327 529.533623 
L 815.24711 509.648117 
L 816.330949 472.209942 
L 817.414788 411.87575 
L 818.498627 396.610809 
L 819.582466 392.424517 
L 820.666305 451.367122 
L 821.750145 417.049773 
L 822.833984 413.546729 
L 823.917823 427.830672 
L 825.001662 408.663741 
L 826.085501 439.575898 
L 827.16934 447.014184 
L 828.25318 424.347214 
L 829.337019 358.77044 
L 830.420858 351.712031 
L 831.504697 353.492661 
L 832.588536 372.53706 
L 833.672375 404.207532 
L 834.756215 392.78498 
L 835.840054 389.427432 
L 836.923893 405.518923 
L 838.007732 416.705318 
L 839.091571 411.758234 
L 840.17541 402.840974 
L 841.259249 405.561047 
L 842.343089 410.551688 
L 843.426928 402.498253 
L 844.510767 388.376744 
L 845.594606 390.83398 
L 846.678445 411.937289 
L 847.762284 372.551587 
L 849.929963 433.33452 
L 851.013802 396.6167 
L 852.097641 390.291012 
L 853.18148 376.929184 
L 854.265319 423.656485 
L 855.349159 427.849323 
L 856.432998 421.489652 
L 857.516837 424.309316 
L 858.600676 388.564616 
L 860.768354 429.593916 
L 861.852194 400.179154 
L 862.936033 417.584243 
L 864.019872 375.305816 
L 865.103711 359.533144 
L 867.271389 392.423697 
L 868.355229 368.771428 
L 869.439068 395.682431 
L 870.522907 352.304889 
L 871.606746 321.048203 
L 872.690585 323.074071 
L 873.774424 326.814872 
L 874.858264 328.255736 
L 875.942103 343.759862 
L 877.025942 305.85112 
L 878.109781 340.284721 
L 879.19362 361.254128 
L 880.277459 388.511379 
L 881.361299 376.514335 
L 882.445138 332.746932 
L 883.528977 334.556666 
L 884.612816 323.898231 
L 885.696655 334.151735 
L 886.780494 338.344267 
L 887.864334 347.602756 
L 888.948173 346.379105 
L 890.032012 320.570391 
L 891.115851 273.363267 
L 892.19969 287.480761 
L 893.283529 272.342353 
L 894.367369 276.837328 
L 895.451208 264.846289 
L 896.535047 274.794742 
L 897.618886 294.524716 
L 898.702725 269.362342 
L 899.786564 300.217146 
L 900.870403 300.919612 
L 901.954243 292.441034 
L 903.038082 268.010168 
L 904.121921 287.227551 
L 905.20576 299.735459 
L 906.289599 296.735661 
L 907.373438 308.165921 
L 908.457278 259.306772 
L 909.541117 232.419389 
L 910.624956 245.363459 
L 911.708795 252.577618 
L 912.792634 239.337543 
L 913.876473 240.268072 
L 914.960313 239.77196 
L 916.044152 217.408804 
L 917.127991 275.759721 
L 918.21183 323.142776 
L 919.295669 335.321679 
L 920.379508 293.796413 
L 921.463348 239.738698 
L 922.547187 252.212774 
L 923.631026 234.685024 
L 924.714865 222.428516 
L 925.798704 254.829023 
L 926.882543 255.413819 
L 927.966383 220.409016 
L 929.050222 247.870346 
L 930.134061 251.000474 
L 931.2179 269.484501 
L 932.301739 259.114989 
L 933.385578 204.342396 
L 934.469418 214.964361 
L 935.553257 247.867834 
L 936.637096 267.129043 
L 937.720935 312.95397 
L 938.804774 292.449854 
L 939.888613 259.04212 
L 940.972453 231.884636 
L 942.056292 239.245412 
L 943.140131 257.32244 
L 944.22397 272.097321 
L 945.307809 250.757802 
L 946.391648 249.453589 
L 947.475488 242.455622 
L 948.559327 240.328971 
L 949.643166 240.296596 
L 950.727005 261.996314 
L 951.810844 266.296544 
L 952.894683 255.609056 
L 953.978523 259.388901 
L 955.062362 229.955165 
L 956.146201 209.904537 
L 957.23004 176.271593 
L 958.313879 155.340545 
L 959.397718 187.658952 
L 960.481558 156.213157 
L 961.565397 162.53063 
L 962.649236 186.750447 
L 963.733075 182.95936 
L 964.816914 238.576677 
L 965.900753 241.881494 
L 966.984592 244.304607 
L 968.068432 244.433208 
L 969.152271 248.886681 
L 970.23611 249.120073 
L 971.319949 213.858862 
L 972.403788 210.654338 
L 973.487627 213.864556 
L 974.571467 214.79974 
L 976.739145 114.947233 
L 977.822984 115.06783 
L 978.906823 168.060988 
L 979.990662 174.943931 
L 981.074502 184.008658 
L 982.158341 201.444142 
L 983.24218 236.939354 
L 984.326019 203.896505 
L 985.409858 177.750657 
L 987.577537 274.740242 
L 988.661376 267.624284 
L 989.745215 297.94979 
L 990.829054 287.743075 
L 991.912893 270.744476 
L 992.996732 235.918456 
L 994.080572 191.541956 
L 995.164411 166.498055 
L 996.24825 228.097976 
L 997.332089 273.583304 
L 998.415928 291.946544 
L 999.499767 259.776935 
L 1000.583607 218.022012 
L 1001.667446 206.648887 
L 1002.751285 193.508314 
L 1003.835124 214.932198 
L 1004.918963 228.083362 
L 1006.002802 233.393653 
L 1007.086642 201.726819 
L 1008.170481 158.935967 
L 1009.25432 193.22407 
L 1010.338159 219.608086 
L 1011.421998 254.996662 
L 1013.589677 213.702966 
L 1014.673516 238.366192 
L 1015.757355 244.265459 
L 1016.841194 226.143226 
L 1017.925033 216.533466 
L 1019.008872 259.81571 
L 1020.092712 246.126161 
L 1021.176551 289.360604 
L 1022.26039 286.912273 
L 1023.344229 242.735567 
L 1024.428068 254.881457 
L 1025.511907 233.369506 
L 1026.595746 233.813269 
L 1027.679586 243.904112 
L 1028.763425 261.253136 
L 1029.847264 280.453648 
L 1030.931103 281.946063 
L 1032.014942 274.091689 
L 1033.098781 280.336487 
L 1034.182621 272.95176 
L 1035.26646 292.151456 
L 1036.350299 260.697435 
L 1037.434138 312.353092 
L 1038.517977 296.39515 
L 1039.601816 286.049337 
L 1040.685656 315.409452 
L 1041.769495 280.121141 
L 1042.853334 285.833728 
L 1043.937173 314.44928 
L 1045.021012 275.537433 
L 1046.104851 257.378973 
L 1047.188691 288.637254 
L 1048.27253 324.968401 
L 1049.356369 297.52041 
L 1050.440208 301.35875 
L 1051.524047 298.407315 
L 1052.607886 294.455768 
L 1053.691726 318.959461 
L 1054.775565 366.679295 
L 1055.859404 356.20511 
L 1056.943243 379.136809 
L 1058.027082 334.014117 
L 1059.110921 340.621555 
L 1060.194761 328.632974 
L 1061.2786 285.863938 
L 1062.362439 351.41413 
L 1063.446278 347.78969 
L 1064.530117 321.177611 
L 1065.613956 320.638179 
L 1066.697796 343.700007 
L 1067.781635 348.48073 
L 1068.865474 356.259045 
L 1069.949313 373.72462 
L 1071.033152 398.232858 
L 1072.116991 416.216373 
L 1073.200831 456.555222 
L 1074.28467 451.008716 
L 1075.368509 435.314067 
L 1076.452348 396.621302 
L 1077.536187 376.856012 
L 1078.620026 378.097077 
L 1079.703866 459.497798 
L 1080.787705 455.047002 
L 1081.871544 451.948133 
L 1082.955383 433.016904 
L 1084.039222 509.504509 
L 1085.123061 462.118522 
L 1086.206901 480.255193 
L 1087.29074 455.215091 
L 1088.374579 419.075598 
L 1089.458418 435.813977 
L 1090.542257 456.312095 
L 1091.626096 494.579373 
L 1092.709935 542.457644 
L 1093.793775 534.482821 
L 1094.877614 522.971782 
L 1095.961453 520.351738 
L 1097.045292 501.430203 
L 1098.129131 495.827731 
L 1099.21297 484.962615 
L 1100.29681 466.415116 
L 1101.380649 459.621114 
L 1102.464488 497.517032 
L 1103.548327 474.23787 
L 1104.632166 529.0939 
L 1105.716005 571.125454 
L 1106.799845 558.608162 
L 1107.883684 561.359056 
L 1108.967523 544.209336 
L 1110.051362 559.578435 
L 1112.21904 576.96998 
L 1113.30288 565.965621 
L 1114.386719 577.637322 
L 1115.470558 585.560766 
L 1116.554397 544.127211 
L 1117.638236 514.84207 
L 1118.722075 555.751585 
L 1119.805915 572.69907 
L 1120.889754 578.823575 
L 1121.973593 596.060223 
L 1123.057432 599.133619 
L 1124.141271 585.315809 
L 1125.22511 598.16648 
L 1126.30895 588.573125 
L 1127.392789 599.247524 
L 1128.476628 572.031735 
L 1129.560467 585.588818 
L 1130.644306 553.745437 
L 1131.728145 528.722211 
L 1132.811985 513.633628 
L 1133.895824 511.055227 
L 1134.979663 516.442596 
L 1136.063502 496.328596 
L 1137.147341 506.576635 
L 1138.23118 536.382572 
L 1139.31502 515.137303 
L 1140.398859 532.023745 
L 1141.482698 525.828523 
L 1142.566537 488.553047 
L 1143.650376 474.804909 
L 1144.734215 444.754966 
L 1146.901894 498.40619 
L 1147.985733 484.141579 
L 1149.069572 480.556549 
L 1150.153411 511.86601 
L 1151.23725 498.297763 
L 1152.32109 519.442255 
L 1153.404929 527.004645 
L 1154.488768 479.693381 
L 1155.572607 508.288682 
L 1156.656446 509.557238 
L 1157.740285 526.694615 
L 1158.824124 501.38197 
L 1159.907964 462.583888 
L 1160.991803 471.389278 
L 1162.075642 482.91291 
L 1163.159481 493.151726 
L 1164.24332 464.077184 
L 1165.327159 472.920331 
L 1166.410999 500.775974 
L 1167.494838 440.389318 
L 1168.578677 534.765679 
L 1170.746355 449.055149 
L 1171.830194 475.986174 
L 1172.914034 445.44449 
L 1173.997873 487.580476 
L 1175.081712 467.923579 
L 1176.165551 430.178284 
L 1177.24939 483.182353 
L 1178.333229 508.061138 
L 1179.417069 451.867153 
L 1180.500908 466.625056 
L 1181.584747 430.857514 
L 1182.668586 408.214444 
L 1183.752425 415.399198 
L 1184.836264 391.35983 
L 1185.920104 406.412724 
L 1187.003943 426.546604 
L 1188.087782 436.761504 
L 1189.171621 441.09273 
L 1190.25546 473.976007 
L 1191.339299 457.244782 
L 1192.423139 486.062954 
L 1193.506978 473.697543 
L 1194.590817 430.346538 
L 1195.674656 420.109738 
L 1196.758495 416.983247 
L 1197.842334 400.956255 
L 1198.926174 357.73885 
L 1200.010013 356.166509 
L 1201.093852 357.088461 
L 1202.177691 374.714923 
L 1203.26153 358.080457 
L 1204.345369 296.30543 
L 1205.429209 290.22551 
L 1206.513048 350.136142 
L 1208.680726 291.228249 
L 1209.764565 311.540079 
L 1210.848404 314.0067 
L 1211.932244 247.309864 
L 1213.016083 230.062689 
L 1214.099922 275.746105 
L 1215.183761 335.799359 
L 1216.2676 286.805372 
L 1217.351439 313.910216 
L 1218.435278 310.651305 
L 1219.519118 336.452071 
L 1220.602957 338.632626 
L 1221.686796 311.78283 
L 1222.770635 339.383506 
L 1223.854474 283.782308 
L 1224.938313 297.252415 
L 1226.022153 323.153765 
L 1227.105992 295.23876 
L 1228.189831 291.870446 
L 1229.27367 315.124004 
L 1230.357509 263.960423 
L 1231.441348 228.902707 
L 1232.525188 215.814016 
L 1233.609027 299.725388 
L 1234.692866 295.702538 
L 1235.776705 312.636932 
L 1236.860544 297.342521 
L 1237.944383 298.925889 
L 1239.028223 294.457284 
L 1240.112062 333.427212 
L 1241.195901 319.939328 
L 1242.27974 298.045912 
L 1243.363579 299.493551 
L 1244.447418 277.790882 
L 1245.531258 242.664296 
L 1246.615097 248.467137 
L 1247.698936 252.575154 
L 1248.782775 232.647296 
L 1249.866614 180.995993 
L 1250.950453 171.97314 
L 1252.034293 171.078765 
L 1253.118132 196.267426 
L 1254.201971 205.106099 
L 1255.28581 164.317762 
L 1256.369649 199.583521 
L 1257.453488 220.958107 
L 1258.537328 263.916102 
L 1259.621167 298.275417 
L 1260.705006 260.492002 
L 1261.788845 252.362303 
L 1262.872684 277.667584 
L 1263.956523 292.523669 
L 1265.040363 278.933359 
L 1266.124202 295.019389 
L 1267.208041 268.536987 
L 1268.29188 271.753171 
L 1269.375719 258.760574 
L 1270.459558 273.344587 
L 1271.543398 295.33404 
L 1272.627237 280.152149 
L 1273.711076 247.008755 
L 1274.794915 253.709156 
L 1275.878754 293.14953 
L 1278.046433 312.916707 
L 1279.130272 303.39343 
L 1280.214111 317.483271 
L 1281.29795 344.031461 
L 1282.381789 364.68517 
L 1283.465628 349.16021 
L 1284.549467 346.703475 
L 1285.633307 364.568628 
L 1286.717146 351.284751 
L 1287.800985 335.633936 
L 1288.884824 347.797861 
L 1289.968663 331.182256 
L 1291.052502 354.751489 
L 1292.136342 398.212912 
L 1293.220181 407.03134 
L 1294.30402 355.913509 
L 1295.387859 367.562079 
L 1296.471698 314.879972 
L 1297.555537 332.315681 
L 1298.639377 327.598268 
L 1298.639377 327.598268 
" style="fill:none;stroke:#ff7f0e;stroke-linecap:square;stroke-width:1.5;"/>
   </g>
   <g id="patch_3">
    <path d="M 161.746286 625.26664 
L 161.746286 52.84608 
" style="fill:none;stroke:#000000;stroke-linecap:square;stroke-linejoin:miter;stroke-width:0.8;"/>
   </g>
   <g id="patch_4">
    <path d="M 1352.777143 625.26664 
L 1352.777143 52.84608 
" style="fill:none;stroke:#000000;stroke-linecap:square;stroke-linejoin:miter;stroke-width:0.8;"/>
   </g>
   <g id="patch_5">
    <path d="M 161.746286 625.26664 
L 1352.777143 625.26664 
" style="fill:none;stroke:#000000;stroke-linecap:square;stroke-linejoin:miter;stroke-width:0.8;"/>
   </g>
   <g id="patch_6">
    <path d="M 161.746286 52.84608 
L 1352.777143 52.84608 
" style="fill:none;stroke:#000000;stroke-linecap:square;stroke-linejoin:miter;stroke-width:0.8;"/>
   </g>
   <g id="text_17">
    <!-- Pos-error [m] -->
    <g transform="translate(717.943902 46.84608)scale(0.12 -0.12)">
     <defs>
      <path d="M 1259 4147 
L 1259 2394 
L 2053 2394 
Q 2494 2394 2734 2622 
Q 2975 2850 2975 3272 
Q 2975 3691 2734 3919 
Q 2494 4147 2053 4147 
L 1259 4147 
z
M 628 4666 
L 2053 4666 
Q 2838 4666 3239 4311 
Q 3641 3956 3641 3272 
Q 3641 2581 3239 2228 
Q 2838 1875 2053 1875 
L 1259 1875 
L 1259 0 
L 628 0 
L 628 4666 
z
" id="DejaVuSans-50" transform="scale(0.015625)"/>
      <path d="M 1959 3097 
Q 1497 3097 1228 2736 
Q 959 2375 959 1747 
Q 959 1119 1226 758 
Q 1494 397 1959 397 
Q 2419 397 2687 759 
Q 2956 1122 2956 1747 
Q 2956 2369 2687 2733 
Q 2419 3097 1959 3097 
z
M 1959 3584 
Q 2709 3584 3137 3096 
Q 3566 2609 3566 1747 
Q 3566 888 3137 398 
Q 2709 -91 1959 -91 
Q 1206 -91 779 398 
Q 353 888 353 1747 
Q 353 2609 779 3096 
Q 1206 3584 1959 3584 
z
" id="DejaVuSans-6f" transform="scale(0.015625)"/>
      <path d="M 313 2009 
L 1997 2009 
L 1997 1497 
L 313 1497 
L 313 2009 
z
" id="DejaVuSans-2d" transform="scale(0.015625)"/>
      <path d="M 3597 1894 
L 3597 1613 
L 953 1613 
Q 991 1019 1311 708 
Q 1631 397 2203 397 
Q 2534 397 2845 478 
Q 3156 559 3463 722 
L 3463 178 
Q 3153 47 2828 -22 
Q 2503 -91 2169 -91 
Q 1331 -91 842 396 
Q 353 884 353 1716 
Q 353 2575 817 3079 
Q 1281 3584 2069 3584 
Q 2775 3584 3186 3129 
Q 3597 2675 3597 1894 
z
M 3022 2063 
Q 3016 2534 2758 2815 
Q 2500 3097 2075 3097 
Q 1594 3097 1305 2825 
Q 1016 2553 972 2059 
L 3022 2063 
z
" id="DejaVuSans-65" transform="scale(0.015625)"/>
      <path d="M 2631 2963 
Q 2534 3019 2420 3045 
Q 2306 3072 2169 3072 
Q 1681 3072 1420 2755 
Q 1159 2438 1159 1844 
L 1159 0 
L 581 0 
L 581 3500 
L 1159 3500 
L 1159 2956 
Q 1341 3275 1631 3429 
Q 1922 3584 2338 3584 
Q 2397 3584 2469 3576 
Q 2541 3569 2628 3553 
L 2631 2963 
z
" id="DejaVuSans-72" transform="scale(0.015625)"/>
      <path d="M 3328 2828 
Q 3544 3216 3844 3400 
Q 4144 3584 4550 3584 
Q 5097 3584 5394 3201 
Q 5691 2819 5691 2113 
L 5691 0 
L 5113 0 
L 5113 2094 
Q 5113 2597 4934 2840 
Q 4756 3084 4391 3084 
Q 3944 3084 3684 2787 
Q 3425 2491 3425 1978 
L 3425 0 
L 2847 0 
L 2847 2094 
Q 2847 2600 2669 2842 
Q 2491 3084 2119 3084 
Q 1678 3084 1418 2786 
Q 1159 2488 1159 1978 
L 1159 0 
L 581 0 
L 581 3500 
L 1159 3500 
L 1159 2956 
Q 1356 3278 1631 3431 
Q 1906 3584 2284 3584 
Q 2666 3584 2933 3390 
Q 3200 3197 3328 2828 
z
" id="DejaVuSans-6d" transform="scale(0.015625)"/>
     </defs>
     <use xlink:href="#DejaVuSans-50"/>
     <use x="56.677734" xlink:href="#DejaVuSans-6f"/>
     <use x="117.859375" xlink:href="#DejaVuSans-73"/>
     <use x="169.958984" xlink:href="#DejaVuSans-2d"/>
     <use x="206.042969" xlink:href="#DejaVuSans-65"/>
     <use x="267.566406" xlink:href="#DejaVuSans-72"/>
     <use x="306.929688" xlink:href="#DejaVuSans-72"/>
     <use x="345.792969" xlink:href="#DejaVuSans-6f"/>
     <use x="406.974609" xlink:href="#DejaVuSans-72"/>
     <use x="448.087891" xlink:href="#DejaVuSans-20"/>
     <use x="479.875" xlink:href="#DejaVuSans-5b"/>
     <use x="518.888672" xlink:href="#DejaVuSans-6d"/>
     <use x="616.300781" xlink:href="#DejaVuSans-5d"/>
    </g>
   </g>
   <g id="legend_1">
    <g id="patch_7">
     <path d="M 1307.777143 90.222643 
L 1345.777143 90.222643 
Q 1347.777143 90.222643 1347.777143 88.222643 
L 1347.777143 59.84608 
Q 1347.777143 57.84608 1345.777143 57.84608 
L 1307.777143 57.84608 
Q 1305.777143 57.84608 1305.777143 59.84608 
L 1305.777143 88.222643 
Q 1305.777143 90.222643 1307.777143 90.222643 
z
" style="fill:#ffffff;stroke:#cccccc;stroke-linejoin:miter;"/>
    </g>
    <g id="line2d_17">
     <path d="M 1309.777143 65.944517 
L 1329.777143 65.944517 
" style="fill:none;stroke:#1f77b4;stroke-linecap:square;stroke-width:1.5;"/>
    </g>
    <g id="line2d_18"/>
    <g id="text_18">
     <!-- $x$ -->
     <g transform="translate(1337.777143 69.444517)scale(0.1 -0.1)">
      <defs>
       <path d="M 3841 3500 
L 2234 1784 
L 3219 0 
L 2559 0 
L 1819 1388 
L 531 0 
L -166 0 
L 1556 1844 
L 641 3500 
L 1300 3500 
L 1972 2234 
L 3144 3500 
L 3841 3500 
z
" id="DejaVuSans-Oblique-78" transform="scale(0.015625)"/>
      </defs>
      <use transform="translate(0 0.3125)" xlink:href="#DejaVuSans-Oblique-78"/>
     </g>
    </g>
    <g id="line2d_19">
     <path d="M 1309.777143 80.622642 
L 1329.777143 80.622642 
" style="fill:none;stroke:#ff7f0e;stroke-linecap:square;stroke-width:1.5;"/>
    </g>
    <g id="line2d_20"/>
    <g id="text_19">
     <!-- $y$ -->
     <g transform="translate(1337.777143 84.122642)scale(0.1 -0.1)">
      <defs>
       <path d="M 1588 -325 
Q 1188 -997 936 -1164 
Q 684 -1331 294 -1331 
L -159 -1331 
L -63 -850 
L 269 -850 
Q 509 -850 678 -719 
Q 847 -588 1056 -206 
L 1234 128 
L 459 3500 
L 1069 3500 
L 1650 819 
L 3256 3500 
L 3859 3500 
L 1588 -325 
z
" id="DejaVuSans-Oblique-79" transform="scale(0.015625)"/>
      </defs>
      <use transform="translate(0 0.3125)" xlink:href="#DejaVuSans-Oblique-79"/>
     </g>
    </g>
   </g>
  </g>
 </g>
 <defs>
  <clipPath id="pb08c99cff4">
   <rect height="572.42056" width="1191.030857" x="161.746286" y="52.84608"/>
  </clipPath>
 </defs>
</svg>
