<?xml version="1.0" encoding="utf-8" standalone="no"?>
<!DOCTYPE svg PUBLIC "-//W3C//DTD SVG 1.1//EN"
  "http://www.w3.org/Graphics/SVG/1.1/DTD/svg11.dtd">
<svg height="707.76pt" version="1.1" viewBox="0 0 1382.4 707.76" width="1382.4pt" xmlns="http://www.w3.org/2000/svg" xmlns:xlink="http://www.w3.org/1999/xlink">
 <metadata>
  <rdf:RDF xmlns:cc="http://creativecommons.org/ns#" xmlns:dc="http://purl.org/dc/elements/1.1/" xmlns:rdf="http://www.w3.org/1999/02/22-rdf-syntax-ns#">
   <cc:Work>
    <dc:type rdf:resource="http://purl.org/dc/dcmitype/StillImage"/>
    <dc:date>2021-11-17T15:57:40.449051</dc:date>
    <dc:format>image/svg+xml</dc:format>
    <dc:creator>
     <cc:Agent>
      <dc:title>Matplotlib v3.4.3, https://matplotlib.org/</dc:title>
     </cc:Agent>
    </dc:creator>
   </cc:Work>
  </rdf:RDF>
 </metadata>
 <defs>
  <style type="text/css">*{stroke-linecap:butt;stroke-linejoin:round;}</style>
 </defs>
 <g id="figure_1">
  <g id="patch_1">
   <path d="M 0 707.76 
L 1382.4 707.76 
L 1382.4 0 
L 0 0 
z
" style="fill:#ffffff;"/>
  </g>
  <g id="axes_1">
   <g id="patch_2">
    <path d="M 104.969143 323.03346 
L 1352.777143 323.03346 
L 1352.777143 52.84608 
L 104.969143 52.84608 
z
" style="fill:#ffffff;"/>
   </g>
   <g id="matplotlib.axis_1">
    <g id="xtick_1">
     <g id="line2d_1">
      <defs>
       <path d="M 0 0 
L 0 3.5 
" id="m1ddf51c5e4" style="stroke:#000000;stroke-width:0.8;"/>
      </defs>
      <g>
       <use style="stroke:#000000;stroke-width:0.8;" x="161.687688" xlink:href="#m1ddf51c5e4" y="323.03346"/>
      </g>
     </g>
    </g>
    <g id="xtick_2">
     <g id="line2d_2">
      <g>
       <use style="stroke:#000000;stroke-width:0.8;" x="324.205011" xlink:href="#m1ddf51c5e4" y="323.03346"/>
      </g>
     </g>
    </g>
    <g id="xtick_3">
     <g id="line2d_3">
      <g>
       <use style="stroke:#000000;stroke-width:0.8;" x="486.722333" xlink:href="#m1ddf51c5e4" y="323.03346"/>
      </g>
     </g>
    </g>
    <g id="xtick_4">
     <g id="line2d_4">
      <g>
       <use style="stroke:#000000;stroke-width:0.8;" x="649.239655" xlink:href="#m1ddf51c5e4" y="323.03346"/>
      </g>
     </g>
    </g>
    <g id="xtick_5">
     <g id="line2d_5">
      <g>
       <use style="stroke:#000000;stroke-width:0.8;" x="811.756977" xlink:href="#m1ddf51c5e4" y="323.03346"/>
      </g>
     </g>
    </g>
    <g id="xtick_6">
     <g id="line2d_6">
      <g>
       <use style="stroke:#000000;stroke-width:0.8;" x="974.274299" xlink:href="#m1ddf51c5e4" y="323.03346"/>
      </g>
     </g>
    </g>
    <g id="xtick_7">
     <g id="line2d_7">
      <g>
       <use style="stroke:#000000;stroke-width:0.8;" x="1136.791622" xlink:href="#m1ddf51c5e4" y="323.03346"/>
      </g>
     </g>
    </g>
    <g id="xtick_8">
     <g id="line2d_8">
      <g>
       <use style="stroke:#000000;stroke-width:0.8;" x="1299.308944" xlink:href="#m1ddf51c5e4" y="323.03346"/>
      </g>
     </g>
    </g>
   </g>
   <g id="matplotlib.axis_2">
    <g id="ytick_1">
     <g id="line2d_9">
      <defs>
       <path d="M 0 0 
L -3.5 0 
" id="m0e20d1c2c2" style="stroke:#000000;stroke-width:0.8;"/>
      </defs>
      <g>
       <use style="stroke:#000000;stroke-width:0.8;" x="104.969143" xlink:href="#m0e20d1c2c2" y="310.752215"/>
      </g>
     </g>
     <g id="text_1">
      <!-- 0 -->
      <g transform="translate(91.606643 314.551434)scale(0.1 -0.1)">
       <defs>
        <path d="M 2034 4250 
Q 1547 4250 1301 3770 
Q 1056 3291 1056 2328 
Q 1056 1369 1301 889 
Q 1547 409 2034 409 
Q 2525 409 2770 889 
Q 3016 1369 3016 2328 
Q 3016 3291 2770 3770 
Q 2525 4250 2034 4250 
z
M 2034 4750 
Q 2819 4750 3233 4129 
Q 3647 3509 3647 2328 
Q 3647 1150 3233 529 
Q 2819 -91 2034 -91 
Q 1250 -91 836 529 
Q 422 1150 422 2328 
Q 422 3509 836 4129 
Q 1250 4750 2034 4750 
z
" id="DejaVuSans-30" transform="scale(0.015625)"/>
       </defs>
       <use xlink:href="#DejaVuSans-30"/>
      </g>
     </g>
    </g>
    <g id="ytick_2">
     <g id="line2d_10">
      <g>
       <use style="stroke:#000000;stroke-width:0.8;" x="104.969143" xlink:href="#m0e20d1c2c2" y="260.149738"/>
      </g>
     </g>
     <g id="text_2">
      <!-- 1 -->
      <g transform="translate(91.606643 263.948957)scale(0.1 -0.1)">
       <defs>
        <path d="M 794 531 
L 1825 531 
L 1825 4091 
L 703 3866 
L 703 4441 
L 1819 4666 
L 2450 4666 
L 2450 531 
L 3481 531 
L 3481 0 
L 794 0 
L 794 531 
z
" id="DejaVuSans-31" transform="scale(0.015625)"/>
       </defs>
       <use xlink:href="#DejaVuSans-31"/>
      </g>
     </g>
    </g>
    <g id="ytick_3">
     <g id="line2d_11">
      <g>
       <use style="stroke:#000000;stroke-width:0.8;" x="104.969143" xlink:href="#m0e20d1c2c2" y="209.547261"/>
      </g>
     </g>
     <g id="text_3">
      <!-- 2 -->
      <g transform="translate(91.606643 213.346479)scale(0.1 -0.1)">
       <defs>
        <path d="M 1228 531 
L 3431 531 
L 3431 0 
L 469 0 
L 469 531 
Q 828 903 1448 1529 
Q 2069 2156 2228 2338 
Q 2531 2678 2651 2914 
Q 2772 3150 2772 3378 
Q 2772 3750 2511 3984 
Q 2250 4219 1831 4219 
Q 1534 4219 1204 4116 
Q 875 4013 500 3803 
L 500 4441 
Q 881 4594 1212 4672 
Q 1544 4750 1819 4750 
Q 2544 4750 2975 4387 
Q 3406 4025 3406 3419 
Q 3406 3131 3298 2873 
Q 3191 2616 2906 2266 
Q 2828 2175 2409 1742 
Q 1991 1309 1228 531 
z
" id="DejaVuSans-32" transform="scale(0.015625)"/>
       </defs>
       <use xlink:href="#DejaVuSans-32"/>
      </g>
     </g>
    </g>
    <g id="ytick_4">
     <g id="line2d_12">
      <g>
       <use style="stroke:#000000;stroke-width:0.8;" x="104.969143" xlink:href="#m0e20d1c2c2" y="158.944783"/>
      </g>
     </g>
     <g id="text_4">
      <!-- 3 -->
      <g transform="translate(91.606643 162.744002)scale(0.1 -0.1)">
       <defs>
        <path d="M 2597 2516 
Q 3050 2419 3304 2112 
Q 3559 1806 3559 1356 
Q 3559 666 3084 287 
Q 2609 -91 1734 -91 
Q 1441 -91 1130 -33 
Q 819 25 488 141 
L 488 750 
Q 750 597 1062 519 
Q 1375 441 1716 441 
Q 2309 441 2620 675 
Q 2931 909 2931 1356 
Q 2931 1769 2642 2001 
Q 2353 2234 1838 2234 
L 1294 2234 
L 1294 2753 
L 1863 2753 
Q 2328 2753 2575 2939 
Q 2822 3125 2822 3475 
Q 2822 3834 2567 4026 
Q 2313 4219 1838 4219 
Q 1578 4219 1281 4162 
Q 984 4106 628 3988 
L 628 4550 
Q 988 4650 1302 4700 
Q 1616 4750 1894 4750 
Q 2613 4750 3031 4423 
Q 3450 4097 3450 3541 
Q 3450 3153 3228 2886 
Q 3006 2619 2597 2516 
z
" id="DejaVuSans-33" transform="scale(0.015625)"/>
       </defs>
       <use xlink:href="#DejaVuSans-33"/>
      </g>
     </g>
    </g>
    <g id="ytick_5">
     <g id="line2d_13">
      <g>
       <use style="stroke:#000000;stroke-width:0.8;" x="104.969143" xlink:href="#m0e20d1c2c2" y="108.342306"/>
      </g>
     </g>
     <g id="text_5">
      <!-- 4 -->
      <g transform="translate(91.606643 112.141524)scale(0.1 -0.1)">
       <defs>
        <path d="M 2419 4116 
L 825 1625 
L 2419 1625 
L 2419 4116 
z
M 2253 4666 
L 3047 4666 
L 3047 1625 
L 3713 1625 
L 3713 1100 
L 3047 1100 
L 3047 0 
L 2419 0 
L 2419 1100 
L 313 1100 
L 313 1709 
L 2253 4666 
z
" id="DejaVuSans-34" transform="scale(0.015625)"/>
       </defs>
       <use xlink:href="#DejaVuSans-34"/>
      </g>
     </g>
    </g>
    <g id="ytick_6">
     <g id="line2d_14">
      <g>
       <use style="stroke:#000000;stroke-width:0.8;" x="104.969143" xlink:href="#m0e20d1c2c2" y="57.739828"/>
      </g>
     </g>
     <g id="text_6">
      <!-- 5 -->
      <g transform="translate(91.606643 61.539047)scale(0.1 -0.1)">
       <defs>
        <path d="M 691 4666 
L 3169 4666 
L 3169 4134 
L 1269 4134 
L 1269 2991 
Q 1406 3038 1543 3061 
Q 1681 3084 1819 3084 
Q 2600 3084 3056 2656 
Q 3513 2228 3513 1497 
Q 3513 744 3044 326 
Q 2575 -91 1722 -91 
Q 1428 -91 1123 -41 
Q 819 9 494 109 
L 494 744 
Q 775 591 1075 516 
Q 1375 441 1709 441 
Q 2250 441 2565 725 
Q 2881 1009 2881 1497 
Q 2881 1984 2565 2268 
Q 2250 2553 1709 2553 
Q 1456 2553 1204 2497 
Q 953 2441 691 2322 
L 691 4666 
z
" id="DejaVuSans-35" transform="scale(0.015625)"/>
       </defs>
       <use xlink:href="#DejaVuSans-35"/>
      </g>
     </g>
    </g>
    <g id="text_7">
     <!-- [m] -->
     <g transform="translate(85.526955 196.711645)rotate(-90)scale(0.1 -0.1)">
      <defs>
       <path d="M 550 4863 
L 1875 4863 
L 1875 4416 
L 1125 4416 
L 1125 -397 
L 1875 -397 
L 1875 -844 
L 550 -844 
L 550 4863 
z
" id="DejaVuSans-5b" transform="scale(0.015625)"/>
       <path d="M 3328 2828 
Q 3544 3216 3844 3400 
Q 4144 3584 4550 3584 
Q 5097 3584 5394 3201 
Q 5691 2819 5691 2113 
L 5691 0 
L 5113 0 
L 5113 2094 
Q 5113 2597 4934 2840 
Q 4756 3084 4391 3084 
Q 3944 3084 3684 2787 
Q 3425 2491 3425 1978 
L 3425 0 
L 2847 0 
L 2847 2094 
Q 2847 2600 2669 2842 
Q 2491 3084 2119 3084 
Q 1678 3084 1418 2786 
Q 1159 2488 1159 1978 
L 1159 0 
L 581 0 
L 581 3500 
L 1159 3500 
L 1159 2956 
Q 1356 3278 1631 3431 
Q 1906 3584 2284 3584 
Q 2666 3584 2933 3390 
Q 3200 3197 3328 2828 
z
" id="DejaVuSans-6d" transform="scale(0.015625)"/>
       <path d="M 1947 4863 
L 1947 -844 
L 622 -844 
L 622 -397 
L 1369 -397 
L 1369 4416 
L 622 4416 
L 622 4863 
L 1947 4863 
z
" id="DejaVuSans-5d" transform="scale(0.015625)"/>
      </defs>
      <use xlink:href="#DejaVuSans-5b"/>
      <use x="39.013672" xlink:href="#DejaVuSans-6d"/>
      <use x="136.425781" xlink:href="#DejaVuSans-5d"/>
     </g>
    </g>
   </g>
   <g id="line2d_15">
    <path clip-path="url(#p53b64532ad)" d="M 161.687688 310.752215 
L 164.938035 307.571575 
L 168.188381 308.638133 
L 171.438728 304.806244 
L 174.689074 304.610461 
L 177.939421 307.650828 
L 181.189767 309.652897 
L 184.440113 307.118515 
L 187.69046 303.270108 
L 190.940806 291.755183 
L 194.191153 299.762939 
L 197.441499 298.271373 
L 200.691846 295.008683 
L 203.942192 294.738825 
L 207.192539 286.436122 
L 210.442885 277.479098 
L 213.693231 274.784809 
L 216.943578 273.651013 
L 220.193924 273.574812 
L 223.444271 269.789982 
L 226.694617 275.910538 
L 229.944964 269.258526 
L 233.19531 270.307075 
L 236.445657 273.799749 
L 239.696003 271.042936 
L 242.946349 270.129773 
L 246.196696 272.081952 
L 249.447042 274.256651 
L 252.697389 271.038813 
L 255.947735 274.911881 
L 259.198082 274.797586 
L 262.448428 275.884053 
L 265.698775 277.43018 
L 268.949121 269.685394 
L 272.199467 270.229981 
L 275.449814 265.831604 
L 278.70016 265.001041 
L 281.950507 263.689958 
L 285.200853 263.680984 
L 288.4512 266.547905 
L 291.701546 270.419478 
L 294.951893 273.347163 
L 298.202239 280.02684 
L 301.452585 273.974557 
L 304.702932 267.438525 
L 307.953278 265.84378 
L 311.203625 268.547255 
L 314.453971 269.958846 
L 317.704318 262.247658 
L 320.954664 259.764457 
L 324.205011 263.943493 
L 327.455357 263.813269 
L 333.95605 248.162552 
L 337.206396 250.574102 
L 340.456743 252.806058 
L 343.707089 250.518246 
L 346.957436 250.977773 
L 350.207782 252.691155 
L 353.458129 255.95317 
L 356.708475 258.39828 
L 359.958821 259.351397 
L 363.209168 256.653119 
L 366.459514 262.624883 
L 369.709861 267.647263 
L 372.960207 266.832734 
L 376.210554 262.985641 
L 379.4609 259.838745 
L 382.711247 259.748118 
L 385.961593 258.037125 
L 389.211939 252.974166 
L 392.462286 249.501783 
L 395.712632 244.78315 
L 402.213325 238.693201 
L 405.463672 240.574433 
L 408.714018 238.635733 
L 411.964365 234.362128 
L 415.214711 241.955724 
L 418.465057 246.785964 
L 421.715404 242.375089 
L 424.96575 240.032533 
L 428.216097 243.350526 
L 431.466443 238.950642 
L 434.71679 242.539804 
L 437.967136 235.225046 
L 441.217483 240.989417 
L 444.467829 241.494509 
L 447.718175 236.19035 
L 450.968522 232.590797 
L 457.469215 234.217608 
L 460.719561 236.184237 
L 463.969908 229.05924 
L 467.220254 230.601819 
L 470.470601 232.864185 
L 473.720947 232.151895 
L 476.971293 239.839527 
L 480.22164 241.75057 
L 483.471986 241.280603 
L 489.972679 235.417716 
L 493.223026 227.925825 
L 496.473372 221.125825 
L 499.723719 218.035388 
L 502.974065 211.156242 
L 506.224411 216.121457 
L 509.474758 211.414886 
L 512.725104 212.40565 
L 515.975451 218.486854 
L 519.225797 216.890711 
L 522.476144 214.489119 
L 525.72649 214.768559 
L 528.976837 212.994338 
L 532.227183 212.692249 
L 535.477529 203.966199 
L 538.727876 203.721562 
L 541.978222 201.327153 
L 545.228569 201.127691 
L 548.478915 203.546972 
L 551.729262 203.368164 
L 558.229955 209.445057 
L 561.480301 211.068812 
L 564.730647 209.391911 
L 567.980994 213.586513 
L 571.23134 221.853881 
L 574.481687 222.541753 
L 577.732033 221.89257 
L 580.98238 218.510732 
L 584.232726 209.319119 
L 590.733419 209.330657 
L 593.983765 212.077787 
L 597.234112 211.582039 
L 600.484458 215.081681 
L 603.734805 213.904336 
L 606.985151 208.276885 
L 610.235498 204.656358 
L 613.485844 205.429526 
L 616.736191 204.620298 
L 619.986537 199.945842 
L 623.236883 204.964205 
L 626.48723 211.832448 
L 629.737576 215.379258 
L 632.987923 214.297354 
L 636.238269 209.970599 
L 639.488616 212.282447 
L 642.738962 216.097091 
L 645.989309 217.717986 
L 649.239655 217.841505 
L 652.490001 219.102918 
L 655.740348 219.70559 
L 658.990694 220.480159 
L 662.241041 226.874535 
L 665.491387 224.052314 
L 668.741734 230.27341 
L 671.99208 228.42033 
L 675.242427 233.433141 
L 678.492773 227.508579 
L 681.743119 226.507845 
L 684.993466 223.362018 
L 688.243812 216.280599 
L 691.494159 219.426481 
L 694.744505 213.653542 
L 697.994852 213.236538 
L 701.245198 215.844521 
L 704.495545 218.146737 
L 707.745891 217.953198 
L 710.996237 215.294741 
L 714.246584 216.097925 
L 717.49693 219.65363 
L 720.747277 219.860513 
L 723.997623 222.130524 
L 727.24797 222.364649 
L 730.498316 220.151304 
L 733.748663 220.593003 
L 736.999009 220.668955 
L 740.249355 219.401625 
L 743.499702 225.840277 
L 746.750048 238.429607 
L 750.000395 244.178589 
L 753.250741 246.820433 
L 756.501088 248.394271 
L 759.751434 248.022994 
L 763.001781 247.994117 
L 766.252127 251.009225 
L 769.502473 254.910218 
L 772.75282 263.189515 
L 776.003166 264.742343 
L 779.253513 266.579745 
L 782.503859 266.64954 
L 785.754206 265.045176 
L 789.004552 268.592427 
L 792.254899 261.584405 
L 795.505245 261.464732 
L 798.755591 264.440083 
L 802.005938 265.033377 
L 805.256284 271.788426 
L 808.506631 272.240387 
L 811.756977 273.691344 
L 815.007324 274.65023 
L 818.25767 278.252575 
L 821.508017 276.729204 
L 824.758363 273.596965 
L 828.008709 275.055895 
L 831.259056 272.637386 
L 834.509402 273.278597 
L 837.759749 269.372266 
L 841.010095 271.508376 
L 844.260442 273.25146 
L 847.510788 272.269316 
L 850.761135 274.501449 
L 854.011481 274.029307 
L 857.261827 274.312084 
L 863.76252 276.345907 
L 867.012867 273.854778 
L 870.263213 274.898236 
L 873.51356 279.462291 
L 876.763906 271.64054 
L 880.014253 272.914642 
L 883.264599 280.843373 
L 886.514945 281.141822 
L 889.765292 283.353792 
L 893.015638 281.129843 
L 896.265985 291.114937 
L 899.516331 291.438098 
L 902.766678 285.714044 
L 906.017024 293.505748 
L 909.267371 297.572307 
L 912.517717 302.34846 
L 915.768063 293.569212 
L 919.01841 293.491324 
L 922.268756 301.190666 
L 925.519103 307.648568 
L 928.769449 309.831724 
L 932.019796 304.230803 
L 935.270142 304.84211 
L 938.520489 304.225655 
L 941.770835 297.585508 
L 945.021181 297.160254 
L 948.271528 298.142902 
L 951.521874 298.301057 
L 954.772221 294.220371 
L 958.022567 293.719666 
L 964.52326 288.563875 
L 967.773607 292.460342 
L 974.274299 286.822782 
L 977.524646 283.593998 
L 980.774992 279.221434 
L 984.025339 278.447193 
L 987.275685 276.059575 
L 990.526032 277.044011 
L 993.776378 278.568845 
L 997.026725 275.237398 
L 1000.277071 274.694314 
L 1003.527417 266.263866 
L 1006.777764 265.315491 
L 1010.02811 265.87069 
L 1013.278457 274.197949 
L 1016.528803 275.525742 
L 1019.77915 273.171494 
L 1023.029496 271.097586 
L 1026.279843 269.345598 
L 1029.530189 273.482505 
L 1032.780535 268.68314 
L 1036.030882 267.562754 
L 1042.531575 259.653154 
L 1045.781921 250.786073 
L 1049.032268 238.15139 
L 1052.282614 233.500535 
L 1055.532961 231.136711 
L 1058.783307 229.140345 
L 1062.033653 225.686302 
L 1065.284 224.318592 
L 1068.534346 221.150042 
L 1071.784693 221.188027 
L 1075.035039 225.305687 
L 1078.285386 219.2385 
L 1081.535732 223.165687 
L 1084.786079 220.077771 
L 1088.036425 220.429109 
L 1091.286771 219.735877 
L 1094.537118 216.718216 
L 1097.787464 213.325583 
L 1101.037811 209.233729 
L 1104.288157 203.854285 
L 1107.538504 204.97902 
L 1110.78885 206.765996 
L 1117.289543 201.166209 
L 1120.539889 194.429579 
L 1123.790236 186.871845 
L 1127.040582 177.105133 
L 1130.290929 174.339143 
L 1133.541275 172.730432 
L 1136.791622 174.563469 
L 1140.041968 172.470801 
L 1143.292315 176.651731 
L 1146.542661 174.502461 
L 1149.793007 170.577127 
L 1153.043354 168.08024 
L 1156.2937 176.522488 
L 1159.544047 176.095627 
L 1162.794393 174.338085 
L 1166.04474 177.263467 
L 1169.295086 175.629233 
L 1172.545433 170.059093 
L 1175.795779 165.381064 
L 1179.046125 161.957719 
L 1182.296472 163.031509 
L 1185.546818 160.248942 
L 1188.797165 158.933933 
L 1192.047511 156.361675 
L 1195.297858 158.65455 
L 1198.548204 157.052798 
L 1201.798551 153.542989 
L 1205.048897 149.673968 
L 1208.299243 145.485849 
L 1211.54959 139.146137 
L 1214.799936 136.580985 
L 1218.050283 131.847205 
L 1221.300629 122.315296 
L 1224.550976 121.486873 
L 1227.801322 123.543291 
L 1231.051669 124.020301 
L 1234.302015 111.680073 
L 1237.552361 108.613422 
L 1240.802708 107.545253 
L 1244.053054 101.283696 
L 1247.303401 99.1056 
L 1250.553747 97.261647 
L 1253.804094 97.439662 
L 1257.05444 89.381833 
L 1260.304787 91.059379 
L 1263.555133 89.480356 
L 1266.805479 94.257422 
L 1270.055826 88.572681 
L 1273.306172 85.232509 
L 1276.556519 81.197036 
L 1279.806865 83.097005 
L 1283.057212 82.001382 
L 1286.307558 75.557562 
L 1289.557905 72.57927 
L 1292.808251 69.311835 
L 1296.058597 65.127325 
L 1296.058597 65.127325 
" style="fill:none;stroke:#1f77b4;stroke-linecap:square;stroke-width:1.5;"/>
   </g>
   <g id="patch_3">
    <path d="M 104.969143 323.03346 
L 104.969143 52.84608 
" style="fill:none;stroke:#000000;stroke-linecap:square;stroke-linejoin:miter;stroke-width:0.8;"/>
   </g>
   <g id="patch_4">
    <path d="M 1352.777143 323.03346 
L 1352.777143 52.84608 
" style="fill:none;stroke:#000000;stroke-linecap:square;stroke-linejoin:miter;stroke-width:0.8;"/>
   </g>
   <g id="patch_5">
    <path d="M 104.969143 323.03346 
L 1352.777143 323.03346 
" style="fill:none;stroke:#000000;stroke-linecap:square;stroke-linejoin:miter;stroke-width:0.8;"/>
   </g>
   <g id="patch_6">
    <path d="M 104.969143 52.84608 
L 1352.777143 52.84608 
" style="fill:none;stroke:#000000;stroke-linecap:square;stroke-linejoin:miter;stroke-width:0.8;"/>
   </g>
   <g id="text_8">
    <!-- Pos: RMSE 1.8591633137229855 m -->
    <g transform="translate(621.33908 46.84608)scale(0.12 -0.12)">
     <defs>
      <path d="M 1259 4147 
L 1259 2394 
L 2053 2394 
Q 2494 2394 2734 2622 
Q 2975 2850 2975 3272 
Q 2975 3691 2734 3919 
Q 2494 4147 2053 4147 
L 1259 4147 
z
M 628 4666 
L 2053 4666 
Q 2838 4666 3239 4311 
Q 3641 3956 3641 3272 
Q 3641 2581 3239 2228 
Q 2838 1875 2053 1875 
L 1259 1875 
L 1259 0 
L 628 0 
L 628 4666 
z
" id="DejaVuSans-50" transform="scale(0.015625)"/>
      <path d="M 1959 3097 
Q 1497 3097 1228 2736 
Q 959 2375 959 1747 
Q 959 1119 1226 758 
Q 1494 397 1959 397 
Q 2419 397 2687 759 
Q 2956 1122 2956 1747 
Q 2956 2369 2687 2733 
Q 2419 3097 1959 3097 
z
M 1959 3584 
Q 2709 3584 3137 3096 
Q 3566 2609 3566 1747 
Q 3566 888 3137 398 
Q 2709 -91 1959 -91 
Q 1206 -91 779 398 
Q 353 888 353 1747 
Q 353 2609 779 3096 
Q 1206 3584 1959 3584 
z
" id="DejaVuSans-6f" transform="scale(0.015625)"/>
      <path d="M 2834 3397 
L 2834 2853 
Q 2591 2978 2328 3040 
Q 2066 3103 1784 3103 
Q 1356 3103 1142 2972 
Q 928 2841 928 2578 
Q 928 2378 1081 2264 
Q 1234 2150 1697 2047 
L 1894 2003 
Q 2506 1872 2764 1633 
Q 3022 1394 3022 966 
Q 3022 478 2636 193 
Q 2250 -91 1575 -91 
Q 1294 -91 989 -36 
Q 684 19 347 128 
L 347 722 
Q 666 556 975 473 
Q 1284 391 1588 391 
Q 1994 391 2212 530 
Q 2431 669 2431 922 
Q 2431 1156 2273 1281 
Q 2116 1406 1581 1522 
L 1381 1569 
Q 847 1681 609 1914 
Q 372 2147 372 2553 
Q 372 3047 722 3315 
Q 1072 3584 1716 3584 
Q 2034 3584 2315 3537 
Q 2597 3491 2834 3397 
z
" id="DejaVuSans-73" transform="scale(0.015625)"/>
      <path d="M 750 794 
L 1409 794 
L 1409 0 
L 750 0 
L 750 794 
z
M 750 3309 
L 1409 3309 
L 1409 2516 
L 750 2516 
L 750 3309 
z
" id="DejaVuSans-3a" transform="scale(0.015625)"/>
      <path id="DejaVuSans-20" transform="scale(0.015625)"/>
      <path d="M 2841 2188 
Q 3044 2119 3236 1894 
Q 3428 1669 3622 1275 
L 4263 0 
L 3584 0 
L 2988 1197 
Q 2756 1666 2539 1819 
Q 2322 1972 1947 1972 
L 1259 1972 
L 1259 0 
L 628 0 
L 628 4666 
L 2053 4666 
Q 2853 4666 3247 4331 
Q 3641 3997 3641 3322 
Q 3641 2881 3436 2590 
Q 3231 2300 2841 2188 
z
M 1259 4147 
L 1259 2491 
L 2053 2491 
Q 2509 2491 2742 2702 
Q 2975 2913 2975 3322 
Q 2975 3731 2742 3939 
Q 2509 4147 2053 4147 
L 1259 4147 
z
" id="DejaVuSans-52" transform="scale(0.015625)"/>
      <path d="M 628 4666 
L 1569 4666 
L 2759 1491 
L 3956 4666 
L 4897 4666 
L 4897 0 
L 4281 0 
L 4281 4097 
L 3078 897 
L 2444 897 
L 1241 4097 
L 1241 0 
L 628 0 
L 628 4666 
z
" id="DejaVuSans-4d" transform="scale(0.015625)"/>
      <path d="M 3425 4513 
L 3425 3897 
Q 3066 4069 2747 4153 
Q 2428 4238 2131 4238 
Q 1616 4238 1336 4038 
Q 1056 3838 1056 3469 
Q 1056 3159 1242 3001 
Q 1428 2844 1947 2747 
L 2328 2669 
Q 3034 2534 3370 2195 
Q 3706 1856 3706 1288 
Q 3706 609 3251 259 
Q 2797 -91 1919 -91 
Q 1588 -91 1214 -16 
Q 841 59 441 206 
L 441 856 
Q 825 641 1194 531 
Q 1563 422 1919 422 
Q 2459 422 2753 634 
Q 3047 847 3047 1241 
Q 3047 1584 2836 1778 
Q 2625 1972 2144 2069 
L 1759 2144 
Q 1053 2284 737 2584 
Q 422 2884 422 3419 
Q 422 4038 858 4394 
Q 1294 4750 2059 4750 
Q 2388 4750 2728 4690 
Q 3069 4631 3425 4513 
z
" id="DejaVuSans-53" transform="scale(0.015625)"/>
      <path d="M 628 4666 
L 3578 4666 
L 3578 4134 
L 1259 4134 
L 1259 2753 
L 3481 2753 
L 3481 2222 
L 1259 2222 
L 1259 531 
L 3634 531 
L 3634 0 
L 628 0 
L 628 4666 
z
" id="DejaVuSans-45" transform="scale(0.015625)"/>
      <path d="M 684 794 
L 1344 794 
L 1344 0 
L 684 0 
L 684 794 
z
" id="DejaVuSans-2e" transform="scale(0.015625)"/>
      <path d="M 2034 2216 
Q 1584 2216 1326 1975 
Q 1069 1734 1069 1313 
Q 1069 891 1326 650 
Q 1584 409 2034 409 
Q 2484 409 2743 651 
Q 3003 894 3003 1313 
Q 3003 1734 2745 1975 
Q 2488 2216 2034 2216 
z
M 1403 2484 
Q 997 2584 770 2862 
Q 544 3141 544 3541 
Q 544 4100 942 4425 
Q 1341 4750 2034 4750 
Q 2731 4750 3128 4425 
Q 3525 4100 3525 3541 
Q 3525 3141 3298 2862 
Q 3072 2584 2669 2484 
Q 3125 2378 3379 2068 
Q 3634 1759 3634 1313 
Q 3634 634 3220 271 
Q 2806 -91 2034 -91 
Q 1263 -91 848 271 
Q 434 634 434 1313 
Q 434 1759 690 2068 
Q 947 2378 1403 2484 
z
M 1172 3481 
Q 1172 3119 1398 2916 
Q 1625 2713 2034 2713 
Q 2441 2713 2670 2916 
Q 2900 3119 2900 3481 
Q 2900 3844 2670 4047 
Q 2441 4250 2034 4250 
Q 1625 4250 1398 4047 
Q 1172 3844 1172 3481 
z
" id="DejaVuSans-38" transform="scale(0.015625)"/>
      <path d="M 703 97 
L 703 672 
Q 941 559 1184 500 
Q 1428 441 1663 441 
Q 2288 441 2617 861 
Q 2947 1281 2994 2138 
Q 2813 1869 2534 1725 
Q 2256 1581 1919 1581 
Q 1219 1581 811 2004 
Q 403 2428 403 3163 
Q 403 3881 828 4315 
Q 1253 4750 1959 4750 
Q 2769 4750 3195 4129 
Q 3622 3509 3622 2328 
Q 3622 1225 3098 567 
Q 2575 -91 1691 -91 
Q 1453 -91 1209 -44 
Q 966 3 703 97 
z
M 1959 2075 
Q 2384 2075 2632 2365 
Q 2881 2656 2881 3163 
Q 2881 3666 2632 3958 
Q 2384 4250 1959 4250 
Q 1534 4250 1286 3958 
Q 1038 3666 1038 3163 
Q 1038 2656 1286 2365 
Q 1534 2075 1959 2075 
z
" id="DejaVuSans-39" transform="scale(0.015625)"/>
      <path d="M 2113 2584 
Q 1688 2584 1439 2293 
Q 1191 2003 1191 1497 
Q 1191 994 1439 701 
Q 1688 409 2113 409 
Q 2538 409 2786 701 
Q 3034 994 3034 1497 
Q 3034 2003 2786 2293 
Q 2538 2584 2113 2584 
z
M 3366 4563 
L 3366 3988 
Q 3128 4100 2886 4159 
Q 2644 4219 2406 4219 
Q 1781 4219 1451 3797 
Q 1122 3375 1075 2522 
Q 1259 2794 1537 2939 
Q 1816 3084 2150 3084 
Q 2853 3084 3261 2657 
Q 3669 2231 3669 1497 
Q 3669 778 3244 343 
Q 2819 -91 2113 -91 
Q 1303 -91 875 529 
Q 447 1150 447 2328 
Q 447 3434 972 4092 
Q 1497 4750 2381 4750 
Q 2619 4750 2861 4703 
Q 3103 4656 3366 4563 
z
" id="DejaVuSans-36" transform="scale(0.015625)"/>
      <path d="M 525 4666 
L 3525 4666 
L 3525 4397 
L 1831 0 
L 1172 0 
L 2766 4134 
L 525 4134 
L 525 4666 
z
" id="DejaVuSans-37" transform="scale(0.015625)"/>
     </defs>
     <use xlink:href="#DejaVuSans-50"/>
     <use x="56.677734" xlink:href="#DejaVuSans-6f"/>
     <use x="117.859375" xlink:href="#DejaVuSans-73"/>
     <use x="169.958984" xlink:href="#DejaVuSans-3a"/>
     <use x="203.650391" xlink:href="#DejaVuSans-20"/>
     <use x="235.4375" xlink:href="#DejaVuSans-52"/>
     <use x="304.919922" xlink:href="#DejaVuSans-4d"/>
     <use x="391.199219" xlink:href="#DejaVuSans-53"/>
     <use x="454.675781" xlink:href="#DejaVuSans-45"/>
     <use x="517.859375" xlink:href="#DejaVuSans-20"/>
     <use x="549.646484" xlink:href="#DejaVuSans-31"/>
     <use x="613.269531" xlink:href="#DejaVuSans-2e"/>
     <use x="645.056641" xlink:href="#DejaVuSans-38"/>
     <use x="708.679688" xlink:href="#DejaVuSans-35"/>
     <use x="772.302734" xlink:href="#DejaVuSans-39"/>
     <use x="835.925781" xlink:href="#DejaVuSans-31"/>
     <use x="899.548828" xlink:href="#DejaVuSans-36"/>
     <use x="963.171875" xlink:href="#DejaVuSans-33"/>
     <use x="1026.794922" xlink:href="#DejaVuSans-33"/>
     <use x="1090.417969" xlink:href="#DejaVuSans-31"/>
     <use x="1154.041016" xlink:href="#DejaVuSans-33"/>
     <use x="1217.664062" xlink:href="#DejaVuSans-37"/>
     <use x="1281.287109" xlink:href="#DejaVuSans-32"/>
     <use x="1344.910156" xlink:href="#DejaVuSans-32"/>
     <use x="1408.533203" xlink:href="#DejaVuSans-39"/>
     <use x="1472.15625" xlink:href="#DejaVuSans-38"/>
     <use x="1535.779297" xlink:href="#DejaVuSans-35"/>
     <use x="1599.402344" xlink:href="#DejaVuSans-35"/>
     <use x="1663.025391" xlink:href="#DejaVuSans-20"/>
     <use x="1694.8125" xlink:href="#DejaVuSans-6d"/>
    </g>
   </g>
  </g>
  <g id="axes_2">
   <g id="patch_7">
    <path d="M 104.969143 652.94792 
L 1352.777143 652.94792 
L 1352.777143 382.76054 
L 104.969143 382.76054 
z
" style="fill:#ffffff;"/>
   </g>
   <g id="matplotlib.axis_3">
    <g id="xtick_9">
     <g id="line2d_16">
      <g>
       <use style="stroke:#000000;stroke-width:0.8;" x="161.687688" xlink:href="#m1ddf51c5e4" y="652.94792"/>
      </g>
     </g>
     <g id="text_9">
      <!-- 0 -->
      <g transform="translate(158.506438 667.546357)scale(0.1 -0.1)">
       <use xlink:href="#DejaVuSans-30"/>
      </g>
     </g>
    </g>
    <g id="xtick_10">
     <g id="line2d_17">
      <g>
       <use style="stroke:#000000;stroke-width:0.8;" x="324.205011" xlink:href="#m1ddf51c5e4" y="652.94792"/>
      </g>
     </g>
     <g id="text_10">
      <!-- 50 -->
      <g transform="translate(317.842511 667.546357)scale(0.1 -0.1)">
       <use xlink:href="#DejaVuSans-35"/>
       <use x="63.623047" xlink:href="#DejaVuSans-30"/>
      </g>
     </g>
    </g>
    <g id="xtick_11">
     <g id="line2d_18">
      <g>
       <use style="stroke:#000000;stroke-width:0.8;" x="486.722333" xlink:href="#m1ddf51c5e4" y="652.94792"/>
      </g>
     </g>
     <g id="text_11">
      <!-- 100 -->
      <g transform="translate(477.178583 667.546357)scale(0.1 -0.1)">
       <use xlink:href="#DejaVuSans-31"/>
       <use x="63.623047" xlink:href="#DejaVuSans-30"/>
       <use x="127.246094" xlink:href="#DejaVuSans-30"/>
      </g>
     </g>
    </g>
    <g id="xtick_12">
     <g id="line2d_19">
      <g>
       <use style="stroke:#000000;stroke-width:0.8;" x="649.239655" xlink:href="#m1ddf51c5e4" y="652.94792"/>
      </g>
     </g>
     <g id="text_12">
      <!-- 150 -->
      <g transform="translate(639.695905 667.546357)scale(0.1 -0.1)">
       <use xlink:href="#DejaVuSans-31"/>
       <use x="63.623047" xlink:href="#DejaVuSans-35"/>
       <use x="127.246094" xlink:href="#DejaVuSans-30"/>
      </g>
     </g>
    </g>
    <g id="xtick_13">
     <g id="line2d_20">
      <g>
       <use style="stroke:#000000;stroke-width:0.8;" x="811.756977" xlink:href="#m1ddf51c5e4" y="652.94792"/>
      </g>
     </g>
     <g id="text_13">
      <!-- 200 -->
      <g transform="translate(802.213227 667.546357)scale(0.1 -0.1)">
       <use xlink:href="#DejaVuSans-32"/>
       <use x="63.623047" xlink:href="#DejaVuSans-30"/>
       <use x="127.246094" xlink:href="#DejaVuSans-30"/>
      </g>
     </g>
    </g>
    <g id="xtick_14">
     <g id="line2d_21">
      <g>
       <use style="stroke:#000000;stroke-width:0.8;" x="974.274299" xlink:href="#m1ddf51c5e4" y="652.94792"/>
      </g>
     </g>
     <g id="text_14">
      <!-- 250 -->
      <g transform="translate(964.730549 667.546357)scale(0.1 -0.1)">
       <use xlink:href="#DejaVuSans-32"/>
       <use x="63.623047" xlink:href="#DejaVuSans-35"/>
       <use x="127.246094" xlink:href="#DejaVuSans-30"/>
      </g>
     </g>
    </g>
    <g id="xtick_15">
     <g id="line2d_22">
      <g>
       <use style="stroke:#000000;stroke-width:0.8;" x="1136.791622" xlink:href="#m1ddf51c5e4" y="652.94792"/>
      </g>
     </g>
     <g id="text_15">
      <!-- 300 -->
      <g transform="translate(1127.247872 667.546357)scale(0.1 -0.1)">
       <use xlink:href="#DejaVuSans-33"/>
       <use x="63.623047" xlink:href="#DejaVuSans-30"/>
       <use x="127.246094" xlink:href="#DejaVuSans-30"/>
      </g>
     </g>
    </g>
    <g id="xtick_16">
     <g id="line2d_23">
      <g>
       <use style="stroke:#000000;stroke-width:0.8;" x="1299.308944" xlink:href="#m1ddf51c5e4" y="652.94792"/>
      </g>
     </g>
     <g id="text_16">
      <!-- 350 -->
      <g transform="translate(1289.765194 667.546357)scale(0.1 -0.1)">
       <use xlink:href="#DejaVuSans-33"/>
       <use x="63.623047" xlink:href="#DejaVuSans-35"/>
       <use x="127.246094" xlink:href="#DejaVuSans-30"/>
      </g>
     </g>
    </g>
   </g>
   <g id="matplotlib.axis_4">
    <g id="ytick_7">
     <g id="line2d_24">
      <g>
       <use style="stroke:#000000;stroke-width:0.8;" x="104.969143" xlink:href="#m0e20d1c2c2" y="640.666675"/>
      </g>
     </g>
     <g id="text_17">
      <!-- 0 -->
      <g transform="translate(91.606643 644.465894)scale(0.1 -0.1)">
       <use xlink:href="#DejaVuSans-30"/>
      </g>
     </g>
    </g>
    <g id="ytick_8">
     <g id="line2d_25">
      <g>
       <use style="stroke:#000000;stroke-width:0.8;" x="104.969143" xlink:href="#m0e20d1c2c2" y="602.50945"/>
      </g>
     </g>
     <g id="text_18">
      <!-- 1 -->
      <g transform="translate(91.606643 606.308669)scale(0.1 -0.1)">
       <use xlink:href="#DejaVuSans-31"/>
      </g>
     </g>
    </g>
    <g id="ytick_9">
     <g id="line2d_26">
      <g>
       <use style="stroke:#000000;stroke-width:0.8;" x="104.969143" xlink:href="#m0e20d1c2c2" y="564.352225"/>
      </g>
     </g>
     <g id="text_19">
      <!-- 2 -->
      <g transform="translate(91.606643 568.151444)scale(0.1 -0.1)">
       <use xlink:href="#DejaVuSans-32"/>
      </g>
     </g>
    </g>
    <g id="ytick_10">
     <g id="line2d_27">
      <g>
       <use style="stroke:#000000;stroke-width:0.8;" x="104.969143" xlink:href="#m0e20d1c2c2" y="526.195"/>
      </g>
     </g>
     <g id="text_20">
      <!-- 3 -->
      <g transform="translate(91.606643 529.994219)scale(0.1 -0.1)">
       <use xlink:href="#DejaVuSans-33"/>
      </g>
     </g>
    </g>
    <g id="ytick_11">
     <g id="line2d_28">
      <g>
       <use style="stroke:#000000;stroke-width:0.8;" x="104.969143" xlink:href="#m0e20d1c2c2" y="488.037775"/>
      </g>
     </g>
     <g id="text_21">
      <!-- 4 -->
      <g transform="translate(91.606643 491.836994)scale(0.1 -0.1)">
       <use xlink:href="#DejaVuSans-34"/>
      </g>
     </g>
    </g>
    <g id="ytick_12">
     <g id="line2d_29">
      <g>
       <use style="stroke:#000000;stroke-width:0.8;" x="104.969143" xlink:href="#m0e20d1c2c2" y="449.88055"/>
      </g>
     </g>
     <g id="text_22">
      <!-- 5 -->
      <g transform="translate(91.606643 453.679769)scale(0.1 -0.1)">
       <use xlink:href="#DejaVuSans-35"/>
      </g>
     </g>
    </g>
    <g id="ytick_13">
     <g id="line2d_30">
      <g>
       <use style="stroke:#000000;stroke-width:0.8;" x="104.969143" xlink:href="#m0e20d1c2c2" y="411.723325"/>
      </g>
     </g>
     <g id="text_23">
      <!-- 6 -->
      <g transform="translate(91.606643 415.522544)scale(0.1 -0.1)">
       <use xlink:href="#DejaVuSans-36"/>
      </g>
     </g>
    </g>
    <g id="text_24">
     <!-- [deg] -->
     <g transform="translate(85.526955 531.180793)rotate(-90)scale(0.1 -0.1)">
      <defs>
       <path d="M 2906 2969 
L 2906 4863 
L 3481 4863 
L 3481 0 
L 2906 0 
L 2906 525 
Q 2725 213 2448 61 
Q 2172 -91 1784 -91 
Q 1150 -91 751 415 
Q 353 922 353 1747 
Q 353 2572 751 3078 
Q 1150 3584 1784 3584 
Q 2172 3584 2448 3432 
Q 2725 3281 2906 2969 
z
M 947 1747 
Q 947 1113 1208 752 
Q 1469 391 1925 391 
Q 2381 391 2643 752 
Q 2906 1113 2906 1747 
Q 2906 2381 2643 2742 
Q 2381 3103 1925 3103 
Q 1469 3103 1208 2742 
Q 947 2381 947 1747 
z
" id="DejaVuSans-64" transform="scale(0.015625)"/>
       <path d="M 3597 1894 
L 3597 1613 
L 953 1613 
Q 991 1019 1311 708 
Q 1631 397 2203 397 
Q 2534 397 2845 478 
Q 3156 559 3463 722 
L 3463 178 
Q 3153 47 2828 -22 
Q 2503 -91 2169 -91 
Q 1331 -91 842 396 
Q 353 884 353 1716 
Q 353 2575 817 3079 
Q 1281 3584 2069 3584 
Q 2775 3584 3186 3129 
Q 3597 2675 3597 1894 
z
M 3022 2063 
Q 3016 2534 2758 2815 
Q 2500 3097 2075 3097 
Q 1594 3097 1305 2825 
Q 1016 2553 972 2059 
L 3022 2063 
z
" id="DejaVuSans-65" transform="scale(0.015625)"/>
       <path d="M 2906 1791 
Q 2906 2416 2648 2759 
Q 2391 3103 1925 3103 
Q 1463 3103 1205 2759 
Q 947 2416 947 1791 
Q 947 1169 1205 825 
Q 1463 481 1925 481 
Q 2391 481 2648 825 
Q 2906 1169 2906 1791 
z
M 3481 434 
Q 3481 -459 3084 -895 
Q 2688 -1331 1869 -1331 
Q 1566 -1331 1297 -1286 
Q 1028 -1241 775 -1147 
L 775 -588 
Q 1028 -725 1275 -790 
Q 1522 -856 1778 -856 
Q 2344 -856 2625 -561 
Q 2906 -266 2906 331 
L 2906 616 
Q 2728 306 2450 153 
Q 2172 0 1784 0 
Q 1141 0 747 490 
Q 353 981 353 1791 
Q 353 2603 747 3093 
Q 1141 3584 1784 3584 
Q 2172 3584 2450 3431 
Q 2728 3278 2906 2969 
L 2906 3500 
L 3481 3500 
L 3481 434 
z
" id="DejaVuSans-67" transform="scale(0.015625)"/>
      </defs>
      <use xlink:href="#DejaVuSans-5b"/>
      <use x="39.013672" xlink:href="#DejaVuSans-64"/>
      <use x="102.490234" xlink:href="#DejaVuSans-65"/>
      <use x="164.013672" xlink:href="#DejaVuSans-67"/>
      <use x="227.490234" xlink:href="#DejaVuSans-5d"/>
     </g>
    </g>
   </g>
   <g id="line2d_31">
    <path clip-path="url(#p2fe885ed82)" d="M 161.687688 640.666675 
L 164.938035 608.780619 
L 168.188381 602.822735 
L 171.438728 632.882136 
L 174.689074 564.412232 
L 177.939421 480.978877 
L 181.189767 483.659443 
L 184.440113 474.949424 
L 187.69046 534.461319 
L 190.940806 519.672941 
L 194.191153 460.508184 
L 197.441499 418.497155 
L 200.691846 493.697991 
L 203.942192 414.52525 
L 207.192539 421.153095 
L 210.442885 513.89196 
L 213.693231 518.846565 
L 216.943578 496.950121 
L 220.193924 570.30092 
L 223.444271 536.964972 
L 226.694617 559.92905 
L 229.944964 558.197509 
L 233.19531 560.300763 
L 236.445657 520.435098 
L 239.696003 510.427594 
L 242.946349 576.259205 
L 246.196696 549.194135 
L 249.447042 510.409737 
L 252.697389 592.995506 
L 255.947735 566.231108 
L 259.198082 531.553665 
L 262.448428 564.840533 
L 265.698775 610.951251 
L 268.949121 598.618729 
L 272.199467 550.882996 
L 275.449814 572.018343 
L 278.70016 540.144933 
L 281.950507 598.066688 
L 285.200853 548.826771 
L 288.4512 596.172784 
L 291.701546 590.662429 
L 294.951893 553.182286 
L 298.202239 596.068338 
L 301.452585 588.932843 
L 304.702932 584.981569 
L 307.953278 570.394683 
L 311.203625 537.241945 
L 314.453971 558.481167 
L 317.704318 528.092309 
L 320.954664 511.042973 
L 324.205011 487.754105 
L 327.455357 489.293163 
L 330.705703 425.181519 
L 333.95605 539.843295 
L 337.206396 624.801138 
L 340.456743 602.78115 
L 343.707089 588.423582 
L 346.957436 546.305946 
L 350.207782 585.786597 
L 353.458129 497.694141 
L 356.708475 484.607117 
L 359.958821 582.207907 
L 363.209168 565.212196 
L 366.459514 605.068069 
L 369.709861 598.202577 
L 372.960207 582.742888 
L 376.210554 582.892129 
L 379.4609 620.057494 
L 382.711247 583.758264 
L 385.961593 574.165035 
L 389.211939 502.326104 
L 392.462286 480.731236 
L 395.712632 498.489531 
L 398.962979 444.481682 
L 402.213325 498.592482 
L 405.463672 523.469189 
L 408.714018 514.239264 
L 411.964365 516.232446 
L 415.214711 528.435841 
L 418.465057 557.118916 
L 421.715404 532.356311 
L 424.96575 519.96513 
L 428.216097 518.890084 
L 431.466443 519.257127 
L 434.71679 497.906087 
L 437.967136 471.615823 
L 441.217483 525.419674 
L 444.467829 567.700404 
L 447.718175 536.948198 
L 450.968522 577.884736 
L 454.218868 530.67482 
L 457.469215 591.927961 
L 460.719561 604.519663 
L 463.969908 618.241418 
L 467.220254 527.44516 
L 470.470601 499.8641 
L 473.720947 596.984136 
L 476.971293 553.08821 
L 480.22164 482.034887 
L 483.471986 478.614144 
L 486.722333 454.282675 
L 489.972679 548.740852 
L 493.223026 538.957709 
L 496.473372 503.26018 
L 499.723719 522.340112 
L 502.974065 545.457846 
L 506.224411 495.380569 
L 509.474758 573.900152 
L 512.725104 601.464241 
L 515.975451 547.737493 
L 519.225797 522.077919 
L 522.476144 521.883439 
L 525.72649 522.443626 
L 528.976837 531.250715 
L 532.227183 487.776786 
L 535.477529 491.33053 
L 538.727876 507.735996 
L 541.978222 454.124443 
L 545.228569 459.822521 
L 548.478915 468.719963 
L 551.729262 514.807125 
L 554.979608 426.983621 
L 558.229955 514.643872 
L 561.480301 567.737541 
L 564.730647 559.283115 
L 567.980994 543.524795 
L 571.23134 517.963912 
L 574.481687 489.731463 
L 577.732033 505.611962 
L 580.98238 464.293544 
L 584.232726 447.439907 
L 587.483073 427.148803 
L 590.733419 477.212003 
L 593.983765 521.302685 
L 597.234112 525.458373 
L 600.484458 534.108808 
L 603.734805 510.374328 
L 606.985151 499.390896 
L 610.235498 468.460332 
L 613.485844 480.726003 
L 616.736191 428.800049 
L 619.986537 444.98155 
L 623.236883 487.818345 
L 626.48723 466.791527 
L 629.737576 512.04306 
L 632.987923 594.926538 
L 636.238269 572.019088 
L 639.488616 568.837176 
L 642.738962 493.918141 
L 645.989309 535.49742 
L 649.239655 542.143082 
L 652.490001 562.339698 
L 655.740348 525.85099 
L 658.990694 558.621001 
L 662.241041 573.672462 
L 665.491387 542.032088 
L 668.741734 550.896006 
L 671.99208 578.677486 
L 675.242427 539.968827 
L 678.492773 509.121723 
L 681.743119 461.240625 
L 684.993466 555.934939 
L 691.494159 498.782031 
L 694.744505 518.992274 
L 697.994852 594.61731 
L 701.245198 594.203605 
L 704.495545 590.705914 
L 707.745891 523.485316 
L 710.996237 530.533377 
L 714.246584 537.113191 
L 717.49693 549.943992 
L 720.747277 520.600748 
L 723.997623 520.869536 
L 727.24797 510.560373 
L 730.498316 554.759032 
L 733.748663 517.788208 
L 736.999009 489.94989 
L 740.249355 513.436721 
L 743.499702 531.519004 
L 746.750048 538.573279 
L 750.000395 523.636495 
L 753.250741 560.563726 
L 756.501088 624.115692 
L 759.751434 578.538189 
L 763.001781 602.654127 
L 766.252127 528.111838 
L 769.502473 511.887007 
L 772.75282 569.688971 
L 776.003166 554.343594 
L 779.253513 581.455114 
L 782.503859 563.617969 
L 785.754206 579.125009 
L 789.004552 527.100963 
L 792.254899 558.652677 
L 795.505245 556.159727 
L 798.755591 520.488305 
L 802.005938 474.566737 
L 805.256284 544.984021 
L 808.506631 550.171572 
L 811.756977 603.328826 
L 815.007324 637.509105 
L 818.25767 617.084436 
L 821.508017 590.391771 
L 824.758363 629.129333 
L 828.008709 620.340345 
L 831.259056 624.296764 
L 834.509402 631.808917 
L 837.759749 591.016932 
L 841.010095 536.431376 
L 844.260442 533.319366 
L 847.510788 478.275096 
L 850.761135 507.863869 
L 854.011481 555.627247 
L 857.261827 559.828943 
L 860.512174 567.855101 
L 863.76252 634.969994 
L 867.012867 584.791423 
L 870.263213 516.998262 
L 873.51356 573.65114 
L 876.763906 510.076523 
L 880.014253 507.632424 
L 883.264599 563.067502 
L 886.514945 538.153895 
L 889.765292 542.39341 
L 893.015638 508.809806 
L 896.265985 528.1432 
L 899.516331 551.131678 
L 902.766678 571.750347 
L 906.017024 576.433477 
L 909.267371 539.463539 
L 912.517717 550.304701 
L 915.768063 586.572864 
L 922.268756 638.974749 
L 925.519103 623.723812 
L 928.769449 613.691766 
L 932.019796 572.377929 
L 935.270142 584.819184 
L 938.520489 588.543422 
L 941.770835 475.193739 
L 945.021181 470.023454 
L 948.271528 523.821367 
L 951.521874 458.364276 
L 954.772221 462.690404 
L 958.022567 570.011412 
L 961.272914 596.854956 
L 964.52326 589.912815 
L 967.773607 628.450036 
L 971.023953 603.458464 
L 974.274299 581.712367 
L 977.524646 544.074935 
L 980.774992 569.27876 
L 984.025339 523.839837 
L 987.275685 547.663453 
L 990.526032 593.927377 
L 993.776378 585.387561 
L 997.026725 552.766507 
L 1000.277071 559.626452 
L 1003.527417 543.556251 
L 1006.777764 536.3288 
L 1010.02811 549.230255 
L 1013.278457 576.29873 
L 1016.528803 552.314235 
L 1019.77915 591.982534 
L 1023.029496 559.325921 
L 1026.279843 553.859717 
L 1029.530189 563.425194 
L 1032.780535 612.815702 
L 1036.030882 533.706053 
L 1039.281228 512.444371 
L 1042.531575 482.245976 
L 1045.781921 479.352448 
L 1049.032268 520.741416 
L 1052.282614 488.083395 
L 1055.532961 486.079096 
L 1058.783307 515.27142 
L 1062.033653 506.45938 
L 1065.284 558.513908 
L 1068.534346 564.574678 
L 1071.784693 567.089487 
L 1075.035039 529.797567 
L 1081.535732 567.466215 
L 1084.786079 592.117712 
L 1088.036425 501.305731 
L 1091.286771 531.175104 
L 1094.537118 523.169587 
L 1097.787464 534.605309 
L 1101.037811 519.867559 
L 1104.288157 510.536905 
L 1107.538504 578.036326 
L 1110.78885 512.442721 
L 1114.039197 542.513159 
L 1117.289543 549.60318 
L 1120.539889 583.284951 
L 1123.790236 534.705079 
L 1127.040582 537.951716 
L 1130.290929 512.656432 
L 1133.541275 590.598756 
L 1136.791622 576.664277 
L 1140.041968 557.791134 
L 1143.292315 534.647494 
L 1146.542661 462.275748 
L 1149.793007 572.681336 
L 1153.043354 598.52586 
L 1156.2937 598.039846 
L 1159.544047 629.349231 
L 1162.794393 523.1133 
L 1166.04474 481.691133 
L 1169.295086 464.301555 
L 1172.545433 450.862667 
L 1175.795779 511.573324 
L 1179.046125 560.074249 
L 1182.296472 561.877342 
L 1185.546818 485.977817 
L 1188.797165 527.149132 
L 1192.047511 545.804776 
L 1195.297858 584.943542 
L 1198.548204 517.509683 
L 1201.798551 580.049884 
L 1205.048897 512.690872 
L 1208.299243 534.615888 
L 1211.54959 518.711153 
L 1214.799936 470.79587 
L 1218.050283 448.695891 
L 1221.300629 487.290923 
L 1224.550976 467.211497 
L 1227.801322 484.694806 
L 1231.051669 527.913558 
L 1234.302015 561.170456 
L 1237.552361 499.100157 
L 1240.802708 461.009013 
L 1244.053054 492.507505 
L 1247.303401 481.916629 
L 1250.553747 480.50531 
L 1253.804094 395.041785 
L 1257.05444 448.223129 
L 1260.304787 484.813448 
L 1263.555133 472.697213 
L 1266.805479 477.097791 
L 1270.055826 499.430774 
L 1273.306172 514.281132 
L 1276.556519 518.244859 
L 1279.806865 504.034548 
L 1283.057212 497.310318 
L 1286.307558 503.184022 
L 1289.557905 484.171078 
L 1292.808251 494.11701 
L 1296.058597 532.086027 
L 1296.058597 532.086027 
" style="fill:none;stroke:#1f77b4;stroke-linecap:square;stroke-width:1.5;"/>
   </g>
   <g id="patch_8">
    <path d="M 104.969143 652.94792 
L 104.969143 382.76054 
" style="fill:none;stroke:#000000;stroke-linecap:square;stroke-linejoin:miter;stroke-width:0.8;"/>
   </g>
   <g id="patch_9">
    <path d="M 1352.777143 652.94792 
L 1352.777143 382.76054 
" style="fill:none;stroke:#000000;stroke-linecap:square;stroke-linejoin:miter;stroke-width:0.8;"/>
   </g>
   <g id="patch_10">
    <path d="M 104.969143 652.94792 
L 1352.777143 652.94792 
" style="fill:none;stroke:#000000;stroke-linecap:square;stroke-linejoin:miter;stroke-width:0.8;"/>
   </g>
   <g id="patch_11">
    <path d="M 104.969143 382.76054 
L 1352.777143 382.76054 
" style="fill:none;stroke:#000000;stroke-linecap:square;stroke-linejoin:miter;stroke-width:0.8;"/>
   </g>
   <g id="text_25">
    <!-- Heading: RMSE 2.996439626582102 deg -->
    <g transform="translate(604.919705 376.76054)scale(0.12 -0.12)">
     <defs>
      <path d="M 628 4666 
L 1259 4666 
L 1259 2753 
L 3553 2753 
L 3553 4666 
L 4184 4666 
L 4184 0 
L 3553 0 
L 3553 2222 
L 1259 2222 
L 1259 0 
L 628 0 
L 628 4666 
z
" id="DejaVuSans-48" transform="scale(0.015625)"/>
      <path d="M 2194 1759 
Q 1497 1759 1228 1600 
Q 959 1441 959 1056 
Q 959 750 1161 570 
Q 1363 391 1709 391 
Q 2188 391 2477 730 
Q 2766 1069 2766 1631 
L 2766 1759 
L 2194 1759 
z
M 3341 1997 
L 3341 0 
L 2766 0 
L 2766 531 
Q 2569 213 2275 61 
Q 1981 -91 1556 -91 
Q 1019 -91 701 211 
Q 384 513 384 1019 
Q 384 1609 779 1909 
Q 1175 2209 1959 2209 
L 2766 2209 
L 2766 2266 
Q 2766 2663 2505 2880 
Q 2244 3097 1772 3097 
Q 1472 3097 1187 3025 
Q 903 2953 641 2809 
L 641 3341 
Q 956 3463 1253 3523 
Q 1550 3584 1831 3584 
Q 2591 3584 2966 3190 
Q 3341 2797 3341 1997 
z
" id="DejaVuSans-61" transform="scale(0.015625)"/>
      <path d="M 603 3500 
L 1178 3500 
L 1178 0 
L 603 0 
L 603 3500 
z
M 603 4863 
L 1178 4863 
L 1178 4134 
L 603 4134 
L 603 4863 
z
" id="DejaVuSans-69" transform="scale(0.015625)"/>
      <path d="M 3513 2113 
L 3513 0 
L 2938 0 
L 2938 2094 
Q 2938 2591 2744 2837 
Q 2550 3084 2163 3084 
Q 1697 3084 1428 2787 
Q 1159 2491 1159 1978 
L 1159 0 
L 581 0 
L 581 3500 
L 1159 3500 
L 1159 2956 
Q 1366 3272 1645 3428 
Q 1925 3584 2291 3584 
Q 2894 3584 3203 3211 
Q 3513 2838 3513 2113 
z
" id="DejaVuSans-6e" transform="scale(0.015625)"/>
     </defs>
     <use xlink:href="#DejaVuSans-48"/>
     <use x="75.195312" xlink:href="#DejaVuSans-65"/>
     <use x="136.71875" xlink:href="#DejaVuSans-61"/>
     <use x="197.998047" xlink:href="#DejaVuSans-64"/>
     <use x="261.474609" xlink:href="#DejaVuSans-69"/>
     <use x="289.257812" xlink:href="#DejaVuSans-6e"/>
     <use x="352.636719" xlink:href="#DejaVuSans-67"/>
     <use x="416.113281" xlink:href="#DejaVuSans-3a"/>
     <use x="449.804688" xlink:href="#DejaVuSans-20"/>
     <use x="481.591797" xlink:href="#DejaVuSans-52"/>
     <use x="551.074219" xlink:href="#DejaVuSans-4d"/>
     <use x="637.353516" xlink:href="#DejaVuSans-53"/>
     <use x="700.830078" xlink:href="#DejaVuSans-45"/>
     <use x="764.013672" xlink:href="#DejaVuSans-20"/>
     <use x="795.800781" xlink:href="#DejaVuSans-32"/>
     <use x="859.423828" xlink:href="#DejaVuSans-2e"/>
     <use x="891.210938" xlink:href="#DejaVuSans-39"/>
     <use x="954.833984" xlink:href="#DejaVuSans-39"/>
     <use x="1018.457031" xlink:href="#DejaVuSans-36"/>
     <use x="1082.080078" xlink:href="#DejaVuSans-34"/>
     <use x="1145.703125" xlink:href="#DejaVuSans-33"/>
     <use x="1209.326172" xlink:href="#DejaVuSans-39"/>
     <use x="1272.949219" xlink:href="#DejaVuSans-36"/>
     <use x="1336.572266" xlink:href="#DejaVuSans-32"/>
     <use x="1400.195312" xlink:href="#DejaVuSans-36"/>
     <use x="1463.818359" xlink:href="#DejaVuSans-35"/>
     <use x="1527.441406" xlink:href="#DejaVuSans-38"/>
     <use x="1591.064453" xlink:href="#DejaVuSans-32"/>
     <use x="1654.6875" xlink:href="#DejaVuSans-31"/>
     <use x="1718.310547" xlink:href="#DejaVuSans-30"/>
     <use x="1781.933594" xlink:href="#DejaVuSans-32"/>
     <use x="1845.556641" xlink:href="#DejaVuSans-20"/>
     <use x="1877.34375" xlink:href="#DejaVuSans-64"/>
     <use x="1940.820312" xlink:href="#DejaVuSans-65"/>
     <use x="2002.34375" xlink:href="#DejaVuSans-67"/>
    </g>
   </g>
  </g>
 </g>
 <defs>
  <clipPath id="p53b64532ad">
   <rect height="270.18738" width="1247.808" x="104.969143" y="52.84608"/>
  </clipPath>
  <clipPath id="p2fe885ed82">
   <rect height="270.18738" width="1247.808" x="104.969143" y="382.76054"/>
  </clipPath>
 </defs>
</svg>
