<?xml version="1.0" encoding="utf-8" standalone="no"?>
<!DOCTYPE svg PUBLIC "-//W3C//DTD SVG 1.1//EN"
  "http://www.w3.org/Graphics/SVG/1.1/DTD/svg11.dtd">
<svg height="707.76pt" version="1.1" viewBox="0 0 1382.4 707.76" width="1382.4pt" xmlns="http://www.w3.org/2000/svg" xmlns:xlink="http://www.w3.org/1999/xlink">
 <metadata>
  <rdf:RDF xmlns:cc="http://creativecommons.org/ns#" xmlns:dc="http://purl.org/dc/elements/1.1/" xmlns:rdf="http://www.w3.org/1999/02/22-rdf-syntax-ns#">
   <cc:Work>
    <dc:type rdf:resource="http://purl.org/dc/dcmitype/StillImage"/>
    <dc:date>2021-11-17T15:57:18.627070</dc:date>
    <dc:format>image/svg+xml</dc:format>
    <dc:creator>
     <cc:Agent>
      <dc:title>Matplotlib v3.4.3, https://matplotlib.org/</dc:title>
     </cc:Agent>
    </dc:creator>
   </cc:Work>
  </rdf:RDF>
 </metadata>
 <defs>
  <style type="text/css">*{stroke-linecap:butt;stroke-linejoin:round;}</style>
 </defs>
 <g id="figure_1">
  <g id="patch_1">
   <path d="M 0 707.76 
L 1382.4 707.76 
L 1382.4 0 
L 0 0 
z
" style="fill:#ffffff;"/>
  </g>
  <g id="axes_1">
   <g id="patch_2">
    <path d="M 135.826286 625.26664 
L 1352.777143 625.26664 
L 1352.777143 52.84608 
L 135.826286 52.84608 
z
" style="fill:#ffffff;"/>
   </g>
   <g id="matplotlib.axis_1">
    <g id="xtick_1">
     <g id="line2d_1">
      <defs>
       <path d="M 0 0 
L 0 3.5 
" id="m26c5f5169f" style="stroke:#000000;stroke-width:0.8;"/>
      </defs>
      <g>
       <use style="stroke:#000000;stroke-width:0.8;" x="191.142234" xlink:href="#m26c5f5169f" y="625.26664"/>
      </g>
     </g>
     <g id="text_1">
      <!-- 0 -->
      <g transform="translate(187.960984 639.865077)scale(0.1 -0.1)">
       <defs>
        <path d="M 2034 4250 
Q 1547 4250 1301 3770 
Q 1056 3291 1056 2328 
Q 1056 1369 1301 889 
Q 1547 409 2034 409 
Q 2525 409 2770 889 
Q 3016 1369 3016 2328 
Q 3016 3291 2770 3770 
Q 2525 4250 2034 4250 
z
M 2034 4750 
Q 2819 4750 3233 4129 
Q 3647 3509 3647 2328 
Q 3647 1150 3233 529 
Q 2819 -91 2034 -91 
Q 1250 -91 836 529 
Q 422 1150 422 2328 
Q 422 3509 836 4129 
Q 1250 4750 2034 4750 
z
" id="DejaVuSans-30" transform="scale(0.015625)"/>
       </defs>
       <use xlink:href="#DejaVuSans-30"/>
      </g>
     </g>
    </g>
    <g id="xtick_2">
     <g id="line2d_2">
      <g>
       <use style="stroke:#000000;stroke-width:0.8;" x="349.640652" xlink:href="#m26c5f5169f" y="625.26664"/>
      </g>
     </g>
     <g id="text_2">
      <!-- 50 -->
      <g transform="translate(343.278152 639.865077)scale(0.1 -0.1)">
       <defs>
        <path d="M 691 4666 
L 3169 4666 
L 3169 4134 
L 1269 4134 
L 1269 2991 
Q 1406 3038 1543 3061 
Q 1681 3084 1819 3084 
Q 2600 3084 3056 2656 
Q 3513 2228 3513 1497 
Q 3513 744 3044 326 
Q 2575 -91 1722 -91 
Q 1428 -91 1123 -41 
Q 819 9 494 109 
L 494 744 
Q 775 591 1075 516 
Q 1375 441 1709 441 
Q 2250 441 2565 725 
Q 2881 1009 2881 1497 
Q 2881 1984 2565 2268 
Q 2250 2553 1709 2553 
Q 1456 2553 1204 2497 
Q 953 2441 691 2322 
L 691 4666 
z
" id="DejaVuSans-35" transform="scale(0.015625)"/>
       </defs>
       <use xlink:href="#DejaVuSans-35"/>
       <use x="63.623047" xlink:href="#DejaVuSans-30"/>
      </g>
     </g>
    </g>
    <g id="xtick_3">
     <g id="line2d_3">
      <g>
       <use style="stroke:#000000;stroke-width:0.8;" x="508.139071" xlink:href="#m26c5f5169f" y="625.26664"/>
      </g>
     </g>
     <g id="text_3">
      <!-- 100 -->
      <g transform="translate(498.595321 639.865077)scale(0.1 -0.1)">
       <defs>
        <path d="M 794 531 
L 1825 531 
L 1825 4091 
L 703 3866 
L 703 4441 
L 1819 4666 
L 2450 4666 
L 2450 531 
L 3481 531 
L 3481 0 
L 794 0 
L 794 531 
z
" id="DejaVuSans-31" transform="scale(0.015625)"/>
       </defs>
       <use xlink:href="#DejaVuSans-31"/>
       <use x="63.623047" xlink:href="#DejaVuSans-30"/>
       <use x="127.246094" xlink:href="#DejaVuSans-30"/>
      </g>
     </g>
    </g>
    <g id="xtick_4">
     <g id="line2d_4">
      <g>
       <use style="stroke:#000000;stroke-width:0.8;" x="666.637489" xlink:href="#m26c5f5169f" y="625.26664"/>
      </g>
     </g>
     <g id="text_4">
      <!-- 150 -->
      <g transform="translate(657.093739 639.865077)scale(0.1 -0.1)">
       <use xlink:href="#DejaVuSans-31"/>
       <use x="63.623047" xlink:href="#DejaVuSans-35"/>
       <use x="127.246094" xlink:href="#DejaVuSans-30"/>
      </g>
     </g>
    </g>
    <g id="xtick_5">
     <g id="line2d_5">
      <g>
       <use style="stroke:#000000;stroke-width:0.8;" x="825.135908" xlink:href="#m26c5f5169f" y="625.26664"/>
      </g>
     </g>
     <g id="text_5">
      <!-- 200 -->
      <g transform="translate(815.592158 639.865077)scale(0.1 -0.1)">
       <defs>
        <path d="M 1228 531 
L 3431 531 
L 3431 0 
L 469 0 
L 469 531 
Q 828 903 1448 1529 
Q 2069 2156 2228 2338 
Q 2531 2678 2651 2914 
Q 2772 3150 2772 3378 
Q 2772 3750 2511 3984 
Q 2250 4219 1831 4219 
Q 1534 4219 1204 4116 
Q 875 4013 500 3803 
L 500 4441 
Q 881 4594 1212 4672 
Q 1544 4750 1819 4750 
Q 2544 4750 2975 4387 
Q 3406 4025 3406 3419 
Q 3406 3131 3298 2873 
Q 3191 2616 2906 2266 
Q 2828 2175 2409 1742 
Q 1991 1309 1228 531 
z
" id="DejaVuSans-32" transform="scale(0.015625)"/>
       </defs>
       <use xlink:href="#DejaVuSans-32"/>
       <use x="63.623047" xlink:href="#DejaVuSans-30"/>
       <use x="127.246094" xlink:href="#DejaVuSans-30"/>
      </g>
     </g>
    </g>
    <g id="xtick_6">
     <g id="line2d_6">
      <g>
       <use style="stroke:#000000;stroke-width:0.8;" x="983.634326" xlink:href="#m26c5f5169f" y="625.26664"/>
      </g>
     </g>
     <g id="text_6">
      <!-- 250 -->
      <g transform="translate(974.090576 639.865077)scale(0.1 -0.1)">
       <use xlink:href="#DejaVuSans-32"/>
       <use x="63.623047" xlink:href="#DejaVuSans-35"/>
       <use x="127.246094" xlink:href="#DejaVuSans-30"/>
      </g>
     </g>
    </g>
    <g id="xtick_7">
     <g id="line2d_7">
      <g>
       <use style="stroke:#000000;stroke-width:0.8;" x="1142.132745" xlink:href="#m26c5f5169f" y="625.26664"/>
      </g>
     </g>
     <g id="text_7">
      <!-- 300 -->
      <g transform="translate(1132.588995 639.865077)scale(0.1 -0.1)">
       <defs>
        <path d="M 2597 2516 
Q 3050 2419 3304 2112 
Q 3559 1806 3559 1356 
Q 3559 666 3084 287 
Q 2609 -91 1734 -91 
Q 1441 -91 1130 -33 
Q 819 25 488 141 
L 488 750 
Q 750 597 1062 519 
Q 1375 441 1716 441 
Q 2309 441 2620 675 
Q 2931 909 2931 1356 
Q 2931 1769 2642 2001 
Q 2353 2234 1838 2234 
L 1294 2234 
L 1294 2753 
L 1863 2753 
Q 2328 2753 2575 2939 
Q 2822 3125 2822 3475 
Q 2822 3834 2567 4026 
Q 2313 4219 1838 4219 
Q 1578 4219 1281 4162 
Q 984 4106 628 3988 
L 628 4550 
Q 988 4650 1302 4700 
Q 1616 4750 1894 4750 
Q 2613 4750 3031 4423 
Q 3450 4097 3450 3541 
Q 3450 3153 3228 2886 
Q 3006 2619 2597 2516 
z
" id="DejaVuSans-33" transform="scale(0.015625)"/>
       </defs>
       <use xlink:href="#DejaVuSans-33"/>
       <use x="63.623047" xlink:href="#DejaVuSans-30"/>
       <use x="127.246094" xlink:href="#DejaVuSans-30"/>
      </g>
     </g>
    </g>
    <g id="xtick_8">
     <g id="line2d_8">
      <g>
       <use style="stroke:#000000;stroke-width:0.8;" x="1300.631163" xlink:href="#m26c5f5169f" y="625.26664"/>
      </g>
     </g>
     <g id="text_8">
      <!-- 350 -->
      <g transform="translate(1291.087413 639.865077)scale(0.1 -0.1)">
       <use xlink:href="#DejaVuSans-33"/>
       <use x="63.623047" xlink:href="#DejaVuSans-35"/>
       <use x="127.246094" xlink:href="#DejaVuSans-30"/>
      </g>
     </g>
    </g>
    <g id="text_9">
     <!-- s -->
     <g transform="translate(741.697027 653.543203)scale(0.1 -0.1)">
      <defs>
       <path d="M 2834 3397 
L 2834 2853 
Q 2591 2978 2328 3040 
Q 2066 3103 1784 3103 
Q 1356 3103 1142 2972 
Q 928 2841 928 2578 
Q 928 2378 1081 2264 
Q 1234 2150 1697 2047 
L 1894 2003 
Q 2506 1872 2764 1633 
Q 3022 1394 3022 966 
Q 3022 478 2636 193 
Q 2250 -91 1575 -91 
Q 1294 -91 989 -36 
Q 684 19 347 128 
L 347 722 
Q 666 556 975 473 
Q 1284 391 1588 391 
Q 1994 391 2212 530 
Q 2431 669 2431 922 
Q 2431 1156 2273 1281 
Q 2116 1406 1581 1522 
L 1381 1569 
Q 847 1681 609 1914 
Q 372 2147 372 2553 
Q 372 3047 722 3315 
Q 1072 3584 1716 3584 
Q 2034 3584 2315 3537 
Q 2597 3491 2834 3397 
z
" id="DejaVuSans-73" transform="scale(0.015625)"/>
      </defs>
      <use xlink:href="#DejaVuSans-73"/>
     </g>
    </g>
   </g>
   <g id="matplotlib.axis_2">
    <g id="ytick_1">
     <g id="line2d_9">
      <defs>
       <path d="M 0 0 
L -3.5 0 
" id="m9e1d7196a5" style="stroke:#000000;stroke-width:0.8;"/>
      </defs>
      <g>
       <use style="stroke:#000000;stroke-width:0.8;" x="135.826286" xlink:href="#m9e1d7196a5" y="620.516308"/>
      </g>
     </g>
     <g id="text_10">
      <!-- −4 -->
      <g transform="translate(114.084098 624.315526)scale(0.1 -0.1)">
       <defs>
        <path d="M 678 2272 
L 4684 2272 
L 4684 1741 
L 678 1741 
L 678 2272 
z
" id="DejaVuSans-2212" transform="scale(0.015625)"/>
        <path d="M 2419 4116 
L 825 1625 
L 2419 1625 
L 2419 4116 
z
M 2253 4666 
L 3047 4666 
L 3047 1625 
L 3713 1625 
L 3713 1100 
L 3047 1100 
L 3047 0 
L 2419 0 
L 2419 1100 
L 313 1100 
L 313 1709 
L 2253 4666 
z
" id="DejaVuSans-34" transform="scale(0.015625)"/>
       </defs>
       <use xlink:href="#DejaVuSans-2212"/>
       <use x="83.789062" xlink:href="#DejaVuSans-34"/>
      </g>
     </g>
    </g>
    <g id="ytick_2">
     <g id="line2d_10">
      <g>
       <use style="stroke:#000000;stroke-width:0.8;" x="135.826286" xlink:href="#m9e1d7196a5" y="514.433609"/>
      </g>
     </g>
     <g id="text_11">
      <!-- −3 -->
      <g transform="translate(114.084098 518.232828)scale(0.1 -0.1)">
       <use xlink:href="#DejaVuSans-2212"/>
       <use x="83.789062" xlink:href="#DejaVuSans-33"/>
      </g>
     </g>
    </g>
    <g id="ytick_3">
     <g id="line2d_11">
      <g>
       <use style="stroke:#000000;stroke-width:0.8;" x="135.826286" xlink:href="#m9e1d7196a5" y="408.350911"/>
      </g>
     </g>
     <g id="text_12">
      <!-- −2 -->
      <g transform="translate(114.084098 412.15013)scale(0.1 -0.1)">
       <use xlink:href="#DejaVuSans-2212"/>
       <use x="83.789062" xlink:href="#DejaVuSans-32"/>
      </g>
     </g>
    </g>
    <g id="ytick_4">
     <g id="line2d_12">
      <g>
       <use style="stroke:#000000;stroke-width:0.8;" x="135.826286" xlink:href="#m9e1d7196a5" y="302.268213"/>
      </g>
     </g>
     <g id="text_13">
      <!-- −1 -->
      <g transform="translate(114.084098 306.067432)scale(0.1 -0.1)">
       <use xlink:href="#DejaVuSans-2212"/>
       <use x="83.789062" xlink:href="#DejaVuSans-31"/>
      </g>
     </g>
    </g>
    <g id="ytick_5">
     <g id="line2d_13">
      <g>
       <use style="stroke:#000000;stroke-width:0.8;" x="135.826286" xlink:href="#m9e1d7196a5" y="196.185515"/>
      </g>
     </g>
     <g id="text_14">
      <!-- 0 -->
      <g transform="translate(122.463786 199.984733)scale(0.1 -0.1)">
       <use xlink:href="#DejaVuSans-30"/>
      </g>
     </g>
    </g>
    <g id="ytick_6">
     <g id="line2d_14">
      <g>
       <use style="stroke:#000000;stroke-width:0.8;" x="135.826286" xlink:href="#m9e1d7196a5" y="90.102816"/>
      </g>
     </g>
     <g id="text_15">
      <!-- 1 -->
      <g transform="translate(122.463786 93.902035)scale(0.1 -0.1)">
       <use xlink:href="#DejaVuSans-31"/>
      </g>
     </g>
    </g>
    <g id="text_16">
     <!-- $\mathbf{\delta \rho}$ [$m$] -->
     <g transform="translate(107.984098 356.45636)rotate(-90)scale(0.1 -0.1)">
      <defs>
       <path d="M 3613 3950 
Q 3231 4169 2234 4169 
Q 1703 4169 1703 3863 
Q 1703 3572 2431 3463 
Q 3156 3353 3594 3003 
Q 4125 2581 4125 1734 
Q 4125 888 3612 398 
Q 3100 -91 2206 -91 
Q 1309 -91 793 398 
Q 278 888 278 1747 
Q 278 2397 791 2900 
Q 950 3056 1150 3156 
Q 688 3403 688 3900 
Q 688 4913 2338 4913 
Q 3166 4913 3613 4694 
L 3613 3950 
z
M 1938 2750 
Q 1772 2681 1641 2506 
Q 1434 2234 1434 1744 
Q 1434 1253 1639 978 
Q 1844 703 2200 703 
Q 2553 703 2759 983 
Q 2966 1263 2966 1731 
Q 2966 2197 2744 2433 
Q 2522 2669 2213 2703 
Q 2069 2719 1938 2750 
z
" id="DejaVuSans-Bold-3b4" transform="scale(0.015625)"/>
       <path d="M 1003 3013 
Q 1425 3413 1809 3500 
Q 2203 3594 2581 3594 
Q 2700 3594 2816 3584 
Q 3425 3538 3878 3069 
Q 4294 2631 4294 1747 
Q 4294 938 3878 423 
Q 3463 -91 2816 -91 
Q 2450 -91 2169 54 
Q 1888 200 1656 506 
L 1656 -1331 
L 538 -1331 
L 538 1688 
Q 538 2566 1003 3013 
z
M 2400 2772 
Q 2041 2772 1848 2508 
Q 1656 2244 1656 1747 
Q 1656 1250 1848 986 
Q 2041 722 2400 722 
Q 2759 722 2948 984 
Q 3138 1247 3138 1747 
Q 3138 2247 2948 2509 
Q 2759 2772 2400 2772 
z
" id="DejaVuSans-Bold-3c1" transform="scale(0.015625)"/>
       <path id="DejaVuSans-20" transform="scale(0.015625)"/>
       <path d="M 550 4863 
L 1875 4863 
L 1875 4416 
L 1125 4416 
L 1125 -397 
L 1875 -397 
L 1875 -844 
L 550 -844 
L 550 4863 
z
" id="DejaVuSans-5b" transform="scale(0.015625)"/>
       <path d="M 5747 2113 
L 5338 0 
L 4763 0 
L 5166 2094 
Q 5191 2228 5203 2325 
Q 5216 2422 5216 2491 
Q 5216 2772 5059 2928 
Q 4903 3084 4622 3084 
Q 4203 3084 3875 2770 
Q 3547 2456 3450 1953 
L 3066 0 
L 2491 0 
L 2900 2094 
Q 2925 2209 2937 2307 
Q 2950 2406 2950 2484 
Q 2950 2769 2794 2926 
Q 2638 3084 2363 3084 
Q 1938 3084 1609 2770 
Q 1281 2456 1184 1953 
L 800 0 
L 225 0 
L 909 3500 
L 1484 3500 
L 1375 2956 
Q 1609 3263 1923 3423 
Q 2238 3584 2597 3584 
Q 2978 3584 3223 3384 
Q 3469 3184 3519 2828 
Q 3781 3197 4126 3390 
Q 4472 3584 4856 3584 
Q 5306 3584 5551 3325 
Q 5797 3066 5797 2591 
Q 5797 2488 5784 2364 
Q 5772 2241 5747 2113 
z
" id="DejaVuSans-Oblique-6d" transform="scale(0.015625)"/>
       <path d="M 1947 4863 
L 1947 -844 
L 622 -844 
L 622 -397 
L 1369 -397 
L 1369 4416 
L 622 4416 
L 622 4863 
L 1947 4863 
z
" id="DejaVuSans-5d" transform="scale(0.015625)"/>
      </defs>
      <use transform="translate(0 0.234375)" xlink:href="#DejaVuSans-Bold-3b4"/>
      <use transform="translate(68.701172 0.234375)" xlink:href="#DejaVuSans-Bold-3c1"/>
      <use transform="translate(140.283203 0.234375)" xlink:href="#DejaVuSans-20"/>
      <use transform="translate(172.070312 0.234375)" xlink:href="#DejaVuSans-5b"/>
      <use transform="translate(211.083984 0.234375)" xlink:href="#DejaVuSans-Oblique-6d"/>
      <use transform="translate(308.496094 0.234375)" xlink:href="#DejaVuSans-5d"/>
     </g>
    </g>
   </g>
   <g id="line2d_15">
    <path clip-path="url(#p66c7ed565f)" d="M 191.142234 196.185515 
L 194.312202 199.0082 
L 197.482171 196.583466 
L 200.652139 186.009983 
L 203.822107 183.398564 
L 206.992076 191.230963 
L 210.162044 197.500593 
L 213.332012 194.574084 
L 216.501981 190.716789 
L 219.671949 201.798525 
L 222.841917 189.602898 
L 226.011886 187.873763 
L 229.181854 187.940268 
L 232.351823 175.877965 
L 235.521791 194.490672 
L 238.691759 208.789491 
L 241.861728 201.246129 
L 245.031696 187.468782 
L 248.201664 187.24563 
L 251.371633 185.658076 
L 254.541601 195.591873 
L 257.71157 206.640981 
L 260.881538 197.050406 
L 264.051506 201.722338 
L 267.221475 211.440739 
L 270.391443 216.93388 
L 273.561411 214.893772 
L 276.73138 207.887154 
L 279.901348 214.51142 
L 283.071316 203.959091 
L 286.241285 197.604701 
L 289.411253 196.890471 
L 292.581222 210.99476 
L 295.75119 219.900848 
L 298.921158 202.492009 
L 302.091127 215.439064 
L 305.261095 226.026263 
L 308.431063 231.003335 
L 311.601032 232.933743 
L 314.771 217.98559 
L 317.940969 215.770111 
L 321.110937 216.643877 
L 324.280905 206.008283 
L 327.450874 213.090942 
L 330.620842 228.077957 
L 333.79081 230.589972 
L 336.960779 223.9643 
L 340.130747 215.608493 
L 343.300716 221.703316 
L 346.470684 227.199466 
L 349.640652 228.556523 
L 352.810621 224.740625 
L 355.980589 232.046815 
L 359.150557 254.969016 
L 362.320526 242.570112 
L 365.490494 246.305107 
L 368.660462 243.24367 
L 371.830431 243.78211 
L 375.000399 245.304102 
L 378.170368 242.1017 
L 381.340336 242.059118 
L 384.510304 247.603152 
L 387.680273 249.146835 
L 390.850241 242.912357 
L 394.020209 238.367719 
L 397.190178 245.135251 
L 400.360146 257.360711 
L 403.530115 266.218015 
L 406.700083 261.070493 
L 409.870051 271.944575 
L 413.04002 281.106761 
L 416.209988 293.504921 
L 419.379956 296.7072 
L 422.549925 302.36975 
L 425.719893 303.053883 
L 428.889861 306.984378 
L 432.05983 313.818078 
L 435.229798 323.421707 
L 438.399767 311.329476 
L 441.569735 309.13363 
L 444.739703 321.091627 
L 447.909672 323.859207 
L 451.07964 318.175305 
L 454.249608 321.910264 
L 457.419577 312.366702 
L 460.589545 328.536584 
L 463.759514 319.051543 
L 466.929482 318.255936 
L 470.09945 327.46935 
L 473.269419 328.645771 
L 476.439387 328.241366 
L 479.609355 329.713101 
L 482.779324 318.957431 
L 485.949292 330.573172 
L 489.119261 333.861822 
L 492.289229 332.871527 
L 495.459197 333.434921 
L 498.629166 316.928156 
L 501.799134 322.256418 
L 504.969102 328.169469 
L 508.139071 330.287414 
L 511.309039 340.26791 
L 514.479007 353.36098 
L 517.648976 367.98345 
L 520.818944 375.402129 
L 523.988913 390.130275 
L 527.158881 382.498057 
L 530.328849 394.26885 
L 533.498818 393.167242 
L 536.668786 381.669426 
L 539.838754 383.861639 
L 543.008723 389.622913 
L 546.178691 391.371705 
L 549.34866 395.002866 
L 552.518628 397.202984 
L 555.688596 414.931917 
L 558.858565 413.223312 
L 562.028533 417.609439 
L 565.198501 420.597071 
L 568.36847 418.607374 
L 571.538438 420.716758 
L 574.708407 414.358432 
L 577.878375 408.500829 
L 581.048343 405.091072 
L 584.218312 408.366892 
L 587.38828 399.814095 
L 590.558248 382.086311 
L 593.728217 380.388633 
L 596.898185 382.118484 
L 600.068153 389.296952 
L 603.238122 408.780043 
L 606.40809 408.663828 
L 609.578059 408.40362 
L 612.748027 401.504588 
L 615.917995 402.179744 
L 619.087964 394.361693 
L 622.257932 392.565079 
L 625.4279 400.43437 
L 628.597869 404.505603 
L 631.767837 401.287056 
L 634.937806 400.086265 
L 638.107774 405.55033 
L 641.277742 389.504144 
L 644.447711 369.123275 
L 647.617679 352.277457 
L 650.787647 341.717079 
L 653.957616 350.115415 
L 657.127584 331.102636 
L 660.297552 319.611672 
L 663.467521 313.772951 
L 666.637489 316.522458 
L 669.807458 297.855138 
L 672.977426 295.472757 
L 676.147394 300.224105 
L 679.317363 291.514895 
L 682.487331 291.807621 
L 685.657299 294.880935 
L 688.827268 300.103052 
L 691.997236 299.374775 
L 695.167205 303.132921 
L 698.337173 286.142615 
L 701.507141 298.959949 
L 704.67711 310.497497 
L 707.847078 297.818254 
L 711.017046 302.751348 
L 714.187015 294.165153 
L 717.356983 288.734437 
L 720.526952 284.331152 
L 723.69692 271.196414 
L 726.866888 274.211787 
L 730.036857 271.130809 
L 736.376793 259.981478 
L 739.546762 253.437102 
L 742.71673 232.316437 
L 745.886698 234.707905 
L 749.056667 237.556886 
L 752.226635 222.82842 
L 755.396604 213.063296 
L 758.566572 225.351477 
L 761.73654 227.327595 
L 764.906509 227.923921 
L 768.076477 223.650798 
L 771.246445 222.871366 
L 774.416414 229.720862 
L 777.586382 232.597821 
L 780.756351 219.128135 
L 783.926319 217.601446 
L 787.096287 216.249287 
L 790.266256 221.052405 
L 793.436224 218.26927 
L 796.606192 204.266291 
L 799.776161 196.980238 
L 802.946129 179.9371 
L 806.116097 167.998944 
L 809.286066 181.024 
L 812.456034 178.479525 
L 815.626003 177.008168 
L 818.795971 166.392514 
L 821.965939 161.112123 
L 825.135908 165.635023 
L 828.305876 160.741958 
L 831.475844 161.916037 
L 834.645813 157.869957 
L 837.815781 162.605789 
L 840.98575 162.928539 
L 844.155718 172.124586 
L 847.325686 184.064634 
L 850.495655 207.032101 
L 853.665623 194.763904 
L 856.835591 199.138272 
L 860.00556 208.977932 
L 863.175528 206.045342 
L 866.345497 214.195718 
L 869.515465 223.670212 
L 872.685433 228.460528 
L 875.855402 224.565735 
L 879.02537 226.19297 
L 882.195338 215.666993 
L 885.365307 219.226675 
L 888.535275 208.064989 
L 891.705243 203.217655 
L 894.875212 197.366607 
L 898.04518 198.170612 
L 901.215149 201.768558 
L 904.385117 191.433522 
L 907.555085 194.231937 
L 910.725054 195.568035 
L 913.895022 191.4782 
L 917.06499 193.05197 
L 920.234959 195.837596 
L 923.404927 199.02054 
L 926.574896 188.924329 
L 929.744864 188.834326 
L 932.914832 192.262866 
L 936.084801 202.087115 
L 939.254769 197.978759 
L 942.424737 209.446332 
L 945.594706 207.992826 
L 948.764674 209.847985 
L 951.934643 220.109272 
L 955.104611 210.647719 
L 958.274579 206.97215 
L 961.444548 211.997031 
L 964.614516 226.175809 
L 967.784484 230.46215 
L 970.954453 235.734309 
L 974.124421 239.028005 
L 977.294389 233.044391 
L 980.464358 240.433442 
L 983.634326 245.50724 
L 986.804295 248.610471 
L 989.974263 260.30689 
L 993.144231 263.782255 
L 996.3142 268.870876 
L 999.484168 266.514991 
L 1002.654136 258.634326 
L 1005.824105 266.697602 
L 1008.994073 266.613395 
L 1012.164042 285.005973 
L 1015.33401 283.350348 
L 1018.503978 276.243918 
L 1021.673947 265.195957 
L 1024.843915 261.951098 
L 1028.013883 263.336792 
L 1031.183852 266.842952 
L 1034.35382 264.534461 
L 1037.523788 264.439273 
L 1040.693757 268.876832 
L 1043.863725 271.100084 
L 1047.033694 284.190763 
L 1050.203662 294.035158 
L 1053.37363 317.77579 
L 1056.543599 344.112706 
L 1059.713567 353.738559 
L 1062.883535 356.186857 
L 1069.223472 371.573337 
L 1072.393441 375.286488 
L 1075.563409 381.757044 
L 1078.733377 381.41784 
L 1081.903346 370.116962 
L 1085.073314 383.895459 
L 1088.243282 373.134084 
L 1091.413251 382.179595 
L 1094.583219 379.055698 
L 1097.753188 380.894904 
L 1100.923156 383.460478 
L 1104.093124 392.020255 
L 1107.263093 405.377168 
L 1110.433061 416.970904 
L 1113.603029 416.374899 
L 1116.772998 412.701671 
L 1123.112934 423.053378 
L 1129.452871 450.204364 
L 1132.62284 469.194898 
L 1135.792808 475.233047 
L 1138.962776 478.161187 
L 1142.132745 473.370096 
L 1145.302713 476.432939 
L 1148.472681 466.655874 
L 1151.64265 464.200874 
L 1154.812618 473.000753 
L 1157.982587 479.091053 
L 1161.152555 459.971002 
L 1164.322523 458.920077 
L 1167.492492 462.104381 
L 1170.66246 446.874823 
L 1173.832428 449.209245 
L 1177.002397 456.289598 
L 1180.172365 455.333447 
L 1183.342333 457.976996 
L 1186.512302 456.617429 
L 1189.68227 461.631945 
L 1192.852239 454.373202 
L 1196.022207 456.334707 
L 1199.192175 452.494252 
L 1205.532112 464.820575 
L 1208.70208 465.911061 
L 1211.872049 476.086648 
L 1215.042017 482.738935 
L 1218.211986 490.653578 
L 1221.381954 492.627956 
L 1224.551922 511.576325 
L 1227.721891 514.239345 
L 1230.891859 512.381804 
L 1234.061827 509.151285 
L 1237.231796 529.622026 
L 1240.401764 527.280972 
L 1243.571733 527.530722 
L 1246.741701 540.953259 
L 1249.911669 545.3582 
L 1253.081638 551.464153 
L 1256.251606 545.162352 
L 1259.421574 558.512372 
L 1262.591543 552.361915 
L 1265.761511 560.087678 
L 1268.931479 550.014727 
L 1272.101448 557.59255 
L 1275.271416 566.762109 
L 1278.441385 578.048714 
L 1281.611353 566.777948 
L 1284.781321 561.828212 
L 1287.95129 573.716727 
L 1291.121258 580.614808 
L 1297.461195 599.247524 
L 1297.461195 599.247524 
" style="fill:none;stroke:#1f77b4;stroke-linecap:square;stroke-width:1.5;"/>
   </g>
   <g id="line2d_16">
    <path clip-path="url(#p66c7ed565f)" d="M 191.142234 196.185515 
L 194.312202 190.144571 
L 197.482171 191.771469 
L 200.652139 203.385317 
L 203.822107 194.677787 
L 206.992076 191.975421 
L 210.162044 194.292959 
L 213.332012 188.740239 
L 216.501981 181.484287 
L 219.671949 156.757798 
L 222.841917 174.108117 
L 226.011886 171.376056 
L 229.181854 164.227387 
L 232.351823 169.45402 
L 235.521791 145.2376 
L 238.691759 127.580146 
L 241.861728 120.953697 
L 245.031696 118.896789 
L 248.201664 118.761472 
L 251.371633 110.960299 
L 254.541601 123.146066 
L 257.71157 109.829055 
L 260.881538 111.401002 
L 264.051506 118.91673 
L 267.221475 114.348973 
L 270.391443 113.591105 
L 273.561411 117.305636 
L 276.73138 120.576601 
L 279.901348 114.972573 
L 283.071316 121.453288 
L 286.241285 120.82383 
L 289.411253 123.091529 
L 292.581222 127.91722 
L 295.75119 113.4241 
L 298.921158 111.469383 
L 302.091127 104.00347 
L 305.261095 105.033283 
L 308.431063 103.872388 
L 311.601032 104.603454 
L 314.771 106.116565 
L 317.940969 113.931632 
L 321.110937 120.485594 
L 324.280905 132.526422 
L 327.450874 120.961288 
L 330.620842 111.168034 
L 333.79081 108.551303 
L 336.960779 112.181165 
L 340.130747 112.901431 
L 343.300716 97.754795 
L 346.470684 93.893324 
L 349.640652 103.549043 
L 352.810621 102.017278 
L 355.980589 87.272161 
L 359.150557 78.877225 
L 362.320526 78.865196 
L 365.490494 85.528763 
L 368.660462 79.007544 
L 371.830431 80.265944 
L 375.000399 84.817494 
L 378.170368 90.880244 
L 381.340336 96.477691 
L 384.510304 101.487814 
L 387.680273 95.897907 
L 390.850241 106.764235 
L 394.020209 116.270038 
L 397.190178 118.203015 
L 403.530115 115.639024 
L 406.700083 111.198336 
L 409.870051 115.728252 
L 413.04002 109.815534 
L 416.209988 112.419308 
L 419.379956 101.204033 
L 422.549925 97.778036 
L 425.719893 89.417091 
L 428.889861 99.397209 
L 432.05983 101.215319 
L 435.229798 98.938678 
L 438.399767 109.337503 
L 441.569735 123.900584 
L 444.739703 125.855193 
L 447.909672 120.824047 
L 451.07964 124.881171 
L 454.249608 113.41556 
L 457.419577 112.813186 
L 460.589545 109.277184 
L 463.759514 116.856581 
L 466.929482 117.576646 
L 470.09945 111.346354 
L 473.269419 99.731261 
L 476.439387 102.008809 
L 479.609355 107.227608 
L 482.779324 99.416759 
L 485.949292 90.024528 
L 489.119261 99.861966 
L 492.289229 106.862605 
L 495.459197 105.003702 
L 498.629166 109.460232 
L 501.799134 125.255418 
L 504.969102 134.612833 
L 508.139071 125.071843 
L 511.309039 131.514163 
L 514.479007 122.391373 
L 517.648976 120.100452 
L 520.818944 120.942788 
L 523.988913 118.857184 
L 527.158881 128.041783 
L 530.328849 131.911848 
L 533.498818 135.31236 
L 536.668786 141.333419 
L 539.838754 137.055529 
L 543.008723 138.675874 
L 546.178691 147.281134 
L 549.34866 146.469917 
L 552.518628 153.151428 
L 555.688596 148.585386 
L 558.858565 139.26241 
L 562.028533 136.22822 
L 565.198501 146.638516 
L 568.36847 163.959061 
L 571.538438 179.925706 
L 574.708407 182.283268 
L 577.878375 190.958188 
L 581.048343 190.774396 
L 584.218312 184.71739 
L 587.38828 190.885808 
L 590.558248 183.027435 
L 593.728217 179.874979 
L 596.898185 184.742324 
L 600.068153 186.103613 
L 603.238122 200.756907 
L 606.40809 200.459466 
L 609.578059 209.243838 
L 612.748027 221.390885 
L 619.087964 227.035951 
L 622.257932 247.729247 
L 625.4279 262.771802 
L 628.597869 274.11367 
L 631.767837 277.947491 
L 634.937806 285.225811 
L 638.107774 296.817314 
L 641.277742 304.865306 
L 644.447711 310.626833 
L 647.617679 321.129515 
L 650.787647 336.572014 
L 653.957616 340.905736 
L 657.127584 352.426613 
L 660.297552 351.563071 
L 663.467521 351.788758 
L 666.637489 349.34313 
L 669.807458 359.214254 
L 672.977426 359.198475 
L 676.147394 354.267525 
L 679.317363 343.942851 
L 682.487331 350.756066 
L 685.657299 333.021344 
L 688.827268 333.996661 
L 691.997236 321.187644 
L 695.167205 334.085783 
L 698.337173 348.167681 
L 701.507141 347.847 
L 704.67711 357.91505 
L 707.847078 358.437402 
L 711.017046 369.619021 
L 714.187015 375.607125 
L 720.526952 369.158691 
L 723.69692 375.686041 
L 726.866888 380.463786 
L 730.036857 379.92095 
L 733.206825 374.146611 
L 736.376793 375.733229 
L 739.546762 372.93015 
L 742.71673 377.92388 
L 745.886698 382.173113 
L 749.056667 380.611321 
L 752.226635 383.146631 
L 755.396604 386.947104 
L 758.566572 371.788727 
L 761.73654 344.569393 
L 764.906509 332.093299 
L 768.076477 327.36734 
L 771.246445 324.159562 
L 777.586382 322.612044 
L 780.756351 319.311054 
L 783.926319 311.276747 
L 787.096287 293.85616 
L 790.266256 289.379746 
L 793.436224 286.116601 
L 796.606192 288.28826 
L 799.776161 292.002152 
L 802.946129 283.062624 
L 806.116097 295.331808 
L 809.286066 298.393054 
L 812.456034 291.645793 
L 815.626003 290.092012 
L 818.795971 272.241809 
L 821.965939 268.905178 
L 825.135908 267.621155 
L 828.305876 263.057158 
L 831.475844 255.071646 
L 834.645813 256.345812 
L 837.815781 266.467582 
L 840.98575 263.223047 
L 844.155718 272.380457 
L 847.325686 273.804267 
L 850.495655 282.253396 
L 856.835591 274.746378 
L 860.00556 275.840127 
L 863.175528 271.539052 
L 866.345497 271.034861 
L 869.515465 267.462853 
L 872.685433 262.931946 
L 875.855402 262.496737 
L 879.02537 267.479371 
L 882.195338 268.781007 
L 885.365307 257.601628 
L 888.535275 277.313839 
L 891.705243 275.19563 
L 894.875212 258.875089 
L 898.04518 258.228797 
L 901.215149 253.351405 
L 904.385117 258.103578 
L 907.555085 237.306596 
L 910.725054 236.670794 
L 913.895022 248.463868 
L 917.06499 232.204849 
L 920.234959 223.813597 
L 923.404927 213.573489 
L 926.574896 231.468425 
L 929.744864 231.61656 
L 932.914832 215.842717 
L 936.084801 193.445949 
L 939.254769 195.472727 
L 942.424737 192.859986 
L 945.594706 192.430899 
L 948.764674 196.920721 
L 951.934643 209.953493 
L 955.104611 220.73665 
L 958.274579 220.318669 
L 964.614516 213.555234 
L 967.784484 206.190346 
L 970.954453 207.396275 
L 974.124421 214.302132 
L 977.294389 206.764395 
L 980.464358 194.628511 
L 983.634326 187.023345 
L 986.804295 173.978777 
L 989.974263 180.129954 
L 993.144231 192.035133 
L 996.3142 193.654293 
L 999.484168 203.070259 
L 1002.654136 221.723965 
L 1005.824105 220.087373 
L 1008.994073 223.644491 
L 1012.164042 224.633739 
L 1015.33401 234.597401 
L 1018.503978 245.616826 
L 1021.673947 229.502792 
L 1024.843915 229.778606 
L 1028.013883 237.387708 
L 1031.183852 239.985131 
L 1034.35382 249.696755 
L 1037.523788 234.212214 
L 1040.693757 246.125837 
L 1043.863725 247.035091 
L 1047.033694 240.840783 
L 1050.203662 239.785302 
L 1053.37363 228.114633 
L 1056.543599 231.995467 
L 1059.713567 233.666338 
L 1062.883535 243.693282 
L 1066.053504 230.320784 
L 1069.223472 228.454343 
L 1072.393441 223.678679 
L 1078.733377 226.901439 
L 1081.903346 239.025241 
L 1085.073314 235.820325 
L 1088.243282 245.215832 
L 1091.413251 235.430198 
L 1094.583219 245.307451 
L 1097.753188 244.033085 
L 1100.923156 257.742097 
L 1104.093124 254.19059 
L 1107.263093 235.330711 
L 1110.433061 234.58698 
L 1113.603029 222.381886 
L 1116.772998 221.543336 
L 1119.942966 227.936837 
L 1123.112934 232.369991 
L 1126.282903 237.839767 
L 1129.452871 250.218339 
L 1132.62284 259.153354 
L 1135.792808 258.750988 
L 1138.962776 261.085112 
L 1142.132745 264.610059 
L 1145.302713 270.340028 
L 1148.472681 272.856116 
L 1151.64265 294.94798 
L 1154.812618 294.817521 
L 1157.982587 293.2588 
L 1161.152555 294.176464 
L 1164.322523 299.432735 
L 1167.492492 301.401431 
L 1170.66246 320.556146 
L 1173.832428 323.548806 
L 1177.002397 335.254793 
L 1180.172365 356.553941 
L 1183.342333 365.792901 
L 1186.512302 363.748516 
L 1189.68227 366.735558 
L 1192.852239 382.291523 
L 1196.022207 388.748058 
L 1202.362144 383.02499 
L 1205.532112 387.112614 
L 1208.70208 399.355858 
L 1211.872049 400.372157 
L 1215.042017 413.694059 
L 1218.211986 412.077869 
L 1221.381954 425.942649 
L 1224.551922 434.058559 
L 1227.721891 433.402402 
L 1230.891859 428.666789 
L 1234.061827 431.336819 
L 1237.231796 447.158339 
L 1240.401764 460.666878 
L 1243.571733 463.931338 
L 1246.741701 468.157881 
L 1249.911669 469.943254 
L 1253.081638 468.375215 
L 1256.251606 475.812769 
L 1259.421574 486.166445 
L 1262.591543 488.172306 
L 1265.761511 483.854152 
L 1268.931479 480.425201 
L 1272.101448 490.008524 
L 1275.271416 489.770325 
L 1278.441385 489.051468 
L 1281.611353 496.907085 
L 1284.781321 506.468096 
L 1287.95129 513.327205 
L 1291.121258 514.805642 
L 1294.291226 514.36013 
L 1297.461195 516.638642 
L 1297.461195 516.638642 
" style="fill:none;stroke:#ff7f0e;stroke-linecap:square;stroke-width:1.5;"/>
   </g>
   <g id="patch_3">
    <path d="M 135.826286 625.26664 
L 135.826286 52.84608 
" style="fill:none;stroke:#000000;stroke-linecap:square;stroke-linejoin:miter;stroke-width:0.8;"/>
   </g>
   <g id="patch_4">
    <path d="M 1352.777143 625.26664 
L 1352.777143 52.84608 
" style="fill:none;stroke:#000000;stroke-linecap:square;stroke-linejoin:miter;stroke-width:0.8;"/>
   </g>
   <g id="patch_5">
    <path d="M 135.826286 625.26664 
L 1352.777143 625.26664 
" style="fill:none;stroke:#000000;stroke-linecap:square;stroke-linejoin:miter;stroke-width:0.8;"/>
   </g>
   <g id="patch_6">
    <path d="M 135.826286 52.84608 
L 1352.777143 52.84608 
" style="fill:none;stroke:#000000;stroke-linecap:square;stroke-linejoin:miter;stroke-width:0.8;"/>
   </g>
   <g id="text_17">
    <!-- Pos-error [m] -->
    <g transform="translate(704.983902 46.84608)scale(0.12 -0.12)">
     <defs>
      <path d="M 1259 4147 
L 1259 2394 
L 2053 2394 
Q 2494 2394 2734 2622 
Q 2975 2850 2975 3272 
Q 2975 3691 2734 3919 
Q 2494 4147 2053 4147 
L 1259 4147 
z
M 628 4666 
L 2053 4666 
Q 2838 4666 3239 4311 
Q 3641 3956 3641 3272 
Q 3641 2581 3239 2228 
Q 2838 1875 2053 1875 
L 1259 1875 
L 1259 0 
L 628 0 
L 628 4666 
z
" id="DejaVuSans-50" transform="scale(0.015625)"/>
      <path d="M 1959 3097 
Q 1497 3097 1228 2736 
Q 959 2375 959 1747 
Q 959 1119 1226 758 
Q 1494 397 1959 397 
Q 2419 397 2687 759 
Q 2956 1122 2956 1747 
Q 2956 2369 2687 2733 
Q 2419 3097 1959 3097 
z
M 1959 3584 
Q 2709 3584 3137 3096 
Q 3566 2609 3566 1747 
Q 3566 888 3137 398 
Q 2709 -91 1959 -91 
Q 1206 -91 779 398 
Q 353 888 353 1747 
Q 353 2609 779 3096 
Q 1206 3584 1959 3584 
z
" id="DejaVuSans-6f" transform="scale(0.015625)"/>
      <path d="M 313 2009 
L 1997 2009 
L 1997 1497 
L 313 1497 
L 313 2009 
z
" id="DejaVuSans-2d" transform="scale(0.015625)"/>
      <path d="M 3597 1894 
L 3597 1613 
L 953 1613 
Q 991 1019 1311 708 
Q 1631 397 2203 397 
Q 2534 397 2845 478 
Q 3156 559 3463 722 
L 3463 178 
Q 3153 47 2828 -22 
Q 2503 -91 2169 -91 
Q 1331 -91 842 396 
Q 353 884 353 1716 
Q 353 2575 817 3079 
Q 1281 3584 2069 3584 
Q 2775 3584 3186 3129 
Q 3597 2675 3597 1894 
z
M 3022 2063 
Q 3016 2534 2758 2815 
Q 2500 3097 2075 3097 
Q 1594 3097 1305 2825 
Q 1016 2553 972 2059 
L 3022 2063 
z
" id="DejaVuSans-65" transform="scale(0.015625)"/>
      <path d="M 2631 2963 
Q 2534 3019 2420 3045 
Q 2306 3072 2169 3072 
Q 1681 3072 1420 2755 
Q 1159 2438 1159 1844 
L 1159 0 
L 581 0 
L 581 3500 
L 1159 3500 
L 1159 2956 
Q 1341 3275 1631 3429 
Q 1922 3584 2338 3584 
Q 2397 3584 2469 3576 
Q 2541 3569 2628 3553 
L 2631 2963 
z
" id="DejaVuSans-72" transform="scale(0.015625)"/>
      <path d="M 3328 2828 
Q 3544 3216 3844 3400 
Q 4144 3584 4550 3584 
Q 5097 3584 5394 3201 
Q 5691 2819 5691 2113 
L 5691 0 
L 5113 0 
L 5113 2094 
Q 5113 2597 4934 2840 
Q 4756 3084 4391 3084 
Q 3944 3084 3684 2787 
Q 3425 2491 3425 1978 
L 3425 0 
L 2847 0 
L 2847 2094 
Q 2847 2600 2669 2842 
Q 2491 3084 2119 3084 
Q 1678 3084 1418 2786 
Q 1159 2488 1159 1978 
L 1159 0 
L 581 0 
L 581 3500 
L 1159 3500 
L 1159 2956 
Q 1356 3278 1631 3431 
Q 1906 3584 2284 3584 
Q 2666 3584 2933 3390 
Q 3200 3197 3328 2828 
z
" id="DejaVuSans-6d" transform="scale(0.015625)"/>
     </defs>
     <use xlink:href="#DejaVuSans-50"/>
     <use x="56.677734" xlink:href="#DejaVuSans-6f"/>
     <use x="117.859375" xlink:href="#DejaVuSans-73"/>
     <use x="169.958984" xlink:href="#DejaVuSans-2d"/>
     <use x="206.042969" xlink:href="#DejaVuSans-65"/>
     <use x="267.566406" xlink:href="#DejaVuSans-72"/>
     <use x="306.929688" xlink:href="#DejaVuSans-72"/>
     <use x="345.792969" xlink:href="#DejaVuSans-6f"/>
     <use x="406.974609" xlink:href="#DejaVuSans-72"/>
     <use x="448.087891" xlink:href="#DejaVuSans-20"/>
     <use x="479.875" xlink:href="#DejaVuSans-5b"/>
     <use x="518.888672" xlink:href="#DejaVuSans-6d"/>
     <use x="616.300781" xlink:href="#DejaVuSans-5d"/>
    </g>
   </g>
   <g id="legend_1">
    <g id="patch_7">
     <path d="M 1307.777143 90.222643 
L 1345.777143 90.222643 
Q 1347.777143 90.222643 1347.777143 88.222643 
L 1347.777143 59.84608 
Q 1347.777143 57.84608 1345.777143 57.84608 
L 1307.777143 57.84608 
Q 1305.777143 57.84608 1305.777143 59.84608 
L 1305.777143 88.222643 
Q 1305.777143 90.222643 1307.777143 90.222643 
z
" style="fill:#ffffff;stroke:#cccccc;stroke-linejoin:miter;"/>
    </g>
    <g id="line2d_17">
     <path d="M 1309.777143 65.944517 
L 1329.777143 65.944517 
" style="fill:none;stroke:#1f77b4;stroke-linecap:square;stroke-width:1.5;"/>
    </g>
    <g id="line2d_18"/>
    <g id="text_18">
     <!-- $x$ -->
     <g transform="translate(1337.777143 69.444517)scale(0.1 -0.1)">
      <defs>
       <path d="M 3841 3500 
L 2234 1784 
L 3219 0 
L 2559 0 
L 1819 1388 
L 531 0 
L -166 0 
L 1556 1844 
L 641 3500 
L 1300 3500 
L 1972 2234 
L 3144 3500 
L 3841 3500 
z
" id="DejaVuSans-Oblique-78" transform="scale(0.015625)"/>
      </defs>
      <use transform="translate(0 0.3125)" xlink:href="#DejaVuSans-Oblique-78"/>
     </g>
    </g>
    <g id="line2d_19">
     <path d="M 1309.777143 80.622642 
L 1329.777143 80.622642 
" style="fill:none;stroke:#ff7f0e;stroke-linecap:square;stroke-width:1.5;"/>
    </g>
    <g id="line2d_20"/>
    <g id="text_19">
     <!-- $y$ -->
     <g transform="translate(1337.777143 84.122642)scale(0.1 -0.1)">
      <defs>
       <path d="M 1588 -325 
Q 1188 -997 936 -1164 
Q 684 -1331 294 -1331 
L -159 -1331 
L -63 -850 
L 269 -850 
Q 509 -850 678 -719 
Q 847 -588 1056 -206 
L 1234 128 
L 459 3500 
L 1069 3500 
L 1650 819 
L 3256 3500 
L 3859 3500 
L 1588 -325 
z
" id="DejaVuSans-Oblique-79" transform="scale(0.015625)"/>
      </defs>
      <use transform="translate(0 0.3125)" xlink:href="#DejaVuSans-Oblique-79"/>
     </g>
    </g>
   </g>
  </g>
 </g>
 <defs>
  <clipPath id="p66c7ed565f">
   <rect height="572.42056" width="1216.950857" x="135.826286" y="52.84608"/>
  </clipPath>
 </defs>
</svg>
