<?xml version="1.0" encoding="utf-8" standalone="no"?>
<!DOCTYPE svg PUBLIC "-//W3C//DTD SVG 1.1//EN"
  "http://www.w3.org/Graphics/SVG/1.1/DTD/svg11.dtd">
<svg height="707.76pt" version="1.1" viewBox="0 0 1382.4 707.76" width="1382.4pt" xmlns="http://www.w3.org/2000/svg" xmlns:xlink="http://www.w3.org/1999/xlink">
 <metadata>
  <rdf:RDF xmlns:cc="http://creativecommons.org/ns#" xmlns:dc="http://purl.org/dc/elements/1.1/" xmlns:rdf="http://www.w3.org/1999/02/22-rdf-syntax-ns#">
   <cc:Work>
    <dc:type rdf:resource="http://purl.org/dc/dcmitype/StillImage"/>
    <dc:date>2021-11-17T15:59:26.710818</dc:date>
    <dc:format>image/svg+xml</dc:format>
    <dc:creator>
     <cc:Agent>
      <dc:title>Matplotlib v3.4.3, https://matplotlib.org/</dc:title>
     </cc:Agent>
    </dc:creator>
   </cc:Work>
  </rdf:RDF>
 </metadata>
 <defs>
  <style type="text/css">*{stroke-linecap:butt;stroke-linejoin:round;}</style>
 </defs>
 <g id="figure_1">
  <g id="patch_1">
   <path d="M 0 707.76 
L 1382.4 707.76 
L 1382.4 0 
L 0 0 
z
" style="fill:#ffffff;"/>
  </g>
  <g id="axes_1">
   <g id="patch_2">
    <path d="M 172.8 629.9064 
L 1244.16 629.9064 
L 1244.16 84.9312 
L 172.8 84.9312 
z
" style="fill:#ffffff;"/>
   </g>
   <g id="matplotlib.axis_1">
    <g id="xtick_1">
     <g id="line2d_1">
      <path clip-path="url(#p9988fd31b5)" d="M 221.498182 629.9064 
L 221.498182 84.9312 
" style="fill:none;stroke:#000000;stroke-dasharray:0.5,0.825;stroke-dashoffset:0;stroke-opacity:0.5;stroke-width:0.5;"/>
     </g>
     <g id="line2d_2">
      <defs>
       <path d="M 0 0 
L 0 3.5 
" id="ma6544bd8dd" style="stroke:#000000;stroke-width:0.8;"/>
      </defs>
      <g>
       <use style="stroke:#000000;stroke-width:0.8;" x="221.498182" xlink:href="#ma6544bd8dd" y="629.9064"/>
      </g>
     </g>
     <g id="text_1">
      <!-- 0 -->
      <g transform="translate(218.316932 644.504838)scale(0.1 -0.1)">
       <defs>
        <path d="M 2034 4250 
Q 1547 4250 1301 3770 
Q 1056 3291 1056 2328 
Q 1056 1369 1301 889 
Q 1547 409 2034 409 
Q 2525 409 2770 889 
Q 3016 1369 3016 2328 
Q 3016 3291 2770 3770 
Q 2525 4250 2034 4250 
z
M 2034 4750 
Q 2819 4750 3233 4129 
Q 3647 3509 3647 2328 
Q 3647 1150 3233 529 
Q 2819 -91 2034 -91 
Q 1250 -91 836 529 
Q 422 1150 422 2328 
Q 422 3509 836 4129 
Q 1250 4750 2034 4750 
z
" id="DejaVuSans-30" transform="scale(0.015625)"/>
       </defs>
       <use xlink:href="#DejaVuSans-30"/>
      </g>
     </g>
    </g>
    <g id="xtick_2">
     <g id="line2d_3">
      <path clip-path="url(#p9988fd31b5)" d="M 361.034519 629.9064 
L 361.034519 84.9312 
" style="fill:none;stroke:#000000;stroke-dasharray:0.5,0.825;stroke-dashoffset:0;stroke-opacity:0.5;stroke-width:0.5;"/>
     </g>
     <g id="line2d_4">
      <g>
       <use style="stroke:#000000;stroke-width:0.8;" x="361.034519" xlink:href="#ma6544bd8dd" y="629.9064"/>
      </g>
     </g>
     <g id="text_2">
      <!-- 50 -->
      <g transform="translate(354.672019 644.504838)scale(0.1 -0.1)">
       <defs>
        <path d="M 691 4666 
L 3169 4666 
L 3169 4134 
L 1269 4134 
L 1269 2991 
Q 1406 3038 1543 3061 
Q 1681 3084 1819 3084 
Q 2600 3084 3056 2656 
Q 3513 2228 3513 1497 
Q 3513 744 3044 326 
Q 2575 -91 1722 -91 
Q 1428 -91 1123 -41 
Q 819 9 494 109 
L 494 744 
Q 775 591 1075 516 
Q 1375 441 1709 441 
Q 2250 441 2565 725 
Q 2881 1009 2881 1497 
Q 2881 1984 2565 2268 
Q 2250 2553 1709 2553 
Q 1456 2553 1204 2497 
Q 953 2441 691 2322 
L 691 4666 
z
" id="DejaVuSans-35" transform="scale(0.015625)"/>
       </defs>
       <use xlink:href="#DejaVuSans-35"/>
       <use x="63.623047" xlink:href="#DejaVuSans-30"/>
      </g>
     </g>
    </g>
    <g id="xtick_3">
     <g id="line2d_5">
      <path clip-path="url(#p9988fd31b5)" d="M 500.570857 629.9064 
L 500.570857 84.9312 
" style="fill:none;stroke:#000000;stroke-dasharray:0.5,0.825;stroke-dashoffset:0;stroke-opacity:0.5;stroke-width:0.5;"/>
     </g>
     <g id="line2d_6">
      <g>
       <use style="stroke:#000000;stroke-width:0.8;" x="500.570857" xlink:href="#ma6544bd8dd" y="629.9064"/>
      </g>
     </g>
     <g id="text_3">
      <!-- 100 -->
      <g transform="translate(491.027107 644.504838)scale(0.1 -0.1)">
       <defs>
        <path d="M 794 531 
L 1825 531 
L 1825 4091 
L 703 3866 
L 703 4441 
L 1819 4666 
L 2450 4666 
L 2450 531 
L 3481 531 
L 3481 0 
L 794 0 
L 794 531 
z
" id="DejaVuSans-31" transform="scale(0.015625)"/>
       </defs>
       <use xlink:href="#DejaVuSans-31"/>
       <use x="63.623047" xlink:href="#DejaVuSans-30"/>
       <use x="127.246094" xlink:href="#DejaVuSans-30"/>
      </g>
     </g>
    </g>
    <g id="xtick_4">
     <g id="line2d_7">
      <path clip-path="url(#p9988fd31b5)" d="M 640.107195 629.9064 
L 640.107195 84.9312 
" style="fill:none;stroke:#000000;stroke-dasharray:0.5,0.825;stroke-dashoffset:0;stroke-opacity:0.5;stroke-width:0.5;"/>
     </g>
     <g id="line2d_8">
      <g>
       <use style="stroke:#000000;stroke-width:0.8;" x="640.107195" xlink:href="#ma6544bd8dd" y="629.9064"/>
      </g>
     </g>
     <g id="text_4">
      <!-- 150 -->
      <g transform="translate(630.563445 644.504838)scale(0.1 -0.1)">
       <use xlink:href="#DejaVuSans-31"/>
       <use x="63.623047" xlink:href="#DejaVuSans-35"/>
       <use x="127.246094" xlink:href="#DejaVuSans-30"/>
      </g>
     </g>
    </g>
    <g id="xtick_5">
     <g id="line2d_9">
      <path clip-path="url(#p9988fd31b5)" d="M 779.643532 629.9064 
L 779.643532 84.9312 
" style="fill:none;stroke:#000000;stroke-dasharray:0.5,0.825;stroke-dashoffset:0;stroke-opacity:0.5;stroke-width:0.5;"/>
     </g>
     <g id="line2d_10">
      <g>
       <use style="stroke:#000000;stroke-width:0.8;" x="779.643532" xlink:href="#ma6544bd8dd" y="629.9064"/>
      </g>
     </g>
     <g id="text_5">
      <!-- 200 -->
      <g transform="translate(770.099782 644.504838)scale(0.1 -0.1)">
       <defs>
        <path d="M 1228 531 
L 3431 531 
L 3431 0 
L 469 0 
L 469 531 
Q 828 903 1448 1529 
Q 2069 2156 2228 2338 
Q 2531 2678 2651 2914 
Q 2772 3150 2772 3378 
Q 2772 3750 2511 3984 
Q 2250 4219 1831 4219 
Q 1534 4219 1204 4116 
Q 875 4013 500 3803 
L 500 4441 
Q 881 4594 1212 4672 
Q 1544 4750 1819 4750 
Q 2544 4750 2975 4387 
Q 3406 4025 3406 3419 
Q 3406 3131 3298 2873 
Q 3191 2616 2906 2266 
Q 2828 2175 2409 1742 
Q 1991 1309 1228 531 
z
" id="DejaVuSans-32" transform="scale(0.015625)"/>
       </defs>
       <use xlink:href="#DejaVuSans-32"/>
       <use x="63.623047" xlink:href="#DejaVuSans-30"/>
       <use x="127.246094" xlink:href="#DejaVuSans-30"/>
      </g>
     </g>
    </g>
    <g id="xtick_6">
     <g id="line2d_11">
      <path clip-path="url(#p9988fd31b5)" d="M 919.17987 629.9064 
L 919.17987 84.9312 
" style="fill:none;stroke:#000000;stroke-dasharray:0.5,0.825;stroke-dashoffset:0;stroke-opacity:0.5;stroke-width:0.5;"/>
     </g>
     <g id="line2d_12">
      <g>
       <use style="stroke:#000000;stroke-width:0.8;" x="919.17987" xlink:href="#ma6544bd8dd" y="629.9064"/>
      </g>
     </g>
     <g id="text_6">
      <!-- 250 -->
      <g transform="translate(909.63612 644.504838)scale(0.1 -0.1)">
       <use xlink:href="#DejaVuSans-32"/>
       <use x="63.623047" xlink:href="#DejaVuSans-35"/>
       <use x="127.246094" xlink:href="#DejaVuSans-30"/>
      </g>
     </g>
    </g>
    <g id="xtick_7">
     <g id="line2d_13">
      <path clip-path="url(#p9988fd31b5)" d="M 1058.716207 629.9064 
L 1058.716207 84.9312 
" style="fill:none;stroke:#000000;stroke-dasharray:0.5,0.825;stroke-dashoffset:0;stroke-opacity:0.5;stroke-width:0.5;"/>
     </g>
     <g id="line2d_14">
      <g>
       <use style="stroke:#000000;stroke-width:0.8;" x="1058.716207" xlink:href="#ma6544bd8dd" y="629.9064"/>
      </g>
     </g>
     <g id="text_7">
      <!-- 300 -->
      <g transform="translate(1049.172457 644.504838)scale(0.1 -0.1)">
       <defs>
        <path d="M 2597 2516 
Q 3050 2419 3304 2112 
Q 3559 1806 3559 1356 
Q 3559 666 3084 287 
Q 2609 -91 1734 -91 
Q 1441 -91 1130 -33 
Q 819 25 488 141 
L 488 750 
Q 750 597 1062 519 
Q 1375 441 1716 441 
Q 2309 441 2620 675 
Q 2931 909 2931 1356 
Q 2931 1769 2642 2001 
Q 2353 2234 1838 2234 
L 1294 2234 
L 1294 2753 
L 1863 2753 
Q 2328 2753 2575 2939 
Q 2822 3125 2822 3475 
Q 2822 3834 2567 4026 
Q 2313 4219 1838 4219 
Q 1578 4219 1281 4162 
Q 984 4106 628 3988 
L 628 4550 
Q 988 4650 1302 4700 
Q 1616 4750 1894 4750 
Q 2613 4750 3031 4423 
Q 3450 4097 3450 3541 
Q 3450 3153 3228 2886 
Q 3006 2619 2597 2516 
z
" id="DejaVuSans-33" transform="scale(0.015625)"/>
       </defs>
       <use xlink:href="#DejaVuSans-33"/>
       <use x="63.623047" xlink:href="#DejaVuSans-30"/>
       <use x="127.246094" xlink:href="#DejaVuSans-30"/>
      </g>
     </g>
    </g>
    <g id="xtick_8">
     <g id="line2d_15">
      <path clip-path="url(#p9988fd31b5)" d="M 1198.252545 629.9064 
L 1198.252545 84.9312 
" style="fill:none;stroke:#000000;stroke-dasharray:0.5,0.825;stroke-dashoffset:0;stroke-opacity:0.5;stroke-width:0.5;"/>
     </g>
     <g id="line2d_16">
      <g>
       <use style="stroke:#000000;stroke-width:0.8;" x="1198.252545" xlink:href="#ma6544bd8dd" y="629.9064"/>
      </g>
     </g>
     <g id="text_8">
      <!-- 350 -->
      <g transform="translate(1188.708795 644.504838)scale(0.1 -0.1)">
       <use xlink:href="#DejaVuSans-33"/>
       <use x="63.623047" xlink:href="#DejaVuSans-35"/>
       <use x="127.246094" xlink:href="#DejaVuSans-30"/>
      </g>
     </g>
    </g>
   </g>
   <g id="matplotlib.axis_2">
    <g id="ytick_1">
     <g id="line2d_17">
      <path clip-path="url(#p9988fd31b5)" d="M 172.8 606.306962 
L 1244.16 606.306962 
" style="fill:none;stroke:#000000;stroke-dasharray:0.5,0.825;stroke-dashoffset:0;stroke-opacity:0.5;stroke-width:0.5;"/>
     </g>
     <g id="line2d_18">
      <defs>
       <path d="M 0 0 
L -3.5 0 
" id="m8ac5d3a21d" style="stroke:#000000;stroke-width:0.8;"/>
      </defs>
      <g>
       <use style="stroke:#000000;stroke-width:0.8;" x="172.8" xlink:href="#m8ac5d3a21d" y="606.306962"/>
      </g>
     </g>
     <g id="text_9">
      <!-- 0 -->
      <g transform="translate(159.4375 610.10618)scale(0.1 -0.1)">
       <use xlink:href="#DejaVuSans-30"/>
      </g>
     </g>
    </g>
    <g id="ytick_2">
     <g id="line2d_19">
      <path clip-path="url(#p9988fd31b5)" d="M 172.8 513.711144 
L 1244.16 513.711144 
" style="fill:none;stroke:#000000;stroke-dasharray:0.5,0.825;stroke-dashoffset:0;stroke-opacity:0.5;stroke-width:0.5;"/>
     </g>
     <g id="line2d_20">
      <g>
       <use style="stroke:#000000;stroke-width:0.8;" x="172.8" xlink:href="#m8ac5d3a21d" y="513.711144"/>
      </g>
     </g>
     <g id="text_10">
      <!-- 2 -->
      <g transform="translate(159.4375 517.510363)scale(0.1 -0.1)">
       <use xlink:href="#DejaVuSans-32"/>
      </g>
     </g>
    </g>
    <g id="ytick_3">
     <g id="line2d_21">
      <path clip-path="url(#p9988fd31b5)" d="M 172.8 421.115327 
L 1244.16 421.115327 
" style="fill:none;stroke:#000000;stroke-dasharray:0.5,0.825;stroke-dashoffset:0;stroke-opacity:0.5;stroke-width:0.5;"/>
     </g>
     <g id="line2d_22">
      <g>
       <use style="stroke:#000000;stroke-width:0.8;" x="172.8" xlink:href="#m8ac5d3a21d" y="421.115327"/>
      </g>
     </g>
     <g id="text_11">
      <!-- 4 -->
      <g transform="translate(159.4375 424.914545)scale(0.1 -0.1)">
       <defs>
        <path d="M 2419 4116 
L 825 1625 
L 2419 1625 
L 2419 4116 
z
M 2253 4666 
L 3047 4666 
L 3047 1625 
L 3713 1625 
L 3713 1100 
L 3047 1100 
L 3047 0 
L 2419 0 
L 2419 1100 
L 313 1100 
L 313 1709 
L 2253 4666 
z
" id="DejaVuSans-34" transform="scale(0.015625)"/>
       </defs>
       <use xlink:href="#DejaVuSans-34"/>
      </g>
     </g>
    </g>
    <g id="ytick_4">
     <g id="line2d_23">
      <path clip-path="url(#p9988fd31b5)" d="M 172.8 328.519509 
L 1244.16 328.519509 
" style="fill:none;stroke:#000000;stroke-dasharray:0.5,0.825;stroke-dashoffset:0;stroke-opacity:0.5;stroke-width:0.5;"/>
     </g>
     <g id="line2d_24">
      <g>
       <use style="stroke:#000000;stroke-width:0.8;" x="172.8" xlink:href="#m8ac5d3a21d" y="328.519509"/>
      </g>
     </g>
     <g id="text_12">
      <!-- 6 -->
      <g transform="translate(159.4375 332.318728)scale(0.1 -0.1)">
       <defs>
        <path d="M 2113 2584 
Q 1688 2584 1439 2293 
Q 1191 2003 1191 1497 
Q 1191 994 1439 701 
Q 1688 409 2113 409 
Q 2538 409 2786 701 
Q 3034 994 3034 1497 
Q 3034 2003 2786 2293 
Q 2538 2584 2113 2584 
z
M 3366 4563 
L 3366 3988 
Q 3128 4100 2886 4159 
Q 2644 4219 2406 4219 
Q 1781 4219 1451 3797 
Q 1122 3375 1075 2522 
Q 1259 2794 1537 2939 
Q 1816 3084 2150 3084 
Q 2853 3084 3261 2657 
Q 3669 2231 3669 1497 
Q 3669 778 3244 343 
Q 2819 -91 2113 -91 
Q 1303 -91 875 529 
Q 447 1150 447 2328 
Q 447 3434 972 4092 
Q 1497 4750 2381 4750 
Q 2619 4750 2861 4703 
Q 3103 4656 3366 4563 
z
" id="DejaVuSans-36" transform="scale(0.015625)"/>
       </defs>
       <use xlink:href="#DejaVuSans-36"/>
      </g>
     </g>
    </g>
    <g id="ytick_5">
     <g id="line2d_25">
      <path clip-path="url(#p9988fd31b5)" d="M 172.8 235.923692 
L 1244.16 235.923692 
" style="fill:none;stroke:#000000;stroke-dasharray:0.5,0.825;stroke-dashoffset:0;stroke-opacity:0.5;stroke-width:0.5;"/>
     </g>
     <g id="line2d_26">
      <g>
       <use style="stroke:#000000;stroke-width:0.8;" x="172.8" xlink:href="#m8ac5d3a21d" y="235.923692"/>
      </g>
     </g>
     <g id="text_13">
      <!-- 8 -->
      <g transform="translate(159.4375 239.72291)scale(0.1 -0.1)">
       <defs>
        <path d="M 2034 2216 
Q 1584 2216 1326 1975 
Q 1069 1734 1069 1313 
Q 1069 891 1326 650 
Q 1584 409 2034 409 
Q 2484 409 2743 651 
Q 3003 894 3003 1313 
Q 3003 1734 2745 1975 
Q 2488 2216 2034 2216 
z
M 1403 2484 
Q 997 2584 770 2862 
Q 544 3141 544 3541 
Q 544 4100 942 4425 
Q 1341 4750 2034 4750 
Q 2731 4750 3128 4425 
Q 3525 4100 3525 3541 
Q 3525 3141 3298 2862 
Q 3072 2584 2669 2484 
Q 3125 2378 3379 2068 
Q 3634 1759 3634 1313 
Q 3634 634 3220 271 
Q 2806 -91 2034 -91 
Q 1263 -91 848 271 
Q 434 634 434 1313 
Q 434 1759 690 2068 
Q 947 2378 1403 2484 
z
M 1172 3481 
Q 1172 3119 1398 2916 
Q 1625 2713 2034 2713 
Q 2441 2713 2670 2916 
Q 2900 3119 2900 3481 
Q 2900 3844 2670 4047 
Q 2441 4250 2034 4250 
Q 1625 4250 1398 4047 
Q 1172 3844 1172 3481 
z
" id="DejaVuSans-38" transform="scale(0.015625)"/>
       </defs>
       <use xlink:href="#DejaVuSans-38"/>
      </g>
     </g>
    </g>
    <g id="ytick_6">
     <g id="line2d_27">
      <path clip-path="url(#p9988fd31b5)" d="M 172.8 143.327874 
L 1244.16 143.327874 
" style="fill:none;stroke:#000000;stroke-dasharray:0.5,0.825;stroke-dashoffset:0;stroke-opacity:0.5;stroke-width:0.5;"/>
     </g>
     <g id="line2d_28">
      <g>
       <use style="stroke:#000000;stroke-width:0.8;" x="172.8" xlink:href="#m8ac5d3a21d" y="143.327874"/>
      </g>
     </g>
     <g id="text_14">
      <!-- 10 -->
      <g transform="translate(153.075 147.127093)scale(0.1 -0.1)">
       <use xlink:href="#DejaVuSans-31"/>
       <use x="63.623047" xlink:href="#DejaVuSans-30"/>
      </g>
     </g>
    </g>
   </g>
   <g id="line2d_29">
    <path clip-path="url(#p9988fd31b5)" d="M 221.498182 560.009053 
L 224.288909 605.1348 
L 227.079635 600.70007 
L 232.661089 600.70007 
L 235.451816 605.1348 
L 238.242542 605.1348 
L 241.033269 600.70007 
L 268.940537 600.70007 
L 271.731263 596.75922 
L 274.52199 600.70007 
L 282.89417 600.70007 
L 285.684897 596.75922 
L 288.475624 600.70007 
L 294.057077 600.70007 
L 296.847804 596.75922 
L 299.638531 600.70007 
L 310.801438 600.70007 
L 313.592165 596.75922 
L 316.382891 600.70007 
L 319.173618 600.70007 
L 321.964345 596.75922 
L 324.755072 600.70007 
L 327.545798 600.70007 
L 330.336525 596.75922 
L 333.127252 600.70007 
L 335.917979 596.75922 
L 338.708705 596.75922 
L 341.499432 600.70007 
L 349.871612 600.70007 
L 352.662339 596.75922 
L 355.453066 600.70007 
L 358.243793 596.75922 
L 361.034519 600.70007 
L 363.825246 596.75922 
L 366.615973 600.70007 
L 369.4067 596.75922 
L 372.197426 596.75922 
L 374.988153 600.70007 
L 388.941787 600.70007 
L 391.732514 596.75922 
L 394.52324 600.70007 
L 397.313967 596.75922 
L 400.104694 600.70007 
L 402.895421 596.75922 
L 405.686147 596.75922 
L 408.476874 600.70007 
L 428.011961 600.70007 
L 430.802688 593.69234 
L 433.593415 600.70007 
L 436.384142 596.75922 
L 439.174868 600.70007 
L 453.128502 600.70007 
L 455.919229 596.75922 
L 458.709956 600.70007 
L 461.500682 600.70007 
L 464.291409 596.75922 
L 494.989403 596.75922 
L 497.78013 600.70007 
L 500.570857 596.75922 
L 517.315218 596.75922 
L 520.105944 600.70007 
L 522.896671 600.70007 
L 525.687398 596.75922 
L 528.478125 596.75922 
L 531.268851 600.70007 
L 534.059578 596.75922 
L 536.850305 600.70007 
L 539.641032 600.70007 
L 542.431758 596.75922 
L 545.222485 596.75922 
L 548.013212 600.70007 
L 550.803939 600.70007 
L 553.594665 596.75922 
L 556.385392 600.70007 
L 561.966846 600.70007 
L 564.757572 596.75922 
L 567.548299 600.70007 
L 575.920479 600.70007 
L 578.711206 596.75922 
L 581.501933 600.70007 
L 592.66484 600.70007 
L 595.455567 596.75922 
L 598.246293 600.70007 
L 606.618474 600.70007 
L 609.4092 596.75922 
L 612.199927 600.70007 
L 634.525741 600.70007 
L 637.316468 596.75922 
L 640.107195 600.70007 
L 681.968096 600.70007 
L 684.758823 596.75922 
L 687.549549 600.70007 
L 690.340276 596.75922 
L 693.131003 600.70007 
L 695.92173 596.75922 
L 698.712456 600.70007 
L 701.503183 596.75922 
L 704.29391 600.70007 
L 707.084637 596.75922 
L 723.828997 596.75922 
L 726.619724 600.70007 
L 729.410451 600.70007 
L 732.201177 596.75922 
L 734.991904 596.75922 
L 737.782631 600.70007 
L 740.573358 596.75922 
L 743.364084 600.70007 
L 746.154811 596.75922 
L 748.945538 596.75922 
L 751.736265 600.70007 
L 790.806439 600.70007 
L 793.597166 596.75922 
L 796.387893 600.70007 
L 799.178619 600.70007 
L 801.969346 596.75922 
L 815.92298 596.75922 
L 818.713707 600.70007 
L 821.504433 596.75922 
L 824.29516 600.70007 
L 827.085887 596.75922 
L 832.66734 596.75922 
L 835.458067 600.70007 
L 838.248794 600.70007 
L 841.039521 596.75922 
L 843.830247 596.75922 
L 846.620974 600.70007 
L 849.411701 596.75922 
L 852.202428 593.69234 
L 854.993154 600.70007 
L 857.783881 596.75922 
L 863.365335 596.75922 
L 866.156061 600.70007 
L 868.946788 596.75922 
L 871.737515 596.75922 
L 874.528242 600.70007 
L 877.318968 596.75922 
L 880.109695 600.70007 
L 882.900422 596.75922 
L 885.691149 600.70007 
L 888.481875 600.70007 
L 891.272602 596.75922 
L 894.063329 600.70007 
L 896.854056 600.70007 
L 899.644782 596.75922 
L 905.226236 596.75922 
L 908.016963 600.70007 
L 910.80769 596.75922 
L 913.598416 600.70007 
L 916.389143 600.70007 
L 919.17987 596.75922 
L 921.970597 596.75922 
L 924.761323 600.70007 
L 927.55205 600.70007 
L 930.342777 596.75922 
L 933.133504 600.70007 
L 935.92423 596.75922 
L 938.714957 596.75922 
L 941.505684 600.70007 
L 944.296411 600.70007 
L 947.087137 596.75922 
L 949.877864 600.70007 
L 952.668591 596.75922 
L 955.459318 600.70007 
L 958.250044 596.75922 
L 963.831498 596.75922 
L 966.622225 600.70007 
L 972.203678 600.70007 
L 974.994405 596.75922 
L 980.575858 596.75922 
L 983.366585 600.70007 
L 986.157312 600.70007 
L 988.948039 596.75922 
L 1014.064579 596.75922 
L 1016.855306 600.70007 
L 1019.646033 596.75922 
L 1022.43676 600.70007 
L 1025.227486 593.69234 
L 1028.018213 596.75922 
L 1036.390393 596.75922 
L 1039.18112 600.70007 
L 1041.971847 600.70007 
L 1044.762574 596.75922 
L 1047.5533 596.75922 
L 1050.344027 600.70007 
L 1053.134754 600.70007 
L 1055.925481 596.75922 
L 1058.716207 600.70007 
L 1069.879114 600.70007 
L 1072.669841 596.75922 
L 1075.460568 600.70007 
L 1103.367835 600.70007 
L 1106.158562 605.1348 
L 1108.949289 600.70007 
L 1125.693649 600.70007 
L 1128.484376 605.1348 
L 1131.275103 600.70007 
L 1136.856556 600.70007 
L 1139.647283 596.75922 
L 1142.43801 600.70007 
L 1153.600917 600.70007 
L 1156.391644 596.75922 
L 1159.18237 600.70007 
L 1170.345277 600.70007 
L 1173.136004 596.75922 
L 1175.926731 600.70007 
L 1195.461818 600.70007 
L 1195.461818 600.70007 
" style="fill:none;stroke:#1f77b4;stroke-dasharray:5.55,2.4;stroke-dashoffset:0;stroke-width:1.5;"/>
   </g>
   <g id="line2d_30">
    <path clip-path="url(#p9988fd31b5)" d="M 221.498182 560.009053 
L 224.288909 435.519557 
L 227.079635 477.329243 
L 232.661089 477.329243 
L 235.451816 435.519557 
L 238.242542 435.519557 
L 241.033269 477.329243 
L 268.940537 477.329243 
L 271.731263 494.810985 
L 274.52199 477.329243 
L 282.89417 477.329243 
L 285.684897 494.810985 
L 288.475624 477.329243 
L 294.057077 477.329243 
L 296.847804 494.810985 
L 299.638531 477.329243 
L 310.801438 477.329243 
L 313.592165 494.810985 
L 316.382891 477.329243 
L 319.173618 477.329243 
L 321.964345 494.810985 
L 324.755072 477.329243 
L 327.545798 477.329243 
L 330.336525 494.810985 
L 333.127252 477.329243 
L 335.917979 494.810985 
L 338.708705 494.810985 
L 341.499432 477.329243 
L 349.871612 477.329243 
L 352.662339 494.810985 
L 355.453066 477.329243 
L 358.243793 494.810985 
L 361.034519 477.329243 
L 363.825246 494.810985 
L 366.615973 477.329243 
L 369.4067 494.810985 
L 372.197426 494.810985 
L 374.988153 477.329243 
L 388.941787 477.329243 
L 391.732514 494.810985 
L 394.52324 477.329243 
L 397.313967 494.810985 
L 400.104694 477.329243 
L 402.895421 494.810985 
L 405.686147 494.810985 
L 408.476874 477.329243 
L 428.011961 477.329243 
L 430.802688 504.830359 
L 433.593415 477.329243 
L 436.384142 494.810985 
L 439.174868 477.329243 
L 453.128502 477.329243 
L 455.919229 494.810985 
L 458.709956 477.329243 
L 461.500682 477.329243 
L 464.291409 494.810985 
L 494.989403 494.810985 
L 497.78013 477.329243 
L 500.570857 494.810985 
L 517.315218 494.810985 
L 520.105944 477.329243 
L 522.896671 477.329243 
L 525.687398 494.810985 
L 528.478125 494.810985 
L 531.268851 477.329243 
L 534.059578 494.810985 
L 536.850305 477.329243 
L 539.641032 477.329243 
L 542.431758 494.810985 
L 545.222485 494.810985 
L 548.013212 477.329243 
L 550.803939 477.329243 
L 553.594665 494.810985 
L 556.385392 477.329243 
L 561.966846 477.329243 
L 564.757572 494.810985 
L 567.548299 477.329243 
L 575.920479 477.329243 
L 578.711206 494.810985 
L 581.501933 477.329243 
L 592.66484 477.329243 
L 595.455567 494.810985 
L 598.246293 477.329243 
L 606.618474 477.329243 
L 609.4092 494.810985 
L 612.199927 477.329243 
L 634.525741 477.329243 
L 637.316468 494.810985 
L 640.107195 477.329243 
L 681.968096 477.329243 
L 684.758823 494.810985 
L 687.549549 477.329243 
L 690.340276 494.810985 
L 693.131003 477.329243 
L 695.92173 494.810985 
L 698.712456 477.329243 
L 701.503183 494.810985 
L 704.29391 477.329243 
L 707.084637 494.810985 
L 723.828997 494.810985 
L 726.619724 477.329243 
L 729.410451 477.329243 
L 732.201177 494.810985 
L 734.991904 494.810985 
L 737.782631 477.329243 
L 740.573358 494.810985 
L 743.364084 477.329243 
L 746.154811 494.810985 
L 748.945538 494.810985 
L 751.736265 477.329243 
L 790.806439 477.329243 
L 793.597166 494.810985 
L 796.387893 477.329243 
L 799.178619 477.329243 
L 801.969346 494.810985 
L 815.92298 494.810985 
L 818.713707 477.329243 
L 821.504433 494.810985 
L 824.29516 477.329243 
L 827.085887 494.810985 
L 832.66734 494.810985 
L 835.458067 477.329243 
L 838.248794 477.329243 
L 841.039521 494.810985 
L 843.830247 494.810985 
L 846.620974 477.329243 
L 849.411701 494.810985 
L 852.202428 504.830359 
L 854.993154 477.329243 
L 857.783881 494.810985 
L 863.365335 494.810985 
L 866.156061 477.329243 
L 868.946788 494.810985 
L 871.737515 494.810985 
L 874.528242 477.329243 
L 877.318968 494.810985 
L 880.109695 477.329243 
L 882.900422 494.810985 
L 885.691149 477.329243 
L 888.481875 477.329243 
L 891.272602 494.810985 
L 894.063329 477.329243 
L 896.854056 477.329243 
L 899.644782 494.810985 
L 905.226236 494.810985 
L 908.016963 477.329243 
L 910.80769 494.810985 
L 913.598416 477.329243 
L 916.389143 477.329243 
L 919.17987 494.810985 
L 921.970597 494.810985 
L 924.761323 477.329243 
L 927.55205 477.329243 
L 930.342777 494.810985 
L 933.133504 477.329243 
L 935.92423 494.810985 
L 938.714957 494.810985 
L 941.505684 477.329243 
L 944.296411 477.329243 
L 947.087137 494.810985 
L 949.877864 477.329243 
L 952.668591 494.810985 
L 955.459318 477.329243 
L 958.250044 494.810985 
L 963.831498 494.810985 
L 966.622225 477.329243 
L 972.203678 477.329243 
L 974.994405 494.810985 
L 980.575858 494.810985 
L 983.366585 477.329243 
L 986.157312 477.329243 
L 988.948039 494.810985 
L 1014.064579 494.810985 
L 1016.855306 477.329243 
L 1019.646033 494.810985 
L 1022.43676 477.329243 
L 1025.227486 504.830359 
L 1028.018213 494.810985 
L 1036.390393 494.810985 
L 1039.18112 477.329243 
L 1041.971847 477.329243 
L 1044.762574 494.810985 
L 1047.5533 494.810985 
L 1050.344027 477.329243 
L 1053.134754 477.329243 
L 1055.925481 494.810985 
L 1058.716207 477.329243 
L 1069.879114 477.329243 
L 1072.669841 494.810985 
L 1075.460568 477.329243 
L 1103.367835 477.329243 
L 1106.158562 435.519557 
L 1108.949289 477.329243 
L 1125.693649 477.329243 
L 1128.484376 435.519557 
L 1131.275103 477.329243 
L 1136.856556 477.329243 
L 1139.647283 494.810985 
L 1142.43801 477.329243 
L 1153.600917 477.329243 
L 1156.391644 494.810985 
L 1159.18237 477.329243 
L 1170.345277 477.329243 
L 1173.136004 494.810985 
L 1175.926731 477.329243 
L 1195.461818 477.329243 
L 1195.461818 477.329243 
" style="fill:none;stroke:#ff7f0e;stroke-dasharray:5.55,2.4;stroke-dashoffset:0;stroke-width:1.5;"/>
   </g>
   <g id="line2d_31">
    <path clip-path="url(#p9988fd31b5)" d="M 221.498182 560.009053 
L 224.288909 589.692757 
L 227.079635 534.103981 
L 229.870362 521.401045 
L 232.661089 531.947193 
L 235.451816 590.383579 
L 238.242542 602.655865 
L 241.033269 564.166712 
L 243.823996 553.12028 
L 246.614723 261.410494 
L 249.405449 182.985152 
L 252.196176 336.032644 
L 254.986903 408.846919 
L 257.77763 451.696112 
L 260.568356 184.061189 
L 263.359083 177.30694 
L 266.14981 244.31606 
L 268.940537 369.055369 
L 271.731263 550.459506 
L 274.52199 138.50379 
L 277.312717 185.773541 
L 280.103444 109.7028 
L 282.89417 414.20856 
L 285.684897 236.833636 
L 288.475624 119.884954 
L 291.266351 264.675014 
L 294.057077 134.945304 
L 296.847804 276.0267 
L 299.638531 195.500195 
L 302.429258 164.347989 
L 305.219984 248.734571 
L 308.010711 587.850162 
L 310.801438 114.128976 
L 313.592165 330.16798 
L 316.382891 191.88873 
L 319.173618 533.670282 
L 321.964345 359.856857 
L 324.755072 568.439108 
L 327.545798 440.048114 
L 330.336525 330.218516 
L 333.127252 464.447364 
L 335.917979 426.876606 
L 338.708705 286.924719 
L 341.499432 186.611818 
L 344.290159 521.241173 
L 347.080886 184.835763 
L 352.662339 397.600659 
L 355.453066 282.84593 
L 358.243793 433.024917 
L 361.034519 522.055824 
L 363.825246 367.341205 
L 366.615973 444.517679 
L 369.4067 409.74546 
L 372.197426 287.967501 
L 374.988153 127.180421 
L 377.77888 278.761276 
L 380.569607 120.956 
L 383.360333 349.159548 
L 386.15106 306.499072 
L 388.941787 283.290147 
L 391.732514 363.966551 
L 394.52324 304.094954 
L 397.313967 351.521782 
L 402.895421 270.095723 
L 405.686147 306.685614 
L 408.476874 453.93051 
L 411.267601 493.592816 
L 414.058328 505.17044 
L 416.849054 250.047795 
L 419.639781 408.058203 
L 422.430508 527.053006 
L 425.221235 454.129376 
L 428.011961 571.907374 
L 430.802688 426.811495 
L 433.593415 221.115022 
L 436.384142 379.882287 
L 439.174868 188.317713 
L 441.965595 316.268223 
L 444.756322 504.526851 
L 447.547049 548.952701 
L 450.337775 531.965122 
L 453.128502 389.470913 
L 455.919229 238.8365 
L 458.709956 519.941623 
L 461.500682 223.840387 
L 464.291409 364.067645 
L 467.082136 279.631679 
L 469.872863 461.560675 
L 472.663589 457.817528 
L 475.454316 284.421824 
L 478.245043 403.439342 
L 481.03577 249.148267 
L 483.826496 289.914999 
L 486.617223 357.309611 
L 489.40795 327.786702 
L 492.198677 381.422706 
L 494.989403 248.985463 
L 497.78013 443.385257 
L 500.570857 285.096371 
L 503.361584 449.774559 
L 506.15231 496.454287 
L 508.943037 387.465898 
L 511.733764 413.174218 
L 514.524491 294.818009 
L 517.315218 286.586176 
L 520.105944 256.079301 
L 522.896671 595.645788 
L 525.687398 349.612518 
L 528.478125 470.740821 
L 531.268851 199.268122 
L 534.059578 282.987914 
L 536.850305 236.703223 
L 539.641032 470.236025 
L 542.431758 299.258828 
L 545.222485 371.394305 
L 548.013212 277.813817 
L 550.803939 375.653007 
L 553.594665 536.233725 
L 556.385392 451.128674 
L 559.176119 467.25219 
L 561.966846 555.016502 
L 564.757572 480.771649 
L 567.548299 500.063253 
L 570.339026 590.323763 
L 573.129753 220.101181 
L 575.920479 328.683068 
L 578.711206 329.242625 
L 581.501933 573.290844 
L 584.29266 471.4989 
L 587.083386 596.431621 
L 589.874113 554.602169 
L 592.66484 427.684773 
L 595.455567 274.46159 
L 598.246293 519.692997 
L 601.03702 251.937659 
L 603.827747 162.719912 
L 606.618474 558.391295 
L 609.4092 233.919017 
L 612.199927 515.665018 
L 614.990654 456.83217 
L 617.781381 346.896156 
L 620.572107 278.713483 
L 623.362834 233.968785 
L 626.153561 487.481094 
L 628.944288 525.968208 
L 631.735014 214.410688 
L 634.525741 358.256071 
L 637.316468 430.656938 
L 640.107195 115.907617 
L 642.897921 428.003652 
L 645.688648 522.672598 
L 648.479375 112.699963 
L 651.270102 213.000896 
L 654.060828 496.496517 
L 656.851555 124.910361 
L 659.642282 471.796816 
L 662.433009 483.078564 
L 665.223735 360.164011 
L 668.014462 153.315782 
L 670.805189 532.545014 
L 673.595916 261.059206 
L 676.386642 359.808483 
L 679.177369 337.853696 
L 681.968096 568.182494 
L 684.758823 327.920513 
L 687.549549 520.55578 
L 690.340276 371.645366 
L 693.131003 396.04244 
L 695.92173 357.670467 
L 698.712456 489.619847 
L 701.503183 310.68918 
L 704.29391 305.190152 
L 707.084637 415.888002 
L 709.875363 551.217584 
L 712.66609 361.665026 
L 715.456817 244.227504 
L 718.247544 352.286093 
L 721.03827 288.236522 
L 723.828997 253.11838 
L 726.619724 381.706169 
L 729.410451 307.927394 
L 732.201177 277.042413 
L 734.991904 482.464473 
L 737.782631 586.755191 
L 740.573358 258.160881 
L 743.364084 561.886149 
L 746.154811 504.341635 
L 748.945538 503.529232 
L 751.736265 413.064703 
L 754.526991 231.055864 
L 757.317718 485.636666 
L 760.108445 287.979012 
L 762.899172 479.517993 
L 765.689898 255.827937 
L 768.480625 485.557761 
L 771.271352 314.813791 
L 774.062079 128.693948 
L 776.852805 419.460663 
L 779.643532 462.558952 
L 782.434259 282.561491 
L 785.224986 541.157496 
L 788.015712 499.149167 
L 790.806439 516.118962 
L 793.597166 240.096856 
L 796.387893 357.878928 
L 799.178619 246.508003 
L 801.969346 258.039028 
L 804.760073 281.602123 
L 807.5508 265.344348 
L 810.341526 251.487186 
L 813.132253 459.695713 
L 815.92298 390.045116 
L 818.713707 549.065178 
L 821.504433 370.420501 
L 824.29516 136.445953 
L 827.085887 260.997928 
L 829.876614 291.18009 
L 832.66734 237.158998 
L 835.458067 443.576306 
L 838.248794 318.599667 
L 841.039521 388.713969 
L 843.830247 261.108166 
L 846.620974 450.090167 
L 849.411701 422.897364 
L 852.202428 385.537711 
L 854.993154 421.301582 
L 857.783881 318.811873 
L 860.574608 369.730396 
L 863.365335 332.854711 
L 866.156061 504.173161 
L 868.946788 319.967654 
L 871.737515 270.10465 
L 874.528242 511.786881 
L 877.318968 312.821403 
L 880.109695 124.020159 
L 882.900422 466.328222 
L 885.691149 389.25112 
L 888.481875 162.62401 
L 891.272602 373.217753 
L 894.063329 254.592053 
L 896.854056 568.542481 
L 899.644782 391.922421 
L 902.435509 440.281114 
L 905.226236 242.307521 
L 908.016963 281.971973 
L 910.80769 280.013632 
L 913.598416 278.192354 
L 916.389143 285.168402 
L 919.17987 455.993883 
L 921.970597 294.783668 
L 924.761323 576.284535 
L 927.55205 223.059002 
L 930.342777 411.703209 
L 933.133504 496.475497 
L 935.92423 357.39387 
L 938.714957 432.392841 
L 941.505684 304.427497 
L 944.296411 401.350292 
L 947.087137 308.903115 
L 949.877864 299.357923 
L 952.668591 542.616067 
L 955.459318 523.299617 
L 958.250044 444.750585 
L 961.040771 501.512964 
L 963.831498 338.97305 
L 966.622225 370.665688 
L 969.412951 209.377332 
L 972.203678 385.161469 
L 974.994405 440.860155 
L 977.785132 298.681692 
L 980.575858 384.530927 
L 983.366585 260.83387 
L 986.157312 511.858409 
L 988.948039 305.922932 
L 991.738765 262.661391 
L 994.529492 405.611515 
L 997.320219 446.805026 
L 1000.110946 526.098905 
L 1002.901672 236.344572 
L 1005.692399 302.471846 
L 1008.483126 432.58919 
L 1011.273853 351.709025 
L 1014.064579 254.002401 
L 1016.855306 123.74647 
L 1019.646033 240.817472 
L 1022.43676 497.227502 
L 1025.227486 425.26447 
L 1028.018213 380.741485 
L 1030.80894 254.004703 
L 1033.599667 451.273064 
L 1036.390393 292.044941 
L 1039.18112 416.419623 
L 1041.971847 554.018192 
L 1044.762574 247.071247 
L 1047.5533 314.272321 
L 1050.344027 430.726836 
L 1053.134754 127.40676 
L 1055.925481 248.19756 
L 1058.716207 113.427827 
L 1061.506934 440.128473 
L 1064.297661 183.4612 
L 1067.088388 344.867775 
L 1069.879114 279.691335 
L 1072.669841 303.959834 
L 1078.251295 538.641447 
L 1081.042021 460.69285 
L 1083.832748 231.720971 
L 1086.623475 491.564817 
L 1089.414202 440.566249 
L 1092.204928 398.764825 
L 1094.995655 553.631962 
L 1097.786382 440.762238 
L 1100.577109 207.620235 
L 1103.367835 293.110129 
L 1106.158562 600.332686 
L 1108.949289 315.912658 
L 1111.740016 399.830567 
L 1114.530742 388.875519 
L 1117.321469 269.863811 
L 1120.112196 334.028826 
L 1122.902923 462.122961 
L 1125.693649 509.818335 
L 1128.484376 592.07396 
L 1131.275103 324.790123 
L 1134.06583 263.834087 
L 1136.856556 548.934043 
L 1139.647283 329.306116 
L 1142.43801 181.916532 
L 1145.228737 302.72514 
L 1148.019463 117.632655 
L 1150.81019 306.515291 
L 1153.600917 149.702256 
L 1156.391644 338.949153 
L 1159.18237 513.617659 
L 1161.973097 199.025133 
L 1164.763824 371.842987 
L 1167.554551 431.586414 
L 1170.345277 307.467509 
L 1173.136004 352.075255 
L 1175.926731 513.742037 
L 1178.717458 507.701637 
L 1181.508184 376.593297 
L 1184.298911 590.261662 
L 1187.089638 476.507881 
L 1189.880365 388.31121 
L 1192.671091 508.446211 
L 1195.461818 319.638534 
L 1195.461818 319.638534 
" style="fill:none;stroke:#2ca02c;stroke-linecap:square;stroke-width:0.5;"/>
   </g>
   <g id="patch_3">
    <path d="M 172.8 629.9064 
L 172.8 84.9312 
" style="fill:none;stroke:#000000;stroke-linecap:square;stroke-linejoin:miter;stroke-width:0.8;"/>
   </g>
   <g id="patch_4">
    <path d="M 1244.16 629.9064 
L 1244.16 84.9312 
" style="fill:none;stroke:#000000;stroke-linecap:square;stroke-linejoin:miter;stroke-width:0.8;"/>
   </g>
   <g id="patch_5">
    <path d="M 172.8 629.9064 
L 1244.16 629.9064 
" style="fill:none;stroke:#000000;stroke-linecap:square;stroke-linejoin:miter;stroke-width:0.8;"/>
   </g>
   <g id="patch_6">
    <path d="M 172.8 84.9312 
L 1244.16 84.9312 
" style="fill:none;stroke:#000000;stroke-linecap:square;stroke-linejoin:miter;stroke-width:0.8;"/>
   </g>
   <g id="text_15">
    <!-- NIS, 22.857142857142858% inside CI -->
    <g transform="translate(594.556875 78.9312)scale(0.12 -0.12)">
     <defs>
      <path d="M 628 4666 
L 1478 4666 
L 3547 763 
L 3547 4666 
L 4159 4666 
L 4159 0 
L 3309 0 
L 1241 3903 
L 1241 0 
L 628 0 
L 628 4666 
z
" id="DejaVuSans-4e" transform="scale(0.015625)"/>
      <path d="M 628 4666 
L 1259 4666 
L 1259 0 
L 628 0 
L 628 4666 
z
" id="DejaVuSans-49" transform="scale(0.015625)"/>
      <path d="M 3425 4513 
L 3425 3897 
Q 3066 4069 2747 4153 
Q 2428 4238 2131 4238 
Q 1616 4238 1336 4038 
Q 1056 3838 1056 3469 
Q 1056 3159 1242 3001 
Q 1428 2844 1947 2747 
L 2328 2669 
Q 3034 2534 3370 2195 
Q 3706 1856 3706 1288 
Q 3706 609 3251 259 
Q 2797 -91 1919 -91 
Q 1588 -91 1214 -16 
Q 841 59 441 206 
L 441 856 
Q 825 641 1194 531 
Q 1563 422 1919 422 
Q 2459 422 2753 634 
Q 3047 847 3047 1241 
Q 3047 1584 2836 1778 
Q 2625 1972 2144 2069 
L 1759 2144 
Q 1053 2284 737 2584 
Q 422 2884 422 3419 
Q 422 4038 858 4394 
Q 1294 4750 2059 4750 
Q 2388 4750 2728 4690 
Q 3069 4631 3425 4513 
z
" id="DejaVuSans-53" transform="scale(0.015625)"/>
      <path d="M 750 794 
L 1409 794 
L 1409 256 
L 897 -744 
L 494 -744 
L 750 256 
L 750 794 
z
" id="DejaVuSans-2c" transform="scale(0.015625)"/>
      <path id="DejaVuSans-20" transform="scale(0.015625)"/>
      <path d="M 684 794 
L 1344 794 
L 1344 0 
L 684 0 
L 684 794 
z
" id="DejaVuSans-2e" transform="scale(0.015625)"/>
      <path d="M 525 4666 
L 3525 4666 
L 3525 4397 
L 1831 0 
L 1172 0 
L 2766 4134 
L 525 4134 
L 525 4666 
z
" id="DejaVuSans-37" transform="scale(0.015625)"/>
      <path d="M 4653 2053 
Q 4381 2053 4226 1822 
Q 4072 1591 4072 1178 
Q 4072 772 4226 539 
Q 4381 306 4653 306 
Q 4919 306 5073 539 
Q 5228 772 5228 1178 
Q 5228 1588 5073 1820 
Q 4919 2053 4653 2053 
z
M 4653 2450 
Q 5147 2450 5437 2106 
Q 5728 1763 5728 1178 
Q 5728 594 5436 251 
Q 5144 -91 4653 -91 
Q 4153 -91 3862 251 
Q 3572 594 3572 1178 
Q 3572 1766 3864 2108 
Q 4156 2450 4653 2450 
z
M 1428 4353 
Q 1159 4353 1004 4120 
Q 850 3888 850 3481 
Q 850 3069 1003 2837 
Q 1156 2606 1428 2606 
Q 1700 2606 1854 2837 
Q 2009 3069 2009 3481 
Q 2009 3884 1853 4118 
Q 1697 4353 1428 4353 
z
M 4250 4750 
L 4750 4750 
L 1831 -91 
L 1331 -91 
L 4250 4750 
z
M 1428 4750 
Q 1922 4750 2215 4408 
Q 2509 4066 2509 3481 
Q 2509 2891 2217 2550 
Q 1925 2209 1428 2209 
Q 931 2209 642 2551 
Q 353 2894 353 3481 
Q 353 4063 643 4406 
Q 934 4750 1428 4750 
z
" id="DejaVuSans-25" transform="scale(0.015625)"/>
      <path d="M 603 3500 
L 1178 3500 
L 1178 0 
L 603 0 
L 603 3500 
z
M 603 4863 
L 1178 4863 
L 1178 4134 
L 603 4134 
L 603 4863 
z
" id="DejaVuSans-69" transform="scale(0.015625)"/>
      <path d="M 3513 2113 
L 3513 0 
L 2938 0 
L 2938 2094 
Q 2938 2591 2744 2837 
Q 2550 3084 2163 3084 
Q 1697 3084 1428 2787 
Q 1159 2491 1159 1978 
L 1159 0 
L 581 0 
L 581 3500 
L 1159 3500 
L 1159 2956 
Q 1366 3272 1645 3428 
Q 1925 3584 2291 3584 
Q 2894 3584 3203 3211 
Q 3513 2838 3513 2113 
z
" id="DejaVuSans-6e" transform="scale(0.015625)"/>
      <path d="M 2834 3397 
L 2834 2853 
Q 2591 2978 2328 3040 
Q 2066 3103 1784 3103 
Q 1356 3103 1142 2972 
Q 928 2841 928 2578 
Q 928 2378 1081 2264 
Q 1234 2150 1697 2047 
L 1894 2003 
Q 2506 1872 2764 1633 
Q 3022 1394 3022 966 
Q 3022 478 2636 193 
Q 2250 -91 1575 -91 
Q 1294 -91 989 -36 
Q 684 19 347 128 
L 347 722 
Q 666 556 975 473 
Q 1284 391 1588 391 
Q 1994 391 2212 530 
Q 2431 669 2431 922 
Q 2431 1156 2273 1281 
Q 2116 1406 1581 1522 
L 1381 1569 
Q 847 1681 609 1914 
Q 372 2147 372 2553 
Q 372 3047 722 3315 
Q 1072 3584 1716 3584 
Q 2034 3584 2315 3537 
Q 2597 3491 2834 3397 
z
" id="DejaVuSans-73" transform="scale(0.015625)"/>
      <path d="M 2906 2969 
L 2906 4863 
L 3481 4863 
L 3481 0 
L 2906 0 
L 2906 525 
Q 2725 213 2448 61 
Q 2172 -91 1784 -91 
Q 1150 -91 751 415 
Q 353 922 353 1747 
Q 353 2572 751 3078 
Q 1150 3584 1784 3584 
Q 2172 3584 2448 3432 
Q 2725 3281 2906 2969 
z
M 947 1747 
Q 947 1113 1208 752 
Q 1469 391 1925 391 
Q 2381 391 2643 752 
Q 2906 1113 2906 1747 
Q 2906 2381 2643 2742 
Q 2381 3103 1925 3103 
Q 1469 3103 1208 2742 
Q 947 2381 947 1747 
z
" id="DejaVuSans-64" transform="scale(0.015625)"/>
      <path d="M 3597 1894 
L 3597 1613 
L 953 1613 
Q 991 1019 1311 708 
Q 1631 397 2203 397 
Q 2534 397 2845 478 
Q 3156 559 3463 722 
L 3463 178 
Q 3153 47 2828 -22 
Q 2503 -91 2169 -91 
Q 1331 -91 842 396 
Q 353 884 353 1716 
Q 353 2575 817 3079 
Q 1281 3584 2069 3584 
Q 2775 3584 3186 3129 
Q 3597 2675 3597 1894 
z
M 3022 2063 
Q 3016 2534 2758 2815 
Q 2500 3097 2075 3097 
Q 1594 3097 1305 2825 
Q 1016 2553 972 2059 
L 3022 2063 
z
" id="DejaVuSans-65" transform="scale(0.015625)"/>
      <path d="M 4122 4306 
L 4122 3641 
Q 3803 3938 3442 4084 
Q 3081 4231 2675 4231 
Q 1875 4231 1450 3742 
Q 1025 3253 1025 2328 
Q 1025 1406 1450 917 
Q 1875 428 2675 428 
Q 3081 428 3442 575 
Q 3803 722 4122 1019 
L 4122 359 
Q 3791 134 3420 21 
Q 3050 -91 2638 -91 
Q 1578 -91 968 557 
Q 359 1206 359 2328 
Q 359 3453 968 4101 
Q 1578 4750 2638 4750 
Q 3056 4750 3426 4639 
Q 3797 4528 4122 4306 
z
" id="DejaVuSans-43" transform="scale(0.015625)"/>
     </defs>
     <use xlink:href="#DejaVuSans-4e"/>
     <use x="74.804688" xlink:href="#DejaVuSans-49"/>
     <use x="104.296875" xlink:href="#DejaVuSans-53"/>
     <use x="167.773438" xlink:href="#DejaVuSans-2c"/>
     <use x="199.560547" xlink:href="#DejaVuSans-20"/>
     <use x="231.347656" xlink:href="#DejaVuSans-32"/>
     <use x="294.970703" xlink:href="#DejaVuSans-32"/>
     <use x="358.59375" xlink:href="#DejaVuSans-2e"/>
     <use x="390.380859" xlink:href="#DejaVuSans-38"/>
     <use x="454.003906" xlink:href="#DejaVuSans-35"/>
     <use x="517.626953" xlink:href="#DejaVuSans-37"/>
     <use x="581.25" xlink:href="#DejaVuSans-31"/>
     <use x="644.873047" xlink:href="#DejaVuSans-34"/>
     <use x="708.496094" xlink:href="#DejaVuSans-32"/>
     <use x="772.119141" xlink:href="#DejaVuSans-38"/>
     <use x="835.742188" xlink:href="#DejaVuSans-35"/>
     <use x="899.365234" xlink:href="#DejaVuSans-37"/>
     <use x="962.988281" xlink:href="#DejaVuSans-31"/>
     <use x="1026.611328" xlink:href="#DejaVuSans-34"/>
     <use x="1090.234375" xlink:href="#DejaVuSans-32"/>
     <use x="1153.857422" xlink:href="#DejaVuSans-38"/>
     <use x="1217.480469" xlink:href="#DejaVuSans-35"/>
     <use x="1281.103516" xlink:href="#DejaVuSans-38"/>
     <use x="1344.726562" xlink:href="#DejaVuSans-25"/>
     <use x="1439.746094" xlink:href="#DejaVuSans-20"/>
     <use x="1471.533203" xlink:href="#DejaVuSans-69"/>
     <use x="1499.316406" xlink:href="#DejaVuSans-6e"/>
     <use x="1562.695312" xlink:href="#DejaVuSans-73"/>
     <use x="1614.794922" xlink:href="#DejaVuSans-69"/>
     <use x="1642.578125" xlink:href="#DejaVuSans-64"/>
     <use x="1706.054688" xlink:href="#DejaVuSans-65"/>
     <use x="1767.578125" xlink:href="#DejaVuSans-20"/>
     <use x="1799.365234" xlink:href="#DejaVuSans-43"/>
     <use x="1869.189453" xlink:href="#DejaVuSans-49"/>
    </g>
   </g>
  </g>
 </g>
 <defs>
  <clipPath id="p9988fd31b5">
   <rect height="544.9752" width="1071.36" x="172.8" y="84.9312"/>
  </clipPath>
 </defs>
</svg>
