<?xml version="1.0" encoding="utf-8" standalone="no"?>
<!DOCTYPE svg PUBLIC "-//W3C//DTD SVG 1.1//EN"
  "http://www.w3.org/Graphics/SVG/1.1/DTD/svg11.dtd">
<svg height="707.76pt" version="1.1" viewBox="0 0 1382.4 707.76" width="1382.4pt" xmlns="http://www.w3.org/2000/svg" xmlns:xlink="http://www.w3.org/1999/xlink">
 <metadata>
  <rdf:RDF xmlns:cc="http://creativecommons.org/ns#" xmlns:dc="http://purl.org/dc/elements/1.1/" xmlns:rdf="http://www.w3.org/1999/02/22-rdf-syntax-ns#">
   <cc:Work>
    <dc:type rdf:resource="http://purl.org/dc/dcmitype/StillImage"/>
    <dc:date>2021-11-17T17:10:45.653058</dc:date>
    <dc:format>image/svg+xml</dc:format>
    <dc:creator>
     <cc:Agent>
      <dc:title>Matplotlib v3.4.3, https://matplotlib.org/</dc:title>
     </cc:Agent>
    </dc:creator>
   </cc:Work>
  </rdf:RDF>
 </metadata>
 <defs>
  <style type="text/css">*{stroke-linecap:butt;stroke-linejoin:round;}</style>
 </defs>
 <g id="figure_1">
  <g id="patch_1">
   <path d="M 0 707.76 
L 1382.4 707.76 
L 1382.4 0 
L 0 0 
z
" style="fill:#ffffff;"/>
  </g>
  <g id="axes_1">
   <g id="patch_2">
    <path d="M 172.8 629.9064 
L 1244.16 629.9064 
L 1244.16 84.9312 
L 172.8 84.9312 
z
" style="fill:#ffffff;"/>
   </g>
   <g id="matplotlib.axis_1">
    <g id="xtick_1">
     <g id="line2d_1">
      <path clip-path="url(#p95243028f8)" d="M 221.498182 629.9064 
L 221.498182 84.9312 
" style="fill:none;stroke:#000000;stroke-dasharray:0.5,0.825;stroke-dashoffset:0;stroke-opacity:0.5;stroke-width:0.5;"/>
     </g>
     <g id="line2d_2">
      <defs>
       <path d="M 0 0 
L 0 3.5 
" id="m8ee275173e" style="stroke:#000000;stroke-width:0.8;"/>
      </defs>
      <g>
       <use style="stroke:#000000;stroke-width:0.8;" x="221.498182" xlink:href="#m8ee275173e" y="629.9064"/>
      </g>
     </g>
     <g id="text_1">
      <!-- 0 -->
      <g transform="translate(218.316932 644.504838)scale(0.1 -0.1)">
       <defs>
        <path d="M 2034 4250 
Q 1547 4250 1301 3770 
Q 1056 3291 1056 2328 
Q 1056 1369 1301 889 
Q 1547 409 2034 409 
Q 2525 409 2770 889 
Q 3016 1369 3016 2328 
Q 3016 3291 2770 3770 
Q 2525 4250 2034 4250 
z
M 2034 4750 
Q 2819 4750 3233 4129 
Q 3647 3509 3647 2328 
Q 3647 1150 3233 529 
Q 2819 -91 2034 -91 
Q 1250 -91 836 529 
Q 422 1150 422 2328 
Q 422 3509 836 4129 
Q 1250 4750 2034 4750 
z
" id="DejaVuSans-30" transform="scale(0.015625)"/>
       </defs>
       <use xlink:href="#DejaVuSans-30"/>
      </g>
     </g>
    </g>
    <g id="xtick_2">
     <g id="line2d_3">
      <path clip-path="url(#p95243028f8)" d="M 387.987692 629.9064 
L 387.987692 84.9312 
" style="fill:none;stroke:#000000;stroke-dasharray:0.5,0.825;stroke-dashoffset:0;stroke-opacity:0.5;stroke-width:0.5;"/>
     </g>
     <g id="line2d_4">
      <g>
       <use style="stroke:#000000;stroke-width:0.8;" x="387.987692" xlink:href="#m8ee275173e" y="629.9064"/>
      </g>
     </g>
     <g id="text_2">
      <!-- 100 -->
      <g transform="translate(378.443942 644.504838)scale(0.1 -0.1)">
       <defs>
        <path d="M 794 531 
L 1825 531 
L 1825 4091 
L 703 3866 
L 703 4441 
L 1819 4666 
L 2450 4666 
L 2450 531 
L 3481 531 
L 3481 0 
L 794 0 
L 794 531 
z
" id="DejaVuSans-31" transform="scale(0.015625)"/>
       </defs>
       <use xlink:href="#DejaVuSans-31"/>
       <use x="63.623047" xlink:href="#DejaVuSans-30"/>
       <use x="127.246094" xlink:href="#DejaVuSans-30"/>
      </g>
     </g>
    </g>
    <g id="xtick_3">
     <g id="line2d_5">
      <path clip-path="url(#p95243028f8)" d="M 554.477203 629.9064 
L 554.477203 84.9312 
" style="fill:none;stroke:#000000;stroke-dasharray:0.5,0.825;stroke-dashoffset:0;stroke-opacity:0.5;stroke-width:0.5;"/>
     </g>
     <g id="line2d_6">
      <g>
       <use style="stroke:#000000;stroke-width:0.8;" x="554.477203" xlink:href="#m8ee275173e" y="629.9064"/>
      </g>
     </g>
     <g id="text_3">
      <!-- 200 -->
      <g transform="translate(544.933453 644.504838)scale(0.1 -0.1)">
       <defs>
        <path d="M 1228 531 
L 3431 531 
L 3431 0 
L 469 0 
L 469 531 
Q 828 903 1448 1529 
Q 2069 2156 2228 2338 
Q 2531 2678 2651 2914 
Q 2772 3150 2772 3378 
Q 2772 3750 2511 3984 
Q 2250 4219 1831 4219 
Q 1534 4219 1204 4116 
Q 875 4013 500 3803 
L 500 4441 
Q 881 4594 1212 4672 
Q 1544 4750 1819 4750 
Q 2544 4750 2975 4387 
Q 3406 4025 3406 3419 
Q 3406 3131 3298 2873 
Q 3191 2616 2906 2266 
Q 2828 2175 2409 1742 
Q 1991 1309 1228 531 
z
" id="DejaVuSans-32" transform="scale(0.015625)"/>
       </defs>
       <use xlink:href="#DejaVuSans-32"/>
       <use x="63.623047" xlink:href="#DejaVuSans-30"/>
       <use x="127.246094" xlink:href="#DejaVuSans-30"/>
      </g>
     </g>
    </g>
    <g id="xtick_4">
     <g id="line2d_7">
      <path clip-path="url(#p95243028f8)" d="M 720.966713 629.9064 
L 720.966713 84.9312 
" style="fill:none;stroke:#000000;stroke-dasharray:0.5,0.825;stroke-dashoffset:0;stroke-opacity:0.5;stroke-width:0.5;"/>
     </g>
     <g id="line2d_8">
      <g>
       <use style="stroke:#000000;stroke-width:0.8;" x="720.966713" xlink:href="#m8ee275173e" y="629.9064"/>
      </g>
     </g>
     <g id="text_4">
      <!-- 300 -->
      <g transform="translate(711.422963 644.504838)scale(0.1 -0.1)">
       <defs>
        <path d="M 2597 2516 
Q 3050 2419 3304 2112 
Q 3559 1806 3559 1356 
Q 3559 666 3084 287 
Q 2609 -91 1734 -91 
Q 1441 -91 1130 -33 
Q 819 25 488 141 
L 488 750 
Q 750 597 1062 519 
Q 1375 441 1716 441 
Q 2309 441 2620 675 
Q 2931 909 2931 1356 
Q 2931 1769 2642 2001 
Q 2353 2234 1838 2234 
L 1294 2234 
L 1294 2753 
L 1863 2753 
Q 2328 2753 2575 2939 
Q 2822 3125 2822 3475 
Q 2822 3834 2567 4026 
Q 2313 4219 1838 4219 
Q 1578 4219 1281 4162 
Q 984 4106 628 3988 
L 628 4550 
Q 988 4650 1302 4700 
Q 1616 4750 1894 4750 
Q 2613 4750 3031 4423 
Q 3450 4097 3450 3541 
Q 3450 3153 3228 2886 
Q 3006 2619 2597 2516 
z
" id="DejaVuSans-33" transform="scale(0.015625)"/>
       </defs>
       <use xlink:href="#DejaVuSans-33"/>
       <use x="63.623047" xlink:href="#DejaVuSans-30"/>
       <use x="127.246094" xlink:href="#DejaVuSans-30"/>
      </g>
     </g>
    </g>
    <g id="xtick_5">
     <g id="line2d_9">
      <path clip-path="url(#p95243028f8)" d="M 887.456224 629.9064 
L 887.456224 84.9312 
" style="fill:none;stroke:#000000;stroke-dasharray:0.5,0.825;stroke-dashoffset:0;stroke-opacity:0.5;stroke-width:0.5;"/>
     </g>
     <g id="line2d_10">
      <g>
       <use style="stroke:#000000;stroke-width:0.8;" x="887.456224" xlink:href="#m8ee275173e" y="629.9064"/>
      </g>
     </g>
     <g id="text_5">
      <!-- 400 -->
      <g transform="translate(877.912474 644.504838)scale(0.1 -0.1)">
       <defs>
        <path d="M 2419 4116 
L 825 1625 
L 2419 1625 
L 2419 4116 
z
M 2253 4666 
L 3047 4666 
L 3047 1625 
L 3713 1625 
L 3713 1100 
L 3047 1100 
L 3047 0 
L 2419 0 
L 2419 1100 
L 313 1100 
L 313 1709 
L 2253 4666 
z
" id="DejaVuSans-34" transform="scale(0.015625)"/>
       </defs>
       <use xlink:href="#DejaVuSans-34"/>
       <use x="63.623047" xlink:href="#DejaVuSans-30"/>
       <use x="127.246094" xlink:href="#DejaVuSans-30"/>
      </g>
     </g>
    </g>
    <g id="xtick_6">
     <g id="line2d_11">
      <path clip-path="url(#p95243028f8)" d="M 1053.945734 629.9064 
L 1053.945734 84.9312 
" style="fill:none;stroke:#000000;stroke-dasharray:0.5,0.825;stroke-dashoffset:0;stroke-opacity:0.5;stroke-width:0.5;"/>
     </g>
     <g id="line2d_12">
      <g>
       <use style="stroke:#000000;stroke-width:0.8;" x="1053.945734" xlink:href="#m8ee275173e" y="629.9064"/>
      </g>
     </g>
     <g id="text_6">
      <!-- 500 -->
      <g transform="translate(1044.401984 644.504838)scale(0.1 -0.1)">
       <defs>
        <path d="M 691 4666 
L 3169 4666 
L 3169 4134 
L 1269 4134 
L 1269 2991 
Q 1406 3038 1543 3061 
Q 1681 3084 1819 3084 
Q 2600 3084 3056 2656 
Q 3513 2228 3513 1497 
Q 3513 744 3044 326 
Q 2575 -91 1722 -91 
Q 1428 -91 1123 -41 
Q 819 9 494 109 
L 494 744 
Q 775 591 1075 516 
Q 1375 441 1709 441 
Q 2250 441 2565 725 
Q 2881 1009 2881 1497 
Q 2881 1984 2565 2268 
Q 2250 2553 1709 2553 
Q 1456 2553 1204 2497 
Q 953 2441 691 2322 
L 691 4666 
z
" id="DejaVuSans-35" transform="scale(0.015625)"/>
       </defs>
       <use xlink:href="#DejaVuSans-35"/>
       <use x="63.623047" xlink:href="#DejaVuSans-30"/>
       <use x="127.246094" xlink:href="#DejaVuSans-30"/>
      </g>
     </g>
    </g>
    <g id="xtick_7">
     <g id="line2d_13">
      <path clip-path="url(#p95243028f8)" d="M 1220.435245 629.9064 
L 1220.435245 84.9312 
" style="fill:none;stroke:#000000;stroke-dasharray:0.5,0.825;stroke-dashoffset:0;stroke-opacity:0.5;stroke-width:0.5;"/>
     </g>
     <g id="line2d_14">
      <g>
       <use style="stroke:#000000;stroke-width:0.8;" x="1220.435245" xlink:href="#m8ee275173e" y="629.9064"/>
      </g>
     </g>
     <g id="text_7">
      <!-- 600 -->
      <g transform="translate(1210.891495 644.504838)scale(0.1 -0.1)">
       <defs>
        <path d="M 2113 2584 
Q 1688 2584 1439 2293 
Q 1191 2003 1191 1497 
Q 1191 994 1439 701 
Q 1688 409 2113 409 
Q 2538 409 2786 701 
Q 3034 994 3034 1497 
Q 3034 2003 2786 2293 
Q 2538 2584 2113 2584 
z
M 3366 4563 
L 3366 3988 
Q 3128 4100 2886 4159 
Q 2644 4219 2406 4219 
Q 1781 4219 1451 3797 
Q 1122 3375 1075 2522 
Q 1259 2794 1537 2939 
Q 1816 3084 2150 3084 
Q 2853 3084 3261 2657 
Q 3669 2231 3669 1497 
Q 3669 778 3244 343 
Q 2819 -91 2113 -91 
Q 1303 -91 875 529 
Q 447 1150 447 2328 
Q 447 3434 972 4092 
Q 1497 4750 2381 4750 
Q 2619 4750 2861 4703 
Q 3103 4656 3366 4563 
z
" id="DejaVuSans-36" transform="scale(0.015625)"/>
       </defs>
       <use xlink:href="#DejaVuSans-36"/>
       <use x="63.623047" xlink:href="#DejaVuSans-30"/>
       <use x="127.246094" xlink:href="#DejaVuSans-30"/>
      </g>
     </g>
    </g>
   </g>
   <g id="matplotlib.axis_2">
    <g id="ytick_1">
     <g id="line2d_15">
      <path clip-path="url(#p95243028f8)" d="M 172.8 605.1348 
L 1244.16 605.1348 
" style="fill:none;stroke:#000000;stroke-dasharray:0.5,0.825;stroke-dashoffset:0;stroke-opacity:0.5;stroke-width:0.5;"/>
     </g>
     <g id="line2d_16">
      <defs>
       <path d="M 0 0 
L -3.5 0 
" id="m16dc5db2f2" style="stroke:#000000;stroke-width:0.8;"/>
      </defs>
      <g>
       <use style="stroke:#000000;stroke-width:0.8;" x="172.8" xlink:href="#m16dc5db2f2" y="605.1348"/>
      </g>
     </g>
     <g id="text_8">
      <!-- 0.0 -->
      <g transform="translate(149.896875 608.934019)scale(0.1 -0.1)">
       <defs>
        <path d="M 684 794 
L 1344 794 
L 1344 0 
L 684 0 
L 684 794 
z
" id="DejaVuSans-2e" transform="scale(0.015625)"/>
       </defs>
       <use xlink:href="#DejaVuSans-30"/>
       <use x="63.623047" xlink:href="#DejaVuSans-2e"/>
       <use x="95.410156" xlink:href="#DejaVuSans-30"/>
      </g>
     </g>
    </g>
    <g id="ytick_2">
     <g id="line2d_17">
      <path clip-path="url(#p95243028f8)" d="M 172.8 537.982701 
L 1244.16 537.982701 
" style="fill:none;stroke:#000000;stroke-dasharray:0.5,0.825;stroke-dashoffset:0;stroke-opacity:0.5;stroke-width:0.5;"/>
     </g>
     <g id="line2d_18">
      <g>
       <use style="stroke:#000000;stroke-width:0.8;" x="172.8" xlink:href="#m16dc5db2f2" y="537.982701"/>
      </g>
     </g>
     <g id="text_9">
      <!-- 0.5 -->
      <g transform="translate(149.896875 541.781919)scale(0.1 -0.1)">
       <use xlink:href="#DejaVuSans-30"/>
       <use x="63.623047" xlink:href="#DejaVuSans-2e"/>
       <use x="95.410156" xlink:href="#DejaVuSans-35"/>
      </g>
     </g>
    </g>
    <g id="ytick_3">
     <g id="line2d_19">
      <path clip-path="url(#p95243028f8)" d="M 172.8 470.830601 
L 1244.16 470.830601 
" style="fill:none;stroke:#000000;stroke-dasharray:0.5,0.825;stroke-dashoffset:0;stroke-opacity:0.5;stroke-width:0.5;"/>
     </g>
     <g id="line2d_20">
      <g>
       <use style="stroke:#000000;stroke-width:0.8;" x="172.8" xlink:href="#m16dc5db2f2" y="470.830601"/>
      </g>
     </g>
     <g id="text_10">
      <!-- 1.0 -->
      <g transform="translate(149.896875 474.62982)scale(0.1 -0.1)">
       <use xlink:href="#DejaVuSans-31"/>
       <use x="63.623047" xlink:href="#DejaVuSans-2e"/>
       <use x="95.410156" xlink:href="#DejaVuSans-30"/>
      </g>
     </g>
    </g>
    <g id="ytick_4">
     <g id="line2d_21">
      <path clip-path="url(#p95243028f8)" d="M 172.8 403.678502 
L 1244.16 403.678502 
" style="fill:none;stroke:#000000;stroke-dasharray:0.5,0.825;stroke-dashoffset:0;stroke-opacity:0.5;stroke-width:0.5;"/>
     </g>
     <g id="line2d_22">
      <g>
       <use style="stroke:#000000;stroke-width:0.8;" x="172.8" xlink:href="#m16dc5db2f2" y="403.678502"/>
      </g>
     </g>
     <g id="text_11">
      <!-- 1.5 -->
      <g transform="translate(149.896875 407.47772)scale(0.1 -0.1)">
       <use xlink:href="#DejaVuSans-31"/>
       <use x="63.623047" xlink:href="#DejaVuSans-2e"/>
       <use x="95.410156" xlink:href="#DejaVuSans-35"/>
      </g>
     </g>
    </g>
    <g id="ytick_5">
     <g id="line2d_23">
      <path clip-path="url(#p95243028f8)" d="M 172.8 336.526402 
L 1244.16 336.526402 
" style="fill:none;stroke:#000000;stroke-dasharray:0.5,0.825;stroke-dashoffset:0;stroke-opacity:0.5;stroke-width:0.5;"/>
     </g>
     <g id="line2d_24">
      <g>
       <use style="stroke:#000000;stroke-width:0.8;" x="172.8" xlink:href="#m16dc5db2f2" y="336.526402"/>
      </g>
     </g>
     <g id="text_12">
      <!-- 2.0 -->
      <g transform="translate(149.896875 340.325621)scale(0.1 -0.1)">
       <use xlink:href="#DejaVuSans-32"/>
       <use x="63.623047" xlink:href="#DejaVuSans-2e"/>
       <use x="95.410156" xlink:href="#DejaVuSans-30"/>
      </g>
     </g>
    </g>
    <g id="ytick_6">
     <g id="line2d_25">
      <path clip-path="url(#p95243028f8)" d="M 172.8 269.374303 
L 1244.16 269.374303 
" style="fill:none;stroke:#000000;stroke-dasharray:0.5,0.825;stroke-dashoffset:0;stroke-opacity:0.5;stroke-width:0.5;"/>
     </g>
     <g id="line2d_26">
      <g>
       <use style="stroke:#000000;stroke-width:0.8;" x="172.8" xlink:href="#m16dc5db2f2" y="269.374303"/>
      </g>
     </g>
     <g id="text_13">
      <!-- 2.5 -->
      <g transform="translate(149.896875 273.173521)scale(0.1 -0.1)">
       <use xlink:href="#DejaVuSans-32"/>
       <use x="63.623047" xlink:href="#DejaVuSans-2e"/>
       <use x="95.410156" xlink:href="#DejaVuSans-35"/>
      </g>
     </g>
    </g>
    <g id="ytick_7">
     <g id="line2d_27">
      <path clip-path="url(#p95243028f8)" d="M 172.8 202.222203 
L 1244.16 202.222203 
" style="fill:none;stroke:#000000;stroke-dasharray:0.5,0.825;stroke-dashoffset:0;stroke-opacity:0.5;stroke-width:0.5;"/>
     </g>
     <g id="line2d_28">
      <g>
       <use style="stroke:#000000;stroke-width:0.8;" x="172.8" xlink:href="#m16dc5db2f2" y="202.222203"/>
      </g>
     </g>
     <g id="text_14">
      <!-- 3.0 -->
      <g transform="translate(149.896875 206.021422)scale(0.1 -0.1)">
       <use xlink:href="#DejaVuSans-33"/>
       <use x="63.623047" xlink:href="#DejaVuSans-2e"/>
       <use x="95.410156" xlink:href="#DejaVuSans-30"/>
      </g>
     </g>
    </g>
    <g id="ytick_8">
     <g id="line2d_29">
      <path clip-path="url(#p95243028f8)" d="M 172.8 135.070104 
L 1244.16 135.070104 
" style="fill:none;stroke:#000000;stroke-dasharray:0.5,0.825;stroke-dashoffset:0;stroke-opacity:0.5;stroke-width:0.5;"/>
     </g>
     <g id="line2d_30">
      <g>
       <use style="stroke:#000000;stroke-width:0.8;" x="172.8" xlink:href="#m16dc5db2f2" y="135.070104"/>
      </g>
     </g>
     <g id="text_15">
      <!-- 3.5 -->
      <g transform="translate(149.896875 138.869323)scale(0.1 -0.1)">
       <use xlink:href="#DejaVuSans-33"/>
       <use x="63.623047" xlink:href="#DejaVuSans-2e"/>
       <use x="95.410156" xlink:href="#DejaVuSans-35"/>
      </g>
     </g>
    </g>
   </g>
   <g id="line2d_31">
    <path clip-path="url(#p95243028f8)" d="M 221.498182 605.1348 
L 223.163077 470.830601 
L 224.827972 547.15178 
L 238.147133 547.15178 
L 239.812028 543.722368 
L 241.476923 543.722368 
L 243.141818 547.15178 
L 244.806713 547.15178 
L 246.471608 540.730716 
L 248.136503 547.15178 
L 249.801399 547.15178 
L 251.466294 543.722368 
L 253.131189 551.137546 
L 254.796084 547.15178 
L 256.460979 547.15178 
L 258.125874 551.137546 
L 259.790769 543.722368 
L 261.455664 543.722368 
L 263.120559 547.15178 
L 264.785455 543.722368 
L 266.45035 547.15178 
L 268.115245 543.722368 
L 269.78014 543.722368 
L 271.445035 555.847526 
L 273.10993 543.722368 
L 274.774825 543.722368 
L 276.43972 547.15178 
L 278.104615 547.15178 
L 279.76951 543.722368 
L 281.434406 547.15178 
L 283.099301 543.722368 
L 284.764196 538.090628 
L 288.093986 538.090628 
L 289.758881 540.730716 
L 293.088671 540.730716 
L 294.753566 543.722368 
L 296.418462 547.15178 
L 298.083357 538.090628 
L 299.748252 543.722368 
L 301.413147 538.090628 
L 303.078042 538.090628 
L 304.742937 533.62347 
L 306.407832 533.62347 
L 308.072727 535.737861 
L 309.737622 535.737861 
L 311.402517 533.62347 
L 313.067413 535.737861 
L 316.397203 535.737861 
L 318.062098 533.62347 
L 324.721678 533.62347 
L 326.386573 531.709445 
L 328.051469 533.62347 
L 329.716364 533.62347 
L 331.381259 540.730716 
L 333.046154 540.730716 
L 334.711049 538.090628 
L 336.375944 533.62347 
L 338.040839 538.090628 
L 339.705734 533.62347 
L 341.370629 535.737861 
L 343.035524 533.62347 
L 344.70042 533.62347 
L 346.365315 535.737861 
L 353.024895 535.737861 
L 354.68979 533.62347 
L 356.354685 535.737861 
L 358.01958 533.62347 
L 359.684476 533.62347 
L 361.349371 531.709445 
L 363.014266 533.62347 
L 364.679161 533.62347 
L 366.344056 535.737861 
L 368.008951 533.62347 
L 369.673846 535.737861 
L 371.338741 531.709445 
L 373.003636 533.62347 
L 374.668531 533.62347 
L 376.333427 535.737861 
L 377.998322 533.62347 
L 379.663217 533.62347 
L 381.328112 531.709445 
L 382.993007 531.709445 
L 384.657902 533.62347 
L 389.652587 533.62347 
L 391.317483 535.737861 
L 392.982378 538.090628 
L 394.647273 535.737861 
L 396.312168 540.730716 
L 397.977063 533.62347 
L 399.641958 535.737861 
L 401.306853 538.090628 
L 402.971748 535.737861 
L 404.636643 529.965759 
L 406.301538 533.62347 
L 409.631329 533.62347 
L 411.296224 538.090628 
L 412.961119 540.730716 
L 414.626014 538.090628 
L 416.290909 540.730716 
L 417.955804 533.62347 
L 419.620699 535.737861 
L 421.285594 540.730716 
L 422.95049 543.722368 
L 424.615385 531.709445 
L 426.28028 533.62347 
L 427.945175 535.737861 
L 429.61007 540.730716 
L 431.274965 540.730716 
L 432.93986 538.090628 
L 434.604755 543.722368 
L 436.26965 538.090628 
L 437.934545 535.737861 
L 439.599441 540.730716 
L 441.264336 540.730716 
L 442.929231 533.62347 
L 444.594126 540.730716 
L 446.259021 538.090628 
L 447.923916 547.15178 
L 449.588811 547.15178 
L 451.253706 551.137546 
L 452.918601 547.15178 
L 454.583497 535.737861 
L 456.248392 538.090628 
L 457.913287 547.15178 
L 459.578182 533.62347 
L 461.243077 535.737861 
L 462.907972 538.090628 
L 464.572867 547.15178 
L 466.237762 547.15178 
L 467.902657 551.137546 
L 469.567552 555.847526 
L 471.232448 551.137546 
L 472.897343 568.541426 
L 474.562238 568.541426 
L 476.227133 555.847526 
L 477.892028 555.847526 
L 479.556923 561.526592 
L 481.221818 551.137546 
L 482.886713 547.15178 
L 484.551608 547.15178 
L 487.881399 588.869938 
L 489.546294 568.541426 
L 491.211189 561.526592 
L 492.876084 555.847526 
L 494.540979 555.847526 
L 496.205874 561.526592 
L 497.870769 561.526592 
L 499.535664 547.15178 
L 501.200559 561.526592 
L 502.865455 555.847526 
L 504.53035 601.734512 
L 506.195245 555.847526 
L 507.86014 568.541426 
L 509.525035 577.438045 
L 511.18993 555.847526 
L 512.854825 551.137546 
L 514.51972 555.847526 
L 516.184615 568.541426 
L 517.84951 568.541426 
L 519.514406 561.526592 
L 521.179301 555.847526 
L 522.844196 555.847526 
L 524.509091 568.541426 
L 526.173986 551.137546 
L 527.838881 555.847526 
L 534.498462 555.847526 
L 536.163357 551.137546 
L 537.828252 555.847526 
L 539.493147 555.847526 
L 541.158042 540.730716 
L 542.822937 538.090628 
L 544.487832 543.722368 
L 547.817622 543.722368 
L 549.482517 540.730716 
L 551.147413 540.730716 
L 552.812308 547.15178 
L 554.477203 543.722368 
L 557.806993 543.722368 
L 559.471888 538.090628 
L 561.136783 540.730716 
L 562.801678 551.137546 
L 564.466573 543.722368 
L 566.131469 547.15178 
L 567.796364 540.730716 
L 571.126154 540.730716 
L 572.791049 547.15178 
L 574.455944 540.730716 
L 576.120839 538.090628 
L 577.785734 538.090628 
L 579.450629 535.737861 
L 581.115524 543.722368 
L 582.78042 538.090628 
L 584.445315 540.730716 
L 586.11021 543.722368 
L 587.775105 551.137546 
L 589.44 543.722368 
L 591.104895 540.730716 
L 592.76979 547.15178 
L 594.434685 540.730716 
L 596.09958 547.15178 
L 597.764476 551.137546 
L 599.429371 547.15178 
L 601.094266 551.137546 
L 602.759161 547.15178 
L 604.424056 555.847526 
L 606.088951 547.15178 
L 607.753846 551.137546 
L 609.418741 551.137546 
L 611.083636 561.526592 
L 612.748531 555.847526 
L 614.413427 551.137546 
L 616.078322 555.847526 
L 617.743217 555.847526 
L 619.408112 561.526592 
L 621.073007 555.847526 
L 622.737902 551.137546 
L 624.402797 547.15178 
L 626.067692 555.847526 
L 627.732587 551.137546 
L 629.397483 555.847526 
L 631.062378 547.15178 
L 632.727273 547.15178 
L 634.392168 561.526592 
L 636.057063 568.541426 
L 637.721958 551.137546 
L 639.386853 568.541426 
L 641.051748 561.526592 
L 642.716643 555.847526 
L 644.381538 555.847526 
L 646.046434 561.526592 
L 647.711329 547.15178 
L 649.376224 551.137546 
L 651.041119 555.847526 
L 652.706014 551.137546 
L 656.035804 551.137546 
L 657.700699 540.730716 
L 659.365594 540.730716 
L 661.03049 543.722368 
L 662.695385 547.15178 
L 664.36028 540.730716 
L 666.025175 540.730716 
L 667.69007 551.137546 
L 669.354965 551.137546 
L 671.01986 547.15178 
L 672.684755 540.730716 
L 674.34965 543.722368 
L 676.014545 543.722368 
L 677.679441 551.137546 
L 679.344336 547.15178 
L 681.009231 547.15178 
L 682.674126 540.730716 
L 684.339021 540.730716 
L 686.003916 547.15178 
L 687.668811 538.090628 
L 689.333706 540.730716 
L 690.998601 543.722368 
L 692.663497 535.737861 
L 694.328392 540.730716 
L 695.993287 540.730716 
L 697.658182 538.090628 
L 700.987972 538.090628 
L 702.652867 535.737861 
L 704.317762 540.730716 
L 705.982657 535.737861 
L 707.647552 535.737861 
L 709.312448 540.730716 
L 710.977343 543.722368 
L 712.642238 547.15178 
L 714.307133 540.730716 
L 715.972028 540.730716 
L 717.636923 538.090628 
L 719.301818 535.737861 
L 720.966713 535.737861 
L 722.631608 533.62347 
L 724.296503 538.090628 
L 725.961399 533.62347 
L 727.626294 535.737861 
L 730.956084 535.737861 
L 732.620979 533.62347 
L 734.285874 533.62347 
L 735.950769 538.090628 
L 737.615664 540.730716 
L 739.280559 543.722368 
L 740.945455 535.737861 
L 742.61035 538.090628 
L 744.275245 535.737861 
L 745.94014 543.722368 
L 747.605035 547.15178 
L 749.26993 531.709445 
L 750.934825 543.722368 
L 752.59972 535.737861 
L 754.264615 540.730716 
L 757.594406 540.730716 
L 759.259301 538.090628 
L 760.924196 535.737861 
L 764.253986 535.737861 
L 765.918881 547.15178 
L 767.583776 538.090628 
L 769.248671 538.090628 
L 770.913566 540.730716 
L 772.578462 535.737861 
L 774.243357 540.730716 
L 775.908252 540.730716 
L 777.573147 547.15178 
L 779.238042 555.847526 
L 780.902937 540.730716 
L 782.567832 543.722368 
L 784.232727 543.722368 
L 785.897622 547.15178 
L 787.562517 543.722368 
L 789.227413 540.730716 
L 790.892308 543.722368 
L 792.557203 540.730716 
L 794.222098 543.722368 
L 795.886993 540.730716 
L 797.551888 535.737861 
L 799.216783 535.737861 
L 800.881678 538.090628 
L 802.546573 540.730716 
L 804.211469 543.722368 
L 805.876364 543.722368 
L 807.541259 547.15178 
L 809.206154 547.15178 
L 810.871049 538.090628 
L 812.535944 538.090628 
L 814.200839 535.737861 
L 815.865734 538.090628 
L 817.530629 535.737861 
L 819.195524 533.62347 
L 820.86042 543.722368 
L 822.525315 543.722368 
L 824.19021 538.090628 
L 825.855105 540.730716 
L 827.52 547.15178 
L 829.184895 540.730716 
L 830.84979 547.15178 
L 832.514685 547.15178 
L 834.17958 551.137546 
L 835.844476 547.15178 
L 837.509371 547.15178 
L 839.174266 543.722368 
L 840.839161 543.722368 
L 842.504056 538.090628 
L 844.168951 543.722368 
L 845.833846 540.730716 
L 847.498741 535.737861 
L 849.163636 540.730716 
L 850.828531 547.15178 
L 852.493427 547.15178 
L 854.158322 551.137546 
L 855.823217 538.090628 
L 857.488112 540.730716 
L 859.153007 543.722368 
L 860.817902 555.847526 
L 865.812587 555.847526 
L 867.477483 577.438045 
L 870.807273 577.438045 
L 872.472168 568.541426 
L 875.801958 568.541426 
L 877.466853 577.438045 
L 879.131748 568.541426 
L 882.461538 568.541426 
L 884.126434 577.438045 
L 885.791329 551.137546 
L 887.456224 555.847526 
L 889.121119 547.15178 
L 890.786014 551.137546 
L 892.450909 555.847526 
L 894.115804 555.847526 
L 895.780699 551.137546 
L 897.445594 555.847526 
L 899.11049 561.526592 
L 900.775385 547.15178 
L 902.44028 551.137546 
L 904.105175 547.15178 
L 905.77007 551.137546 
L 909.09986 551.137546 
L 910.764755 555.847526 
L 912.42965 561.526592 
L 914.094545 561.526592 
L 915.759441 555.847526 
L 917.424336 555.847526 
L 919.089231 568.541426 
L 920.754126 577.438045 
L 922.419021 577.438045 
L 924.083916 568.541426 
L 925.748811 577.438045 
L 927.413706 568.541426 
L 929.078601 568.541426 
L 930.743497 561.526592 
L 932.408392 577.438045 
L 934.073287 561.526592 
L 935.738182 555.847526 
L 937.403077 561.526592 
L 939.067972 577.438045 
L 940.732867 555.847526 
L 942.397762 568.541426 
L 944.062657 568.541426 
L 945.727552 561.526592 
L 947.392448 568.541426 
L 950.722238 568.541426 
L 952.387133 561.526592 
L 954.052028 568.541426 
L 955.716923 561.526592 
L 957.381818 561.526592 
L 959.046713 568.541426 
L 960.711608 555.847526 
L 962.376503 568.541426 
L 964.041399 555.847526 
L 965.706294 561.526592 
L 967.371189 555.847526 
L 969.036084 577.438045 
L 970.700979 551.137546 
L 972.365874 555.847526 
L 974.030769 555.847526 
L 975.695664 551.137546 
L 977.360559 551.137546 
L 979.025455 547.15178 
L 980.69035 555.847526 
L 982.355245 551.137546 
L 984.02014 543.722368 
L 985.685035 547.15178 
L 987.34993 547.15178 
L 989.014825 555.847526 
L 990.67972 555.847526 
L 992.344615 547.15178 
L 994.00951 568.541426 
L 995.674406 547.15178 
L 997.339301 555.847526 
L 999.004196 551.137546 
L 1000.669091 551.137546 
L 1002.333986 543.722368 
L 1003.998881 551.137546 
L 1005.663776 555.847526 
L 1007.328671 543.722368 
L 1008.993566 543.722368 
L 1010.658462 535.737861 
L 1012.323357 547.15178 
L 1013.988252 538.090628 
L 1015.653147 547.15178 
L 1017.318042 540.730716 
L 1018.982937 543.722368 
L 1020.647832 540.730716 
L 1022.312727 547.15178 
L 1023.977622 543.722368 
L 1025.642517 547.15178 
L 1027.307413 538.090628 
L 1028.972308 540.730716 
L 1030.637203 547.15178 
L 1032.302098 555.847526 
L 1033.966993 555.847526 
L 1035.631888 543.722368 
L 1037.296783 543.722368 
L 1038.961678 551.137546 
L 1040.626573 543.722368 
L 1042.291469 547.15178 
L 1043.956364 543.722368 
L 1045.621259 555.847526 
L 1047.286154 533.62347 
L 1048.951049 543.722368 
L 1050.615944 543.722368 
L 1052.280839 538.090628 
L 1053.945734 547.15178 
L 1055.610629 561.526592 
L 1057.275524 547.15178 
L 1058.94042 547.15178 
L 1060.605315 543.722368 
L 1062.27021 555.847526 
L 1063.935105 547.15178 
L 1065.6 547.15178 
L 1067.264895 551.137546 
L 1068.92979 555.847526 
L 1070.594685 561.526592 
L 1072.25958 555.847526 
L 1073.924476 547.15178 
L 1075.589371 551.137546 
L 1077.254266 555.847526 
L 1080.584056 555.847526 
L 1082.248951 568.541426 
L 1083.913846 555.847526 
L 1085.578741 561.526592 
L 1087.243636 561.526592 
L 1088.908531 555.847526 
L 1090.573427 551.137546 
L 1092.238322 561.526592 
L 1093.903217 551.137546 
L 1095.568112 555.847526 
L 1097.233007 551.137546 
L 1098.897902 551.137546 
L 1100.562797 555.847526 
L 1102.227692 568.541426 
L 1103.892587 555.847526 
L 1105.557483 540.730716 
L 1107.222378 540.730716 
L 1108.887273 543.722368 
L 1110.552168 551.137546 
L 1112.217063 547.15178 
L 1113.881958 540.730716 
L 1115.546853 543.722368 
L 1117.211748 540.730716 
L 1118.876643 540.730716 
L 1120.541538 538.090628 
L 1122.206434 540.730716 
L 1123.871329 547.15178 
L 1125.536224 547.15178 
L 1127.201119 551.137546 
L 1128.866014 547.15178 
L 1130.530909 551.137546 
L 1132.195804 543.722368 
L 1133.860699 561.526592 
L 1135.525594 538.090628 
L 1137.19049 547.15178 
L 1138.855385 547.15178 
L 1140.52028 543.722368 
L 1142.185175 540.730716 
L 1143.85007 540.730716 
L 1145.514965 538.090628 
L 1147.17986 529.965759 
L 1148.844755 535.737861 
L 1150.50965 540.730716 
L 1152.174545 540.730716 
L 1153.839441 533.62347 
L 1155.504336 538.090628 
L 1157.169231 531.709445 
L 1158.834126 535.737861 
L 1160.499021 533.62347 
L 1162.163916 528.368346 
L 1163.828811 533.62347 
L 1165.493706 531.709445 
L 1167.158601 535.737861 
L 1170.488392 535.737861 
L 1172.153287 533.62347 
L 1173.818182 538.090628 
L 1175.483077 538.090628 
L 1177.147972 540.730716 
L 1178.812867 538.090628 
L 1183.807552 538.090628 
L 1185.472448 543.722368 
L 1187.137343 533.62347 
L 1188.802238 535.737861 
L 1190.467133 543.722368 
L 1192.132028 551.137546 
L 1193.796923 535.737861 
L 1195.461818 543.722368 
L 1195.461818 543.722368 
" style="fill:none;stroke:#1f77b4;stroke-dasharray:5.55,2.4;stroke-dashoffset:0;stroke-width:1.5;"/>
   </g>
   <g id="line2d_32">
    <path clip-path="url(#p95243028f8)" d="M 221.498182 605.1348 
L 223.163077 470.830601 
L 224.827972 363.006567 
L 238.147133 363.006567 
L 239.812028 369.905633 
L 241.476923 369.905633 
L 243.141818 363.006567 
L 244.806713 363.006567 
L 246.471608 375.678716 
L 248.136503 363.006567 
L 249.801399 363.006567 
L 251.466294 369.905633 
L 253.131189 354.571629 
L 254.796084 363.006567 
L 256.460979 363.006567 
L 258.125874 354.571629 
L 259.790769 369.905633 
L 261.455664 369.905633 
L 263.120559 363.006567 
L 264.785455 369.905633 
L 266.45035 363.006567 
L 268.115245 369.905633 
L 269.78014 369.905633 
L 271.445035 343.950468 
L 273.10993 369.905633 
L 274.774825 369.905633 
L 276.43972 363.006567 
L 278.104615 363.006567 
L 279.76951 369.905633 
L 281.434406 363.006567 
L 283.099301 369.905633 
L 284.764196 380.598251 
L 288.093986 380.598251 
L 289.758881 375.678716 
L 293.088671 375.678716 
L 294.753566 369.905633 
L 296.418462 363.006567 
L 298.083357 380.598251 
L 299.748252 369.905633 
L 301.413147 380.598251 
L 303.078042 380.598251 
L 304.742937 388.578732 
L 306.407832 388.578732 
L 308.072727 384.853099 
L 309.737622 384.853099 
L 311.402517 388.578732 
L 313.067413 384.853099 
L 316.397203 384.853099 
L 318.062098 388.578732 
L 324.721678 388.578732 
L 326.386573 391.87512 
L 328.051469 388.578732 
L 329.716364 388.578732 
L 331.381259 375.678716 
L 333.046154 375.678716 
L 334.711049 380.598251 
L 336.375944 388.578732 
L 338.040839 380.598251 
L 339.705734 388.578732 
L 341.370629 384.853099 
L 343.035524 388.578732 
L 344.70042 388.578732 
L 346.365315 384.853099 
L 353.024895 384.853099 
L 354.68979 388.578732 
L 356.354685 384.853099 
L 358.01958 388.578732 
L 359.684476 388.578732 
L 361.349371 391.87512 
L 363.014266 388.578732 
L 364.679161 388.578732 
L 366.344056 384.853099 
L 368.008951 388.578732 
L 369.673846 384.853099 
L 371.338741 391.87512 
L 373.003636 388.578732 
L 374.668531 388.578732 
L 376.333427 384.853099 
L 377.998322 388.578732 
L 379.663217 388.578732 
L 381.328112 391.87512 
L 382.993007 391.87512 
L 384.657902 388.578732 
L 389.652587 388.578732 
L 391.317483 384.853099 
L 392.982378 380.598251 
L 394.647273 384.853099 
L 396.312168 375.678716 
L 397.977063 388.578732 
L 399.641958 384.853099 
L 401.306853 380.598251 
L 402.971748 384.853099 
L 404.636643 394.817817 
L 406.301538 388.578732 
L 409.631329 388.578732 
L 411.296224 380.598251 
L 412.961119 375.678716 
L 414.626014 380.598251 
L 416.290909 375.678716 
L 417.955804 388.578732 
L 419.620699 384.853099 
L 421.285594 375.678716 
L 422.95049 369.905633 
L 424.615385 391.87512 
L 426.28028 388.578732 
L 427.945175 384.853099 
L 429.61007 375.678716 
L 431.274965 375.678716 
L 432.93986 380.598251 
L 434.604755 369.905633 
L 436.26965 380.598251 
L 437.934545 384.853099 
L 439.599441 375.678716 
L 441.264336 375.678716 
L 442.929231 388.578732 
L 444.594126 375.678716 
L 446.259021 380.598251 
L 447.923916 363.006567 
L 449.588811 363.006567 
L 451.253706 354.571629 
L 452.918601 363.006567 
L 454.583497 384.853099 
L 456.248392 380.598251 
L 457.913287 363.006567 
L 459.578182 388.578732 
L 461.243077 384.853099 
L 462.907972 380.598251 
L 464.572867 363.006567 
L 466.237762 363.006567 
L 467.902657 354.571629 
L 469.567552 343.950468 
L 471.232448 354.571629 
L 472.897343 310.764403 
L 474.562238 310.764403 
L 476.227133 343.950468 
L 477.892028 343.950468 
L 479.556923 330.037127 
L 481.221818 354.571629 
L 482.886713 363.006567 
L 484.551608 363.006567 
L 486.216503 310.764403 
L 487.881399 230.987249 
L 489.546294 310.764403 
L 491.211189 330.037127 
L 492.876084 343.950468 
L 494.540979 343.950468 
L 496.205874 330.037127 
L 497.870769 330.037127 
L 499.535664 363.006567 
L 501.200559 330.037127 
L 502.865455 343.950468 
L 504.53035 109.7028 
L 506.195245 343.950468 
L 507.86014 310.764403 
L 509.525035 281.699503 
L 511.18993 343.950468 
L 512.854825 354.571629 
L 514.51972 343.950468 
L 516.184615 310.764403 
L 517.84951 310.764403 
L 519.514406 330.037127 
L 521.179301 343.950468 
L 522.844196 343.950468 
L 524.509091 310.764403 
L 526.173986 354.571629 
L 527.838881 343.950468 
L 534.498462 343.950468 
L 536.163357 354.571629 
L 537.828252 343.950468 
L 539.493147 343.950468 
L 541.158042 375.678716 
L 542.822937 380.598251 
L 544.487832 369.905633 
L 547.817622 369.905633 
L 549.482517 375.678716 
L 551.147413 375.678716 
L 552.812308 363.006567 
L 554.477203 369.905633 
L 557.806993 369.905633 
L 559.471888 380.598251 
L 561.136783 375.678716 
L 562.801678 354.571629 
L 564.466573 369.905633 
L 566.131469 363.006567 
L 567.796364 375.678716 
L 571.126154 375.678716 
L 572.791049 363.006567 
L 574.455944 375.678716 
L 576.120839 380.598251 
L 577.785734 380.598251 
L 579.450629 384.853099 
L 581.115524 369.905633 
L 582.78042 380.598251 
L 584.445315 375.678716 
L 586.11021 369.905633 
L 587.775105 354.571629 
L 589.44 369.905633 
L 591.104895 375.678716 
L 592.76979 363.006567 
L 594.434685 375.678716 
L 596.09958 363.006567 
L 597.764476 354.571629 
L 599.429371 363.006567 
L 601.094266 354.571629 
L 602.759161 363.006567 
L 604.424056 343.950468 
L 606.088951 363.006567 
L 607.753846 354.571629 
L 609.418741 354.571629 
L 611.083636 330.037127 
L 612.748531 343.950468 
L 614.413427 354.571629 
L 616.078322 343.950468 
L 617.743217 343.950468 
L 619.408112 330.037127 
L 621.073007 343.950468 
L 622.737902 354.571629 
L 624.402797 363.006567 
L 626.067692 343.950468 
L 627.732587 354.571629 
L 629.397483 343.950468 
L 631.062378 363.006567 
L 632.727273 363.006567 
L 634.392168 330.037127 
L 636.057063 310.764403 
L 637.721958 354.571629 
L 639.386853 310.764403 
L 641.051748 330.037127 
L 642.716643 343.950468 
L 644.381538 343.950468 
L 646.046434 330.037127 
L 647.711329 363.006567 
L 649.376224 354.571629 
L 651.041119 343.950468 
L 652.706014 354.571629 
L 656.035804 354.571629 
L 657.700699 375.678716 
L 659.365594 375.678716 
L 661.03049 369.905633 
L 662.695385 363.006567 
L 664.36028 375.678716 
L 666.025175 375.678716 
L 667.69007 354.571629 
L 669.354965 354.571629 
L 671.01986 363.006567 
L 672.684755 375.678716 
L 674.34965 369.905633 
L 676.014545 369.905633 
L 677.679441 354.571629 
L 679.344336 363.006567 
L 681.009231 363.006567 
L 682.674126 375.678716 
L 684.339021 375.678716 
L 686.003916 363.006567 
L 687.668811 380.598251 
L 689.333706 375.678716 
L 690.998601 369.905633 
L 692.663497 384.853099 
L 694.328392 375.678716 
L 695.993287 375.678716 
L 697.658182 380.598251 
L 700.987972 380.598251 
L 702.652867 384.853099 
L 704.317762 375.678716 
L 705.982657 384.853099 
L 707.647552 384.853099 
L 709.312448 375.678716 
L 710.977343 369.905633 
L 712.642238 363.006567 
L 714.307133 375.678716 
L 715.972028 375.678716 
L 717.636923 380.598251 
L 719.301818 384.853099 
L 720.966713 384.853099 
L 722.631608 388.578732 
L 724.296503 380.598251 
L 725.961399 388.578732 
L 727.626294 384.853099 
L 730.956084 384.853099 
L 732.620979 388.578732 
L 734.285874 388.578732 
L 735.950769 380.598251 
L 737.615664 375.678716 
L 739.280559 369.905633 
L 740.945455 384.853099 
L 742.61035 380.598251 
L 744.275245 384.853099 
L 745.94014 369.905633 
L 747.605035 363.006567 
L 749.26993 391.87512 
L 750.934825 369.905633 
L 752.59972 384.853099 
L 754.264615 375.678716 
L 757.594406 375.678716 
L 759.259301 380.598251 
L 760.924196 384.853099 
L 764.253986 384.853099 
L 765.918881 363.006567 
L 767.583776 380.598251 
L 769.248671 380.598251 
L 770.913566 375.678716 
L 772.578462 384.853099 
L 774.243357 375.678716 
L 775.908252 375.678716 
L 777.573147 363.006567 
L 779.238042 343.950468 
L 780.902937 375.678716 
L 782.567832 369.905633 
L 784.232727 369.905633 
L 785.897622 363.006567 
L 787.562517 369.905633 
L 789.227413 375.678716 
L 790.892308 369.905633 
L 792.557203 375.678716 
L 794.222098 369.905633 
L 795.886993 375.678716 
L 797.551888 384.853099 
L 799.216783 384.853099 
L 800.881678 380.598251 
L 802.546573 375.678716 
L 804.211469 369.905633 
L 805.876364 369.905633 
L 807.541259 363.006567 
L 809.206154 363.006567 
L 810.871049 380.598251 
L 812.535944 380.598251 
L 814.200839 384.853099 
L 815.865734 380.598251 
L 817.530629 384.853099 
L 819.195524 388.578732 
L 820.86042 369.905633 
L 822.525315 369.905633 
L 824.19021 380.598251 
L 825.855105 375.678716 
L 827.52 363.006567 
L 829.184895 375.678716 
L 830.84979 363.006567 
L 832.514685 363.006567 
L 834.17958 354.571629 
L 835.844476 363.006567 
L 837.509371 363.006567 
L 839.174266 369.905633 
L 840.839161 369.905633 
L 842.504056 380.598251 
L 844.168951 369.905633 
L 845.833846 375.678716 
L 847.498741 384.853099 
L 849.163636 375.678716 
L 850.828531 363.006567 
L 852.493427 363.006567 
L 854.158322 354.571629 
L 855.823217 380.598251 
L 857.488112 375.678716 
L 859.153007 369.905633 
L 860.817902 343.950468 
L 865.812587 343.950468 
L 867.477483 281.699503 
L 870.807273 281.699503 
L 872.472168 310.764403 
L 875.801958 310.764403 
L 877.466853 281.699503 
L 879.131748 310.764403 
L 882.461538 310.764403 
L 884.126434 281.699503 
L 885.791329 354.571629 
L 887.456224 343.950468 
L 889.121119 363.006567 
L 890.786014 354.571629 
L 892.450909 343.950468 
L 894.115804 343.950468 
L 895.780699 354.571629 
L 897.445594 343.950468 
L 899.11049 330.037127 
L 900.775385 363.006567 
L 902.44028 354.571629 
L 904.105175 363.006567 
L 905.77007 354.571629 
L 909.09986 354.571629 
L 910.764755 343.950468 
L 912.42965 330.037127 
L 914.094545 330.037127 
L 915.759441 343.950468 
L 917.424336 343.950468 
L 919.089231 310.764403 
L 920.754126 281.699503 
L 922.419021 281.699503 
L 924.083916 310.764403 
L 925.748811 281.699503 
L 927.413706 310.764403 
L 929.078601 310.764403 
L 930.743497 330.037127 
L 932.408392 281.699503 
L 934.073287 330.037127 
L 935.738182 343.950468 
L 937.403077 330.037127 
L 939.067972 281.699503 
L 940.732867 343.950468 
L 942.397762 310.764403 
L 944.062657 310.764403 
L 945.727552 330.037127 
L 947.392448 310.764403 
L 950.722238 310.764403 
L 952.387133 330.037127 
L 954.052028 310.764403 
L 955.716923 330.037127 
L 957.381818 330.037127 
L 959.046713 310.764403 
L 960.711608 343.950468 
L 962.376503 310.764403 
L 964.041399 343.950468 
L 965.706294 330.037127 
L 967.371189 343.950468 
L 969.036084 281.699503 
L 970.700979 354.571629 
L 972.365874 343.950468 
L 974.030769 343.950468 
L 975.695664 354.571629 
L 977.360559 354.571629 
L 979.025455 363.006567 
L 980.69035 343.950468 
L 982.355245 354.571629 
L 984.02014 369.905633 
L 985.685035 363.006567 
L 987.34993 363.006567 
L 989.014825 343.950468 
L 990.67972 343.950468 
L 992.344615 363.006567 
L 994.00951 310.764403 
L 995.674406 363.006567 
L 997.339301 343.950468 
L 999.004196 354.571629 
L 1000.669091 354.571629 
L 1002.333986 369.905633 
L 1003.998881 354.571629 
L 1005.663776 343.950468 
L 1007.328671 369.905633 
L 1008.993566 369.905633 
L 1010.658462 384.853099 
L 1012.323357 363.006567 
L 1013.988252 380.598251 
L 1015.653147 363.006567 
L 1017.318042 375.678716 
L 1018.982937 369.905633 
L 1020.647832 375.678716 
L 1022.312727 363.006567 
L 1023.977622 369.905633 
L 1025.642517 363.006567 
L 1027.307413 380.598251 
L 1028.972308 375.678716 
L 1030.637203 363.006567 
L 1032.302098 343.950468 
L 1033.966993 343.950468 
L 1035.631888 369.905633 
L 1037.296783 369.905633 
L 1038.961678 354.571629 
L 1040.626573 369.905633 
L 1042.291469 363.006567 
L 1043.956364 369.905633 
L 1045.621259 343.950468 
L 1047.286154 388.578732 
L 1048.951049 369.905633 
L 1050.615944 369.905633 
L 1052.280839 380.598251 
L 1053.945734 363.006567 
L 1055.610629 330.037127 
L 1057.275524 363.006567 
L 1058.94042 363.006567 
L 1060.605315 369.905633 
L 1062.27021 343.950468 
L 1063.935105 363.006567 
L 1065.6 363.006567 
L 1067.264895 354.571629 
L 1068.92979 343.950468 
L 1070.594685 330.037127 
L 1072.25958 343.950468 
L 1073.924476 363.006567 
L 1075.589371 354.571629 
L 1077.254266 343.950468 
L 1080.584056 343.950468 
L 1082.248951 310.764403 
L 1083.913846 343.950468 
L 1085.578741 330.037127 
L 1087.243636 330.037127 
L 1088.908531 343.950468 
L 1090.573427 354.571629 
L 1092.238322 330.037127 
L 1093.903217 354.571629 
L 1095.568112 343.950468 
L 1097.233007 354.571629 
L 1098.897902 354.571629 
L 1100.562797 343.950468 
L 1102.227692 310.764403 
L 1105.557483 375.678716 
L 1107.222378 375.678716 
L 1108.887273 369.905633 
L 1110.552168 354.571629 
L 1112.217063 363.006567 
L 1113.881958 375.678716 
L 1115.546853 369.905633 
L 1117.211748 375.678716 
L 1118.876643 375.678716 
L 1120.541538 380.598251 
L 1122.206434 375.678716 
L 1123.871329 363.006567 
L 1125.536224 363.006567 
L 1127.201119 354.571629 
L 1128.866014 363.006567 
L 1130.530909 354.571629 
L 1132.195804 369.905633 
L 1133.860699 330.037127 
L 1135.525594 380.598251 
L 1137.19049 363.006567 
L 1138.855385 363.006567 
L 1140.52028 369.905633 
L 1142.185175 375.678716 
L 1143.85007 375.678716 
L 1145.514965 380.598251 
L 1147.17986 394.817817 
L 1148.844755 384.853099 
L 1150.50965 375.678716 
L 1152.174545 375.678716 
L 1153.839441 388.578732 
L 1155.504336 380.598251 
L 1157.169231 391.87512 
L 1158.834126 384.853099 
L 1160.499021 388.578732 
L 1162.163916 397.465095 
L 1163.828811 388.578732 
L 1165.493706 391.87512 
L 1167.158601 384.853099 
L 1170.488392 384.853099 
L 1172.153287 388.578732 
L 1173.818182 380.598251 
L 1175.483077 380.598251 
L 1177.147972 375.678716 
L 1178.812867 380.598251 
L 1183.807552 380.598251 
L 1185.472448 369.905633 
L 1187.137343 388.578732 
L 1188.802238 384.853099 
L 1192.132028 354.571629 
L 1193.796923 384.853099 
L 1195.461818 369.905633 
L 1195.461818 369.905633 
" style="fill:none;stroke:#ff7f0e;stroke-dasharray:5.55,2.4;stroke-dashoffset:0;stroke-width:1.5;"/>
   </g>
   <g id="line2d_33">
    <path clip-path="url(#p95243028f8)" d="M 221.498182 605.1348 
L 223.163077 470.830601 
L 224.827972 605.020918 
L 226.492867 604.907996 
L 229.822657 605.064509 
L 231.487552 604.891545 
L 233.152448 585.792275 
L 234.817343 603.867175 
L 236.482238 604.938684 
L 238.147133 604.582737 
L 239.812028 604.889078 
L 241.476923 604.790463 
L 243.141818 574.835349 
L 244.806713 600.604211 
L 246.471608 587.39177 
L 248.136503 576.451635 
L 249.801399 570.938392 
L 251.466294 563.749091 
L 253.131189 580.646856 
L 254.796084 582.933848 
L 256.460979 562.703956 
L 258.125874 588.225295 
L 259.790769 576.676585 
L 261.455664 578.389099 
L 263.120559 594.107198 
L 264.785455 587.445387 
L 266.45035 576.018315 
L 268.115245 584.490021 
L 269.78014 588.36344 
L 271.445035 596.849178 
L 273.10993 594.862682 
L 274.774825 584.672103 
L 276.43972 586.851816 
L 278.104615 582.942471 
L 279.76951 397.683616 
L 281.434406 562.197612 
L 283.099301 562.300161 
L 284.764196 571.991365 
L 286.429091 558.922529 
L 288.093986 404.306414 
L 289.758881 581.215743 
L 291.423776 576.277449 
L 293.088671 574.174335 
L 294.753566 587.079227 
L 296.418462 580.184834 
L 298.083357 582.991746 
L 299.748252 590.800474 
L 301.413147 585.052568 
L 303.078042 576.147627 
L 304.742937 516.740602 
L 306.407832 592.943157 
L 308.072727 580.127557 
L 309.737622 581.906475 
L 311.402517 557.554673 
L 313.067413 590.460407 
L 314.732308 585.729958 
L 316.397203 572.609021 
L 318.062098 582.964807 
L 319.726993 568.957714 
L 321.391888 591.044779 
L 323.056783 576.124418 
L 324.721678 586.029492 
L 326.386573 383.188637 
L 328.051469 585.436039 
L 329.716364 574.389165 
L 331.381259 595.860324 
L 333.046154 589.181987 
L 334.711049 590.317847 
L 336.375944 572.773492 
L 338.040839 589.464325 
L 339.705734 566.678398 
L 341.370629 586.481506 
L 343.035524 592.599905 
L 344.70042 592.360572 
L 346.365315 594.166815 
L 348.03021 593.755498 
L 349.695105 596.46593 
L 351.36 595.180558 
L 353.024895 597.654605 
L 354.68979 598.267435 
L 356.354685 596.378882 
L 358.01958 584.738346 
L 359.684476 597.093577 
L 361.349371 598.740047 
L 363.014266 598.748288 
L 364.679161 551.487196 
L 366.344056 586.364051 
L 368.008951 595.493296 
L 371.338741 599.102502 
L 373.003636 600.27265 
L 374.668531 598.076402 
L 376.333427 598.593971 
L 377.998322 598.093814 
L 379.663217 599.45844 
L 381.328112 598.43259 
L 382.993007 599.985824 
L 384.657902 599.881497 
L 386.322797 599.42487 
L 387.987692 585.597138 
L 389.652587 597.242198 
L 391.317483 585.886236 
L 392.982378 586.453574 
L 394.647273 575.148234 
L 396.312168 524.211251 
L 397.977063 564.412672 
L 399.641958 540.485579 
L 401.306853 575.189388 
L 402.971748 248.268766 
L 404.636643 554.543123 
L 406.301538 588.02403 
L 407.966434 568.633012 
L 409.631329 590.798095 
L 411.296224 538.788953 
L 412.961119 544.70274 
L 414.626014 586.776808 
L 416.290909 557.037399 
L 417.955804 375.124842 
L 419.620699 456.31615 
L 421.285594 552.892092 
L 422.95049 584.997918 
L 424.615385 532.648132 
L 426.28028 537.998646 
L 427.945175 567.864414 
L 429.61007 513.399738 
L 431.274965 576.629237 
L 432.93986 535.581418 
L 434.604755 528.457444 
L 436.26965 568.53276 
L 437.934545 550.818147 
L 439.599441 573.295113 
L 441.264336 538.846242 
L 442.929231 535.962873 
L 444.594126 521.476505 
L 446.259021 543.013097 
L 447.923916 468.784048 
L 449.588811 562.9709 
L 451.253706 494.730541 
L 452.918601 523.873661 
L 454.583497 539.919449 
L 456.248392 519.684344 
L 457.913287 549.57026 
L 459.578182 427.189809 
L 461.243077 517.612207 
L 462.907972 557.37562 
L 464.572867 539.500716 
L 466.237762 357.493162 
L 467.902657 562.938218 
L 469.567552 564.38927 
L 471.232448 586.991913 
L 472.897343 589.683046 
L 474.562238 591.832402 
L 476.227133 591.084001 
L 477.892028 189.730327 
L 479.556923 522.953512 
L 481.221818 507.231143 
L 482.886713 562.179066 
L 484.551608 578.034661 
L 486.216503 538.068812 
L 487.881399 601.049861 
L 489.546294 593.16214 
L 491.211189 341.270365 
L 492.876084 539.572221 
L 494.540979 416.630442 
L 496.205874 568.517889 
L 497.870769 588.68586 
L 499.535664 419.844937 
L 501.200559 522.601646 
L 502.865455 497.878895 
L 504.53035 601.560449 
L 506.195245 201.38432 
L 507.86014 499.662822 
L 509.525035 360.479358 
L 511.18993 304.841985 
L 512.854825 264.458357 
L 514.51972 453.289639 
L 516.184615 564.750295 
L 517.84951 544.584304 
L 519.514406 519.997952 
L 521.179301 543.725781 
L 522.844196 547.569192 
L 524.509091 546.864286 
L 526.173986 383.511441 
L 527.838881 522.018417 
L 529.503776 546.40131 
L 531.168671 579.816581 
L 532.833566 557.415804 
L 534.498462 499.214906 
L 536.163357 489.01897 
L 537.828252 523.251568 
L 539.493147 591.291983 
L 541.158042 575.118928 
L 542.822937 567.764487 
L 544.487832 556.637743 
L 546.152727 548.603935 
L 547.817622 561.924172 
L 549.482517 568.906974 
L 551.147413 548.691073 
L 552.812308 522.888751 
L 554.477203 570.435213 
L 556.142098 560.288634 
L 557.806993 577.148348 
L 559.471888 570.78864 
L 561.136783 441.956929 
L 562.801678 557.158433 
L 564.466573 588.606692 
L 566.131469 569.02055 
L 567.796364 551.494936 
L 569.461259 578.805904 
L 571.126154 569.183874 
L 572.791049 572.25512 
L 574.455944 553.125408 
L 576.120839 572.758011 
L 577.785734 572.856232 
L 579.450629 548.695239 
L 581.115524 567.26597 
L 582.78042 522.052166 
L 584.445315 556.783143 
L 586.11021 577.976711 
L 587.775105 502.593411 
L 589.44 587.099831 
L 591.104895 566.596189 
L 592.76979 577.304608 
L 594.434685 589.957824 
L 596.09958 585.977155 
L 597.764476 596.65796 
L 599.429371 566.562711 
L 601.094266 586.91218 
L 602.759161 533.827469 
L 604.424056 581.321593 
L 606.088951 584.187417 
L 609.418741 557.327543 
L 611.083636 595.510306 
L 612.748531 591.348346 
L 614.413427 593.648206 
L 616.078322 592.33512 
L 617.743217 574.23985 
L 619.408112 572.62712 
L 621.073007 504.28311 
L 622.737902 521.394567 
L 624.402797 577.979984 
L 626.067692 562.546437 
L 627.732587 585.00189 
L 629.397483 585.578094 
L 631.062378 556.520476 
L 632.727273 577.81653 
L 634.392168 586.979739 
L 636.057063 587.673105 
L 637.721958 544.215356 
L 639.386853 590.446948 
L 641.051748 560.704336 
L 642.716643 559.711537 
L 644.381538 578.796506 
L 646.046434 587.222466 
L 647.711329 570.720695 
L 649.376224 592.293148 
L 651.041119 588.788567 
L 652.706014 577.628208 
L 654.370909 580.710422 
L 656.035804 581.711713 
L 657.700699 522.438234 
L 659.365594 561.093017 
L 661.03049 466.02728 
L 662.695385 570.728651 
L 664.36028 585.757862 
L 666.025175 577.737488 
L 667.69007 578.880518 
L 669.354965 584.57094 
L 671.01986 543.879979 
L 672.684755 343.507463 
L 674.34965 557.416998 
L 676.014545 555.451555 
L 677.679441 571.929688 
L 679.344336 593.416689 
L 681.009231 590.34513 
L 682.674126 546.872185 
L 684.339021 560.398437 
L 686.003916 584.151849 
L 687.668811 574.365281 
L 689.333706 577.854823 
L 690.998601 590.147334 
L 692.663497 577.147575 
L 694.328392 576.792835 
L 695.993287 580.62401 
L 697.658182 593.58755 
L 699.323077 519.911061 
L 700.987972 566.617328 
L 702.652867 589.764865 
L 704.317762 596.644718 
L 705.982657 589.049668 
L 707.647552 582.58698 
L 709.312448 588.244075 
L 710.977343 581.833939 
L 712.642238 590.674711 
L 714.307133 587.464209 
L 715.972028 590.376901 
L 717.636923 555.281501 
L 719.301818 549.465082 
L 720.966713 534.701984 
L 722.631608 560.407854 
L 724.296503 545.251356 
L 725.961399 571.230244 
L 729.291189 557.839289 
L 730.956084 568.204776 
L 732.620979 564.286812 
L 734.285874 555.083665 
L 735.950769 584.670319 
L 737.615664 356.228464 
L 739.280559 592.215079 
L 740.945455 503.708569 
L 742.61035 584.152666 
L 744.275245 580.081477 
L 745.94014 585.470083 
L 747.605035 586.980065 
L 749.26993 502.829944 
L 752.59972 535.684519 
L 754.264615 587.807634 
L 755.92951 567.598823 
L 757.594406 561.192266 
L 759.259301 560.225882 
L 760.924196 565.541818 
L 762.589091 584.828428 
L 764.253986 571.038258 
L 765.918881 581.735369 
L 767.583776 502.864914 
L 769.248671 582.985454 
L 770.913566 588.74997 
L 772.578462 575.215946 
L 774.243357 541.450541 
L 775.908252 588.366967 
L 777.573147 587.857585 
L 779.238042 535.930472 
L 780.902937 592.524465 
L 782.567832 586.186853 
L 784.232727 584.650961 
L 785.897622 590.872935 
L 787.562517 593.008125 
L 789.227413 446.710264 
L 790.892308 580.814756 
L 792.557203 530.906041 
L 794.222098 586.763661 
L 795.886993 593.424464 
L 797.551888 471.821336 
L 799.216783 587.653225 
L 800.881678 515.344839 
L 802.546573 596.364481 
L 804.211469 593.869393 
L 805.876364 594.508298 
L 807.541259 566.944565 
L 809.206154 587.124266 
L 810.871049 542.467362 
L 812.535944 585.351308 
L 814.200839 520.323339 
L 815.865734 563.766457 
L 817.530629 587.731315 
L 819.195524 544.50195 
L 820.86042 567.015531 
L 822.525315 582.760129 
L 824.19021 437.631354 
L 825.855105 534.821502 
L 827.52 579.468243 
L 829.184895 520.112489 
L 830.84979 503.552397 
L 832.514685 537.956132 
L 834.17958 556.516899 
L 835.844476 573.56157 
L 837.509371 451.085333 
L 839.174266 567.533278 
L 840.839161 567.742778 
L 842.504056 545.41309 
L 844.168951 557.038208 
L 845.833846 589.018165 
L 847.498741 576.59317 
L 849.163636 569.734212 
L 850.828531 569.211486 
L 852.493427 587.638935 
L 854.158322 537.272721 
L 855.823217 511.846281 
L 857.488112 553.742418 
L 859.153007 559.413393 
L 860.817902 583.090237 
L 862.482797 559.813691 
L 864.147692 583.206079 
L 865.812587 569.154978 
L 867.477483 591.508156 
L 869.142378 596.760036 
L 870.807273 601.060157 
L 872.472168 590.059742 
L 874.137063 593.295615 
L 875.801958 386.643211 
L 877.466853 194.875566 
L 879.131748 514.028867 
L 880.796643 588.595475 
L 882.461538 558.94243 
L 884.126434 556.442811 
L 885.791329 556.023983 
L 887.456224 579.337461 
L 889.121119 541.834675 
L 890.786014 591.578794 
L 892.450909 557.161814 
L 894.115804 568.611473 
L 895.780699 561.871846 
L 897.445594 592.604987 
L 899.11049 594.732217 
L 900.775385 586.136725 
L 902.44028 595.688441 
L 904.105175 597.146465 
L 905.77007 536.673089 
L 907.434965 532.841809 
L 909.09986 595.80618 
L 910.764755 522.993584 
L 912.42965 578.813935 
L 915.759441 512.254417 
L 917.424336 552.243703 
L 919.089231 551.441996 
L 920.754126 596.941476 
L 922.419021 562.754387 
L 924.083916 579.498576 
L 925.748811 585.486979 
L 927.413706 577.406441 
L 929.078601 485.774353 
L 930.743497 525.143511 
L 932.408392 586.261684 
L 934.073287 595.490345 
L 935.738182 588.445083 
L 937.403077 586.615192 
L 939.067972 580.336333 
L 940.732867 443.123883 
L 942.397762 274.706279 
L 944.062657 561.40799 
L 945.727552 462.502342 
L 947.392448 512.302537 
L 949.057343 467.555513 
L 950.722238 562.444928 
L 952.387133 578.469761 
L 954.052028 573.091957 
L 955.716923 473.598413 
L 957.381818 560.47589 
L 959.046713 568.288263 
L 960.711608 541.930485 
L 962.376503 530.664126 
L 964.041399 351.595081 
L 965.706294 544.187561 
L 967.371189 462.847723 
L 969.036084 582.628531 
L 970.700979 549.543119 
L 972.365874 296.976496 
L 974.030769 558.131179 
L 975.695664 428.184755 
L 977.360559 527.548673 
L 979.025455 551.988432 
L 980.69035 554.029567 
L 982.355245 538.564354 
L 984.02014 509.873971 
L 985.685035 541.456087 
L 987.34993 537.282736 
L 989.014825 568.129646 
L 990.67972 550.474611 
L 992.344615 473.484524 
L 994.00951 556.353444 
L 995.674406 353.042602 
L 997.339301 577.048501 
L 999.004196 543.325755 
L 1000.669091 481.301076 
L 1002.333986 528.877436 
L 1003.998881 508.073121 
L 1005.663776 522.156356 
L 1007.328671 538.225206 
L 1008.993566 561.319506 
L 1010.658462 560.851419 
L 1012.323357 535.478153 
L 1013.988252 589.885401 
L 1015.653147 591.033587 
L 1017.318042 579.92837 
L 1018.982937 579.733399 
L 1020.647832 546.268354 
L 1022.312727 571.863536 
L 1023.977622 555.718642 
L 1025.642517 580.279421 
L 1028.972308 558.414494 
L 1030.637203 553.178172 
L 1032.302098 577.725347 
L 1033.966993 592.600731 
L 1035.631888 543.522821 
L 1037.296783 574.562277 
L 1038.961678 585.602613 
L 1040.626573 564.370136 
L 1042.291469 579.682008 
L 1043.956364 576.246873 
L 1045.621259 592.929905 
L 1047.286154 578.422361 
L 1048.951049 591.005835 
L 1050.615944 581.868705 
L 1052.280839 576.855188 
L 1053.945734 573.467365 
L 1055.610629 568.223995 
L 1057.275524 569.487616 
L 1058.94042 580.207639 
L 1060.605315 595.525792 
L 1062.27021 580.845079 
L 1063.935105 577.728509 
L 1065.6 417.864091 
L 1067.264895 579.278916 
L 1068.92979 560.665415 
L 1070.594685 577.722742 
L 1072.25958 553.117057 
L 1075.589371 518.944934 
L 1077.254266 555.735734 
L 1078.919161 469.7481 
L 1080.584056 490.456185 
L 1082.248951 590.451955 
L 1083.913846 572.804752 
L 1085.578741 574.188222 
L 1087.243636 593.503905 
L 1090.573427 542.427536 
L 1092.238322 598.216391 
L 1093.903217 506.662374 
L 1095.568112 575.245332 
L 1097.233007 575.357204 
L 1098.897902 549.055895 
L 1100.562797 235.294598 
L 1102.227692 583.423361 
L 1103.892587 508.022079 
L 1105.557483 573.540902 
L 1107.222378 563.409008 
L 1108.887273 559.811158 
L 1110.552168 541.111885 
L 1112.217063 429.973988 
L 1113.881958 500.651429 
L 1115.546853 426.283689 
L 1117.211748 490.07135 
L 1118.876643 471.954696 
L 1120.541538 556.533793 
L 1122.206434 580.534279 
L 1123.871329 577.519809 
L 1125.536224 568.397226 
L 1127.201119 578.583164 
L 1128.866014 568.839974 
L 1130.530909 590.531129 
L 1132.195804 561.636735 
L 1133.860699 582.287712 
L 1135.525594 556.039089 
L 1137.19049 564.931982 
L 1138.855385 570.16831 
L 1140.52028 590.350849 
L 1142.185175 534.072715 
L 1143.85007 565.554688 
L 1145.514965 531.865342 
L 1147.17986 564.110331 
L 1148.844755 591.743409 
L 1150.50965 548.277372 
L 1152.174545 559.02575 
L 1153.839441 528.141819 
L 1155.504336 529.99121 
L 1157.169231 545.585953 
L 1158.834126 579.816209 
L 1160.499021 499.793951 
L 1162.163916 497.332624 
L 1163.828811 574.965184 
L 1165.493706 562.398535 
L 1167.158601 516.682561 
L 1168.823497 496.155014 
L 1170.488392 494.544362 
L 1172.153287 549.9488 
L 1173.818182 534.658612 
L 1175.483077 569.282645 
L 1177.147972 494.665263 
L 1178.812867 550.224471 
L 1180.477762 515.531039 
L 1182.142657 527.94147 
L 1183.807552 521.433727 
L 1185.472448 520.909542 
L 1187.137343 485.670048 
L 1188.802238 395.767516 
L 1190.467133 563.999776 
L 1192.132028 575.579855 
L 1193.796923 535.823819 
L 1195.461818 588.646388 
L 1195.461818 588.646388 
" style="fill:none;stroke:#2ca02c;stroke-linecap:square;stroke-width:0.5;"/>
   </g>
   <g id="patch_3">
    <path d="M 172.8 629.9064 
L 172.8 84.9312 
" style="fill:none;stroke:#000000;stroke-linecap:square;stroke-linejoin:miter;stroke-width:0.8;"/>
   </g>
   <g id="patch_4">
    <path d="M 1244.16 629.9064 
L 1244.16 84.9312 
" style="fill:none;stroke:#000000;stroke-linecap:square;stroke-linejoin:miter;stroke-width:0.8;"/>
   </g>
   <g id="patch_5">
    <path d="M 172.8 629.9064 
L 1244.16 629.9064 
" style="fill:none;stroke:#000000;stroke-linecap:square;stroke-linejoin:miter;stroke-width:0.8;"/>
   </g>
   <g id="patch_6">
    <path d="M 172.8 84.9312 
L 1244.16 84.9312 
" style="fill:none;stroke:#000000;stroke-linecap:square;stroke-linejoin:miter;stroke-width:0.8;"/>
   </g>
   <g id="text_16">
    <!-- NIS, 27.13% inside CI -->
    <g transform="translate(644.184375 78.9312)scale(0.12 -0.12)">
     <defs>
      <path d="M 628 4666 
L 1478 4666 
L 3547 763 
L 3547 4666 
L 4159 4666 
L 4159 0 
L 3309 0 
L 1241 3903 
L 1241 0 
L 628 0 
L 628 4666 
z
" id="DejaVuSans-4e" transform="scale(0.015625)"/>
      <path d="M 628 4666 
L 1259 4666 
L 1259 0 
L 628 0 
L 628 4666 
z
" id="DejaVuSans-49" transform="scale(0.015625)"/>
      <path d="M 3425 4513 
L 3425 3897 
Q 3066 4069 2747 4153 
Q 2428 4238 2131 4238 
Q 1616 4238 1336 4038 
Q 1056 3838 1056 3469 
Q 1056 3159 1242 3001 
Q 1428 2844 1947 2747 
L 2328 2669 
Q 3034 2534 3370 2195 
Q 3706 1856 3706 1288 
Q 3706 609 3251 259 
Q 2797 -91 1919 -91 
Q 1588 -91 1214 -16 
Q 841 59 441 206 
L 441 856 
Q 825 641 1194 531 
Q 1563 422 1919 422 
Q 2459 422 2753 634 
Q 3047 847 3047 1241 
Q 3047 1584 2836 1778 
Q 2625 1972 2144 2069 
L 1759 2144 
Q 1053 2284 737 2584 
Q 422 2884 422 3419 
Q 422 4038 858 4394 
Q 1294 4750 2059 4750 
Q 2388 4750 2728 4690 
Q 3069 4631 3425 4513 
z
" id="DejaVuSans-53" transform="scale(0.015625)"/>
      <path d="M 750 794 
L 1409 794 
L 1409 256 
L 897 -744 
L 494 -744 
L 750 256 
L 750 794 
z
" id="DejaVuSans-2c" transform="scale(0.015625)"/>
      <path id="DejaVuSans-20" transform="scale(0.015625)"/>
      <path d="M 525 4666 
L 3525 4666 
L 3525 4397 
L 1831 0 
L 1172 0 
L 2766 4134 
L 525 4134 
L 525 4666 
z
" id="DejaVuSans-37" transform="scale(0.015625)"/>
      <path d="M 4653 2053 
Q 4381 2053 4226 1822 
Q 4072 1591 4072 1178 
Q 4072 772 4226 539 
Q 4381 306 4653 306 
Q 4919 306 5073 539 
Q 5228 772 5228 1178 
Q 5228 1588 5073 1820 
Q 4919 2053 4653 2053 
z
M 4653 2450 
Q 5147 2450 5437 2106 
Q 5728 1763 5728 1178 
Q 5728 594 5436 251 
Q 5144 -91 4653 -91 
Q 4153 -91 3862 251 
Q 3572 594 3572 1178 
Q 3572 1766 3864 2108 
Q 4156 2450 4653 2450 
z
M 1428 4353 
Q 1159 4353 1004 4120 
Q 850 3888 850 3481 
Q 850 3069 1003 2837 
Q 1156 2606 1428 2606 
Q 1700 2606 1854 2837 
Q 2009 3069 2009 3481 
Q 2009 3884 1853 4118 
Q 1697 4353 1428 4353 
z
M 4250 4750 
L 4750 4750 
L 1831 -91 
L 1331 -91 
L 4250 4750 
z
M 1428 4750 
Q 1922 4750 2215 4408 
Q 2509 4066 2509 3481 
Q 2509 2891 2217 2550 
Q 1925 2209 1428 2209 
Q 931 2209 642 2551 
Q 353 2894 353 3481 
Q 353 4063 643 4406 
Q 934 4750 1428 4750 
z
" id="DejaVuSans-25" transform="scale(0.015625)"/>
      <path d="M 603 3500 
L 1178 3500 
L 1178 0 
L 603 0 
L 603 3500 
z
M 603 4863 
L 1178 4863 
L 1178 4134 
L 603 4134 
L 603 4863 
z
" id="DejaVuSans-69" transform="scale(0.015625)"/>
      <path d="M 3513 2113 
L 3513 0 
L 2938 0 
L 2938 2094 
Q 2938 2591 2744 2837 
Q 2550 3084 2163 3084 
Q 1697 3084 1428 2787 
Q 1159 2491 1159 1978 
L 1159 0 
L 581 0 
L 581 3500 
L 1159 3500 
L 1159 2956 
Q 1366 3272 1645 3428 
Q 1925 3584 2291 3584 
Q 2894 3584 3203 3211 
Q 3513 2838 3513 2113 
z
" id="DejaVuSans-6e" transform="scale(0.015625)"/>
      <path d="M 2834 3397 
L 2834 2853 
Q 2591 2978 2328 3040 
Q 2066 3103 1784 3103 
Q 1356 3103 1142 2972 
Q 928 2841 928 2578 
Q 928 2378 1081 2264 
Q 1234 2150 1697 2047 
L 1894 2003 
Q 2506 1872 2764 1633 
Q 3022 1394 3022 966 
Q 3022 478 2636 193 
Q 2250 -91 1575 -91 
Q 1294 -91 989 -36 
Q 684 19 347 128 
L 347 722 
Q 666 556 975 473 
Q 1284 391 1588 391 
Q 1994 391 2212 530 
Q 2431 669 2431 922 
Q 2431 1156 2273 1281 
Q 2116 1406 1581 1522 
L 1381 1569 
Q 847 1681 609 1914 
Q 372 2147 372 2553 
Q 372 3047 722 3315 
Q 1072 3584 1716 3584 
Q 2034 3584 2315 3537 
Q 2597 3491 2834 3397 
z
" id="DejaVuSans-73" transform="scale(0.015625)"/>
      <path d="M 2906 2969 
L 2906 4863 
L 3481 4863 
L 3481 0 
L 2906 0 
L 2906 525 
Q 2725 213 2448 61 
Q 2172 -91 1784 -91 
Q 1150 -91 751 415 
Q 353 922 353 1747 
Q 353 2572 751 3078 
Q 1150 3584 1784 3584 
Q 2172 3584 2448 3432 
Q 2725 3281 2906 2969 
z
M 947 1747 
Q 947 1113 1208 752 
Q 1469 391 1925 391 
Q 2381 391 2643 752 
Q 2906 1113 2906 1747 
Q 2906 2381 2643 2742 
Q 2381 3103 1925 3103 
Q 1469 3103 1208 2742 
Q 947 2381 947 1747 
z
" id="DejaVuSans-64" transform="scale(0.015625)"/>
      <path d="M 3597 1894 
L 3597 1613 
L 953 1613 
Q 991 1019 1311 708 
Q 1631 397 2203 397 
Q 2534 397 2845 478 
Q 3156 559 3463 722 
L 3463 178 
Q 3153 47 2828 -22 
Q 2503 -91 2169 -91 
Q 1331 -91 842 396 
Q 353 884 353 1716 
Q 353 2575 817 3079 
Q 1281 3584 2069 3584 
Q 2775 3584 3186 3129 
Q 3597 2675 3597 1894 
z
M 3022 2063 
Q 3016 2534 2758 2815 
Q 2500 3097 2075 3097 
Q 1594 3097 1305 2825 
Q 1016 2553 972 2059 
L 3022 2063 
z
" id="DejaVuSans-65" transform="scale(0.015625)"/>
      <path d="M 4122 4306 
L 4122 3641 
Q 3803 3938 3442 4084 
Q 3081 4231 2675 4231 
Q 1875 4231 1450 3742 
Q 1025 3253 1025 2328 
Q 1025 1406 1450 917 
Q 1875 428 2675 428 
Q 3081 428 3442 575 
Q 3803 722 4122 1019 
L 4122 359 
Q 3791 134 3420 21 
Q 3050 -91 2638 -91 
Q 1578 -91 968 557 
Q 359 1206 359 2328 
Q 359 3453 968 4101 
Q 1578 4750 2638 4750 
Q 3056 4750 3426 4639 
Q 3797 4528 4122 4306 
z
" id="DejaVuSans-43" transform="scale(0.015625)"/>
     </defs>
     <use xlink:href="#DejaVuSans-4e"/>
     <use x="74.804688" xlink:href="#DejaVuSans-49"/>
     <use x="104.296875" xlink:href="#DejaVuSans-53"/>
     <use x="167.773438" xlink:href="#DejaVuSans-2c"/>
     <use x="199.560547" xlink:href="#DejaVuSans-20"/>
     <use x="231.347656" xlink:href="#DejaVuSans-32"/>
     <use x="294.970703" xlink:href="#DejaVuSans-37"/>
     <use x="358.59375" xlink:href="#DejaVuSans-2e"/>
     <use x="390.380859" xlink:href="#DejaVuSans-31"/>
     <use x="454.003906" xlink:href="#DejaVuSans-33"/>
     <use x="517.626953" xlink:href="#DejaVuSans-25"/>
     <use x="612.646484" xlink:href="#DejaVuSans-20"/>
     <use x="644.433594" xlink:href="#DejaVuSans-69"/>
     <use x="672.216797" xlink:href="#DejaVuSans-6e"/>
     <use x="735.595703" xlink:href="#DejaVuSans-73"/>
     <use x="787.695312" xlink:href="#DejaVuSans-69"/>
     <use x="815.478516" xlink:href="#DejaVuSans-64"/>
     <use x="878.955078" xlink:href="#DejaVuSans-65"/>
     <use x="940.478516" xlink:href="#DejaVuSans-20"/>
     <use x="972.265625" xlink:href="#DejaVuSans-43"/>
     <use x="1042.089844" xlink:href="#DejaVuSans-49"/>
    </g>
   </g>
  </g>
 </g>
 <defs>
  <clipPath id="p95243028f8">
   <rect height="544.9752" width="1071.36" x="172.8" y="84.9312"/>
  </clipPath>
 </defs>
</svg>
