<?xml version="1.0" encoding="utf-8" standalone="no"?>
<!DOCTYPE svg PUBLIC "-//W3C//DTD SVG 1.1//EN"
  "http://www.w3.org/Graphics/SVG/1.1/DTD/svg11.dtd">
<svg height="707.76pt" version="1.1" viewBox="0 0 1382.4 707.76" width="1382.4pt" xmlns="http://www.w3.org/2000/svg" xmlns:xlink="http://www.w3.org/1999/xlink">
 <metadata>
  <rdf:RDF xmlns:cc="http://creativecommons.org/ns#" xmlns:dc="http://purl.org/dc/elements/1.1/" xmlns:rdf="http://www.w3.org/1999/02/22-rdf-syntax-ns#">
   <cc:Work>
    <dc:type rdf:resource="http://purl.org/dc/dcmitype/StillImage"/>
    <dc:date>2021-11-18T17:01:32.861550</dc:date>
    <dc:format>image/svg+xml</dc:format>
    <dc:creator>
     <cc:Agent>
      <dc:title>Matplotlib v3.4.3, https://matplotlib.org/</dc:title>
     </cc:Agent>
    </dc:creator>
   </cc:Work>
  </rdf:RDF>
 </metadata>
 <defs>
  <style type="text/css">*{stroke-linecap:butt;stroke-linejoin:round;}</style>
 </defs>
 <g id="figure_1">
  <g id="patch_1">
   <path d="M 0 707.76 
L 1382.4 707.76 
L 1382.4 0 
L 0 0 
z
" style="fill:#ffffff;"/>
  </g>
  <g id="axes_1">
   <g id="patch_2">
    <path d="M 172.8 629.9064 
L 1244.16 629.9064 
L 1244.16 84.9312 
L 172.8 84.9312 
z
" style="fill:#ffffff;"/>
   </g>
   <g id="matplotlib.axis_1">
    <g id="xtick_1">
     <g id="line2d_1">
      <path clip-path="url(#pde238c54f4)" d="M 221.498182 629.9064 
L 221.498182 84.9312 
" style="fill:none;stroke:#000000;stroke-dasharray:0.5,0.825;stroke-dashoffset:0;stroke-opacity:0.5;stroke-width:0.5;"/>
     </g>
     <g id="line2d_2">
      <defs>
       <path d="M 0 0 
L 0 3.5 
" id="m85cd32d6fa" style="stroke:#000000;stroke-width:0.8;"/>
      </defs>
      <g>
       <use style="stroke:#000000;stroke-width:0.8;" x="221.498182" xlink:href="#m85cd32d6fa" y="629.9064"/>
      </g>
     </g>
     <g id="text_1">
      <!-- 0 -->
      <g transform="translate(218.316932 644.504838)scale(0.1 -0.1)">
       <defs>
        <path d="M 2034 4250 
Q 1547 4250 1301 3770 
Q 1056 3291 1056 2328 
Q 1056 1369 1301 889 
Q 1547 409 2034 409 
Q 2525 409 2770 889 
Q 3016 1369 3016 2328 
Q 3016 3291 2770 3770 
Q 2525 4250 2034 4250 
z
M 2034 4750 
Q 2819 4750 3233 4129 
Q 3647 3509 3647 2328 
Q 3647 1150 3233 529 
Q 2819 -91 2034 -91 
Q 1250 -91 836 529 
Q 422 1150 422 2328 
Q 422 3509 836 4129 
Q 1250 4750 2034 4750 
z
" id="DejaVuSans-30" transform="scale(0.015625)"/>
       </defs>
       <use xlink:href="#DejaVuSans-30"/>
      </g>
     </g>
    </g>
    <g id="xtick_2">
     <g id="line2d_3">
      <path clip-path="url(#pde238c54f4)" d="M 387.987692 629.9064 
L 387.987692 84.9312 
" style="fill:none;stroke:#000000;stroke-dasharray:0.5,0.825;stroke-dashoffset:0;stroke-opacity:0.5;stroke-width:0.5;"/>
     </g>
     <g id="line2d_4">
      <g>
       <use style="stroke:#000000;stroke-width:0.8;" x="387.987692" xlink:href="#m85cd32d6fa" y="629.9064"/>
      </g>
     </g>
     <g id="text_2">
      <!-- 100 -->
      <g transform="translate(378.443942 644.504838)scale(0.1 -0.1)">
       <defs>
        <path d="M 794 531 
L 1825 531 
L 1825 4091 
L 703 3866 
L 703 4441 
L 1819 4666 
L 2450 4666 
L 2450 531 
L 3481 531 
L 3481 0 
L 794 0 
L 794 531 
z
" id="DejaVuSans-31" transform="scale(0.015625)"/>
       </defs>
       <use xlink:href="#DejaVuSans-31"/>
       <use x="63.623047" xlink:href="#DejaVuSans-30"/>
       <use x="127.246094" xlink:href="#DejaVuSans-30"/>
      </g>
     </g>
    </g>
    <g id="xtick_3">
     <g id="line2d_5">
      <path clip-path="url(#pde238c54f4)" d="M 554.477203 629.9064 
L 554.477203 84.9312 
" style="fill:none;stroke:#000000;stroke-dasharray:0.5,0.825;stroke-dashoffset:0;stroke-opacity:0.5;stroke-width:0.5;"/>
     </g>
     <g id="line2d_6">
      <g>
       <use style="stroke:#000000;stroke-width:0.8;" x="554.477203" xlink:href="#m85cd32d6fa" y="629.9064"/>
      </g>
     </g>
     <g id="text_3">
      <!-- 200 -->
      <g transform="translate(544.933453 644.504838)scale(0.1 -0.1)">
       <defs>
        <path d="M 1228 531 
L 3431 531 
L 3431 0 
L 469 0 
L 469 531 
Q 828 903 1448 1529 
Q 2069 2156 2228 2338 
Q 2531 2678 2651 2914 
Q 2772 3150 2772 3378 
Q 2772 3750 2511 3984 
Q 2250 4219 1831 4219 
Q 1534 4219 1204 4116 
Q 875 4013 500 3803 
L 500 4441 
Q 881 4594 1212 4672 
Q 1544 4750 1819 4750 
Q 2544 4750 2975 4387 
Q 3406 4025 3406 3419 
Q 3406 3131 3298 2873 
Q 3191 2616 2906 2266 
Q 2828 2175 2409 1742 
Q 1991 1309 1228 531 
z
" id="DejaVuSans-32" transform="scale(0.015625)"/>
       </defs>
       <use xlink:href="#DejaVuSans-32"/>
       <use x="63.623047" xlink:href="#DejaVuSans-30"/>
       <use x="127.246094" xlink:href="#DejaVuSans-30"/>
      </g>
     </g>
    </g>
    <g id="xtick_4">
     <g id="line2d_7">
      <path clip-path="url(#pde238c54f4)" d="M 720.966713 629.9064 
L 720.966713 84.9312 
" style="fill:none;stroke:#000000;stroke-dasharray:0.5,0.825;stroke-dashoffset:0;stroke-opacity:0.5;stroke-width:0.5;"/>
     </g>
     <g id="line2d_8">
      <g>
       <use style="stroke:#000000;stroke-width:0.8;" x="720.966713" xlink:href="#m85cd32d6fa" y="629.9064"/>
      </g>
     </g>
     <g id="text_4">
      <!-- 300 -->
      <g transform="translate(711.422963 644.504838)scale(0.1 -0.1)">
       <defs>
        <path d="M 2597 2516 
Q 3050 2419 3304 2112 
Q 3559 1806 3559 1356 
Q 3559 666 3084 287 
Q 2609 -91 1734 -91 
Q 1441 -91 1130 -33 
Q 819 25 488 141 
L 488 750 
Q 750 597 1062 519 
Q 1375 441 1716 441 
Q 2309 441 2620 675 
Q 2931 909 2931 1356 
Q 2931 1769 2642 2001 
Q 2353 2234 1838 2234 
L 1294 2234 
L 1294 2753 
L 1863 2753 
Q 2328 2753 2575 2939 
Q 2822 3125 2822 3475 
Q 2822 3834 2567 4026 
Q 2313 4219 1838 4219 
Q 1578 4219 1281 4162 
Q 984 4106 628 3988 
L 628 4550 
Q 988 4650 1302 4700 
Q 1616 4750 1894 4750 
Q 2613 4750 3031 4423 
Q 3450 4097 3450 3541 
Q 3450 3153 3228 2886 
Q 3006 2619 2597 2516 
z
" id="DejaVuSans-33" transform="scale(0.015625)"/>
       </defs>
       <use xlink:href="#DejaVuSans-33"/>
       <use x="63.623047" xlink:href="#DejaVuSans-30"/>
       <use x="127.246094" xlink:href="#DejaVuSans-30"/>
      </g>
     </g>
    </g>
    <g id="xtick_5">
     <g id="line2d_9">
      <path clip-path="url(#pde238c54f4)" d="M 887.456224 629.9064 
L 887.456224 84.9312 
" style="fill:none;stroke:#000000;stroke-dasharray:0.5,0.825;stroke-dashoffset:0;stroke-opacity:0.5;stroke-width:0.5;"/>
     </g>
     <g id="line2d_10">
      <g>
       <use style="stroke:#000000;stroke-width:0.8;" x="887.456224" xlink:href="#m85cd32d6fa" y="629.9064"/>
      </g>
     </g>
     <g id="text_5">
      <!-- 400 -->
      <g transform="translate(877.912474 644.504838)scale(0.1 -0.1)">
       <defs>
        <path d="M 2419 4116 
L 825 1625 
L 2419 1625 
L 2419 4116 
z
M 2253 4666 
L 3047 4666 
L 3047 1625 
L 3713 1625 
L 3713 1100 
L 3047 1100 
L 3047 0 
L 2419 0 
L 2419 1100 
L 313 1100 
L 313 1709 
L 2253 4666 
z
" id="DejaVuSans-34" transform="scale(0.015625)"/>
       </defs>
       <use xlink:href="#DejaVuSans-34"/>
       <use x="63.623047" xlink:href="#DejaVuSans-30"/>
       <use x="127.246094" xlink:href="#DejaVuSans-30"/>
      </g>
     </g>
    </g>
    <g id="xtick_6">
     <g id="line2d_11">
      <path clip-path="url(#pde238c54f4)" d="M 1053.945734 629.9064 
L 1053.945734 84.9312 
" style="fill:none;stroke:#000000;stroke-dasharray:0.5,0.825;stroke-dashoffset:0;stroke-opacity:0.5;stroke-width:0.5;"/>
     </g>
     <g id="line2d_12">
      <g>
       <use style="stroke:#000000;stroke-width:0.8;" x="1053.945734" xlink:href="#m85cd32d6fa" y="629.9064"/>
      </g>
     </g>
     <g id="text_6">
      <!-- 500 -->
      <g transform="translate(1044.401984 644.504838)scale(0.1 -0.1)">
       <defs>
        <path d="M 691 4666 
L 3169 4666 
L 3169 4134 
L 1269 4134 
L 1269 2991 
Q 1406 3038 1543 3061 
Q 1681 3084 1819 3084 
Q 2600 3084 3056 2656 
Q 3513 2228 3513 1497 
Q 3513 744 3044 326 
Q 2575 -91 1722 -91 
Q 1428 -91 1123 -41 
Q 819 9 494 109 
L 494 744 
Q 775 591 1075 516 
Q 1375 441 1709 441 
Q 2250 441 2565 725 
Q 2881 1009 2881 1497 
Q 2881 1984 2565 2268 
Q 2250 2553 1709 2553 
Q 1456 2553 1204 2497 
Q 953 2441 691 2322 
L 691 4666 
z
" id="DejaVuSans-35" transform="scale(0.015625)"/>
       </defs>
       <use xlink:href="#DejaVuSans-35"/>
       <use x="63.623047" xlink:href="#DejaVuSans-30"/>
       <use x="127.246094" xlink:href="#DejaVuSans-30"/>
      </g>
     </g>
    </g>
    <g id="xtick_7">
     <g id="line2d_13">
      <path clip-path="url(#pde238c54f4)" d="M 1220.435245 629.9064 
L 1220.435245 84.9312 
" style="fill:none;stroke:#000000;stroke-dasharray:0.5,0.825;stroke-dashoffset:0;stroke-opacity:0.5;stroke-width:0.5;"/>
     </g>
     <g id="line2d_14">
      <g>
       <use style="stroke:#000000;stroke-width:0.8;" x="1220.435245" xlink:href="#m85cd32d6fa" y="629.9064"/>
      </g>
     </g>
     <g id="text_7">
      <!-- 600 -->
      <g transform="translate(1210.891495 644.504838)scale(0.1 -0.1)">
       <defs>
        <path d="M 2113 2584 
Q 1688 2584 1439 2293 
Q 1191 2003 1191 1497 
Q 1191 994 1439 701 
Q 1688 409 2113 409 
Q 2538 409 2786 701 
Q 3034 994 3034 1497 
Q 3034 2003 2786 2293 
Q 2538 2584 2113 2584 
z
M 3366 4563 
L 3366 3988 
Q 3128 4100 2886 4159 
Q 2644 4219 2406 4219 
Q 1781 4219 1451 3797 
Q 1122 3375 1075 2522 
Q 1259 2794 1537 2939 
Q 1816 3084 2150 3084 
Q 2853 3084 3261 2657 
Q 3669 2231 3669 1497 
Q 3669 778 3244 343 
Q 2819 -91 2113 -91 
Q 1303 -91 875 529 
Q 447 1150 447 2328 
Q 447 3434 972 4092 
Q 1497 4750 2381 4750 
Q 2619 4750 2861 4703 
Q 3103 4656 3366 4563 
z
" id="DejaVuSans-36" transform="scale(0.015625)"/>
       </defs>
       <use xlink:href="#DejaVuSans-36"/>
       <use x="63.623047" xlink:href="#DejaVuSans-30"/>
       <use x="127.246094" xlink:href="#DejaVuSans-30"/>
      </g>
     </g>
    </g>
   </g>
   <g id="matplotlib.axis_2">
    <g id="ytick_1">
     <g id="line2d_15">
      <path clip-path="url(#pde238c54f4)" d="M 172.8 605.1348 
L 1244.16 605.1348 
" style="fill:none;stroke:#000000;stroke-dasharray:0.5,0.825;stroke-dashoffset:0;stroke-opacity:0.5;stroke-width:0.5;"/>
     </g>
     <g id="line2d_16">
      <defs>
       <path d="M 0 0 
L -3.5 0 
" id="m9bf387af34" style="stroke:#000000;stroke-width:0.8;"/>
      </defs>
      <g>
       <use style="stroke:#000000;stroke-width:0.8;" x="172.8" xlink:href="#m9bf387af34" y="605.1348"/>
      </g>
     </g>
     <g id="text_8">
      <!-- 0 -->
      <g transform="translate(159.4375 608.934019)scale(0.1 -0.1)">
       <use xlink:href="#DejaVuSans-30"/>
      </g>
     </g>
    </g>
    <g id="ytick_2">
     <g id="line2d_17">
      <path clip-path="url(#pde238c54f4)" d="M 172.8 512.139441 
L 1244.16 512.139441 
" style="fill:none;stroke:#000000;stroke-dasharray:0.5,0.825;stroke-dashoffset:0;stroke-opacity:0.5;stroke-width:0.5;"/>
     </g>
     <g id="line2d_18">
      <g>
       <use style="stroke:#000000;stroke-width:0.8;" x="172.8" xlink:href="#m9bf387af34" y="512.139441"/>
      </g>
     </g>
     <g id="text_9">
      <!-- 1 -->
      <g transform="translate(159.4375 515.93866)scale(0.1 -0.1)">
       <use xlink:href="#DejaVuSans-31"/>
      </g>
     </g>
    </g>
    <g id="ytick_3">
     <g id="line2d_19">
      <path clip-path="url(#pde238c54f4)" d="M 172.8 419.144082 
L 1244.16 419.144082 
" style="fill:none;stroke:#000000;stroke-dasharray:0.5,0.825;stroke-dashoffset:0;stroke-opacity:0.5;stroke-width:0.5;"/>
     </g>
     <g id="line2d_20">
      <g>
       <use style="stroke:#000000;stroke-width:0.8;" x="172.8" xlink:href="#m9bf387af34" y="419.144082"/>
      </g>
     </g>
     <g id="text_10">
      <!-- 2 -->
      <g transform="translate(159.4375 422.943301)scale(0.1 -0.1)">
       <use xlink:href="#DejaVuSans-32"/>
      </g>
     </g>
    </g>
    <g id="ytick_4">
     <g id="line2d_21">
      <path clip-path="url(#pde238c54f4)" d="M 172.8 326.148723 
L 1244.16 326.148723 
" style="fill:none;stroke:#000000;stroke-dasharray:0.5,0.825;stroke-dashoffset:0;stroke-opacity:0.5;stroke-width:0.5;"/>
     </g>
     <g id="line2d_22">
      <g>
       <use style="stroke:#000000;stroke-width:0.8;" x="172.8" xlink:href="#m9bf387af34" y="326.148723"/>
      </g>
     </g>
     <g id="text_11">
      <!-- 3 -->
      <g transform="translate(159.4375 329.947942)scale(0.1 -0.1)">
       <use xlink:href="#DejaVuSans-33"/>
      </g>
     </g>
    </g>
    <g id="ytick_5">
     <g id="line2d_23">
      <path clip-path="url(#pde238c54f4)" d="M 172.8 233.153364 
L 1244.16 233.153364 
" style="fill:none;stroke:#000000;stroke-dasharray:0.5,0.825;stroke-dashoffset:0;stroke-opacity:0.5;stroke-width:0.5;"/>
     </g>
     <g id="line2d_24">
      <g>
       <use style="stroke:#000000;stroke-width:0.8;" x="172.8" xlink:href="#m9bf387af34" y="233.153364"/>
      </g>
     </g>
     <g id="text_12">
      <!-- 4 -->
      <g transform="translate(159.4375 236.952583)scale(0.1 -0.1)">
       <use xlink:href="#DejaVuSans-34"/>
      </g>
     </g>
    </g>
    <g id="ytick_6">
     <g id="line2d_25">
      <path clip-path="url(#pde238c54f4)" d="M 172.8 140.158006 
L 1244.16 140.158006 
" style="fill:none;stroke:#000000;stroke-dasharray:0.5,0.825;stroke-dashoffset:0;stroke-opacity:0.5;stroke-width:0.5;"/>
     </g>
     <g id="line2d_26">
      <g>
       <use style="stroke:#000000;stroke-width:0.8;" x="172.8" xlink:href="#m9bf387af34" y="140.158006"/>
      </g>
     </g>
     <g id="text_13">
      <!-- 5 -->
      <g transform="translate(159.4375 143.957224)scale(0.1 -0.1)">
       <use xlink:href="#DejaVuSans-35"/>
      </g>
     </g>
    </g>
   </g>
   <g id="line2d_27">
    <path clip-path="url(#pde238c54f4)" d="M 221.498182 605.1348 
L 223.163077 512.139441 
L 224.827972 564.986005 
L 238.147133 564.986005 
L 239.812028 562.6114 
L 241.476923 562.6114 
L 243.141818 564.986005 
L 244.806713 564.986005 
L 246.471608 560.539911 
L 248.136503 564.986005 
L 249.801399 564.986005 
L 251.466294 562.6114 
L 253.131189 567.745843 
L 254.796084 564.986005 
L 256.460979 564.986005 
L 258.125874 567.745843 
L 259.790769 562.6114 
L 261.455664 562.6114 
L 263.120559 564.986005 
L 264.785455 562.6114 
L 266.45035 564.986005 
L 268.115245 562.6114 
L 269.78014 562.6114 
L 271.445035 571.007142 
L 273.10993 562.6114 
L 274.774825 562.6114 
L 276.43972 564.986005 
L 281.434406 564.986005 
L 283.099301 562.6114 
L 284.764196 558.711852 
L 286.429091 558.711852 
L 288.093986 560.539911 
L 293.088671 560.539911 
L 294.753566 562.6114 
L 296.418462 564.986005 
L 298.083357 558.711852 
L 299.748252 562.6114 
L 301.413147 558.711852 
L 303.078042 558.711852 
L 304.742937 557.082741 
L 306.407832 555.618688 
L 308.072727 557.082741 
L 309.737622 557.082741 
L 311.402517 555.618688 
L 313.067413 557.082741 
L 316.397203 557.082741 
L 318.062098 555.618688 
L 329.716364 555.618688 
L 331.381259 560.539911 
L 333.046154 560.539911 
L 334.711049 558.711852 
L 336.375944 555.618688 
L 338.040839 558.711852 
L 339.705734 555.618688 
L 341.370629 557.082741 
L 343.035524 555.618688 
L 344.70042 555.618688 
L 346.365315 557.082741 
L 353.024895 557.082741 
L 354.68979 555.618688 
L 356.354685 557.082741 
L 358.01958 555.618688 
L 359.684476 555.618688 
L 361.349371 554.293372 
L 364.679161 557.082741 
L 366.344056 557.082741 
L 368.008951 555.618688 
L 369.673846 557.082741 
L 371.338741 554.293372 
L 373.003636 555.618688 
L 374.668531 555.618688 
L 376.333427 557.082741 
L 377.998322 555.618688 
L 379.663217 555.618688 
L 381.328112 554.293372 
L 382.993007 554.293372 
L 384.657902 555.618688 
L 389.652587 555.618688 
L 391.317483 557.082741 
L 392.982378 558.711852 
L 394.647273 557.082741 
L 396.312168 562.6114 
L 397.977063 555.618688 
L 399.641958 557.082741 
L 401.306853 558.711852 
L 402.971748 560.539911 
L 404.636643 553.086004 
L 406.301538 555.618688 
L 409.631329 555.618688 
L 411.296224 560.539911 
L 412.961119 560.539911 
L 414.626014 558.711852 
L 416.290909 560.539911 
L 417.955804 558.711852 
L 419.620699 558.711852 
L 421.285594 560.539911 
L 422.95049 562.6114 
L 424.615385 555.618688 
L 426.28028 555.618688 
L 427.945175 557.082741 
L 429.61007 562.6114 
L 431.274965 560.539911 
L 432.93986 558.711852 
L 434.604755 562.6114 
L 436.26965 558.711852 
L 437.934545 557.082741 
L 439.599441 560.539911 
L 441.264336 560.539911 
L 442.929231 555.618688 
L 444.594126 562.6114 
L 446.259021 558.711852 
L 447.923916 567.745843 
L 449.588811 564.986005 
L 451.253706 567.745843 
L 452.918601 562.6114 
L 454.583497 557.082741 
L 456.248392 560.539911 
L 457.913287 564.986005 
L 459.578182 555.618688 
L 461.243077 558.711852 
L 462.907972 558.711852 
L 464.572867 564.986005 
L 466.237762 564.986005 
L 467.902657 567.745843 
L 469.567552 571.007142 
L 471.232448 567.745843 
L 472.897343 579.796695 
L 474.562238 579.796695 
L 476.227133 571.007142 
L 477.892028 571.007142 
L 479.556923 574.93946 
L 481.221818 567.745843 
L 482.886713 564.986005 
L 484.551608 564.986005 
L 487.881399 593.872631 
L 489.546294 579.796695 
L 491.211189 579.796695 
L 492.876084 574.93946 
L 494.540979 571.007142 
L 496.205874 574.93946 
L 497.870769 574.93946 
L 499.535664 567.745843 
L 501.200559 574.93946 
L 502.865455 571.007142 
L 504.53035 602.780361 
L 506.195245 571.007142 
L 507.86014 579.796695 
L 509.525035 593.872631 
L 511.18993 574.93946 
L 512.854825 571.007142 
L 514.51972 574.93946 
L 516.184615 579.796695 
L 519.514406 579.796695 
L 521.179301 571.007142 
L 522.844196 571.007142 
L 524.509091 579.796695 
L 526.173986 574.93946 
L 527.838881 571.007142 
L 539.493147 571.007142 
L 541.158042 560.539911 
L 542.822937 558.711852 
L 544.487832 562.6114 
L 547.817622 562.6114 
L 549.482517 560.539911 
L 551.147413 560.539911 
L 552.812308 567.745843 
L 554.477203 562.6114 
L 557.806993 562.6114 
L 559.471888 558.711852 
L 561.136783 562.6114 
L 562.801678 567.745843 
L 564.466573 562.6114 
L 566.131469 564.986005 
L 567.796364 560.539911 
L 571.126154 560.539911 
L 572.791049 564.986005 
L 574.455944 560.539911 
L 576.120839 558.711852 
L 577.785734 558.711852 
L 579.450629 557.082741 
L 581.115524 562.6114 
L 582.78042 560.539911 
L 584.445315 560.539911 
L 586.11021 562.6114 
L 587.775105 567.745843 
L 589.44 562.6114 
L 591.104895 560.539911 
L 592.76979 564.986005 
L 594.434685 560.539911 
L 596.09958 564.986005 
L 597.764476 567.745843 
L 599.429371 564.986005 
L 601.094266 567.745843 
L 602.759161 567.745843 
L 604.424056 571.007142 
L 606.088951 564.986005 
L 607.753846 567.745843 
L 609.418741 567.745843 
L 611.083636 574.93946 
L 612.748531 571.007142 
L 614.413427 567.745843 
L 616.078322 571.007142 
L 617.743217 571.007142 
L 619.408112 574.93946 
L 621.073007 574.93946 
L 622.737902 567.745843 
L 624.402797 564.986005 
L 626.067692 571.007142 
L 627.732587 567.745843 
L 629.397483 571.007142 
L 631.062378 564.986005 
L 632.727273 564.986005 
L 634.392168 574.93946 
L 636.057063 579.796695 
L 637.721958 567.745843 
L 639.386853 579.796695 
L 641.051748 574.93946 
L 642.716643 571.007142 
L 644.381538 571.007142 
L 646.046434 574.93946 
L 647.711329 564.986005 
L 649.376224 567.745843 
L 651.041119 571.007142 
L 652.706014 567.745843 
L 656.035804 567.745843 
L 657.700699 562.6114 
L 659.365594 560.539911 
L 661.03049 564.986005 
L 662.695385 564.986005 
L 664.36028 560.539911 
L 666.025175 560.539911 
L 667.69007 567.745843 
L 671.01986 567.745843 
L 672.684755 562.6114 
L 674.34965 562.6114 
L 676.014545 564.986005 
L 677.679441 567.745843 
L 679.344336 564.986005 
L 681.009231 564.986005 
L 682.674126 560.539911 
L 684.339021 560.539911 
L 686.003916 564.986005 
L 687.668811 558.711852 
L 689.333706 560.539911 
L 690.998601 562.6114 
L 692.663497 557.082741 
L 694.328392 560.539911 
L 695.993287 560.539911 
L 697.658182 558.711852 
L 699.323077 560.539911 
L 700.987972 558.711852 
L 702.652867 557.082741 
L 704.317762 560.539911 
L 705.982657 557.082741 
L 707.647552 557.082741 
L 709.312448 560.539911 
L 710.977343 562.6114 
L 712.642238 564.986005 
L 714.307133 560.539911 
L 715.972028 560.539911 
L 717.636923 558.711852 
L 719.301818 557.082741 
L 720.966713 557.082741 
L 722.631608 555.618688 
L 724.296503 558.711852 
L 725.961399 555.618688 
L 727.626294 557.082741 
L 730.956084 557.082741 
L 732.620979 555.618688 
L 734.285874 555.618688 
L 735.950769 558.711852 
L 737.615664 562.6114 
L 739.280559 562.6114 
L 740.945455 558.711852 
L 742.61035 558.711852 
L 744.275245 557.082741 
L 745.94014 562.6114 
L 747.605035 562.6114 
L 749.26993 554.293372 
L 750.934825 562.6114 
L 752.59972 558.711852 
L 754.264615 560.539911 
L 757.594406 560.539911 
L 759.259301 558.711852 
L 760.924196 557.082741 
L 764.253986 557.082741 
L 765.918881 564.986005 
L 767.583776 558.711852 
L 769.248671 558.711852 
L 770.913566 560.539911 
L 772.578462 557.082741 
L 774.243357 560.539911 
L 775.908252 560.539911 
L 777.573147 564.986005 
L 779.238042 571.007142 
L 780.902937 560.539911 
L 782.567832 562.6114 
L 784.232727 562.6114 
L 785.897622 564.986005 
L 787.562517 562.6114 
L 789.227413 562.6114 
L 790.892308 564.986005 
L 792.557203 560.539911 
L 794.222098 562.6114 
L 795.886993 560.539911 
L 797.551888 558.711852 
L 799.216783 557.082741 
L 800.881678 560.539911 
L 802.546573 560.539911 
L 804.211469 562.6114 
L 805.876364 562.6114 
L 807.541259 564.986005 
L 809.206154 564.986005 
L 810.871049 560.539911 
L 812.535944 558.711852 
L 814.200839 558.711852 
L 815.865734 560.539911 
L 817.530629 557.082741 
L 819.195524 557.082741 
L 820.86042 562.6114 
L 822.525315 562.6114 
L 824.19021 560.539911 
L 825.855105 562.6114 
L 827.52 564.986005 
L 829.184895 560.539911 
L 830.84979 567.745843 
L 832.514685 564.986005 
L 834.17958 567.745843 
L 835.844476 564.986005 
L 837.509371 567.745843 
L 839.174266 562.6114 
L 840.839161 562.6114 
L 842.504056 558.711852 
L 844.168951 562.6114 
L 845.833846 560.539911 
L 847.498741 557.082741 
L 849.163636 560.539911 
L 850.828531 564.986005 
L 852.493427 564.986005 
L 854.158322 567.745843 
L 855.823217 560.539911 
L 857.488112 560.539911 
L 859.153007 562.6114 
L 860.817902 571.007142 
L 865.812587 571.007142 
L 867.477483 585.956921 
L 870.807273 585.956921 
L 872.472168 579.796695 
L 874.137063 579.796695 
L 875.801958 585.956921 
L 877.466853 585.956921 
L 879.131748 579.796695 
L 882.461538 579.796695 
L 884.126434 585.956921 
L 885.791329 567.745843 
L 887.456224 571.007142 
L 889.121119 564.986005 
L 890.786014 567.745843 
L 892.450909 571.007142 
L 894.115804 571.007142 
L 895.780699 567.745843 
L 897.445594 571.007142 
L 899.11049 574.93946 
L 900.775385 564.986005 
L 902.44028 567.745843 
L 904.105175 564.986005 
L 905.77007 571.007142 
L 907.434965 567.745843 
L 909.09986 567.745843 
L 910.764755 571.007142 
L 912.42965 574.93946 
L 915.759441 574.93946 
L 917.424336 571.007142 
L 919.089231 579.796695 
L 920.754126 585.956921 
L 922.419021 585.956921 
L 924.083916 579.796695 
L 925.748811 585.956921 
L 927.413706 579.796695 
L 929.078601 579.796695 
L 930.743497 574.93946 
L 932.408392 585.956921 
L 934.073287 574.93946 
L 935.738182 571.007142 
L 937.403077 574.93946 
L 939.067972 585.956921 
L 940.732867 574.93946 
L 942.397762 585.956921 
L 944.062657 579.796695 
L 945.727552 574.93946 
L 947.392448 579.796695 
L 950.722238 579.796695 
L 952.387133 574.93946 
L 954.052028 579.796695 
L 955.716923 579.796695 
L 957.381818 574.93946 
L 959.046713 579.796695 
L 960.711608 571.007142 
L 962.376503 579.796695 
L 964.041399 574.93946 
L 965.706294 574.93946 
L 967.371189 571.007142 
L 969.036084 585.956921 
L 970.700979 567.745843 
L 972.365874 574.93946 
L 974.030769 571.007142 
L 975.695664 567.745843 
L 977.360559 567.745843 
L 979.025455 564.986005 
L 980.69035 571.007142 
L 982.355245 567.745843 
L 984.02014 562.6114 
L 985.685035 564.986005 
L 987.34993 564.986005 
L 989.014825 571.007142 
L 990.67972 571.007142 
L 992.344615 564.986005 
L 994.00951 579.796695 
L 995.674406 567.745843 
L 997.339301 571.007142 
L 999.004196 567.745843 
L 1000.669091 567.745843 
L 1002.333986 564.986005 
L 1003.998881 567.745843 
L 1005.663776 571.007142 
L 1007.328671 562.6114 
L 1008.993566 562.6114 
L 1010.658462 557.082741 
L 1012.323357 564.986005 
L 1013.988252 558.711852 
L 1015.653147 564.986005 
L 1017.318042 560.539911 
L 1018.982937 562.6114 
L 1020.647832 560.539911 
L 1022.312727 564.986005 
L 1023.977622 562.6114 
L 1025.642517 564.986005 
L 1027.307413 558.711852 
L 1028.972308 560.539911 
L 1030.637203 564.986005 
L 1032.302098 571.007142 
L 1033.966993 571.007142 
L 1035.631888 562.6114 
L 1037.296783 562.6114 
L 1038.961678 567.745843 
L 1040.626573 562.6114 
L 1042.291469 564.986005 
L 1043.956364 562.6114 
L 1045.621259 571.007142 
L 1047.286154 555.618688 
L 1048.951049 562.6114 
L 1050.615944 562.6114 
L 1052.280839 558.711852 
L 1053.945734 564.986005 
L 1055.610629 574.93946 
L 1057.275524 564.986005 
L 1058.94042 564.986005 
L 1060.605315 562.6114 
L 1062.27021 571.007142 
L 1063.935105 564.986005 
L 1065.6 567.745843 
L 1067.264895 567.745843 
L 1068.92979 571.007142 
L 1070.594685 574.93946 
L 1072.25958 571.007142 
L 1073.924476 564.986005 
L 1075.589371 567.745843 
L 1077.254266 571.007142 
L 1080.584056 571.007142 
L 1082.248951 579.796695 
L 1083.913846 571.007142 
L 1085.578741 574.93946 
L 1087.243636 574.93946 
L 1088.908531 571.007142 
L 1090.573427 567.745843 
L 1092.238322 574.93946 
L 1093.903217 571.007142 
L 1095.568112 571.007142 
L 1097.233007 567.745843 
L 1098.897902 567.745843 
L 1100.562797 574.93946 
L 1102.227692 579.796695 
L 1103.892587 574.93946 
L 1105.557483 560.539911 
L 1107.222378 560.539911 
L 1108.887273 562.6114 
L 1110.552168 567.745843 
L 1112.217063 567.745843 
L 1113.881958 560.539911 
L 1115.546853 562.6114 
L 1117.211748 560.539911 
L 1118.876643 560.539911 
L 1120.541538 558.711852 
L 1122.206434 560.539911 
L 1123.871329 564.986005 
L 1125.536224 564.986005 
L 1127.201119 567.745843 
L 1128.866014 564.986005 
L 1130.530909 567.745843 
L 1132.195804 562.6114 
L 1133.860699 574.93946 
L 1135.525594 558.711852 
L 1137.19049 564.986005 
L 1138.855385 564.986005 
L 1140.52028 562.6114 
L 1142.185175 560.539911 
L 1143.85007 560.539911 
L 1145.514965 558.711852 
L 1147.17986 553.086004 
L 1148.844755 557.082741 
L 1150.50965 560.539911 
L 1152.174545 560.539911 
L 1153.839441 555.618688 
L 1155.504336 558.711852 
L 1157.169231 554.293372 
L 1158.834126 557.082741 
L 1160.499021 555.618688 
L 1162.163916 553.086004 
L 1163.828811 555.618688 
L 1165.493706 554.293372 
L 1167.158601 557.082741 
L 1168.823497 557.082741 
L 1170.488392 558.711852 
L 1172.153287 555.618688 
L 1173.818182 560.539911 
L 1175.483077 558.711852 
L 1177.147972 560.539911 
L 1178.812867 558.711852 
L 1180.477762 560.539911 
L 1182.142657 558.711852 
L 1183.807552 558.711852 
L 1185.472448 562.6114 
L 1187.137343 557.082741 
L 1188.802238 560.539911 
L 1190.467133 562.6114 
L 1192.132028 567.745843 
L 1193.796923 557.082741 
L 1195.461818 562.6114 
L 1195.461818 562.6114 
" style="fill:none;stroke:#1f77b4;stroke-dasharray:5.55,2.4;stroke-dashoffset:0;stroke-width:1.5;"/>
   </g>
   <g id="line2d_28">
    <path clip-path="url(#pde238c54f4)" d="M 221.498182 605.1348 
L 223.163077 512.139441 
L 224.827972 437.479566 
L 238.147133 437.479566 
L 239.812028 442.25664 
L 241.476923 442.25664 
L 243.141818 437.479566 
L 244.806713 437.479566 
L 246.471608 446.254057 
L 248.136503 437.479566 
L 249.801399 437.479566 
L 251.466294 442.25664 
L 253.131189 431.639018 
L 254.796084 437.479566 
L 256.460979 437.479566 
L 258.125874 431.639018 
L 259.790769 442.25664 
L 261.455664 442.25664 
L 263.120559 437.479566 
L 264.785455 442.25664 
L 266.45035 437.479566 
L 268.115245 442.25664 
L 269.78014 442.25664 
L 271.445035 424.284678 
L 273.10993 442.25664 
L 274.774825 442.25664 
L 276.43972 437.479566 
L 281.434406 437.479566 
L 283.099301 442.25664 
L 284.764196 449.660458 
L 286.429091 449.660458 
L 288.093986 446.254057 
L 293.088671 446.254057 
L 294.753566 442.25664 
L 296.418462 437.479566 
L 298.083357 449.660458 
L 299.748252 442.25664 
L 301.413147 449.660458 
L 303.078042 449.660458 
L 304.742937 452.606614 
L 306.407832 455.186329 
L 308.072727 452.606614 
L 309.737622 452.606614 
L 311.402517 455.186329 
L 313.067413 452.606614 
L 316.397203 452.606614 
L 318.062098 455.186329 
L 329.716364 455.186329 
L 331.381259 446.254057 
L 333.046154 446.254057 
L 334.711049 449.660458 
L 336.375944 455.186329 
L 338.040839 449.660458 
L 339.705734 455.186329 
L 341.370629 452.606614 
L 343.035524 455.186329 
L 344.70042 455.186329 
L 346.365315 452.606614 
L 353.024895 452.606614 
L 354.68979 455.186329 
L 356.354685 452.606614 
L 358.01958 455.186329 
L 359.684476 455.186329 
L 361.349371 457.468825 
L 363.014266 455.186329 
L 364.679161 452.606614 
L 366.344056 452.606614 
L 368.008951 455.186329 
L 369.673846 452.606614 
L 371.338741 457.468825 
L 373.003636 455.186329 
L 374.668531 455.186329 
L 376.333427 452.606614 
L 377.998322 455.186329 
L 379.663217 455.186329 
L 381.328112 457.468825 
L 382.993007 457.468825 
L 384.657902 455.186329 
L 389.652587 455.186329 
L 391.317483 452.606614 
L 392.982378 449.660458 
L 394.647273 452.606614 
L 396.312168 442.25664 
L 397.977063 455.186329 
L 399.641958 452.606614 
L 401.306853 449.660458 
L 402.971748 446.254057 
L 404.636643 459.506417 
L 406.301538 455.186329 
L 409.631329 455.186329 
L 411.296224 446.254057 
L 412.961119 446.254057 
L 414.626014 449.660458 
L 416.290909 446.254057 
L 417.955804 449.660458 
L 419.620699 449.660458 
L 421.285594 446.254057 
L 422.95049 442.25664 
L 424.615385 455.186329 
L 426.28028 455.186329 
L 427.945175 452.606614 
L 429.61007 442.25664 
L 431.274965 446.254057 
L 432.93986 449.660458 
L 434.604755 442.25664 
L 436.26965 449.660458 
L 437.934545 452.606614 
L 439.599441 446.254057 
L 441.264336 446.254057 
L 442.929231 455.186329 
L 444.594126 442.25664 
L 446.259021 449.660458 
L 447.923916 431.639018 
L 449.588811 437.479566 
L 451.253706 431.639018 
L 454.583497 452.606614 
L 456.248392 446.254057 
L 457.913287 437.479566 
L 459.578182 455.186329 
L 461.243077 449.660458 
L 462.907972 449.660458 
L 464.572867 437.479566 
L 466.237762 437.479566 
L 467.902657 431.639018 
L 469.567552 424.284678 
L 471.232448 431.639018 
L 472.897343 401.305874 
L 474.562238 401.305874 
L 476.227133 424.284678 
L 477.892028 424.284678 
L 479.556923 414.650757 
L 481.221818 431.639018 
L 482.886713 437.479566 
L 484.551608 437.479566 
L 486.216503 401.305874 
L 487.881399 346.066312 
L 489.546294 401.305874 
L 491.211189 401.305874 
L 492.876084 414.650757 
L 494.540979 424.284678 
L 496.205874 414.650757 
L 497.870769 414.650757 
L 499.535664 431.639018 
L 501.200559 414.650757 
L 502.865455 424.284678 
L 504.53035 262.086131 
L 506.195245 424.284678 
L 507.86014 401.305874 
L 509.525035 346.066312 
L 511.18993 414.650757 
L 512.854825 424.284678 
L 514.51972 414.650757 
L 516.184615 401.305874 
L 519.514406 401.305874 
L 521.179301 424.284678 
L 522.844196 424.284678 
L 524.509091 401.305874 
L 526.173986 414.650757 
L 527.838881 424.284678 
L 539.493147 424.284678 
L 541.158042 446.254057 
L 542.822937 449.660458 
L 544.487832 442.25664 
L 547.817622 442.25664 
L 549.482517 446.254057 
L 551.147413 446.254057 
L 552.812308 431.639018 
L 554.477203 442.25664 
L 557.806993 442.25664 
L 559.471888 449.660458 
L 561.136783 442.25664 
L 562.801678 431.639018 
L 564.466573 442.25664 
L 566.131469 437.479566 
L 567.796364 446.254057 
L 571.126154 446.254057 
L 572.791049 437.479566 
L 574.455944 446.254057 
L 576.120839 449.660458 
L 577.785734 449.660458 
L 579.450629 452.606614 
L 581.115524 442.25664 
L 582.78042 446.254057 
L 584.445315 446.254057 
L 586.11021 442.25664 
L 587.775105 431.639018 
L 589.44 442.25664 
L 591.104895 446.254057 
L 592.76979 437.479566 
L 594.434685 446.254057 
L 596.09958 437.479566 
L 597.764476 431.639018 
L 599.429371 437.479566 
L 601.094266 431.639018 
L 602.759161 431.639018 
L 604.424056 424.284678 
L 606.088951 437.479566 
L 607.753846 431.639018 
L 609.418741 431.639018 
L 611.083636 414.650757 
L 612.748531 424.284678 
L 614.413427 431.639018 
L 616.078322 424.284678 
L 617.743217 424.284678 
L 619.408112 414.650757 
L 621.073007 414.650757 
L 622.737902 431.639018 
L 624.402797 437.479566 
L 626.067692 424.284678 
L 627.732587 431.639018 
L 629.397483 424.284678 
L 631.062378 437.479566 
L 632.727273 437.479566 
L 634.392168 414.650757 
L 636.057063 401.305874 
L 637.721958 431.639018 
L 639.386853 401.305874 
L 641.051748 414.650757 
L 642.716643 424.284678 
L 644.381538 424.284678 
L 646.046434 414.650757 
L 647.711329 437.479566 
L 649.376224 431.639018 
L 651.041119 424.284678 
L 652.706014 431.639018 
L 656.035804 431.639018 
L 657.700699 442.25664 
L 659.365594 446.254057 
L 661.03049 437.479566 
L 662.695385 437.479566 
L 664.36028 446.254057 
L 666.025175 446.254057 
L 667.69007 431.639018 
L 671.01986 431.639018 
L 672.684755 442.25664 
L 674.34965 442.25664 
L 676.014545 437.479566 
L 677.679441 431.639018 
L 679.344336 437.479566 
L 681.009231 437.479566 
L 682.674126 446.254057 
L 684.339021 446.254057 
L 686.003916 437.479566 
L 687.668811 449.660458 
L 689.333706 446.254057 
L 690.998601 442.25664 
L 692.663497 452.606614 
L 694.328392 446.254057 
L 695.993287 446.254057 
L 697.658182 449.660458 
L 699.323077 446.254057 
L 700.987972 449.660458 
L 702.652867 452.606614 
L 704.317762 446.254057 
L 705.982657 452.606614 
L 707.647552 452.606614 
L 709.312448 446.254057 
L 710.977343 442.25664 
L 712.642238 437.479566 
L 714.307133 446.254057 
L 715.972028 446.254057 
L 717.636923 449.660458 
L 719.301818 452.606614 
L 720.966713 452.606614 
L 722.631608 455.186329 
L 724.296503 449.660458 
L 725.961399 455.186329 
L 727.626294 452.606614 
L 730.956084 452.606614 
L 732.620979 455.186329 
L 734.285874 455.186329 
L 735.950769 449.660458 
L 737.615664 442.25664 
L 739.280559 442.25664 
L 740.945455 449.660458 
L 742.61035 449.660458 
L 744.275245 452.606614 
L 745.94014 442.25664 
L 747.605035 442.25664 
L 749.26993 457.468825 
L 750.934825 442.25664 
L 752.59972 449.660458 
L 754.264615 446.254057 
L 757.594406 446.254057 
L 759.259301 449.660458 
L 760.924196 452.606614 
L 764.253986 452.606614 
L 765.918881 437.479566 
L 767.583776 449.660458 
L 769.248671 449.660458 
L 770.913566 446.254057 
L 772.578462 452.606614 
L 774.243357 446.254057 
L 775.908252 446.254057 
L 777.573147 437.479566 
L 779.238042 424.284678 
L 780.902937 446.254057 
L 782.567832 442.25664 
L 784.232727 442.25664 
L 785.897622 437.479566 
L 787.562517 442.25664 
L 789.227413 442.25664 
L 790.892308 437.479566 
L 792.557203 446.254057 
L 794.222098 442.25664 
L 795.886993 446.254057 
L 797.551888 449.660458 
L 799.216783 452.606614 
L 800.881678 446.254057 
L 802.546573 446.254057 
L 804.211469 442.25664 
L 805.876364 442.25664 
L 807.541259 437.479566 
L 809.206154 437.479566 
L 810.871049 446.254057 
L 812.535944 449.660458 
L 814.200839 449.660458 
L 815.865734 446.254057 
L 817.530629 452.606614 
L 819.195524 452.606614 
L 820.86042 442.25664 
L 822.525315 442.25664 
L 824.19021 446.254057 
L 825.855105 442.25664 
L 827.52 437.479566 
L 829.184895 446.254057 
L 830.84979 431.639018 
L 832.514685 437.479566 
L 834.17958 431.639018 
L 835.844476 437.479566 
L 837.509371 431.639018 
L 839.174266 442.25664 
L 840.839161 442.25664 
L 842.504056 449.660458 
L 844.168951 442.25664 
L 845.833846 446.254057 
L 847.498741 452.606614 
L 849.163636 446.254057 
L 850.828531 437.479566 
L 852.493427 437.479566 
L 854.158322 431.639018 
L 855.823217 446.254057 
L 857.488112 446.254057 
L 859.153007 442.25664 
L 860.817902 424.284678 
L 865.812587 424.284678 
L 867.477483 381.180659 
L 870.807273 381.180659 
L 872.472168 401.305874 
L 874.137063 401.305874 
L 875.801958 381.180659 
L 877.466853 381.180659 
L 879.131748 401.305874 
L 882.461538 401.305874 
L 884.126434 381.180659 
L 885.791329 431.639018 
L 887.456224 424.284678 
L 889.121119 437.479566 
L 890.786014 431.639018 
L 892.450909 424.284678 
L 894.115804 424.284678 
L 895.780699 431.639018 
L 897.445594 424.284678 
L 899.11049 414.650757 
L 900.775385 437.479566 
L 902.44028 431.639018 
L 904.105175 437.479566 
L 905.77007 424.284678 
L 907.434965 431.639018 
L 909.09986 431.639018 
L 910.764755 424.284678 
L 912.42965 414.650757 
L 915.759441 414.650757 
L 917.424336 424.284678 
L 919.089231 401.305874 
L 920.754126 381.180659 
L 922.419021 381.180659 
L 924.083916 401.305874 
L 925.748811 381.180659 
L 927.413706 401.305874 
L 929.078601 401.305874 
L 930.743497 414.650757 
L 932.408392 381.180659 
L 934.073287 414.650757 
L 935.738182 424.284678 
L 937.403077 414.650757 
L 939.067972 381.180659 
L 940.732867 414.650757 
L 942.397762 381.180659 
L 944.062657 401.305874 
L 945.727552 414.650757 
L 947.392448 401.305874 
L 950.722238 401.305874 
L 952.387133 414.650757 
L 954.052028 401.305874 
L 955.716923 401.305874 
L 957.381818 414.650757 
L 959.046713 401.305874 
L 960.711608 424.284678 
L 962.376503 401.305874 
L 964.041399 414.650757 
L 965.706294 414.650757 
L 967.371189 424.284678 
L 969.036084 381.180659 
L 970.700979 431.639018 
L 972.365874 414.650757 
L 974.030769 424.284678 
L 975.695664 431.639018 
L 977.360559 431.639018 
L 979.025455 437.479566 
L 980.69035 424.284678 
L 982.355245 431.639018 
L 984.02014 442.25664 
L 985.685035 437.479566 
L 987.34993 437.479566 
L 989.014825 424.284678 
L 990.67972 424.284678 
L 992.344615 437.479566 
L 994.00951 401.305874 
L 995.674406 431.639018 
L 997.339301 424.284678 
L 999.004196 431.639018 
L 1000.669091 431.639018 
L 1002.333986 437.479566 
L 1003.998881 431.639018 
L 1005.663776 424.284678 
L 1007.328671 442.25664 
L 1008.993566 442.25664 
L 1010.658462 452.606614 
L 1012.323357 437.479566 
L 1013.988252 449.660458 
L 1015.653147 437.479566 
L 1017.318042 446.254057 
L 1018.982937 442.25664 
L 1020.647832 446.254057 
L 1022.312727 437.479566 
L 1023.977622 442.25664 
L 1025.642517 437.479566 
L 1027.307413 449.660458 
L 1028.972308 446.254057 
L 1030.637203 437.479566 
L 1032.302098 424.284678 
L 1033.966993 424.284678 
L 1035.631888 442.25664 
L 1037.296783 442.25664 
L 1038.961678 431.639018 
L 1040.626573 442.25664 
L 1042.291469 437.479566 
L 1043.956364 442.25664 
L 1045.621259 424.284678 
L 1047.286154 455.186329 
L 1048.951049 442.25664 
L 1050.615944 442.25664 
L 1052.280839 449.660458 
L 1053.945734 437.479566 
L 1055.610629 414.650757 
L 1057.275524 437.479566 
L 1058.94042 437.479566 
L 1060.605315 442.25664 
L 1062.27021 424.284678 
L 1063.935105 437.479566 
L 1065.6 431.639018 
L 1067.264895 431.639018 
L 1068.92979 424.284678 
L 1070.594685 414.650757 
L 1072.25958 424.284678 
L 1073.924476 437.479566 
L 1075.589371 431.639018 
L 1077.254266 424.284678 
L 1080.584056 424.284678 
L 1082.248951 401.305874 
L 1083.913846 424.284678 
L 1085.578741 414.650757 
L 1087.243636 414.650757 
L 1088.908531 424.284678 
L 1090.573427 431.639018 
L 1092.238322 414.650757 
L 1093.903217 424.284678 
L 1095.568112 424.284678 
L 1097.233007 431.639018 
L 1098.897902 431.639018 
L 1100.562797 414.650757 
L 1102.227692 401.305874 
L 1103.892587 414.650757 
L 1105.557483 446.254057 
L 1107.222378 446.254057 
L 1108.887273 442.25664 
L 1110.552168 431.639018 
L 1112.217063 431.639018 
L 1113.881958 446.254057 
L 1115.546853 442.25664 
L 1117.211748 446.254057 
L 1118.876643 446.254057 
L 1120.541538 449.660458 
L 1122.206434 446.254057 
L 1123.871329 437.479566 
L 1125.536224 437.479566 
L 1127.201119 431.639018 
L 1128.866014 437.479566 
L 1130.530909 431.639018 
L 1132.195804 442.25664 
L 1133.860699 414.650757 
L 1135.525594 449.660458 
L 1137.19049 437.479566 
L 1138.855385 437.479566 
L 1140.52028 442.25664 
L 1142.185175 446.254057 
L 1143.85007 446.254057 
L 1145.514965 449.660458 
L 1147.17986 459.506417 
L 1148.844755 452.606614 
L 1150.50965 446.254057 
L 1152.174545 446.254057 
L 1153.839441 455.186329 
L 1155.504336 449.660458 
L 1157.169231 457.468825 
L 1158.834126 452.606614 
L 1160.499021 455.186329 
L 1162.163916 459.506417 
L 1163.828811 455.186329 
L 1165.493706 457.468825 
L 1167.158601 452.606614 
L 1168.823497 452.606614 
L 1170.488392 449.660458 
L 1172.153287 455.186329 
L 1173.818182 446.254057 
L 1175.483077 449.660458 
L 1177.147972 446.254057 
L 1178.812867 449.660458 
L 1180.477762 446.254057 
L 1182.142657 449.660458 
L 1183.807552 449.660458 
L 1185.472448 442.25664 
L 1187.137343 452.606614 
L 1188.802238 446.254057 
L 1190.467133 442.25664 
L 1192.132028 431.639018 
L 1193.796923 452.606614 
L 1195.461818 442.25664 
L 1195.461818 442.25664 
" style="fill:none;stroke:#ff7f0e;stroke-dasharray:5.55,2.4;stroke-dashoffset:0;stroke-width:1.5;"/>
   </g>
   <g id="line2d_29">
    <path clip-path="url(#pde238c54f4)" d="M 221.498182 605.1348 
L 223.163077 512.139441 
L 224.827972 604.649684 
L 226.492867 604.165401 
L 228.157762 604.377083 
L 229.822657 604.834985 
L 231.487552 604.132209 
L 233.152448 525.062608 
L 234.817343 599.63731 
L 236.482238 604.308377 
L 238.147133 602.764974 
L 239.812028 604.102689 
L 241.476923 603.73743 
L 243.141818 479.745404 
L 244.806713 588.69887 
L 246.471608 533.436956 
L 248.136503 484.083514 
L 249.801399 468.140744 
L 251.466294 437.895495 
L 253.131189 512.60898 
L 254.796084 518.333202 
L 256.460979 433.78148 
L 258.125874 534.780525 
L 259.790769 483.172972 
L 261.455664 497.180453 
L 263.120559 560.085199 
L 264.785455 538.627906 
L 266.45035 485.543239 
L 268.115245 524.767449 
L 269.78014 541.95926 
L 271.445035 575.653428 
L 273.10993 568.00861 
L 274.774825 525.066725 
L 276.43972 536.034148 
L 278.104615 529.545126 
L 279.76951 439.938363 
L 281.434406 456.166977 
L 283.099301 498.829447 
L 284.764196 511.633039 
L 286.429091 508.44918 
L 288.093986 483.647815 
L 289.758881 486.750156 
L 291.423776 429.515731 
L 293.088671 440.40941 
L 294.753566 513.262719 
L 296.418462 499.978028 
L 298.083357 512.888645 
L 299.748252 553.371474 
L 301.413147 531.335292 
L 303.078042 496.162862 
L 304.742937 493.155215 
L 306.407832 553.234649 
L 308.072727 514.456785 
L 309.737622 514.53306 
L 311.402517 421.255123 
L 313.067413 548.252804 
L 314.732308 526.803492 
L 316.397203 476.49632 
L 318.062098 523.694895 
L 319.726993 467.944133 
L 321.391888 557.313749 
L 323.056783 493.143077 
L 324.721678 529.341234 
L 326.386573 555.163489 
L 328.051469 527.28693 
L 329.716364 476.867344 
L 331.381259 571.137093 
L 333.046154 539.639578 
L 334.711049 545.044048 
L 336.375944 475.560433 
L 338.040839 544.026469 
L 339.705734 446.554175 
L 341.370629 529.296992 
L 343.035524 554.378848 
L 344.70042 554.433537 
L 346.365315 559.869515 
L 348.03021 558.530607 
L 349.695105 570.871049 
L 351.36 565.900299 
L 353.024895 576.161488 
L 354.68979 578.235229 
L 356.354685 569.81522 
L 358.01958 521.019902 
L 359.684476 572.570787 
L 361.349371 580.670826 
L 363.014266 579.9705 
L 364.679161 524.99085 
L 366.344056 524.046981 
L 368.008951 573.983685 
L 369.673846 577.08496 
L 371.338741 582.567717 
L 373.003636 586.358746 
L 374.668531 577.721579 
L 376.333427 579.360497 
L 377.998322 579.495327 
L 379.663217 581.998815 
L 381.328112 579.397661 
L 382.993007 585.749372 
L 384.657902 584.398184 
L 386.322797 583.456002 
L 387.987692 523.757951 
L 389.652587 574.427952 
L 391.317483 524.328851 
L 392.982378 528.977953 
L 394.647273 486.617498 
L 396.312168 421.692431 
L 397.977063 447.33169 
L 399.641958 403.371336 
L 401.306853 525.340367 
L 402.971748 506.767253 
L 404.636643 459.063597 
L 406.301538 530.821637 
L 407.966434 517.033721 
L 409.631329 523.13608 
L 411.296224 500.331863 
L 412.961119 575.266203 
L 414.626014 531.918544 
L 416.290909 469.321412 
L 417.955804 580.167884 
L 419.620699 481.880756 
L 421.285594 513.951274 
L 422.95049 535.88049 
L 424.615385 494.42011 
L 426.28028 441.588868 
L 427.945175 485.846296 
L 429.61007 524.934285 
L 431.274965 475.974738 
L 432.93986 475.066461 
L 434.604755 429.526401 
L 436.26965 496.287977 
L 437.934545 471.335683 
L 439.599441 495.483534 
L 441.264336 386.262306 
L 442.929231 412.751235 
L 444.594126 491.428979 
L 446.259021 421.318522 
L 447.923916 422.786252 
L 449.588811 488.437761 
L 451.253706 429.806053 
L 452.918601 441.872147 
L 454.583497 443.587426 
L 456.248392 448.412917 
L 457.913287 400.468031 
L 459.578182 398.735548 
L 461.243077 423.461458 
L 462.907972 509.64561 
L 464.572867 530.441257 
L 466.237762 394.964774 
L 467.902657 529.066071 
L 469.567552 474.512567 
L 471.232448 550.512528 
L 472.897343 574.775676 
L 474.562238 571.929716 
L 476.227133 536.744931 
L 477.892028 341.618639 
L 479.556923 447.206966 
L 481.221818 401.86031 
L 482.886713 490.836741 
L 484.551608 565.665283 
L 486.216503 462.064861 
L 487.881399 600.410795 
L 489.546294 589.802008 
L 491.211189 446.986422 
L 492.876084 436.156312 
L 494.540979 572.396903 
L 496.205874 548.459857 
L 497.870769 536.582696 
L 499.535664 454.252618 
L 501.200559 508.27819 
L 502.865455 425.235812 
L 504.53035 593.536962 
L 506.195245 302.995976 
L 507.86014 565.01043 
L 509.525035 109.7028 
L 511.18993 533.690944 
L 512.854825 381.429496 
L 514.51972 299.162264 
L 516.184615 528.55358 
L 517.84951 375.987075 
L 519.514406 442.666202 
L 521.179301 375.762418 
L 522.844196 472.360848 
L 524.509091 434.307119 
L 526.173986 333.126321 
L 527.838881 397.900161 
L 529.503776 487.042141 
L 531.168671 540.698935 
L 532.833566 470.570396 
L 534.498462 377.989343 
L 536.163357 487.587188 
L 537.828252 471.638388 
L 539.493147 561.299546 
L 541.158042 501.512572 
L 542.822937 465.801917 
L 544.487832 457.575133 
L 546.152727 437.635349 
L 547.817622 466.218153 
L 549.482517 491.651968 
L 551.147413 410.483865 
L 552.812308 335.168571 
L 554.477203 515.569748 
L 556.142098 458.580888 
L 557.806993 510.993895 
L 559.471888 482.695471 
L 561.136783 527.549262 
L 562.801678 449.778715 
L 564.466573 550.83768 
L 566.131469 483.555332 
L 567.796364 525.68989 
L 569.461259 528.168138 
L 571.126154 496.398212 
L 572.791049 494.638299 
L 574.455944 408.834328 
L 576.120839 488.452839 
L 577.785734 474.505342 
L 579.450629 378.531126 
L 581.115524 474.139107 
L 582.78042 500.159465 
L 584.445315 545.122196 
L 586.11021 479.805587 
L 587.775105 558.200748 
L 589.44 573.088031 
L 591.104895 435.666987 
L 594.434685 541.150237 
L 596.09958 511.499931 
L 597.764476 567.138246 
L 599.429371 458.612742 
L 601.094266 540.277535 
L 602.759161 393.957151 
L 604.424056 526.411448 
L 606.088951 511.442206 
L 607.753846 444.936164 
L 609.418741 462.940393 
L 611.083636 582.506052 
L 612.748531 548.047317 
L 614.413427 547.048486 
L 616.078322 553.91373 
L 617.743217 558.930257 
L 619.408112 491.638441 
L 621.073007 506.619708 
L 622.737902 423.485068 
L 624.402797 484.669189 
L 626.067692 448.16152 
L 627.732587 528.554897 
L 629.397483 535.359326 
L 631.062378 394.632922 
L 632.727273 503.113008 
L 634.392168 535.08878 
L 636.057063 551.719951 
L 637.721958 520.544394 
L 639.386853 557.122378 
L 641.051748 548.873693 
L 642.716643 454.473236 
L 644.381538 566.313155 
L 646.046434 560.843439 
L 647.711329 518.769103 
L 649.376224 572.986849 
L 651.041119 556.623441 
L 652.706014 475.640681 
L 654.370909 553.532638 
L 656.035804 523.211872 
L 657.700699 456.520119 
L 659.365594 503.672372 
L 661.03049 559.10412 
L 662.695385 487.898342 
L 664.36028 559.060495 
L 666.025175 489.38496 
L 667.69007 500.487862 
L 669.354965 547.514653 
L 671.01986 505.820743 
L 672.684755 418.141918 
L 674.34965 482.437838 
L 676.014545 458.060848 
L 677.679441 507.370447 
L 679.344336 552.396674 
L 681.009231 546.046389 
L 682.674126 484.662234 
L 684.339021 549.976818 
L 686.003916 557.869718 
L 687.668811 538.008423 
L 689.333706 516.805322 
L 690.998601 572.602193 
L 692.663497 515.452496 
L 694.328392 501.232707 
L 695.993287 520.68975 
L 697.658182 567.933011 
L 699.323077 471.471227 
L 700.987972 470.502026 
L 702.652867 530.49643 
L 704.317762 562.828128 
L 705.982657 560.407186 
L 707.647552 550.252933 
L 709.312448 574.929862 
L 710.977343 521.662049 
L 712.642238 531.180457 
L 714.307133 554.90719 
L 715.972028 558.49337 
L 717.636923 398.718603 
L 719.301818 461.734835 
L 720.966713 414.685241 
L 722.631608 534.812391 
L 724.296503 486.366618 
L 725.961399 568.90832 
L 727.626294 525.869402 
L 729.291189 525.306866 
L 730.956084 482.492755 
L 732.620979 504.414449 
L 734.285874 456.145076 
L 735.950769 545.240706 
L 737.615664 557.088694 
L 739.280559 559.442146 
L 740.945455 571.026504 
L 742.61035 538.835442 
L 744.275245 531.742926 
L 745.94014 527.924642 
L 747.605035 533.902741 
L 749.26993 428.957584 
L 750.934825 412.270294 
L 752.59972 507.365555 
L 754.264615 554.157297 
L 755.92951 471.923607 
L 757.594406 414.065231 
L 760.924196 487.459925 
L 762.589091 541.839609 
L 764.253986 529.3655 
L 765.918881 548.950256 
L 767.583776 471.814433 
L 769.248671 515.812625 
L 770.913566 549.609058 
L 772.578462 548.157607 
L 774.243357 364.987189 
L 775.908252 551.748985 
L 777.573147 570.33781 
L 779.238042 423.505092 
L 780.902937 560.386889 
L 782.567832 536.297214 
L 784.232727 541.449103 
L 785.897622 556.668342 
L 787.562517 568.142217 
L 789.227413 541.085589 
L 790.892308 540.638786 
L 792.557203 470.968738 
L 794.222098 533.11087 
L 795.886993 574.739367 
L 797.551888 496.196045 
L 799.216783 471.318411 
L 802.546573 580.375387 
L 804.211469 572.420419 
L 805.876364 578.277367 
L 807.541259 461.121979 
L 809.206154 544.932077 
L 810.871049 527.803359 
L 812.535944 541.826577 
L 814.200839 538.614614 
L 815.865734 547.505712 
L 817.530629 540.102291 
L 819.195524 539.331822 
L 820.86042 468.792136 
L 822.525315 531.025084 
L 825.855105 355.955509 
L 827.52 555.953054 
L 829.184895 370.459896 
L 830.84979 390.731621 
L 832.514685 437.383034 
L 834.17958 403.220261 
L 835.844476 471.256278 
L 837.509371 396.063203 
L 839.174266 488.226509 
L 840.839161 525.503581 
L 842.504056 424.445299 
L 844.168951 496.570433 
L 845.833846 551.293583 
L 847.498741 533.809931 
L 849.163636 528.160979 
L 850.828531 481.925401 
L 852.493427 570.11499 
L 854.158322 410.580956 
L 855.823217 517.099119 
L 857.488112 497.46635 
L 859.153007 506.709603 
L 860.817902 569.993809 
L 862.482797 518.018633 
L 864.147692 549.126068 
L 865.812587 516.179355 
L 867.477483 561.940482 
L 869.142378 595.193964 
L 870.807273 589.117605 
L 872.472168 556.087332 
L 874.137063 574.399622 
L 875.801958 562.946737 
L 877.466853 477.352046 
L 879.131748 258.145212 
L 880.796643 560.100428 
L 882.461538 458.516807 
L 884.126434 553.512962 
L 885.791329 539.787934 
L 887.456224 445.999299 
L 889.121119 455.646613 
L 890.786014 556.068641 
L 892.450909 497.562179 
L 894.115804 494.090287 
L 895.780699 511.780274 
L 897.445594 547.254795 
L 899.11049 541.588093 
L 900.775385 551.385861 
L 902.44028 586.184422 
L 904.105175 550.83546 
L 905.77007 600.72454 
L 907.434965 468.006332 
L 909.09986 584.611152 
L 910.764755 507.757199 
L 912.42965 512.156774 
L 914.094545 564.033723 
L 915.759441 527.702759 
L 917.424336 571.282463 
L 919.089231 520.35874 
L 920.754126 568.504672 
L 922.419021 538.729389 
L 924.083916 568.576201 
L 925.748811 579.913423 
L 927.413706 554.607613 
L 929.078601 566.950148 
L 930.743497 489.647067 
L 932.408392 502.281608 
L 934.073287 474.091501 
L 935.738182 536.205403 
L 937.403077 584.701031 
L 939.067972 563.994737 
L 940.732867 462.133598 
L 942.397762 438.824423 
L 944.062657 513.963889 
L 945.727552 530.322644 
L 947.392448 533.237975 
L 949.057343 308.269838 
L 950.722238 472.555086 
L 952.387133 554.355062 
L 954.052028 545.019829 
L 955.716923 562.655066 
L 957.381818 475.318853 
L 959.046713 522.18569 
L 960.711608 487.740765 
L 962.376503 306.601648 
L 964.041399 446.020818 
L 965.706294 563.90538 
L 967.371189 439.139095 
L 969.036084 461.988444 
L 970.700979 333.663592 
L 972.365874 446.349603 
L 974.030769 457.430025 
L 975.695664 373.237684 
L 977.360559 546.544726 
L 979.025455 397.205568 
L 980.69035 466.222095 
L 982.355245 389.784587 
L 984.02014 477.167636 
L 985.685035 453.682991 
L 987.34993 459.255329 
L 989.014825 493.066771 
L 990.67972 306.126666 
L 992.344615 507.029407 
L 994.00951 555.606123 
L 995.674406 440.094513 
L 997.339301 502.740993 
L 999.004196 464.737857 
L 1000.669091 449.718072 
L 1002.333986 539.480522 
L 1003.998881 410.41078 
L 1005.663776 538.947527 
L 1007.328671 493.443645 
L 1008.993566 548.350872 
L 1010.658462 483.650591 
L 1012.323357 505.368019 
L 1013.988252 539.089447 
L 1015.653147 554.818599 
L 1017.318042 530.573174 
L 1018.982937 529.552649 
L 1020.647832 550.187037 
L 1022.312727 546.53963 
L 1023.977622 542.370419 
L 1025.642517 497.029844 
L 1027.307413 493.379166 
L 1028.972308 539.652925 
L 1030.637203 456.26331 
L 1032.302098 500.3611 
L 1033.966993 551.869307 
L 1035.631888 501.577755 
L 1037.296783 534.400501 
L 1038.961678 545.010347 
L 1040.626573 486.937186 
L 1042.291469 522.46607 
L 1043.956364 515.086922 
L 1045.621259 580.868924 
L 1047.286154 504.701019 
L 1048.951049 549.533942 
L 1050.615944 508.374846 
L 1052.280839 530.053111 
L 1053.945734 549.628139 
L 1055.610629 476.868824 
L 1057.275524 481.713946 
L 1058.94042 505.065766 
L 1060.605315 561.662165 
L 1062.27021 567.709556 
L 1063.935105 530.05634 
L 1065.6 546.765573 
L 1067.264895 528.98206 
L 1068.92979 512.925329 
L 1070.594685 528.186755 
L 1075.589371 350.040928 
L 1077.254266 458.416243 
L 1078.919161 492.53656 
L 1080.584056 546.381454 
L 1082.248951 564.394364 
L 1083.913846 508.439152 
L 1085.578741 519.075406 
L 1087.243636 553.535908 
L 1088.908531 445.682975 
L 1090.573427 490.477978 
L 1092.238322 458.738084 
L 1093.903217 405.015038 
L 1095.568112 448.442129 
L 1097.233007 471.592395 
L 1098.897902 375.462773 
L 1100.562797 516.180146 
L 1102.227692 531.397852 
L 1103.892587 518.257702 
L 1105.557483 472.594881 
L 1107.222378 440.51651 
L 1108.887273 455.58494 
L 1110.552168 397.291262 
L 1112.217063 491.85572 
L 1113.881958 516.766033 
L 1115.546853 436.587973 
L 1117.211748 363.813324 
L 1118.876643 411.728 
L 1120.541538 509.410994 
L 1122.206434 513.827076 
L 1123.871329 490.006757 
L 1125.536224 524.942341 
L 1127.201119 512.503276 
L 1128.866014 489.344815 
L 1130.530909 550.403141 
L 1132.195804 467.449555 
L 1133.860699 568.33079 
L 1135.525594 465.187247 
L 1137.19049 486.055606 
L 1138.855385 494.889897 
L 1140.52028 568.39526 
L 1142.185175 378.860063 
L 1143.85007 431.009504 
L 1145.514965 464.48912 
L 1147.17986 495.417819 
L 1148.844755 555.882424 
L 1150.50965 553.932782 
L 1152.174545 452.875045 
L 1153.839441 544.838214 
L 1155.504336 399.739306 
L 1157.169231 472.284455 
L 1158.834126 532.067497 
L 1160.499021 434.739756 
L 1162.163916 455.551264 
L 1163.828811 510.482265 
L 1165.493706 502.366046 
L 1167.158601 502.078606 
L 1168.823497 407.358808 
L 1170.488392 470.432752 
L 1172.153287 555.56198 
L 1173.818182 512.026299 
L 1175.483077 537.632343 
L 1177.147972 558.747424 
L 1178.812867 503.629246 
L 1180.477762 537.598135 
L 1182.142657 536.419174 
L 1183.807552 439.849399 
L 1185.472448 501.777016 
L 1187.137343 469.855679 
L 1188.802238 559.587873 
L 1190.467133 469.263269 
L 1192.132028 582.524465 
L 1193.796923 504.445314 
L 1195.461818 508.577542 
L 1195.461818 508.577542 
" style="fill:none;stroke:#2ca02c;stroke-linecap:square;stroke-width:0.5;"/>
   </g>
   <g id="patch_3">
    <path d="M 172.8 629.9064 
L 172.8 84.9312 
" style="fill:none;stroke:#000000;stroke-linecap:square;stroke-linejoin:miter;stroke-width:0.8;"/>
   </g>
   <g id="patch_4">
    <path d="M 1244.16 629.9064 
L 1244.16 84.9312 
" style="fill:none;stroke:#000000;stroke-linecap:square;stroke-linejoin:miter;stroke-width:0.8;"/>
   </g>
   <g id="patch_5">
    <path d="M 172.8 629.9064 
L 1244.16 629.9064 
" style="fill:none;stroke:#000000;stroke-linecap:square;stroke-linejoin:miter;stroke-width:0.8;"/>
   </g>
   <g id="patch_6">
    <path d="M 172.8 84.9312 
L 1244.16 84.9312 
" style="fill:none;stroke:#000000;stroke-linecap:square;stroke-linejoin:miter;stroke-width:0.8;"/>
   </g>
   <g id="text_14">
    <!-- NIS, 73.38% inside CI -->
    <g transform="translate(644.184375 78.9312)scale(0.12 -0.12)">
     <defs>
      <path d="M 628 4666 
L 1478 4666 
L 3547 763 
L 3547 4666 
L 4159 4666 
L 4159 0 
L 3309 0 
L 1241 3903 
L 1241 0 
L 628 0 
L 628 4666 
z
" id="DejaVuSans-4e" transform="scale(0.015625)"/>
      <path d="M 628 4666 
L 1259 4666 
L 1259 0 
L 628 0 
L 628 4666 
z
" id="DejaVuSans-49" transform="scale(0.015625)"/>
      <path d="M 3425 4513 
L 3425 3897 
Q 3066 4069 2747 4153 
Q 2428 4238 2131 4238 
Q 1616 4238 1336 4038 
Q 1056 3838 1056 3469 
Q 1056 3159 1242 3001 
Q 1428 2844 1947 2747 
L 2328 2669 
Q 3034 2534 3370 2195 
Q 3706 1856 3706 1288 
Q 3706 609 3251 259 
Q 2797 -91 1919 -91 
Q 1588 -91 1214 -16 
Q 841 59 441 206 
L 441 856 
Q 825 641 1194 531 
Q 1563 422 1919 422 
Q 2459 422 2753 634 
Q 3047 847 3047 1241 
Q 3047 1584 2836 1778 
Q 2625 1972 2144 2069 
L 1759 2144 
Q 1053 2284 737 2584 
Q 422 2884 422 3419 
Q 422 4038 858 4394 
Q 1294 4750 2059 4750 
Q 2388 4750 2728 4690 
Q 3069 4631 3425 4513 
z
" id="DejaVuSans-53" transform="scale(0.015625)"/>
      <path d="M 750 794 
L 1409 794 
L 1409 256 
L 897 -744 
L 494 -744 
L 750 256 
L 750 794 
z
" id="DejaVuSans-2c" transform="scale(0.015625)"/>
      <path id="DejaVuSans-20" transform="scale(0.015625)"/>
      <path d="M 525 4666 
L 3525 4666 
L 3525 4397 
L 1831 0 
L 1172 0 
L 2766 4134 
L 525 4134 
L 525 4666 
z
" id="DejaVuSans-37" transform="scale(0.015625)"/>
      <path d="M 684 794 
L 1344 794 
L 1344 0 
L 684 0 
L 684 794 
z
" id="DejaVuSans-2e" transform="scale(0.015625)"/>
      <path d="M 2034 2216 
Q 1584 2216 1326 1975 
Q 1069 1734 1069 1313 
Q 1069 891 1326 650 
Q 1584 409 2034 409 
Q 2484 409 2743 651 
Q 3003 894 3003 1313 
Q 3003 1734 2745 1975 
Q 2488 2216 2034 2216 
z
M 1403 2484 
Q 997 2584 770 2862 
Q 544 3141 544 3541 
Q 544 4100 942 4425 
Q 1341 4750 2034 4750 
Q 2731 4750 3128 4425 
Q 3525 4100 3525 3541 
Q 3525 3141 3298 2862 
Q 3072 2584 2669 2484 
Q 3125 2378 3379 2068 
Q 3634 1759 3634 1313 
Q 3634 634 3220 271 
Q 2806 -91 2034 -91 
Q 1263 -91 848 271 
Q 434 634 434 1313 
Q 434 1759 690 2068 
Q 947 2378 1403 2484 
z
M 1172 3481 
Q 1172 3119 1398 2916 
Q 1625 2713 2034 2713 
Q 2441 2713 2670 2916 
Q 2900 3119 2900 3481 
Q 2900 3844 2670 4047 
Q 2441 4250 2034 4250 
Q 1625 4250 1398 4047 
Q 1172 3844 1172 3481 
z
" id="DejaVuSans-38" transform="scale(0.015625)"/>
      <path d="M 4653 2053 
Q 4381 2053 4226 1822 
Q 4072 1591 4072 1178 
Q 4072 772 4226 539 
Q 4381 306 4653 306 
Q 4919 306 5073 539 
Q 5228 772 5228 1178 
Q 5228 1588 5073 1820 
Q 4919 2053 4653 2053 
z
M 4653 2450 
Q 5147 2450 5437 2106 
Q 5728 1763 5728 1178 
Q 5728 594 5436 251 
Q 5144 -91 4653 -91 
Q 4153 -91 3862 251 
Q 3572 594 3572 1178 
Q 3572 1766 3864 2108 
Q 4156 2450 4653 2450 
z
M 1428 4353 
Q 1159 4353 1004 4120 
Q 850 3888 850 3481 
Q 850 3069 1003 2837 
Q 1156 2606 1428 2606 
Q 1700 2606 1854 2837 
Q 2009 3069 2009 3481 
Q 2009 3884 1853 4118 
Q 1697 4353 1428 4353 
z
M 4250 4750 
L 4750 4750 
L 1831 -91 
L 1331 -91 
L 4250 4750 
z
M 1428 4750 
Q 1922 4750 2215 4408 
Q 2509 4066 2509 3481 
Q 2509 2891 2217 2550 
Q 1925 2209 1428 2209 
Q 931 2209 642 2551 
Q 353 2894 353 3481 
Q 353 4063 643 4406 
Q 934 4750 1428 4750 
z
" id="DejaVuSans-25" transform="scale(0.015625)"/>
      <path d="M 603 3500 
L 1178 3500 
L 1178 0 
L 603 0 
L 603 3500 
z
M 603 4863 
L 1178 4863 
L 1178 4134 
L 603 4134 
L 603 4863 
z
" id="DejaVuSans-69" transform="scale(0.015625)"/>
      <path d="M 3513 2113 
L 3513 0 
L 2938 0 
L 2938 2094 
Q 2938 2591 2744 2837 
Q 2550 3084 2163 3084 
Q 1697 3084 1428 2787 
Q 1159 2491 1159 1978 
L 1159 0 
L 581 0 
L 581 3500 
L 1159 3500 
L 1159 2956 
Q 1366 3272 1645 3428 
Q 1925 3584 2291 3584 
Q 2894 3584 3203 3211 
Q 3513 2838 3513 2113 
z
" id="DejaVuSans-6e" transform="scale(0.015625)"/>
      <path d="M 2834 3397 
L 2834 2853 
Q 2591 2978 2328 3040 
Q 2066 3103 1784 3103 
Q 1356 3103 1142 2972 
Q 928 2841 928 2578 
Q 928 2378 1081 2264 
Q 1234 2150 1697 2047 
L 1894 2003 
Q 2506 1872 2764 1633 
Q 3022 1394 3022 966 
Q 3022 478 2636 193 
Q 2250 -91 1575 -91 
Q 1294 -91 989 -36 
Q 684 19 347 128 
L 347 722 
Q 666 556 975 473 
Q 1284 391 1588 391 
Q 1994 391 2212 530 
Q 2431 669 2431 922 
Q 2431 1156 2273 1281 
Q 2116 1406 1581 1522 
L 1381 1569 
Q 847 1681 609 1914 
Q 372 2147 372 2553 
Q 372 3047 722 3315 
Q 1072 3584 1716 3584 
Q 2034 3584 2315 3537 
Q 2597 3491 2834 3397 
z
" id="DejaVuSans-73" transform="scale(0.015625)"/>
      <path d="M 2906 2969 
L 2906 4863 
L 3481 4863 
L 3481 0 
L 2906 0 
L 2906 525 
Q 2725 213 2448 61 
Q 2172 -91 1784 -91 
Q 1150 -91 751 415 
Q 353 922 353 1747 
Q 353 2572 751 3078 
Q 1150 3584 1784 3584 
Q 2172 3584 2448 3432 
Q 2725 3281 2906 2969 
z
M 947 1747 
Q 947 1113 1208 752 
Q 1469 391 1925 391 
Q 2381 391 2643 752 
Q 2906 1113 2906 1747 
Q 2906 2381 2643 2742 
Q 2381 3103 1925 3103 
Q 1469 3103 1208 2742 
Q 947 2381 947 1747 
z
" id="DejaVuSans-64" transform="scale(0.015625)"/>
      <path d="M 3597 1894 
L 3597 1613 
L 953 1613 
Q 991 1019 1311 708 
Q 1631 397 2203 397 
Q 2534 397 2845 478 
Q 3156 559 3463 722 
L 3463 178 
Q 3153 47 2828 -22 
Q 2503 -91 2169 -91 
Q 1331 -91 842 396 
Q 353 884 353 1716 
Q 353 2575 817 3079 
Q 1281 3584 2069 3584 
Q 2775 3584 3186 3129 
Q 3597 2675 3597 1894 
z
M 3022 2063 
Q 3016 2534 2758 2815 
Q 2500 3097 2075 3097 
Q 1594 3097 1305 2825 
Q 1016 2553 972 2059 
L 3022 2063 
z
" id="DejaVuSans-65" transform="scale(0.015625)"/>
      <path d="M 4122 4306 
L 4122 3641 
Q 3803 3938 3442 4084 
Q 3081 4231 2675 4231 
Q 1875 4231 1450 3742 
Q 1025 3253 1025 2328 
Q 1025 1406 1450 917 
Q 1875 428 2675 428 
Q 3081 428 3442 575 
Q 3803 722 4122 1019 
L 4122 359 
Q 3791 134 3420 21 
Q 3050 -91 2638 -91 
Q 1578 -91 968 557 
Q 359 1206 359 2328 
Q 359 3453 968 4101 
Q 1578 4750 2638 4750 
Q 3056 4750 3426 4639 
Q 3797 4528 4122 4306 
z
" id="DejaVuSans-43" transform="scale(0.015625)"/>
     </defs>
     <use xlink:href="#DejaVuSans-4e"/>
     <use x="74.804688" xlink:href="#DejaVuSans-49"/>
     <use x="104.296875" xlink:href="#DejaVuSans-53"/>
     <use x="167.773438" xlink:href="#DejaVuSans-2c"/>
     <use x="199.560547" xlink:href="#DejaVuSans-20"/>
     <use x="231.347656" xlink:href="#DejaVuSans-37"/>
     <use x="294.970703" xlink:href="#DejaVuSans-33"/>
     <use x="358.59375" xlink:href="#DejaVuSans-2e"/>
     <use x="390.380859" xlink:href="#DejaVuSans-33"/>
     <use x="454.003906" xlink:href="#DejaVuSans-38"/>
     <use x="517.626953" xlink:href="#DejaVuSans-25"/>
     <use x="612.646484" xlink:href="#DejaVuSans-20"/>
     <use x="644.433594" xlink:href="#DejaVuSans-69"/>
     <use x="672.216797" xlink:href="#DejaVuSans-6e"/>
     <use x="735.595703" xlink:href="#DejaVuSans-73"/>
     <use x="787.695312" xlink:href="#DejaVuSans-69"/>
     <use x="815.478516" xlink:href="#DejaVuSans-64"/>
     <use x="878.955078" xlink:href="#DejaVuSans-65"/>
     <use x="940.478516" xlink:href="#DejaVuSans-20"/>
     <use x="972.265625" xlink:href="#DejaVuSans-43"/>
     <use x="1042.089844" xlink:href="#DejaVuSans-49"/>
    </g>
   </g>
  </g>
 </g>
 <defs>
  <clipPath id="pde238c54f4">
   <rect height="544.9752" width="1071.36" x="172.8" y="84.9312"/>
  </clipPath>
 </defs>
</svg>
