<?xml version="1.0" encoding="utf-8" standalone="no"?>
<!DOCTYPE svg PUBLIC "-//W3C//DTD SVG 1.1//EN"
  "http://www.w3.org/Graphics/SVG/1.1/DTD/svg11.dtd">
<svg height="707.76pt" version="1.1" viewBox="0 0 1382.4 707.76" width="1382.4pt" xmlns="http://www.w3.org/2000/svg" xmlns:xlink="http://www.w3.org/1999/xlink">
 <metadata>
  <rdf:RDF xmlns:cc="http://creativecommons.org/ns#" xmlns:dc="http://purl.org/dc/elements/1.1/" xmlns:rdf="http://www.w3.org/1999/02/22-rdf-syntax-ns#">
   <cc:Work>
    <dc:type rdf:resource="http://purl.org/dc/dcmitype/StillImage"/>
    <dc:date>2021-11-18T16:59:10.142601</dc:date>
    <dc:format>image/svg+xml</dc:format>
    <dc:creator>
     <cc:Agent>
      <dc:title>Matplotlib v3.4.3, https://matplotlib.org/</dc:title>
     </cc:Agent>
    </dc:creator>
   </cc:Work>
  </rdf:RDF>
 </metadata>
 <defs>
  <style type="text/css">*{stroke-linecap:butt;stroke-linejoin:round;}</style>
 </defs>
 <g id="figure_1">
  <g id="patch_1">
   <path d="M 0 707.76 
L 1382.4 707.76 
L 1382.4 0 
L 0 0 
z
" style="fill:#ffffff;"/>
  </g>
  <g id="axes_1">
   <g id="patch_2">
    <path d="M 172.8 629.9064 
L 1244.16 629.9064 
L 1244.16 84.9312 
L 172.8 84.9312 
z
" style="fill:#ffffff;"/>
   </g>
   <g id="matplotlib.axis_1">
    <g id="xtick_1">
     <g id="line2d_1">
      <path clip-path="url(#pb538f4646f)" d="M 221.498182 629.9064 
L 221.498182 84.9312 
" style="fill:none;stroke:#000000;stroke-dasharray:0.5,0.825;stroke-dashoffset:0;stroke-opacity:0.5;stroke-width:0.5;"/>
     </g>
     <g id="line2d_2">
      <defs>
       <path d="M 0 0 
L 0 3.5 
" id="mdd0b3cd747" style="stroke:#000000;stroke-width:0.8;"/>
      </defs>
      <g>
       <use style="stroke:#000000;stroke-width:0.8;" x="221.498182" xlink:href="#mdd0b3cd747" y="629.9064"/>
      </g>
     </g>
     <g id="text_1">
      <!-- 0 -->
      <g transform="translate(218.316932 644.504838)scale(0.1 -0.1)">
       <defs>
        <path d="M 2034 4250 
Q 1547 4250 1301 3770 
Q 1056 3291 1056 2328 
Q 1056 1369 1301 889 
Q 1547 409 2034 409 
Q 2525 409 2770 889 
Q 3016 1369 3016 2328 
Q 3016 3291 2770 3770 
Q 2525 4250 2034 4250 
z
M 2034 4750 
Q 2819 4750 3233 4129 
Q 3647 3509 3647 2328 
Q 3647 1150 3233 529 
Q 2819 -91 2034 -91 
Q 1250 -91 836 529 
Q 422 1150 422 2328 
Q 422 3509 836 4129 
Q 1250 4750 2034 4750 
z
" id="DejaVuSans-30" transform="scale(0.015625)"/>
       </defs>
       <use xlink:href="#DejaVuSans-30"/>
      </g>
     </g>
    </g>
    <g id="xtick_2">
     <g id="line2d_3">
      <path clip-path="url(#pb538f4646f)" d="M 387.987692 629.9064 
L 387.987692 84.9312 
" style="fill:none;stroke:#000000;stroke-dasharray:0.5,0.825;stroke-dashoffset:0;stroke-opacity:0.5;stroke-width:0.5;"/>
     </g>
     <g id="line2d_4">
      <g>
       <use style="stroke:#000000;stroke-width:0.8;" x="387.987692" xlink:href="#mdd0b3cd747" y="629.9064"/>
      </g>
     </g>
     <g id="text_2">
      <!-- 100 -->
      <g transform="translate(378.443942 644.504838)scale(0.1 -0.1)">
       <defs>
        <path d="M 794 531 
L 1825 531 
L 1825 4091 
L 703 3866 
L 703 4441 
L 1819 4666 
L 2450 4666 
L 2450 531 
L 3481 531 
L 3481 0 
L 794 0 
L 794 531 
z
" id="DejaVuSans-31" transform="scale(0.015625)"/>
       </defs>
       <use xlink:href="#DejaVuSans-31"/>
       <use x="63.623047" xlink:href="#DejaVuSans-30"/>
       <use x="127.246094" xlink:href="#DejaVuSans-30"/>
      </g>
     </g>
    </g>
    <g id="xtick_3">
     <g id="line2d_5">
      <path clip-path="url(#pb538f4646f)" d="M 554.477203 629.9064 
L 554.477203 84.9312 
" style="fill:none;stroke:#000000;stroke-dasharray:0.5,0.825;stroke-dashoffset:0;stroke-opacity:0.5;stroke-width:0.5;"/>
     </g>
     <g id="line2d_6">
      <g>
       <use style="stroke:#000000;stroke-width:0.8;" x="554.477203" xlink:href="#mdd0b3cd747" y="629.9064"/>
      </g>
     </g>
     <g id="text_3">
      <!-- 200 -->
      <g transform="translate(544.933453 644.504838)scale(0.1 -0.1)">
       <defs>
        <path d="M 1228 531 
L 3431 531 
L 3431 0 
L 469 0 
L 469 531 
Q 828 903 1448 1529 
Q 2069 2156 2228 2338 
Q 2531 2678 2651 2914 
Q 2772 3150 2772 3378 
Q 2772 3750 2511 3984 
Q 2250 4219 1831 4219 
Q 1534 4219 1204 4116 
Q 875 4013 500 3803 
L 500 4441 
Q 881 4594 1212 4672 
Q 1544 4750 1819 4750 
Q 2544 4750 2975 4387 
Q 3406 4025 3406 3419 
Q 3406 3131 3298 2873 
Q 3191 2616 2906 2266 
Q 2828 2175 2409 1742 
Q 1991 1309 1228 531 
z
" id="DejaVuSans-32" transform="scale(0.015625)"/>
       </defs>
       <use xlink:href="#DejaVuSans-32"/>
       <use x="63.623047" xlink:href="#DejaVuSans-30"/>
       <use x="127.246094" xlink:href="#DejaVuSans-30"/>
      </g>
     </g>
    </g>
    <g id="xtick_4">
     <g id="line2d_7">
      <path clip-path="url(#pb538f4646f)" d="M 720.966713 629.9064 
L 720.966713 84.9312 
" style="fill:none;stroke:#000000;stroke-dasharray:0.5,0.825;stroke-dashoffset:0;stroke-opacity:0.5;stroke-width:0.5;"/>
     </g>
     <g id="line2d_8">
      <g>
       <use style="stroke:#000000;stroke-width:0.8;" x="720.966713" xlink:href="#mdd0b3cd747" y="629.9064"/>
      </g>
     </g>
     <g id="text_4">
      <!-- 300 -->
      <g transform="translate(711.422963 644.504838)scale(0.1 -0.1)">
       <defs>
        <path d="M 2597 2516 
Q 3050 2419 3304 2112 
Q 3559 1806 3559 1356 
Q 3559 666 3084 287 
Q 2609 -91 1734 -91 
Q 1441 -91 1130 -33 
Q 819 25 488 141 
L 488 750 
Q 750 597 1062 519 
Q 1375 441 1716 441 
Q 2309 441 2620 675 
Q 2931 909 2931 1356 
Q 2931 1769 2642 2001 
Q 2353 2234 1838 2234 
L 1294 2234 
L 1294 2753 
L 1863 2753 
Q 2328 2753 2575 2939 
Q 2822 3125 2822 3475 
Q 2822 3834 2567 4026 
Q 2313 4219 1838 4219 
Q 1578 4219 1281 4162 
Q 984 4106 628 3988 
L 628 4550 
Q 988 4650 1302 4700 
Q 1616 4750 1894 4750 
Q 2613 4750 3031 4423 
Q 3450 4097 3450 3541 
Q 3450 3153 3228 2886 
Q 3006 2619 2597 2516 
z
" id="DejaVuSans-33" transform="scale(0.015625)"/>
       </defs>
       <use xlink:href="#DejaVuSans-33"/>
       <use x="63.623047" xlink:href="#DejaVuSans-30"/>
       <use x="127.246094" xlink:href="#DejaVuSans-30"/>
      </g>
     </g>
    </g>
    <g id="xtick_5">
     <g id="line2d_9">
      <path clip-path="url(#pb538f4646f)" d="M 887.456224 629.9064 
L 887.456224 84.9312 
" style="fill:none;stroke:#000000;stroke-dasharray:0.5,0.825;stroke-dashoffset:0;stroke-opacity:0.5;stroke-width:0.5;"/>
     </g>
     <g id="line2d_10">
      <g>
       <use style="stroke:#000000;stroke-width:0.8;" x="887.456224" xlink:href="#mdd0b3cd747" y="629.9064"/>
      </g>
     </g>
     <g id="text_5">
      <!-- 400 -->
      <g transform="translate(877.912474 644.504838)scale(0.1 -0.1)">
       <defs>
        <path d="M 2419 4116 
L 825 1625 
L 2419 1625 
L 2419 4116 
z
M 2253 4666 
L 3047 4666 
L 3047 1625 
L 3713 1625 
L 3713 1100 
L 3047 1100 
L 3047 0 
L 2419 0 
L 2419 1100 
L 313 1100 
L 313 1709 
L 2253 4666 
z
" id="DejaVuSans-34" transform="scale(0.015625)"/>
       </defs>
       <use xlink:href="#DejaVuSans-34"/>
       <use x="63.623047" xlink:href="#DejaVuSans-30"/>
       <use x="127.246094" xlink:href="#DejaVuSans-30"/>
      </g>
     </g>
    </g>
    <g id="xtick_6">
     <g id="line2d_11">
      <path clip-path="url(#pb538f4646f)" d="M 1053.945734 629.9064 
L 1053.945734 84.9312 
" style="fill:none;stroke:#000000;stroke-dasharray:0.5,0.825;stroke-dashoffset:0;stroke-opacity:0.5;stroke-width:0.5;"/>
     </g>
     <g id="line2d_12">
      <g>
       <use style="stroke:#000000;stroke-width:0.8;" x="1053.945734" xlink:href="#mdd0b3cd747" y="629.9064"/>
      </g>
     </g>
     <g id="text_6">
      <!-- 500 -->
      <g transform="translate(1044.401984 644.504838)scale(0.1 -0.1)">
       <defs>
        <path d="M 691 4666 
L 3169 4666 
L 3169 4134 
L 1269 4134 
L 1269 2991 
Q 1406 3038 1543 3061 
Q 1681 3084 1819 3084 
Q 2600 3084 3056 2656 
Q 3513 2228 3513 1497 
Q 3513 744 3044 326 
Q 2575 -91 1722 -91 
Q 1428 -91 1123 -41 
Q 819 9 494 109 
L 494 744 
Q 775 591 1075 516 
Q 1375 441 1709 441 
Q 2250 441 2565 725 
Q 2881 1009 2881 1497 
Q 2881 1984 2565 2268 
Q 2250 2553 1709 2553 
Q 1456 2553 1204 2497 
Q 953 2441 691 2322 
L 691 4666 
z
" id="DejaVuSans-35" transform="scale(0.015625)"/>
       </defs>
       <use xlink:href="#DejaVuSans-35"/>
       <use x="63.623047" xlink:href="#DejaVuSans-30"/>
       <use x="127.246094" xlink:href="#DejaVuSans-30"/>
      </g>
     </g>
    </g>
    <g id="xtick_7">
     <g id="line2d_13">
      <path clip-path="url(#pb538f4646f)" d="M 1220.435245 629.9064 
L 1220.435245 84.9312 
" style="fill:none;stroke:#000000;stroke-dasharray:0.5,0.825;stroke-dashoffset:0;stroke-opacity:0.5;stroke-width:0.5;"/>
     </g>
     <g id="line2d_14">
      <g>
       <use style="stroke:#000000;stroke-width:0.8;" x="1220.435245" xlink:href="#mdd0b3cd747" y="629.9064"/>
      </g>
     </g>
     <g id="text_7">
      <!-- 600 -->
      <g transform="translate(1210.891495 644.504838)scale(0.1 -0.1)">
       <defs>
        <path d="M 2113 2584 
Q 1688 2584 1439 2293 
Q 1191 2003 1191 1497 
Q 1191 994 1439 701 
Q 1688 409 2113 409 
Q 2538 409 2786 701 
Q 3034 994 3034 1497 
Q 3034 2003 2786 2293 
Q 2538 2584 2113 2584 
z
M 3366 4563 
L 3366 3988 
Q 3128 4100 2886 4159 
Q 2644 4219 2406 4219 
Q 1781 4219 1451 3797 
Q 1122 3375 1075 2522 
Q 1259 2794 1537 2939 
Q 1816 3084 2150 3084 
Q 2853 3084 3261 2657 
Q 3669 2231 3669 1497 
Q 3669 778 3244 343 
Q 2819 -91 2113 -91 
Q 1303 -91 875 529 
Q 447 1150 447 2328 
Q 447 3434 972 4092 
Q 1497 4750 2381 4750 
Q 2619 4750 2861 4703 
Q 3103 4656 3366 4563 
z
" id="DejaVuSans-36" transform="scale(0.015625)"/>
       </defs>
       <use xlink:href="#DejaVuSans-36"/>
       <use x="63.623047" xlink:href="#DejaVuSans-30"/>
       <use x="127.246094" xlink:href="#DejaVuSans-30"/>
      </g>
     </g>
    </g>
   </g>
   <g id="matplotlib.axis_2">
    <g id="ytick_1">
     <g id="line2d_15">
      <path clip-path="url(#pb538f4646f)" d="M 172.8 605.1348 
L 1244.16 605.1348 
" style="fill:none;stroke:#000000;stroke-dasharray:0.5,0.825;stroke-dashoffset:0;stroke-opacity:0.5;stroke-width:0.5;"/>
     </g>
     <g id="line2d_16">
      <defs>
       <path d="M 0 0 
L -3.5 0 
" id="m88ffb7d673" style="stroke:#000000;stroke-width:0.8;"/>
      </defs>
      <g>
       <use style="stroke:#000000;stroke-width:0.8;" x="172.8" xlink:href="#m88ffb7d673" y="605.1348"/>
      </g>
     </g>
     <g id="text_8">
      <!-- 0.0 -->
      <g transform="translate(149.896875 608.934019)scale(0.1 -0.1)">
       <defs>
        <path d="M 684 794 
L 1344 794 
L 1344 0 
L 684 0 
L 684 794 
z
" id="DejaVuSans-2e" transform="scale(0.015625)"/>
       </defs>
       <use xlink:href="#DejaVuSans-30"/>
       <use x="63.623047" xlink:href="#DejaVuSans-2e"/>
       <use x="95.410156" xlink:href="#DejaVuSans-30"/>
      </g>
     </g>
    </g>
    <g id="ytick_2">
     <g id="line2d_17">
      <path clip-path="url(#pb538f4646f)" d="M 172.8 537.982701 
L 1244.16 537.982701 
" style="fill:none;stroke:#000000;stroke-dasharray:0.5,0.825;stroke-dashoffset:0;stroke-opacity:0.5;stroke-width:0.5;"/>
     </g>
     <g id="line2d_18">
      <g>
       <use style="stroke:#000000;stroke-width:0.8;" x="172.8" xlink:href="#m88ffb7d673" y="537.982701"/>
      </g>
     </g>
     <g id="text_9">
      <!-- 0.5 -->
      <g transform="translate(149.896875 541.781919)scale(0.1 -0.1)">
       <use xlink:href="#DejaVuSans-30"/>
       <use x="63.623047" xlink:href="#DejaVuSans-2e"/>
       <use x="95.410156" xlink:href="#DejaVuSans-35"/>
      </g>
     </g>
    </g>
    <g id="ytick_3">
     <g id="line2d_19">
      <path clip-path="url(#pb538f4646f)" d="M 172.8 470.830601 
L 1244.16 470.830601 
" style="fill:none;stroke:#000000;stroke-dasharray:0.5,0.825;stroke-dashoffset:0;stroke-opacity:0.5;stroke-width:0.5;"/>
     </g>
     <g id="line2d_20">
      <g>
       <use style="stroke:#000000;stroke-width:0.8;" x="172.8" xlink:href="#m88ffb7d673" y="470.830601"/>
      </g>
     </g>
     <g id="text_10">
      <!-- 1.0 -->
      <g transform="translate(149.896875 474.62982)scale(0.1 -0.1)">
       <use xlink:href="#DejaVuSans-31"/>
       <use x="63.623047" xlink:href="#DejaVuSans-2e"/>
       <use x="95.410156" xlink:href="#DejaVuSans-30"/>
      </g>
     </g>
    </g>
    <g id="ytick_4">
     <g id="line2d_21">
      <path clip-path="url(#pb538f4646f)" d="M 172.8 403.678502 
L 1244.16 403.678502 
" style="fill:none;stroke:#000000;stroke-dasharray:0.5,0.825;stroke-dashoffset:0;stroke-opacity:0.5;stroke-width:0.5;"/>
     </g>
     <g id="line2d_22">
      <g>
       <use style="stroke:#000000;stroke-width:0.8;" x="172.8" xlink:href="#m88ffb7d673" y="403.678502"/>
      </g>
     </g>
     <g id="text_11">
      <!-- 1.5 -->
      <g transform="translate(149.896875 407.47772)scale(0.1 -0.1)">
       <use xlink:href="#DejaVuSans-31"/>
       <use x="63.623047" xlink:href="#DejaVuSans-2e"/>
       <use x="95.410156" xlink:href="#DejaVuSans-35"/>
      </g>
     </g>
    </g>
    <g id="ytick_5">
     <g id="line2d_23">
      <path clip-path="url(#pb538f4646f)" d="M 172.8 336.526402 
L 1244.16 336.526402 
" style="fill:none;stroke:#000000;stroke-dasharray:0.5,0.825;stroke-dashoffset:0;stroke-opacity:0.5;stroke-width:0.5;"/>
     </g>
     <g id="line2d_24">
      <g>
       <use style="stroke:#000000;stroke-width:0.8;" x="172.8" xlink:href="#m88ffb7d673" y="336.526402"/>
      </g>
     </g>
     <g id="text_12">
      <!-- 2.0 -->
      <g transform="translate(149.896875 340.325621)scale(0.1 -0.1)">
       <use xlink:href="#DejaVuSans-32"/>
       <use x="63.623047" xlink:href="#DejaVuSans-2e"/>
       <use x="95.410156" xlink:href="#DejaVuSans-30"/>
      </g>
     </g>
    </g>
    <g id="ytick_6">
     <g id="line2d_25">
      <path clip-path="url(#pb538f4646f)" d="M 172.8 269.374303 
L 1244.16 269.374303 
" style="fill:none;stroke:#000000;stroke-dasharray:0.5,0.825;stroke-dashoffset:0;stroke-opacity:0.5;stroke-width:0.5;"/>
     </g>
     <g id="line2d_26">
      <g>
       <use style="stroke:#000000;stroke-width:0.8;" x="172.8" xlink:href="#m88ffb7d673" y="269.374303"/>
      </g>
     </g>
     <g id="text_13">
      <!-- 2.5 -->
      <g transform="translate(149.896875 273.173521)scale(0.1 -0.1)">
       <use xlink:href="#DejaVuSans-32"/>
       <use x="63.623047" xlink:href="#DejaVuSans-2e"/>
       <use x="95.410156" xlink:href="#DejaVuSans-35"/>
      </g>
     </g>
    </g>
    <g id="ytick_7">
     <g id="line2d_27">
      <path clip-path="url(#pb538f4646f)" d="M 172.8 202.222203 
L 1244.16 202.222203 
" style="fill:none;stroke:#000000;stroke-dasharray:0.5,0.825;stroke-dashoffset:0;stroke-opacity:0.5;stroke-width:0.5;"/>
     </g>
     <g id="line2d_28">
      <g>
       <use style="stroke:#000000;stroke-width:0.8;" x="172.8" xlink:href="#m88ffb7d673" y="202.222203"/>
      </g>
     </g>
     <g id="text_14">
      <!-- 3.0 -->
      <g transform="translate(149.896875 206.021422)scale(0.1 -0.1)">
       <use xlink:href="#DejaVuSans-33"/>
       <use x="63.623047" xlink:href="#DejaVuSans-2e"/>
       <use x="95.410156" xlink:href="#DejaVuSans-30"/>
      </g>
     </g>
    </g>
    <g id="ytick_8">
     <g id="line2d_29">
      <path clip-path="url(#pb538f4646f)" d="M 172.8 135.070104 
L 1244.16 135.070104 
" style="fill:none;stroke:#000000;stroke-dasharray:0.5,0.825;stroke-dashoffset:0;stroke-opacity:0.5;stroke-width:0.5;"/>
     </g>
     <g id="line2d_30">
      <g>
       <use style="stroke:#000000;stroke-width:0.8;" x="172.8" xlink:href="#m88ffb7d673" y="135.070104"/>
      </g>
     </g>
     <g id="text_15">
      <!-- 3.5 -->
      <g transform="translate(149.896875 138.869323)scale(0.1 -0.1)">
       <use xlink:href="#DejaVuSans-33"/>
       <use x="63.623047" xlink:href="#DejaVuSans-2e"/>
       <use x="95.410156" xlink:href="#DejaVuSans-35"/>
      </g>
     </g>
    </g>
   </g>
   <g id="line2d_31">
    <path clip-path="url(#pb538f4646f)" d="M 221.498182 605.1348 
L 223.163077 470.830601 
L 224.827972 547.15178 
L 231.487552 547.15178 
L 233.152448 551.137546 
L 234.817343 547.15178 
L 238.147133 547.15178 
L 239.812028 543.722368 
L 241.476923 543.722368 
L 243.141818 547.15178 
L 244.806713 547.15178 
L 246.471608 540.730716 
L 248.136503 547.15178 
L 249.801399 555.847526 
L 251.466294 543.722368 
L 253.131189 555.847526 
L 254.796084 547.15178 
L 256.460979 551.137546 
L 258.125874 555.847526 
L 259.790769 543.722368 
L 261.455664 543.722368 
L 263.120559 547.15178 
L 264.785455 543.722368 
L 266.45035 547.15178 
L 268.115245 543.722368 
L 269.78014 543.722368 
L 271.445035 555.847526 
L 273.10993 543.722368 
L 274.774825 547.15178 
L 278.104615 547.15178 
L 279.76951 551.137546 
L 281.434406 555.847526 
L 284.764196 538.090628 
L 286.429091 540.730716 
L 288.093986 547.15178 
L 289.758881 540.730716 
L 293.088671 540.730716 
L 294.753566 543.722368 
L 296.418462 547.15178 
L 298.083357 538.090628 
L 299.748252 543.722368 
L 301.413147 538.090628 
L 303.078042 543.722368 
L 304.742937 535.737861 
L 306.407832 533.62347 
L 308.072727 535.737861 
L 309.737622 535.737861 
L 311.402517 540.730716 
L 313.067413 535.737861 
L 316.397203 535.737861 
L 318.062098 533.62347 
L 319.726993 538.090628 
L 321.391888 533.62347 
L 323.056783 533.62347 
L 324.721678 535.737861 
L 326.386573 535.737861 
L 328.051469 533.62347 
L 329.716364 533.62347 
L 331.381259 540.730716 
L 333.046154 540.730716 
L 334.711049 538.090628 
L 336.375944 535.737861 
L 338.040839 538.090628 
L 339.705734 535.737861 
L 341.370629 535.737861 
L 343.035524 533.62347 
L 344.70042 533.62347 
L 346.365315 535.737861 
L 353.024895 535.737861 
L 354.68979 533.62347 
L 356.354685 535.737861 
L 358.01958 533.62347 
L 359.684476 533.62347 
L 361.349371 531.709445 
L 363.014266 533.62347 
L 364.679161 533.62347 
L 366.344056 535.737861 
L 368.008951 533.62347 
L 369.673846 535.737861 
L 371.338741 531.709445 
L 373.003636 533.62347 
L 374.668531 533.62347 
L 376.333427 535.737861 
L 377.998322 533.62347 
L 379.663217 533.62347 
L 381.328112 531.709445 
L 382.993007 531.709445 
L 384.657902 533.62347 
L 389.652587 533.62347 
L 391.317483 535.737861 
L 392.982378 538.090628 
L 394.647273 538.090628 
L 396.312168 540.730716 
L 397.977063 535.737861 
L 399.641958 535.737861 
L 401.306853 540.730716 
L 402.971748 540.730716 
L 404.636643 529.965759 
L 406.301538 535.737861 
L 407.966434 535.737861 
L 409.631329 533.62347 
L 411.296224 540.730716 
L 412.961119 540.730716 
L 414.626014 538.090628 
L 416.290909 543.722368 
L 417.955804 540.730716 
L 419.620699 538.090628 
L 421.285594 547.15178 
L 422.95049 543.722368 
L 424.615385 535.737861 
L 427.945175 535.737861 
L 429.61007 543.722368 
L 431.274965 543.722368 
L 432.93986 538.090628 
L 434.604755 543.722368 
L 436.26965 538.090628 
L 437.934545 538.090628 
L 439.599441 540.730716 
L 441.264336 551.137546 
L 442.929231 533.62347 
L 444.594126 543.722368 
L 446.259021 540.730716 
L 447.923916 551.137546 
L 449.588811 547.15178 
L 451.253706 551.137546 
L 452.918601 543.722368 
L 454.583497 535.737861 
L 456.248392 538.090628 
L 457.913287 547.15178 
L 459.578182 535.737861 
L 461.243077 547.15178 
L 462.907972 538.090628 
L 464.572867 551.137546 
L 467.902657 551.137546 
L 469.567552 555.847526 
L 471.232448 551.137546 
L 472.897343 568.541426 
L 474.562238 568.541426 
L 476.227133 555.847526 
L 477.892028 555.847526 
L 479.556923 568.541426 
L 481.221818 551.137546 
L 482.886713 551.137546 
L 484.551608 547.15178 
L 487.881399 588.869938 
L 489.546294 568.541426 
L 492.876084 568.541426 
L 494.540979 561.526592 
L 497.870769 561.526592 
L 499.535664 547.15178 
L 501.200559 561.526592 
L 502.865455 555.847526 
L 504.53035 601.734512 
L 506.195245 568.541426 
L 507.86014 577.438045 
L 509.525035 588.869938 
L 511.18993 561.526592 
L 512.854825 561.526592 
L 514.51972 568.541426 
L 516.184615 568.541426 
L 517.84951 577.438045 
L 519.514406 568.541426 
L 521.179301 555.847526 
L 522.844196 555.847526 
L 524.509091 568.541426 
L 526.173986 577.438045 
L 527.838881 555.847526 
L 539.493147 555.847526 
L 541.158042 543.722368 
L 542.822937 540.730716 
L 544.487832 547.15178 
L 546.152727 551.137546 
L 547.817622 543.722368 
L 549.482517 540.730716 
L 551.147413 540.730716 
L 552.812308 547.15178 
L 556.142098 547.15178 
L 557.806993 543.722368 
L 559.471888 538.090628 
L 561.136783 547.15178 
L 562.801678 551.137546 
L 564.466573 543.722368 
L 566.131469 547.15178 
L 567.796364 543.722368 
L 569.461259 540.730716 
L 571.126154 540.730716 
L 572.791049 547.15178 
L 574.455944 543.722368 
L 576.120839 538.090628 
L 579.450629 538.090628 
L 581.115524 543.722368 
L 582.78042 540.730716 
L 584.445315 540.730716 
L 586.11021 543.722368 
L 587.775105 551.137546 
L 589.44 547.15178 
L 591.104895 540.730716 
L 592.76979 547.15178 
L 594.434685 540.730716 
L 596.09958 547.15178 
L 597.764476 551.137546 
L 602.759161 551.137546 
L 604.424056 555.847526 
L 606.088951 547.15178 
L 607.753846 555.847526 
L 609.418741 551.137546 
L 611.083636 561.526592 
L 612.748531 555.847526 
L 614.413427 551.137546 
L 616.078322 555.847526 
L 617.743217 555.847526 
L 619.408112 568.541426 
L 621.073007 561.526592 
L 622.737902 561.526592 
L 624.402797 547.15178 
L 626.067692 555.847526 
L 627.732587 551.137546 
L 629.397483 555.847526 
L 631.062378 547.15178 
L 632.727273 547.15178 
L 634.392168 561.526592 
L 636.057063 577.438045 
L 637.721958 551.137546 
L 639.386853 568.541426 
L 641.051748 561.526592 
L 642.716643 568.541426 
L 644.381538 555.847526 
L 646.046434 561.526592 
L 647.711329 547.15178 
L 649.376224 551.137546 
L 651.041119 555.847526 
L 652.706014 551.137546 
L 654.370909 551.137546 
L 656.035804 555.847526 
L 657.700699 543.722368 
L 659.365594 543.722368 
L 661.03049 547.15178 
L 662.695385 547.15178 
L 664.36028 538.090628 
L 666.025175 540.730716 
L 667.69007 551.137546 
L 671.01986 551.137546 
L 672.684755 547.15178 
L 674.34965 551.137546 
L 676.014545 547.15178 
L 677.679441 551.137546 
L 679.344336 547.15178 
L 681.009231 547.15178 
L 682.674126 543.722368 
L 684.339021 540.730716 
L 686.003916 547.15178 
L 687.668811 538.090628 
L 689.333706 540.730716 
L 690.998601 543.722368 
L 692.663497 538.090628 
L 694.328392 540.730716 
L 695.993287 540.730716 
L 697.658182 538.090628 
L 699.323077 547.15178 
L 700.987972 540.730716 
L 702.652867 535.737861 
L 704.317762 540.730716 
L 705.982657 535.737861 
L 707.647552 535.737861 
L 709.312448 540.730716 
L 710.977343 543.722368 
L 712.642238 547.15178 
L 714.307133 540.730716 
L 717.636923 540.730716 
L 719.301818 535.737861 
L 720.966713 540.730716 
L 722.631608 533.62347 
L 724.296503 540.730716 
L 725.961399 533.62347 
L 727.626294 535.737861 
L 732.620979 535.737861 
L 734.285874 540.730716 
L 735.950769 538.090628 
L 737.615664 551.137546 
L 739.280559 543.722368 
L 740.945455 535.737861 
L 742.61035 538.090628 
L 744.275245 535.737861 
L 745.94014 543.722368 
L 747.605035 543.722368 
L 749.26993 533.62347 
L 750.934825 543.722368 
L 752.59972 538.090628 
L 754.264615 540.730716 
L 755.92951 543.722368 
L 757.594406 540.730716 
L 759.259301 538.090628 
L 760.924196 535.737861 
L 764.253986 535.737861 
L 765.918881 547.15178 
L 767.583776 540.730716 
L 769.248671 538.090628 
L 770.913566 540.730716 
L 772.578462 535.737861 
L 774.243357 543.722368 
L 775.908252 540.730716 
L 777.573147 547.15178 
L 779.238042 555.847526 
L 780.902937 540.730716 
L 782.567832 543.722368 
L 784.232727 543.722368 
L 785.897622 547.15178 
L 787.562517 543.722368 
L 789.227413 543.722368 
L 790.892308 547.15178 
L 792.557203 543.722368 
L 794.222098 543.722368 
L 795.886993 540.730716 
L 797.551888 538.090628 
L 799.216783 538.090628 
L 800.881678 540.730716 
L 802.546573 540.730716 
L 804.211469 543.722368 
L 805.876364 543.722368 
L 807.541259 551.137546 
L 809.206154 547.15178 
L 810.871049 540.730716 
L 812.535944 538.090628 
L 814.200839 540.730716 
L 815.865734 540.730716 
L 817.530629 538.090628 
L 819.195524 535.737861 
L 820.86042 543.722368 
L 822.525315 543.722368 
L 824.19021 540.730716 
L 825.855105 547.15178 
L 827.52 547.15178 
L 829.184895 543.722368 
L 830.84979 547.15178 
L 832.514685 547.15178 
L 834.17958 551.137546 
L 835.844476 547.15178 
L 837.509371 551.137546 
L 839.174266 543.722368 
L 840.839161 543.722368 
L 842.504056 538.090628 
L 844.168951 543.722368 
L 845.833846 540.730716 
L 847.498741 535.737861 
L 849.163636 540.730716 
L 850.828531 547.15178 
L 852.493427 547.15178 
L 854.158322 555.847526 
L 855.823217 540.730716 
L 857.488112 540.730716 
L 859.153007 543.722368 
L 860.817902 555.847526 
L 865.812587 555.847526 
L 867.477483 577.438045 
L 870.807273 577.438045 
L 872.472168 568.541426 
L 874.137063 568.541426 
L 875.801958 577.438045 
L 877.466853 577.438045 
L 879.131748 568.541426 
L 880.796643 577.438045 
L 882.461538 577.438045 
L 884.126434 588.869938 
L 885.791329 551.137546 
L 887.456224 568.541426 
L 889.121119 547.15178 
L 890.786014 555.847526 
L 894.115804 555.847526 
L 895.780699 551.137546 
L 897.445594 555.847526 
L 899.11049 561.526592 
L 900.775385 547.15178 
L 902.44028 551.137546 
L 904.105175 547.15178 
L 905.77007 551.137546 
L 907.434965 555.847526 
L 909.09986 551.137546 
L 910.764755 555.847526 
L 912.42965 561.526592 
L 914.094545 561.526592 
L 915.759441 555.847526 
L 917.424336 555.847526 
L 919.089231 568.541426 
L 920.754126 577.438045 
L 922.419021 577.438045 
L 924.083916 568.541426 
L 925.748811 577.438045 
L 927.413706 568.541426 
L 930.743497 568.541426 
L 932.408392 577.438045 
L 934.073287 561.526592 
L 937.403077 561.526592 
L 939.067972 577.438045 
L 940.732867 568.541426 
L 942.397762 577.438045 
L 944.062657 568.541426 
L 945.727552 561.526592 
L 947.392448 568.541426 
L 949.057343 577.438045 
L 950.722238 568.541426 
L 957.381818 568.541426 
L 959.046713 577.438045 
L 960.711608 555.847526 
L 962.376503 577.438045 
L 964.041399 561.526592 
L 965.706294 561.526592 
L 967.371189 555.847526 
L 969.036084 577.438045 
L 970.700979 551.137546 
L 972.365874 561.526592 
L 974.030769 561.526592 
L 975.695664 551.137546 
L 977.360559 551.137546 
L 979.025455 547.15178 
L 980.69035 561.526592 
L 982.355245 561.526592 
L 984.02014 543.722368 
L 985.685035 551.137546 
L 987.34993 547.15178 
L 989.014825 555.847526 
L 990.67972 555.847526 
L 992.344615 547.15178 
L 994.00951 568.541426 
L 995.674406 551.137546 
L 997.339301 555.847526 
L 999.004196 551.137546 
L 1000.669091 555.847526 
L 1002.333986 543.722368 
L 1003.998881 551.137546 
L 1005.663776 555.847526 
L 1007.328671 547.15178 
L 1008.993566 543.722368 
L 1010.658462 538.090628 
L 1012.323357 547.15178 
L 1013.988252 538.090628 
L 1015.653147 547.15178 
L 1017.318042 540.730716 
L 1018.982937 543.722368 
L 1020.647832 543.722368 
L 1022.312727 547.15178 
L 1023.977622 543.722368 
L 1025.642517 547.15178 
L 1027.307413 538.090628 
L 1028.972308 540.730716 
L 1030.637203 547.15178 
L 1032.302098 561.526592 
L 1033.966993 555.847526 
L 1035.631888 543.722368 
L 1037.296783 543.722368 
L 1038.961678 551.137546 
L 1042.291469 551.137546 
L 1043.956364 543.722368 
L 1045.621259 555.847526 
L 1047.286154 540.730716 
L 1048.951049 543.722368 
L 1050.615944 543.722368 
L 1052.280839 538.090628 
L 1053.945734 551.137546 
L 1055.610629 561.526592 
L 1057.275524 551.137546 
L 1058.94042 547.15178 
L 1060.605315 543.722368 
L 1062.27021 561.526592 
L 1063.935105 547.15178 
L 1065.6 555.847526 
L 1068.92979 555.847526 
L 1070.594685 561.526592 
L 1072.25958 561.526592 
L 1073.924476 547.15178 
L 1075.589371 551.137546 
L 1077.254266 555.847526 
L 1078.919161 555.847526 
L 1080.584056 561.526592 
L 1082.248951 568.541426 
L 1083.913846 555.847526 
L 1085.578741 561.526592 
L 1087.243636 561.526592 
L 1088.908531 555.847526 
L 1090.573427 551.137546 
L 1092.238322 561.526592 
L 1093.903217 555.847526 
L 1095.568112 568.541426 
L 1097.233007 551.137546 
L 1098.897902 555.847526 
L 1100.562797 561.526592 
L 1102.227692 568.541426 
L 1103.892587 561.526592 
L 1105.557483 540.730716 
L 1107.222378 540.730716 
L 1108.887273 547.15178 
L 1110.552168 551.137546 
L 1112.217063 555.847526 
L 1113.881958 543.722368 
L 1115.546853 551.137546 
L 1117.211748 543.722368 
L 1118.876643 543.722368 
L 1120.541538 538.090628 
L 1122.206434 540.730716 
L 1123.871329 547.15178 
L 1125.536224 547.15178 
L 1127.201119 551.137546 
L 1128.866014 547.15178 
L 1130.530909 555.847526 
L 1132.195804 547.15178 
L 1133.860699 561.526592 
L 1135.525594 543.722368 
L 1137.19049 547.15178 
L 1138.855385 547.15178 
L 1140.52028 551.137546 
L 1142.185175 551.137546 
L 1143.85007 540.730716 
L 1145.514965 543.722368 
L 1147.17986 533.62347 
L 1148.844755 535.737861 
L 1150.50965 540.730716 
L 1152.174545 547.15178 
L 1153.839441 535.737861 
L 1155.504336 538.090628 
L 1157.169231 535.737861 
L 1160.499021 535.737861 
L 1162.163916 529.965759 
L 1163.828811 535.737861 
L 1167.158601 535.737861 
L 1168.823497 538.090628 
L 1170.488392 538.090628 
L 1172.153287 533.62347 
L 1173.818182 538.090628 
L 1175.483077 538.090628 
L 1177.147972 540.730716 
L 1178.812867 540.730716 
L 1180.477762 543.722368 
L 1182.142657 538.090628 
L 1183.807552 538.090628 
L 1185.472448 543.722368 
L 1187.137343 535.737861 
L 1188.802238 540.730716 
L 1190.467133 547.15178 
L 1192.132028 551.137546 
L 1193.796923 543.722368 
L 1195.461818 547.15178 
L 1195.461818 547.15178 
" style="fill:none;stroke:#1f77b4;stroke-dasharray:5.55,2.4;stroke-dashoffset:0;stroke-width:1.5;"/>
   </g>
   <g id="line2d_32">
    <path clip-path="url(#pb538f4646f)" d="M 221.498182 605.1348 
L 223.163077 470.830601 
L 224.827972 363.006567 
L 231.487552 363.006567 
L 233.152448 354.571629 
L 234.817343 363.006567 
L 238.147133 363.006567 
L 239.812028 369.905633 
L 241.476923 369.905633 
L 243.141818 363.006567 
L 244.806713 363.006567 
L 246.471608 375.678716 
L 248.136503 363.006567 
L 249.801399 343.950468 
L 251.466294 369.905633 
L 253.131189 343.950468 
L 254.796084 363.006567 
L 256.460979 354.571629 
L 258.125874 343.950468 
L 259.790769 369.905633 
L 261.455664 369.905633 
L 263.120559 363.006567 
L 264.785455 369.905633 
L 266.45035 363.006567 
L 268.115245 369.905633 
L 269.78014 369.905633 
L 271.445035 343.950468 
L 273.10993 369.905633 
L 274.774825 363.006567 
L 278.104615 363.006567 
L 279.76951 354.571629 
L 281.434406 343.950468 
L 283.099301 363.006567 
L 284.764196 380.598251 
L 286.429091 375.678716 
L 288.093986 363.006567 
L 289.758881 375.678716 
L 293.088671 375.678716 
L 294.753566 369.905633 
L 296.418462 363.006567 
L 298.083357 380.598251 
L 299.748252 369.905633 
L 301.413147 380.598251 
L 303.078042 369.905633 
L 304.742937 384.853099 
L 306.407832 388.578732 
L 308.072727 384.853099 
L 309.737622 384.853099 
L 311.402517 375.678716 
L 313.067413 384.853099 
L 316.397203 384.853099 
L 318.062098 388.578732 
L 319.726993 380.598251 
L 321.391888 388.578732 
L 323.056783 388.578732 
L 324.721678 384.853099 
L 326.386573 384.853099 
L 328.051469 388.578732 
L 329.716364 388.578732 
L 331.381259 375.678716 
L 333.046154 375.678716 
L 334.711049 380.598251 
L 336.375944 384.853099 
L 338.040839 380.598251 
L 339.705734 384.853099 
L 341.370629 384.853099 
L 343.035524 388.578732 
L 344.70042 388.578732 
L 346.365315 384.853099 
L 353.024895 384.853099 
L 354.68979 388.578732 
L 356.354685 384.853099 
L 358.01958 388.578732 
L 359.684476 388.578732 
L 361.349371 391.87512 
L 363.014266 388.578732 
L 364.679161 388.578732 
L 366.344056 384.853099 
L 368.008951 388.578732 
L 369.673846 384.853099 
L 371.338741 391.87512 
L 373.003636 388.578732 
L 374.668531 388.578732 
L 376.333427 384.853099 
L 377.998322 388.578732 
L 379.663217 388.578732 
L 381.328112 391.87512 
L 382.993007 391.87512 
L 384.657902 388.578732 
L 389.652587 388.578732 
L 391.317483 384.853099 
L 392.982378 380.598251 
L 394.647273 380.598251 
L 396.312168 375.678716 
L 397.977063 384.853099 
L 399.641958 384.853099 
L 401.306853 375.678716 
L 402.971748 375.678716 
L 404.636643 394.817817 
L 406.301538 384.853099 
L 407.966434 384.853099 
L 409.631329 388.578732 
L 411.296224 375.678716 
L 412.961119 375.678716 
L 414.626014 380.598251 
L 416.290909 369.905633 
L 417.955804 375.678716 
L 419.620699 380.598251 
L 421.285594 363.006567 
L 422.95049 369.905633 
L 424.615385 384.853099 
L 427.945175 384.853099 
L 429.61007 369.905633 
L 431.274965 369.905633 
L 432.93986 380.598251 
L 434.604755 369.905633 
L 436.26965 380.598251 
L 437.934545 380.598251 
L 439.599441 375.678716 
L 441.264336 354.571629 
L 442.929231 388.578732 
L 444.594126 369.905633 
L 446.259021 375.678716 
L 447.923916 354.571629 
L 449.588811 363.006567 
L 451.253706 354.571629 
L 454.583497 384.853099 
L 456.248392 380.598251 
L 457.913287 363.006567 
L 459.578182 384.853099 
L 461.243077 363.006567 
L 462.907972 380.598251 
L 464.572867 354.571629 
L 467.902657 354.571629 
L 469.567552 343.950468 
L 471.232448 354.571629 
L 472.897343 310.764403 
L 474.562238 310.764403 
L 476.227133 343.950468 
L 477.892028 343.950468 
L 479.556923 310.764403 
L 481.221818 354.571629 
L 482.886713 354.571629 
L 484.551608 363.006567 
L 486.216503 310.764403 
L 487.881399 230.987249 
L 489.546294 310.764403 
L 492.876084 310.764403 
L 494.540979 330.037127 
L 497.870769 330.037127 
L 499.535664 363.006567 
L 501.200559 330.037127 
L 502.865455 343.950468 
L 504.53035 109.7028 
L 506.195245 310.764403 
L 507.86014 281.699503 
L 509.525035 230.987249 
L 511.18993 330.037127 
L 512.854825 330.037127 
L 514.51972 310.764403 
L 516.184615 310.764403 
L 517.84951 281.699503 
L 519.514406 310.764403 
L 521.179301 343.950468 
L 522.844196 343.950468 
L 524.509091 310.764403 
L 526.173986 281.699503 
L 527.838881 343.950468 
L 539.493147 343.950468 
L 541.158042 369.905633 
L 542.822937 375.678716 
L 544.487832 363.006567 
L 546.152727 354.571629 
L 547.817622 369.905633 
L 549.482517 375.678716 
L 551.147413 375.678716 
L 552.812308 363.006567 
L 556.142098 363.006567 
L 557.806993 369.905633 
L 559.471888 380.598251 
L 561.136783 363.006567 
L 562.801678 354.571629 
L 564.466573 369.905633 
L 566.131469 363.006567 
L 567.796364 369.905633 
L 569.461259 375.678716 
L 571.126154 375.678716 
L 572.791049 363.006567 
L 574.455944 369.905633 
L 576.120839 380.598251 
L 579.450629 380.598251 
L 581.115524 369.905633 
L 582.78042 375.678716 
L 584.445315 375.678716 
L 586.11021 369.905633 
L 587.775105 354.571629 
L 589.44 363.006567 
L 591.104895 375.678716 
L 592.76979 363.006567 
L 594.434685 375.678716 
L 596.09958 363.006567 
L 597.764476 354.571629 
L 602.759161 354.571629 
L 604.424056 343.950468 
L 606.088951 363.006567 
L 607.753846 343.950468 
L 609.418741 354.571629 
L 611.083636 330.037127 
L 612.748531 343.950468 
L 614.413427 354.571629 
L 616.078322 343.950468 
L 617.743217 343.950468 
L 619.408112 310.764403 
L 621.073007 330.037127 
L 622.737902 330.037127 
L 624.402797 363.006567 
L 626.067692 343.950468 
L 627.732587 354.571629 
L 629.397483 343.950468 
L 631.062378 363.006567 
L 632.727273 363.006567 
L 634.392168 330.037127 
L 636.057063 281.699503 
L 637.721958 354.571629 
L 639.386853 310.764403 
L 641.051748 330.037127 
L 642.716643 310.764403 
L 644.381538 343.950468 
L 646.046434 330.037127 
L 647.711329 363.006567 
L 649.376224 354.571629 
L 651.041119 343.950468 
L 652.706014 354.571629 
L 654.370909 354.571629 
L 656.035804 343.950468 
L 657.700699 369.905633 
L 659.365594 369.905633 
L 661.03049 363.006567 
L 662.695385 363.006567 
L 664.36028 380.598251 
L 666.025175 375.678716 
L 667.69007 354.571629 
L 671.01986 354.571629 
L 672.684755 363.006567 
L 674.34965 354.571629 
L 676.014545 363.006567 
L 677.679441 354.571629 
L 679.344336 363.006567 
L 681.009231 363.006567 
L 682.674126 369.905633 
L 684.339021 375.678716 
L 686.003916 363.006567 
L 687.668811 380.598251 
L 689.333706 375.678716 
L 690.998601 369.905633 
L 692.663497 380.598251 
L 694.328392 375.678716 
L 695.993287 375.678716 
L 697.658182 380.598251 
L 699.323077 363.006567 
L 700.987972 375.678716 
L 702.652867 384.853099 
L 704.317762 375.678716 
L 705.982657 384.853099 
L 707.647552 384.853099 
L 709.312448 375.678716 
L 710.977343 369.905633 
L 712.642238 363.006567 
L 714.307133 375.678716 
L 717.636923 375.678716 
L 719.301818 384.853099 
L 720.966713 375.678716 
L 722.631608 388.578732 
L 724.296503 375.678716 
L 725.961399 388.578732 
L 727.626294 384.853099 
L 732.620979 384.853099 
L 734.285874 375.678716 
L 735.950769 380.598251 
L 737.615664 354.571629 
L 740.945455 384.853099 
L 742.61035 380.598251 
L 744.275245 384.853099 
L 745.94014 369.905633 
L 747.605035 369.905633 
L 749.26993 388.578732 
L 750.934825 369.905633 
L 752.59972 380.598251 
L 754.264615 375.678716 
L 755.92951 369.905633 
L 757.594406 375.678716 
L 759.259301 380.598251 
L 760.924196 384.853099 
L 764.253986 384.853099 
L 765.918881 363.006567 
L 767.583776 375.678716 
L 769.248671 380.598251 
L 770.913566 375.678716 
L 772.578462 384.853099 
L 774.243357 369.905633 
L 775.908252 375.678716 
L 777.573147 363.006567 
L 779.238042 343.950468 
L 780.902937 375.678716 
L 782.567832 369.905633 
L 784.232727 369.905633 
L 785.897622 363.006567 
L 787.562517 369.905633 
L 789.227413 369.905633 
L 790.892308 363.006567 
L 792.557203 369.905633 
L 794.222098 369.905633 
L 795.886993 375.678716 
L 797.551888 380.598251 
L 799.216783 380.598251 
L 800.881678 375.678716 
L 802.546573 375.678716 
L 804.211469 369.905633 
L 805.876364 369.905633 
L 807.541259 354.571629 
L 809.206154 363.006567 
L 810.871049 375.678716 
L 812.535944 380.598251 
L 814.200839 375.678716 
L 815.865734 375.678716 
L 817.530629 380.598251 
L 819.195524 384.853099 
L 820.86042 369.905633 
L 822.525315 369.905633 
L 824.19021 375.678716 
L 825.855105 363.006567 
L 827.52 363.006567 
L 829.184895 369.905633 
L 830.84979 363.006567 
L 832.514685 363.006567 
L 834.17958 354.571629 
L 835.844476 363.006567 
L 837.509371 354.571629 
L 839.174266 369.905633 
L 840.839161 369.905633 
L 842.504056 380.598251 
L 844.168951 369.905633 
L 845.833846 375.678716 
L 847.498741 384.853099 
L 849.163636 375.678716 
L 850.828531 363.006567 
L 852.493427 363.006567 
L 854.158322 343.950468 
L 855.823217 375.678716 
L 857.488112 375.678716 
L 859.153007 369.905633 
L 860.817902 343.950468 
L 865.812587 343.950468 
L 867.477483 281.699503 
L 870.807273 281.699503 
L 872.472168 310.764403 
L 874.137063 310.764403 
L 875.801958 281.699503 
L 877.466853 281.699503 
L 879.131748 310.764403 
L 880.796643 281.699503 
L 882.461538 281.699503 
L 884.126434 230.987249 
L 885.791329 354.571629 
L 887.456224 310.764403 
L 889.121119 363.006567 
L 890.786014 343.950468 
L 894.115804 343.950468 
L 895.780699 354.571629 
L 897.445594 343.950468 
L 899.11049 330.037127 
L 900.775385 363.006567 
L 902.44028 354.571629 
L 904.105175 363.006567 
L 905.77007 354.571629 
L 907.434965 343.950468 
L 909.09986 354.571629 
L 910.764755 343.950468 
L 912.42965 330.037127 
L 914.094545 330.037127 
L 915.759441 343.950468 
L 917.424336 343.950468 
L 919.089231 310.764403 
L 920.754126 281.699503 
L 922.419021 281.699503 
L 924.083916 310.764403 
L 925.748811 281.699503 
L 927.413706 310.764403 
L 930.743497 310.764403 
L 932.408392 281.699503 
L 934.073287 330.037127 
L 937.403077 330.037127 
L 939.067972 281.699503 
L 940.732867 310.764403 
L 942.397762 281.699503 
L 944.062657 310.764403 
L 945.727552 330.037127 
L 947.392448 310.764403 
L 949.057343 281.699503 
L 950.722238 310.764403 
L 957.381818 310.764403 
L 959.046713 281.699503 
L 960.711608 343.950468 
L 962.376503 281.699503 
L 964.041399 330.037127 
L 965.706294 330.037127 
L 967.371189 343.950468 
L 969.036084 281.699503 
L 970.700979 354.571629 
L 972.365874 330.037127 
L 974.030769 330.037127 
L 975.695664 354.571629 
L 977.360559 354.571629 
L 979.025455 363.006567 
L 980.69035 330.037127 
L 982.355245 330.037127 
L 984.02014 369.905633 
L 985.685035 354.571629 
L 987.34993 363.006567 
L 989.014825 343.950468 
L 990.67972 343.950468 
L 992.344615 363.006567 
L 994.00951 310.764403 
L 995.674406 354.571629 
L 997.339301 343.950468 
L 999.004196 354.571629 
L 1000.669091 343.950468 
L 1002.333986 369.905633 
L 1003.998881 354.571629 
L 1005.663776 343.950468 
L 1007.328671 363.006567 
L 1008.993566 369.905633 
L 1010.658462 380.598251 
L 1012.323357 363.006567 
L 1013.988252 380.598251 
L 1015.653147 363.006567 
L 1017.318042 375.678716 
L 1018.982937 369.905633 
L 1020.647832 369.905633 
L 1022.312727 363.006567 
L 1023.977622 369.905633 
L 1025.642517 363.006567 
L 1027.307413 380.598251 
L 1028.972308 375.678716 
L 1030.637203 363.006567 
L 1032.302098 330.037127 
L 1033.966993 343.950468 
L 1035.631888 369.905633 
L 1037.296783 369.905633 
L 1038.961678 354.571629 
L 1042.291469 354.571629 
L 1043.956364 369.905633 
L 1045.621259 343.950468 
L 1047.286154 375.678716 
L 1048.951049 369.905633 
L 1050.615944 369.905633 
L 1052.280839 380.598251 
L 1055.610629 330.037127 
L 1057.275524 354.571629 
L 1058.94042 363.006567 
L 1060.605315 369.905633 
L 1062.27021 330.037127 
L 1063.935105 363.006567 
L 1065.6 343.950468 
L 1068.92979 343.950468 
L 1070.594685 330.037127 
L 1072.25958 330.037127 
L 1073.924476 363.006567 
L 1075.589371 354.571629 
L 1077.254266 343.950468 
L 1078.919161 343.950468 
L 1080.584056 330.037127 
L 1082.248951 310.764403 
L 1083.913846 343.950468 
L 1085.578741 330.037127 
L 1087.243636 330.037127 
L 1088.908531 343.950468 
L 1090.573427 354.571629 
L 1092.238322 330.037127 
L 1093.903217 343.950468 
L 1095.568112 310.764403 
L 1097.233007 354.571629 
L 1098.897902 343.950468 
L 1100.562797 330.037127 
L 1102.227692 310.764403 
L 1103.892587 330.037127 
L 1105.557483 375.678716 
L 1107.222378 375.678716 
L 1108.887273 363.006567 
L 1110.552168 354.571629 
L 1112.217063 343.950468 
L 1113.881958 369.905633 
L 1115.546853 354.571629 
L 1117.211748 369.905633 
L 1118.876643 369.905633 
L 1120.541538 380.598251 
L 1122.206434 375.678716 
L 1123.871329 363.006567 
L 1125.536224 363.006567 
L 1127.201119 354.571629 
L 1128.866014 363.006567 
L 1130.530909 343.950468 
L 1132.195804 363.006567 
L 1133.860699 330.037127 
L 1135.525594 369.905633 
L 1137.19049 363.006567 
L 1138.855385 363.006567 
L 1140.52028 354.571629 
L 1142.185175 354.571629 
L 1143.85007 375.678716 
L 1145.514965 369.905633 
L 1147.17986 388.578732 
L 1148.844755 384.853099 
L 1150.50965 375.678716 
L 1152.174545 363.006567 
L 1153.839441 384.853099 
L 1155.504336 380.598251 
L 1157.169231 384.853099 
L 1160.499021 384.853099 
L 1162.163916 394.817817 
L 1163.828811 384.853099 
L 1167.158601 384.853099 
L 1168.823497 380.598251 
L 1170.488392 380.598251 
L 1172.153287 388.578732 
L 1173.818182 380.598251 
L 1175.483077 380.598251 
L 1177.147972 375.678716 
L 1178.812867 375.678716 
L 1180.477762 369.905633 
L 1182.142657 380.598251 
L 1183.807552 380.598251 
L 1185.472448 369.905633 
L 1187.137343 384.853099 
L 1188.802238 375.678716 
L 1190.467133 363.006567 
L 1192.132028 354.571629 
L 1193.796923 369.905633 
L 1195.461818 363.006567 
L 1195.461818 363.006567 
" style="fill:none;stroke:#ff7f0e;stroke-dasharray:5.55,2.4;stroke-dashoffset:0;stroke-width:1.5;"/>
   </g>
   <g id="line2d_33">
    <path clip-path="url(#pb538f4646f)" d="M 221.498182 605.1348 
L 223.163077 470.830601 
L 224.827972 603.889084 
L 226.492867 602.58704 
L 228.157762 603.129021 
L 229.822657 604.299346 
L 231.487552 602.1359 
L 233.152448 603.299893 
L 234.817343 603.20704 
L 236.482238 603.42939 
L 238.147133 602.342101 
L 239.812028 602.472782 
L 241.476923 603.299992 
L 243.141818 536.333677 
L 244.806713 566.136302 
L 246.471608 555.284238 
L 248.136503 473.782175 
L 249.801399 539.297305 
L 251.466294 533.484568 
L 253.131189 522.222717 
L 254.796084 519.335388 
L 256.460979 486.6123 
L 258.125874 424.337145 
L 259.790769 514.713596 
L 261.455664 430.35251 
L 263.120559 528.737209 
L 264.785455 408.274256 
L 266.45035 581.34888 
L 268.115245 568.787964 
L 269.78014 524.20294 
L 271.445035 508.81725 
L 273.10993 481.443514 
L 274.774825 459.220523 
L 276.43972 360.685774 
L 278.104615 465.580152 
L 279.76951 495.663077 
L 281.434406 426.20463 
L 283.099301 428.93908 
L 284.764196 554.306156 
L 286.429091 486.231097 
L 288.093986 499.05494 
L 289.758881 497.645173 
L 291.423776 545.261886 
L 293.088671 527.86332 
L 294.753566 540.76304 
L 296.418462 545.627302 
L 298.083357 448.409414 
L 299.748252 435.409802 
L 301.413147 465.089045 
L 303.078042 459.442759 
L 304.742937 412.754458 
L 306.407832 470.151414 
L 308.072727 466.798205 
L 309.737622 450.656413 
L 311.402517 472.640881 
L 313.067413 479.410071 
L 314.732308 480.26124 
L 316.397203 505.777814 
L 318.062098 500.458094 
L 319.726993 484.722698 
L 321.391888 513.262935 
L 323.056783 516.027498 
L 324.721678 526.936843 
L 326.386573 530.874931 
L 328.051469 531.486665 
L 329.716364 515.523845 
L 331.381259 556.494851 
L 334.711049 538.240238 
L 336.375944 527.315908 
L 338.040839 548.68456 
L 339.705734 548.368161 
L 341.370629 573.771546 
L 343.035524 559.913243 
L 344.70042 567.115657 
L 346.365315 572.154752 
L 348.03021 583.280733 
L 349.695105 568.823394 
L 351.36 581.372603 
L 353.024895 585.542003 
L 354.68979 580.381439 
L 356.354685 586.314161 
L 358.01958 577.984439 
L 359.684476 570.346085 
L 361.349371 573.305819 
L 363.014266 572.233703 
L 364.679161 582.137839 
L 366.344056 572.073076 
L 369.673846 587.792064 
L 371.338741 578.953261 
L 373.003636 579.218768 
L 374.668531 584.027472 
L 376.333427 579.69434 
L 377.998322 584.050637 
L 379.663217 584.892454 
L 381.328112 579.451774 
L 382.993007 582.706751 
L 384.657902 584.823236 
L 386.322797 587.829845 
L 387.987692 587.014275 
L 389.652587 585.917201 
L 391.317483 579.896064 
L 392.982378 574.708503 
L 394.647273 534.358982 
L 396.312168 487.38006 
L 397.977063 493.729392 
L 401.306853 542.741561 
L 402.971748 447.402501 
L 404.636643 515.958379 
L 406.301538 475.675106 
L 407.966434 391.377718 
L 409.631329 432.207739 
L 411.296224 354.237109 
L 412.961119 390.38795 
L 414.626014 397.361921 
L 416.290909 370.367013 
L 417.955804 457.344038 
L 419.620699 420.979228 
L 421.285594 342.177887 
L 422.95049 491.614591 
L 424.615385 452.276343 
L 426.28028 488.540976 
L 427.945175 508.088074 
L 429.61007 472.713436 
L 431.274965 465.477804 
L 432.93986 450.802642 
L 434.604755 428.570122 
L 436.26965 520.64521 
L 437.934545 481.275185 
L 439.599441 509.146694 
L 441.264336 521.779522 
L 442.929231 499.860489 
L 444.594126 469.118374 
L 446.259021 435.998697 
L 447.923916 399.179299 
L 449.588811 503.173944 
L 451.253706 493.189486 
L 452.918601 493.745084 
L 454.583497 457.225735 
L 456.248392 496.304955 
L 457.913287 367.690627 
L 459.578182 377.276318 
L 461.243077 397.273441 
L 462.907972 426.780173 
L 464.572867 329.631782 
L 466.237762 496.312154 
L 467.902657 452.860948 
L 469.567552 415.993674 
L 471.232448 484.512578 
L 472.897343 400.812271 
L 474.562238 424.117368 
L 476.227133 484.255024 
L 477.892028 384.123381 
L 479.556923 520.321587 
L 481.221818 486.470458 
L 482.886713 440.729254 
L 484.551608 459.630545 
L 486.216503 333.831033 
L 487.881399 552.286901 
L 489.546294 418.616978 
L 491.211189 360.605345 
L 492.876084 431.07211 
L 494.540979 489.540116 
L 496.205874 485.057998 
L 497.870769 553.805605 
L 499.535664 355.157398 
L 501.200559 368.864974 
L 502.865455 341.550569 
L 504.53035 572.147034 
L 506.195245 426.607576 
L 507.86014 505.001421 
L 509.525035 414.541622 
L 511.18993 428.659326 
L 512.854825 388.967929 
L 514.51972 449.012075 
L 516.184615 523.80371 
L 517.84951 345.707351 
L 519.514406 427.247298 
L 521.179301 428.788538 
L 522.844196 376.243371 
L 524.509091 516.759914 
L 526.173986 346.991134 
L 529.503776 414.193498 
L 531.168671 498.304253 
L 532.833566 440.459629 
L 534.498462 342.613752 
L 536.163357 398.393149 
L 537.828252 403.427734 
L 539.493147 567.124391 
L 541.158042 544.403305 
L 542.822937 526.04087 
L 544.487832 490.778285 
L 546.152727 389.455732 
L 547.817622 463.118457 
L 549.482517 505.115612 
L 551.147413 525.932416 
L 552.812308 446.422193 
L 554.477203 411.138278 
L 556.142098 450.965129 
L 557.806993 517.491335 
L 559.471888 471.956055 
L 561.136783 491.540952 
L 562.801678 491.949119 
L 564.466573 504.248755 
L 566.131469 497.320686 
L 567.796364 441.340729 
L 569.461259 474.217275 
L 571.126154 523.328491 
L 572.791049 369.548557 
L 574.455944 440.153364 
L 576.120839 518.522969 
L 577.785734 550.843733 
L 579.450629 371.263594 
L 581.115524 482.442745 
L 582.78042 461.195902 
L 584.445315 511.561076 
L 586.11021 497.663053 
L 587.775105 496.343277 
L 589.44 523.382289 
L 591.104895 449.939734 
L 592.76979 465.643031 
L 594.434685 487.129908 
L 596.09958 459.372417 
L 597.764476 521.973486 
L 599.429371 510.794101 
L 601.094266 526.220474 
L 602.759161 346.536895 
L 604.424056 506.245323 
L 606.088951 433.395781 
L 607.753846 522.21752 
L 609.418741 483.025965 
L 611.083636 546.714197 
L 612.748531 521.352516 
L 614.413427 520.324787 
L 616.078322 447.80917 
L 617.743217 428.860592 
L 619.408112 537.908077 
L 621.073007 428.641319 
L 622.737902 486.225659 
L 624.402797 538.392014 
L 626.067692 491.650713 
L 627.732587 487.72472 
L 629.397483 469.956039 
L 631.062378 478.880072 
L 632.727273 543.899084 
L 634.392168 465.487691 
L 636.057063 560.164562 
L 637.721958 427.953829 
L 639.386853 524.364867 
L 641.051748 423.373996 
L 642.716643 500.823002 
L 644.381538 568.058529 
L 646.046434 592.36662 
L 647.711329 479.25114 
L 651.041119 547.619129 
L 652.706014 510.963863 
L 654.370909 492.292401 
L 656.035804 476.236672 
L 657.700699 394.62672 
L 659.365594 539.980627 
L 661.03049 476.932772 
L 662.695385 539.808364 
L 664.36028 411.364724 
L 666.025175 450.890334 
L 667.69007 446.58889 
L 669.354965 461.883953 
L 671.01986 494.793919 
L 672.684755 483.748121 
L 674.34965 436.755624 
L 676.014545 483.968555 
L 677.679441 474.983567 
L 679.344336 500.737771 
L 681.009231 473.264339 
L 682.674126 521.849198 
L 684.339021 539.560324 
L 686.003916 567.234306 
L 687.668811 410.658262 
L 689.333706 507.83189 
L 690.998601 556.168833 
L 692.663497 509.52184 
L 694.328392 452.368953 
L 695.993287 538.020513 
L 697.658182 541.649111 
L 699.323077 566.217702 
L 700.987972 567.353453 
L 702.652867 483.781616 
L 704.317762 520.171916 
L 705.982657 539.303532 
L 707.647552 508.670712 
L 709.312448 552.035963 
L 710.977343 476.435266 
L 712.642238 535.139771 
L 714.307133 532.912888 
L 715.972028 539.819852 
L 717.636923 487.531806 
L 719.301818 422.406757 
L 720.966713 477.936327 
L 722.631608 427.214952 
L 724.296503 467.933802 
L 725.961399 525.552706 
L 727.626294 484.780123 
L 729.291189 436.880288 
L 730.956084 404.863314 
L 732.620979 429.342827 
L 734.285874 481.864891 
L 735.950769 423.152024 
L 737.615664 514.777212 
L 739.280559 555.842814 
L 740.945455 410.461374 
L 742.61035 525.050036 
L 744.275245 474.509714 
L 745.94014 561.110292 
L 747.605035 457.818688 
L 749.26993 474.963932 
L 750.934825 446.113654 
L 752.59972 502.024131 
L 754.264615 553.236817 
L 755.92951 494.895016 
L 757.594406 430.902817 
L 759.259301 511.43436 
L 760.924196 473.903101 
L 762.589091 484.252226 
L 764.253986 516.727101 
L 765.918881 524.741455 
L 767.583776 503.334271 
L 769.248671 532.220689 
L 770.913566 542.121061 
L 772.578462 557.252848 
L 774.243357 487.15216 
L 775.908252 539.175731 
L 777.573147 539.21753 
L 779.238042 520.158925 
L 780.902937 546.242899 
L 782.567832 420.486587 
L 784.232727 489.864772 
L 785.897622 536.648906 
L 787.562517 514.40719 
L 789.227413 498.072318 
L 790.892308 520.616281 
L 792.557203 497.274466 
L 794.222098 420.561985 
L 795.886993 417.144744 
L 797.551888 480.048873 
L 799.216783 419.408777 
L 800.881678 529.720385 
L 802.546573 423.883684 
L 804.211469 486.359248 
L 805.876364 538.556006 
L 807.541259 561.351559 
L 809.206154 456.136811 
L 810.871049 426.325673 
L 812.535944 443.719602 
L 814.200839 466.683071 
L 815.865734 471.000955 
L 817.530629 479.782397 
L 819.195524 472.749953 
L 820.86042 407.322367 
L 822.525315 429.448931 
L 824.19021 438.738909 
L 825.855105 449.662693 
L 827.52 487.603217 
L 829.184895 385.327932 
L 830.84979 391.45744 
L 832.514685 546.03817 
L 834.17958 447.87274 
L 835.844476 388.109314 
L 837.509371 405.456904 
L 839.174266 427.910334 
L 840.839161 506.657612 
L 842.504056 426.830412 
L 844.168951 537.814478 
L 845.833846 481.424223 
L 847.498741 507.805018 
L 849.163636 522.168112 
L 850.828531 398.982946 
L 852.493427 494.802371 
L 854.158322 376.49601 
L 855.823217 500.491722 
L 857.488112 414.127891 
L 859.153007 428.43738 
L 860.817902 393.569634 
L 862.482797 405.573654 
L 864.147692 407.98775 
L 865.812587 429.377388 
L 867.477483 471.080604 
L 869.142378 366.836976 
L 870.807273 455.642195 
L 872.472168 528.327886 
L 874.137063 501.910995 
L 875.801958 366.021712 
L 877.466853 248.976603 
L 879.131748 482.063959 
L 880.796643 282.978134 
L 882.461538 527.464194 
L 884.126434 577.347225 
L 885.791329 532.882698 
L 887.456224 569.37478 
L 889.121119 483.477252 
L 890.786014 552.360204 
L 892.450909 541.830399 
L 894.115804 544.324342 
L 895.780699 545.78464 
L 897.445594 469.59107 
L 899.11049 590.692344 
L 900.775385 525.086942 
L 902.44028 494.019605 
L 904.105175 480.837324 
L 905.77007 519.505153 
L 907.434965 484.053382 
L 909.09986 530.719979 
L 910.764755 541.449636 
L 912.42965 510.629523 
L 914.094545 485.982996 
L 915.759441 413.742577 
L 919.089231 568.921266 
L 920.754126 518.618385 
L 922.419021 512.495995 
L 924.083916 528.205532 
L 925.748811 573.189468 
L 927.413706 432.937792 
L 929.078601 500.845958 
L 930.743497 479.491786 
L 932.408392 302.164634 
L 934.073287 517.005646 
L 935.738182 500.784848 
L 937.403077 493.405919 
L 939.067972 543.981187 
L 940.732867 479.041685 
L 942.397762 419.555357 
L 944.062657 346.591904 
L 945.727552 528.900988 
L 947.392448 420.742748 
L 949.057343 348.040108 
L 950.722238 378.369884 
L 952.387133 498.216052 
L 954.052028 467.924683 
L 955.716923 518.116819 
L 957.381818 480.605536 
L 959.046713 532.885789 
L 960.711608 420.237961 
L 962.376503 434.957274 
L 964.041399 501.786831 
L 965.706294 434.746477 
L 967.371189 353.496666 
L 969.036084 434.968834 
L 970.700979 378.497711 
L 972.365874 427.950236 
L 974.030769 415.290211 
L 975.695664 376.638941 
L 977.360559 377.325754 
L 979.025455 378.415651 
L 980.69035 481.422342 
L 982.355245 335.368122 
L 984.02014 433.128247 
L 985.685035 517.576408 
L 987.34993 495.489623 
L 989.014825 329.175029 
L 990.67972 393.81071 
L 992.344615 372.298091 
L 994.00951 560.60596 
L 995.674406 393.804998 
L 997.339301 448.336429 
L 999.004196 341.921558 
L 1000.669091 507.905706 
L 1002.333986 541.774837 
L 1003.998881 360.014264 
L 1005.663776 491.340195 
L 1007.328671 457.432977 
L 1008.993566 476.286918 
L 1010.658462 361.208756 
L 1012.323357 452.048495 
L 1013.988252 452.825924 
L 1015.653147 442.486694 
L 1017.318042 493.450878 
L 1018.982937 485.444595 
L 1020.647832 523.127945 
L 1022.312727 441.211512 
L 1023.977622 525.739738 
L 1025.642517 558.839789 
L 1027.307413 432.690242 
L 1028.972308 515.136806 
L 1030.637203 547.210646 
L 1032.302098 522.914259 
L 1033.966993 538.354838 
L 1035.631888 524.120138 
L 1037.296783 495.855978 
L 1038.961678 501.455244 
L 1040.626573 461.587887 
L 1042.291469 500.837441 
L 1043.956364 456.27201 
L 1045.621259 539.486248 
L 1047.286154 451.453951 
L 1048.951049 467.142483 
L 1050.615944 521.726172 
L 1052.280839 487.205521 
L 1053.945734 415.892197 
L 1055.610629 498.036928 
L 1057.275524 401.599042 
L 1058.94042 404.386101 
L 1060.605315 492.540242 
L 1062.27021 451.707011 
L 1063.935105 364.023725 
L 1065.6 402.527367 
L 1067.264895 527.158806 
L 1068.92979 473.731121 
L 1070.594685 487.340955 
L 1072.25958 460.626659 
L 1073.924476 456.940209 
L 1075.589371 426.871814 
L 1077.254266 461.599406 
L 1078.919161 500.170208 
L 1080.584056 463.463266 
L 1082.248951 330.149106 
L 1083.913846 519.995067 
L 1085.578741 459.837222 
L 1087.243636 550.298856 
L 1088.908531 409.381762 
L 1090.573427 437.067529 
L 1092.238322 522.17319 
L 1093.903217 334.48506 
L 1095.568112 509.773589 
L 1097.233007 456.450614 
L 1098.897902 460.637838 
L 1100.562797 419.47388 
L 1102.227692 560.003417 
L 1103.892587 496.209952 
L 1105.557483 470.911159 
L 1107.222378 395.594764 
L 1108.887273 526.149547 
L 1110.552168 479.077551 
L 1112.217063 410.903909 
L 1113.881958 538.81533 
L 1115.546853 411.698998 
L 1117.211748 497.938246 
L 1118.876643 451.875984 
L 1120.541538 526.513384 
L 1122.206434 460.388867 
L 1123.871329 487.233358 
L 1125.536224 386.093251 
L 1127.201119 407.903939 
L 1128.866014 385.934623 
L 1130.530909 348.840606 
L 1132.195804 346.84531 
L 1133.860699 378.577256 
L 1135.525594 347.09093 
L 1137.19049 455.726232 
L 1138.855385 371.73084 
L 1140.52028 343.316311 
L 1142.185175 329.942133 
L 1143.85007 385.770704 
L 1145.514965 415.735567 
L 1147.17986 419.153925 
L 1148.844755 455.678526 
L 1150.50965 514.132448 
L 1152.174545 510.080614 
L 1153.839441 511.017695 
L 1155.504336 454.31756 
L 1157.169231 403.062127 
L 1158.834126 455.997584 
L 1160.499021 465.794406 
L 1162.163916 396.732407 
L 1163.828811 420.37775 
L 1165.493706 407.082308 
L 1167.158601 490.592071 
L 1168.823497 504.166228 
L 1170.488392 563.027708 
L 1172.153287 464.979045 
L 1173.818182 496.346291 
L 1175.483077 458.909153 
L 1177.147972 442.705985 
L 1178.812867 456.593644 
L 1180.477762 524.791306 
L 1182.142657 426.13518 
L 1183.807552 365.056161 
L 1185.472448 487.247561 
L 1187.137343 382.094229 
L 1188.802238 363.697317 
L 1190.467133 491.555107 
L 1192.132028 360.225747 
L 1193.796923 472.587543 
L 1195.461818 349.714202 
L 1195.461818 349.714202 
" style="fill:none;stroke:#2ca02c;stroke-linecap:square;stroke-width:0.5;"/>
   </g>
   <g id="patch_3">
    <path d="M 172.8 629.9064 
L 172.8 84.9312 
" style="fill:none;stroke:#000000;stroke-linecap:square;stroke-linejoin:miter;stroke-width:0.8;"/>
   </g>
   <g id="patch_4">
    <path d="M 1244.16 629.9064 
L 1244.16 84.9312 
" style="fill:none;stroke:#000000;stroke-linecap:square;stroke-linejoin:miter;stroke-width:0.8;"/>
   </g>
   <g id="patch_5">
    <path d="M 172.8 629.9064 
L 1244.16 629.9064 
" style="fill:none;stroke:#000000;stroke-linecap:square;stroke-linejoin:miter;stroke-width:0.8;"/>
   </g>
   <g id="patch_6">
    <path d="M 172.8 84.9312 
L 1244.16 84.9312 
" style="fill:none;stroke:#000000;stroke-linecap:square;stroke-linejoin:miter;stroke-width:0.8;"/>
   </g>
   <g id="text_16">
    <!-- NIS, 82.42% inside CI -->
    <g transform="translate(644.184375 78.9312)scale(0.12 -0.12)">
     <defs>
      <path d="M 628 4666 
L 1478 4666 
L 3547 763 
L 3547 4666 
L 4159 4666 
L 4159 0 
L 3309 0 
L 1241 3903 
L 1241 0 
L 628 0 
L 628 4666 
z
" id="DejaVuSans-4e" transform="scale(0.015625)"/>
      <path d="M 628 4666 
L 1259 4666 
L 1259 0 
L 628 0 
L 628 4666 
z
" id="DejaVuSans-49" transform="scale(0.015625)"/>
      <path d="M 3425 4513 
L 3425 3897 
Q 3066 4069 2747 4153 
Q 2428 4238 2131 4238 
Q 1616 4238 1336 4038 
Q 1056 3838 1056 3469 
Q 1056 3159 1242 3001 
Q 1428 2844 1947 2747 
L 2328 2669 
Q 3034 2534 3370 2195 
Q 3706 1856 3706 1288 
Q 3706 609 3251 259 
Q 2797 -91 1919 -91 
Q 1588 -91 1214 -16 
Q 841 59 441 206 
L 441 856 
Q 825 641 1194 531 
Q 1563 422 1919 422 
Q 2459 422 2753 634 
Q 3047 847 3047 1241 
Q 3047 1584 2836 1778 
Q 2625 1972 2144 2069 
L 1759 2144 
Q 1053 2284 737 2584 
Q 422 2884 422 3419 
Q 422 4038 858 4394 
Q 1294 4750 2059 4750 
Q 2388 4750 2728 4690 
Q 3069 4631 3425 4513 
z
" id="DejaVuSans-53" transform="scale(0.015625)"/>
      <path d="M 750 794 
L 1409 794 
L 1409 256 
L 897 -744 
L 494 -744 
L 750 256 
L 750 794 
z
" id="DejaVuSans-2c" transform="scale(0.015625)"/>
      <path id="DejaVuSans-20" transform="scale(0.015625)"/>
      <path d="M 2034 2216 
Q 1584 2216 1326 1975 
Q 1069 1734 1069 1313 
Q 1069 891 1326 650 
Q 1584 409 2034 409 
Q 2484 409 2743 651 
Q 3003 894 3003 1313 
Q 3003 1734 2745 1975 
Q 2488 2216 2034 2216 
z
M 1403 2484 
Q 997 2584 770 2862 
Q 544 3141 544 3541 
Q 544 4100 942 4425 
Q 1341 4750 2034 4750 
Q 2731 4750 3128 4425 
Q 3525 4100 3525 3541 
Q 3525 3141 3298 2862 
Q 3072 2584 2669 2484 
Q 3125 2378 3379 2068 
Q 3634 1759 3634 1313 
Q 3634 634 3220 271 
Q 2806 -91 2034 -91 
Q 1263 -91 848 271 
Q 434 634 434 1313 
Q 434 1759 690 2068 
Q 947 2378 1403 2484 
z
M 1172 3481 
Q 1172 3119 1398 2916 
Q 1625 2713 2034 2713 
Q 2441 2713 2670 2916 
Q 2900 3119 2900 3481 
Q 2900 3844 2670 4047 
Q 2441 4250 2034 4250 
Q 1625 4250 1398 4047 
Q 1172 3844 1172 3481 
z
" id="DejaVuSans-38" transform="scale(0.015625)"/>
      <path d="M 4653 2053 
Q 4381 2053 4226 1822 
Q 4072 1591 4072 1178 
Q 4072 772 4226 539 
Q 4381 306 4653 306 
Q 4919 306 5073 539 
Q 5228 772 5228 1178 
Q 5228 1588 5073 1820 
Q 4919 2053 4653 2053 
z
M 4653 2450 
Q 5147 2450 5437 2106 
Q 5728 1763 5728 1178 
Q 5728 594 5436 251 
Q 5144 -91 4653 -91 
Q 4153 -91 3862 251 
Q 3572 594 3572 1178 
Q 3572 1766 3864 2108 
Q 4156 2450 4653 2450 
z
M 1428 4353 
Q 1159 4353 1004 4120 
Q 850 3888 850 3481 
Q 850 3069 1003 2837 
Q 1156 2606 1428 2606 
Q 1700 2606 1854 2837 
Q 2009 3069 2009 3481 
Q 2009 3884 1853 4118 
Q 1697 4353 1428 4353 
z
M 4250 4750 
L 4750 4750 
L 1831 -91 
L 1331 -91 
L 4250 4750 
z
M 1428 4750 
Q 1922 4750 2215 4408 
Q 2509 4066 2509 3481 
Q 2509 2891 2217 2550 
Q 1925 2209 1428 2209 
Q 931 2209 642 2551 
Q 353 2894 353 3481 
Q 353 4063 643 4406 
Q 934 4750 1428 4750 
z
" id="DejaVuSans-25" transform="scale(0.015625)"/>
      <path d="M 603 3500 
L 1178 3500 
L 1178 0 
L 603 0 
L 603 3500 
z
M 603 4863 
L 1178 4863 
L 1178 4134 
L 603 4134 
L 603 4863 
z
" id="DejaVuSans-69" transform="scale(0.015625)"/>
      <path d="M 3513 2113 
L 3513 0 
L 2938 0 
L 2938 2094 
Q 2938 2591 2744 2837 
Q 2550 3084 2163 3084 
Q 1697 3084 1428 2787 
Q 1159 2491 1159 1978 
L 1159 0 
L 581 0 
L 581 3500 
L 1159 3500 
L 1159 2956 
Q 1366 3272 1645 3428 
Q 1925 3584 2291 3584 
Q 2894 3584 3203 3211 
Q 3513 2838 3513 2113 
z
" id="DejaVuSans-6e" transform="scale(0.015625)"/>
      <path d="M 2834 3397 
L 2834 2853 
Q 2591 2978 2328 3040 
Q 2066 3103 1784 3103 
Q 1356 3103 1142 2972 
Q 928 2841 928 2578 
Q 928 2378 1081 2264 
Q 1234 2150 1697 2047 
L 1894 2003 
Q 2506 1872 2764 1633 
Q 3022 1394 3022 966 
Q 3022 478 2636 193 
Q 2250 -91 1575 -91 
Q 1294 -91 989 -36 
Q 684 19 347 128 
L 347 722 
Q 666 556 975 473 
Q 1284 391 1588 391 
Q 1994 391 2212 530 
Q 2431 669 2431 922 
Q 2431 1156 2273 1281 
Q 2116 1406 1581 1522 
L 1381 1569 
Q 847 1681 609 1914 
Q 372 2147 372 2553 
Q 372 3047 722 3315 
Q 1072 3584 1716 3584 
Q 2034 3584 2315 3537 
Q 2597 3491 2834 3397 
z
" id="DejaVuSans-73" transform="scale(0.015625)"/>
      <path d="M 2906 2969 
L 2906 4863 
L 3481 4863 
L 3481 0 
L 2906 0 
L 2906 525 
Q 2725 213 2448 61 
Q 2172 -91 1784 -91 
Q 1150 -91 751 415 
Q 353 922 353 1747 
Q 353 2572 751 3078 
Q 1150 3584 1784 3584 
Q 2172 3584 2448 3432 
Q 2725 3281 2906 2969 
z
M 947 1747 
Q 947 1113 1208 752 
Q 1469 391 1925 391 
Q 2381 391 2643 752 
Q 2906 1113 2906 1747 
Q 2906 2381 2643 2742 
Q 2381 3103 1925 3103 
Q 1469 3103 1208 2742 
Q 947 2381 947 1747 
z
" id="DejaVuSans-64" transform="scale(0.015625)"/>
      <path d="M 3597 1894 
L 3597 1613 
L 953 1613 
Q 991 1019 1311 708 
Q 1631 397 2203 397 
Q 2534 397 2845 478 
Q 3156 559 3463 722 
L 3463 178 
Q 3153 47 2828 -22 
Q 2503 -91 2169 -91 
Q 1331 -91 842 396 
Q 353 884 353 1716 
Q 353 2575 817 3079 
Q 1281 3584 2069 3584 
Q 2775 3584 3186 3129 
Q 3597 2675 3597 1894 
z
M 3022 2063 
Q 3016 2534 2758 2815 
Q 2500 3097 2075 3097 
Q 1594 3097 1305 2825 
Q 1016 2553 972 2059 
L 3022 2063 
z
" id="DejaVuSans-65" transform="scale(0.015625)"/>
      <path d="M 4122 4306 
L 4122 3641 
Q 3803 3938 3442 4084 
Q 3081 4231 2675 4231 
Q 1875 4231 1450 3742 
Q 1025 3253 1025 2328 
Q 1025 1406 1450 917 
Q 1875 428 2675 428 
Q 3081 428 3442 575 
Q 3803 722 4122 1019 
L 4122 359 
Q 3791 134 3420 21 
Q 3050 -91 2638 -91 
Q 1578 -91 968 557 
Q 359 1206 359 2328 
Q 359 3453 968 4101 
Q 1578 4750 2638 4750 
Q 3056 4750 3426 4639 
Q 3797 4528 4122 4306 
z
" id="DejaVuSans-43" transform="scale(0.015625)"/>
     </defs>
     <use xlink:href="#DejaVuSans-4e"/>
     <use x="74.804688" xlink:href="#DejaVuSans-49"/>
     <use x="104.296875" xlink:href="#DejaVuSans-53"/>
     <use x="167.773438" xlink:href="#DejaVuSans-2c"/>
     <use x="199.560547" xlink:href="#DejaVuSans-20"/>
     <use x="231.347656" xlink:href="#DejaVuSans-38"/>
     <use x="294.970703" xlink:href="#DejaVuSans-32"/>
     <use x="358.59375" xlink:href="#DejaVuSans-2e"/>
     <use x="390.380859" xlink:href="#DejaVuSans-34"/>
     <use x="454.003906" xlink:href="#DejaVuSans-32"/>
     <use x="517.626953" xlink:href="#DejaVuSans-25"/>
     <use x="612.646484" xlink:href="#DejaVuSans-20"/>
     <use x="644.433594" xlink:href="#DejaVuSans-69"/>
     <use x="672.216797" xlink:href="#DejaVuSans-6e"/>
     <use x="735.595703" xlink:href="#DejaVuSans-73"/>
     <use x="787.695312" xlink:href="#DejaVuSans-69"/>
     <use x="815.478516" xlink:href="#DejaVuSans-64"/>
     <use x="878.955078" xlink:href="#DejaVuSans-65"/>
     <use x="940.478516" xlink:href="#DejaVuSans-20"/>
     <use x="972.265625" xlink:href="#DejaVuSans-43"/>
     <use x="1042.089844" xlink:href="#DejaVuSans-49"/>
    </g>
   </g>
  </g>
 </g>
 <defs>
  <clipPath id="pb538f4646f">
   <rect height="544.9752" width="1071.36" x="172.8" y="84.9312"/>
  </clipPath>
 </defs>
</svg>
