<?xml version="1.0" encoding="utf-8" standalone="no"?>
<!DOCTYPE svg PUBLIC "-//W3C//DTD SVG 1.1//EN"
  "http://www.w3.org/Graphics/SVG/1.1/DTD/svg11.dtd">
<svg height="707.76pt" version="1.1" viewBox="0 0 1382.4 707.76" width="1382.4pt" xmlns="http://www.w3.org/2000/svg" xmlns:xlink="http://www.w3.org/1999/xlink">
 <metadata>
  <rdf:RDF xmlns:cc="http://creativecommons.org/ns#" xmlns:dc="http://purl.org/dc/elements/1.1/" xmlns:rdf="http://www.w3.org/1999/02/22-rdf-syntax-ns#">
   <cc:Work>
    <dc:type rdf:resource="http://purl.org/dc/dcmitype/StillImage"/>
    <dc:date>2021-11-17T17:07:34.244462</dc:date>
    <dc:format>image/svg+xml</dc:format>
    <dc:creator>
     <cc:Agent>
      <dc:title>Matplotlib v3.4.3, https://matplotlib.org/</dc:title>
     </cc:Agent>
    </dc:creator>
   </cc:Work>
  </rdf:RDF>
 </metadata>
 <defs>
  <style type="text/css">*{stroke-linecap:butt;stroke-linejoin:round;}</style>
 </defs>
 <g id="figure_1">
  <g id="patch_1">
   <path d="M 0 707.76 
L 1382.4 707.76 
L 1382.4 0 
L 0 0 
z
" style="fill:#ffffff;"/>
  </g>
  <g id="axes_1">
   <g id="patch_2">
    <path d="M 172.8 629.9064 
L 1244.16 629.9064 
L 1244.16 84.9312 
L 172.8 84.9312 
z
" style="fill:#ffffff;"/>
   </g>
   <g id="matplotlib.axis_1">
    <g id="xtick_1">
     <g id="line2d_1">
      <path clip-path="url(#p2480f56226)" d="M 221.498182 629.9064 
L 221.498182 84.9312 
" style="fill:none;stroke:#000000;stroke-dasharray:0.5,0.825;stroke-dashoffset:0;stroke-opacity:0.5;stroke-width:0.5;"/>
     </g>
     <g id="line2d_2">
      <defs>
       <path d="M 0 0 
L 0 3.5 
" id="m24b6c52d35" style="stroke:#000000;stroke-width:0.8;"/>
      </defs>
      <g>
       <use style="stroke:#000000;stroke-width:0.8;" x="221.498182" xlink:href="#m24b6c52d35" y="629.9064"/>
      </g>
     </g>
     <g id="text_1">
      <!-- 0 -->
      <g transform="translate(218.316932 644.504838)scale(0.1 -0.1)">
       <defs>
        <path d="M 2034 4250 
Q 1547 4250 1301 3770 
Q 1056 3291 1056 2328 
Q 1056 1369 1301 889 
Q 1547 409 2034 409 
Q 2525 409 2770 889 
Q 3016 1369 3016 2328 
Q 3016 3291 2770 3770 
Q 2525 4250 2034 4250 
z
M 2034 4750 
Q 2819 4750 3233 4129 
Q 3647 3509 3647 2328 
Q 3647 1150 3233 529 
Q 2819 -91 2034 -91 
Q 1250 -91 836 529 
Q 422 1150 422 2328 
Q 422 3509 836 4129 
Q 1250 4750 2034 4750 
z
" id="DejaVuSans-30" transform="scale(0.015625)"/>
       </defs>
       <use xlink:href="#DejaVuSans-30"/>
      </g>
     </g>
    </g>
    <g id="xtick_2">
     <g id="line2d_3">
      <path clip-path="url(#p2480f56226)" d="M 387.987692 629.9064 
L 387.987692 84.9312 
" style="fill:none;stroke:#000000;stroke-dasharray:0.5,0.825;stroke-dashoffset:0;stroke-opacity:0.5;stroke-width:0.5;"/>
     </g>
     <g id="line2d_4">
      <g>
       <use style="stroke:#000000;stroke-width:0.8;" x="387.987692" xlink:href="#m24b6c52d35" y="629.9064"/>
      </g>
     </g>
     <g id="text_2">
      <!-- 100 -->
      <g transform="translate(378.443942 644.504838)scale(0.1 -0.1)">
       <defs>
        <path d="M 794 531 
L 1825 531 
L 1825 4091 
L 703 3866 
L 703 4441 
L 1819 4666 
L 2450 4666 
L 2450 531 
L 3481 531 
L 3481 0 
L 794 0 
L 794 531 
z
" id="DejaVuSans-31" transform="scale(0.015625)"/>
       </defs>
       <use xlink:href="#DejaVuSans-31"/>
       <use x="63.623047" xlink:href="#DejaVuSans-30"/>
       <use x="127.246094" xlink:href="#DejaVuSans-30"/>
      </g>
     </g>
    </g>
    <g id="xtick_3">
     <g id="line2d_5">
      <path clip-path="url(#p2480f56226)" d="M 554.477203 629.9064 
L 554.477203 84.9312 
" style="fill:none;stroke:#000000;stroke-dasharray:0.5,0.825;stroke-dashoffset:0;stroke-opacity:0.5;stroke-width:0.5;"/>
     </g>
     <g id="line2d_6">
      <g>
       <use style="stroke:#000000;stroke-width:0.8;" x="554.477203" xlink:href="#m24b6c52d35" y="629.9064"/>
      </g>
     </g>
     <g id="text_3">
      <!-- 200 -->
      <g transform="translate(544.933453 644.504838)scale(0.1 -0.1)">
       <defs>
        <path d="M 1228 531 
L 3431 531 
L 3431 0 
L 469 0 
L 469 531 
Q 828 903 1448 1529 
Q 2069 2156 2228 2338 
Q 2531 2678 2651 2914 
Q 2772 3150 2772 3378 
Q 2772 3750 2511 3984 
Q 2250 4219 1831 4219 
Q 1534 4219 1204 4116 
Q 875 4013 500 3803 
L 500 4441 
Q 881 4594 1212 4672 
Q 1544 4750 1819 4750 
Q 2544 4750 2975 4387 
Q 3406 4025 3406 3419 
Q 3406 3131 3298 2873 
Q 3191 2616 2906 2266 
Q 2828 2175 2409 1742 
Q 1991 1309 1228 531 
z
" id="DejaVuSans-32" transform="scale(0.015625)"/>
       </defs>
       <use xlink:href="#DejaVuSans-32"/>
       <use x="63.623047" xlink:href="#DejaVuSans-30"/>
       <use x="127.246094" xlink:href="#DejaVuSans-30"/>
      </g>
     </g>
    </g>
    <g id="xtick_4">
     <g id="line2d_7">
      <path clip-path="url(#p2480f56226)" d="M 720.966713 629.9064 
L 720.966713 84.9312 
" style="fill:none;stroke:#000000;stroke-dasharray:0.5,0.825;stroke-dashoffset:0;stroke-opacity:0.5;stroke-width:0.5;"/>
     </g>
     <g id="line2d_8">
      <g>
       <use style="stroke:#000000;stroke-width:0.8;" x="720.966713" xlink:href="#m24b6c52d35" y="629.9064"/>
      </g>
     </g>
     <g id="text_4">
      <!-- 300 -->
      <g transform="translate(711.422963 644.504838)scale(0.1 -0.1)">
       <defs>
        <path d="M 2597 2516 
Q 3050 2419 3304 2112 
Q 3559 1806 3559 1356 
Q 3559 666 3084 287 
Q 2609 -91 1734 -91 
Q 1441 -91 1130 -33 
Q 819 25 488 141 
L 488 750 
Q 750 597 1062 519 
Q 1375 441 1716 441 
Q 2309 441 2620 675 
Q 2931 909 2931 1356 
Q 2931 1769 2642 2001 
Q 2353 2234 1838 2234 
L 1294 2234 
L 1294 2753 
L 1863 2753 
Q 2328 2753 2575 2939 
Q 2822 3125 2822 3475 
Q 2822 3834 2567 4026 
Q 2313 4219 1838 4219 
Q 1578 4219 1281 4162 
Q 984 4106 628 3988 
L 628 4550 
Q 988 4650 1302 4700 
Q 1616 4750 1894 4750 
Q 2613 4750 3031 4423 
Q 3450 4097 3450 3541 
Q 3450 3153 3228 2886 
Q 3006 2619 2597 2516 
z
" id="DejaVuSans-33" transform="scale(0.015625)"/>
       </defs>
       <use xlink:href="#DejaVuSans-33"/>
       <use x="63.623047" xlink:href="#DejaVuSans-30"/>
       <use x="127.246094" xlink:href="#DejaVuSans-30"/>
      </g>
     </g>
    </g>
    <g id="xtick_5">
     <g id="line2d_9">
      <path clip-path="url(#p2480f56226)" d="M 887.456224 629.9064 
L 887.456224 84.9312 
" style="fill:none;stroke:#000000;stroke-dasharray:0.5,0.825;stroke-dashoffset:0;stroke-opacity:0.5;stroke-width:0.5;"/>
     </g>
     <g id="line2d_10">
      <g>
       <use style="stroke:#000000;stroke-width:0.8;" x="887.456224" xlink:href="#m24b6c52d35" y="629.9064"/>
      </g>
     </g>
     <g id="text_5">
      <!-- 400 -->
      <g transform="translate(877.912474 644.504838)scale(0.1 -0.1)">
       <defs>
        <path d="M 2419 4116 
L 825 1625 
L 2419 1625 
L 2419 4116 
z
M 2253 4666 
L 3047 4666 
L 3047 1625 
L 3713 1625 
L 3713 1100 
L 3047 1100 
L 3047 0 
L 2419 0 
L 2419 1100 
L 313 1100 
L 313 1709 
L 2253 4666 
z
" id="DejaVuSans-34" transform="scale(0.015625)"/>
       </defs>
       <use xlink:href="#DejaVuSans-34"/>
       <use x="63.623047" xlink:href="#DejaVuSans-30"/>
       <use x="127.246094" xlink:href="#DejaVuSans-30"/>
      </g>
     </g>
    </g>
    <g id="xtick_6">
     <g id="line2d_11">
      <path clip-path="url(#p2480f56226)" d="M 1053.945734 629.9064 
L 1053.945734 84.9312 
" style="fill:none;stroke:#000000;stroke-dasharray:0.5,0.825;stroke-dashoffset:0;stroke-opacity:0.5;stroke-width:0.5;"/>
     </g>
     <g id="line2d_12">
      <g>
       <use style="stroke:#000000;stroke-width:0.8;" x="1053.945734" xlink:href="#m24b6c52d35" y="629.9064"/>
      </g>
     </g>
     <g id="text_6">
      <!-- 500 -->
      <g transform="translate(1044.401984 644.504838)scale(0.1 -0.1)">
       <defs>
        <path d="M 691 4666 
L 3169 4666 
L 3169 4134 
L 1269 4134 
L 1269 2991 
Q 1406 3038 1543 3061 
Q 1681 3084 1819 3084 
Q 2600 3084 3056 2656 
Q 3513 2228 3513 1497 
Q 3513 744 3044 326 
Q 2575 -91 1722 -91 
Q 1428 -91 1123 -41 
Q 819 9 494 109 
L 494 744 
Q 775 591 1075 516 
Q 1375 441 1709 441 
Q 2250 441 2565 725 
Q 2881 1009 2881 1497 
Q 2881 1984 2565 2268 
Q 2250 2553 1709 2553 
Q 1456 2553 1204 2497 
Q 953 2441 691 2322 
L 691 4666 
z
" id="DejaVuSans-35" transform="scale(0.015625)"/>
       </defs>
       <use xlink:href="#DejaVuSans-35"/>
       <use x="63.623047" xlink:href="#DejaVuSans-30"/>
       <use x="127.246094" xlink:href="#DejaVuSans-30"/>
      </g>
     </g>
    </g>
    <g id="xtick_7">
     <g id="line2d_13">
      <path clip-path="url(#p2480f56226)" d="M 1220.435245 629.9064 
L 1220.435245 84.9312 
" style="fill:none;stroke:#000000;stroke-dasharray:0.5,0.825;stroke-dashoffset:0;stroke-opacity:0.5;stroke-width:0.5;"/>
     </g>
     <g id="line2d_14">
      <g>
       <use style="stroke:#000000;stroke-width:0.8;" x="1220.435245" xlink:href="#m24b6c52d35" y="629.9064"/>
      </g>
     </g>
     <g id="text_7">
      <!-- 600 -->
      <g transform="translate(1210.891495 644.504838)scale(0.1 -0.1)">
       <defs>
        <path d="M 2113 2584 
Q 1688 2584 1439 2293 
Q 1191 2003 1191 1497 
Q 1191 994 1439 701 
Q 1688 409 2113 409 
Q 2538 409 2786 701 
Q 3034 994 3034 1497 
Q 3034 2003 2786 2293 
Q 2538 2584 2113 2584 
z
M 3366 4563 
L 3366 3988 
Q 3128 4100 2886 4159 
Q 2644 4219 2406 4219 
Q 1781 4219 1451 3797 
Q 1122 3375 1075 2522 
Q 1259 2794 1537 2939 
Q 1816 3084 2150 3084 
Q 2853 3084 3261 2657 
Q 3669 2231 3669 1497 
Q 3669 778 3244 343 
Q 2819 -91 2113 -91 
Q 1303 -91 875 529 
Q 447 1150 447 2328 
Q 447 3434 972 4092 
Q 1497 4750 2381 4750 
Q 2619 4750 2861 4703 
Q 3103 4656 3366 4563 
z
" id="DejaVuSans-36" transform="scale(0.015625)"/>
       </defs>
       <use xlink:href="#DejaVuSans-36"/>
       <use x="63.623047" xlink:href="#DejaVuSans-30"/>
       <use x="127.246094" xlink:href="#DejaVuSans-30"/>
      </g>
     </g>
    </g>
   </g>
   <g id="matplotlib.axis_2">
    <g id="ytick_1">
     <g id="line2d_15">
      <path clip-path="url(#p2480f56226)" d="M 172.8 605.1348 
L 1244.16 605.1348 
" style="fill:none;stroke:#000000;stroke-dasharray:0.5,0.825;stroke-dashoffset:0;stroke-opacity:0.5;stroke-width:0.5;"/>
     </g>
     <g id="line2d_16">
      <defs>
       <path d="M 0 0 
L -3.5 0 
" id="mbcfb8092f4" style="stroke:#000000;stroke-width:0.8;"/>
      </defs>
      <g>
       <use style="stroke:#000000;stroke-width:0.8;" x="172.8" xlink:href="#mbcfb8092f4" y="605.1348"/>
      </g>
     </g>
     <g id="text_8">
      <!-- 0.0 -->
      <g transform="translate(149.896875 608.934019)scale(0.1 -0.1)">
       <defs>
        <path d="M 684 794 
L 1344 794 
L 1344 0 
L 684 0 
L 684 794 
z
" id="DejaVuSans-2e" transform="scale(0.015625)"/>
       </defs>
       <use xlink:href="#DejaVuSans-30"/>
       <use x="63.623047" xlink:href="#DejaVuSans-2e"/>
       <use x="95.410156" xlink:href="#DejaVuSans-30"/>
      </g>
     </g>
    </g>
    <g id="ytick_2">
     <g id="line2d_17">
      <path clip-path="url(#p2480f56226)" d="M 172.8 540.396281 
L 1244.16 540.396281 
" style="fill:none;stroke:#000000;stroke-dasharray:0.5,0.825;stroke-dashoffset:0;stroke-opacity:0.5;stroke-width:0.5;"/>
     </g>
     <g id="line2d_18">
      <g>
       <use style="stroke:#000000;stroke-width:0.8;" x="172.8" xlink:href="#mbcfb8092f4" y="540.396281"/>
      </g>
     </g>
     <g id="text_9">
      <!-- 0.5 -->
      <g transform="translate(149.896875 544.1955)scale(0.1 -0.1)">
       <use xlink:href="#DejaVuSans-30"/>
       <use x="63.623047" xlink:href="#DejaVuSans-2e"/>
       <use x="95.410156" xlink:href="#DejaVuSans-35"/>
      </g>
     </g>
    </g>
    <g id="ytick_3">
     <g id="line2d_19">
      <path clip-path="url(#p2480f56226)" d="M 172.8 475.657762 
L 1244.16 475.657762 
" style="fill:none;stroke:#000000;stroke-dasharray:0.5,0.825;stroke-dashoffset:0;stroke-opacity:0.5;stroke-width:0.5;"/>
     </g>
     <g id="line2d_20">
      <g>
       <use style="stroke:#000000;stroke-width:0.8;" x="172.8" xlink:href="#mbcfb8092f4" y="475.657762"/>
      </g>
     </g>
     <g id="text_10">
      <!-- 1.0 -->
      <g transform="translate(149.896875 479.456981)scale(0.1 -0.1)">
       <use xlink:href="#DejaVuSans-31"/>
       <use x="63.623047" xlink:href="#DejaVuSans-2e"/>
       <use x="95.410156" xlink:href="#DejaVuSans-30"/>
      </g>
     </g>
    </g>
    <g id="ytick_4">
     <g id="line2d_21">
      <path clip-path="url(#p2480f56226)" d="M 172.8 410.919244 
L 1244.16 410.919244 
" style="fill:none;stroke:#000000;stroke-dasharray:0.5,0.825;stroke-dashoffset:0;stroke-opacity:0.5;stroke-width:0.5;"/>
     </g>
     <g id="line2d_22">
      <g>
       <use style="stroke:#000000;stroke-width:0.8;" x="172.8" xlink:href="#mbcfb8092f4" y="410.919244"/>
      </g>
     </g>
     <g id="text_11">
      <!-- 1.5 -->
      <g transform="translate(149.896875 414.718462)scale(0.1 -0.1)">
       <use xlink:href="#DejaVuSans-31"/>
       <use x="63.623047" xlink:href="#DejaVuSans-2e"/>
       <use x="95.410156" xlink:href="#DejaVuSans-35"/>
      </g>
     </g>
    </g>
    <g id="ytick_5">
     <g id="line2d_23">
      <path clip-path="url(#p2480f56226)" d="M 172.8 346.180725 
L 1244.16 346.180725 
" style="fill:none;stroke:#000000;stroke-dasharray:0.5,0.825;stroke-dashoffset:0;stroke-opacity:0.5;stroke-width:0.5;"/>
     </g>
     <g id="line2d_24">
      <g>
       <use style="stroke:#000000;stroke-width:0.8;" x="172.8" xlink:href="#mbcfb8092f4" y="346.180725"/>
      </g>
     </g>
     <g id="text_12">
      <!-- 2.0 -->
      <g transform="translate(149.896875 349.979944)scale(0.1 -0.1)">
       <use xlink:href="#DejaVuSans-32"/>
       <use x="63.623047" xlink:href="#DejaVuSans-2e"/>
       <use x="95.410156" xlink:href="#DejaVuSans-30"/>
      </g>
     </g>
    </g>
    <g id="ytick_6">
     <g id="line2d_25">
      <path clip-path="url(#p2480f56226)" d="M 172.8 281.442206 
L 1244.16 281.442206 
" style="fill:none;stroke:#000000;stroke-dasharray:0.5,0.825;stroke-dashoffset:0;stroke-opacity:0.5;stroke-width:0.5;"/>
     </g>
     <g id="line2d_26">
      <g>
       <use style="stroke:#000000;stroke-width:0.8;" x="172.8" xlink:href="#mbcfb8092f4" y="281.442206"/>
      </g>
     </g>
     <g id="text_13">
      <!-- 2.5 -->
      <g transform="translate(149.896875 285.241425)scale(0.1 -0.1)">
       <use xlink:href="#DejaVuSans-32"/>
       <use x="63.623047" xlink:href="#DejaVuSans-2e"/>
       <use x="95.410156" xlink:href="#DejaVuSans-35"/>
      </g>
     </g>
    </g>
    <g id="ytick_7">
     <g id="line2d_27">
      <path clip-path="url(#p2480f56226)" d="M 172.8 216.703687 
L 1244.16 216.703687 
" style="fill:none;stroke:#000000;stroke-dasharray:0.5,0.825;stroke-dashoffset:0;stroke-opacity:0.5;stroke-width:0.5;"/>
     </g>
     <g id="line2d_28">
      <g>
       <use style="stroke:#000000;stroke-width:0.8;" x="172.8" xlink:href="#mbcfb8092f4" y="216.703687"/>
      </g>
     </g>
     <g id="text_14">
      <!-- 3.0 -->
      <g transform="translate(149.896875 220.502906)scale(0.1 -0.1)">
       <use xlink:href="#DejaVuSans-33"/>
       <use x="63.623047" xlink:href="#DejaVuSans-2e"/>
       <use x="95.410156" xlink:href="#DejaVuSans-30"/>
      </g>
     </g>
    </g>
    <g id="ytick_8">
     <g id="line2d_29">
      <path clip-path="url(#p2480f56226)" d="M 172.8 151.965169 
L 1244.16 151.965169 
" style="fill:none;stroke:#000000;stroke-dasharray:0.5,0.825;stroke-dashoffset:0;stroke-opacity:0.5;stroke-width:0.5;"/>
     </g>
     <g id="line2d_30">
      <g>
       <use style="stroke:#000000;stroke-width:0.8;" x="172.8" xlink:href="#mbcfb8092f4" y="151.965169"/>
      </g>
     </g>
     <g id="text_15">
      <!-- 3.5 -->
      <g transform="translate(149.896875 155.764387)scale(0.1 -0.1)">
       <use xlink:href="#DejaVuSans-33"/>
       <use x="63.623047" xlink:href="#DejaVuSans-2e"/>
       <use x="95.410156" xlink:href="#DejaVuSans-35"/>
      </g>
     </g>
    </g>
    <g id="ytick_9">
     <g id="line2d_31">
      <path clip-path="url(#p2480f56226)" d="M 172.8 87.22665 
L 1244.16 87.22665 
" style="fill:none;stroke:#000000;stroke-dasharray:0.5,0.825;stroke-dashoffset:0;stroke-opacity:0.5;stroke-width:0.5;"/>
     </g>
     <g id="line2d_32">
      <g>
       <use style="stroke:#000000;stroke-width:0.8;" x="172.8" xlink:href="#mbcfb8092f4" y="87.22665"/>
      </g>
     </g>
     <g id="text_16">
      <!-- 4.0 -->
      <g transform="translate(149.896875 91.025869)scale(0.1 -0.1)">
       <use xlink:href="#DejaVuSans-34"/>
       <use x="63.623047" xlink:href="#DejaVuSans-2e"/>
       <use x="95.410156" xlink:href="#DejaVuSans-30"/>
      </g>
     </g>
    </g>
   </g>
   <g id="line2d_33">
    <path clip-path="url(#p2480f56226)" d="M 221.498182 605.1348 
L 223.163077 475.657762 
L 224.827972 549.235805 
L 238.147133 549.235805 
L 239.812028 545.929654 
L 241.476923 545.929654 
L 243.141818 549.235805 
L 244.806713 549.235805 
L 246.471608 543.045528 
L 248.136503 549.235805 
L 249.801399 549.235805 
L 251.466294 545.929654 
L 253.131189 553.078316 
L 254.796084 545.929654 
L 256.460979 549.235805 
L 258.125874 553.078316 
L 259.790769 545.929654 
L 261.455664 545.929654 
L 263.120559 549.235805 
L 264.785455 545.929654 
L 266.45035 549.235805 
L 268.115245 545.929654 
L 269.78014 545.929654 
L 271.445035 557.619009 
L 273.10993 545.929654 
L 278.104615 545.929654 
L 279.76951 543.045528 
L 281.434406 545.929654 
L 283.099301 545.929654 
L 284.764196 543.045528 
L 286.429091 538.232125 
L 288.093986 540.500329 
L 289.758881 543.045528 
L 293.088671 543.045528 
L 294.753566 545.929654 
L 296.418462 549.235805 
L 298.083357 540.500329 
L 299.748252 543.045528 
L 301.413147 540.500329 
L 303.078042 538.232125 
L 304.742937 536.193731 
L 306.407832 534.348499 
L 308.072727 538.232125 
L 309.737622 536.193731 
L 313.067413 536.193731 
L 314.732308 538.232125 
L 316.397203 538.232125 
L 318.062098 536.193731 
L 321.391888 536.193731 
L 323.056783 534.348499 
L 324.721678 536.193731 
L 326.386573 532.667485 
L 328.051469 536.193731 
L 329.716364 534.348499 
L 331.381259 543.045528 
L 333.046154 540.500329 
L 334.711049 540.500329 
L 336.375944 538.232125 
L 338.040839 538.232125 
L 339.705734 536.193731 
L 341.370629 538.232125 
L 343.035524 536.193731 
L 344.70042 536.193731 
L 346.365315 538.232125 
L 353.024895 538.232125 
L 354.68979 536.193731 
L 356.354685 538.232125 
L 358.01958 536.193731 
L 359.684476 536.193731 
L 361.349371 534.348499 
L 363.014266 536.193731 
L 364.679161 536.193731 
L 366.344056 538.232125 
L 368.008951 536.193731 
L 369.673846 538.232125 
L 371.338741 534.348499 
L 373.003636 536.193731 
L 374.668531 536.193731 
L 376.333427 538.232125 
L 377.998322 536.193731 
L 379.663217 536.193731 
L 381.328112 534.348499 
L 382.993007 534.348499 
L 384.657902 536.193731 
L 389.652587 536.193731 
L 391.317483 538.232125 
L 394.647273 538.232125 
L 396.312168 543.045528 
L 397.977063 536.193731 
L 399.641958 538.232125 
L 401.306853 540.500329 
L 402.971748 538.232125 
L 404.636643 532.667485 
L 406.301538 536.193731 
L 409.631329 536.193731 
L 411.296224 540.500329 
L 412.961119 543.045528 
L 414.626014 540.500329 
L 416.290909 543.045528 
L 417.955804 536.193731 
L 419.620699 536.193731 
L 421.285594 543.045528 
L 422.95049 545.929654 
L 424.615385 534.348499 
L 426.28028 534.348499 
L 427.945175 536.193731 
L 429.61007 543.045528 
L 431.274965 540.500329 
L 432.93986 540.500329 
L 434.604755 545.929654 
L 436.26965 540.500329 
L 437.934545 538.232125 
L 439.599441 543.045528 
L 441.264336 540.500329 
L 442.929231 538.232125 
L 444.594126 543.045528 
L 446.259021 540.500329 
L 447.923916 549.235805 
L 449.588811 549.235805 
L 451.253706 553.078316 
L 452.918601 545.929654 
L 454.583497 534.348499 
L 456.248392 538.232125 
L 457.913287 540.500329 
L 459.578182 540.500329 
L 461.243077 538.232125 
L 462.907972 538.232125 
L 464.572867 545.929654 
L 466.237762 549.235805 
L 467.902657 553.078316 
L 469.567552 557.619009 
L 471.232448 553.078316 
L 472.897343 569.856665 
L 474.562238 563.093958 
L 476.227133 553.078316 
L 477.892028 553.078316 
L 479.556923 563.093958 
L 481.221818 553.078316 
L 482.886713 549.235805 
L 484.551608 549.235805 
L 487.881399 589.45453 
L 489.546294 569.856665 
L 491.211189 563.093958 
L 492.876084 553.078316 
L 494.540979 553.078316 
L 496.205874 563.093958 
L 497.870769 563.093958 
L 499.535664 549.235805 
L 501.200559 563.093958 
L 502.865455 557.619009 
L 504.53035 601.856725 
L 506.195245 549.235805 
L 507.86014 563.093958 
L 509.525035 563.093958 
L 511.18993 557.619009 
L 512.854825 549.235805 
L 514.51972 553.078316 
L 516.184615 569.856665 
L 517.84951 569.856665 
L 519.514406 557.619009 
L 521.179301 553.078316 
L 522.844196 557.619009 
L 524.509091 563.093958 
L 526.173986 549.235805 
L 527.838881 557.619009 
L 534.498462 557.619009 
L 536.163357 553.078316 
L 537.828252 563.093958 
L 539.493147 557.619009 
L 541.158042 543.045528 
L 542.822937 543.045528 
L 544.487832 545.929654 
L 547.817622 545.929654 
L 549.482517 543.045528 
L 551.147413 543.045528 
L 552.812308 549.235805 
L 554.477203 545.929654 
L 557.806993 545.929654 
L 559.471888 540.500329 
L 561.136783 543.045528 
L 562.801678 553.078316 
L 564.466573 545.929654 
L 566.131469 549.235805 
L 567.796364 540.500329 
L 569.461259 543.045528 
L 571.126154 543.045528 
L 572.791049 549.235805 
L 574.455944 543.045528 
L 576.120839 540.500329 
L 577.785734 540.500329 
L 579.450629 538.232125 
L 581.115524 545.929654 
L 582.78042 540.500329 
L 584.445315 543.045528 
L 586.11021 545.929654 
L 587.775105 553.078316 
L 589.44 545.929654 
L 591.104895 543.045528 
L 592.76979 549.235805 
L 594.434685 543.045528 
L 596.09958 549.235805 
L 597.764476 557.619009 
L 599.429371 549.235805 
L 601.094266 553.078316 
L 602.759161 549.235805 
L 604.424056 553.078316 
L 606.088951 549.235805 
L 607.753846 553.078316 
L 609.418741 553.078316 
L 611.083636 557.619009 
L 612.748531 553.078316 
L 614.413427 549.235805 
L 616.078322 557.619009 
L 617.743217 553.078316 
L 619.408112 563.093958 
L 621.073007 557.619009 
L 622.737902 553.078316 
L 624.402797 549.235805 
L 626.067692 557.619009 
L 627.732587 549.235805 
L 629.397483 557.619009 
L 631.062378 549.235805 
L 632.727273 549.235805 
L 634.392168 557.619009 
L 636.057063 569.856665 
L 637.721958 553.078316 
L 639.386853 569.856665 
L 641.051748 553.078316 
L 642.716643 557.619009 
L 644.381538 557.619009 
L 646.046434 563.093958 
L 647.711329 549.235805 
L 649.376224 553.078316 
L 651.041119 557.619009 
L 652.706014 553.078316 
L 654.370909 553.078316 
L 656.035804 549.235805 
L 657.700699 545.929654 
L 659.365594 543.045528 
L 661.03049 545.929654 
L 662.695385 549.235805 
L 664.36028 540.500329 
L 666.025175 540.500329 
L 667.69007 553.078316 
L 669.354965 549.235805 
L 671.01986 545.929654 
L 672.684755 543.045528 
L 674.34965 543.045528 
L 676.014545 545.929654 
L 677.679441 553.078316 
L 679.344336 549.235805 
L 681.009231 549.235805 
L 682.674126 543.045528 
L 684.339021 540.500329 
L 686.003916 549.235805 
L 687.668811 540.500329 
L 689.333706 543.045528 
L 690.998601 543.045528 
L 692.663497 538.232125 
L 694.328392 543.045528 
L 697.658182 543.045528 
L 699.323077 540.500329 
L 700.987972 540.500329 
L 702.652867 538.232125 
L 704.317762 543.045528 
L 705.982657 538.232125 
L 707.647552 538.232125 
L 709.312448 543.045528 
L 710.977343 545.929654 
L 712.642238 545.929654 
L 714.307133 543.045528 
L 715.972028 543.045528 
L 717.636923 540.500329 
L 719.301818 538.232125 
L 720.966713 538.232125 
L 722.631608 536.193731 
L 724.296503 540.500329 
L 725.961399 538.232125 
L 730.956084 538.232125 
L 732.620979 536.193731 
L 734.285874 536.193731 
L 735.950769 540.500329 
L 737.615664 540.500329 
L 739.280559 545.929654 
L 740.945455 540.500329 
L 742.61035 538.232125 
L 744.275245 536.193731 
L 745.94014 543.045528 
L 747.605035 545.929654 
L 749.26993 534.348499 
L 750.934825 543.045528 
L 752.59972 538.232125 
L 754.264615 543.045528 
L 757.594406 543.045528 
L 759.259301 538.232125 
L 764.253986 538.232125 
L 765.918881 549.235805 
L 767.583776 540.500329 
L 770.913566 540.500329 
L 772.578462 536.193731 
L 774.243357 543.045528 
L 775.908252 543.045528 
L 777.573147 549.235805 
L 779.238042 557.619009 
L 780.902937 543.045528 
L 782.567832 545.929654 
L 784.232727 545.929654 
L 785.897622 549.235805 
L 787.562517 545.929654 
L 789.227413 543.045528 
L 790.892308 545.929654 
L 792.557203 540.500329 
L 794.222098 543.045528 
L 795.886993 543.045528 
L 797.551888 538.232125 
L 799.216783 538.232125 
L 800.881678 540.500329 
L 802.546573 540.500329 
L 804.211469 545.929654 
L 805.876364 545.929654 
L 807.541259 549.235805 
L 809.206154 545.929654 
L 810.871049 540.500329 
L 812.535944 540.500329 
L 814.200839 538.232125 
L 815.865734 538.232125 
L 817.530629 536.193731 
L 819.195524 538.232125 
L 820.86042 545.929654 
L 822.525315 543.045528 
L 824.19021 540.500329 
L 825.855105 540.500329 
L 827.52 549.235805 
L 829.184895 543.045528 
L 830.84979 549.235805 
L 832.514685 549.235805 
L 834.17958 553.078316 
L 835.844476 545.929654 
L 837.509371 549.235805 
L 839.174266 543.045528 
L 840.839161 545.929654 
L 842.504056 540.500329 
L 844.168951 545.929654 
L 845.833846 543.045528 
L 847.498741 538.232125 
L 849.163636 543.045528 
L 850.828531 549.235805 
L 852.493427 545.929654 
L 854.158322 553.078316 
L 855.823217 540.500329 
L 857.488112 543.045528 
L 859.153007 545.929654 
L 860.817902 557.619009 
L 865.812587 557.619009 
L 867.477483 578.433522 
L 870.807273 578.433522 
L 872.472168 569.856665 
L 875.801958 569.856665 
L 877.466853 578.433522 
L 879.131748 569.856665 
L 880.796643 569.856665 
L 882.461538 563.093958 
L 884.126434 578.433522 
L 885.791329 557.619009 
L 887.456224 557.619009 
L 889.121119 549.235805 
L 890.786014 553.078316 
L 892.450909 557.619009 
L 894.115804 557.619009 
L 895.780699 553.078316 
L 897.445594 557.619009 
L 899.11049 563.093958 
L 900.775385 549.235805 
L 902.44028 553.078316 
L 904.105175 549.235805 
L 905.77007 553.078316 
L 909.09986 553.078316 
L 910.764755 557.619009 
L 912.42965 563.093958 
L 914.094545 563.093958 
L 915.759441 557.619009 
L 917.424336 557.619009 
L 919.089231 569.856665 
L 920.754126 578.433522 
L 922.419021 578.433522 
L 924.083916 569.856665 
L 925.748811 569.856665 
L 927.413706 563.093958 
L 929.078601 569.856665 
L 930.743497 563.093958 
L 932.408392 578.433522 
L 934.073287 563.093958 
L 935.738182 557.619009 
L 937.403077 563.093958 
L 939.067972 578.433522 
L 940.732867 557.619009 
L 942.397762 569.856665 
L 944.062657 563.093958 
L 945.727552 563.093958 
L 947.392448 569.856665 
L 949.057343 563.093958 
L 950.722238 569.856665 
L 952.387133 563.093958 
L 954.052028 569.856665 
L 955.716923 563.093958 
L 957.381818 563.093958 
L 959.046713 569.856665 
L 960.711608 557.619009 
L 962.376503 569.856665 
L 964.041399 557.619009 
L 967.371189 557.619009 
L 969.036084 578.433522 
L 970.700979 553.078316 
L 977.360559 553.078316 
L 979.025455 549.235805 
L 980.69035 557.619009 
L 982.355245 553.078316 
L 984.02014 545.929654 
L 985.685035 549.235805 
L 987.34993 549.235805 
L 989.014825 557.619009 
L 990.67972 557.619009 
L 992.344615 549.235805 
L 994.00951 569.856665 
L 995.674406 549.235805 
L 997.339301 557.619009 
L 999.004196 553.078316 
L 1000.669091 553.078316 
L 1002.333986 545.929654 
L 1003.998881 553.078316 
L 1005.663776 557.619009 
L 1007.328671 557.619009 
L 1008.993566 545.929654 
L 1010.658462 540.500329 
L 1012.323357 549.235805 
L 1013.988252 540.500329 
L 1015.653147 549.235805 
L 1017.318042 543.045528 
L 1018.982937 545.929654 
L 1020.647832 543.045528 
L 1022.312727 549.235805 
L 1023.977622 545.929654 
L 1025.642517 549.235805 
L 1027.307413 543.045528 
L 1028.972308 543.045528 
L 1030.637203 549.235805 
L 1032.302098 557.619009 
L 1033.966993 557.619009 
L 1035.631888 549.235805 
L 1037.296783 545.929654 
L 1038.961678 553.078316 
L 1040.626573 549.235805 
L 1042.291469 549.235805 
L 1043.956364 545.929654 
L 1045.621259 557.619009 
L 1047.286154 538.232125 
L 1048.951049 545.929654 
L 1050.615944 545.929654 
L 1052.280839 540.500329 
L 1053.945734 549.235805 
L 1055.610629 563.093958 
L 1057.275524 553.078316 
L 1058.94042 549.235805 
L 1060.605315 545.929654 
L 1062.27021 557.619009 
L 1063.935105 549.235805 
L 1065.6 549.235805 
L 1067.264895 553.078316 
L 1068.92979 557.619009 
L 1070.594685 563.093958 
L 1072.25958 563.093958 
L 1073.924476 549.235805 
L 1075.589371 549.235805 
L 1077.254266 557.619009 
L 1080.584056 557.619009 
L 1082.248951 569.856665 
L 1083.913846 557.619009 
L 1085.578741 569.856665 
L 1087.243636 563.093958 
L 1088.908531 557.619009 
L 1090.573427 553.078316 
L 1092.238322 563.093958 
L 1093.903217 553.078316 
L 1095.568112 557.619009 
L 1097.233007 563.093958 
L 1098.897902 549.235805 
L 1100.562797 557.619009 
L 1102.227692 569.856665 
L 1103.892587 557.619009 
L 1105.557483 543.045528 
L 1107.222378 543.045528 
L 1108.887273 545.929654 
L 1110.552168 553.078316 
L 1112.217063 549.235805 
L 1113.881958 543.045528 
L 1115.546853 545.929654 
L 1117.211748 543.045528 
L 1118.876643 543.045528 
L 1120.541538 540.500329 
L 1122.206434 543.045528 
L 1123.871329 549.235805 
L 1125.536224 549.235805 
L 1127.201119 553.078316 
L 1128.866014 549.235805 
L 1130.530909 553.078316 
L 1132.195804 549.235805 
L 1133.860699 563.093958 
L 1135.525594 543.045528 
L 1137.19049 549.235805 
L 1138.855385 549.235805 
L 1140.52028 545.929654 
L 1143.85007 545.929654 
L 1145.514965 543.045528 
L 1147.17986 534.348499 
L 1148.844755 538.232125 
L 1150.50965 545.929654 
L 1152.174545 543.045528 
L 1153.839441 536.193731 
L 1155.504336 540.500329 
L 1157.169231 534.348499 
L 1158.834126 538.232125 
L 1160.499021 536.193731 
L 1162.163916 531.127486 
L 1163.828811 536.193731 
L 1165.493706 534.348499 
L 1167.158601 538.232125 
L 1170.488392 538.232125 
L 1172.153287 536.193731 
L 1173.818182 540.500329 
L 1175.483077 540.500329 
L 1177.147972 543.045528 
L 1178.812867 540.500329 
L 1183.807552 540.500329 
L 1185.472448 545.929654 
L 1187.137343 536.193731 
L 1188.802238 538.232125 
L 1190.467133 545.929654 
L 1192.132028 549.235805 
L 1193.796923 540.500329 
L 1195.461818 549.235805 
L 1195.461818 549.235805 
" style="fill:none;stroke:#1f77b4;stroke-dasharray:5.55,2.4;stroke-dashoffset:0;stroke-width:1.5;"/>
   </g>
   <g id="line2d_34">
    <path clip-path="url(#p2480f56226)" d="M 221.498182 605.1348 
L 223.163077 475.657762 
L 224.827972 371.70914 
L 238.147133 371.70914 
L 239.812028 378.36024 
L 241.476923 378.36024 
L 243.141818 371.70914 
L 244.806713 371.70914 
L 246.471608 383.925826 
L 248.136503 371.70914 
L 249.801399 371.70914 
L 251.466294 378.36024 
L 253.131189 363.57737 
L 254.796084 378.36024 
L 256.460979 371.70914 
L 258.125874 363.57737 
L 259.790769 378.36024 
L 261.455664 378.36024 
L 263.120559 371.70914 
L 264.785455 378.36024 
L 266.45035 371.70914 
L 268.115245 378.36024 
L 269.78014 378.36024 
L 271.445035 353.337955 
L 273.10993 378.36024 
L 278.104615 378.36024 
L 279.76951 383.925826 
L 281.434406 378.36024 
L 283.099301 378.36024 
L 284.764196 383.925826 
L 286.429091 392.770463 
L 288.093986 388.668544 
L 289.758881 383.925826 
L 293.088671 383.925826 
L 294.753566 378.36024 
L 296.418462 371.70914 
L 298.083357 388.668544 
L 299.748252 383.925826 
L 301.413147 388.668544 
L 303.078042 392.770463 
L 304.742937 396.36219 
L 306.407832 399.5401 
L 308.072727 392.770463 
L 309.737622 396.36219 
L 313.067413 396.36219 
L 314.732308 392.770463 
L 316.397203 392.770463 
L 318.062098 396.36219 
L 321.391888 396.36219 
L 323.056783 399.5401 
L 324.721678 396.36219 
L 326.386573 402.37703 
L 328.051469 396.36219 
L 329.716364 399.5401 
L 331.381259 383.925826 
L 333.046154 388.668544 
L 334.711049 388.668544 
L 336.375944 392.770463 
L 338.040839 392.770463 
L 339.705734 396.36219 
L 341.370629 392.770463 
L 343.035524 396.36219 
L 344.70042 396.36219 
L 346.365315 392.770463 
L 353.024895 392.770463 
L 354.68979 396.36219 
L 356.354685 392.770463 
L 358.01958 396.36219 
L 359.684476 396.36219 
L 361.349371 399.5401 
L 363.014266 396.36219 
L 364.679161 396.36219 
L 366.344056 392.770463 
L 368.008951 396.36219 
L 369.673846 392.770463 
L 371.338741 399.5401 
L 373.003636 396.36219 
L 374.668531 396.36219 
L 376.333427 392.770463 
L 377.998322 396.36219 
L 379.663217 396.36219 
L 381.328112 399.5401 
L 382.993007 399.5401 
L 384.657902 396.36219 
L 389.652587 396.36219 
L 391.317483 392.770463 
L 394.647273 392.770463 
L 396.312168 383.925826 
L 397.977063 396.36219 
L 399.641958 392.770463 
L 401.306853 388.668544 
L 402.971748 392.770463 
L 404.636643 402.37703 
L 406.301538 396.36219 
L 409.631329 396.36219 
L 411.296224 388.668544 
L 412.961119 383.925826 
L 414.626014 388.668544 
L 416.290909 383.925826 
L 417.955804 396.36219 
L 419.620699 396.36219 
L 421.285594 383.925826 
L 422.95049 378.36024 
L 424.615385 399.5401 
L 426.28028 399.5401 
L 427.945175 396.36219 
L 429.61007 383.925826 
L 431.274965 388.668544 
L 432.93986 388.668544 
L 434.604755 378.36024 
L 436.26965 388.668544 
L 437.934545 392.770463 
L 439.599441 383.925826 
L 441.264336 388.668544 
L 442.929231 392.770463 
L 444.594126 383.925826 
L 446.259021 388.668544 
L 447.923916 371.70914 
L 449.588811 371.70914 
L 451.253706 363.57737 
L 452.918601 378.36024 
L 454.583497 399.5401 
L 456.248392 392.770463 
L 457.913287 388.668544 
L 459.578182 388.668544 
L 461.243077 392.770463 
L 462.907972 392.770463 
L 464.572867 378.36024 
L 466.237762 371.70914 
L 467.902657 363.57737 
L 469.567552 353.337955 
L 471.232448 363.57737 
L 472.897343 321.344664 
L 474.562238 339.924688 
L 476.227133 363.57737 
L 477.892028 363.57737 
L 479.556923 339.924688 
L 481.221818 363.57737 
L 482.886713 371.70914 
L 484.551608 371.70914 
L 486.216503 321.344664 
L 487.881399 244.43486 
L 489.546294 321.344664 
L 491.211189 339.924688 
L 492.876084 363.57737 
L 494.540979 363.57737 
L 496.205874 339.924688 
L 497.870769 339.924688 
L 499.535664 371.70914 
L 501.200559 339.924688 
L 502.865455 353.337955 
L 504.53035 127.509617 
L 506.195245 371.70914 
L 507.86014 339.924688 
L 509.525035 339.924688 
L 511.18993 353.337955 
L 512.854825 371.70914 
L 514.51972 363.57737 
L 516.184615 321.344664 
L 517.84951 321.344664 
L 519.514406 353.337955 
L 521.179301 363.57737 
L 522.844196 353.337955 
L 524.509091 339.924688 
L 526.173986 371.70914 
L 527.838881 353.337955 
L 534.498462 353.337955 
L 536.163357 363.57737 
L 537.828252 339.924688 
L 539.493147 353.337955 
L 541.158042 383.925826 
L 542.822937 383.925826 
L 544.487832 378.36024 
L 547.817622 378.36024 
L 549.482517 383.925826 
L 551.147413 383.925826 
L 552.812308 371.70914 
L 554.477203 378.36024 
L 557.806993 378.36024 
L 559.471888 388.668544 
L 561.136783 383.925826 
L 562.801678 363.57737 
L 564.466573 378.36024 
L 566.131469 371.70914 
L 567.796364 388.668544 
L 569.461259 383.925826 
L 571.126154 383.925826 
L 572.791049 371.70914 
L 574.455944 383.925826 
L 576.120839 388.668544 
L 577.785734 388.668544 
L 579.450629 392.770463 
L 581.115524 378.36024 
L 582.78042 388.668544 
L 584.445315 383.925826 
L 586.11021 378.36024 
L 587.775105 363.57737 
L 589.44 378.36024 
L 591.104895 383.925826 
L 592.76979 371.70914 
L 594.434685 383.925826 
L 596.09958 371.70914 
L 597.764476 353.337955 
L 599.429371 371.70914 
L 601.094266 363.57737 
L 602.759161 371.70914 
L 604.424056 363.57737 
L 606.088951 371.70914 
L 607.753846 363.57737 
L 609.418741 363.57737 
L 611.083636 353.337955 
L 612.748531 363.57737 
L 614.413427 371.70914 
L 616.078322 353.337955 
L 617.743217 363.57737 
L 619.408112 339.924688 
L 621.073007 353.337955 
L 622.737902 363.57737 
L 624.402797 371.70914 
L 626.067692 353.337955 
L 627.732587 371.70914 
L 629.397483 353.337955 
L 631.062378 371.70914 
L 632.727273 371.70914 
L 634.392168 353.337955 
L 636.057063 321.344664 
L 637.721958 363.57737 
L 639.386853 321.344664 
L 641.051748 363.57737 
L 642.716643 353.337955 
L 644.381538 353.337955 
L 646.046434 339.924688 
L 647.711329 371.70914 
L 649.376224 363.57737 
L 651.041119 353.337955 
L 652.706014 363.57737 
L 654.370909 363.57737 
L 656.035804 371.70914 
L 657.700699 378.36024 
L 659.365594 383.925826 
L 661.03049 378.36024 
L 662.695385 371.70914 
L 664.36028 388.668544 
L 666.025175 388.668544 
L 667.69007 363.57737 
L 669.354965 371.70914 
L 671.01986 378.36024 
L 672.684755 383.925826 
L 674.34965 383.925826 
L 676.014545 378.36024 
L 677.679441 363.57737 
L 679.344336 371.70914 
L 681.009231 371.70914 
L 682.674126 383.925826 
L 684.339021 388.668544 
L 686.003916 371.70914 
L 687.668811 388.668544 
L 689.333706 383.925826 
L 690.998601 383.925826 
L 692.663497 392.770463 
L 694.328392 383.925826 
L 697.658182 383.925826 
L 699.323077 388.668544 
L 700.987972 388.668544 
L 702.652867 392.770463 
L 704.317762 383.925826 
L 705.982657 392.770463 
L 707.647552 392.770463 
L 709.312448 383.925826 
L 710.977343 378.36024 
L 712.642238 378.36024 
L 714.307133 383.925826 
L 715.972028 383.925826 
L 717.636923 388.668544 
L 719.301818 392.770463 
L 720.966713 392.770463 
L 722.631608 396.36219 
L 724.296503 388.668544 
L 725.961399 392.770463 
L 730.956084 392.770463 
L 732.620979 396.36219 
L 734.285874 396.36219 
L 735.950769 388.668544 
L 737.615664 388.668544 
L 739.280559 378.36024 
L 740.945455 388.668544 
L 742.61035 392.770463 
L 744.275245 396.36219 
L 745.94014 383.925826 
L 747.605035 378.36024 
L 749.26993 399.5401 
L 750.934825 383.925826 
L 752.59972 392.770463 
L 754.264615 383.925826 
L 757.594406 383.925826 
L 759.259301 392.770463 
L 764.253986 392.770463 
L 765.918881 371.70914 
L 767.583776 388.668544 
L 770.913566 388.668544 
L 772.578462 396.36219 
L 774.243357 383.925826 
L 775.908252 383.925826 
L 777.573147 371.70914 
L 779.238042 353.337955 
L 780.902937 383.925826 
L 782.567832 378.36024 
L 784.232727 378.36024 
L 785.897622 371.70914 
L 787.562517 378.36024 
L 789.227413 383.925826 
L 790.892308 378.36024 
L 792.557203 388.668544 
L 794.222098 383.925826 
L 795.886993 383.925826 
L 797.551888 392.770463 
L 799.216783 392.770463 
L 800.881678 388.668544 
L 802.546573 388.668544 
L 804.211469 378.36024 
L 805.876364 378.36024 
L 807.541259 371.70914 
L 809.206154 378.36024 
L 810.871049 388.668544 
L 812.535944 388.668544 
L 814.200839 392.770463 
L 815.865734 392.770463 
L 817.530629 396.36219 
L 819.195524 392.770463 
L 820.86042 378.36024 
L 822.525315 383.925826 
L 824.19021 388.668544 
L 825.855105 388.668544 
L 827.52 371.70914 
L 829.184895 383.925826 
L 830.84979 371.70914 
L 832.514685 371.70914 
L 834.17958 363.57737 
L 835.844476 378.36024 
L 837.509371 371.70914 
L 839.174266 383.925826 
L 840.839161 378.36024 
L 842.504056 388.668544 
L 844.168951 378.36024 
L 845.833846 383.925826 
L 847.498741 392.770463 
L 849.163636 383.925826 
L 850.828531 371.70914 
L 852.493427 378.36024 
L 854.158322 363.57737 
L 855.823217 388.668544 
L 857.488112 383.925826 
L 859.153007 378.36024 
L 860.817902 353.337955 
L 865.812587 353.337955 
L 867.477483 293.324415 
L 870.807273 293.324415 
L 872.472168 321.344664 
L 875.801958 321.344664 
L 877.466853 293.324415 
L 879.131748 321.344664 
L 880.796643 321.344664 
L 882.461538 339.924688 
L 884.126434 293.324415 
L 885.791329 353.337955 
L 887.456224 353.337955 
L 889.121119 371.70914 
L 890.786014 363.57737 
L 892.450909 353.337955 
L 894.115804 353.337955 
L 895.780699 363.57737 
L 897.445594 353.337955 
L 899.11049 339.924688 
L 900.775385 371.70914 
L 902.44028 363.57737 
L 904.105175 371.70914 
L 905.77007 363.57737 
L 909.09986 363.57737 
L 910.764755 353.337955 
L 912.42965 339.924688 
L 914.094545 339.924688 
L 915.759441 353.337955 
L 917.424336 353.337955 
L 919.089231 321.344664 
L 920.754126 293.324415 
L 922.419021 293.324415 
L 924.083916 321.344664 
L 925.748811 321.344664 
L 927.413706 339.924688 
L 929.078601 321.344664 
L 930.743497 339.924688 
L 932.408392 293.324415 
L 934.073287 339.924688 
L 935.738182 353.337955 
L 937.403077 339.924688 
L 939.067972 293.324415 
L 940.732867 353.337955 
L 942.397762 321.344664 
L 944.062657 339.924688 
L 945.727552 339.924688 
L 947.392448 321.344664 
L 949.057343 339.924688 
L 950.722238 321.344664 
L 952.387133 339.924688 
L 954.052028 321.344664 
L 955.716923 339.924688 
L 957.381818 339.924688 
L 959.046713 321.344664 
L 960.711608 353.337955 
L 962.376503 321.344664 
L 964.041399 353.337955 
L 967.371189 353.337955 
L 969.036084 293.324415 
L 970.700979 363.57737 
L 977.360559 363.57737 
L 979.025455 371.70914 
L 980.69035 353.337955 
L 982.355245 363.57737 
L 984.02014 378.36024 
L 985.685035 371.70914 
L 987.34993 371.70914 
L 989.014825 353.337955 
L 990.67972 353.337955 
L 992.344615 371.70914 
L 994.00951 321.344664 
L 995.674406 371.70914 
L 997.339301 353.337955 
L 999.004196 363.57737 
L 1000.669091 363.57737 
L 1002.333986 378.36024 
L 1003.998881 363.57737 
L 1005.663776 353.337955 
L 1007.328671 353.337955 
L 1008.993566 378.36024 
L 1010.658462 388.668544 
L 1012.323357 371.70914 
L 1013.988252 388.668544 
L 1015.653147 371.70914 
L 1017.318042 383.925826 
L 1018.982937 378.36024 
L 1020.647832 383.925826 
L 1022.312727 371.70914 
L 1023.977622 378.36024 
L 1025.642517 371.70914 
L 1027.307413 383.925826 
L 1028.972308 383.925826 
L 1030.637203 371.70914 
L 1032.302098 353.337955 
L 1033.966993 353.337955 
L 1035.631888 371.70914 
L 1037.296783 378.36024 
L 1038.961678 363.57737 
L 1040.626573 371.70914 
L 1042.291469 371.70914 
L 1043.956364 378.36024 
L 1045.621259 353.337955 
L 1047.286154 392.770463 
L 1048.951049 378.36024 
L 1050.615944 378.36024 
L 1052.280839 388.668544 
L 1053.945734 371.70914 
L 1055.610629 339.924688 
L 1057.275524 363.57737 
L 1058.94042 371.70914 
L 1060.605315 378.36024 
L 1062.27021 353.337955 
L 1063.935105 371.70914 
L 1065.6 371.70914 
L 1067.264895 363.57737 
L 1068.92979 353.337955 
L 1070.594685 339.924688 
L 1072.25958 339.924688 
L 1073.924476 371.70914 
L 1075.589371 371.70914 
L 1077.254266 353.337955 
L 1080.584056 353.337955 
L 1082.248951 321.344664 
L 1083.913846 353.337955 
L 1085.578741 321.344664 
L 1087.243636 339.924688 
L 1088.908531 353.337955 
L 1090.573427 363.57737 
L 1092.238322 339.924688 
L 1093.903217 363.57737 
L 1095.568112 353.337955 
L 1097.233007 339.924688 
L 1098.897902 371.70914 
L 1100.562797 353.337955 
L 1102.227692 321.344664 
L 1105.557483 383.925826 
L 1107.222378 383.925826 
L 1108.887273 378.36024 
L 1110.552168 363.57737 
L 1112.217063 371.70914 
L 1113.881958 383.925826 
L 1115.546853 378.36024 
L 1117.211748 383.925826 
L 1118.876643 383.925826 
L 1120.541538 388.668544 
L 1122.206434 383.925826 
L 1123.871329 371.70914 
L 1125.536224 371.70914 
L 1127.201119 363.57737 
L 1128.866014 371.70914 
L 1130.530909 363.57737 
L 1132.195804 371.70914 
L 1133.860699 339.924688 
L 1135.525594 383.925826 
L 1137.19049 371.70914 
L 1138.855385 371.70914 
L 1140.52028 378.36024 
L 1143.85007 378.36024 
L 1145.514965 383.925826 
L 1147.17986 399.5401 
L 1148.844755 392.770463 
L 1150.50965 378.36024 
L 1152.174545 383.925826 
L 1153.839441 396.36219 
L 1155.504336 388.668544 
L 1157.169231 399.5401 
L 1158.834126 392.770463 
L 1160.499021 396.36219 
L 1162.163916 404.92916 
L 1163.828811 396.36219 
L 1165.493706 399.5401 
L 1167.158601 392.770463 
L 1170.488392 392.770463 
L 1172.153287 396.36219 
L 1173.818182 388.668544 
L 1175.483077 388.668544 
L 1177.147972 383.925826 
L 1178.812867 388.668544 
L 1183.807552 388.668544 
L 1185.472448 378.36024 
L 1187.137343 396.36219 
L 1188.802238 392.770463 
L 1190.467133 378.36024 
L 1192.132028 371.70914 
L 1193.796923 388.668544 
L 1195.461818 371.70914 
L 1195.461818 371.70914 
" style="fill:none;stroke:#ff7f0e;stroke-dasharray:5.55,2.4;stroke-dashoffset:0;stroke-width:1.5;"/>
   </g>
   <g id="line2d_35">
    <path clip-path="url(#p2480f56226)" d="M 221.498182 605.1348 
L 223.163077 475.657762 
L 224.827972 605.134621 
L 241.476923 605.13335 
L 243.141818 604.931661 
L 246.471608 604.772801 
L 248.136503 604.443267 
L 249.801399 604.894536 
L 253.131189 604.706072 
L 254.796084 601.704866 
L 256.460979 604.182484 
L 258.125874 604.834948 
L 259.790769 604.912357 
L 261.455664 603.951024 
L 263.120559 604.653077 
L 266.45035 603.560576 
L 268.115245 602.613417 
L 269.78014 602.10816 
L 271.445035 602.749144 
L 273.10993 601.399743 
L 274.774825 602.312097 
L 276.43972 532.09358 
L 278.104615 453.058269 
L 279.76951 304.264524 
L 281.434406 418.297785 
L 284.764196 532.572245 
L 286.429091 495.447775 
L 288.093986 563.959131 
L 291.423776 587.581617 
L 293.088671 588.629632 
L 294.753566 588.925516 
L 296.418462 588.199593 
L 298.083357 591.860663 
L 299.748252 467.419181 
L 301.413147 468.021089 
L 303.078042 385.490107 
L 304.742937 552.944442 
L 306.407832 523.714838 
L 308.072727 534.334948 
L 309.737622 446.036603 
L 311.402517 570.795961 
L 313.067413 503.424367 
L 314.732308 593.403423 
L 316.397203 595.919788 
L 318.062098 591.239655 
L 319.726993 593.220031 
L 321.391888 595.630417 
L 323.056783 579.799246 
L 324.721678 597.184882 
L 326.386573 486.797953 
L 328.051469 592.012425 
L 329.716364 585.441934 
L 331.381259 595.829614 
L 333.046154 551.876276 
L 334.711049 599.869693 
L 336.375944 531.352185 
L 338.040839 581.242572 
L 339.705734 583.556109 
L 343.035524 590.027911 
L 344.70042 591.965432 
L 346.365315 592.665374 
L 348.03021 594.070788 
L 349.695105 601.822883 
L 351.36 595.267505 
L 353.024895 596.177765 
L 354.68979 597.55366 
L 356.354685 597.666457 
L 358.01958 598.36465 
L 361.349371 599.348207 
L 363.014266 599.731767 
L 364.679161 598.698065 
L 366.344056 603.24937 
L 368.008951 600.554681 
L 373.003636 601.247069 
L 377.998322 601.849516 
L 379.663217 601.975984 
L 381.328112 602.342522 
L 382.993007 602.097813 
L 384.657902 602.399917 
L 389.652587 602.752392 
L 391.317483 603.981179 
L 392.982378 521.519381 
L 394.647273 603.395103 
L 396.312168 603.994423 
L 397.977063 600.83453 
L 399.641958 603.142176 
L 402.971748 465.769247 
L 404.636643 560.064219 
L 406.301538 560.366819 
L 407.966434 588.428906 
L 409.631329 603.652025 
L 411.296224 603.610988 
L 412.961119 600.104432 
L 414.626014 601.292366 
L 416.290909 545.250467 
L 417.955804 353.932607 
L 419.620699 513.829833 
L 421.285594 556.384886 
L 422.95049 455.093089 
L 424.615385 553.627846 
L 426.28028 569.596701 
L 427.945175 420.368426 
L 429.61007 587.354847 
L 431.274965 527.987481 
L 432.93986 513.500849 
L 434.604755 403.983113 
L 436.26965 551.526273 
L 437.934545 438.517897 
L 439.599441 530.882355 
L 441.264336 418.876009 
L 442.929231 510.393801 
L 444.594126 519.066136 
L 446.259021 425.255076 
L 447.923916 545.467892 
L 449.588811 551.539453 
L 451.253706 548.076468 
L 452.918601 534.780502 
L 454.583497 341.486702 
L 456.248392 578.01088 
L 457.913287 311.695332 
L 459.578182 375.684165 
L 461.243077 542.731484 
L 462.907972 259.6998 
L 464.572867 443.551676 
L 466.237762 447.614603 
L 467.902657 557.180472 
L 469.567552 439.084812 
L 471.232448 405.363055 
L 472.897343 293.514993 
L 474.562238 548.530381 
L 476.227133 481.796926 
L 477.892028 329.91605 
L 479.556923 438.703881 
L 481.221818 518.328287 
L 482.886713 390.830244 
L 484.551608 550.015981 
L 486.216503 558.13764 
L 487.881399 554.87297 
L 489.546294 442.481745 
L 491.211189 388.481562 
L 492.876084 341.311463 
L 494.540979 397.274004 
L 496.205874 531.359556 
L 497.870769 562.514664 
L 499.535664 350.906876 
L 501.200559 385.339952 
L 502.865455 444.3885 
L 504.53035 550.134172 
L 506.195245 366.92305 
L 507.86014 416.232828 
L 509.525035 381.082688 
L 511.18993 415.936753 
L 512.854825 434.146708 
L 514.51972 321.107845 
L 516.184615 448.976823 
L 517.84951 451.370912 
L 519.514406 279.290572 
L 521.179301 345.685489 
L 522.844196 463.269013 
L 524.509091 381.813986 
L 526.173986 280.157765 
L 527.838881 403.496543 
L 529.503776 364.687346 
L 531.168671 336.069307 
L 532.833566 292.182223 
L 536.163357 181.172716 
L 537.828252 159.668246 
L 541.158042 269.242538 
L 542.822937 278.697154 
L 544.487832 242.577988 
L 546.152727 229.311547 
L 547.817622 239.303697 
L 549.482517 228.288223 
L 551.147413 234.545559 
L 552.812308 254.163931 
L 554.477203 253.455542 
L 556.142098 290.873913 
L 557.806993 271.130796 
L 559.471888 284.008434 
L 561.136783 322.988002 
L 562.801678 280.67563 
L 564.466573 301.578326 
L 566.131469 439.82291 
L 567.796364 478.926316 
L 569.461259 302.572842 
L 571.126154 301.122599 
L 572.791049 242.416954 
L 574.455944 351.954768 
L 576.120839 378.47634 
L 577.785734 387.707253 
L 579.450629 361.258267 
L 581.115524 393.983352 
L 582.78042 434.837318 
L 584.445315 442.538488 
L 586.11021 429.409808 
L 587.775105 464.659491 
L 589.44 453.104115 
L 591.104895 442.328128 
L 592.76979 454.25505 
L 594.434685 445.537522 
L 596.09958 378.716533 
L 597.764476 510.693154 
L 599.429371 549.095342 
L 601.094266 531.201092 
L 602.759161 508.297069 
L 604.424056 539.028442 
L 606.088951 478.011116 
L 607.753846 437.467418 
L 609.418741 534.935317 
L 611.083636 248.041185 
L 612.748531 311.802557 
L 614.413427 295.609388 
L 616.078322 456.803777 
L 617.743217 509.456351 
L 619.408112 595.991177 
L 622.737902 532.405787 
L 624.402797 555.552307 
L 626.067692 564.241852 
L 627.732587 433.56453 
L 629.397483 548.635857 
L 631.062378 557.812391 
L 632.727273 555.359696 
L 634.392168 490.038109 
L 636.057063 548.114452 
L 637.721958 557.422349 
L 639.386853 564.798393 
L 641.051748 377.678004 
L 642.716643 396.890008 
L 644.381538 569.050709 
L 646.046434 571.150153 
L 647.711329 333.451496 
L 649.376224 545.604821 
L 651.041119 477.511503 
L 652.706014 544.703661 
L 654.370909 558.080535 
L 656.035804 522.583811 
L 657.700699 552.728572 
L 659.365594 561.886307 
L 661.03049 563.027201 
L 662.695385 564.8851 
L 664.36028 568.976493 
L 666.025175 286.661835 
L 667.69007 557.183159 
L 669.354965 515.206578 
L 671.01986 546.74368 
L 672.684755 474.732612 
L 674.34965 370.594503 
L 676.014545 560.600413 
L 677.679441 561.507764 
L 679.344336 562.602148 
L 681.009231 493.679403 
L 682.674126 567.162944 
L 684.339021 456.822253 
L 686.003916 509.545825 
L 687.668811 526.03408 
L 689.333706 574.751018 
L 690.998601 522.034704 
L 692.663497 500.056113 
L 695.993287 581.469896 
L 697.658182 540.12273 
L 699.323077 549.080482 
L 700.987972 550.416445 
L 702.652867 559.338818 
L 704.317762 555.344915 
L 705.982657 562.436776 
L 707.647552 536.759454 
L 709.312448 560.348965 
L 710.977343 596.418184 
L 712.642238 564.037589 
L 714.307133 566.510421 
L 715.972028 565.574188 
L 717.636923 572.464352 
L 719.301818 563.990793 
L 720.966713 574.727307 
L 722.631608 575.623864 
L 724.296503 577.53968 
L 725.961399 577.3747 
L 727.626294 579.788682 
L 729.291189 579.719181 
L 732.620979 583.122559 
L 734.285874 597.795201 
L 735.950769 580.809897 
L 737.615664 521.340463 
L 739.280559 596.881936 
L 740.945455 522.566656 
L 742.61035 501.143053 
L 744.275245 568.7068 
L 745.94014 521.801168 
L 747.605035 593.537773 
L 749.26993 490.179015 
L 750.934825 549.635802 
L 752.59972 546.503525 
L 754.264615 585.178597 
L 755.92951 555.502866 
L 757.594406 569.488348 
L 759.259301 551.503659 
L 760.924196 568.740674 
L 762.589091 584.232173 
L 764.253986 568.783412 
L 765.918881 598.828926 
L 767.583776 547.545768 
L 769.248671 575.206058 
L 770.913566 519.152157 
L 772.578462 559.472226 
L 774.243357 587.012956 
L 775.908252 596.647217 
L 777.573147 583.43956 
L 779.238042 589.389159 
L 780.902937 582.633642 
L 782.567832 592.480481 
L 784.232727 592.06699 
L 785.897622 589.507189 
L 787.562517 590.016458 
L 789.227413 567.852441 
L 790.892308 564.828284 
L 792.557203 494.200406 
L 794.222098 487.28756 
L 795.886993 592.961203 
L 797.551888 474.3433 
L 799.216783 476.698783 
L 800.881678 501.390266 
L 802.546573 559.535479 
L 804.211469 593.69221 
L 805.876364 531.749568 
L 807.541259 458.40224 
L 809.206154 479.109572 
L 810.871049 446.955659 
L 812.535944 556.067481 
L 814.200839 555.353582 
L 815.865734 466.398423 
L 817.530629 537.65985 
L 819.195524 542.877201 
L 820.86042 486.18478 
L 822.525315 569.537244 
L 824.19021 577.579516 
L 825.855105 568.93782 
L 827.52 563.138174 
L 829.184895 574.915974 
L 830.84979 576.392314 
L 832.514685 576.850293 
L 834.17958 583.19894 
L 835.844476 455.988439 
L 837.509371 441.566217 
L 839.174266 472.051842 
L 840.839161 525.497895 
L 842.504056 515.646675 
L 844.168951 498.405795 
L 845.833846 457.040793 
L 847.498741 422.596966 
L 849.163636 421.605349 
L 850.828531 390.492115 
L 852.493427 432.919974 
L 854.158322 414.551194 
L 855.823217 424.164053 
L 857.488112 418.30739 
L 859.153007 424.519493 
L 860.817902 447.569836 
L 862.482797 441.912048 
L 864.147692 413.755931 
L 867.477483 557.005558 
L 869.142378 464.846174 
L 870.807273 466.928057 
L 872.472168 501.381776 
L 874.137063 512.293189 
L 875.801958 532.916 
L 877.466853 511.171962 
L 879.131748 496.177618 
L 880.796643 526.328509 
L 882.461538 289.953306 
L 884.126434 548.317596 
L 885.791329 572.798703 
L 887.456224 573.119672 
L 889.121119 573.147868 
L 890.786014 556.655144 
L 892.450909 538.633461 
L 894.115804 526.1005 
L 895.780699 540.10491 
L 897.445594 505.948007 
L 899.11049 534.585033 
L 900.775385 500.89908 
L 902.44028 515.251469 
L 904.105175 519.915599 
L 905.77007 504.111821 
L 907.434965 495.714993 
L 909.09986 502.78469 
L 910.764755 496.152793 
L 912.42965 479.953875 
L 914.094545 469.442989 
L 915.759441 462.601408 
L 917.424336 483.553736 
L 919.089231 462.191419 
L 920.754126 445.814382 
L 922.419021 426.172779 
L 924.083916 479.66191 
L 925.748811 426.647148 
L 927.413706 440.505669 
L 929.078601 431.956944 
L 930.743497 439.981583 
L 932.408392 378.140321 
L 934.073287 451.076087 
L 935.738182 466.108988 
L 937.403077 493.766217 
L 939.067972 481.658221 
L 940.732867 542.589999 
L 942.397762 522.687222 
L 944.062657 418.55588 
L 945.727552 539.632801 
L 947.392448 535.59236 
L 949.057343 350.680543 
L 950.722238 351.129919 
L 952.387133 261.291467 
L 954.052028 458.249199 
L 955.716923 498.997876 
L 957.381818 486.333011 
L 959.046713 532.526702 
L 960.711608 526.378646 
L 962.376503 595.906681 
L 964.041399 500.746306 
L 965.706294 186.195737 
L 967.371189 316.286377 
L 969.036084 563.032283 
L 970.700979 517.429108 
L 972.365874 498.297027 
L 974.030769 337.93639 
L 975.695664 342.314464 
L 977.360559 329.606442 
L 980.69035 238.348359 
L 982.355245 275.875273 
L 984.02014 361.436284 
L 985.685035 402.897817 
L 987.34993 439.332876 
L 989.014825 365.5851 
L 990.67972 457.741389 
L 992.344615 289.072652 
L 994.00951 297.944593 
L 995.674406 284.076806 
L 997.339301 327.17369 
L 999.004196 172.585114 
L 1000.669091 188.516537 
L 1002.333986 214.00555 
L 1003.998881 267.560518 
L 1005.663776 144.565254 
L 1007.328671 245.413248 
L 1008.993566 263.009616 
L 1010.658462 285.828165 
L 1012.323357 456.839911 
L 1013.988252 431.033503 
L 1015.653147 423.8509 
L 1017.318042 326.466525 
L 1018.982937 323.949687 
L 1022.312727 439.626111 
L 1023.977622 374.140429 
L 1025.642517 356.456982 
L 1027.307413 305.42649 
L 1028.972308 266.826816 
L 1030.637203 419.904838 
L 1032.302098 251.25181 
L 1033.966993 279.251672 
L 1035.631888 197.8284 
L 1037.296783 290.183324 
L 1038.961678 172.863323 
L 1040.626573 237.182213 
L 1042.291469 211.359237 
L 1043.956364 295.539799 
L 1045.621259 262.044523 
L 1047.286154 263.28445 
L 1048.951049 402.323135 
L 1050.615944 336.184661 
L 1052.280839 250.010107 
L 1053.945734 295.879954 
L 1055.610629 109.7028 
L 1057.275524 294.817911 
L 1058.94042 312.657569 
L 1060.605315 295.273654 
L 1062.27021 274.93981 
L 1063.935105 352.242674 
L 1065.6 220.749109 
L 1067.264895 214.043711 
L 1068.92979 247.762369 
L 1070.594685 246.400554 
L 1072.25958 233.955037 
L 1073.924476 268.458427 
L 1075.589371 406.66393 
L 1077.254266 260.980403 
L 1078.919161 280.191536 
L 1080.584056 292.352029 
L 1082.248951 201.557554 
L 1083.913846 287.411804 
L 1085.578741 479.406139 
L 1087.243636 518.45123 
L 1088.908531 469.284279 
L 1090.573427 410.587088 
L 1092.238322 410.417061 
L 1093.903217 245.448337 
L 1095.568112 351.470735 
L 1097.233007 233.517272 
L 1098.897902 316.514513 
L 1100.562797 439.476589 
L 1102.227692 475.813538 
L 1103.892587 252.862999 
L 1105.557483 276.537587 
L 1107.222378 330.54696 
L 1108.887273 395.557179 
L 1110.552168 373.102456 
L 1112.217063 389.907609 
L 1113.881958 376.050991 
L 1115.546853 376.477514 
L 1117.211748 304.248846 
L 1118.876643 396.432634 
L 1120.541538 280.672239 
L 1122.206434 265.898536 
L 1123.871329 317.285185 
L 1125.536224 373.322046 
L 1127.201119 321.92369 
L 1128.866014 401.492451 
L 1130.530909 417.325184 
L 1132.195804 389.898671 
L 1133.860699 384.601189 
L 1135.525594 424.074617 
L 1137.19049 452.607247 
L 1138.855385 405.783156 
L 1140.52028 254.163606 
L 1142.185175 209.401561 
L 1143.85007 314.7885 
L 1145.514965 391.615254 
L 1147.17986 378.835692 
L 1148.844755 386.338987 
L 1150.50965 361.725894 
L 1152.174545 370.904446 
L 1153.839441 420.908364 
L 1155.504336 419.948063 
L 1157.169231 424.265753 
L 1158.834126 423.977383 
L 1160.499021 395.415547 
L 1162.163916 417.348928 
L 1163.828811 403.162144 
L 1165.493706 360.090365 
L 1167.158601 382.260492 
L 1168.823497 351.491662 
L 1170.488392 398.367784 
L 1172.153287 403.726027 
L 1173.818182 370.288629 
L 1175.483077 360.154509 
L 1177.147972 355.404442 
L 1178.812867 431.754078 
L 1180.477762 378.111938 
L 1182.142657 415.744461 
L 1185.472448 456.848927 
L 1187.137343 355.520828 
L 1188.802238 375.563656 
L 1190.467133 421.183815 
L 1192.132028 328.654678 
L 1193.796923 302.291667 
L 1195.461818 291.263497 
L 1195.461818 291.263497 
" style="fill:none;stroke:#2ca02c;stroke-linecap:square;stroke-width:0.5;"/>
   </g>
   <g id="patch_3">
    <path d="M 172.8 629.9064 
L 172.8 84.9312 
" style="fill:none;stroke:#000000;stroke-linecap:square;stroke-linejoin:miter;stroke-width:0.8;"/>
   </g>
   <g id="patch_4">
    <path d="M 1244.16 629.9064 
L 1244.16 84.9312 
" style="fill:none;stroke:#000000;stroke-linecap:square;stroke-linejoin:miter;stroke-width:0.8;"/>
   </g>
   <g id="patch_5">
    <path d="M 172.8 629.9064 
L 1244.16 629.9064 
" style="fill:none;stroke:#000000;stroke-linecap:square;stroke-linejoin:miter;stroke-width:0.8;"/>
   </g>
   <g id="patch_6">
    <path d="M 172.8 84.9312 
L 1244.16 84.9312 
" style="fill:none;stroke:#000000;stroke-linecap:square;stroke-linejoin:miter;stroke-width:0.8;"/>
   </g>
   <g id="text_17">
    <!-- NIS, 41.47% inside CI -->
    <g transform="translate(644.184375 78.9312)scale(0.12 -0.12)">
     <defs>
      <path d="M 628 4666 
L 1478 4666 
L 3547 763 
L 3547 4666 
L 4159 4666 
L 4159 0 
L 3309 0 
L 1241 3903 
L 1241 0 
L 628 0 
L 628 4666 
z
" id="DejaVuSans-4e" transform="scale(0.015625)"/>
      <path d="M 628 4666 
L 1259 4666 
L 1259 0 
L 628 0 
L 628 4666 
z
" id="DejaVuSans-49" transform="scale(0.015625)"/>
      <path d="M 3425 4513 
L 3425 3897 
Q 3066 4069 2747 4153 
Q 2428 4238 2131 4238 
Q 1616 4238 1336 4038 
Q 1056 3838 1056 3469 
Q 1056 3159 1242 3001 
Q 1428 2844 1947 2747 
L 2328 2669 
Q 3034 2534 3370 2195 
Q 3706 1856 3706 1288 
Q 3706 609 3251 259 
Q 2797 -91 1919 -91 
Q 1588 -91 1214 -16 
Q 841 59 441 206 
L 441 856 
Q 825 641 1194 531 
Q 1563 422 1919 422 
Q 2459 422 2753 634 
Q 3047 847 3047 1241 
Q 3047 1584 2836 1778 
Q 2625 1972 2144 2069 
L 1759 2144 
Q 1053 2284 737 2584 
Q 422 2884 422 3419 
Q 422 4038 858 4394 
Q 1294 4750 2059 4750 
Q 2388 4750 2728 4690 
Q 3069 4631 3425 4513 
z
" id="DejaVuSans-53" transform="scale(0.015625)"/>
      <path d="M 750 794 
L 1409 794 
L 1409 256 
L 897 -744 
L 494 -744 
L 750 256 
L 750 794 
z
" id="DejaVuSans-2c" transform="scale(0.015625)"/>
      <path id="DejaVuSans-20" transform="scale(0.015625)"/>
      <path d="M 525 4666 
L 3525 4666 
L 3525 4397 
L 1831 0 
L 1172 0 
L 2766 4134 
L 525 4134 
L 525 4666 
z
" id="DejaVuSans-37" transform="scale(0.015625)"/>
      <path d="M 4653 2053 
Q 4381 2053 4226 1822 
Q 4072 1591 4072 1178 
Q 4072 772 4226 539 
Q 4381 306 4653 306 
Q 4919 306 5073 539 
Q 5228 772 5228 1178 
Q 5228 1588 5073 1820 
Q 4919 2053 4653 2053 
z
M 4653 2450 
Q 5147 2450 5437 2106 
Q 5728 1763 5728 1178 
Q 5728 594 5436 251 
Q 5144 -91 4653 -91 
Q 4153 -91 3862 251 
Q 3572 594 3572 1178 
Q 3572 1766 3864 2108 
Q 4156 2450 4653 2450 
z
M 1428 4353 
Q 1159 4353 1004 4120 
Q 850 3888 850 3481 
Q 850 3069 1003 2837 
Q 1156 2606 1428 2606 
Q 1700 2606 1854 2837 
Q 2009 3069 2009 3481 
Q 2009 3884 1853 4118 
Q 1697 4353 1428 4353 
z
M 4250 4750 
L 4750 4750 
L 1831 -91 
L 1331 -91 
L 4250 4750 
z
M 1428 4750 
Q 1922 4750 2215 4408 
Q 2509 4066 2509 3481 
Q 2509 2891 2217 2550 
Q 1925 2209 1428 2209 
Q 931 2209 642 2551 
Q 353 2894 353 3481 
Q 353 4063 643 4406 
Q 934 4750 1428 4750 
z
" id="DejaVuSans-25" transform="scale(0.015625)"/>
      <path d="M 603 3500 
L 1178 3500 
L 1178 0 
L 603 0 
L 603 3500 
z
M 603 4863 
L 1178 4863 
L 1178 4134 
L 603 4134 
L 603 4863 
z
" id="DejaVuSans-69" transform="scale(0.015625)"/>
      <path d="M 3513 2113 
L 3513 0 
L 2938 0 
L 2938 2094 
Q 2938 2591 2744 2837 
Q 2550 3084 2163 3084 
Q 1697 3084 1428 2787 
Q 1159 2491 1159 1978 
L 1159 0 
L 581 0 
L 581 3500 
L 1159 3500 
L 1159 2956 
Q 1366 3272 1645 3428 
Q 1925 3584 2291 3584 
Q 2894 3584 3203 3211 
Q 3513 2838 3513 2113 
z
" id="DejaVuSans-6e" transform="scale(0.015625)"/>
      <path d="M 2834 3397 
L 2834 2853 
Q 2591 2978 2328 3040 
Q 2066 3103 1784 3103 
Q 1356 3103 1142 2972 
Q 928 2841 928 2578 
Q 928 2378 1081 2264 
Q 1234 2150 1697 2047 
L 1894 2003 
Q 2506 1872 2764 1633 
Q 3022 1394 3022 966 
Q 3022 478 2636 193 
Q 2250 -91 1575 -91 
Q 1294 -91 989 -36 
Q 684 19 347 128 
L 347 722 
Q 666 556 975 473 
Q 1284 391 1588 391 
Q 1994 391 2212 530 
Q 2431 669 2431 922 
Q 2431 1156 2273 1281 
Q 2116 1406 1581 1522 
L 1381 1569 
Q 847 1681 609 1914 
Q 372 2147 372 2553 
Q 372 3047 722 3315 
Q 1072 3584 1716 3584 
Q 2034 3584 2315 3537 
Q 2597 3491 2834 3397 
z
" id="DejaVuSans-73" transform="scale(0.015625)"/>
      <path d="M 2906 2969 
L 2906 4863 
L 3481 4863 
L 3481 0 
L 2906 0 
L 2906 525 
Q 2725 213 2448 61 
Q 2172 -91 1784 -91 
Q 1150 -91 751 415 
Q 353 922 353 1747 
Q 353 2572 751 3078 
Q 1150 3584 1784 3584 
Q 2172 3584 2448 3432 
Q 2725 3281 2906 2969 
z
M 947 1747 
Q 947 1113 1208 752 
Q 1469 391 1925 391 
Q 2381 391 2643 752 
Q 2906 1113 2906 1747 
Q 2906 2381 2643 2742 
Q 2381 3103 1925 3103 
Q 1469 3103 1208 2742 
Q 947 2381 947 1747 
z
" id="DejaVuSans-64" transform="scale(0.015625)"/>
      <path d="M 3597 1894 
L 3597 1613 
L 953 1613 
Q 991 1019 1311 708 
Q 1631 397 2203 397 
Q 2534 397 2845 478 
Q 3156 559 3463 722 
L 3463 178 
Q 3153 47 2828 -22 
Q 2503 -91 2169 -91 
Q 1331 -91 842 396 
Q 353 884 353 1716 
Q 353 2575 817 3079 
Q 1281 3584 2069 3584 
Q 2775 3584 3186 3129 
Q 3597 2675 3597 1894 
z
M 3022 2063 
Q 3016 2534 2758 2815 
Q 2500 3097 2075 3097 
Q 1594 3097 1305 2825 
Q 1016 2553 972 2059 
L 3022 2063 
z
" id="DejaVuSans-65" transform="scale(0.015625)"/>
      <path d="M 4122 4306 
L 4122 3641 
Q 3803 3938 3442 4084 
Q 3081 4231 2675 4231 
Q 1875 4231 1450 3742 
Q 1025 3253 1025 2328 
Q 1025 1406 1450 917 
Q 1875 428 2675 428 
Q 3081 428 3442 575 
Q 3803 722 4122 1019 
L 4122 359 
Q 3791 134 3420 21 
Q 3050 -91 2638 -91 
Q 1578 -91 968 557 
Q 359 1206 359 2328 
Q 359 3453 968 4101 
Q 1578 4750 2638 4750 
Q 3056 4750 3426 4639 
Q 3797 4528 4122 4306 
z
" id="DejaVuSans-43" transform="scale(0.015625)"/>
     </defs>
     <use xlink:href="#DejaVuSans-4e"/>
     <use x="74.804688" xlink:href="#DejaVuSans-49"/>
     <use x="104.296875" xlink:href="#DejaVuSans-53"/>
     <use x="167.773438" xlink:href="#DejaVuSans-2c"/>
     <use x="199.560547" xlink:href="#DejaVuSans-20"/>
     <use x="231.347656" xlink:href="#DejaVuSans-34"/>
     <use x="294.970703" xlink:href="#DejaVuSans-31"/>
     <use x="358.59375" xlink:href="#DejaVuSans-2e"/>
     <use x="390.380859" xlink:href="#DejaVuSans-34"/>
     <use x="454.003906" xlink:href="#DejaVuSans-37"/>
     <use x="517.626953" xlink:href="#DejaVuSans-25"/>
     <use x="612.646484" xlink:href="#DejaVuSans-20"/>
     <use x="644.433594" xlink:href="#DejaVuSans-69"/>
     <use x="672.216797" xlink:href="#DejaVuSans-6e"/>
     <use x="735.595703" xlink:href="#DejaVuSans-73"/>
     <use x="787.695312" xlink:href="#DejaVuSans-69"/>
     <use x="815.478516" xlink:href="#DejaVuSans-64"/>
     <use x="878.955078" xlink:href="#DejaVuSans-65"/>
     <use x="940.478516" xlink:href="#DejaVuSans-20"/>
     <use x="972.265625" xlink:href="#DejaVuSans-43"/>
     <use x="1042.089844" xlink:href="#DejaVuSans-49"/>
    </g>
   </g>
  </g>
 </g>
 <defs>
  <clipPath id="p2480f56226">
   <rect height="544.9752" width="1071.36" x="172.8" y="84.9312"/>
  </clipPath>
 </defs>
</svg>
